<svg xmlns="http://www.w3.org/2000/svg" width="124" height="124" viewBox="0 0 124 124">
  <g id="Grupo_124574" data-name="Grupo 124574" transform="translate(-1171 -1052.928)">
    <g id="Grupo_121499" data-name="Grupo 121499" transform="translate(1171 1052.928)">
      <g id="Elipse_6016" data-name="Elipse 6016" fill="#fff" stroke="#2631a0" stroke-width="4">
        <circle cx="62" cy="62" r="62" stroke="none"/>
        <circle cx="62" cy="62" r="60" fill="none"/>
      </g>
    </g>
    <g id="Grupo_124478" data-name="Grupo 124478" transform="translate(5615.762 1025.533)">
      <path id="Trazado_189872" data-name="Trazado 189872" d="M-4370.7,129.544l-6.481,0c-1.066,0-1.067,0-1.067,1.113q0,10.732,0,21.463c0,1.522-.632,2.17-2.121,2.17l-33.247-.012a2.23,2.23,0,0,1-.255-1.539q-.01-18.281-.005-36.562,0-7.354,0-14.709a1.939,1.939,0,0,1,.253-1.371l23.972-.015c.221,0,.454-.045.627.153a3.569,3.569,0,0,0-.249,1.311c.006,2.635-.007,5.271.007,7.906.008,1.4.268,1.641,1.7,1.645,2.606.008,5.214,0,7.821,0a2.408,2.408,0,0,1,1.307.232,1.942,1.942,0,0,1,.188,1.137q0,7.122.008,14.244c.318.35.239.786.249,1.2.03,1.176.044,1.2,1.248,1.2,1.675.006,3.351-.016,5.025.014C-4371.353,129.129-4370.863,128.976-4370.7,129.544Z" transform="translate(-7.714 -34.383)" fill="#e7ecef"/>
      <path id="Trazado_189873" data-name="Trazado 189873" d="M-4248,123.728c-.21-.284-.515-.153-.774-.155-2.009-.015-4.019-.032-6.028,0-.578.008-.8-.154-.757-.751.05-.638.017-1.283.019-1.925,2.188,0,4.376-.041,6.563.016.8.021,1.035-.173,1.032-1-.032-8.442-.02-16.884-.02-25.327,0-1.671.34-2.01,2.017-2.01l9.76,0a3.169,3.169,0,0,1,0,2.682c-2.744,0-5.489.021-8.234,0-.616-.006-.873.1-.871.811.027,8.01.018,16.02.015,24.03,0,.43-.063.816.607.816,2.827,0,5.653.049,8.479.08a3.182,3.182,0,0,1,0,2.689c-2.743-.03-5.486-.037-8.227-.107-.719-.018-.875.217-.875.9q.034,12.015,0,24.03c0,.729.18.969.933.957,2.716-.043,5.433-.017,8.15-.018a3.032,3.032,0,0,1,.015,2.667c-3.337.01-6.674.039-10.012.021-1.32-.007-1.764-.531-1.764-1.9q0-12.748,0-25.5C-4247.963,124.4-4247.985,124.064-4248,123.728Z" transform="translate(-130.42 -28.567)" fill="#958a97"/>
      <path id="Trazado_189874" data-name="Trazado 189874" d="M-4169.431,197.273q0-1.345,0-2.689c.118-1.394-.106-2.8.127-4.189a3.2,3.2,0,0,1,3.371-2.857q5-.017,10,0a3.239,3.239,0,0,1,3.364,3.313c.006.308.019.615.029.922-.161.752-.807,1.123-1.313,1.571-1.026.909-2.024,1.85-3.047,2.762-.729.649-.961.667-1.685-.042-.98-.961-1.942-1.941-2.916-2.908a1.957,1.957,0,0,0-.966-.639,1.051,1.051,0,0,0-1.174.454.923.923,0,0,0,.086,1.236c1.672,1.734,3.364,3.448,5.121,5.1.5.472,1.037.389,1.7-.266.818-.808,1.729-1.509,2.543-2.321a3.073,3.073,0,0,1,1.61-1.116c0,1.736.018,3.472.011,5.207a3.333,3.333,0,0,1-3.514,3.548c-3.248.025-6.5.031-9.744,0a3.438,3.438,0,0,1-3.563-3.555C-4169.429,199.625-4169.421,198.449-4169.431,197.273Z" transform="translate(-197.171 -102.162)" fill="#ffd960"/>
      <path id="Trazado_189875" data-name="Trazado 189875" d="M-4169.435,70.8q0-1.341,0-2.682c.015-1.146.025-2.292.044-3.438a3.4,3.4,0,0,1,3.7-3.632c3.078,0,6.16.092,9.232-.031a3.506,3.506,0,0,1,3.9,3.846,2.743,2.743,0,0,0,.017.419c.126.361-.179.493-.368.679-1.361,1.334-2.812,2.571-4.21,3.866a.749.749,0,0,1-1.219-.009q-1.544-1.551-3.1-3.094a2.752,2.752,0,0,0-.71-.587,1.084,1.084,0,0,0-1.381.23,1.018,1.018,0,0,0-.111,1.317,3.611,3.611,0,0,0,.522.658c1.346,1.352,2.685,2.71,4.049,4.043.958.937,1.52.906,2.52,0,1.079-.979,2.118-2,3.251-2.921.209-.169.374-.44.712-.352.005,1.821.036,3.642.009,5.462a3.248,3.248,0,0,1-3.249,3.283q-5.126.062-10.254,0a3.373,3.373,0,0,1-3.307-3.529C-4169.421,73.148-4169.421,71.972-4169.435,70.8Z" transform="translate(-197.166 -4.108)" fill="#e44d5e"/>
      <path id="Trazado_189876" data-name="Trazado 189876" d="M-4169.494,323.577l-.015-2.666c.016-1.12.045-2.241.046-3.361a3.467,3.467,0,0,1,3.705-3.729c3.193.08,6.391.011,9.586.024a3.244,3.244,0,0,1,3.539,3.56c0,.224.012.448.018.672-.1.747-.745,1.091-1.222,1.521-1.1.992-2.214,1.973-3.285,3a.808.808,0,0,1-1.343-.006c-1-1.022-2.015-2.025-3.028-3.032a2.687,2.687,0,0,0-.707-.589,1.063,1.063,0,0,0-1.38.19.985.985,0,0,0,.027,1.439c.849.931,1.771,1.793,2.657,2.689.65.657,1.295,1.319,1.964,1.957a1.274,1.274,0,0,0,2.046.08c1.161-.968,2.248-2.018,3.367-3.032.248-.225.426-.622.883-.476,0,1.763.009,3.525,0,5.288a3.226,3.226,0,0,1-3.513,3.48c-3.218.009-6.437-.057-9.652.024a3.435,3.435,0,0,1-3.657-3.592C-4169.482,325.87-4169.483,324.723-4169.494,323.577Z" transform="translate(-197.112 -200.037)" fill="#7bbe9e"/>
      <path id="Trazado_189877" data-name="Trazado 189877" d="M-4421.336,100.156q.007,8.119.014,16.237,0,18.972-.011,37.944c-.225,0-.448.013-.673.009a1.757,1.757,0,0,1-1.835-1.858q-.007-25.241,0-50.481C-4423.841,100.692-4423.043,100.12-4421.336,100.156Z" transform="translate(0 -34.446)" fill="#c6c7cd"/>
      <path id="Trazado_189878" data-name="Trazado 189878" d="M-4134.09,65c-1.294,1.154-2.6,2.3-3.878,3.466-1.085.992-1.668,1-2.713-.037-1.371-1.364-2.733-2.735-4.1-4.1a2.382,2.382,0,0,1-.726-1.013,1.237,1.237,0,0,1,.564-1.459,1.326,1.326,0,0,1,1.758.238c1.135,1.124,2.281,2.237,3.38,3.4.414.437.644.492,1.114.036,1.386-1.344,2.84-2.618,4.263-3.924a5.3,5.3,0,0,0,.382-.432c1.536-1.13,2.823-2.543,4.272-3.771.491-.416.952-.868,1.442-1.286a1.347,1.347,0,0,1,1.949.023,1.278,1.278,0,0,1-.158,1.93c-1.659,1.547-3.349,3.062-5.021,4.594C-4132.413,63.434-4133.25,64.218-4134.09,65Z" transform="translate(-215.668 0)" fill="#958a97"/>
      <path id="Trazado_189879" data-name="Trazado 189879" d="M-4134.157,191.2c-1.3,1.155-2.6,2.3-3.883,3.468-1.1.994-1.585,1-2.622-.035q-2.2-2.2-4.4-4.4c-.713-.719-.774-1.383-.211-1.983a1.354,1.354,0,0,1,2.072.1c1.142,1.118,2.265,2.256,3.4,3.386.241.242.457.52.829.159,1.588-1.541,3.335-2.91,4.86-4.519,1.691-1.333,3.2-2.871,4.814-4.289.336-.295.654-.615,1.011-.882a1.229,1.229,0,0,1,1.854.146,1.261,1.261,0,0,1-.13,1.868c-1.01.966-2.064,1.886-3.093,2.832Q-4131.913,189.124-4134.157,191.2Z" transform="translate(-215.602 -97.765)" fill="#958a97"/>
      <path id="Trazado_189880" data-name="Trazado 189880" d="M-4134.057,317.47q-2.1,1.867-4.2,3.734a1.343,1.343,0,0,1-2.069.008q-2.4-2.359-4.76-4.761a1.213,1.213,0,0,1-.041-1.859,1.31,1.31,0,0,1,1.884.027c1.172,1.128,2.328,2.275,3.45,3.452.41.43.651.524,1.116.038,1.47-1.537,3.233-2.766,4.637-4.378,1.783-1.4,3.368-3.032,5.076-4.521.189-.166.361-.354.554-.515.779-.649,1.516-.643,2.075.009a1.324,1.324,0,0,1-.264,1.994C-4129.073,312.967-4131.568,315.215-4134.057,317.47Z" transform="translate(-215.69 -195.692)" fill="#958a97"/>
      <path id="Trazado_189881" data-name="Trazado 189881" d="M-4294.438,111.857c-3.272.006-6.544.017-9.816.013-.921,0-1.233-.31-1.239-1.294-.018-3.076,0-6.153-.01-9.229,0-.346.035-.625.482-.587a48.1,48.1,0,0,1,3.684,3.671c2.129,2.184,4.218,4.407,6.325,6.613A2,2,0,0,1-4294.438,111.857Z" transform="translate(-91.715 -34.913)" fill="#958a97"/>
      <path id="Trazado_189882" data-name="Trazado 189882" d="M-4385.742,196.292q-5.765,0-11.529,0a3.377,3.377,0,0,1-.754-.028,1.267,1.267,0,0,1-1.092-1.382,1.257,1.257,0,0,1,1.132-1.262,4.074,4.074,0,0,1,.755-.02h22.975c.168,0,.337-.006.5,0a1.323,1.323,0,0,1,1.391,1.363,1.322,1.322,0,0,1-1.348,1.323c-.223.015-.449,0-.673,0Z" transform="translate(-19.163 -106.86)" fill="#958a97"/>
      <path id="Trazado_189883" data-name="Trazado 189883" d="M-4385.812,238.241q-5.845,0-11.69,0a1.687,1.687,0,0,1-1.321-.4,1.317,1.317,0,0,1,.6-2.211,2.918,2.918,0,0,1,1-.08q11.394,0,22.79,0c.168,0,.336-.007.5,0,.928.05,1.5.581,1.49,1.37-.014.809-.573,1.315-1.518,1.317Q-4379.884,238.25-4385.812,238.241Z" transform="translate(-19.085 -139.375)" fill="#958a97"/>
      <path id="Trazado_189884" data-name="Trazado 189884" d="M-4385.771,280.181h-11.517a4.524,4.524,0,0,1-.754-.022,1.26,1.26,0,0,1-1.105-1.107,1.256,1.256,0,0,1,.662-1.341,2.188,2.188,0,0,1,1.22-.225q11.476,0,22.95,0a2.979,2.979,0,0,1,.833.057,1.31,1.31,0,0,1,1.079,1.4,1.284,1.284,0,0,1-1.346,1.224c-.784.026-1.569.008-2.354.008Z" transform="translate(-19.125 -171.879)" fill="#958a97"/>
      <path id="Trazado_189885" data-name="Trazado 189885" d="M-4390.821,151.686c2.243,0,4.487,0,6.73,0,1.03,0,1.6.464,1.618,1.3.024.868-.556,1.387-1.626,1.389q-6.688.014-13.376,0c-1.056,0-1.677-.526-1.669-1.361.008-.861.586-1.325,1.677-1.327Q-4394.145,151.681-4390.821,151.686Z" transform="translate(-19.143 -74.382)" fill="#958a97"/>
    </g>
  </g>
</svg>
