<svg id="Grupo_121498" data-name="Grupo 121498" xmlns="http://www.w3.org/2000/svg" width="124" height="124" viewBox="0 0 124 124">
  <g id="Elipse_6016" data-name="Elipse 6016" fill="#fff" stroke="#2631a0" stroke-width="4">
    <circle cx="62" cy="62" r="62" stroke="none"/>
    <circle cx="62" cy="62" r="60" fill="none"/>
  </g>
  <g id="Grupo_124477" data-name="Grupo 124477" transform="translate(4511.165 -482.495)">
    <path id="Trazado_189855" data-name="Trazado 189855" d="M-4203.1,778.166c2.674.007,5.349.011,8.022.026.295,0,.616-.1.878.138-.282.3-.657.242-1.007.248-.944.016-1.888,0-2.932.009a4.872,4.872,0,0,1,.475,2.945q.012,5.9,0,11.8a2.658,2.658,0,0,1-.137,1.206c-.262.327-.639.273-.989.28-.867.017-1.735-.016-2.6.015-.706.025-1.122.36-1.148.876-.027.542.4.914,1.155.952.841.042,1.684.006,2.526.017a1.691,1.691,0,0,1,.966.167,4.386,4.386,0,0,1,.038,2.821,1.375,1.375,0,0,1-1.12.913h-15.482a1.7,1.7,0,0,1-1.3-1.76c-.033-.586-.015-1.173-.015-1.759q0-8.033,0-16.066c0-.306-.007-.612.008-.918a1.953,1.953,0,0,1,2.112-2.108c1.886-.048,3.773-.021,5.66-.011a12.191,12.191,0,0,1,2.362.075.618.618,0,0,1,.229.143c-.1.467-.5.375-.794.374-.54,0-.7.254-.7.758.018,1.5-.016,3.009.016,4.513.02.9.388,1.1,1.162.662a3.3,3.3,0,0,0,.454-.284,1.452,1.452,0,0,1,1.9,0c.367.247.748.692,1.225.45.527-.267.322-.859.331-1.32.021-1.249-.019-2.5.018-3.748.02-.668-.114-1.1-.9-1.052a.467.467,0,0,1-.452-.237C-4203.118,778.248-4203.107,778.207-4203.1,778.166Z" transform="translate(-216.78 -216.823)" fill="#faac72"/>
    <path id="Trazado_189856" data-name="Trazado 189856" d="M-4335.917,800.53H-4351.4c-1.065-.371-1.309-.74-1.31-2.1q-.012-8,0-16.01c0-.868-.043-1.738.024-2.6a1.788,1.788,0,0,1,1.7-1.851c2.752-.1,5.508-.139,8.26.017a.621.621,0,0,1,.231.14c-.069.438-.437.366-.713.379-.461.021-.622.244-.619.681.009,1.558-.025,3.118.017,4.676.021.808.408,1,1.1.6a4.48,4.48,0,0,0,.448-.295,1.534,1.534,0,0,1,1.977-.006c.357.245.714.716,1.216.429.478-.273.326-.819.331-1.263.015-1.252-.015-2.5.014-3.756.015-.639-.051-1.13-.867-1.086a.44.44,0,0,1-.488-.3.411.411,0,0,1,.2-.185,4.276,4.276,0,0,1,1.364-.1c2.11,0,4.221-.013,6.33.007.376,0,.836-.12,1.045.383a1.191,1.191,0,0,1-.935.24c-1.044.01-2.088.014-3.17-.007a2.093,2.093,0,0,1,.629,1.594c.031,4.568.017,9.136.009,13.7a1.376,1.376,0,0,1-.135.668c-.262.323-.638.272-.986.279-.89.018-1.781-.017-2.67.016-.746.028-1.083.323-1.091.9-.007.552.344.875,1.082.922.837.053,1.678.008,2.518.021a1.943,1.943,0,0,1,1.042.159,4.076,4.076,0,0,1-.025,2.942A1.443,1.443,0,0,1-4335.917,800.53Z" transform="translate(-107.885 -216.777)" fill="#faac72"/>
    <path id="Trazado_189857" data-name="Trazado 189857" d="M-4488.41,779.3a2.224,2.224,0,0,1,2.178-1.068c2.591.031,5.183-.014,7.774-.029.01.041.021.081.032.122a.532.532,0,0,1-.527.247c-.718-.041-.83.366-.818.966.027,1.429-.007,2.859.015,4.289.015.971.4,1.218,1.164.646a2,2,0,0,1,2.762.02c.674.525,1.114.289,1.139-.558.045-1.557.01-3.114.016-4.671,0-.439-.175-.654-.629-.673-.312-.013-.685.069-.87-.322a.4.4,0,0,1,.2-.186,3.336,3.336,0,0,1,1.135-.1c2.238,0,4.476-.012,6.713.007.376,0,.836-.121,1.043.385a.972.972,0,0,1-.782.235,26.09,26.09,0,0,1-3.641-.084c-.1-.005-.036.15-.04.048,0-.041.021-.041.066-.04.406.009.55.315.677.616a3.986,3.986,0,0,1,.258,1.575q0,6.427,0,12.855a2.173,2.173,0,0,1-.131.976c-.251.34-.63.285-.977.292-.891.018-1.782-.015-2.671.015-.769.026-1.19.362-1.19.905s.434.9,1.175.93c.864.031,1.73,0,2.595.013a1.71,1.71,0,0,1,.964.163,4.122,4.122,0,0,1-.123,3.068c-.159.411-.58.526-.955.67h-15.482a1.2,1.2,0,0,1-1.073-1.073Z" transform="translate(0 -216.861)" fill="#faac72"/>
    <path id="Trazado_189858" data-name="Trazado 189858" d="M-4402.846,779.906c.89.29,1.058.993,1.057,1.811q-.006,9.058,0,18.115a3.034,3.034,0,0,0,0,.305,1.859,1.859,0,0,1-1.065,2.007h-4.752a2.408,2.408,0,0,0,1.072-2.383c-.008-.427,0-.854,0-1.281a.781.781,0,0,1,.258-.271c.753-.648.752-1.185,0-1.8a.682.682,0,0,1-.256-.272q0-7.039,0-14.078a2.421,2.421,0,0,0-.9-2.157Z" transform="translate(-64.248 -218.391)" fill="#f49757"/>
    <path id="Trazado_189859" data-name="Trazado 189859" d="M-4265.922,779.888a1.417,1.417,0,0,1,1.051,1.494c0,6.369,0,12.737.011,19.106a2.075,2.075,0,0,1-.924,1.642h-4.906a2.3,2.3,0,0,0,1.079-2.38c-.041-.424-.007-.854-.007-1.282a.708.708,0,0,1,.255-.267c.8-.642.8-1.172,0-1.806a.652.652,0,0,1-.251-.27q0-6.894,0-13.788a2.958,2.958,0,0,0-.832-2.449Z" transform="translate(-173.113 -218.377)" fill="#f49657"/>
    <path id="Trazado_189860" data-name="Trazado 189860" d="M-4133.774,802.113a2.039,2.039,0,0,0,1.082-2.144,14.684,14.684,0,0,1-.008-1.517.309.309,0,0,1,.08-.126c1.063-.895,1.062-1.181,0-2.091a.286.286,0,0,1-.076-.128q0-7.108,0-14.216a2.646,2.646,0,0,0-.654-2.024H-4129a1.31,1.31,0,0,1,1.045,1.407c.009,6.455,0,12.91.012,19.365,0,.716-.471,1.077-.926,1.475Z" transform="translate(-281.976 -218.36)" fill="#f49657"/>
    <path id="Trazado_189861" data-name="Trazado 189861" d="M-4488.41,883.207a2.75,2.75,0,0,0,1.073,1.073C-4488.41,884.28-4488.41,884.28-4488.41,883.207Z" transform="translate(0 -300.527)" fill="#fff9f5"/>
    <path id="Trazado_189862" data-name="Trazado 189862" d="M-4395.829,537.277c.513-.7,1.014-1.406,1.544-2.091a.721.721,0,0,0,.1-.949,12.007,12.007,0,0,1-1.238-2.955.694.694,0,0,0-.668-.591c-1.389-.175-2.772-.4-4.158-.6a1.362,1.362,0,0,1-1.361-1.524c-.011-1.251-.013-2.5,0-3.754a1.319,1.319,0,0,1,1.3-1.483c1.385-.208,2.769-.422,4.157-.608a.762.762,0,0,0,.738-.628,12.027,12.027,0,0,1,1.227-2.959.674.674,0,0,0-.073-.876c-.818-1.077-1.616-2.169-2.422-3.255-.711-.959-.681-1.408.165-2.258q1.215-1.223,2.438-2.437c.794-.788,1.25-.838,2.136-.194q1.672,1.215,3.313,2.471a.718.718,0,0,0,.944.067,11.991,11.991,0,0,1,2.886-1.2.8.8,0,0,0,.662-.787c.178-1.389.393-2.774.608-4.158a1.3,1.3,0,0,1,1.457-1.252q1.915-.02,3.829,0a1.3,1.3,0,0,1,1.455,1.253c.216,1.384.43,2.769.608,4.159a.786.786,0,0,0,.664.78,12.018,12.018,0,0,1,2.953,1.241.618.618,0,0,0,.81-.056c.708-.542,1.436-1.059,2.156-1.585a13.136,13.136,0,0,1,1.688,4.884,19.683,19.683,0,0,1-9.856,20.867,19.7,19.7,0,0,1-8.229,2.424,19.69,19.69,0,0,1-9.4-1.642A.832.832,0,0,1-4395.829,537.277Z" transform="translate(-69.007)" fill="#4388c8"/>
    <path id="Trazado_189863" data-name="Trazado 189863" d="M-4378.7,554.4c1.4.368,2.709,1.007,4.136,1.318a19.464,19.464,0,0,0,12.149-1.154,19.1,19.1,0,0,0,9.849-9.485,19.613,19.613,0,0,0,1.827-6.812,19.458,19.458,0,0,0-1.648-9.655,2,2,0,0,1-.082-.448c.481-.376.943-.779,1.449-1.119a1.257,1.257,0,0,1,1.684.112c1,.953,1.975,1.925,2.924,2.924a1.292,1.292,0,0,1,.061,1.868c-.844,1.153-1.693,2.3-2.561,3.436a.681.681,0,0,0-.067.878,10.2,10.2,0,0,1,1.147,2.739c.143.621.509.784,1.068.856,1.336.173,2.669.376,4,.6a1.238,1.238,0,0,1,1.191,1.406q.016,1.953,0,3.906a1.291,1.291,0,0,1-1.258,1.438c-1.382.215-2.766.425-4.151.609a.8.8,0,0,0-.783.669,11.071,11.071,0,0,1-1.173,2.812.815.815,0,0,0,.11,1.075c.815,1.046,1.585,2.127,2.371,3.2.674.916.642,1.384-.166,2.2q-1.237,1.253-2.49,2.491a1.354,1.354,0,0,1-2.145.169c-1.068-.786-2.143-1.565-3.187-2.382a.868.868,0,0,0-1.14-.111,10.134,10.134,0,0,1-2.742,1.139c-.531.131-.661.444-.723.911-.166,1.261-.333,2.523-.55,3.776-.222,1.284-.543,1.527-1.825,1.539-.127,0-.255.009-.382.013a3,3,0,0,1-2.447,0c-.28,0-.561,0-.84-.018a1.279,1.279,0,0,1-1.3-1.152c-.213-1.38-.429-2.761-.609-4.146a.954.954,0,0,0-.781-.956,9.526,9.526,0,0,1-2.668-1.1.857.857,0,0,0-1.137.1c-1.062.831-2.154,1.626-3.244,2.422a1.324,1.324,0,0,1-2.081-.174c-.888-.878-1.775-1.758-2.648-2.651a1.282,1.282,0,0,1-.158-1.906C-4379.395,555.272-4379.039,554.841-4378.7,554.4Z" transform="translate(-86.14 -17.123)" fill="#1f74bc"/>
    <path id="Trazado_189864" data-name="Trazado 189864" d="M-4411.769,714.866h2.446c-.005,1.556.026,3.114-.032,4.668-.026.7.221.84.872.838q12.359-.031,24.717-.013h.766c1.395,0,1.716.334,1.721,1.769q.01,2.946.024,5.893a.149.149,0,0,0-.006.077,3.227,3.227,0,0,1-2.334-.008.091.091,0,0,0-.011-.077c.008-1.606.01-3.212.031-4.818.005-.394-.139-.571-.535-.536-.126.011-.254,0-.382,0-7.981,0-15.96.01-23.94-.017-.749,0-.952.217-.921.944.062,1.476.033,2.957.042,4.435a.169.169,0,0,0-.006.076,3.626,3.626,0,0,1-2.454,0,.162.162,0,0,0-.006-.076c.008-1.555-.018-3.112.041-4.665.027-.705-.338-.7-.844-.7q-8.8.013-17.592.005c-2.218,0-4.437.015-6.654-.011-.539-.006-.707.165-.693.7.038,1.555.028,3.11.037,4.665a.09.09,0,0,0-.012.077,3.227,3.227,0,0,1-2.334.008.149.149,0,0,0-.006-.077q.012-2.908.024-5.816c0-1.537.3-1.845,1.8-1.845q12.665,0,25.329.015c.716,0,.981-.156.949-.917C-4411.8,717.929-4411.764,716.4-4411.769,714.866Z" transform="translate(-38.622 -166.677)" fill="#a7b8c4"/>
    <path id="Trazado_189865" data-name="Trazado 189865" d="M-4171.8,779.407l2.334.008a.487.487,0,0,0,.067.036c.455.164,1.089-.2,1.372.2.3.418.09,1.038.1,1.569.015,1.326.013,2.652,0,3.977-.008.972-.5,1.243-1.323.744a2.532,2.532,0,0,1-.382-.252,1.32,1.32,0,0,0-2.018-.043,3.044,3.044,0,0,1-.578.37c-.625.365-1.209.082-1.22-.641-.026-1.784,0-3.569-.016-5.354,0-.4.15-.531.539-.531A2.309,2.309,0,0,0-4171.8,779.407Z" transform="translate(-250.42 -217.995)" fill="#ba6532"/>
    <path id="Trazado_189866" data-name="Trazado 189866" d="M-4147.667,859.132a1.162,1.162,0,0,1,1.054,1.13c.021.7-.428,1.048-1.055,1.215-1.193-.008-2.386-.009-3.579-.025-.884-.012-1.371-.452-1.35-1.194.02-.7.493-1.1,1.351-1.1C-4150.053,859.144-4148.86,859.14-4147.667,859.132Z" transform="translate(-267.009 -281.385)" fill="#4388c8"/>
    <path id="Trazado_189867" data-name="Trazado 189867" d="M-4308.85,779.448h2.454a.6.6,0,0,0,.068.035c.455.166,1.092-.2,1.372.2.293.419.089,1.039.095,1.571.014,1.327,0,2.654.008,3.982a.885.885,0,0,1-.434.9c-.362.2-.63.024-.909-.169-.23-.159-.479-.295-.7-.468a1.057,1.057,0,0,0-1.458,0,7.688,7.688,0,0,1-.825.553c-.586.348-1.187.078-1.2-.59-.031-1.837-.008-3.675-.014-5.513,0-.349.185-.417.483-.426A2.482,2.482,0,0,0-4308.85,779.448Z" transform="translate(-141.545 -218.027)" fill="#ba6532"/>
    <path id="Trazado_189868" data-name="Trazado 189868" d="M-4284.663,859.14a1.158,1.158,0,0,1,1.035,1.128,1.2,1.2,0,0,1-1.036,1.214c-1.2-.007-2.4-.008-3.595-.023-.889-.011-1.375-.45-1.354-1.2.021-.721.473-1.093,1.355-1.1C-4287.059,859.151-4285.861,859.147-4284.663,859.14Z" transform="translate(-158.067 -281.391)" fill="#4388c8"/>
    <path id="Trazado_189869" data-name="Trazado 189869" d="M-4445.812,779.415l2.334-.008a1.277,1.277,0,0,0,.286.087c1.374.085,1.374.084,1.374,1.445,0,1.4-.006,2.8,0,4.207a.925.925,0,0,1-.452.967c-.406.214-.674-.033-.968-.229-.254-.17-.516-.329-.766-.5a.943.943,0,0,0-1.2.013,9.348,9.348,0,0,1-.956.631c-.667.365-1.181.085-1.19-.674-.021-1.759,0-3.518-.014-5.277,0-.425.133-.6.57-.581A1.876,1.876,0,0,0-4445.812,779.415Z" transform="translate(-32.64 -217.995)" fill="#ba6532"/>
    <path id="Trazado_189870" data-name="Trazado 189870" d="M-4421.847,859.146a1.158,1.158,0,0,1,1.014,1.164,1.2,1.2,0,0,1-1.015,1.175c-1.2-.006-2.4-.009-3.593-.021-.874-.008-1.423-.46-1.423-1.157s.537-1.134,1.424-1.142C-4424.242,859.157-4423.044,859.153-4421.847,859.146Z" transform="translate(-48.936 -281.396)" fill="#4388c8"/>
    <path id="Trazado_189871" data-name="Trazado 189871" d="M-4339.593,576.057a8.7,8.7,0,0,1,8.726-8.775,8.7,8.7,0,0,1,8.779,8.723,8.73,8.73,0,0,1-8.728,8.787A8.725,8.725,0,0,1-4339.593,576.057Z" transform="translate(-118.327 -49.331)" fill="#fff"/>
  </g>
</svg>
