<svg id="Grupo_121500" data-name="Grupo 121500" xmlns="http://www.w3.org/2000/svg" width="124" height="124" viewBox="0 0 124 124">
  <g id="Elipse_6016" data-name="Elipse 6016" fill="#fff" stroke="#2631a0" stroke-width="4">
    <circle cx="62" cy="62" r="62" stroke="none"/>
    <circle cx="62" cy="62" r="60" fill="none"/>
  </g>
  <g id="Grupo_124479" data-name="Grupo 124479" transform="translate(3776.053 122.929)">
    <path id="Trazado_189886" data-name="Trazado 189886" d="M-3535.97,129.592c-1.079-.783-2.174-1.544-3.229-2.358a.959.959,0,0,0-1.279-.116,7.14,7.14,0,0,1-2.345.981c-.7.144-.879.545-.966,1.155-.2,1.432-.472,2.854-.666,4.287-.065.479-.26.6-.71.594-1.363-.023-2.728-.037-4.09.005-.561.018-.722-.21-.795-.71-.218-1.487-.5-2.964-.7-4.453a.82.82,0,0,0-.693-.805,10.239,10.239,0,0,1-2.66-1.112.823.823,0,0,0-1.06.093c-1.2.9-2.441,1.76-3.641,2.667-.407.308-.668.356-1.053-.058q-1.364-1.465-2.832-2.832c-.433-.4-.4-.682-.064-1.126.914-1.2,1.763-2.439,2.664-3.644a.779.779,0,0,0,.072-.995,9.4,9.4,0,0,1-1.08-2.581,1,1,0,0,0-.985-.842c-1.459-.214-2.909-.5-4.372-.674-.579-.069-.689-.308-.68-.815.024-1.335.034-2.671,0-4.005-.015-.508.156-.694.642-.765,1.515-.223,3.02-.516,4.538-.712a.866.866,0,0,0,.843-.762,10.2,10.2,0,0,1,1.076-2.584.821.821,0,0,0-.069-1.065c-.91-1.2-1.754-2.447-2.667-3.642a.7.7,0,0,1,.1-1.127q1.431-1.338,2.772-2.771c.4-.429.686-.413,1.133-.072,1.173.9,2.4,1.726,3.573,2.617a.871.871,0,0,0,1.136.1,10.049,10.049,0,0,1,2.663-1.107.754.754,0,0,0,.637-.747c.217-1.515.5-3.021.719-4.536.074-.51.249-.718.8-.7,1.334.042,2.67.036,4,0,.532-.014.729.144.8.691.189,1.462.473,2.911.683,4.37a.973.973,0,0,0,.839.973,9.288,9.288,0,0,1,2.581,1.083.773.773,0,0,0,.989-.074c1.108-.837,2.246-1.633,3.372-2.445.947.816,1.776,1.751,2.668,2.623a.812.812,0,0,1,.04,1.2q-1.188,1.662-2.4,3.3a1.3,1.3,0,0,0-.125,1.634,9.477,9.477,0,0,1,.862,2.126c.1.305.21.605.591.643.794.078,1.525.441,2.322.5a14.171,14.171,0,0,1,1.578.231c.278.1.582.04.86.138a.786.786,0,0,1,.667.843c.03,1.377.022,2.753,0,4.13-.009.658-.39.876-.978.871-.235.057-.476.087-.713.136-.528.054-1.046.186-1.576.226-.608.112-1.2.293-1.818.368a1.046,1.046,0,0,0-.958.815,11.328,11.328,0,0,1-.934,2.271,1.019,1.019,0,0,0,.1,1.244c.787,1.071,1.571,2.143,2.344,3.224.625.875.631,1.019-.155,1.787A29.045,29.045,0,0,1-3535.97,129.592Z" transform="translate(-145.385 -154.408)" fill="#6f6371"/>
    <path id="Trazado_189887" data-name="Trazado 189887" d="M-3717.954-32.2a45.847,45.847,0,0,0-1.053-6.1,28.2,28.2,0,0,0-3.1-6.5c-2.856-4.769-2.044-11.583,1.674-15.889a14.523,14.523,0,0,1,9.616-5.068,3.878,3.878,0,0,1,.509,0c6.293.267,12.067,6.149,12.7,12.8a14.117,14.117,0,0,1-2.172,9.152,21.818,21.818,0,0,0-3.36,9.712,1.674,1.674,0,0,1-.436,1.084c-.385.556-.7,1.181-1.571,1.041-.5-.08-.779-.29-.8-.805-.009-.2-.014-.4-.014-.6q0-6.177,0-12.354a2.785,2.785,0,0,1,.094-1.011c.2-.362.561-.339.9-.357.539-.028,1.082.033,1.617-.034a4.037,4.037,0,0,0,3.688-2.84,4.01,4.01,0,0,0-1.136-4.445,4.025,4.025,0,0,0-4.531-.688,3.95,3.95,0,0,0-2.327,2.959,10.782,10.782,0,0,0-.222,2.2c-.013.888-.191,1.051-1.038,1.1-2.1.119-2.147.073-2.156-2.029-.011-2.6-1.707-4.543-4.017-4.609a4.23,4.23,0,0,0-4.356,4.006,4.282,4.282,0,0,0,4.019,4.366c.6.033,1.192-.007,1.788.026a.759.759,0,0,1,.809.8c.01.17.018.34.018.511q0,6.261,0,12.522c0,.411.089.868-.324,1.176a25.56,25.56,0,0,1-4.45.069A.54.54,0,0,1-3717.954-32.2Z" transform="translate(-24.398 -30.749)" fill="#ffd960"/>
    <path id="Trazado_189888" data-name="Trazado 189888" d="M-3565.188-32.225q3.567-3.024,7.135-6.047c1.383-1.167,2.776-2.321,4.316-3.607,0,1.385.036,2.614-.015,3.838-.026.636.167.8.8.823a25.046,25.046,0,0,1,11.236,2.624c4.467,2.384,7.418,5.929,8.167,11.038a13.637,13.637,0,0,1-1.684,8.77,19.2,19.2,0,0,0-2.5-5.7,15.044,15.044,0,0,0-6.952-6.035,23.02,23.02,0,0,0-9.654-1.678c-.506.01-.723.222-.717.719.006.567.014,1.136-.006,1.7-.011.33.085.754-.281.916-.308.137-.579-.152-.828-.332-.736-.531-1.461-1.08-2.194-1.616-2.061-1.51-4.128-3.011-6.174-4.54C-3564.83-31.56-3565.3-31.694-3565.188-32.225Z" transform="translate(-146.881 -49.197)" fill="#e44d5e"/>
    <path id="Trazado_189889" data-name="Trazado 189889" d="M-3714.566,161.961a13.046,13.046,0,0,1,1.41-3.679c.214.638.369,1.134.545,1.622,1.931,5.385,5.908,8.183,11.426,9.023a33.758,33.758,0,0,0,4.57.36c.578.009.8-.134.777-.75-.046-1.185-.013-2.374-.013-3.775l10.772,7.907c-2.491,2.148-5.047,4.221-7.57,6.331-.327.274-.616.592-.967.834-.558.384-.815.266-.9-.4a6.091,6.091,0,0,1-.017-.681c-.011-1.052-.013-1.029-1.031-1.082a26.944,26.944,0,0,1-9.206-1.912,16.037,16.037,0,0,1-8.076-6.891,11.4,11.4,0,0,1-1.67-6.748A.31.31,0,0,0-3714.566,161.961Z" transform="translate(-31.548 -203.757)" fill="#7bbe9e"/>
    <path id="Trazado_189890" data-name="Trazado 189890" d="M-3657.694-33.328a23.945,23.945,0,0,1,2.424-8.77,38,38,0,0,0,2.453-4.557,13.744,13.744,0,0,0-1.083-12.079,14.071,14.071,0,0,0-9.543-6.9c-.35-.08-.752.057-1.055-.228a14.35,14.35,0,0,1,15.183,12.495,13.268,13.268,0,0,1-1.886,8.955,24.66,24.66,0,0,0-3.81,12.1,3.325,3.325,0,0,1-2.438.134C-3658.05-32.31-3657.987-32.859-3657.694-33.328Z" transform="translate(-70.209 -30.645)" fill="#ffc44f"/>
    <path id="Trazado_189891" data-name="Trazado 189891" d="M-3715.572,174.431c.17,1.077.272,2.17.522,3.228a14.344,14.344,0,0,0,7.5,9.462,22.076,22.076,0,0,0,9.468,2.654,21.429,21.429,0,0,0,2.278.152c.376-.017.492.182.487.525-.009.622,0,1.244,0,1.92.813-.138,1.193-.813,1.715-1.233,2.244-1.8,4.425-3.687,6.625-5.547a1.656,1.656,0,0,1,.891-.455c1.235.8,1.228.788.09,1.74q-4.99,4.174-9.97,8.36c-.252.211-.521.4-.9.694,0-1.27-.038-2.394.015-3.514.03-.639-.167-.8-.8-.812a22.891,22.891,0,0,1-10.324-2.384c-4.086-2.137-6.844-5.34-7.694-9.983A12.078,12.078,0,0,1-3715.572,174.431Z" transform="translate(-30.541 -216.227)" fill="#57ac77"/>
    <path id="Trazado_189892" data-name="Trazado 189892" d="M-3695.835,86.008a2.327,2.327,0,0,1-2.388-2.518c0-.709.012-1.418.02-2.128,3.285.051,6.562-.27,9.849-.223a34.42,34.42,0,0,0,4.478.133c.31.139.35.425.366.71a10.239,10.239,0,0,1-.021,1.7,2.666,2.666,0,0,1-2.085,2.493,2.745,2.745,0,0,1-.637.08c-2.876.058-5.752.018-8.627.021A1.312,1.312,0,0,1-3695.835,86.008Z" transform="translate(-44.167 -144.186)" fill="#e7ecef"/>
    <path id="Trazado_189893" data-name="Trazado 189893" d="M-3569.736.5a21.779,21.779,0,0,0,3.268,2.525c2.137,1.618,4.317,3.181,6.64,4.884,0-1.069.018-1.983-.008-2.9-.013-.488.112-.706.659-.716a22.585,22.585,0,0,1,11.486,2.419,15.226,15.226,0,0,1,5.13,4.741,1.2,1.2,0,0,1,.277.786c-3.328-4.4-8.019-5.829-13.252-6.071-.623-.029-1.249-.03-1.868-.1s-.926.068-.889.8c.064,1.272.018,2.549.018,4.056l-12.819-9.4A7.133,7.133,0,0,1-3569.736.5Z" transform="translate(-142.333 -81.918)" fill="#e03246"/>
    <path id="Trazado_189894" data-name="Trazado 189894" d="M-3683.676,31.149q-3.487-.019-6.974-.037-3.744-.013-7.487-.015a.39.39,0,0,1,.018-.128l4.933-.015c.355-.321.8-.239,1.219-.262a.628.628,0,0,0,.684-.688c.009-.284.013-.568.013-.852q0-5.752,0-11.5c0-1.479.137-1.608,1.6-1.61a7.528,7.528,0,0,1,.851.033.8.8,0,0,1,.776.76,8.63,8.63,0,0,1,.041,1.106c0,3.863-.006,7.726.009,11.589,0,.446-.153,1.013.565,1.143.816.147,1.092-.083,1.095-1.02.01-4.034-.007-8.067.018-12.1,0-.427-.208-.993.428-1.225q0,6.886.01,13.772c0,.317-.21.841.387.848.434.005,1.063.329,1.191-.514a.618.618,0,0,1,.628-.484c-.131.791.159,1.134,1,1.035a14.807,14.807,0,0,1,1.687-.017.276.276,0,0,1,.016.143A3.051,3.051,0,0,1-3683.676,31.149Z" transform="translate(-44.233 -93.919)" fill="#ffd960"/>
    <path id="Trazado_189895" data-name="Trazado 189895" d="M-3687.773,102.527l9.733.022a4.88,4.88,0,0,1,.007,3.392,2.149,2.149,0,0,1-2.125,1.423c-1.643.007-3.286-.026-4.929.021a.484.484,0,0,1-.3-.081c-.113-.158-.287-.145-.454-.176a2.2,2.2,0,0,1-1.931-2.226C-3687.8,104.112-3687.774,103.319-3687.773,102.527Z" transform="translate(-52.228 -160.704)" fill="#c6c7cd"/>
    <path id="Trazado_189896" data-name="Trazado 189896" d="M-3677.279,122.526a1.12,1.12,0,0,1,.161-.006c1.432-.186,2.871-.035,4.306-.08a9.414,9.414,0,0,0,2.021-.142,1.22,1.22,0,0,1,1.2.229c0,.763.013,1.527-.005,2.29a2.263,2.263,0,0,1-2.242,2.29c-1.016.04-2.036.038-3.053,0a2.373,2.373,0,0,1-2.379-2.379C-3677.3,124-3677.279,123.262-3677.279,122.526Z" transform="translate(-60.332 -175.926)" fill="#a2a3a8"/>
    <path id="Trazado_189897" data-name="Trazado 189897" d="M-3427.73,124.968c-.837-.117-1.672-.253-2.512-.343-.351-.038-.394-.287-.465-.519a12.729,12.729,0,0,0-1.21-2.9c-.23-.383-.065-.637.132-.914.886-1.244,1.735-2.518,2.685-3.711.381-.479.255-.7-.1-1.035-.679-.645-1.332-1.318-1.991-1.984-.2-.2-.452-.361-.453-.688.584-.7,1.067-.647,1.672.059a32.25,32.25,0,0,0,2.582,2.6c.406.377.386.642.072,1.059-.923,1.223-1.791,2.487-2.713,3.71a.8.8,0,0,0-.073.989,10.885,10.885,0,0,1,.927,2.088c.322,1.181.279,1.351,1.951,1.441C-3427.3,125.2-3427.531,125.024-3427.73,124.968Z" transform="translate(-249.717 -168.31)" fill="#554c56"/>
    <path id="Trazado_189898" data-name="Trazado 189898" d="M-3431.667,207.993a10.429,10.429,0,0,1,2.281-2.46c.582-.559.563-.928.088-1.525-.894-1.122-1.7-2.314-2.553-3.469a.714.714,0,0,1-.056-.959,9.93,9.93,0,0,0,1.106-2.647.853.853,0,0,1,.785-.73,12.7,12.7,0,0,1,2.086-.266c.178-.085.2.01.172.152-.886.047-1.289.535-1.454,1.393a4.2,4.2,0,0,1-.686,1.624,1.382,1.382,0,0,0,.179,1.93c.808,1.016,1.494,2.13,2.313,3.136.44.541.312.834-.129,1.247a32.25,32.25,0,0,0-2.511,2.526C-3430.638,208.639-3431.107,208.622-3431.667,207.993Z" transform="translate(-249.689 -232.81)" fill="#554c56"/>
    <path id="Trazado_189899" data-name="Trazado 189899" d="M-3669.018,106.426l-7.523-.008c.255-.267.585-.155.883-.158,1.412-.012,2.823,0,4.235-.01a2.08,2.08,0,0,0,2.047-2.042c.017-.847.013-1.694.018-2.54l.487-.034a5.245,5.245,0,0,1,1.664-.23c.359.05.666.151.641.617a18.213,18.213,0,0,1-.068,2.362C-3666.855,105.735-3667.85,106.181-3669.018,106.426Z" transform="translate(-60.909 -159.824)" fill="#a2a3a8"/>
    <path id="Trazado_189900" data-name="Trazado 189900" d="M-3666.134-102.784c0-.51-.015-1.02,0-1.529a1.161,1.161,0,0,1,1.178-1.276,1.2,1.2,0,0,1,1.339,1.131,28.945,28.945,0,0,1,0,3.309,1.224,1.224,0,0,1-1.362,1.212,1.272,1.272,0,0,1-1.158-1.4C-3666.144-101.821-3666.135-102.3-3666.134-102.784Z" transform="translate(-68.941 0)" fill="#ffd961"/>
    <path id="Trazado_189901" data-name="Trazado 189901" d="M-3715-86.7a1.218,1.218,0,0,1-.941-.659c-.512-.881-1.036-1.755-1.515-2.653a1.229,1.229,0,0,1,.5-1.808,1.23,1.23,0,0,1,1.713.6c.521.875,1.05,1.749,1.509,2.656A1.255,1.255,0,0,1-3715-86.7Z" transform="translate(-29.161 -10.514)" fill="#ffd960"/>
    <path id="Trazado_189902" data-name="Trazado 189902" d="M-3583.718-52.786a1.259,1.259,0,0,1-.7,1.092c-.866.533-1.741,1.054-2.635,1.538a1.252,1.252,0,0,1-1.767-.435,1.239,1.239,0,0,1,.5-1.752c.861-.54,1.74-1.057,2.646-1.517A1.258,1.258,0,0,1-3583.718-52.786Z" transform="translate(-128.506 -39.804)" fill="#ffd961"/>
    <path id="Trazado_189903" data-name="Trazado 189903" d="M-3640.642,89.553c0-.7-.031-1.4-.008-2.1.015-.468-.149-.663-.629-.64-.532.026-1.066,0-1.6-.005a2.752,2.752,0,0,0,1.88-3.05c-.022-.51-.006-1.021-.007-1.531l2.7-.042c.008.62.007,1.24.026,1.859a2.51,2.51,0,0,1-1.743,2.687c-.409.148-.46.38-.48.752A5.1,5.1,0,0,1-3640.642,89.553Z" transform="translate(-86.903 -144.993)" fill="#c6c7ce"/>
    <path id="Trazado_189904" data-name="Trazado 189904" d="M-3620.338-86.716a1.208,1.208,0,0,1-1.182-1.7,29.948,29.948,0,0,1,1.728-3.01,1.114,1.114,0,0,1,1.633-.362,1.126,1.126,0,0,1,.518,1.53,18.98,18.98,0,0,1-1.778,3.076A1.011,1.011,0,0,1-3620.338-86.716Z" transform="translate(-103.303 -10.496)" fill="#ffd960"/>
    <path id="Trazado_189905" data-name="Trazado 189905" d="M-3750.155-51.353a1.236,1.236,0,0,1-1.718,1.147,32.948,32.948,0,0,1-3.013-1.72,1.182,1.182,0,0,1-.343-1.659,1.149,1.149,0,0,1,1.62-.477c1.014.491,1.971,1.1,2.938,1.684A1.266,1.266,0,0,1-3750.155-51.353Z" transform="translate(0 -39.672)" fill="#ffd960"/>
    <path id="Trazado_189906" data-name="Trazado 189906" d="M-3404.2,174.431c.828-.1.906-.643.876-1.345-.05-1.176-.044-2.358,0-3.534a.852.852,0,0,0-.537-.907.3.3,0,0,1,.175-.146,5.5,5.5,0,0,0,1.491.166c.482.071.734.236.713.811-.049,1.389-.029,2.782-.008,4.173.006.416-.1.61-.55.654a16.828,16.828,0,0,1-1.989.276A.313.313,0,0,1-3404.2,174.431Z" transform="translate(-271.205 -211.647)" fill="#564d57"/>
    <path id="Trazado_189907" data-name="Trazado 189907" d="M-3413.158,167.142c.178-.015.375.032.5-.148a2.545,2.545,0,0,1,1.392.3c-.081.133-.266.054-.354.175A5.52,5.52,0,0,1-3413.158,167.142Z" transform="translate(-264.289 -210.485)" fill="#635964"/>
    <path id="Trazado_189908" data-name="Trazado 189908" d="M-3413.74,195.086l-.171-.152c.469-.311,1.051-.1,1.537-.328a.186.186,0,0,1,0,.3C-3412.834,194.923-3413.261,195.2-3413.74,195.086Z" transform="translate(-263.708 -231.805)" fill="#554c56"/>
    <path id="Trazado_189909" data-name="Trazado 189909" d="M-3407.162,194.853v-.3l.674-.015.174.147C-3406.6,194.719-3406.853,194.929-3407.162,194.853Z" transform="translate(-268.919 -231.754)" fill="#554c56"/>
    <path id="Trazado_189910" data-name="Trazado 189910" d="M-3406.387,168.507a.383.383,0,0,1,.354-.175l.66.038-.174.145Z" transform="translate(-269.518 -211.518)" fill="#554c56"/>
    <path id="Trazado_189911" data-name="Trazado 189911" d="M-3500.587,147.124a7.842,7.842,0,0,1,6.867,6.121,7.9,7.9,0,0,1-7.026,9.6,5.7,5.7,0,0,1-4.1-1.545,7.82,7.82,0,0,1-2.907-7.643,7.814,7.814,0,0,1,5.1-6.294A3.408,3.408,0,0,1-3500.587,147.124Z" transform="translate(-191.158 -195.086)" fill="#e7ecef"/>
    <path id="Trazado_189912" data-name="Trazado 189912" d="M-3505.966,146.8c-3.7.187-6.883,3.683-7.042,7.419a7.992,7.992,0,0,0,6.883,8.3,6.916,6.916,0,0,1-5.528-1.557,7.537,7.537,0,0,1-2.905-8.2,7.637,7.637,0,0,1,6.433-5.968A3.709,3.709,0,0,1-3505.966,146.8Z" transform="translate(-185.779 -194.762)" fill="#c6c7cd"/>
    <path id="Trazado_189913" data-name="Trazado 189913" d="M-3691.75-12.944c-.286.251-.159.586-.16.882-.009,4.289-.036,8.579.018,12.867.012.919-.412.942-1.075.907-.606-.032-1.2.173-1.187-.884.062-4.288.005-8.578.044-12.867.007-.775-.234-.954-.966-.936-1.786.044-1.787.009-1.787,1.8,0,3.948-.022,7.9.018,11.845.008.8-.167,1.167-1.017,1.047a9.735,9.735,0,0,0-1.191-.028c-.008-4.544-.037-9.088,0-13.631.006-.826-.222-1.095-1.042-1.027a5.237,5.237,0,0,1-3.733-.821,4.268,4.268,0,0,1-1.864-4.129,4.256,4.256,0,0,1,3.171-3.728,4.155,4.155,0,0,1,4.3,1.091,4.77,4.77,0,0,1,1.37,3.868c-.042,1.517-.009,1.523,1.445,1.516s1.264.161,1.28-1.267c.021-1.887.392-3.628,2.147-4.71a4.254,4.254,0,0,1,4.528-.117,4.272,4.272,0,0,1,2.214,3.764,4.44,4.44,0,0,1-4.552,4.548C-3690.443-12.972-3691.1-12.95-3691.75-12.944Z" transform="translate(-38.369 -64.652)" fill="#ffb325"/>
    <path id="Trazado_189914" data-name="Trazado 189914" d="M-3643.564-7.663c-1.531,0-1.526,0-1.533-1.523a3.688,3.688,0,0,1,.211-1.585,2.311,2.311,0,0,1,2.756-1.273,2.514,2.514,0,0,1,1.612,2.268,2.329,2.329,0,0,1-2.28,2.111C-3643.054-7.656-3643.309-7.664-3643.564-7.663Z" transform="translate(-85.189 -72.162)" fill="#ffd960"/>
    <path id="Trazado_189915" data-name="Trazado 189915" d="M-3691.585-9.065c0,1.493,0,1.469-1.551,1.5a2.526,2.526,0,0,1-2.569-1.087,2.2,2.2,0,0,1,.212-2.6,2.2,2.2,0,0,1,2.454-.635,2.092,2.092,0,0,1,1.452,2.058C-3691.58-9.574-3691.586-9.319-3691.585-9.065Z" transform="translate(-45.858 -72.253)" fill="#ffd960"/>
  </g>
</svg>
