<svg id="Grupo_121493" data-name="Grupo 121493" xmlns="http://www.w3.org/2000/svg" width="124" height="124" viewBox="0 0 124 124">
  <g id="Elipse_6016" data-name="Elipse 6016" fill="#fff" stroke="#2631a0" stroke-width="4">
    <circle cx="62" cy="62" r="62" stroke="none"/>
    <circle cx="62" cy="62" r="60" fill="none"/>
  </g>
  <g id="Grupo_124470" data-name="Grupo 124470" transform="translate(2321.154 621.546)">
    <path id="Trazado_189718" data-name="Trazado 189718" d="M-2155.84-437.377h-1.04a17.791,17.791,0,0,1-5.866-1.331,22.863,22.863,0,0,1-5.44-3.266,20.676,20.676,0,0,1-6.871-9.928,21.077,21.077,0,0,1,3.676-20.43,21,21,0,0,1,13.7-7.888,16,16,0,0,1,5.609-.036,14.55,14.55,0,0,1,4.709,1.052,19.936,19.936,0,0,1,6.227,3.39,21.181,21.181,0,0,1,7.808,12.529,28.231,28.231,0,0,1,.295,5.763,18.129,18.129,0,0,1-2.174,8.615,21.583,21.583,0,0,1-14.178,11.207c-.385.1-.782.106-1.171.171-.276.035-.581-.085-.821.151h-.742a.2.2,0,0,0-.3,0h-.891a1.555,1.555,0,0,0-1.04,0h-.3A1.982,1.982,0,0,0-2155.84-437.377Z" transform="translate(-84.133 -84.14)" fill="#38b7e5"/>
    <path id="Trazado_189719" data-name="Trazado 189719" d="M-2293.3-585.4c.2-.419.369-.855.6-1.256a4.612,4.612,0,0,1,4.209-2.451c4.727-.022,9.455-.012,14.183-.015a.712.712,0,0,1,.316.634c.03,1.185.028,2.371,0,3.556a.967.967,0,0,1-.22.616,1.7,1.7,0,0,1-1.273.263c-3.837.008-7.674,0-11.51.005-1.208,0-1.24.034-1.24,1.261q0,22.61,0,45.219c0,.223,0,.445.014.668a.6.6,0,0,0,.659.637c.272.009.544.009.817.01q6.275,0,12.549,0c.411,0,.852-.082,1.2.248.078.4-.244.408-.482.466a3.746,3.746,0,0,1-.888.039q-6.2,0-12.4,0a2.512,2.512,0,0,0-.9.08c4.794,4.8,9.53,9.53,14.31,14.309a1.458,1.458,0,0,0,.107-.821c.005-4.233,0-8.466.013-12.7,0-.416-.186-.965.462-1.145.371.329.28.774.281,1.184.01,4.208,0,8.417.006,12.625,0,.248.005.495.006.743a.609.609,0,0,0,.672.7c.273,0,.544.009.817.009q8.578,0,17.156,0a3.666,3.666,0,0,1,1.662.3,23.036,23.036,0,0,0,8.16,4.105,26.452,26.452,0,0,1,3,.667h-48.573a4.348,4.348,0,0,1-3.221-2.107,8.046,8.046,0,0,1-.493-1.606Z" transform="translate(0 -6.079)" fill="#ecc27e"/>
    <path id="Trazado_189720" data-name="Trazado 189720" d="M-2103.795-327.715a1.136,1.136,0,0,1,1.188,0Z" transform="translate(-136.178 -193.802)" fill="#4bb9da"/>
    <path id="Trazado_189721" data-name="Trazado 189721" d="M-2098.516-327.717a.885.885,0,0,1,1.04,0Z" transform="translate(-139.972 -193.8)" fill="#4bb9da"/>
    <path id="Trazado_189722" data-name="Trazado 189722" d="M-2087.17-328.358l-.64.3h-.149C-2087.824-328.5-2087.458-328.326-2087.17-328.358Z" transform="translate(-147.558 -193.454)" fill="#edcf9c"/>
    <path id="Trazado_189723" data-name="Trazado 189723" d="M-2091.654-327.6c.1-.147.2-.184.3,0Z" transform="translate(-144.903 -193.913)" fill="#c2c295"/>
    <path id="Trazado_189724" data-name="Trazado 189724" d="M-2260.884-524.464a1.512,1.512,0,0,0-.87-.093c-4.6-.005-9.208-.02-13.811.013-.732.005-.9-.224-.9-.922q.029-23.315,0-46.629c0-.692.145-.93.887-.924,4.455.038,8.911.023,13.366.025.345.229.305.591.323.933a14.3,14.3,0,0,0,.1,2.215,4.339,4.339,0,0,0,4.251,3.653q7.229.073,14.458,0a4.449,4.449,0,0,0,4.345-4.39c.019-.543,0-1.087.012-1.631a1.081,1.081,0,0,1,.351-.935,1.817,1.817,0,0,1,1.011-.163q6.045-.008,12.089,0c1.213,0,1.414.207,1.415,1.438q.009,12.014,0,24.029c0,.388.062.806-.312,1.093a21.114,21.114,0,0,0-18.163,6.862,20.149,20.149,0,0,0-5.451,12,21.049,21.049,0,0,0,7.614,18.917.655.655,0,0,1,.087.118q-10.021.009-20.042.03c-.675,0-.608-.39-.608-.819q0-6.94,0-13.88a1.539,1.539,0,0,0-.092-.87Z" transform="translate(-12.101 -17.433)" fill="#ecebeb"/>
    <path id="Trazado_189725" data-name="Trazado 189725" d="M-2127.822-558.1q0-12.718.017-25.437c0-.655-.175-.834-.829-.829-4.474.031-8.949.02-13.424.022a.826.826,0,0,1-.324-.772q-.026-1.612,0-3.224a.827.827,0,0,1,.324-.772q6.934,0,13.869.008a4.782,4.782,0,0,1,5.123,5.149q0,13.46-.007,26.92A26.469,26.469,0,0,0-2127.822-558.1Z" transform="translate(-108.441 -6.08)" fill="#ecc27e"/>
    <path id="Trazado_189726" data-name="Trazado 189726" d="M-2115-424.968a2.458,2.458,0,0,1-.91,1.809q-6.73,5.6-13.452,11.214c-.407.341-.668.411-1.086-.027-1.28-1.344-2.616-2.633-3.924-3.95a2.38,2.38,0,0,1-.151-3.495,2.387,2.387,0,0,1,3.5.154,6.479,6.479,0,0,1,.728.74c.437.6.8.557,1.359.084,3.3-2.8,6.638-5.557,9.961-8.331a2.314,2.314,0,0,1,2.691-.365A2.289,2.289,0,0,1-2115-424.968Z" transform="translate(-113.6 -122.281)" fill="#fff"/>
    <path id="Trazado_189727" data-name="Trazado 189727" d="M-2202-595.2q0,2.384,0,4.768c-.008.792-.01,1.583-.025,2.374a4.719,4.719,0,0,1-4.716,4.737q-7.164.041-14.329,0a4.72,4.72,0,0,1-4.716-4.738c-.014-.791-.017-1.583-.025-2.374q0-2.384,0-4.768a16.357,16.357,0,0,0,.008-1.7c-.053-.586.181-.683.71-.679,2.865.025,5.729.012,8.594.012,4.593,0,9.186.008,13.779-.012.529,0,.763.093.71.679A16.425,16.425,0,0,0-2202-595.2Z" transform="translate(-48.498)" fill="#e05641"/>
    <path id="Trazado_189728" data-name="Trazado 189728" d="M-2259.815-399.64q-.012,7.232-.025,14.465c0,.266,0,.531,0,.69l-15.223-15.222h15.184Z" transform="translate(-13.105 -142.189)" fill="#e05641"/>
    <path id="Trazado_189729" data-name="Trazado 189729" d="M-2196.875-529.974q4.566,0,9.133,0a2.418,2.418,0,0,1,2.672,2.358,2.409,2.409,0,0,1-2.637,2.393q-9.244.005-18.488,0a2.409,2.409,0,0,1-2.634-2.4,2.411,2.411,0,0,1,2.674-2.354Q-2201.516-529.979-2196.875-529.974Z" transform="translate(-60.7 -48.578)" fill="#63838d"/>
    <path id="Trazado_189730" data-name="Trazado 189730" d="M-2199.4-491.442c-2.252,0-4.5,0-6.756,0a2.42,2.42,0,0,1-2.672-2.359,2.4,2.4,0,0,1,2.636-2.391q6.868-.006,13.735,0a2.408,2.408,0,0,1,2.635,2.394,2.418,2.418,0,0,1-2.673,2.356Q-2195.95-491.437-2199.4-491.442Z" transform="translate(-60.7 -72.852)" fill="#63838d"/>
    <path id="Trazado_189731" data-name="Trazado 189731" d="M-2204.052-457.688c-.792,0-1.584.016-2.375,0a2.382,2.382,0,0,1-2.4-2.4,2.361,2.361,0,0,1,2.382-2.341q2.375-.036,4.75,0a2.367,2.367,0,0,1,2.367,2.358,2.373,2.373,0,0,1-2.345,2.381C-2202.468-457.668-2203.26-457.688-2204.052-457.688Z" transform="translate(-60.7 -97.102)" fill="#63838d"/>
    <path id="Trazado_189732" data-name="Trazado 189732" d="M-2240.257-529.987c.618,0,1.235.015,1.852-.006.372-.012.53.1.524.5q-.029,1.888,0,3.777c.006.414-.184.489-.538.485q-1.852-.02-3.7,0c-.371,0-.53-.1-.524-.5q.029-1.888,0-3.777c-.007-.414.184-.495.539-.485C-2241.492-529.974-2240.874-529.987-2240.257-529.987Z" transform="translate(-36.399 -48.565)" fill="#63838d"/>
    <path id="Trazado_189733" data-name="Trazado 189733" d="M-2240.057-496.429c.591.047,1.55-.312,2.006.121.5.471.128,1.447.163,2.2.029.64-.011,1.284.012,1.925.014.389-.13.516-.514.511-1.26-.017-2.519-.015-3.777,0-.352,0-.475-.127-.472-.475q.019-1.925,0-3.851c0-.318.122-.439.437-.433C-2241.535-496.42-2240.868-496.429-2240.057-496.429Z" transform="translate(-36.405 -72.616)" fill="#63838d"/>
    <path id="Trazado_189734" data-name="Trazado 189734" d="M-2237.886-459.983c0,.592-.012,1.185,0,1.777.011.355-.07.545-.485.538q-1.888-.03-3.777,0c-.4.006-.505-.153-.5-.524.016-1.234.014-2.469,0-3.7,0-.355.071-.544.485-.538q1.889.03,3.778,0c.4-.006.512.152.5.524C-2237.9-461.267-2237.886-460.625-2237.886-459.983Z" transform="translate(-36.402 -97.114)" fill="#63838d"/>
    <path id="Trazado_189735" data-name="Trazado 189735" d="M-2237.883-426.088c-.077.625.333,1.6-.167,2.073-.456.429-1.414.1-2.15.12-.666.017-1.333-.006-2,.006-.313.006-.441-.111-.439-.431q.015-1.925,0-3.851c0-.346.116-.481.469-.477,1.259.013,2.519.016,3.778,0,.381-.005.531.118.516.509C-2237.9-427.5-2237.883-426.857-2237.883-426.088Z" transform="translate(-36.405 -121.391)" fill="#63838d"/>
  </g>
</svg>
