<svg id="Grupo_121496" data-name="Grupo 121496" xmlns="http://www.w3.org/2000/svg" width="124" height="124" viewBox="0 0 124 124">
  <g id="Elipse_6016" data-name="Elipse 6016" fill="#fff" stroke="#2631a0" stroke-width="4">
    <circle cx="62" cy="62" r="62" stroke="none"/>
    <circle cx="62" cy="62" r="60" fill="none"/>
  </g>
  <g id="Grupo_124473" data-name="Grupo 124473" transform="translate(3321.115 857.602)">
    <path id="Trazado_189814" data-name="Trazado 189814" d="M-3257.805-759l-28.314,0a1.357,1.357,0,0,1-.992.22c-1.284.006-2.569,0-3.852,0a4.916,4.916,0,0,0-4.954,3.462c-.095.255-.078.612-.473.661q0-16.342-.008-32.684c0-9.342.027-18.685-.016-28.027a5.263,5.263,0,0,1,5.34-5.357q30.2.025,60.39.008c.375,0,.75,0,1.124-.007a.984.984,0,0,1,.263.812q.026,3.09,0,6.179a1.33,1.33,0,0,1-.16.7c-.342.351-.79.275-1.208.276-2.35.01-4.7,0-7.049.006a4.114,4.114,0,0,0-.957.059.965.965,0,0,0-.852,1.005.956.956,0,0,0,.823.948,3.864,3.864,0,0,0,.957.064c2.349,0,4.7,0,7.048.005a1.655,1.655,0,0,1,1.222.25,1.791,1.791,0,0,1,.182,1.007q.009,4.111,0,8.222a1.947,1.947,0,0,1-.166,1.011c-.34.354-.789.277-1.206.279-2.3.011-4.593,0-6.888.005a7.594,7.594,0,0,0-.881.023c-.7.083-1.11.473-1.1,1.04.012.538.4.9,1.063.99a6.806,6.806,0,0,0,.88.025c2.3,0,4.592,0,6.888,0a1.672,1.672,0,0,1,1.224.248,1.783,1.783,0,0,1,.183,1.006q.009,3.471,0,6.941a1.937,1.937,0,0,1-.167,1.01c-.342.353-.79.276-1.208.278-2.352.01-4.7,0-7.056.006a3.574,3.574,0,0,0-1.036.081.96.96,0,0,0-.769.994.949.949,0,0,0,.758.922,3.533,3.533,0,0,0,1.036.081c2.352,0,4.7,0,7.056,0a1.883,1.883,0,0,1,1.164.2,9.912,9.912,0,0,1,.073,4.1c-.371.348-.51-.029-.655-.241a4.053,4.053,0,0,0-1.507-1.408,3.519,3.519,0,0,0-4.092.568,22.746,22.746,0,0,0-1.9,2.062c-1.281,1.225-2.346,2.649-3.592,3.907-1.776,1.956-3.539,3.923-5.31,5.884-1.127,1.248-2.244,2.505-3.377,3.747q-2.079,2.277-4.129,4.578c-.279.313-.5.814-1.089.613a6.014,6.014,0,0,1-.812-.884,6.29,6.29,0,0,0-4.856-2.093c-.856-.005-1.712.008-2.568,0-.512-.007-.74.214-.71.723a5.513,5.513,0,0,1,0,.641c-.033.541.2.78.753.772.962-.014,1.926-.032,2.888.007a4.014,4.014,0,0,1,3.692,2.817C-3256.852-759.646-3257.09-759.114-3257.805-759Z" transform="translate(0 -9.575)" fill="#e7e6e6"/>
    <path id="Trazado_189815" data-name="Trazado 189815" d="M-2986.113-809.73V-820a3.13,3.13,0,0,1,0-2.587q0-3.857-.01-7.713c.005-.669.007-1.338.018-2.007,0-.231-.051-.557.3-.54,1.724.084,3.515-.391,5.157.353a3.5,3.5,0,0,1,2.234,3.259q.027,27.987.006,55.974c-.393-.009-.418-.363-.545-.6a3.722,3.722,0,0,0-3.532-2.19c-.854.006-1.708.009-2.562,0-1.15-.015-1.3-.155-1.3-1.294q-.012-5.2,0-10.408a2.943,2.943,0,0,0-.029-.637,12.716,12.716,0,0,0,.139-2.991,26.946,26.946,0,0,0,.122-4.185,3.13,3.13,0,0,1,0-2.587v-8.984A3.131,3.131,0,0,1-2986.113-809.73Z" transform="translate(-243.438)" fill="#b6b6b6"/>
    <path id="Trazado_189816" data-name="Trazado 189816" d="M-3049.893-626.176a1.359,1.359,0,0,1,.109.857c.005,3.526.02,7.053-.011,10.579-.006.651.2.829.82.8.933-.046,1.869-.013,2.8-.012a3.842,3.842,0,0,1,3.938,2.77,1.655,1.655,0,0,0,.156.264,4.2,4.2,0,0,1-1.307,3.691,3.414,3.414,0,0,1-2.376.976c-7.241.018-14.481,0-21.722,0,.007-.513.41-.808.7-1.123,1.734-1.891,3.445-3.8,5.162-5.707,1.878-2.083,3.777-4.148,5.623-6.26,1.2-1.268,2.315-2.614,3.524-3.874C-3051.6-624.191-3050.754-625.191-3049.893-626.176Z" transform="translate(-179.765 -162.34)" fill="#e7e6e6"/>
    <path id="Trazado_189817" data-name="Trazado 189817" d="M-3296.329-529.07c.141-.4.262-.8.426-1.192a4.964,4.964,0,0,1,4.786-3.143c1.685-.06,3.373-.012,5.059-.011,0,3.186-.007,6.372.016,9.558,0,.544-.129.754-.711.739-1.525-.038-3.052.008-4.578-.018a5.156,5.156,0,0,1-5-5.048C-3296.34-528.481-3296.332-528.776-3296.329-529.07Z" transform="translate(-0.062 -235.162)" fill="#b6b6b6"/>
    <path id="Trazado_189818" data-name="Trazado 189818" d="M-3119.416-603.007c1.8-1.969,3.615-3.931,5.408-5.91q3.956-4.367,7.892-8.753a2.932,2.932,0,0,1,.368-.3,3.936,3.936,0,0,1,1.955,1.786,16.726,16.726,0,0,1-2.332,2.744c-2.8,3.054-5.566,6.144-8.344,9.219-2.187,2.42-4.41,4.807-6.536,7.283a1.818,1.818,0,0,1-.994.771,4.2,4.2,0,0,1-1.854-1.8l1.548-1.827a4.364,4.364,0,0,0,1-1.142A6.313,6.313,0,0,1-3119.416-603.007Z" transform="translate(-135.5 -168.786)" fill="#4bae97"/>
    <path id="Trazado_189819" data-name="Trazado 189819" d="M-3086.531-600.63c-1.269,1.658-2.758,3.122-4.137,4.681-2.479,2.8-4.992,5.576-7.49,8.361q-2.8,3.056-5.6,6.11c-.269.293-.552.571-.829.856a3.77,3.77,0,0,1-1.963-1.66,9.139,9.139,0,0,1,1.909-2.323q3.568-4.007,7.184-7.972c1.743-1.915,3.451-3.862,5.219-5.756,1.255-1.344,2.425-2.769,3.727-4.072A3.6,3.6,0,0,1-3086.531-600.63Z" transform="translate(-149.087 -181.006)" fill="#4bae97"/>
    <path id="Trazado_189820" data-name="Trazado 189820" d="M-3128.646-521.405l1.9,1.7c-1.888.925-3.894,1.559-5.832,2.362-.676.28-1.364.53-2.191.849l2.344-8.334q.953.861,1.906,1.72A4.585,4.585,0,0,1-3128.646-521.405Z" transform="translate(-126.932 -241.918)" fill="#f4c9af"/>
    <path id="Trazado_189821" data-name="Trazado 189821" d="M-3257.788-683.023c3.427,0,6.854-.017,10.281,0a7.729,7.729,0,0,1,7.66,6.846,7.742,7.742,0,0,1-5.646,8.293,8.875,8.875,0,0,1-2.459.286q-11.325-.008-22.65,0a5.125,5.125,0,0,0-5.208,5.1,5.16,5.16,0,0,0,4.983,5.168q1.123.035,2.249,0c.408-.013.558.18.471.527-.169.674.466,1.862-.32,1.968a9.46,9.46,0,0,1-5.792-.774,7.8,7.8,0,0,1-3.975-8.6,7.713,7.713,0,0,1,7.358-5.956c7.737-.026,15.475,0,23.212-.016a5.131,5.131,0,0,0,5.232-4.919,5.135,5.135,0,0,0-5.115-5.353c-3.427-.028-6.854-.008-10.281-.009A2.743,2.743,0,0,1-3257.788-683.023Z" transform="translate(-14.158 -117.698)" fill="#f59e2a"/>
    <path id="Trazado_189822" data-name="Trazado 189822" d="M-3268.146-774.5a27.563,27.563,0,0,1-3.923-.133,7.733,7.733,0,0,1-6.32-8.245,7.738,7.738,0,0,1,7.559-7.039c4.738-.036,9.476-.023,14.214-.032.33-.155.482.127.668.288.68.59.673.593,1.389-.022.194-.167.368-.41.688-.273a49.04,49.04,0,0,0,7.293-.116,4.97,4.97,0,0,0,4.165-4.984c.024-2.329.028-4.66-.009-6.989-.01-.609.165-.761.761-.753,1.825.024,1.825,0,1.825,1.843q0,2.732,0,5.463a7.716,7.716,0,0,1-8.1,8.136c-7.552,0-15.1-.007-22.655.006a5.13,5.13,0,0,0-5.241,5.155,5.159,5.159,0,0,0,4.954,5.116c.91.031,1.821.009,2.731.011A2.742,2.742,0,0,1-3268.146-774.5Z" transform="translate(-14.137 -23.651)" fill="#f59e2a"/>
    <path id="Trazado_189823" data-name="Trazado 189823" d="M-3230.614-689.865v-2.568c.009-.669.035-1.339.02-2.007-.009-.392.083-.576.529-.573q4.62.024,9.24,0c.446,0,.538.181.529.574-.016.668.011,1.338.019,2.007v2.568c-.009,1.069-.035,2.138-.018,3.206.007.451-.078.763-.6.648-1.606-.353-2.527.441-3.187,1.794a18.122,18.122,0,0,1-1.048,1.61c-.227.361-.4.355-.629,0-.565-.875-1.187-1.716-1.714-2.612a1.444,1.444,0,0,0-1.478-.806c-1.635.06-1.633.018-1.637-1.6C-3230.591-688.369-3230.605-689.117-3230.614-689.865Z" transform="translate(-51.669 -108.287)" fill="#267cba"/>
    <path id="Trazado_189824" data-name="Trazado 189824" d="M-3188.139-785.357a.729.729,0,0,0-.073.034c-.521.314-.8,1.172-1.371,1.091-.477-.067-.87-.723-1.3-1.118-.813-.848-1.667-1.662-2.431-2.552a5.451,5.451,0,0,1,1.072-8.205,4.838,4.838,0,0,1,5.591.11,5,5,0,0,1,2.2,5.163,6.475,6.475,0,0,1-2.005,3.752C-3187.027-786.514-3187.581-785.932-3188.139-785.357Z" transform="translate(-79.869 -28.25)" fill="#267cba"/>
    <path id="Trazado_189825" data-name="Trazado 189825" d="M-3015.288-645.5a11.452,11.452,0,0,1-2.509,3.051c-.862-.245-1.34-1-1.968-1.54-1.087-.932-2.117-1.933-3.2-2.869-.216-.186-.472-.365-.44-.712a15.01,15.01,0,0,1,1.97-2.2c1.941-1.794,4.785-1.129,6.135,1.4A3.964,3.964,0,0,1-3015.288-645.5Z" transform="translate(-214.37 -143.016)" fill="#d13631"/>
    <path id="Trazado_189826" data-name="Trazado 189826" d="M-3080.86-787.562c0-.882.013-1.765-.005-2.647-.008-.4.128-.575.553-.572,1.765.015,3.529.012,5.294,0,.384,0,.6.089.592.532-.016,1.791-.012,3.583,0,5.374,0,.369-.127.532-.511.529-1.791-.01-3.583-.013-5.374,0-.427,0-.559-.171-.551-.573C-3080.848-785.8-3080.86-786.68-3080.86-787.562Z" transform="translate(-169.255 -33.088)" fill="#c3c2c3"/>
    <path id="Trazado_189827" data-name="Trazado 189827" d="M-3077.695-730.471c-.855,0-1.711-.016-2.567.007-.443.012-.618-.135-.613-.6q.028-2.647,0-5.294c0-.427.172-.554.574-.551q2.647.019,5.294,0c.405,0,.575.129.572.553q-.022,2.647,0,5.294c0,.463-.176.6-.616.593C-3075.93-730.486-3076.812-730.471-3077.695-730.471Z" transform="translate(-169.249 -75.394)" fill="#c3c2c3"/>
    <path id="Trazado_189828" data-name="Trazado 189828" d="M-3077.588-683.04c.829,0,1.658.019,2.486-.007.466-.015.673.113.666.625-.025,1.738-.02,3.476,0,5.214,0,.452-.155.608-.6.6-1.738-.018-3.476-.023-5.213,0-.514.007-.629-.2-.624-.668.019-1.711.021-3.422,0-5.133-.007-.49.158-.661.647-.645C-3079.354-683.018-3078.47-683.04-3077.588-683.04Z" transform="translate(-169.242 -117.682)" fill="#c3c2c3"/>
    <path id="Trazado_189829" data-name="Trazado 189829" d="M-3036.084-635.812l5.613,5.121a44.168,44.168,0,0,1-3.453,3.829l-1.93-1.738a4.056,4.056,0,0,1-1.791-1.615l-1.908-1.765A49.573,49.573,0,0,1-3036.084-635.812Z" transform="translate(-201.694 -154.774)" fill="#f59e2b"/>
    <path id="Trazado_189830" data-name="Trazado 189830" d="M-3022.67-784.806q0,1.293,0,2.587-4.332,0-8.662-.008c-1.081,0-1.641-.464-1.616-1.325.023-.824.563-1.243,1.616-1.245Q-3027-784.8-3022.67-784.806Z" transform="translate(-206.88 -37.78)" fill="#c3c2c3"/>
    <path id="Trazado_189831" data-name="Trazado 189831" d="M-3022.67-724.946q0,1.294,0,2.587-4.332,0-8.662-.008c-1.082,0-1.641-.464-1.616-1.325.023-.824.563-1.244,1.616-1.245Q-3027-724.944-3022.67-724.946Z" transform="translate(-206.88 -84.784)" fill="#c3c2c3"/>
    <path id="Trazado_189832" data-name="Trazado 189832" d="M-3022.67-671.071q0,1.293,0,2.587-4.332,0-8.662-.008c-1.081,0-1.641-.464-1.616-1.325.023-.824.563-1.243,1.616-1.245Q-3027-671.069-3022.67-671.071Z" transform="translate(-206.88 -127.088)" fill="#c3c2c3"/>
    <path id="Trazado_189833" data-name="Trazado 189833" d="M-3137.5-560.112a15.418,15.418,0,0,1-1.885,2.075,3.988,3.988,0,0,0-3.771-2.714q-1.563-.026-3.126,0c-.395.008-.551-.088-.571-.527-.091-2.051-.107-2.058,1.927-2.048a13.24,13.24,0,0,1,3.349.187A6.68,6.68,0,0,1-3137.5-560.112Z" transform="translate(-117.415 -211.681)" fill="#f59e2b"/>
    <path id="Trazado_189834" data-name="Trazado 189834" d="M-3217.248-560.713c-1.273,0-1.273,0-1.272-1.478,0-1.094,0-1.094,1.578-1.093.995,0,.995,0,.994,1.6C-3215.95-560.713-3215.95-560.713-3217.248-560.713Z" transform="translate(-61.165 -211.725)" fill="#f59e2a"/>
    <path id="Trazado_189835" data-name="Trazado 189835" d="M-3194.577-561.978c0-1.306,0-1.306,1.525-1.306,1.047,0,1.047,0,1.047,1.545,0,1.027,0,1.027-1.565,1.026C-3194.577-560.713-3194.577-560.713-3194.577-561.978Z" transform="translate(-79.966 -211.725)" fill="#f59e2a"/>
    <path id="Trazado_189836" data-name="Trazado 189836" d="M-3170.633-562.071c0-1.213,0-1.213,1.219-1.213,1.353,0,1.353,0,1.353,1.318a3.828,3.828,0,0,0,0,.558c.084.565-.148.782-.7.7a3.229,3.229,0,0,0-.478,0C-3170.633-560.712-3170.633-560.712-3170.633-562.071Z" transform="translate(-98.768 -211.725)" fill="#f59e2a"/>
    <path id="Trazado_189837" data-name="Trazado 189837" d="M-3096.869-609.749l1.791,1.615a14.871,14.871,0,0,1-2.025,2.365c-2.768,3.108-5.591,6.167-8.387,9.251q-3.816,4.21-7.618,8.434l-1.868-1.707,8.575-9.5q2.359-2.612,4.72-5.222,2.2-2.434,4.4-4.868A4.863,4.863,0,0,1-3096.869-609.749Z" transform="translate(-142.471 -175.239)" fill="#2989c5"/>
    <path id="Trazado_189838" data-name="Trazado 189838" d="M-3174.038-777.422a1.285,1.285,0,0,1-1.323,1.218,1.283,1.283,0,0,1-1.234-1.383,1.283,1.283,0,0,1,1.359-1.176A1.285,1.285,0,0,1-3174.038-777.422Z" transform="translate(-94.083 -42.523)" fill="#e5e5e6"/>
  </g>
</svg>
