<svg xmlns="http://www.w3.org/2000/svg" width="116" height="117" viewBox="0 0 116 117">
  <g id="Grupo_124599" data-name="Grupo 124599" transform="translate(-610 -3710)">
    <g id="Elipse_6895" data-name="Elipse 6895" transform="translate(610 3710)" fill="#fff" stroke="#242ca3" stroke-width="4">
      <ellipse cx="58" cy="58.5" rx="58" ry="58.5" stroke="none"/>
      <ellipse cx="58" cy="58.5" rx="56" ry="56.5" fill="none"/>
    </g>
    <g id="Grupo_124561" data-name="Grupo 124561" transform="translate(7717.804 7324.175)">
      <path id="Trazado_190366" data-name="Trazado 190366" d="M-7050-3594.492h1.087a1,1,0,0,1,.342.829c.016.466.014.931.014,1.4q0,29.233,0,58.465c0,1.882,0,1.882,1.895,1.882q14.092,0,28.184,0a5.838,5.838,0,0,1,1.7.106c.522.376.249.769,0,1.132a23.036,23.036,0,0,1-1.945,2.414,41.946,41.946,0,0,1-11.168,8.9,40.532,40.532,0,0,1-12.263,4.218,27.912,27.912,0,0,1-4.4.264c-4.157.042-8.322.152-12.4-.954a40.118,40.118,0,0,1-15.772-8.184,40.32,40.32,0,0,1-9.719-12.056,36.31,36.31,0,0,1-4.019-12.076,50.925,50.925,0,0,1-.241-9.207c.054-1.083.041-2.169.174-3.247.039-.318.011-.719.541-.619a8.276,8.276,0,0,1,.393,1.592,17.934,17.934,0,0,0,6.574,13.131,18.116,18.116,0,0,0,10.387,4.22,18.171,18.171,0,0,0,8.4-1.36,17.236,17.236,0,0,0,6.172-4.206,17.94,17.94,0,0,0,4.958-10.391,38.709,38.709,0,0,0,.245-5.34c-.041-.238-.1-.472-.125-.713a18.412,18.412,0,0,0-3.452-12.346,17.892,17.892,0,0,0-4.093-4.09,7.143,7.143,0,0,0-2.763-1.654,5.524,5.524,0,0,1-2.192-1.655,24.385,24.385,0,0,1-.052-3.144,4.939,4.939,0,0,0-.96-3.012c-.212-.351-.51-.662-.347-1.125a3.943,3.943,0,0,1,2.027-1.051,28.85,28.85,0,0,1,10.435-2.046.363.363,0,0,0,.212-.076h1.087A1.634,1.634,0,0,0-7050-3594.492Z" fill="#52a3be"/>
      <path id="Trazado_190367" data-name="Trazado 190367" d="M-6864.448-3531.541q-15.765.006-31.531.027c-.769,0-.731-.4-.73-.924q.009-22.484,0-44.968v-17.086h2.486c1.408.146,2.83.107,4.235.266a31.18,31.18,0,0,1,8.131,2.224,38.014,38.014,0,0,1,12.639,8.133c.271.267.82.519.365,1.07a2.809,2.809,0,0,1-1.371.155c-4.5.009-9,0-13.495.006a4.311,4.311,0,0,0-1.157.072,1.2,1.2,0,0,0-.979,1.072,1.185,1.185,0,0,0,.77,1.226,3.229,3.229,0,0,0,1.449.182q7.522.007,15.045,0c.826,0,1.653-.018,2.477.058a.816.816,0,0,1,.741.309,10.147,10.147,0,0,1,1.22,1.57c.185.271.267.563-.064.808a3.589,3.589,0,0,1-1.457.134q-9.008.01-18.017,0a7,7,0,0,0-1.163.042,1.172,1.172,0,0,0-1.011,1.188,1.163,1.163,0,0,0,.994,1.123,6.6,6.6,0,0,0,1.163.045q9.242,0,18.482,0c.957,0,1.915-.016,2.87.055a.615.615,0,0,1,.587.31,10.64,10.64,0,0,1,.859,1.734.506.506,0,0,1-.167.626,3.324,3.324,0,0,1-1.526.154q-10.4.012-20.8.007a6.254,6.254,0,0,0-1.315.063,1.315,1.315,0,0,0-1.144,1.276,1.3,1.3,0,0,0,1.232,1.181,9.786,9.786,0,0,0,1.241.032h22.119a5.437,5.437,0,0,1,1.616.144c.406.105.553.447.672.786a29.374,29.374,0,0,1,1.917,9.018,11.691,11.691,0,0,0,.133,2.371v4.506c-.162,1.2-.135,2.409-.211,3.614a29.977,29.977,0,0,1-2.365,9.269,38.388,38.388,0,0,1-4.055,7.571C-6863.774-3531.772-6863.936-3531.371-6864.448-3531.541Z" transform="translate(-152.204)" fill="#f2f1f0"/>
      <path id="Trazado_190368" data-name="Trazado 190368" d="M-6906.073-3594.492a.964.964,0,0,1-1.088,0Z" transform="translate(-143.923)" fill="#82b9ce"/>
      <path id="Trazado_190369" data-name="Trazado 190369" d="M-7055.149-3542.39l1-.7c.335-.058.5-.6.955-.328.342.366.24.827.242,1.253.015,3.25-.006,6.5.013,9.75a6.8,6.8,0,0,0,1.355,4.346,9.727,9.727,0,0,0,1.212,1.181,9.811,9.811,0,0,0,2.166.826,5.779,5.779,0,0,0,6.838-5.68c0-3.543-.009-7.087.01-10.63,0-.415-.138-.9.357-1.184l1.967,1.223a10.851,10.851,0,0,1,5.083,7.257,23.527,23.527,0,0,1,.576,6.77c-.005.376.066.793-.318,1.063-.444.042-.411-.276-.414-.558a8.787,8.787,0,0,1,.137-1.145,11.747,11.747,0,0,1-5.067,8.24,12.951,12.951,0,0,1-8.735,2.627,13.135,13.135,0,0,1-9.921-5.048c-1.728-2.162-2.294-3.54-2.454-5.341.011.367.133.82.166,1.284.025.358.069.744-.375.922a.355.355,0,0,1-.238-.117.906.906,0,0,1-.182-.654,56.649,56.649,0,0,1,.115-6.235,14.373,14.373,0,0,0,.359-1.725,12.894,12.894,0,0,1,2.219-4.8A11.425,11.425,0,0,1-7055.149-3542.39Z" transform="translate(-22.184 -40.359)" fill="#b1543e"/>
      <path id="Trazado_190370" data-name="Trazado 190370" d="M-7074.578-3537.94c-.187.359-.551.538-.836.792a14.239,14.239,0,0,0-4.012,6.423,31.476,31.476,0,0,0-2.455,5.771,15.541,15.541,0,0,0,2.823,13.563,15.18,15.18,0,0,0,10.788,6.068,15.772,15.772,0,0,0,17.282-12.729,15.484,15.484,0,0,0-1.771-10.782,7.406,7.406,0,0,0-.988-1.912,12.8,12.8,0,0,0-4.149-6.62c-.191-.17-.377-.345-.566-.518a16.655,16.655,0,0,1,6.314,4.878,18.645,18.645,0,0,1,4.28,13.468c-.148.26-.039.542-.073.812.051,3.717-1.549,6.8-3.759,9.624a18.6,18.6,0,0,1-8.21,5.907,18.507,18.507,0,0,1-5.363,1.114,18.662,18.662,0,0,1-8.981-1.571,18.655,18.655,0,0,1-8.671-7.7,12.427,12.427,0,0,1-2.1-6.388c.027.729.17,1.44.193,2.163.011.333.046.689-.338.875a12.278,12.278,0,0,1-.151-1.8c.119-2.038-.062-4.083.157-6.119A18.423,18.423,0,0,1-7074.578-3537.94Z" transform="translate(-2.755 -44.808)" fill="#536060"/>
      <path id="Trazado_190371" data-name="Trazado 190371" d="M-7084.6-3441.825v-3.642a20.392,20.392,0,0,0,3.21,7.846,18.227,18.227,0,0,0,13.347,8.01,18.011,18.011,0,0,0,14.3-4.448,17.876,17.876,0,0,0,6.3-11.82q.066-.165.143,0c.248,4.334-.213,8.513-2.467,12.363a18.761,18.761,0,0,1-19.581,9.035,18.685,18.685,0,0,1-15.112-15.718C-7084.531-3440.74-7084.55-3441.284-7084.6-3441.825Z" transform="translate(-3.333 -117.686)" fill="#394948"/>
      <path id="Trazado_190372" data-name="Trazado 190372" d="M-7002.431-3561.171q-.008,5.82-.017,11.64a6.126,6.126,0,0,1-5.825,6.337,5.569,5.569,0,0,1-3.657-1.051,4.822,4.822,0,0,1-.2-1.452c.007-4.529-.006-9.057.008-13.586a6.227,6.227,0,0,1,4.693-6.272,6.923,6.923,0,0,1,3.829.081,1.618,1.618,0,0,1,1.123.874Q-7002.452-3562.886-7002.431-3561.171Z" transform="translate(-60.755 -22.743)" fill="#983a2a"/>
      <path id="Trazado_190373" data-name="Trazado 190373" d="M-7012.743-3582.165a6.256,6.256,0,0,0-6.69.246,5.638,5.638,0,0,0-2.6,4.853c-.022,4.761-.006,9.522-.01,14.282a1.437,1.437,0,0,1-.152.975,6.145,6.145,0,0,1-2.775-5.482c-.037-3.771-.023-7.542-.031-11.312a.39.39,0,0,1,.006-.49c.116-1.155-.053-2.317.122-3.475a5.89,5.89,0,0,1,4.046-5,5.928,5.928,0,0,1,6.241,1.307c.1.084.2.162.3.243A6.006,6.006,0,0,1-7012.743-3582.165Z" transform="translate(-50.485 -5.179)" fill="#862c22"/>
      <path id="Trazado_190374" data-name="Trazado 190374" d="M-6905.516-3448.544c-.048,0-.1,0-.143,0a1.108,1.108,0,0,1,.146-.781Z" transform="translate(-145.111 -115.026)" fill="#495757"/>
      <path id="Trazado_190375" data-name="Trazado 190375" d="M-6858-3415.886a13.234,13.234,0,0,1-13.285-13.265,13.248,13.248,0,0,1,13.294-13.268,13.206,13.206,0,0,1,13.222,13.274A13.24,13.24,0,0,1-6858-3415.886Z" transform="translate(-172.348 -120.493)" fill="#9583bb"/>
      <path id="Trazado_190376" data-name="Trazado 190376" d="M-6821.212-3487.326l1.4,3.2c-.284.013-.567.039-.851.039q-11.872,0-23.743,0a3.946,3.946,0,0,1-.924-.062,1.586,1.586,0,0,1-1.183-1.546,1.519,1.519,0,0,1,1.108-1.514,2.716,2.716,0,0,1,.838-.115Q-6832.89-3487.334-6821.212-3487.326Z" transform="translate(-191.976 -84.908)" fill="#536060"/>
      <path id="Trazado_190377" data-name="Trazado 190377" d="M-6824.338-3513.076l1.876,2.934c-.14.337-.441.21-.675.21q-10.756.011-21.514,0a2.145,2.145,0,0,1-.985-.162,1.635,1.635,0,0,1-.888-1.739,1.557,1.557,0,0,1,1.609-1.3q10.135-.018,20.271,0A1.689,1.689,0,0,1-6824.338-3513.076Z" transform="translate(-191.947 -64.462)" fill="#536060"/>
      <path id="Trazado_190378" data-name="Trazado 190378" d="M-6828.979-3539.173c1,.99,1.939,2.035,2.839,3.115-.234.248-.538.132-.807.133q-8.7.011-17.393.005c-.155,0-.311,0-.466,0a1.661,1.661,0,0,1-1.729-1.7,1.64,1.64,0,0,1,1.792-1.539q7.648-.009,15.3,0C-6829.29-3539.167-6829.135-3539.171-6828.979-3539.173Z" transform="translate(-191.959 -43.831)" fill="#536060"/>
      <path id="Trazado_190379" data-name="Trazado 190379" d="M-7027.9-3545.279c0,.163,0,.326-.006.49-.309.042-.509.358-.844.333Z" transform="translate(-47.583 -38.993)" fill="#5da0b7"/>
      <path id="Trazado_190380" data-name="Trazado 190380" d="M-7043.865-3503.291c.349.024.438.338.592.56a16.2,16.2,0,0,1-10.924,25.12,16.158,16.158,0,0,1-18.545-14.172,15.749,15.749,0,0,1,2.732-10.983c.13-.19.234-.406.466-.5-.655,2.908-.39,5.862-.435,8.8a4.264,4.264,0,0,1,.348,2.03,12.943,12.943,0,0,0,2.838,6.841,12.5,12.5,0,0,0,8.938,4.856,12.542,12.542,0,0,0,9.5-2.953,14.117,14.117,0,0,0,4.667-8.107,7.248,7.248,0,0,0-.109-1.849c.147-.564-.23-1.256.414-1.7C-7043.313-3498.011-7043.09-3500.682-7043.865-3503.291Z" transform="translate(-12.637 -72.262)" fill="#9583bb"/>
      <path id="Trazado_190381" data-name="Trazado 190381" d="M-7032.155-3473.52q-.024.9-.049,1.8a10.959,10.959,0,0,1-2.487,6.46,13.321,13.321,0,0,1-10.316,5.154,13.186,13.186,0,0,1-8.617-2.694,11.794,11.794,0,0,1-5.061-9.471.676.676,0,0,1,.047-.3v-2.864a14.277,14.277,0,0,0,5,7.911,12.944,12.944,0,0,0,8.816,2.843c5.126-.254,10.934-3.49,12.664-11.057Z" transform="translate(-23.865 -94.093)" fill="#983a2a"/>
      <path id="Trazado_190382" data-name="Trazado 190382" d="M-7058.971-3460.746a13.235,13.235,0,0,0,10.753,11.946,13.28,13.28,0,0,0,15.549-10.732,2.4,2.4,0,0,1,.13-.36,12.456,12.456,0,0,1-3.319,8.772,12.718,12.718,0,0,1-7.022,4.135,12.861,12.861,0,0,1-11.041-2.489,12.782,12.782,0,0,1-4.929-8.177,13.09,13.09,0,0,1-.236-3.163A.674.674,0,0,0-7058.971-3460.746Z" transform="translate(-23.531 -105.919)" fill="#74639e"/>
      <path id="Trazado_190383" data-name="Trazado 190383" d="M-6857.094-3417.919a10.349,10.349,0,0,1,10.3-10.361,10.422,10.422,0,0,1,10.346,10.352,10.373,10.373,0,0,1-10.379,10.3A10.278,10.278,0,0,1-6857.094-3417.919Z" transform="translate(-183.593 -131.696)" fill="#f2f1f0"/>
      <path id="Trazado_190384" data-name="Trazado 190384" d="M-6843.662-3407.363a7.54,7.54,0,0,1,7.534-7.49,7.629,7.629,0,0,1,7.537,7.527,7.552,7.552,0,0,1-7.651,7.543A7.489,7.489,0,0,1-6843.662-3407.363Z" transform="translate(-194.236 -142.335)" fill="#9583bb"/>
      <path id="Trazado_190385" data-name="Trazado 190385" d="M-6820.508-3392.847a1.424,1.424,0,0,1-.4.83c-.906,1.162-1.8,2.33-2.727,3.48a1.24,1.24,0,0,1-2.216-.126q-1.857-3.092-3.664-6.214a1.24,1.24,0,0,1,.368-1.872,1.223,1.223,0,0,1,1.753.6c.83,1.371,1.648,2.75,2.441,4.143.3.521.5.538.847.042.445-.633.943-1.232,1.445-1.822a1.114,1.114,0,0,1,1.333-.34A1.264,1.264,0,0,1-6820.508-3392.847Z" transform="translate(-205.235 -156.54)" fill="#f2f1f0"/>
    </g>
  </g>
</svg>
