<svg xmlns="http://www.w3.org/2000/svg" xmlns:xlink="http://www.w3.org/1999/xlink" width="649.929" height="649.929" viewBox="0 0 649.929 649.929">
  <defs>
    <radialGradient id="radial-gradient" cx="0.5" cy="0.5" r="0.5" gradientUnits="objectBoundingBox">
      <stop offset="0" stop-color="#e6e6e6"/>
      <stop offset="0.681" stop-color="#e7e7e7"/>
      <stop offset="0.937" stop-color="#eee"/>
      <stop offset="1" stop-color="#f2f2f2"/>
    </radialGradient>
    <filter id="Elipse_7188" x="190.169" y="193.947" width="267.368" height="267.369" filterUnits="userSpaceOnUse">
      <feOffset dx="-2" input="SourceAlpha"/>
      <feGaussianBlur stdDeviation="1" result="blur"/>
      <feFlood flood-opacity="0.349"/>
      <feComposite operator="in" in2="blur"/>
      <feComposite in="SourceGraphic"/>
    </filter>
  </defs>
  <g id="Grupo_124774" data-name="Grupo 124774" transform="translate(-1803.071 7163)">
    <g id="Objects" transform="translate(1803.071 -7163)">
      <path id="Trazado_189457" data-name="Trazado 189457" d="M126.331,133.207c-2.626,3.745-5.2,7.541-7.693,11.427-91.751,143.143-57.081,331.06,75.308,432.778L186.6,477.656l97.48-36.391A162.5,162.5,0,0,1,255.417,232.3q3.582-5.587,7.539-10.777l-35.745-95.75Z" transform="translate(-67.232 4.988)" fill="#e9eef4"/>
      <path id="Trazado_189458" data-name="Trazado 189458" d="M241.358,269.081A162.5,162.5,0,0,1,450.32,240.417q5.587,3.582,10.777,7.539l95.75-35.745-7.429-100.879c-3.745-2.626-7.541-5.2-11.427-7.693-143.143-91.751-331.06-57.081-432.778,75.308l99.756-7.345Z" transform="translate(-37.683 -52.232)" fill="#febf10"/>
      <path id="Trazado_189459" data-name="Trazado 189459" d="M408.287,189.968l-97.48,36.391A162.5,162.5,0,0,1,339.47,435.32q-3.582,5.587-7.539,10.777l35.745,95.75,100.879-7.429c2.626-3.745,5.2-7.541,7.694-11.427C568,379.847,533.331,191.931,400.942,90.212Z" transform="translate(122.273 -22.683)" fill="#fcf293"/>
      <path id="Trazado_189460" data-name="Trazado 189460" d="M247.3,324.47q-5.587-3.582-10.777-7.539l-95.75,35.745,7.429,100.879c3.745,2.626,7.541,5.2,11.427,7.694C302.777,553,490.693,518.331,592.412,385.942l-99.756,7.345-36.391-97.48A162.5,162.5,0,0,1,247.3,324.47Z" transform="translate(-10.012 137.273)" fill="#4c53b5"/>
    </g>
    <g id="Grupo_124766" data-name="Grupo 124766" transform="matrix(0.996, 0.087, -0.087, 0.996, 1907.432, -6884.689)">
      <g id="Grupo_124267" data-name="Grupo 124267" transform="translate(0 0)">
        <path id="Trazado_189461" data-name="Trazado 189461" d="M13.595,7.195l3.992,8.534,6.227-.577,1.3,2.771L1.1,19.673,0,17.322,16.727,0l1.288,2.756Zm1.415,8.751L11.77,9.019l-7.9,7.927Z" transform="translate(12.302 76.642)" fill="#12263f"/>
        <path id="Trazado_189462" data-name="Trazado 189462" d="M14.714,5.579a4.123,4.123,0,0,0-1.649-2.3,3.256,3.256,0,0,0-2.581-.555L9.715.134a5.174,5.174,0,0,1,2.9.17,6.512,6.512,0,0,1,2.676,1.744A7.019,7.019,0,0,1,16.95,4.914a6.885,6.885,0,0,1-.64,5.854,9.078,9.078,0,0,1-5.4,3.706l-.459.136a10.076,10.076,0,0,1-4.416.376,6.816,6.816,0,0,1-3.56-1.626,7.327,7.327,0,0,1-2.134-3.5A6.7,6.7,0,0,1,.625,4.9,6.019,6.019,0,0,1,4.25,1.754l.769,2.591A3.943,3.943,0,0,0,2.814,6.281,3.831,3.831,0,0,0,2.59,9.192a4,4,0,0,0,2.463,2.789A7.364,7.364,0,0,0,9.74,11.84l.519-.153A7.227,7.227,0,0,0,14.185,9.28,4.021,4.021,0,0,0,14.714,5.579Z" transform="translate(10.106 63.431)" fill="#12263f"/>
        <path id="Trazado_189463" data-name="Trazado 189463" d="M0,6.894l3.981-.731L3.417,3.094l2.172-.4.562,3.069L16.36,3.89a2.322,2.322,0,0,0,1.408-.682,1.761,1.761,0,0,0,.238-1.489,6.931,6.931,0,0,0-.428-1.3L19.844,0a8.324,8.324,0,0,1,.7,2.1,3.553,3.553,0,0,1-.618,3.05A4.974,4.974,0,0,1,16.863,6.7L6.669,8.574l.55,2.994-2.173.4L4.5,8.973.515,9.7Z" transform="translate(3.352 52.479)" fill="#12263f"/>
        <path id="Trazado_189464" data-name="Trazado 189464" d="M1.842,5.371A1.709,1.709,0,0,1,.629,5.077a1.6,1.6,0,0,1-.614-1.2A1.625,1.625,0,0,1,.354,2.566a1.691,1.691,0,0,1,1.119-.558,1.628,1.628,0,0,1,1.2.3,1.646,1.646,0,0,1,.6,1.208,1.626,1.626,0,0,1-.324,1.3A1.651,1.651,0,0,1,1.842,5.371ZM22.527,0l.311,2.841L6.223,4.658l-.31-2.841Z" transform="translate(0 46.547)" fill="#12263f"/>
        <path id="Trazado_189465" data-name="Trazado 189465" d="M12.941,6.865.044,2.919,0,0,16.8,5.739l.033,2.178L.215,14.225.171,11.305Z" transform="translate(5.181 30.177)" fill="#12263f"/>
        <path id="Trazado_189466" data-name="Trazado 189466" d="M17.412,3.767a6.035,6.035,0,0,1-1.8.2,6.376,6.376,0,0,1,1.507,4.964,5.9,5.9,0,0,1-1.858,3.867,4.52,4.52,0,0,1-3.7,1.162,4.724,4.724,0,0,1-3.8-2.44A9.355,9.355,0,0,1,6.973,5.8L7.3,3.04,5.991,2.888A3.214,3.214,0,0,0,3.516,3.5,3.607,3.607,0,0,0,2.328,6.023,4.177,4.177,0,0,0,2.8,8.659,2.277,2.277,0,0,0,4.536,9.9L4.2,12.758a3.947,3.947,0,0,1-2.3-1.162A6.066,6.066,0,0,1,.351,8.989a8.1,8.1,0,0,1-.287-3.4A6.6,6.6,0,0,1,2.021,1.259,5.215,5.215,0,0,1,6.168.031l7.64.889a9.4,9.4,0,0,0,3.7-.159l.246.028ZM14.7,8.225a5.016,5.016,0,0,0-.4-2.612A4.207,4.207,0,0,0,12.712,3.67L9.3,3.274,9.046,5.5q-.607,5.218,2.446,5.572a2.6,2.6,0,0,0,2.191-.646A3.439,3.439,0,0,0,14.7,8.225Z" transform="translate(5.808 14.096)" fill="#12263f"/>
        <path id="Trazado_189467" data-name="Trazado 189467" d="M4.322.6A8.37,8.37,0,0,0,3.9,1.945,3.764,3.764,0,0,0,5.37,6.2L16.926,8.881l-.645,2.784L0,7.891.628,5.183l1.891.39A4.449,4.449,0,0,1,1.237,1.185,2.916,2.916,0,0,1,1.734,0Z" transform="translate(8.057 0)" fill="#12263f"/>
      </g>
    </g>
    <g id="Grupo_124767" data-name="Grupo 124767" transform="translate(2063.344 -7066.103)">
      <g id="Grupo_124269" data-name="Grupo 124269" transform="translate(0 0)">
        <path id="Trazado_189468" data-name="Trazado 189468" d="M187.149,116.2l3.1,8.242-2.777,1.043-7.908-21.054,7.765-2.917a8.332,8.332,0,0,1,6.077-.27,6.388,6.388,0,0,1,3.714,3.935,6.3,6.3,0,0,1-.142,5.44,8.709,8.709,0,0,1-4.866,3.717Zm-.852-2.27,4.989-1.875a5.324,5.324,0,0,0,3.018-2.332,4.1,4.1,0,0,0,.045-3.481,4.234,4.234,0,0,0-2.317-2.567,4.988,4.988,0,0,0-3.693.049l-5.148,1.933Z" transform="translate(-179.561 -91.702)" fill="#12263f"/>
        <path id="Trazado_189469" data-name="Trazado 189469" d="M210.51,117.923l-2.761.738-6.124-22.921,2.76-.738Z" transform="translate(-181.683 -91.145)" fill="#12263f"/>
        <path id="Trazado_189470" data-name="Trazado 189470" d="M225.762,115.446a5.976,5.976,0,0,1-.7-1.665,6.38,6.38,0,0,1-4.33,2.859,5.9,5.9,0,0,1-4.234-.68,4.521,4.521,0,0,1-2.17-3.219,4.725,4.725,0,0,1,1.257-4.337,9.35,9.35,0,0,1,5.251-2.383l2.739-.48-.226-1.292a3.205,3.205,0,0,0-1.293-2.2,3.59,3.59,0,0,0-2.755-.42,4.163,4.163,0,0,0-2.392,1.2,2.275,2.275,0,0,0-.7,2.02l-2.83.493a3.936,3.936,0,0,1,.458-2.533,6.061,6.061,0,0,1,2.055-2.233,8.1,8.1,0,0,1,3.178-1.245,6.607,6.607,0,0,1,4.706.643,5.214,5.214,0,0,1,2.359,3.626l1.325,7.577a9.4,9.4,0,0,0,1.208,3.505l.042.244Zm-5.046-1.328a5.015,5.015,0,0,0,2.391-1.124,4.206,4.206,0,0,0,1.408-2.081l-.59-3.378-2.206.385q-5.174.906-4.645,3.934a2.608,2.608,0,0,0,1.246,1.915A3.449,3.449,0,0,0,220.716,114.118Z" transform="translate(-182.808 -91.548)" fill="#12263f"/>
        <path id="Trazado_189471" data-name="Trazado 189471" d="M235.753,97.561l.188,2.093a6.091,6.091,0,0,1,4.89-2.636q5.293-.241,5.612,5.729l.5,11.032-2.854.13-.5-11.048a3.848,3.848,0,0,0-.947-2.632,3.311,3.311,0,0,0-2.562-.748,4.127,4.127,0,0,0-2.4.851,5.019,5.019,0,0,0-1.547,2.018l.542,11.9-2.854.13-.762-16.7Z" transform="translate(-184.705 -91.338)" fill="#12263f"/>
        <path id="Trazado_189472" data-name="Trazado 189472" d="M255.739,113.58l-2.854-.146.854-16.691,2.853.146ZM253.734,92.3a1.716,1.716,0,0,1,.484-1.151,1.6,1.6,0,0,1,1.283-.413,1.618,1.618,0,0,1,1.24.541,1.7,1.7,0,0,1,.373,1.2,1.545,1.545,0,0,1-1.78,1.532,1.617,1.617,0,0,1-1.234-.526A1.65,1.65,0,0,1,253.734,92.3Z" transform="translate(-186.612 -90.735)" fill="#12263f"/>
        <path id="Trazado_189473" data-name="Trazado 189473" d="M262.114,114.059l1.808-14.391L261.3,99.34l.275-2.193,2.622.33.213-1.7a5.691,5.691,0,0,1,1.943-3.943,5.431,5.431,0,0,1,4.214-.95,7.618,7.618,0,0,1,1.914.5l-.44,2.267a8.165,8.165,0,0,0-1.516-.331,2.786,2.786,0,0,0-2.232.539,3.3,3.3,0,0,0-1.042,2.221l-.22,1.753,3.54.444-.276,2.193-3.54-.446-1.808,14.391Z" transform="translate(-187.421 -90.743)" fill="#12263f"/>
        <path id="Trazado_189474" data-name="Trazado 189474" d="M275.29,116.292l-2.8-.567L275.8,99.344l2.8.567Zm1.165-21.34a1.708,1.708,0,0,1,.65-1.066,1.59,1.59,0,0,1,1.328-.221,1.619,1.619,0,0,1,1.147.721,1.687,1.687,0,0,1,.191,1.236,1.639,1.639,0,0,1-.654,1.051,1.657,1.657,0,0,1-1.332.2,1.628,1.628,0,0,1-1.142-.7A1.646,1.646,0,0,1,276.455,94.952Z" transform="translate(-188.497 -91.012)" fill="#12263f"/>
        <path id="Trazado_189475" data-name="Trazado 189475" d="M287.108,118.021a4.121,4.121,0,0,0,2.826-.1,3.26,3.26,0,0,0,1.889-1.845l2.585.791a5.177,5.177,0,0,1-1.745,2.325,6.528,6.528,0,0,1-2.931,1.268,7.035,7.035,0,0,1-3.306-.2,6.883,6.883,0,0,1-4.525-3.768,9.074,9.074,0,0,1-.1-6.549l.141-.458a10.057,10.057,0,0,1,2.126-3.887,6.829,6.829,0,0,1,3.323-2.07,7.319,7.319,0,0,1,4.1.155,6.706,6.706,0,0,1,3.975,2.977,6.012,6.012,0,0,1,.618,4.761l-2.584-.791a3.938,3.938,0,0,0-.4-2.908,3.813,3.813,0,0,0-2.3-1.794,4,4,0,0,0-3.687.511,7.372,7.372,0,0,0-2.471,3.985l-.158.518a7.217,7.217,0,0,0-.164,4.6A4.013,4.013,0,0,0,287.108,118.021Z" transform="translate(-189.339 -91.943)" fill="#12263f"/>
        <path id="Trazado_189476" data-name="Trazado 189476" d="M306.183,127.8a6.055,6.055,0,0,1,.37-1.769,6.376,6.376,0,0,1-5.187-.1,5.9,5.9,0,0,1-3.1-2.961,4.522,4.522,0,0,1,.039-3.882,4.725,4.725,0,0,1,3.493-2.859,9.363,9.363,0,0,1,5.678,1.015L310,118.4l.546-1.193a3.208,3.208,0,0,0,.182-2.542,3.6,3.6,0,0,0-2.031-1.909,4.175,4.175,0,0,0-2.654-.367,2.276,2.276,0,0,0-1.719,1.267l-2.612-1.2a3.936,3.936,0,0,1,1.815-1.827,6.053,6.053,0,0,1,2.96-.674,8.1,8.1,0,0,1,3.323.776,6.6,6.6,0,0,1,3.511,3.2,5.209,5.209,0,0,1-.113,4.323L310,125.247a9.409,9.409,0,0,0-.992,3.573l-.1.225Zm-3.4-3.957a5.024,5.024,0,0,0,2.6.43,4.206,4.206,0,0,0,2.341-.915l1.429-3.117-2.036-.933q-4.774-2.19-6.055.6a2.6,2.6,0,0,0-.061,2.283A3.439,3.439,0,0,0,302.782,123.839Z" transform="translate(-190.935 -92.583)" fill="#12263f"/>
        <path id="Trazado_189477" data-name="Trazado 189477" d="M327.392,123.373a8.678,8.678,0,0,0-1.154-.808,3.767,3.767,0,0,0-4.5.12L315.7,132.9l-2.46-1.454,8.506-14.387,2.393,1.415-.943,1.686a4.448,4.448,0,0,1,4.57.1,2.935,2.935,0,0,1,.982.832Z" transform="translate(-192.415 -93.266)" fill="#12263f"/>
      </g>
    </g>
    <g id="Grupo_124768" data-name="Grupo 124768" transform="translate(2314.487 -6874.834)">
      <g id="Grupo_124271" data-name="Grupo 124271" transform="translate(0 0)">
        <path id="Trazado_189478" data-name="Trazado 189478" d="M376.423,213.089l-.655-2.915,10.166-2.285L383.441,196.8l-10.166,2.285-.652-2.9,21.994-4.944.652,2.9-9.456,2.126,2.493,11.087,9.456-2.125.655,2.915Z" transform="translate(-372.623 -191.242)" fill="#12263f"/>
        <path id="Trazado_189479" data-name="Trazado 189479" d="M378.139,230.035a5.944,5.944,0,0,1,1.728-.538,6.393,6.393,0,0,1-2.437-4.594,5.911,5.911,0,0,1,1.082-4.16,4.528,4.528,0,0,1,3.419-1.857,4.734,4.734,0,0,1,4.206,1.668,9.374,9.374,0,0,1,1.877,5.469l.216,2.778,1.312-.1a3.219,3.219,0,0,0,2.315-1.081,3.6,3.6,0,0,0,.682-2.709,4.175,4.175,0,0,0-.97-2.5,2.28,2.28,0,0,0-1.948-.889l-.223-2.872a3.955,3.955,0,0,1,2.485.7,6.089,6.089,0,0,1,2.031,2.264,8.127,8.127,0,0,1,.939,3.29,6.627,6.627,0,0,1-1.092,4.635,5.228,5.228,0,0,1-3.843,2.007l-7.688.6a9.4,9.4,0,0,0-3.612.871l-.247.019Zm1.808-4.909a5.024,5.024,0,0,0,.891,2.493,4.216,4.216,0,0,0,1.942,1.6l3.426-.265-.173-2.239q-.409-5.248-3.48-5.01a2.607,2.607,0,0,0-2.03,1.059A3.446,3.446,0,0,0,379.947,225.126Z" transform="translate(-373.073 -193.818)" fill="#12263f"/>
        <path id="Trazado_189480" data-name="Trazado 189480" d="M380.087,244.855a4.124,4.124,0,0,0,.79,2.723,3.268,3.268,0,0,0,2.253,1.387l-.139,2.705a5.2,5.2,0,0,1-2.686-1.13A6.531,6.531,0,0,1,378.359,248a7.042,7.042,0,0,1-.608-3.263,6.905,6.905,0,0,1,2.56-5.318,9.1,9.1,0,0,1,6.344-1.7l.478.024a10.1,10.1,0,0,1,4.3,1.12,6.839,6.839,0,0,1,2.82,2.727,7.323,7.323,0,0,1,.848,4.021,6.718,6.718,0,0,1-1.926,4.591,6.031,6.031,0,0,1-4.478,1.761l.14-2.706a3.946,3.946,0,0,0,2.731-1.092,3.83,3.83,0,0,0,1.184-2.675,4.011,4.011,0,0,0-1.4-3.459,7.38,7.38,0,0,0-4.477-1.431l-.541-.028a7.224,7.224,0,0,0-4.514.962A4.024,4.024,0,0,0,380.087,244.855Z" transform="translate(-373.104 -195.611)" fill="#12263f"/>
        <path id="Trazado_189481" data-name="Trazado 189481" d="M375.565,262.422a7.32,7.32,0,0,1,3.213-5.04,8.3,8.3,0,0,1,6.273-1.007l.518.1a10.035,10.035,0,0,1,4.2,1.75A7.433,7.433,0,0,1,392.3,261.4a6.709,6.709,0,0,1,.41,3.849,6.278,6.278,0,0,1-3.044,4.6,9.319,9.319,0,0,1-6.389.654l-1.173-.217,2.076-11.157a5.961,5.961,0,0,0-4.2.69A4.552,4.552,0,0,0,377.835,263a5,5,0,0,0,.139,2.64,6.466,6.466,0,0,0,1.276,2.111l-1.659,1.471A7.038,7.038,0,0,1,375.565,262.422Zm14.831,2.4a3.819,3.819,0,0,0-.708-3.093,6.145,6.145,0,0,0-3.212-2.077l-1.534,8.251.212.039a5.452,5.452,0,0,0,3.541-.539A3.6,3.6,0,0,0,390.4,264.818Z" transform="translate(-372.884 -197.348)" fill="#12263f"/>
        <path id="Trazado_189482" data-name="Trazado 189482" d="M384.8,284.917a8.534,8.534,0,0,0,.512-1.316,3.774,3.774,0,0,0-1.189-4.355L372.739,275.8l.83-2.741,16.035,4.854-.809,2.667-1.865-.516a4.458,4.458,0,0,1,.991,4.474,2.935,2.935,0,0,1-.575,1.152Z" transform="translate(-372.634 -198.935)" fill="#12263f"/>
      </g>
    </g>
    <g id="Grupo_124769" data-name="Grupo 124769" transform="matrix(0.999, -0.035, 0.035, 0.999, 2070.568, -6647.154)">
      <g id="Grupo_124273" data-name="Grupo 124273" transform="translate(0 0)">
        <path id="Trazado_189483" data-name="Trazado 189483" d="M3.066,20.886l14.712-13L20.6,9.48,2.287,24.97,0,23.679,3.8,0,6.612,1.585Z" fill="#fff"/>
        <path id="Trazado_189484" data-name="Trazado 189484" d="M4.994,16.793a7.3,7.3,0,0,1-4.4-4.019,8.286,8.286,0,0,1,.083-6.34l.183-.492a10.026,10.026,0,0,1,2.438-3.83A7.416,7.416,0,0,1,6.851.17,6.679,6.679,0,0,1,10.7.426a6.257,6.257,0,0,1,4,3.778,9.3,9.3,0,0,1-.449,6.393l-.415,1.114L3.227,7.763a5.938,5.938,0,0,0-.038,4.246,4.541,4.541,0,0,0,2.763,2.652,4.968,4.968,0,0,0,2.618.314,6.43,6.43,0,0,0,2.294-.893l1.161,1.883A7.019,7.019,0,0,1,4.994,16.793ZM9.884,2.626a3.807,3.807,0,0,0-3.16.168A6.116,6.116,0,0,0,4.133,5.6l7.846,2.919.076-.2a5.446,5.446,0,0,0,.076-3.572A3.588,3.588,0,0,0,9.884,2.626Z" transform="translate(14.767 16.48)" fill="#fff"/>
        <path id="Trazado_189485" data-name="Trazado 189485" d="M11.053,4.315a8.687,8.687,0,0,0-1.345-.421A3.766,3.766,0,0,0,5.452,5.369L2.784,16.928,0,16.285,3.758,0,6.467.625,6.078,2.518a4.448,4.448,0,0,1,4.386-1.287,2.9,2.9,0,0,1,1.186.5Z" transform="translate(30.938 20.19)" fill="#fff"/>
        <path id="Trazado_189486" data-name="Trazado 189486" d="M2.83,22.8,0,22.4,2.319,5.851l2.831.4ZM2.705,1.429a1.7,1.7,0,0,1,.584-1.1A1.6,1.6,0,0,1,4.6.025,1.622,1.622,0,0,1,5.79.675,1.684,1.684,0,0,1,6.055,1.9a1.632,1.632,0,0,1-.588,1.089,1.652,1.652,0,0,1-1.319.282,1.621,1.621,0,0,1-1.182-.634A1.652,1.652,0,0,1,2.705,1.429Z" transform="translate(42.864 16.486)" fill="#fff"/>
        <path id="Trazado_189487" data-name="Trazado 189487" d="M1.888,23.746l.75-14.485L0,9.125.115,6.919l2.637.136.089-1.713A5.693,5.693,0,0,1,4.49,1.268,5.423,5.423,0,0,1,8.623.012a7.564,7.564,0,0,1,1.946.362L10.3,2.666A8.351,8.351,0,0,0,8.76,2.448a2.786,2.786,0,0,0-2.186.7A3.293,3.293,0,0,0,5.7,5.439L5.606,7.2l3.564.184L9.055,9.594,5.492,9.408,4.742,23.893Z" transform="translate(50.954 16.244)" fill="#fff"/>
        <path id="Trazado_189488" data-name="Trazado 189488" d="M0,1.709A1.7,1.7,0,0,1,.387.522,1.6,1.6,0,0,1,1.629,0,1.62,1.62,0,0,1,2.911.437,1.684,1.684,0,0,1,3.381,1.6a1.633,1.633,0,0,1-.392,1.173,1.656,1.656,0,0,1-1.251.505A1.623,1.623,0,0,1,.465,2.853,1.651,1.651,0,0,1,0,1.709ZM3.8,22.741l-2.855.095L.382,6.133l2.856-.1Z" transform="translate(62.9 17.394)" fill="#fff"/>
        <path id="Trazado_189489" data-name="Trazado 189489" d="M8.418,14.936a4.123,4.123,0,0,0,2.517-1.29,3.265,3.265,0,0,0,.934-2.47l2.675-.376a5.185,5.185,0,0,1-.6,2.845,6.513,6.513,0,0,1-2.121,2.387,7.013,7.013,0,0,1-3.082,1.213,6.879,6.879,0,0,1-5.693-1.5A9.071,9.071,0,0,1,.186,9.851L.119,9.378A10.056,10.056,0,0,1,.4,4.955a6.821,6.821,0,0,1,2.137-3.28A7.3,7.3,0,0,1,6.319.085,6.7,6.7,0,0,1,11.18,1.1a6.02,6.02,0,0,1,2.573,4.053l-2.677.375A3.938,3.938,0,0,0,9.489,3.063,3.822,3.822,0,0,0,6.644,2.41,4,4,0,0,0,3.52,4.431a7.377,7.377,0,0,0-.556,4.657l.076.535a7.222,7.222,0,0,0,1.8,4.241A4.024,4.024,0,0,0,8.418,14.936Z" transform="translate(70.68 21.984)" fill="#fff"/>
        <path id="Trazado_189490" data-name="Trazado 189490" d="M13.513,15.679a6.02,6.02,0,0,1-.871-1.583,6.365,6.365,0,0,1-4,3.3,5.9,5.9,0,0,1-4.283-.227,4.518,4.518,0,0,1-2.5-2.974A4.722,4.722,0,0,1,2.65,9.752,9.361,9.361,0,0,1,7.621,6.827l2.674-.766L9.932,4.8A3.206,3.206,0,0,0,8.414,2.75a3.606,3.606,0,0,0-2.784-.127A4.162,4.162,0,0,0,3.377,4.073,2.277,2.277,0,0,0,2.9,6.154L.134,6.945a3.96,3.96,0,0,1,.189-2.57A6.064,6.064,0,0,1,2.133,1.939,8.094,8.094,0,0,1,5.161.365,6.609,6.609,0,0,1,9.909.507a5.208,5.208,0,0,1,2.727,3.356l2.117,7.4a9.413,9.413,0,0,0,1.573,3.358l.068.237Zm-5.158-.788a5.018,5.018,0,0,0,2.259-1.37A4.2,4.2,0,0,0,11.795,11.3l-.945-3.3L8.7,8.622q-5.05,1.447-4.2,4.4A2.6,2.6,0,0,0,5.933,14.8,3.446,3.446,0,0,0,8.355,14.891Z" transform="translate(87.388 18.349)" fill="#fff"/>
        <path id="Trazado_189491" data-name="Trazado 189491" d="M8.444,2.456A8.532,8.532,0,0,0,7.105,2.9,3.764,3.764,0,0,0,4.5,6.573L9.066,17.524l-2.637,1.1L0,3.2l2.567-1.07.785,1.764A4.452,4.452,0,0,1,6.169.291,2.914,2.914,0,0,1,7.421,0Z" transform="translate(102.482 12.57)" fill="#fff"/>
      </g>
    </g>
    <g transform="matrix(1, 0, 0, 1, 1803.07, -7163)" filter="url(#Elipse_7188)">
      <circle id="Elipse_7188-2" data-name="Elipse 7188" cx="130.684" cy="130.684" r="130.684" transform="translate(195.17 196.95)" fill="url(#radial-gradient)"/>
    </g>
    <text id="Ciclo_PHVA" data-name="Ciclo
PHVA" transform="translate(2128 -6857.071)" fill="#12263f" font-size="29" font-family="Roboto-Bold, Roboto" font-weight="700"><tspan x="-32.937" y="0">Ciclo</tspan><tspan x="-38.303" y="63">PHVA</tspan></text>
    <g id="Grupo_124770" data-name="Grupo 124770" transform="translate(2095.657 -7147.65)">
      <ellipse id="Elipse_5255" data-name="Elipse 5255" cx="32.343" cy="32.343" rx="32.343" ry="32.343" transform="translate(0 0)" fill="#ff004c" opacity="0.5"/>
      <ellipse id="Elipse_5256" data-name="Elipse 5256" cx="16.633" cy="16.633" rx="16.633" ry="16.633" transform="translate(15.874 16.124)" fill="#ff004c"/>
    </g>
    <g id="Grupo_124771" data-name="Grupo 124771" transform="translate(2357.738 -6870)">
      <ellipse id="Elipse_5255-2" data-name="Elipse 5255" cx="32.343" cy="32.343" rx="32.343" ry="32.343" transform="translate(0 0)" fill="#ff004c" opacity="0.5"/>
      <ellipse id="Elipse_5256-2" data-name="Elipse 5256" cx="16.633" cy="16.633" rx="16.633" ry="16.633" transform="translate(15.874 16.124)" fill="#ff004c"/>
    </g>
    <g id="Grupo_124772" data-name="Grupo 124772" transform="translate(2095.657 -6590.087)">
      <ellipse id="Elipse_5255-3" data-name="Elipse 5255" cx="32.343" cy="32.343" rx="32.343" ry="32.343" transform="translate(0 0)" fill="#ff004c" opacity="0.5"/>
      <ellipse id="Elipse_5256-3" data-name="Elipse 5256" cx="16.633" cy="16.633" rx="16.633" ry="16.633" transform="translate(15.874 16.124)" fill="#ff004c"/>
    </g>
    <g id="Grupo_124773" data-name="Grupo 124773" transform="translate(1823 -6870)">
      <ellipse id="Elipse_5255-4" data-name="Elipse 5255" cx="32.343" cy="32.343" rx="32.343" ry="32.343" transform="translate(0 0)" fill="#ff004c" opacity="0.5"/>
      <ellipse id="Elipse_5256-4" data-name="Elipse 5256" cx="16.633" cy="16.633" rx="16.633" ry="16.633" transform="translate(15.874 16.124)" fill="#ff004c"/>
    </g>
  </g>
</svg>
