<svg xmlns="http://www.w3.org/2000/svg" width="116" height="117" viewBox="0 0 116 117">
  <g id="Grupo_124597" data-name="Grupo 124597" transform="translate(-1140 -3710)">
    <g id="Elipse_6897" data-name="Elipse 6897" transform="translate(1140 3710)" fill="#fff" stroke="#242ca3" stroke-width="4">
      <ellipse cx="58" cy="58.5" rx="58" ry="58.5" stroke="none"/>
      <ellipse cx="58" cy="58.5" rx="56" ry="56.5" fill="none"/>
    </g>
    <g id="Grupo_124558" data-name="Grupo 124558" transform="translate(7555.916 6635.173)">
      <path id="Trazado_190340" data-name="Trazado 190340" d="M-6121.892-2744.855q-3.229-5.8-6.468-11.6c-.221-.392-.14-.553.219-.762q7.748-4.5,15.478-9.02c.344-.2.5-.186.682.193,1.513,3.068,3.064,6.117,4.561,9.194a15.159,15.159,0,0,1,.674,2.088v2.476c-.776,2.833-2.595,5.107-4.061,7.57a1.574,1.574,0,0,1-1.034.23c-3.013,0-6.026.006-9.039-.005C-6121.25-2744.488-6121.679-2744.4-6121.892-2744.855Z" transform="translate(-211.612 -106.274)" fill="#64891f"/>
      <path id="Trazado_190341" data-name="Trazado 190341" d="M-6196.707-2689.118q-3.606,6.211-7.212,12.421-1.184,2.036-2.384,4.064a7.147,7.147,0,0,1-6.292,3.708c-3.479.078-6.961.042-10.441.013-.629,0-.837.128-.812.791.054,1.487.017,2.978.017,4.673-1.113-1.441-2.112-2.732-3.106-4.025q-5.068-6.586-10.132-13.175c-.23-.3-.5-.514-.091-.956q6.562-7.151,13.078-14.344c.034-.038.079-.065.259-.209v6.677a1.374,1.374,0,0,0,.827.086q12.734.008,25.468.016C-6197.258-2689.377-6196.843-2689.626-6196.707-2689.118Z" transform="translate(-125.95 -161.503)" fill="#82a424"/>
      <path id="Trazado_190342" data-name="Trazado 190342" d="M-6225.47-2901.406q5.336-.017,10.672-.032c1.959,0,3.919-.031,5.878.012a7.359,7.359,0,0,1,6.476,3.7c1.749,2.884,3.427,5.811,5.1,8.741.315.553.557.622,1.116.326,2.02-1.068,4.071-2.077,6.116-3.112.146.264-.047.427-.126.592q-4.536,9.383-9.079,18.763a.794.794,0,0,1-.935.55q-7.1-.838-14.2-1.641c-1.735-.2-3.472-.387-5.286-.589a1.287,1.287,0,0,1,.647-.543q2.746-1.656,5.5-3.3c.289-.172.478-.289.259-.7q-3.888-7.29-7.74-14.6a1.59,1.59,0,0,0-.191-.238,3.744,3.744,0,0,1-.852-1.356c-1.126-2.026-2.135-4.114-3.272-6.135A.484.484,0,0,1-6225.47-2901.406Z" transform="translate(-135.292)" fill="#82a424"/>
      <path id="Trazado_190343" data-name="Trazado 190343" d="M-6387.272-2761.326c-.854-1.436-1.718-2.865-2.559-4.309q-2.429-4.174-4.836-8.361a8.385,8.385,0,0,1-.3-8.343c1.563-3.161,3.146-6.313,4.719-9.469.461-.923.461-.923-.448-1.487l-6.044-3.746c-.212-.132-.422-.267-.73-.463a25.047,25.047,0,0,1,3.694-.311c5.813-.393,11.629-.739,17.443-1.109.36-.023.614,0,.8.4q3.864,8.422,7.756,16.832a1.78,1.78,0,0,1,.071.35,2.048,2.048,0,0,1-.955-.277q-2.526-.958-5.043-1.942c-.326-.127-.568-.243-.816.191q-4.059,7.114-8.157,14.205a.888.888,0,0,0-.038.218c.272.013.54.036.807.036,3.585,0,7.17,0,10.755.008.266,0,.566-.125.8.116-.313.32-.721.229-1.1.23-3.4.008-6.8.024-10.2-.01a1.689,1.689,0,0,0-1.723.984c-1.037,1.927-2.171,3.8-3.271,5.691C-6386.782-2761.644-6386.858-2761.285-6387.272-2761.326Z" transform="translate(0 -80.653)" fill="#82a424"/>
      <path id="Trazado_190344" data-name="Trazado 190344" d="M-6290.248-2901.373c1.523,2.578,2.89,5.24,4.205,7.929q-3.313,6.019-6.618,12.044c-.209.381-.346.443-.733.195q-7.025-4.5-14.077-8.966c-.323-.205-.5-.339-.239-.757,1.446-2.284,2.8-4.626,4.3-6.874a7.793,7.793,0,0,1,6.586-3.583C-6294.631-2901.44-6292.438-2901.381-6290.248-2901.373Z" transform="translate(-70.514 -0.033)" fill="#64891f"/>
      <path id="Trazado_190345" data-name="Trazado 190345" d="M-6349.652-2650.154c.887-1.5,1.78-2.991,2.659-4.493.479-.82.952-1.645,1.4-2.484.239-.451.614-.471,1.044-.47q5.446.011,10.893,0c.309,0,.618-.01.927-.015.164.234.085.5.085.75,0,5.825-.011,11.65.022,17.474,0,.714-.213.852-.867.83-1.494-.049-2.991.016-4.485-.022a8.4,8.4,0,0,1-7.283-3.957C-6346.831-2645.01-6348.278-2647.563-6349.652-2650.154Z" transform="translate(-37.62 -191.825)" fill="#64891f"/>
      <path id="Trazado_190346" data-name="Trazado 190346" d="M-6146.747-2665.032c-.256-.328-.62-.19-.935-.19q-12.664-.006-25.327,0c-.286,0-.625.147-.856-.17q5.629.018,11.258.034c1.439,0,2.879.006,4.319-.005.236,0,.525.122.695-.175a1.121,1.121,0,0,0,.661.159q5.211-.012,10.423-.016Z" transform="translate(-175.91 -185.589)" fill="#9db24e"/>
    </g>
  </g>
</svg>
