<svg xmlns="http://www.w3.org/2000/svg" width="116" height="117" viewBox="0 0 116 117">
  <g id="Grupo_124598" data-name="Grupo 124598" transform="translate(-875 -3710)">
    <g id="Elipse_6896" data-name="Elipse 6896" transform="translate(875 3710)" fill="#fff" stroke="#242ca3" stroke-width="4">
      <ellipse cx="58" cy="58.5" rx="58" ry="58.5" stroke="none"/>
      <ellipse cx="58" cy="58.5" rx="56" ry="56.5" fill="none"/>
    </g>
    <g id="Grupo_124559" data-name="Grupo 124559" transform="translate(6936.852 7163.764)">
      <path id="Trazado_190347" data-name="Trazado 190347" d="M-5945.941-3095.878a2.24,2.24,0,0,1-1.66,2.2h-.962a44.59,44.59,0,0,1-5.149-1.608,2.829,2.829,0,0,0-1.859,0,40.894,40.894,0,0,1-5.216,1.608h-.962a2.423,2.423,0,0,1-1.639-2.209.843.843,0,0,1-.217-.627c0-1.158-.055-2.317.032-3.474a31.125,31.125,0,0,0,.1-3.684,1.571,1.571,0,0,1,.205-1.048,1.7,1.7,0,0,1,1-.168q7.664-.006,15.329,0a1.713,1.713,0,0,1,1,.167,1.056,1.056,0,0,1,.208.768c0,1.314.027,2.628-.01,3.942.033,1.12.012,2.239.011,3.359A1.118,1.118,0,0,1-5945.941-3095.878Z" transform="translate(-57.633 -262.941)" fill="#e8582f"/>
      <path id="Trazado_190348" data-name="Trazado 190348" d="M-5948.185-3052.972q2.975-1.017,5.952-2.027a.655.655,0,0,1,.4,0c1.949.7,3.958,1.225,5.872,2.028Z" transform="translate(-70.236 -303.652)" fill="#fff"/>
      <path id="Trazado_190349" data-name="Trazado 190349" d="M-6034.167-3370.781c-.006-.366-.016-.732-.016-1.1q0-22.013,0-44.025a10.885,10.885,0,0,1,8.8-10.85,9.59,9.59,0,0,1,1.976-.207q11.468,0,22.938,0c.113,0,.228.014.342.022a1.18,1.18,0,0,1,.216.907q.007,9.668,0,19.335a2.035,2.035,0,0,1-.094.743c-.162.326-.473.322-.769.333-.549.02-1.1-.014-1.646.016a1.83,1.83,0,0,0-1.75,1.629,1.929,1.929,0,0,0,1.32,1.952,6.82,6.82,0,0,0,1.907.152c.334.013.7-.052.925.31a2.617,2.617,0,0,1,.107,1.016q0,9.391,0,18.783a2.442,2.442,0,0,1-.113,1.013c-.282.378-.7.279-1.075.28-3.342.01-6.684.005-10.025.005-3.731,0-7.463-.021-11.192.012a12.946,12.946,0,0,0-3.672.4,10.655,10.655,0,0,0-7.834,8.523C-6033.877-3371.256-6033.786-3370.9-6034.167-3370.781Z" transform="translate(-0.024)" fill="#e8582f"/>
      <path id="Trazado_190350" data-name="Trazado 190350" d="M-5848.7-3380.665q0-10.5.008-21.008l.076-.081a6.981,6.981,0,0,1,1.9-.116,2.063,2.063,0,0,0,1.848-.967,1.839,1.839,0,0,0-1.542-2.775,11.981,11.981,0,0,1-2.178-.088.167.167,0,0,1-.1-.179q0-10.528,0-21.056c2.38-.007,4.759-.02,7.139-.021q9.062,0,18.126,0a2.041,2.041,0,0,1,2.2,2.164q0,21.114,0,42.229c0,.136-.015.274-.022.41a1.875,1.875,0,0,1-2.111,1.7c-2.975.022-5.95.007-8.925.007q-7.552,0-15.1,0a4.084,4.084,0,0,1-1.093-.066A.506.506,0,0,1-5848.7-3380.665Z" transform="translate(-151.455 -0.002)" fill="#df2d4d"/>
      <path id="Trazado_190351" data-name="Trazado 190351" d="M-6000.159-3174.785l.159.01a17.645,17.645,0,0,1-.075,4.079c-.338.335-.772.229-1.172.23-7.028.007-14.057,0-21.085.011a8.73,8.73,0,0,0-3.749.686,6.641,6.641,0,0,0-3.774,6.468,6.634,6.634,0,0,0,5.39,5.9,15.938,15.938,0,0,0,2.532.139,1.224,1.224,0,0,1,.913.2q0,2.056,0,4.112a16.251,16.251,0,0,1-5.883-.607,11,11,0,0,1-7.286-11.341,14.874,14.874,0,0,1,.905-3.273,10.941,10.941,0,0,1,6.709-6.054,12.5,12.5,0,0,1,4.047-.536C-6015.073-3174.788-6007.616-3174.781-6000.159-3174.785Z" transform="translate(0 -205.882)" fill="#df2d4d"/>
      <path id="Trazado_190352" data-name="Trazado 190352" d="M-5848.778-3177.252q.012-1.677.024-3.354a1.155,1.155,0,0,1,.148-.789q12.589,0,25.177.013a2.143,2.143,0,0,0,2.119-1.511c.007,1.227.038,2.455.014,3.681a2.1,2.1,0,0,1-2.15,2.026c-.43.027-.862.03-1.292.043a1.635,1.635,0,0,1-.987.22q-11.054,0-22.107,0a1.887,1.887,0,0,1-.811-.109A.241.241,0,0,1-5848.778-3177.252Z" transform="translate(-151.395 -199.262)" fill="#c00061"/>
      <path id="Trazado_190353" data-name="Trazado 190353" d="M-5825.664-3079.275c.411.01.822.024,1.233.03a2.054,2.054,0,0,1,2.2,2.1,2.061,2.061,0,0,1-2.208,2.03q-9.54,0-19.08,0c-2.058,0-4.116-.016-6.175-.024a.464.464,0,0,1-.166-.29,21.56,21.56,0,0,1,0-3.533.533.533,0,0,1,.153-.3,1.537,1.537,0,0,1,.991-.192q11.021-.006,22.043,0A2.36,2.36,0,0,1-5825.664-3079.275Z" transform="translate(-150.456 -283.707)" fill="#c00061"/>
      <path id="Trazado_190354" data-name="Trazado 190354" d="M-5825.663-3100.945c-.5.009-1.006.025-1.509.025q-10.849,0-21.7,0c-.274,0-.547.018-.822.028-.029-.032-.059-.064-.09-.1a4.448,4.448,0,0,1-.114-1.75,12.393,12.393,0,0,1,.1-2.775.426.426,0,0,1,.191-.181,3.351,3.351,0,0,1,1.222-.1q9.5-.005,19,0a3.508,3.508,0,0,0,1.41-.209A11.346,11.346,0,0,0-5825.663-3100.945Z" transform="translate(-150.457 -262.037)" fill="#b9dcf0"/>
      <path id="Trazado_190355" data-name="Trazado 190355" d="M-5849.705-3151.623l24.006.01a10.972,10.972,0,0,0-2.078,3.972c-.109.372.039.788-.235,1.114a3.618,3.618,0,0,0-1.412-.2q-9.521,0-19.042,0a2.038,2.038,0,0,1-1.263-.191.439.439,0,0,1-.134-.232,25.381,25.381,0,0,1-.015-4.19A.419.419,0,0,1-5849.705-3151.623Z" transform="translate(-150.433 -224.792)" fill="#b9dcf0"/>
      <path id="Trazado_190356" data-name="Trazado 190356" d="M-5849.708-3126.232q10.488,0,20.976.007c.3,0,.747-.178.734.413a16.2,16.2,0,0,0,.01,3.279c0,.26-.082.451-.4.423-.068-.006-.137,0-.205,0l-21.1-.011a.4.4,0,0,1-.17-.285,16.167,16.167,0,0,1,.063-3.728Z" transform="translate(-150.448 -245.507)" fill="#81c5e7"/>
      <path id="Trazado_190357" data-name="Trazado 190357" d="M-5863.887-3079.284q0,2.039,0,4.078l-3.429.03q0-2.068,0-4.137a.881.881,0,0,1,.7-.2,8.081,8.081,0,0,1,2.73.175Z" transform="translate(-136.263 -283.642)" fill="#df2d4d"/>
      <path id="Trazado_190358" data-name="Trazado 190358" d="M-5981.792-3152.066l-.018,4.676h0a1.671,1.671,0,0,1-1.187.21q-10.575.007-21.149,0a8.083,8.083,0,0,0-1.029.027,1.763,1.763,0,0,0-1.59,1.554,1.839,1.839,0,0,0,1.087,1.887,4.2,4.2,0,0,0,1.684.238c.469.019.967-.128,1.4.193-.052,1.56.093,3.122-.075,4.68a17.69,17.69,0,0,1-3.959-.233,6.791,6.791,0,0,1-5.085-7.011,6.737,6.737,0,0,1,6.208-6.248c.5-.039,1-.059,1.508-.06q11.088-.013,22.177-.018A.712.712,0,0,0-5981.792-3152.066Z" transform="translate(-18.346 -224.349)" fill="#e8f3f7"/>
      <path id="Trazado_190359" data-name="Trazado 190359" d="M-5981.72-3122.1c-.71,0-1.42.015-2.129.007a2.18,2.18,0,0,1-2.316-2.124,2.079,2.079,0,0,1,2.295-2.01c7.646.031,15.293.013,22.938.013q.009,2.056.019,4.112l-.017.015a.892.892,0,0,1-.7.206c-.912-.07-1.853.219-2.737-.208-.754-.012-1.507-.034-2.262-.033Q-5974.174-3122.11-5981.72-3122.1Z" transform="translate(-39.225 -245.529)" fill="#b9dcf0"/>
      <path id="Trazado_190360" data-name="Trazado 190360" d="M-5867.395-3103.676h3.436l.006,4.636-3.427.02Z" transform="translate(-136.196 -263.937)" fill="#e8f3f7"/>
      <path id="Trazado_190361" data-name="Trazado 190361" d="M-5961.87-3332.677a2.426,2.426,0,0,1,.246-.971q2.641-6.324,5.27-12.652a2.118,2.118,0,0,1,2.024-1.561,2.093,2.093,0,0,1,2.04,1.533c1.754,4.243,3.532,8.477,5.291,12.718a2.093,2.093,0,0,1-1.027,2.932,1.983,1.983,0,0,1-2.654-1.14,1.238,1.238,0,0,0-1.459-.923c-1.555.057-3.113.047-4.668,0a.924.924,0,0,0-1.043.7,2.05,2.05,0,0,1-2.461,1.449A2.041,2.041,0,0,1-5961.87-3332.677Z" transform="translate(-59.063 -64.579)" fill="#e8f3f7"/>
      <path id="Trazado_190362" data-name="Trazado 190362" d="M-5867.59-3307.929c-.682-.013-1.363-.023-2.044-.04a2.117,2.117,0,0,1-2.213-2.1,2.068,2.068,0,0,1,2.213-2.013c.682-.014,1.362-.033,2.043-.049a.166.166,0,0,1,.007.069.891.891,0,0,1,.2.572c.021.981.023,1.962,0,2.943a.7.7,0,0,1-.21.559Z" transform="translate(-132.56 -93.746)" fill="#e8f3f7"/>
      <path id="Trazado_190363" data-name="Trazado 190363" d="M-5811.793-3334.662c1.674,0,3.206,0,4.738,0a2.094,2.094,0,0,1,2.273,2.044,2.094,2.094,0,0,1-2.256,2.07c-2.813.006-5.627,0-8.44,0a2.08,2.08,0,0,1-1.99-1.1,2.06,2.06,0,0,1,.2-2.259q3.089-4.615,6.158-9.245a.964.964,0,0,0,.292-.666c-1.6,0-3.191.018-4.784-.006a1.975,1.975,0,0,1-2.072-1.712,1.947,1.947,0,0,1,1.766-2.323c3.109-.046,6.222-.054,9.331,0a1.974,1.974,0,0,1,1.6,2.848,6.2,6.2,0,0,1-.5.82q-2.925,4.4-5.854,8.789C-5811.468-3335.189-5811.593-3334.979-5811.793-3334.662Z" transform="translate(-176.752 -64.555)" fill="#b9dcf0"/>
      <path id="Trazado_190364" data-name="Trazado 190364" d="M-5848.709-3307.837q.008-2.037.016-4.074c.775-.009,1.552-.059,2.324-.018a1.986,1.986,0,0,1,1.942,2.058,2.042,2.042,0,0,1-1.958,2.068C-5847.157-3307.764-5847.934-3307.822-5848.709-3307.837Z" transform="translate(-151.451 -93.901)" fill="#b9dcf0"/>
      <path id="Trazado_190365" data-name="Trazado 190365" d="M-5928.941-3303.945l1.5-3.621c.488,1.164.938,2.227,1.379,3.294.132.321-.091.328-.314.327C-5927.192-3303.946-5928.012-3303.945-5928.941-3303.945Z" transform="translate(-85.948 -97.476)" fill="#e95930"/>
    </g>
  </g>
</svg>
