<svg xmlns="http://www.w3.org/2000/svg" width="123" height="125" viewBox="0 0 123 125">
  <g id="Grupo_124547" data-name="Grupo 124547" transform="translate(-456 -1848)">
    <g id="Elipse_6004" data-name="Elipse 6004" transform="translate(456 1848)" fill="#fff" stroke="#242ca3" stroke-width="4">
      <ellipse cx="61.5" cy="62.5" rx="61.5" ry="62.5" stroke="none"/>
      <ellipse cx="61.5" cy="62.5" rx="59.5" ry="60.5" fill="none"/>
    </g>
    <g id="Grupo_124546" data-name="Grupo 124546" transform="translate(7071.246 2829.348)">
      <path id="Trazado_190227" data-name="Trazado 190227" d="M-6463.706-793.924c-.3,4.753-1.016,9.592-3.346,14.052a28.729,28.729,0,0,1-9.143,10.439.664.664,0,0,1-.917.006,28.022,28.022,0,0,1-11.953-19.4c-.257-1.717-.4-3.452-.61-5.176a.644.644,0,0,1,.459-.8c.928-.379,1.816-.86,2.751-1.222a22.811,22.811,0,0,0,9.13-6.365c.509-.585.833-.651,1.349-.014,3.074,3.8,7.375,5.7,11.724,7.53C-6463.925-794.731-6463.48-794.648-6463.706-793.924Z" transform="translate(-79.68 -122.476)" fill="#475c6e"/>
      <path id="Trazado_190228" data-name="Trazado 190228" d="M-6587.648-688c-1.113.008-2.228,0-3.34.034-.485.016-.589-.185-.586-.624.016-2.5-.024-5,.021-7.5a5.185,5.185,0,0,1,5.1-4.927c1.711-.025,3.423,0,5.171-.062a7.168,7.168,0,0,1-4.251-3.327,6.3,6.3,0,0,1-.4-5.42,6.573,6.573,0,0,1,6.821-4.221,6.583,6.583,0,0,1,5.787,5.931,6.731,6.731,0,0,1-5.194,7.092q2.41,0,4.818,0a5.237,5.237,0,0,1,5.612,5.585c0,2.228-.018,4.456.014,6.684.008.584-.113.829-.755.793-1.056-.06-2.118-.031-3.177-.04a1.443,1.443,0,0,1-.244-1.08c-.009-1.708,0-3.416,0-5.124a5.156,5.156,0,0,0-.013-.65c-.032-.258,0-.6-.387-.6s-.379.341-.383.6c-.033,1.9,0,3.8-.019,5.693A1.58,1.58,0,0,1-6573.3-688h-13.058a1.447,1.447,0,0,1-.244-1.08c-.009-1.708,0-3.416,0-5.124a5.346,5.346,0,0,0-.012-.65c-.033-.258,0-.6-.387-.6s-.379.341-.383.6c-.034,1.9,0,3.8-.02,5.693A1.571,1.571,0,0,1-6587.648-688Z" transform="translate(0 -191.887)" fill="#6b9dd4"/>
      <path id="Trazado_190229" data-name="Trazado 190229" d="M-6363.767-882.54q.013,8.875.034,17.749c0,.455-.187.532-.581.531-5.049-.01-10.1.006-15.146-.016a2.53,2.53,0,0,1-2.539-2.55c-.012-5.238.007-10.476.016-15.714a1.424,1.424,0,0,1,1.081-.252q8.027-.01,16.054,0A1.426,1.426,0,0,1-6363.767-882.54Z" transform="translate(-163.893 -59.958)" fill="#607b96"/>
      <path id="Trazado_190230" data-name="Trazado 190230" d="M-6363.816-900.338h-18.215c-.008-1.572-.006-3.145-.033-4.717-.007-.4.135-.5.515-.5,5.125.011,10.252,0,15.378.019a2.516,2.516,0,0,1,2.37,2.353C-6363.769-902.237-6363.809-901.287-6363.816-900.338Z" transform="translate(-163.844 -42.16)" fill="#475c6e"/>
      <path id="Trazado_190231" data-name="Trazado 190231" d="M-6573.6-622.435c0-2.36.007-4.72-.012-7.079,0-.49.083-.741.66-.741s.664.252.66.742c-.019,2.359-.011,4.719-.013,7.079Z" transform="translate(-14.045 -257.453)" fill="#5788c2"/>
      <path id="Trazado_190232" data-name="Trazado 190232" d="M-6507.758-622.435c0-2.36.007-4.72-.013-7.079,0-.49.085-.741.661-.741s.664.252.66.742c-.019,2.359-.012,4.719-.013,7.079Z" transform="translate(-65.537 -257.453)" fill="#5788c2"/>
      <path id="Trazado_190233" data-name="Trazado 190233" d="M-6292.228-946.568c-.444.667-.869,1.318-1.319,1.952-.034.047-.256,0-.367-.055a3.905,3.905,0,0,1-.552-.336c-.389-.269-1.195-.353-1.134-.755a7.885,7.885,0,0,1,.9-2.051c.075-.156.214-.142.344-.071.639.347,1.278.695,1.913,1.052C-6292.362-946.786-6292.315-946.679-6292.228-946.568Z" transform="translate(-231.458 -9.018)" fill="#9ab9df"/>
      <path id="Trazado_190234" data-name="Trazado 190234" d="M-6314.453-955.29c-.251.685-.486,1.377-.763,2.052-.087.213-.327.144-.51.091-.52-.15-1.037-.307-1.556-.46a.37.37,0,0,1-.271-.564c.314-.646-.058-1.754.765-1.936.647-.143,1.437.354,2.163.565A.223.223,0,0,1-6314.453-955.29Z" transform="translate(-214.252 -2.608)" fill="#9ab9df"/>
      <path id="Trazado_190235" data-name="Trazado 190235" d="M-6439.987-905.015c.551.362,1.213.783,1.856,1.23.128.089-.008.253-.068.364a5.118,5.118,0,0,1-.343.552c-.275.385-.341,1.2-.741,1.141a7.834,7.834,0,0,1-2.077-.886c-.142-.067-.139-.215-.064-.351.35-.643.7-1.286,1.051-1.927C-6440.322-904.985-6440.249-905.072-6439.987-905.015Z" transform="translate(-117.383 -42.569)" fill="#9ab9df"/>
      <path id="Trazado_190236" data-name="Trazado 190236" d="M-6256.912-914.13a.447.447,0,0,1-.248.484c-.5.324-1.005.629-1.5.954-.273.18-.423.08-.583-.165-.28-.428-.6-.831-.888-1.253-.125-.183-.38-.377-.044-.6.63-.419,1.165-1.445,1.839-1.2C-6257.7-915.673-6257.341-914.7-6256.912-914.13Z" transform="translate(-259.033 -34.035)" fill="#9ab9df"/>
      <path id="Trazado_190237" data-name="Trazado 190237" d="M-6236.3-845.178c-.016,1.885-.236,2.047-2.139,1.645-.469-.1-.763-.285-.535-.826a1.556,1.556,0,0,0,.051-.238c.114-.484-.266-1.234.221-1.421a4.382,4.382,0,0,1,2.158-.142C-6236.029-846.082-6236.416-845.469-6236.3-845.178Z" transform="translate(-275.686 -88.555)" fill="#9ab8df"/>
      <path id="Trazado_190238" data-name="Trazado 190238" d="M-6449.655-882.795c.658.25,1.318.5,1.975.75a.271.271,0,0,1,.162.338,14.615,14.615,0,0,1-.554,1.865c-.185.438-.616.121-.861.034-.55-.2-1.513.057-1.583-.608a6.376,6.376,0,0,1,.594-2.252C-6449.888-882.786-6449.782-882.819-6449.655-882.795Z" transform="translate(-110.305 -59.954)" fill="#9ab9df"/>
      <path id="Trazado_190239" data-name="Trazado 190239" d="M-6250.011-799.826c-.4.709-.775,1.393-1.158,2.074-.025.043-.1.105-.121.1a6.383,6.383,0,0,1-1.971-1.216c-.327-.291.1-.627.257-.917.231-.424.4-1.1.738-1.2.506-.152,1.014.377,1.52.616C-6250.482-800.248-6250.111-800.211-6250.011-799.826Z" transform="translate(-264.477 -123.913)" fill="#9ab9df"/>
      <path id="Trazado_190240" data-name="Trazado 190240" d="M-6281.872-763.363a1.836,1.836,0,0,1-.2.233c-.1.087-.223.153-.335.23-1.979,1.357-1.372,1.6-2.785-.6-.211-.328-.224-.568.143-.706.641-.242,1.02-1.281,1.8-.863.55.295.873,1.011,1.3,1.541A1.064,1.064,0,0,1-6281.872-763.363Z" transform="translate(-239.484 -151.946)" fill="#9ab9df"/>
      <path id="Trazado_190241" data-name="Trazado 190241" d="M-6304.126-753.512a.3.3,0,0,1,.348.19q.431.921.854,1.845c.094.206-.058.3-.206.37s-.3.125-.451.186c-1.922.771-2.068.691-2.523-1.369-.034-.153-.159-.331.054-.423C-6305.406-752.994-6304.751-753.254-6304.126-753.512Z" transform="translate(-223.194 -161.059)" fill="#9ab9df"/>
      <path id="Trazado_190242" data-name="Trazado 190242" d="M-6385.932-950.267a9.08,9.08,0,0,1-1.884.892c-.269.151-.455.076-.587-.2-.246-.513-.49-1.028-.76-1.529-.169-.315-.1-.508.22-.633.177-.068.353-.139.529-.208.522-.2,1.274-.763,1.531-.49A7.135,7.135,0,0,1-6385.932-950.267Z" transform="translate(-158.223 -5.441)" fill="#9ab9df"/>
      <path id="Trazado_190243" data-name="Trazado 190243" d="M-6408.547-937.5a1.356,1.356,0,0,1-.632-.579c-1.061-1.391-1.031-1.354.357-2.373.66-.484.989-.454,1.415.27.8,1.353.84,1.331-.453,2.26C-6408.073-937.774-6408.226-937.519-6408.547-937.5Z" transform="translate(-142.056 -14.612)" fill="#9ab9df"/>
      <path id="Trazado_190244" data-name="Trazado 190244" d="M-6240.538-821.884c-.2.668-.416,1.364-.628,2.06-.044.147-.131.238-.294.184-.64-.214-1.28-.425-1.915-.653a.364.364,0,0,1-.222-.469c.164-.6.174-1.36.558-1.745.541-.542,1.274.108,1.935.156C-6240.834-822.33-6240.545-822.3-6240.538-821.884Z" transform="translate(-272.116 -106.939)" fill="#9ab8df"/>
      <path id="Trazado_190245" data-name="Trazado 190245" d="M-6362.5-956.761c.015.792-.473,1.042-1.934,1.123-.472.026-.893-.886-.956-2.071-.021-.4,1.271-1.01,2.313-.783C-6362.146-958.29-6362.9-957.2-6362.5-956.761Z" transform="translate(-176.887 -0.724)" fill="#9ab8df"/>
      <path id="Trazado_190246" data-name="Trazado 190246" d="M-6272.368-932.167a9.661,9.661,0,0,0-.979.713c-1.014.992-1.007,1-2.086.166-.887-.683-.887-.683-.245-1.542,1.012-1.354,1.007-1.35,2.272-.133C-6273.154-932.721-6272.851-932.534-6272.368-932.167Z" transform="translate(-246.686 -20.025)" fill="#9ab8df"/>
      <path id="Trazado_190247" data-name="Trazado 190247" d="M-6451.288-833.693c.78-.021.981.335,1.089,1.918.029.429-1.016,1.122-2.048.909-1.086-.225-.528-1.494-.835-2.258C-6453.247-833.535-6453.022-833.448-6451.288-833.693Z" transform="translate(-108.272 -98.358)" fill="#9ab8df"/>
      <path id="Trazado_190248" data-name="Trazado 190248" d="M-6239.552-868.117c-.663.007-1.059-.863-1.043-2.005,0-.395,1.1-.881,2.046-.906.421-.011,1.049,1.3.807,2.293C-6237.976-867.77-6239.093-868.559-6239.552-868.117Z" transform="translate(-274.476 -69.161)" fill="#9ab8df"/>
      <path id="Trazado_190249" data-name="Trazado 190249" d="M-6328.148-744.844c-.036-.908.609-1.263,1.978-1.27.373,0,1.093,1.3.816,2.121-.313.926-1.51.776-2.221.71C-6328.455-743.364-6327.843-744.455-6328.148-744.844Z" transform="translate(-206.007 -166.848)" fill="#9ab8df"/>
      <path id="Trazado_190250" data-name="Trazado 190250" d="M-6349.544-743.092c-.022,1.456.255,1.305-1.275,1.292-1.35-.012-1.393-.066-1.326-1.376.018-.349.1-.694.147-1.041.025-.177.108-.354.3-.31a10.335,10.335,0,0,0,1.859.14c.25.012.3.194.3.4C-6349.543-743.688-6349.544-743.39-6349.544-743.092Z" transform="translate(-187.227 -168.084)" fill="#9ab8df"/>
      <path id="Trazado_190251" data-name="Trazado 190251" d="M-6245.969-894.964c.079.04.18.056.212.111a11.4,11.4,0,0,1,.927,2.244c.016.047-.113.171-.2.215a3.277,3.277,0,0,1-.457.17c-1.881.652-1.982.6-2.507-1.325-.045-.164-.111-.36.049-.445C-6247.3-894.332-6246.634-894.641-6245.969-894.964Z" transform="translate(-268.651 -50.443)" fill="#9ab9df"/>
      <path id="Trazado_190252" data-name="Trazado 190252" d="M-6424.677-923.218a7.548,7.548,0,0,1-1.531,1.789c-.335-.013-.484-.319-.712-.5-1.388-1.074-1.345-1.041-.168-2.354.584-.654.97-.642,1.464.023C-6425.34-923.871-6424.893-923.621-6424.677-923.218Z" transform="translate(-127.946 -27.14)" fill="#9ab8df"/>
      <path id="Trazado_190253" data-name="Trazado 190253" d="M-6452.659-855.379c-.216,0-.435-.017-.648,0-.46.047-.6-.148-.61-.6-.069-2.081.406-2.449,2.416-1.87.328.095.368.256.321.525a5.716,5.716,0,0,0-.107.636C-6451.368-855.385-6451.365-855.385-6452.659-855.379Z" transform="translate(-107.647 -79.277)" fill="#9ab8df"/>
      <path id="Trazado_190254" data-name="Trazado 190254" d="M-6340.229-958.248c.144-.42-.432-1.256.749-1.218,1.631.052,1.92.111,1.857.853-.057.66.212,1.752-.562,1.843C-6340.161-956.535-6340.22-956.691-6340.229-958.248Z" transform="translate(-196.547 0)" fill="#9ab8df"/>
      <path id="Trazado_190255" data-name="Trazado 190255" d="M-6264.028-779.973a2.659,2.659,0,0,1-.776,1.042c-.909.948-.912.947-1.841.016-.211-.211-.418-.425-.631-.633s-.14-.379.039-.555a4.231,4.231,0,0,0,.334-.354c.317-.393.622-1.1,1.05-1.008a4.177,4.177,0,0,1,1.722,1.292A.683.683,0,0,1-6264.028-779.973Z" transform="translate(-253.511 -139.196)" fill="#9ab8df"/>
      <path id="Trazado_190256" data-name="Trazado 190256" d="M-6452.743-742.066a1.415,1.415,0,0,1-1-.481c-1.132-1.133-2.256-2.276-3.4-3.392-.333-.324-.311-.528,0-.861,1.388-1.484,1.367-1.484,2.82-.062.513.5.967,1.426,1.58,1.361.521-.056.961-.943,1.42-1.476,1.7-1.974,3.4-3.945,5.077-5.941.3-.362.505-.436.816-.07a2.6,2.6,0,0,0,.3.274c1.283,1.09,1.265,1.073.141,2.369q-3.226,3.722-6.411,7.478A1.682,1.682,0,0,1-6452.743-742.066Z" transform="translate(-104.938 -161.284)" fill="#99b8de"/>
      <path id="Trazado_190257" data-name="Trazado 190257" d="M-6362.056-859.085c.187-1.175.31-2.2.525-3.2a.956.956,0,0,0-.307-1c-.709-.691-1.4-1.405-2.214-2.234,1.042-.159,1.885-.3,2.732-.41a1.305,1.305,0,0,0,1.223-.874c.33-.856.771-1.669,1.251-2.684.467.974.916,1.791,1.25,2.652a1.357,1.357,0,0,0,1.285.91c.827.095,1.649.239,2.7.4-.773.785-1.415,1.459-2.083,2.1a1.159,1.159,0,0,0-.427,1.269c.242.961.323,1.963.488,3.057-.916-.5-1.761-.927-2.567-1.418a1.02,1.02,0,0,0-1.246-.019C-6360.243-860.029-6361.1-859.611-6362.056-859.085Z" transform="translate(-177.929 -70.366)" fill="#e86876"/>
    </g>
  </g>
</svg>
