<svg xmlns="http://www.w3.org/2000/svg" width="124" height="125" viewBox="0 0 124 125">
  <g id="Grupo_124550" data-name="Grupo 124550" transform="translate(-738 -1848)">
    <g id="Elipse_6005" data-name="Elipse 6005" transform="translate(738 1848)" fill="#fff" stroke="#242ca3" stroke-width="4">
      <ellipse cx="62" cy="62.5" rx="62" ry="62.5" stroke="none"/>
      <ellipse cx="62" cy="62.5" rx="60" ry="60.5" fill="none"/>
    </g>
    <g id="Grupo_124549" data-name="Grupo 124549" transform="translate(7599.017 3194.17)">
      <path id="Trazado_190258" data-name="Trazado 190258" d="M-6811.687-1182.185l12.68.042a1.406,1.406,0,0,1,.271,1.075q.013,7.156,0,14.312c0,1.23-.2,1.411-1.442,1.424-1.521.017-3.044,0-4.566.007a1.428,1.428,0,0,1-.77-.121c-.308-.264-.675-.127-1.011-.127-11.387-.008-22.774-.028-34.161.017a3.243,3.243,0,0,1-3.429-1.992v-12.509c.157-.223.063-.508.182-.741a2.71,2.71,0,0,1,2.677-1.625c1.518-.061,3.039-.02,4.559-.018,3.01,0,6.02-.02,9.03.011,5-.055,9.991-.016,14.986-.02A1.489,1.489,0,0,1-6811.687-1182.185Z" transform="translate(0 -104.847)" fill="#005d93"/>
      <path id="Trazado_190259" data-name="Trazado 190259" d="M-6827.749-1226.688c-4.34.008-8.681.046-13.02.007a3.272,3.272,0,0,0-3.164,1.62c-.178-.142-.007-.4-.184-.546v-.7c.551-1.222.63-2.583,1.179-3.814,2.668-6,7.222-9.4,13.761-10.12a4.559,4.559,0,0,0,.587-.141.875.875,0,0,1,.719-.258c.415.005.854-.093,1.191.262.013.042.023.084.034.127a1.585,1.585,0,0,0-.82,1.67c.027,3.521.017,7.042.009,10.562A1.744,1.744,0,0,1-6827.749-1226.688Z" transform="translate(0 -60.355)" fill="#41b9e3"/>
      <path id="Trazado_190260" data-name="Trazado 190260" d="M-6844.116-1176.745c.22.129.165.35.184.546-.01.189,0,.385-.184.511Z" transform="translate(0 -109.216)" fill="#69c0e3"/>
      <path id="Trazado_190261" data-name="Trazado 190261" d="M-6741.18-1165.445a8.828,8.828,0,0,1,2.694-.144c.994-.035,1.991-.047,2.984.006.666.036.838-.194.836-.844-.022-5.238-.01-10.477-.008-15.715q5.836-.014,11.671-.029c.351,0,.7-.018,1.052-.028a1.881,1.881,0,0,1,1.007-.25c5.028.008,10.058-.035,15.085.02q6.716-.036,13.433,0c1.7.009,2.486.65,2.822,2.153l-.009.392c-.374.24-.222.475,0,.71,0,3.784.009,7.567-.014,11.35a1.74,1.74,0,0,1-.653,1.352.847.847,0,0,0-1.056.71,3.24,3.24,0,0,1-1.625.215q-17.111,0-34.221.009c-.309,0-.642-.117-.932.1a1.476,1.476,0,0,1-1.158.283c-1.317.014-2.635,0-3.953.007-1.119.006-1.174.057-1.176,1.208q-.007,9.751-.008,19.5c0,.514.121,1.064-.269,1.515q-11.257.011-22.515.016a2.565,2.565,0,0,1-2.566-1.652,2.674,2.674,0,0,1,.78-3.1Q-6750.065-1156.545-6741.18-1165.445Z" transform="translate(-64.336 -104.848)" fill="#092d59"/>
      <path id="Trazado_190262" data-name="Trazado 190262" d="M-6652.594-1087.742c0-7.21,0-14.421-.021-21.631,0-.664.139-.929.869-.909,1.9.054,3.81.022,5.715.024q8.836,8.837,17.67,17.675c1.412,1.414,1.461,3.054.145,4.213a2.38,2.38,0,0,1-1.585.656Q-6641.2-1087.719-6652.594-1087.742Z" transform="translate(-146.412 -160.03)" fill="#11152e"/>
      <path id="Trazado_190263" data-name="Trazado 190263" d="M-6582.364-1226.159l-16.138,0a16.107,16.107,0,0,1,11.306-12.9c1.063-.359,2.186-.536,3.28-.8a.4.4,0,0,1,.275-.1,3.657,3.657,0,0,1,1.215.16,1.248,1.248,0,0,1,.363,1.125q.021,5.721,0,11.443A1.329,1.329,0,0,1-6582.364-1226.159Z" transform="translate(-187.785 -60.89)" fill="#fd0"/>
      <path id="Trazado_190264" data-name="Trazado 190264" d="M-6531.09-1226.659q.006-6.382.007-12.765c0-.3.13-.677-.329-.8a.174.174,0,0,1,.07-.247.881.881,0,0,1,.274-.1c.435-.016.892-.148,1.255.229a22.593,22.593,0,0,1,4.876,1.249,16.092,16.092,0,0,1,9.928,12.791,5.4,5.4,0,0,1,.129,1.568,3.018,3.018,0,0,0-3.187-1.912C-6522.408-1226.6-6526.75-1226.649-6531.09-1226.659Z" transform="translate(-239.059 -60.39)" fill="#fa9b34"/>
      <path id="Trazado_190265" data-name="Trazado 190265" d="M-6774.64-1225.467c0-4.152.04-8.3-.012-12.455-.011-.905.259-1.225,1.115-1.114a16.229,16.229,0,0,1,14.761,12.724c.057.287.13.57.2.855Z" transform="translate(-53.109 -61.576)" fill="#2690d1"/>
      <path id="Trazado_190266" data-name="Trazado 190266" d="M-6530.095-1300.69l-1.42-.058a1.369,1.369,0,0,1-.283-1.074q-.013-8.277,0-16.553c0-.43-.041-.9.448-1.157,5.041-.2,9.511,4.39,9.368,9.613A9.443,9.443,0,0,1-6530.095-1300.69Z" transform="translate(-238.778 -0.044)" fill="#500e18"/>
      <path id="Trazado_190267" data-name="Trazado 190267" d="M-6774.974-1300.738l-1.212-.038a1.4,1.4,0,0,1-.3-1.07q-.01-8.3,0-16.6c0-.433-.023-.9.459-1.151,4.673-.023,9.046,3.946,9.325,8.462C-6766.361-1305.722-6769.876-1301.308-6774.974-1300.738Z" transform="translate(-51.705 0)" fill="#f2a7af"/>
      <path id="Trazado_190268" data-name="Trazado 190268" d="M-6560.855-1319.512a1.872,1.872,0,0,0-.162,1.111q-.006,8.836,0,17.673l-.181.063a2.057,2.057,0,0,1-1.082-.016l-.073-.02-.073.018a9.559,9.559,0,0,1-6.866-4.991A9.442,9.442,0,0,1-6560.855-1319.512Z" transform="translate(-209.27 -0.064)" fill="#84271d"/>
      <path id="Trazado_190269" data-name="Trazado 190269" d="M-6805.406-1319.6a1.431,1.431,0,0,0-.181.841q.01,8.989.013,17.978l-.7.034a9.455,9.455,0,0,1-8.473-7.423,9.423,9.423,0,0,1,4.875-10.339A9.151,9.151,0,0,1-6805.406-1319.6Z" transform="translate(-22.319 0)" fill="#fad3ce"/>
      <path id="Trazado_190270" data-name="Trazado 190270" d="M-6468.9-1114.591c.033-.265-.34-.575.023-.785a.806.806,0,0,1,1.033.075A1.488,1.488,0,0,1-6468.9-1114.591Z" transform="translate(-286.771 -156.021)" fill="#082d59"/>
      <path id="Trazado_190271" data-name="Trazado 190271" d="M-6462.763-1171.183c-.424.035-.543-.2-.49-.57.057-.4.284-.229.485-.141C-6462.766-1171.657-6462.765-1171.42-6462.763-1171.183Z" transform="translate(-291.181 -112.84)" fill="#082d59"/>
      <path id="Trazado_190272" data-name="Trazado 190272" d="M-6535.933-1239.532l1.081.016c0,.039,0,.078,0,.117C-6535.213-1239.43-6535.605-1239.217-6535.933-1239.532Z" transform="translate(-235.622 -61.213)" fill="#f1ca7c"/>
    </g>
  </g>
</svg>
