<svg xmlns="http://www.w3.org/2000/svg" width="125" height="125" viewBox="0 0 125 125">
  <g id="Grupo_124553" data-name="Grupo 124553" transform="translate(-1021 -1848)">
    <g id="Elipse_6006" data-name="Elipse 6006" transform="translate(1021 1848)" fill="#fff" stroke="#242ca3" stroke-width="4">
      <circle cx="62.5" cy="62.5" r="62.5" stroke="none"/>
      <circle cx="62.5" cy="62.5" r="60.5" fill="none"/>
    </g>
    <g id="Grupo_124552" data-name="Grupo 124552" transform="translate(8009.076 2770.654)">
      <path id="Trazado_190273" data-name="Trazado 190273" d="M-6950.054-622.6c-5.114,0-10.228,0-15.341.025a1.879,1.879,0,0,1-1.68-1.156v-9.4a21.356,21.356,0,0,1,1.226-2.675,7.081,7.081,0,0,1,5.828-3.171c.188-.006.375-.019.562-.029.412-.186.749.086,1.114.183a7.692,7.692,0,0,0,3.474.064,7.413,7.413,0,0,1,5.034,6.677c.059,2.882.017,5.766.012,8.648A1.159,1.159,0,0,1-6950.054-622.6Z" transform="translate(0 -206.729)" fill="#61c2e7"/>
      <path id="Trazado_190274" data-name="Trazado 190274" d="M-6759.468-623.054c-5.114,0-10.229,0-15.343.025a1.885,1.885,0,0,1-1.681-1.155.942.942,0,0,1-.243-.747c.007-2.644-.076-5.289.039-7.932.03-.229.138-.441.147-.675a7.385,7.385,0,0,1,4.841-5.735,6.818,6.818,0,0,1,2.773-.357,4.857,4.857,0,0,1,1.149.338,4.953,4.953,0,0,0,2.617.154,2.059,2.059,0,0,1,.878-.078,7.412,7.412,0,0,1,5.037,6.676c.059,2.882.017,5.767.012,8.65A1.159,1.159,0,0,1-6759.468-623.054Z" transform="translate(-149.087 -206.274)" fill="#61c2e7"/>
      <path id="Trazado_190275" data-name="Trazado 190275" d="M-6663.716-623.061q-7.693.008-15.387.013a1.372,1.372,0,0,1-1.489-1.1,1.053,1.053,0,0,1-.372-.858,73.98,73.98,0,0,1,.13-8.033c.306-3.1,2.112-5.039,4.863-6.238a7.116,7.116,0,0,1,2.791-.37,3.566,3.566,0,0,1,1.158.321,4.751,4.751,0,0,0,2.771.148,1.615,1.615,0,0,1,.877-.043,7.5,7.5,0,0,1,4.89,7.394q0,3.8,0,7.606A1.611,1.611,0,0,1-6663.716-623.061Z" transform="translate(-224.09 -206.267)" fill="#1db2ec"/>
      <path id="Trazado_190276" data-name="Trazado 190276" d="M-6855.266-623.061q-7.693.008-15.387.013a1.372,1.372,0,0,1-1.489-1.1,1.05,1.05,0,0,1-.372-.858,73.979,73.979,0,0,1,.129-8.033c.307-3.1,2.112-5.039,4.864-6.238a7.115,7.115,0,0,1,2.79-.37,3.571,3.571,0,0,1,1.159.321,4.753,4.753,0,0,0,2.772.148,1.61,1.61,0,0,1,.875-.043,7.5,7.5,0,0,1,4.89,7.393q0,3.8,0,7.606A1.616,1.616,0,0,1-6855.266-623.061Z" transform="translate(-74.039 -206.267)" fill="#1db2ec"/>
      <path id="Trazado_190277" data-name="Trazado 190277" d="M-6894.293-690.188a7.288,7.288,0,0,0-4.457,4.947,6.4,6.4,0,0,0-.115.789c-.53.033-.459-.412-.554-.711a7.011,7.011,0,0,0-5.576-5.146c-.549-.113-1.143.1-1.654-.245-.032-.378.292-.489.515-.658a5.427,5.427,0,0,0,2.375-4.874,11.255,11.255,0,0,1,0-1.458,5.627,5.627,0,0,0-2.489-5.151c-.186-.141-.444-.232-.427-.538a7,7,0,0,1,4.895-1.659c.411-.173.747.09,1.111.19a13.909,13.909,0,0,0,2.376.359,7.07,7.07,0,0,1,3.716,4,6.881,6.881,0,0,1,.414,1.04,24.511,24.511,0,0,0,.151,5.521,22.76,22.76,0,0,0-.047,2.5A1.889,1.889,0,0,1-6894.293-690.188Z" transform="translate(-47.315 -155.125)" fill="#a1bd2c"/>
      <path id="Trazado_190278" data-name="Trazado 190278" d="M-6813.542-839.963a7.315,7.315,0,0,1,4.177-2.01c.685.021,1.369-.285,2.055-.011a6.347,6.347,0,0,0,2.594.42,7.387,7.387,0,0,1,4.28,5.649,23.941,23.941,0,0,0,.115,5.633c-.144,1.182.067,2.375-.111,3.556-.1.348-.393.481-.685.612-.657.293-1.164.833-1.83,1.112a7.736,7.736,0,0,0-4.055-.1,1.215,1.215,0,0,1-.755.1,7.8,7.8,0,0,0-4.646-1.844.6.6,0,0,1-.367-.152c-.057-.415.3-.537.539-.728a5.442,5.442,0,0,0,2.176-4.484c-.01-.7-.021-1.4,0-2.1a5.447,5.447,0,0,0-2.842-5.017C-6813.15-839.492-6813.527-839.548-6813.542-839.963Z" transform="translate(-120.271 -47.687)" fill="#e1354a"/>
      <path id="Trazado_190279" data-name="Trazado 190279" d="M-6860.178-770.919a6.915,6.915,0,0,1,5.057-1.934c.45-.243.813.089,1.212.181a9.453,9.453,0,0,0,2.258.316,7.419,7.419,0,0,1,4.294,5.524,22.479,22.479,0,0,0,.127,5.327c-.133,1.193.054,2.394-.094,3.586a5.019,5.019,0,0,1-2.326,1.462,4.678,4.678,0,0,1-1.322-.293,5.1,5.1,0,0,0-2.764.073,4.122,4.122,0,0,1-1.108.271,8.92,8.92,0,0,1-1.389-.789,5.972,5.972,0,0,0-2.447-.7c-.33-.017-.719.075-.9-.345,0-.385.318-.546.558-.748a5.359,5.359,0,0,0,2.063-4.62,15.434,15.434,0,0,1,0-1.7,5.48,5.48,0,0,0-2.468-4.908C-6859.7-770.419-6860.057-770.548-6860.178-770.919Z" transform="translate(-83.739 -101.863)" fill="#ffc984"/>
      <path id="Trazado_190280" data-name="Trazado 190280" d="M-6798.837-888.626a6.125,6.125,0,0,0-2.1-.2c.285-.267.672-.041,1.049-.23a5.4,5.4,0,0,1-2.706-3.932c-.234-2.415-.572-4.9,1.186-7.011a6.268,6.268,0,0,1,2.922-1.911,5.821,5.821,0,0,1,3.931,5.633c0,.754.014,1.508,0,2.262a5.838,5.838,0,0,1-2.917,5.087A1.432,1.432,0,0,1-6798.837-888.626Z" transform="translate(-128.693 -0.834)" fill="#f8c1b3"/>
      <path id="Trazado_190281" data-name="Trazado 190281" d="M-6894.271-751.57l-1-.337a6.041,6.041,0,0,1-3.079-5.818,10.746,10.746,0,0,1,.38-3.669,6.075,6.075,0,0,1,4.014-3.574,12.089,12.089,0,0,1,2.139,1.567,5.64,5.64,0,0,1,1.634,4.006c0,.835.02,1.671,0,2.505a5.9,5.9,0,0,1-3.156,5.114A1.462,1.462,0,0,1-6894.271-751.57Z" transform="translate(-53.824 -108.109)" fill="#f8c1b3"/>
      <path id="Trazado_190282" data-name="Trazado 190282" d="M-6942.4-685.717l-1-.326a5.589,5.589,0,0,1-2.948-4.024c-.249-2.212-.587-4.519.807-6.556a6.152,6.152,0,0,1,3.447-2.492,12.011,12.011,0,0,1,2.139,1.566,5.64,5.64,0,0,1,1.634,4c0,.835.019,1.67,0,2.5a5.9,5.9,0,0,1-3.152,5.114A1.461,1.461,0,0,1-6942.4-685.717Z" transform="translate(-16.061 -159.694)" fill="#f8c1b3"/>
      <path id="Trazado_190283" data-name="Trazado 190283" d="M-6846.5-818.986l-1.127-.331c-.514-.544-1.161-.938-1.642-1.528a5.243,5.243,0,0,1-1.283-3.4,16.231,16.231,0,0,1,.091-3.627,5.745,5.745,0,0,1,3.985-4.385,4.354,4.354,0,0,1,2.866,1.932,5.623,5.623,0,0,1,1.219,3.69c-.033.672-.018,1.348,0,2.022a5.935,5.935,0,0,1-2.824,5.236A1.818,1.818,0,0,1-6846.5-818.986Z" transform="translate(-91.235 -55.399)" fill="#f8c1b3"/>
      <path id="Trazado_190284" data-name="Trazado 190284" d="M-6754.449-822.615a15.868,15.868,0,0,1-.139-5.861,5.149,5.149,0,0,1,3.555-3.873l.368.02a4.29,4.29,0,0,1,2.813,1.86,5.671,5.671,0,0,1,1.272,3.742c-.036.859.013,1.721-.013,2.582a5.864,5.864,0,0,1-4.03,5.217,2.928,2.928,0,0,1-1.195-.342,7.005,7.005,0,0,1-2.292-2.228A1.518,1.518,0,0,1-6754.449-822.615Z" transform="translate(-166.293 -55.325)" fill="#f8c1b3"/>
      <path id="Trazado_190285" data-name="Trazado 190285" d="M-6655.712-685.732l-.97-.318a4.023,4.023,0,0,1-2.341-1.972,6.649,6.649,0,0,1-.687-1.369,13.985,13.985,0,0,1-.163-5.389,6.143,6.143,0,0,1,3.223-4.023c.494.193.793-.372,1.25-.323a12.006,12.006,0,0,1,2.14,1.566,5.637,5.637,0,0,1,1.633,4c0,.808.009,1.616,0,2.424a5.922,5.922,0,0,1-3.012,5.12A2.175,2.175,0,0,1-6655.712-685.732Z" transform="translate(-240.507 -159.683)" fill="#f8c1b3"/>
      <path id="Trazado_190286" data-name="Trazado 190286" d="M-6704.261-764.829c.368.224.634-.2.974-.152a14.025,14.025,0,0,1,2.023,1.449,5.673,5.673,0,0,1,1.751,4.2c-.006.861.01,1.722,0,2.582a5.866,5.866,0,0,1-4.04,5.3,2.049,2.049,0,0,1-1.073-.3,6.435,6.435,0,0,1-2.967-3.484,13.967,13.967,0,0,1-.164-5.388A6.364,6.364,0,0,1-6704.261-764.829Z" transform="translate(-202.994 -108.094)" fill="#f8c1b3"/>
      <path id="Trazado_190287" data-name="Trazado 190287" d="M-6710.654-633.259c-.267,2.49-.1,4.989-.146,7.484a5.651,5.651,0,0,0,.146,1.675c-.974,1.494-2.478,1.1-3.874,1.086,0-2.833-.026-5.667.006-8.5a7.431,7.431,0,0,0-4.865-7.514,1.291,1.291,0,0,1,.973-.546,7.287,7.287,0,0,1,7.466,4.992C-6710.786-634.145-6710.912-633.663-6710.654-633.259Z" transform="translate(-194.028 -206.314)" fill="#37b7e4"/>
      <path id="Trazado_190288" data-name="Trazado 190288" d="M-6909.939-639.011c3.9.242,6.332,1.983,7.326,5.194.1.329-.053.8.411.982-.271,2.491-.1,4.991-.146,7.487a5.671,5.671,0,0,0,.146,1.675c-.974,1.494-2.477,1.1-3.873,1.086,0-2.833-.026-5.666.006-8.5a7.431,7.431,0,0,0-4.865-7.514A.831.831,0,0,1-6909.939-639.011Z" transform="translate(-43.978 -206.742)" fill="#37b7e4"/>
      <path id="Trazado_190289" data-name="Trazado 190289" d="M-6618.191-622.6c0-2.853-.032-5.706.007-8.558a7.359,7.359,0,0,0-4.386-7.249,2.6,2.6,0,0,1-.325-.228.617.617,0,0,1,.837-.388,7.139,7.139,0,0,1,6.584,3.517,6.574,6.574,0,0,1,1.011,3.528c0,2.538,0,5.077,0,7.615a1.574,1.574,0,0,1-1.785,1.792C-6616.9-622.558-6617.544-622.586-6618.191-622.6Z" transform="translate(-269.614 -206.732)" fill="#1898d9"/>
      <path id="Trazado_190290" data-name="Trazado 190290" d="M-6809.741-623.017c0-2.853-.031-5.706.008-8.558a7.359,7.359,0,0,0-4.386-7.249,2.557,2.557,0,0,1-.325-.228c.144-.389.489-.455.833-.525a7.247,7.247,0,0,1,7.438,5,1.916,1.916,0,0,1,.158.782,5.9,5.9,0,0,1,0,.732v8.919a1.8,1.8,0,0,1-1.97,1.168C-6808.567-623.018-6809.154-623.006-6809.741-623.017Z" transform="translate(-119.564 -206.312)" fill="#1898d9"/>
      <path id="Trazado_190291" data-name="Trazado 190291" d="M-6831.634-820.062a5.865,5.865,0,0,0,3.9-5.88,20.624,20.624,0,0,0-.127-3.138,6.2,6.2,0,0,0-3.744-4.251,6.709,6.709,0,0,1,3.895,0,7.543,7.543,0,0,1,2.806,2.366,5.2,5.2,0,0,1,.9,2.883,19.481,19.481,0,0,1-.084,3.715,6.174,6.174,0,0,1-2.839,3.958,2.4,2.4,0,0,1-2.258.671A5.11,5.11,0,0,1-6831.634-820.062Z" transform="translate(-106.098 -54.323)" fill="#f39d8f"/>
      <path id="Trazado_190292" data-name="Trazado 190292" d="M-6735.908-820.041a5.866,5.866,0,0,0,3.906-5.878,20.713,20.713,0,0,0-.126-3.14,6.193,6.193,0,0,0-3.745-4.255,5.815,5.815,0,0,1,7.6,5.269,17.721,17.721,0,0,1-.085,3.705,6.3,6.3,0,0,1-2.835,3.948,3.771,3.771,0,0,1-2.352.89,6.879,6.879,0,0,1-1.608-.062C-6735.453-819.63-6735.824-819.624-6735.908-820.041Z" transform="translate(-181.085 -54.339)" fill="#f39d8f"/>
      <path id="Trazado_190293" data-name="Trazado 190293" d="M-6687.959-752.1a5.87,5.87,0,0,0,3.894-5.877c-.109-1.327.16-2.67-.39-3.979a6.316,6.316,0,0,0-2.762-3.037c-.18-.107-.624-.054-.418-.5,3.4-.667,6.425,1,7.1,4.286.467,2.279.676,4.713-.778,6.861a8.834,8.834,0,0,1-1.97,1.885c-.552.715-1.422.66-2.171.9a4.7,4.7,0,0,1-1.9-.109C-6687.611-751.725-6687.885-751.773-6687.959-752.1Z" transform="translate(-218.646 -107.584)" fill="#f39d8f"/>
      <path id="Trazado_190294" data-name="Trazado 190294" d="M-6879.462-752.244a5.789,5.789,0,0,0,3.876-5.963,10.714,10.714,0,0,0-.383-3.9,6.321,6.321,0,0,0-2.762-3.035c-.179-.107-.623-.055-.417-.5a6.335,6.335,0,0,1,3.864.294,5.858,5.858,0,0,1,3.437,5.724c-.047.969.054,1.951-.067,2.907a5.536,5.536,0,0,1-2.311,3.661c-.147.116-.325.19-.4.378a2.676,2.676,0,0,1-2.277.759A5.4,5.4,0,0,1-6879.462-752.244Z" transform="translate(-68.632 -107.434)" fill="#f39d8f"/>
      <path id="Trazado_190295" data-name="Trazado 190295" d="M-6784.545-889.46a4.86,4.86,0,0,0,3.616-3.253,10.186,10.186,0,0,0,.011-6.647,5.216,5.216,0,0,0-2.722-2.954c-.209-.11-.465-.168-.558-.432a5.828,5.828,0,0,1,7.458,5.519c.01.512-.025,1.026.011,1.535a6.063,6.063,0,0,1-2.933,5.883,2.065,2.065,0,0,1-2.26.7A4.383,4.383,0,0,1-6784.545-889.46Z" transform="translate(-142.986)" fill="#f39d8f"/>
      <path id="Trazado_190296" data-name="Trazado 190296" d="M-6635.469-686.732l-.837.388a5.734,5.734,0,0,1-3.71-.051,5.781,5.781,0,0,0,3.874-5.962,10.7,10.7,0,0,0-.382-3.9,6.321,6.321,0,0,0-2.761-3.034c-.18-.106-.623-.054-.418-.5a5.779,5.779,0,0,1,7.121,4.3c.369,2.283.654,4.67-.772,6.8A6.947,6.947,0,0,1-6635.469-686.732Z" transform="translate(-256.202 -159.02)" fill="#f39d8f"/>
      <path id="Trazado_190297" data-name="Trazado 190297" d="M-6922.779-686.738l-1,.412a5.341,5.341,0,0,1-3.551-.069,5.467,5.467,0,0,0,3.744-4.367c.268-2.2.588-4.521-.818-6.557a6.371,6.371,0,0,0-2.2-1.974c-.181-.1-.624-.053-.419-.5a6.15,6.15,0,0,1,4.166.453C-6918.5-697.426-6918.527-688.653-6922.779-686.738Z" transform="translate(-31.139 -159.015)" fill="#f39d8f"/>
      <path id="Trazado_190298" data-name="Trazado 190298" d="M-6772.444-841.5a5.876,5.876,0,0,0,2.26-.7,7.887,7.887,0,0,1,5.323,2.134c-.048.18-.205.236-.351.3a6.375,6.375,0,0,0-3.2,3.572,8.312,8.312,0,0,0-2.417-4.145A15.469,15.469,0,0,1-6772.444-841.5Z" transform="translate(-152.465 -47.608)" fill="#de1f34"/>
      <path id="Trazado_190299" data-name="Trazado 190299" d="M-6724.592-771.928a11.238,11.238,0,0,0,2.256-.684,7.46,7.46,0,0,1,5.028,1.808c.006.189-.11.273-.265.354a6.124,6.124,0,0,0-3,3.677c-.355,0-.324-.311-.394-.515a7.434,7.434,0,0,0-3.2-4.127C-6724.351-771.531-6724.63-771.605-6724.592-771.928Z" transform="translate(-189.947 -102.12)" fill="#f4831c"/>
      <path id="Trazado_190300" data-name="Trazado 190300" d="M-6676.154-704.125l2.112-.689a7.807,7.807,0,0,1,4.771,1.557.433.433,0,0,1-.224.315,6.152,6.152,0,0,0-2.766,3.552c-.416.039-.465-.306-.562-.568a6.92,6.92,0,0,0-2.832-3.53C-6675.879-703.63-6676.23-703.726-6676.154-704.125Z" transform="translate(-227.885 -155.229)" fill="#8bb328"/>
      <path id="Trazado_190301" data-name="Trazado 190301" d="M-6622.046-749.493c.068.537-.777.829-.725,1.312.049.449.746.744.721,1.368a1.21,1.21,0,0,1-.681,1.109,1.083,1.083,0,0,1-1.288-.115,18,18,0,0,1-1.657-1.656,1.1,1.1,0,0,1,.051-1.548c.49-.538,1.009-1.051,1.546-1.542a1.112,1.112,0,0,1,1.351-.161A1.268,1.268,0,0,1-6622.046-749.493Z" transform="translate(-267.204 -119.141)" fill="#20897a"/>
      <path id="Trazado_190302" data-name="Trazado 190302" d="M-6942.078-750.827a1.285,1.285,0,0,1,.962.377c.464.452.935.9,1.371,1.376a1.2,1.2,0,0,1,.007,1.8c-.435.478-.9.937-1.375,1.372a1.205,1.205,0,0,1-1.746.036,1.216,1.216,0,0,1,.008-1.8c.4-.394.42-.627,0-1.006a1.159,1.159,0,0,1-.252-1.477A1.174,1.174,0,0,1-6942.078-750.827Z" transform="translate(-18.66 -119.185)" fill="#20897a"/>
      <path id="Trazado_190303" data-name="Trazado 190303" d="M-6667.517-814.8a1.214,1.214,0,0,1-.5.985c-.325.284-.271.472.012.768a1.276,1.276,0,0,1,.1,1.917,1.294,1.294,0,0,1-1.873-.165c-.43-.408-.859-.819-1.25-1.263a1.191,1.191,0,0,1,.031-1.8c.458-.493.943-.961,1.433-1.422a1.155,1.155,0,0,1,1.352-.188A1.173,1.173,0,0,1-6667.517-814.8Z" transform="translate(-231.604 -68.048)" fill="#20897a"/>
      <path id="Trazado_190304" data-name="Trazado 190304" d="M-6896.421-810.774a1.233,1.233,0,0,1-1.182-.714,1.128,1.128,0,0,1,.2-1.348c.428-.394.535-.667.048-1.135a1.19,1.19,0,0,1-.009-1.734,1.243,1.243,0,0,1,1.8.041c.473.441.926.9,1.367,1.375a1.086,1.086,0,0,1,.213,1.405,7.981,7.981,0,0,1-1.914,1.945A1.436,1.436,0,0,1-6896.421-810.774Z" transform="translate(-54.317 -68.075)" fill="#20897a"/>
      <path id="Trazado_190305" data-name="Trazado 190305" d="M-6714.322-884.1a1.181,1.181,0,0,1,1.184.677,1.165,1.165,0,0,1-.218,1.419c-.4.381-.526.627-.038,1.074a1.177,1.177,0,0,1,.049,1.733,1.221,1.221,0,0,1-1.8-.01c-.476-.437-.925-.9-1.372-1.37a1.115,1.115,0,0,1-.206-1.475,9.187,9.187,0,0,1,1.866-1.885A.783.783,0,0,1-6714.322-884.1Z" transform="translate(-195.961 -14.784)" fill="#1f897a"/>
      <path id="Trazado_190306" data-name="Trazado 190306" d="M-6851.068-884.1a1.145,1.145,0,0,1,.882.336c.482.47.979.928,1.426,1.43a1.192,1.192,0,0,1,0,1.743,19.74,19.74,0,0,1-1.429,1.427,1.21,1.21,0,0,1-1.741-.02,1.165,1.165,0,0,1,.024-1.731c.442-.423.443-.676-.007-1.074a1.15,1.15,0,0,1-.245-1.413A1.151,1.151,0,0,1-6851.068-884.1Z" transform="translate(-89.907 -14.783)" fill="#1f897a"/>
      <path id="Trazado_190307" data-name="Trazado 190307" d="M-6803.71-685.327a7.073,7.073,0,0,0-6.824-5.682c-.215,0-.431-.016-.646-.023.012-.36.327-.467.549-.642a5.517,5.517,0,0,0,2.324-4.8,15.178,15.178,0,0,1,0-1.612,5.6,5.6,0,0,0-2.566-5.082c-.2-.151-.5-.244-.431-.6l2.076-1.167a4.144,4.144,0,0,1,2.819-.546,3.2,3.2,0,0,1,1.152.314,6.423,6.423,0,0,0,2.571.3,4.973,4.973,0,0,0,.52.471,7.452,7.452,0,0,1,3.438,4.855,24.121,24.121,0,0,0,.165,5.334,22.926,22.926,0,0,0-.048,2.484,1.687,1.687,0,0,1-.244,1.073,7.721,7.721,0,0,0-3.987,3.714,6.318,6.318,0,0,0-.571,1.761C-6803.591-685.07-6803.632-685.235-6803.71-685.327Z" transform="translate(-122.015 -154.699)" fill="#49ad98"/>
      <path id="Trazado_190308" data-name="Trazado 190308" d="M-6754.395-689.24a15.245,15.245,0,0,1-.179-5.531,3.714,3.714,0,0,1,1.152-2.577,5.261,5.261,0,0,1,1.889-1.491,1.494,1.494,0,0,1,1.092-.24,5.965,5.965,0,0,1,3.9,6.017c-.02.619,0,1.239,0,1.859a5.889,5.889,0,0,1-2.948,5.158,1.638,1.638,0,0,1-1.138.328l-.955-.311A4.256,4.256,0,0,1-6754.395-689.24Z" transform="translate(-166.335 -159.693)" fill="#f8c1b3"/>
      <path id="Trazado_190309" data-name="Trazado 190309" d="M-6735.776-687.212a5.468,5.468,0,0,0,3.744-4.365c.273-2.231.576-4.569-.848-6.63a9.12,9.12,0,0,0-2.757-2.289c.2-.5.676-.456,1.075-.5a5.992,5.992,0,0,1,3.328.659,6.065,6.065,0,0,1,3.277,5.85c-.032.563-.021,1.13,0,1.693a5.689,5.689,0,0,1-2.2,4.72,2.222,2.222,0,0,1-1.075.518l-1,.41A5.342,5.342,0,0,1-6735.776-687.212Z" transform="translate(-181.189 -158.199)" fill="#f39d8f"/>
      <path id="Trazado_190310" data-name="Trazado 190310" d="M-6753.763-653.533a6.883,6.883,0,0,0,2.809,3.212,10.5,10.5,0,0,0-2.948.373A17.065,17.065,0,0,1-6753.763-653.533Z" transform="translate(-166.967 -195.4)" fill="#33a68c"/>
      <path id="Trazado_190311" data-name="Trazado 190311" d="M-6776.255-612.416l.3.153c.012.183.045.373-.148.5A1.01,1.01,0,0,1-6776.255-612.416Z" transform="translate(-149.471 -227.609)" fill="#48b3b8"/>
      <path id="Trazado_190312" data-name="Trazado 190312" d="M-6715.03-691.052a5.994,5.994,0,0,0,3.083-5.794,19.123,19.123,0,0,0-.1-2.739,6.1,6.1,0,0,0-3.048-4.069c.06-.609.6-.744,1.006-1.006a5.571,5.571,0,0,1,1.087-.47,4.121,4.121,0,0,1,2.822-.179l.965.328a5.388,5.388,0,0,0,2.566.326,10.009,10.009,0,0,1,3.024,2.954c.331.58.356,1.3.868,1.781a15.328,15.328,0,0,0,.161,5.688,16.379,16.379,0,0,1,.108,2.625,1.655,1.655,0,0,1-.231.993,7.29,7.29,0,0,0-4.458,4.951,6.418,6.418,0,0,0-.115.79.4.4,0,0,1-.283-.355,7.145,7.145,0,0,0-7.211-5.8A1.862,1.862,0,0,1-6715.03-691.052Z" transform="translate(-197.388 -154.699)" fill="#a1bd2c"/>
      <path id="Trazado_190313" data-name="Trazado 190313" d="M-6658.1-649.906a17.315,17.315,0,0,1,.123-3.619,6.772,6.772,0,0,0,2.8,3.2A9.332,9.332,0,0,0-6658.1-649.906Z" transform="translate(-242.005 -195.407)" fill="#8bb32a"/>
      <path id="Trazado_190314" data-name="Trazado 190314" d="M-6847.312-698.2c.344-.076.629-.344,1.007-.312a5.732,5.732,0,0,1,3.942,5.017,29.1,29.1,0,0,1-.007,3.237,5.9,5.9,0,0,1-3.21,4.844,2.66,2.66,0,0,1-.861.163l-.971-.318a4.215,4.215,0,0,1-2.8-3.2,15.3,15.3,0,0,1-.161-5.686c-.167-.69.288-1.2.6-1.687A3.95,3.95,0,0,1-6847.312-698.2Z" transform="translate(-91.275 -160.164)" fill="#f8c1b3"/>
      <path id="Trazado_190315" data-name="Trazado 190315" d="M-6831.565-686.455a5.781,5.781,0,0,0,3.874-5.955,11.268,11.268,0,0,0-.316-3.744,6.054,6.054,0,0,0-2.964-3.249,4.859,4.859,0,0,1-.458-.313,4.566,4.566,0,0,1,3.263-.068l1,.275a14.266,14.266,0,0,1,1.88,1.624,5.326,5.326,0,0,1,1.322,3.384,22.905,22.905,0,0,1-.066,3.552,5.92,5.92,0,0,1-3.012,4.177l-.813.367A5.732,5.732,0,0,1-6831.565-686.455Z" transform="translate(-106.153 -158.96)" fill="#f39d8f"/>
      <path id="Trazado_190316" data-name="Trazado 190316" d="M-6849.53-653.528a6.768,6.768,0,0,0,2.8,3.2,9.342,9.342,0,0,0-2.92.42A17.253,17.253,0,0,1-6849.53-653.528Z" transform="translate(-91.954 -195.404)" fill="#8bb32a"/>
      <path id="Trazado_190317" data-name="Trazado 190317" d="M-6860.711-703.381a6.352,6.352,0,0,0-3.057,3.745c-.528-.5-.561-1.247-.913-1.848a10.333,10.333,0,0,0-2.979-2.886l2.277-.759c.567.285,1.2.1,1.8.274A7.167,7.167,0,0,1-6860.711-703.381Z" transform="translate(-77.878 -154.983)" fill="#8bb328"/>
      <path id="Trazado_190318" data-name="Trazado 190318" d="M-6751.738-758.1a5.967,5.967,0,0,0-1.994,1.265,5.484,5.484,0,0,0-4.342-.34l-.985.332a1.54,1.54,0,0,1-.725-.307,6.394,6.394,0,0,0-3.141-1.1,1.031,1.031,0,0,1-.856-.355c-.02-.395.309-.547.545-.746a5.367,5.367,0,0,0,2.039-4.622,15.623,15.623,0,0,1,0-1.7,5.477,5.477,0,0,0-2.473-4.894c-.275-.2-.628-.333-.748-.7a6.384,6.384,0,0,1,2.3-1.474,2.876,2.876,0,0,1,2.832-.458l1.047.336a5.421,5.421,0,0,0,2.455.332,8.17,8.17,0,0,1,4.02,5.155,15.254,15.254,0,0,0,.166,5.7,17.219,17.219,0,0,1,.1,2.578A1.51,1.51,0,0,1-6751.738-758.1Z" transform="translate(-158.753 -101.518)" fill="#faa23b"/>
      <path id="Trazado_190319" data-name="Trazado 190319" d="M-6798.535-751.063l-.992-.338a4.089,4.089,0,0,1-2.782-3.315,14.587,14.587,0,0,1-.146-5.553,4.675,4.675,0,0,1,2.148-3.368,1.853,1.853,0,0,1,1.143-.527l.608-.148a4.96,4.96,0,0,1,3.52,2.921,4.978,4.978,0,0,1,.592,2.655c-.03.781.008,1.564-.009,2.346a5.919,5.919,0,0,1-3.078,5.09A2.134,2.134,0,0,1-6798.535-751.063Z" transform="translate(-128.805 -108.622)" fill="#f8c1b3"/>
      <path id="Trazado_190320" data-name="Trazado 190320" d="M-6783.736-752.307a5.874,5.874,0,0,0,3.879-5.891,13.944,13.944,0,0,0-.276-3.68,6.269,6.269,0,0,0-3.623-3.679,5.6,5.6,0,0,1,4.19.149,5.9,5.9,0,0,1,3.449,5.811c-.048.968.037,1.951-.1,2.905a6.078,6.078,0,0,1-2.724,3.943,2.092,2.092,0,0,1-2.069.686A4.692,4.692,0,0,1-6783.736-752.307Z" transform="translate(-143.604 -107.378)" fill="#f39d8f"/>
      <path id="Trazado_190321" data-name="Trazado 190321" d="M-6813.027-770.65a6.5,6.5,0,0,0-3.292,3.9,9.625,9.625,0,0,0-1.89-3.5,13.189,13.189,0,0,0-2.139-1.667,10.642,10.642,0,0,0,2.258-.671A6.811,6.811,0,0,1-6813.027-770.65Z" transform="translate(-114.94 -102.136)" fill="#faa23b"/>
      <path id="Trazado_190322" data-name="Trazado 190322" d="M-6751.064-784.2a9.521,9.521,0,0,0-2.831.458,20.3,20.3,0,0,1,.13-3.681A6.974,6.974,0,0,0-6751.064-784.2Z" transform="translate(-166.977 -90.521)" fill="#de2035"/>
      <path id="Trazado_190323" data-name="Trazado 190323" d="M-6801.624-720.017a6.183,6.183,0,0,0,2.781,3.315,11.637,11.637,0,0,0-2.912.387A21.033,21.033,0,0,1-6801.624-720.017Z" transform="translate(-129.489 -143.32)" fill="#faa33d"/>
      <path id="Trazado_190324" data-name="Trazado 190324" d="M-6706.008-715.793a16.811,16.811,0,0,1,.138-3.579,6.7,6.7,0,0,0,2.783,3.189A10.5,10.5,0,0,0-6706.008-715.793Z" transform="translate(-204.483 -143.825)" fill="#f4851d"/>
      <path id="Trazado_190325" data-name="Trazado 190325" d="M-6771.216-704.508a9.488,9.488,0,0,0,2.07-.685,15.26,15.26,0,0,1,2.746.563,7.01,7.01,0,0,1,1.981,1.2,6.15,6.15,0,0,0-3.1,3.9c-.42-.544-.438-1.263-.807-1.833a7.492,7.492,0,0,0-2.483-2.595C-6770.977-704.058-6771.4-704.1-6771.216-704.508Z" transform="translate(-153.392 -154.933)" fill="#31a58b"/>
    </g>
  </g>
</svg>
