<svg xmlns="http://www.w3.org/2000/svg" width="172.503" height="235.618" viewBox="0 0 172.503 235.618">
  <g id="Grupo_124263" data-name="Grupo 124263" transform="translate(1647.861 -443.854)">
    <path id="Trazado_189416" data-name="Trazado 189416" d="M-1646.6,706.607a5.945,5.945,0,0,1-1.265-4.027q.027-92.091.021-184.182c0-1.456-.066-2.983,1.693-3.639,4.795-.482,9.6-.121,14.4-.2,1.741-.028,3.935-.714,5.106.3,1.14.983.044,3.146.032,4.791-.017,2.4.623,4.894-.585,7.209-1.55.958-3.283.558-4.938.605-1.812.05-2.68.841-2.665,2.656.007.842-.024,1.684-.025,2.526q0,77.993.014,155.986c0,1.578-.327,3.237.689,4.672,1.3,1.23,2.914.6,4.386.688,2.6.149,3.052.511,3.13,3.106.1,3.181-.262,6.4.7,9.512Z" transform="translate(0 -27.135)" fill="#e68743"/>
    <path id="Trazado_189417" data-name="Trazado 189417" d="M-1617.608,780.148a3.8,3.8,0,0,1-1.4-3.422c.083-2.057-.108-4.131.058-6.178.161-1.989-.643-2.444-2.481-2.4-1.626.039-3.342.528-4.915-.37.763-.85,1.8-.762,2.785-.766,3.68-.015,7.36-.079,11.04.037a29.005,29.005,0,0,1,3.218-.062q49.687,0,99.374,0c4.76,0,4.761,0,4.761-4.827q0-23.462,0-46.924a26.091,26.091,0,0,1,.116-3.67c.5-2.5,2.941-3.214,4.433-4.805,2.868-2.008,2.91-2.061,5.691.141,1.2.949,2.87,1.466,3.318,3.207-.709.792-.372,1.755-.373,2.632q-.032,31.758.012,63.515a4.67,4.67,0,0,1-1.418,3.894Z" transform="translate(-8.285 -100.676)" fill="#f49757"/>
    <path id="Trazado_189418" data-name="Trazado 189418" d="M-1419.84,562.184c12.317,2.453,22.692,14.372,23.474,26.983.829,13.369-4.772,23.3-16.14,30.147-1.961,2.165-4.656,2.537-7.316,3q-18.424-6.1-22.451-25.084a7.848,7.848,0,0,1,.095-4.507c1.253-.758,1.785.4,2.415,1.011,2.8,2.714,5.52,5.52,8.305,8.253,2.3,2.261,3.486,2.252,5.8-.044q6.924-6.876,13.8-13.795a6.863,6.863,0,0,0,.928-1.016,2.954,2.954,0,0,0,.006-3.818c-1.011-1.164-2.349-.9-3.592-.3a7.536,7.536,0,0,0-1.923,1.62c-3.359,3.351-6.695,6.727-10.075,10.056-1.837,1.81-2.3,1.795-4.15,0-1.537-1.493-3.082-2.983-4.54-4.552-1.678-1.806-3.464-2.779-5.848-1.3a.829.829,0,0,1-1.059-.054,3.376,3.376,0,0,1-.074-2.67q3.662-16.378,19.032-23.121A7.3,7.3,0,0,1-1419.84,562.184Z" transform="translate(-79.072 -45.572)" fill="#5ea31f"/>
    <path id="Trazado_189419" data-name="Trazado 189419" d="M-1542.606,497.521q12.351.062,24.7.121c4.683.017,4.782.1,5.013,4.851a7.286,7.286,0,0,0,.154.9,4.5,4.5,0,0,1,.675,2.81c-.013,3.094.074,6.188-.044,9.281a26.8,26.8,0,0,1-.031,4.585,3.529,3.529,0,0,1-3.393,3.421,21.317,21.317,0,0,1-2.979.094c-14.46,0-28.921.1-43.38-.042-6.814-.066-13.595.744-20.4.486-1.165-.044-2.5.294-3.273-1.043a2.427,2.427,0,0,1,2.269-.818c2.752-.03,5.508-.146,7.937.081q-.59-11.741-.032-23.538c-2.22.007-4.975.036-7.729,0-.98-.014-2.015.095-2.808-.705.694-.719,1.589-.421,2.395-.421,7.813,0,15.627-.029,23.438.114,1.977.036,2.464-.591,2.365-2.456-.178-3.36-.122-6.733-.164-10.1.556-.1.75.291.938.691.516,2.806.224,5.642.224,8.462,0,1.87.7,2.613,2.571,2.565,2.826-.074,5.657-.029,8.487-.012A4.624,4.624,0,0,1-1542.606,497.521Z" transform="translate(-23.853 -15.894)" fill="#ffb800"/>
    <path id="Trazado_189420" data-name="Trazado 189420" d="M-1451.955,591.422c-.251,7.872,2.748,14.445,7.866,20.27,3.885,4.422,8.82,7.109,14.166,9.225-.328.979-1.214,1.043-2.023,1.23a28.653,28.653,0,0,1-7.282.392,30.968,30.968,0,0,1-12.305-3.651,28.247,28.247,0,0,1-9.678-7.708,29.372,29.372,0,0,1-4.228-6.505c-2.3-4.263-3.025-8.9-3.3-13.656a42.714,42.714,0,0,1,.918-7.11,24.837,24.837,0,0,1,1.567-4.75c1.27-2.263,2.209-4.715,3.835-6.779a32.113,32.113,0,0,1,19.193-12.3c3.137-.776,6.323-.464,9.494-.454a3.194,3.194,0,0,1,2.438,1.023l1.372.528c-3.886,1.753-7.745,3.471-11.127,6.217-5.592,4.541-8.818,10.4-10.5,17.254a7.109,7.109,0,0,0-.368,3.384A2.872,2.872,0,0,1-1451.955,591.422Z" transform="translate(-68.987 -44.56)" fill="#4d9c23"/>
    <path id="Trazado_189421" data-name="Trazado 189421" d="M-1430.589,543.423a42.585,42.585,0,0,0-12.337.026c-.922-.818-.791-1.934-.8-2.985-.037-3.28.017-6.561-.025-9.841-.032-2.554-.365-2.92-2.925-2.948-5.646-.062-11.292,0-16.937-.032-1.127-.005-2.311.166-3.288-.648q0-6.078.01-12.157,16.206,0,32.413.008c3.571,0,3.889.33,3.891,3.981Q-1430.587,531.125-1430.589,543.423Z" transform="translate(-69.695 -27.339)" fill="#f49657"/>
    <path id="Trazado_189422" data-name="Trazado 189422" d="M-1421.78,658.758c3.24-.133,6.524.148,9.65-1.04,2.607-.414,4.927-1.634,7.333-2.614q.008,19.039.013,38.077c0,.9.208,1.9-.852,2.412s-1.71-.313-2.413-.852c-1.7-1.3-3.376-2.629-5.063-3.947a41.758,41.758,0,0,1-3.571-2.809c-1.689-1.636-3.3-1.971-5.071-.211-.891-.842-.764-1.962-.768-3.015q-.042-11.483,0-22.966C-1422.523,660.733-1422.613,659.626-1421.78,658.758Z" transform="translate(-86.781 -81.362)" fill="#de1c30"/>
    <path id="Trazado_189423" data-name="Trazado 189423" d="M-1543.686,469.711l-.517-.469a13.747,13.747,0,0,1-4.2-18.548c3.734-6.329,11.835-8.528,17.62-5.491.208,1.153-.865,1.3-1.457,1.771a13.53,13.53,0,0,0-4.942,14.694c.846,3.142,3.061,5.2,5.379,7.222.55.479,1.426.654,1.514,1.581C-1533.3,473.284-1540.988,472.845-1543.686,469.711Z" transform="translate(-37.545)" fill="#e9a800"/>
    <path id="Trazado_189424" data-name="Trazado 189424" d="M-1587.261,506.067h11.272c-.461,8.281-.2,16.426-.2,24.858h-10.622c-1.862.5-2.216-.856-2.41-2.123a32.311,32.311,0,0,1-.1-5.413c-.128-3.111-.037-6.221-.05-9.332a4.532,4.532,0,0,1,.626-2.616c.035-1.185.053-2.373.112-3.557A1.9,1.9,0,0,1-1587.261,506.067Z" transform="translate(-22.52 -23.961)" fill="#e9a800"/>
    <path id="Trazado_189425" data-name="Trazado 189425" d="M-1522.8,471c-4.067-1.382-7.526-6.418-7.865-10.871-.482-6.338,2.343-10.778,7.453-14.083a13.759,13.759,0,0,1,3.683,22.8c-.614.569-1.249,1.114-1.875,1.669C-1521.8,470.889-1522.171,471.324-1522.8,471Z" transform="translate(-45.116 -0.845)" fill="#ffb800"/>
    <path id="Trazado_189426" data-name="Trazado 189426" d="M-1610.19,514.65l.022,12.2c-1.66,1.075-3.519.511-5.29.611a35.285,35.285,0,0,1-3.843,0c-1.532-.045-3.064.091-4.6,0a2.828,2.828,0,0,1-2.314-.767v-11.9h-18.861c.267-.127.536-.366.8-.363,6.783.074,13.564-.2,20.35.159C-1619.354,514.831-1614.767,514.645-1610.19,514.65Z" transform="translate(-1.074 -27.17)" fill="#f49657"/>
    <path id="Trazado_189427" data-name="Trazado 189427" d="M-1526.23,486.331l1.4-.483q.032,5.976.064,11.953c-4.2.01-8.393-.044-12.585.064-1.642.042-2.335-.351-2.257-2.143.142-3.274.06-6.558.071-9.838C-1535.176,488.165-1530.753,488.748-1526.23,486.331Z" transform="translate(-41.689 -16.174)" fill="#d49900"/>
    <path id="Trazado_189428" data-name="Trazado 189428" d="M-1619.577,534.391l6.881.188c.178,1.835-.166,3.653-.166,5.488q.038,78.232-.008,156.465c0,1.807.55,3.661-.239,5.44h-13.818c-.92-.7-.9-1.7-.9-2.707q.007-80.947-.025-161.894c0-2.207.808-3.059,2.988-2.927C-1623.106,534.55-1621.338,534.418-1619.577,534.391Z" transform="translate(-7.708 -34.87)" fill="#bee4f7"/>
    <path id="Trazado_189429" data-name="Trazado 189429" d="M-1604.182,702.052a12.772,12.772,0,0,1-.488-3.839q.024-80.068.012-160.135c0-1.222-.148-2.472.888-3.42l9.162-.032c.024,1.647.058,3.294.069,4.941.008,1.267.449,2.172,1.838,2.346,3.933.762,7.9.212,11.853.3,1.219.028,2.442-.162,3.664-.162q26.434-.018,52.867-.009c3.747,0,4.226-.491,4.244-4.227,0-1.07.07-2.14.108-3.21q10.439,0,20.878,0c2.917,0,3.063.165,3.07,3.154q.017,6.652.028,13.306c-6.225,1.766-11.834,4.588-16.228,9.487-.754.842-1.5,1.689-2.253,2.534a8.007,8.007,0,0,1-2.5.262c-15.785-.035-31.568-.01-47.353-.015a16.1,16.1,0,0,0-2.981.13,2.5,2.5,0,0,0-2.363,2.4,2.587,2.587,0,0,0,2.086,2.679,10.614,10.614,0,0,0,3.2.247q21.263.007,42.526.018c1.267,0,2.635-.294,3.715.737q-.733,2.315-1.467,4.63c-1.13.915-2.481.644-3.755.646q-20.318.032-40.638.018a9.362,9.362,0,0,0-3.846.459,2.626,2.626,0,0,0-1.854,2.618,2.651,2.651,0,0,0,1.864,2.381,9.43,9.43,0,0,0,3.847.454q19.86.013,39.72.017c1.275,0,2.624-.26,3.76.638a39.75,39.75,0,0,0,3.3,13.9c-1.118.948-2.476.667-3.749.67q-21.384.032-42.768.016a11.894,11.894,0,0,0-3.652.291c-1.339.426-2.35,1.193-2.321,2.756.027,1.456,1.01,2.151,2.25,2.57a8.45,8.45,0,0,0,2.731.3c15.406.01,30.811-.025,46.217.046,1.812.008,3.379-.962,5.157-.841a34.529,34.529,0,0,0,9.4,7.62c.925,1.026.724,2.3.726,3.505.015,10.652-.009,21.3.031,31.956,0,1.328-.647,3.173.653,3.851,1.35.7,2.338-1.043,3.461-1.757.944-.6,1.692-1.62,3.023-1.339.015,18.242,0,36.483.083,54.724.012,2.51-1.412,2.4-3.123,2.4q-49.784-.023-99.568-.012Q-1601.424,702.061-1604.182,702.052Z" transform="translate(-16.635 -34.95)" fill="#d8eff9"/>
    <path id="Trazado_189430" data-name="Trazado 189430" d="M-1432.991,691.39c-1.581,1.184-3.152,2.384-4.75,3.546-.706.513-1.33,1.355-2.412.747-.938-.528-.752-1.428-.753-2.237q0-19.136.021-38.273a38.077,38.077,0,0,0,12.027,3.611q.012,14.508.025,29.016Z" transform="translate(-79.703 -81.389)" fill="#d80522"/>
    <path id="Trazado_189431" data-name="Trazado 189431" d="M-1441.565,604.742a6.734,6.734,0,0,1,.034-3.4c2.41-2.276,3.923-2.282,6.252.014,1.961,1.933,3.949,3.842,5.823,5.857.906.974,1.451.9,2.35-.017,3.736-3.834,7.543-7.6,11.338-11.375,1.99-1.98,4.111-2.228,5.6-.7,1.471,1.513,1.181,3.593-.823,5.6q-7.046,7.069-14.116,14.115c-2.383,2.371-4.009,2.349-6.412-.048Q-1436.552,609.781-1441.565,604.742Z" transform="translate(-79.377 -57.881)" fill="#fff"/>
    <path id="Trazado_189432" data-name="Trazado 189432" d="M-1540.474,527.193c-5.358,0-10.718.009-16.076,0-2.824-.007-3.9-.914-3.955-3.284-.055-2.217,1.432-3.6,4.042-3.6q15.961-.033,31.922.005a8.99,8.99,0,0,1,2.013.327,3.037,3.037,0,0,1,2.444,3.807,3.16,3.16,0,0,1-3.395,2.755Q-1531.977,527.18-1540.474,527.193Z" transform="translate(-33.644 -29.438)" fill="#e9a800"/>
    <path id="Trazado_189433" data-name="Trazado 189433" d="M-1492.014,639.139a6.64,6.64,0,0,1-4.659,1.509c-15.781-.049-31.562-.027-47.344-.034a8.572,8.572,0,0,1-2.277-.156c-1.75-.492-3.01-1.474-2.983-3.535s1.337-2.993,3.082-3.456a9.077,9.077,0,0,1,2.282-.125q24.016-.015,48.033-.015Z" transform="translate(-37.969 -72.975)" fill="#2fb6e7"/>
    <path id="Trazado_189434" data-name="Trazado 189434" d="M-1496.8,587.061q-23.691-.016-47.38-.033a14.956,14.956,0,0,1-2.068-.04,3.411,3.411,0,0,1-2.991-3.728,3.188,3.188,0,0,1,3.31-3.126c1.071-.051,2.146-.02,3.219-.02q23.231,0,46.461,0a5.1,5.1,0,0,1,3.123.487Q-1494.965,583.834-1496.8,587.061Z" transform="translate(-37.976 -52.474)" fill="#2eb6e7"/>
    <path id="Trazado_189435" data-name="Trazado 189435" d="M-1499.174,606.161q-22.736.013-45.473.038a5.94,5.94,0,0,1-2.866-.657,3.125,3.125,0,0,1-1.754-2.985,3.12,3.12,0,0,1,1.74-2.994,5.9,5.9,0,0,1,2.864-.669q23.2.037,46.392.036Q-1498.724,602.546-1499.174,606.161Z" transform="translate(-37.973 -59.713)" fill="#2fb6e7"/>
    <path id="Trazado_189436" data-name="Trazado 189436" d="M-1520.54,713.215h-23.666a8.055,8.055,0,0,1-2.713-.326,3.235,3.235,0,0,1-2.338-3.065,3.173,3.173,0,0,1,1.921-3.34,6.385,6.385,0,0,1,2.895-.555q23.9.02,47.793.011a10.911,10.911,0,0,1,1.605.05c2.162.325,3.791,1.987,3.7,3.727-.109,1.986-1.76,3.439-4.147,3.482-3.216.059-6.434.016-9.65.016Z" transform="translate(-37.972 -100.937)" fill="#2fb6e7"/>
    <path id="Trazado_189437" data-name="Trazado 189437" d="M-1520.538,747.634H-1544.2a8.036,8.036,0,0,1-2.714-.323,3.238,3.238,0,0,1-2.34-3.064,3.172,3.172,0,0,1,1.92-3.341,6.373,6.373,0,0,1,2.894-.559q24.011.02,48.022.012a9.06,9.06,0,0,1,1.375.049c2.164.331,3.792,1.988,3.7,3.727-.107,1.985-1.76,3.44-4.145,3.484-3.216.058-6.433.015-9.65.016Z" transform="translate(-37.971 -114.193)" fill="#2fb6e7"/>
    <path id="Trazado_189438" data-name="Trazado 189438" d="M-1520.659,659.642q-12.191,0-24.383,0c-2.722,0-4.254-1.258-4.225-3.4.031-2.22,1.525-3.506,4.188-3.508q24.727-.015,49.455,0c2.632,0,4.278,1.345,4.29,3.432s-1.63,3.467-4.253,3.473Q-1508.122,659.662-1520.659,659.642Z" transform="translate(-37.973 -80.446)" fill="#2eb6e7"/>
    <path id="Trazado_189439" data-name="Trazado 189439" d="M-1520.374,694.061q-12.307,0-24.613,0c-2.767,0-4.279-1.2-4.279-3.344,0-2.3,1.524-3.564,4.363-3.565q24.613-.01,49.225,0c2.658,0,4.291,1.3,4.341,3.379.053,2.159-1.628,3.524-4.426,3.527Q-1508.068,694.077-1520.374,694.061Z" transform="translate(-37.974 -93.703)" fill="#2eb6e7"/>
    <path id="Trazado_189440" data-name="Trazado 189440" d="M-1520.555,766.661q-12.192,0-24.383,0c-2.769,0-4.3-1.2-4.327-3.3-.028-2.306,1.5-3.619,4.314-3.62q24.613-.013,49.226,0c2.768,0,4.463,1.4,4.388,3.569-.073,2.084-1.679,3.347-4.375,3.352Q-1508.134,766.678-1520.555,766.661Z" transform="translate(-37.974 -121.658)" fill="#2eb6e7"/>
    <path id="Trazado_189441" data-name="Trazado 189441" d="M-1575.835,638.023a4.366,4.366,0,0,1-1.386,2.846c-3.3,3.293-6.568,6.629-9.913,9.881-1.938,1.884-3.632,1.833-5.6-.068q-3.132-3.032-6.16-6.17c-1.632-1.7-1.7-3.632-.3-5.086,1.448-1.505,3.417-1.365,5.27.256,1.409,1.232,2.511,3.751,4.162,3.494,1.54-.24,2.778-2.424,4.147-3.756s2.706-2.7,4.115-3.993a3.185,3.185,0,0,1,3.642-.474A3.475,3.475,0,0,1-1575.835,638.023Z" transform="translate(-18.362 -73.463)" fill="#4d9c23"/>
    <path id="Trazado_189442" data-name="Trazado 189442" d="M-1575.828,744.936a4.306,4.306,0,0,1-1.348,2.94c-3.305,3.294-6.575,6.625-9.911,9.888-1.943,1.9-3.648,1.886-5.59.009q-3.135-3.03-6.163-6.169c-1.708-1.769-1.763-3.806-.235-5.249,1.462-1.38,3.351-1.253,5.1.346.113.1.215.22.332.317,1.331,1.11,2.286,3.4,3.848,3.256,1.31-.123,2.453-2.1,3.656-3.27,1.535-1.493,3.028-3.03,4.593-4.492a3.19,3.19,0,0,1,3.633-.531A3.544,3.544,0,0,1-1575.828,744.936Z" transform="translate(-18.367 -114.695)" fill="#4d9c23"/>
    <path id="Trazado_189443" data-name="Trazado 189443" d="M-1589.929,598.464a3.324,3.324,0,0,1-2.64-1.176c-2.119-2.1-4.265-4.183-6.336-6.335-1.623-1.687-1.685-3.669-.285-5.105,1.425-1.463,3.345-1.413,5.117.137.115.1.223.21.333.316,1.27,1.214,2.506,3.351,3.82,3.4,1.522.057,2.628-2.239,3.946-3.48,1.393-1.311,2.68-2.737,4.085-4.036,1.651-1.527,3.483-1.552,4.928-.18,1.5,1.425,1.536,3.409-.1,5.087-3.364,3.458-6.8,6.841-10.217,10.252A3.29,3.29,0,0,1-1589.929,598.464Z" transform="translate(-18.362 -52.824)" fill="#4d9c23"/>
    <path id="Trazado_189444" data-name="Trazado 189444" d="M-1575.836,691.571a4.37,4.37,0,0,1-1.455,2.857c-3.257,3.237-6.481,6.508-9.758,9.726-1.921,1.886-3.716,1.928-5.613.114q-3.153-3.014-6.168-6.171c-1.714-1.787-1.774-3.824-.271-5.269,1.44-1.384,3.366-1.27,5.124.309.285.256.548.534.82.8,3.282,3.266,3.281,3.265,6.48.066,1.623-1.624,3.223-3.273,4.886-4.855a3.262,3.262,0,0,1,4-.659A3.542,3.542,0,0,1-1575.836,691.571Z" transform="translate(-18.366 -94.061)" fill="#4d9c23"/>
  </g>
</svg>
