<svg xmlns="http://www.w3.org/2000/svg" width="235.394" height="235.27" viewBox="0 0 235.394 235.27">
  <g id="Grupo_124264" data-name="Grupo 124264" transform="translate(1916.036 -44.995)">
    <path id="Trazado_189445" data-name="Trazado 189445" d="M-1779.631,334.131a98.273,98.273,0,0,1-25.48,1.43,112.845,112.845,0,0,1-48.33-13.6c-32.822-18.145-53.128-45.593-60.483-82.476a117.431,117.431,0,0,1-2.012-18.606c-.077-2.059.231-3.285,2.651-2.8a2.336,2.336,0,0,0,1.912-.457,11.473,11.473,0,0,1,2.49-.349c15.229.035,30.458-.045,45.688.039,14.616-.065,29.232-.021,43.847-.029a18.19,18.19,0,0,1,4.035.211,2.95,2.95,0,0,1,1.908,1.876c4.916,10.189,13.325,16.72,22.862,22.2,5.115,2.939,10.831,4.692,15.583,8.347a36.7,36.7,0,0,1,11.64,15.642c4.762,11.688,4.781,23.7,1.752,35.777a79.6,79.6,0,0,1-15.165,30.052C-1777.557,332.434-1778.281,333.622-1779.631,334.131Z" transform="translate(-0.029 -55.537)" fill="#5f8b5f"/>
    <path id="Trazado_189446" data-name="Trazado 189446" d="M-1731.332,334.118a118.153,118.153,0,0,0,10.646-15.679c6.205-11.638,9.661-23.97,8.623-37.193-1.015-12.947-5.558-24.311-16.733-32.051-4.112-2.848-8.946-4.327-13.285-6.776-8.1-4.572-15.475-9.954-20.786-17.761a20.947,20.947,0,0,1-3.257-6.525,3.358,3.358,0,0,1,2.8-.838c4.787-.045,9.575-.025,14.361-.015a5.512,5.512,0,0,1,2.893.73l20.451.016c2.62-1.386,5.431-.5,8.153-.694,9.391-.018,18.783-.253,28.169.114,15.886,4.911,23.309,19.27,18.685,36.168-1.582,5.781-3.957,11.307-5.289,17.181-2.074,9.153-1.913,18.088,1.783,26.822a77.522,77.522,0,0,0,3.671,7.222,122.509,122.509,0,0,1-28.762,19.373A109.137,109.137,0,0,1-1731.332,334.118Z" transform="translate(-48.328 -55.524)" fill="#90caf1"/>
    <path id="Trazado_189447" data-name="Trazado 189447" d="M-1674.75,102.7c1.844-6.859,6.025-11.53,12.85-13.724.935-.3,1.14-1.145,1.508-1.9,4.1-8.469,11.241-12.188,20.273-12.133,8.925.054,16.008,3.769,19.94,12.211a3.979,3.979,0,0,0,2.5,2.183c6.127,2.412,10.343,6.556,11.559,13.275a14.42,14.42,0,0,1-2.546,10.794c-.633.959-.9,1.59,0,2.6,10.542,11.852,3.03,28.174-12.587,31.346a25.247,25.247,0,0,1-14.883-1.436c-1.156-1.1-.754-2.532-.739-3.825.12-10.34-1.312-7.549,7.005-13.3.972-.672,1.987-1.281,2.936-1.985,2.129-1.58,2.662-3.5,1.468-5.177-1.136-1.6-3.029-1.782-5.176-.481-.793.481-1.529,1.058-2.33,1.525-.991.575-1.974,1.861-3.106,1.271-1.269-.663-.749-2.27-.807-3.494-.079-1.685.1-3.381-.1-5.058-.268-2.215-1.813-3.524-3.74-3.2a3.284,3.284,0,0,0-2.865,3.356c-.162,2.1.022,4.22-.1,6.326-.135,2.41-.721,2.717-2.765,1.543-.658-.379-1.275-.826-1.906-1.248-3.522-2.347-5.529-2.467-6.828-.408-1.276,2.022-.377,3.767,3.166,6.138,1.893,1.266,3.744,2.607,5.7,3.771a4.927,4.927,0,0,1,2.672,5.018c-.25,3.093.478,6.235-.464,9.3-4,2.822-8.535,2.8-13.117,2.391s-8.583-2.4-12.446-4.732c-2.954-2.931-5.669-6.017-6.923-10.124a16.829,16.829,0,0,1,2.5-15.629c1.58-2.146,1.959-3.8.5-6.311C-1675.114,108.958-1676.268,105.9-1674.75,102.7Z" transform="translate(-76.901 -9.652)" fill="#80b87d"/>
    <path id="Trazado_189448" data-name="Trazado 189448" d="M-1633.506,304.838c-1.342-.038-1.462-1.265-1.927-2.078-6.464-11.309-6.948-23.211-3.337-35.458,1.5-5.088,3.486-10.048,4.749-15.189,3.764-15.327-2.221-27.67-17.51-33.933.715-.914,1.763-.871,2.747-.876,4.25-.025,8.5-.094,12.75.027,2.735.178,5.556-.677,8.192.678,9.966.022,19.933.117,29.9.01,2.183-.024,2.636.628,2.564,2.683q-1.712,48.9-36.859,82.9Q-1632.875,304.219-1633.506,304.838Z" transform="translate(-85.27 -55.523)" fill="#5f8b5f"/>
    <path id="Trazado_189449" data-name="Trazado 189449" d="M-1860.979,191.41q-23.038.013-46.075.02c-.736,0-1.539.2-2.141-.464q14.3-18.975,28.611-37.949c3.452-4.575,6.9-9.155,10.394-13.7,4.853-6.31,13.523-6.3,18.4.018s9.732,12.7,14.6,19.055c.441,1.106-.473,1.71-.967,2.412-6.813,9.685-13.9,19.172-20.735,28.841A5.886,5.886,0,0,1-1860.979,191.41Z" transform="translate(-2.205 -28.883)" fill="#76793f"/>
    <path id="Trazado_189450" data-name="Trazado 189450" d="M-1695.639,110.4a16.426,16.426,0,0,0,2.879,10.719,1.791,1.791,0,0,1-.142,2.622c-2.885,3.52-4.881,7.413-4.785,12.146a18.341,18.341,0,0,0,5.016,12.3c.771.852,1.935,1.416,2.122,2.727a2.913,2.913,0,0,1-1.414,1.973c-4.051,3.164-13.086,4.9-18.052,1.751a6.044,6.044,0,0,1-.535-3.446c-.018-5.654-.008-11.308-.008-16.962,0-.59.01-1.182-.008-1.772-.089-2.927-1.259-4.45-3.39-4.419-2.105.032-3.192,1.527-3.28,4.528-.022.759-.015,1.519-.041,2.278-.062,1.748-.768,2.539-2.566,1.783a7.067,7.067,0,0,0-.961-.315c-1.755-.452-3.2-.065-4.072,1.628-.79,1.539-.225,3.211,1.45,4.36a31.933,31.933,0,0,0,3.8,2.016,3.751,3.751,0,0,1,2.347,3.839c-.169,2.128.7,4.386-.739,6.366-6.808,1.956-13.2,1.339-18.859-3.24a13.835,13.835,0,0,1-2.039-20.031c.638-.784,1.235-1.237.463-2.507-4.324-7.116-1.718-14.927,6.074-18.3a6.423,6.423,0,0,0,3.333-3.081c3.291-5.954,8.667-8.594,15.291-8.533s11.955,2.738,15.127,8.792A5.012,5.012,0,0,0-1695.639,110.4Z" transform="translate(-56.012 -17.355)" fill="#5f8b5f"/>
    <path id="Trazado_189451" data-name="Trazado 189451" d="M-1851.04,69.455a12.127,12.127,0,0,1-15.933,11.287,3.982,3.982,0,0,0-4.279.563c-7.785,5.731-17.076,5.608-24.85-.239a2.8,2.8,0,0,0-3.132-.6c-5.226,2.081-9.787.892-13.525-3.2-3.387-3.706-4.214-8.057-2.172-12.656a11.733,11.733,0,0,1,11.288-7.489,2.359,2.359,0,0,0,2.355-1.439c3.846-7.087,9.95-10.726,17.9-10.692,7.847.034,13.9,3.648,17.663,10.659.7,1.309,1.594,1.437,2.852,1.465A12.261,12.261,0,0,1-1851.04,69.455Z" fill="#90caf1"/>
    <path id="Trazado_189452" data-name="Trazado 189452" d="M-1838.041,199.128l23.787-33.019c.862-1.142,1.71-2.294,2.588-3.423,4.241-5.451,11.973-5.607,16.063-.047,8.883,12.075,17.575,24.292,26.347,36.449l-20.052.123Z" transform="translate(-25.144 -36.602)" fill="#868d33"/>
    <path id="Trazado_189453" data-name="Trazado 189453" d="M-1626.247,189.473h-8.142a4.1,4.1,0,0,1-.782-3.1c-.028-6.655-.017-13.31-.011-19.965a5.994,5.994,0,0,1,.726-3.158c.027-3.541.011-7.083.106-10.622a2.524,2.524,0,0,0-1.418-2.415c-2.9-1.87-5.769-3.8-8.617-5.758-2.262-1.552-2.818-3.871-1.488-5.87s3.651-2.345,6.009-.855c1.7,1.073,3.362,2.208,5.491,3.611,0-2.836-.015-5.3,0-7.762.024-3.071,1.43-4.8,3.927-4.872,2.6-.076,4.144,1.718,4.179,4.877.026,2.36.036,4.72.058,7.08a2.573,2.573,0,0,0,.2.49c1.766-1.158,3.478-2.316,5.226-3.419,2.361-1.491,4.684-1.145,6.012.846s.785,4.312-1.479,5.877c-2.841,1.964-5.7,3.9-8.607,5.766a2.514,2.514,0,0,0-1.434,2.4c.1,3.539.08,7.081.108,10.622Z" transform="translate(-86.864 -26.987)" fill="#a4664d"/>
    <path id="Trazado_189454" data-name="Trazado 189454" d="M-1710.338,168.015a11.805,11.805,0,0,1,.069-1.26c.8-4.979-.276-8.714-5.8-10.356-2.372-.705-2.952-3.4-1.858-5.472,1.046-1.983,3.114-2.643,5.416-1.716.614.248,1.215.527,2.235.972,0-1.889-.035-3.517.008-5.143.072-2.738,1.708-4.429,4.16-4.364,2.353.062,3.907,1.693,3.927,4.336.06,7.668.056,15.337.077,23.005a4.6,4.6,0,0,1,.743,3.116q.03,9.568,0,19.135a4.051,4.051,0,0,1-.82,3.076h-8.072Q-1710.3,180.681-1710.338,168.015Z" transform="translate(-63.695 -30.845)" fill="#884d36"/>
    <path id="Trazado_189455" data-name="Trazado 189455" d="M-1755.432,50.888c2.729-.031,4.995,2.155,7.281,2.25,2.235.093,4.526-2.235,7.256-2.263,2.979-.03,4.834,1.35,4.965,3.827.127,2.424-1.353,4.02-4.262,4.262-2.383.2-3.366,1.58-3.78,3.693-.627,3.207-1.823,4.461-4.169,4.43-2.312-.03-3.391-1.214-4.075-4.537-.439-2.13-1.5-3.424-3.869-3.595-2.813-.2-4.336-1.935-4.151-4.356C-1760.053,52.218-1758.263,50.834-1755.432,50.888Z" transform="translate(-50.221 -1.896)" fill="#613a2c"/>
    <path id="Trazado_189456" data-name="Trazado 189456" d="M-1797.024,98.78c2.476-.15,4.815,2.366,7.141,2.246,2.283-.118,4.559-2.243,7.282-2.257,2.814-.014,4.607,1.377,4.768,3.764.163,2.433-1.332,4.1-4.2,4.317-2.524.192-3.477,1.678-3.869,3.89-.521,2.936-1.8,4.236-4.081,4.238s-3.564-1.3-4.084-4.228c-.392-2.205-1.331-3.708-3.86-3.9-2.851-.215-4.363-1.889-4.212-4.3C-1801.989,100.159-1800.2,98.736-1797.024,98.78Z" transform="translate(-36.714 -17.335)" fill="#613a2c"/>
  </g>
</svg>
