<svg xmlns="http://www.w3.org/2000/svg" xmlns:xlink="http://www.w3.org/1999/xlink" width="103.768" height="103.768" viewBox="0 0 103.768 103.768">
  <defs>
    <filter id="Rect치ngulo_41489" x="0" y="0" width="103.768" height="103.768" filterUnits="userSpaceOnUse">
      <feOffset dy="3" input="SourceAlpha"/>
      <feGaussianBlur stdDeviation="3" result="blur"/>
      <feFlood flood-opacity="0.161"/>
      <feComposite operator="in" in2="blur"/>
      <feComposite in="SourceGraphic"/>
    </filter>
  </defs>
  <g id="Grupo_124745" data-name="Grupo 124745" transform="translate(11770.565 13307.525)">
    <g id="Grupo_124743" data-name="Grupo 124743" transform="translate(-12676.565 -13594)">
      <g id="Grupo_119337" data-name="Grupo 119337" transform="translate(915 292.475)">
        <g transform="matrix(1, 0, 0, 1, -9, -6)" filter="url(#Rect치ngulo_41489)">
          <rect id="Rect치ngulo_41489-2" data-name="Rect치ngulo 41489" width="85.768" height="85.768" rx="23" transform="translate(9 6)" fill="#fff"/>
        </g>
      </g>
      <g id="Grupo_124481" data-name="Grupo 124481" transform="translate(5871.24 97.752)">
        <path id="Trazado_189956" data-name="Trazado 189956" d="M-4637.111,282.446a7.3,7.3,0,0,1,6.091,3.955v.127a1.262,1.262,0,0,1-.9.193c-1.364.005-2.728,0-4.091,0a1.772,1.772,0,0,0-.862.114c-.55,1.176-1.33,2.309-.732,3.706.252.59.262,1.28.74,1.774a1.942,1.942,0,0,0,.867.1c1.361,0,2.721,0,4.082,0a1.258,1.258,0,0,1,.9.193v.127a7.3,7.3,0,0,1-4.671,3.72c-.465.114-.946.158-1.42.235a4.125,4.125,0,0,1-2.922-.314,6.226,6.226,0,0,1-2.449-1.605,1.825,1.825,0,0,1-.418-.7,4.63,4.63,0,0,0-2.436-2.937.557.557,0,0,1-.312-.3c.055-.319.355-.335.569-.435a15.224,15.224,0,0,0,4.786-3.255,11.016,11.016,0,0,0,2.38-3.846,1.829,1.829,0,0,1,.432-.9A.352.352,0,0,1-4637.111,282.446Z" transform="translate(-246.624 -64.157)" fill="#eda100"/>
        <path id="Trazado_189957" data-name="Trazado 189957" d="M-4738.651,205.111a1.963,1.963,0,0,1,1.47,1.374,3.017,3.017,0,0,0,1.691,1.444c-.255.675-.9.606-1.378.565a4.061,4.061,0,0,1-3.674-2.262c-.169-.365-.57-.562-.64-.98l.247-.142Z" transform="translate(-167.293)" fill="#1176be"/>
        <path id="Trazado_189958" data-name="Trazado 189958" d="M-4941.978,301.268a3.973,3.973,0,0,1-.246-2.56,2.753,2.753,0,0,1,1.153-2.266,4.42,4.42,0,0,1,3.033-1.074c1.981-.007,3.963,0,5.946,0,.379-.037.76-.017,1.14-.023a.511.511,0,0,0,.576-.584c0-.253.006-.507.006-.76q0-16.884,0-33.768a1.786,1.786,0,0,1,.2-1.222l12.829,0c.181.329-.04.577-.205.8a3.009,3.009,0,0,1-1.336,1.128,1.344,1.344,0,0,0-.9,1.126,6.62,6.62,0,0,0-.021,1.892,1.455,1.455,0,0,0,.981,1.277,2.808,2.808,0,0,1,1.456,1.434,1.1,1.1,0,0,1,.182.74,3.369,3.369,0,0,1-.686.652,2.625,2.625,0,0,0-.779,3.105,2.724,2.724,0,0,0,2.546,1.877c1.752-.038,3.5-.015,5.253-.018a2.056,2.056,0,0,1,.933.111c.293.234.234.571.236.879.01,1.331,0,2.663.005,3.994a21.407,21.407,0,0,0,2.219,10.174,7.092,7.092,0,0,1,.764,2.537,1.093,1.093,0,0,1-.084.8.668.668,0,0,1-.409.153c-.352.026-.451.236-.461.555a10.759,10.759,0,0,1-.062,1.834.913.913,0,0,1-.549.495,53.193,53.193,0,0,1-5.408,2.167.93.93,0,0,1-.373.058c-.272-.059-.4-.3-.575-.473a1.773,1.773,0,0,0-1.915-.48,1.809,1.809,0,0,0-1.27,1.516c-.042.244,0,.515-.212.709a25.127,25.127,0,0,1-3.6.946c-1.89.429-3.788.819-5.708,1.088-.244.034-.5.126-.707-.111.054-.349.374-.364.609-.456,1.751-.684,3.506-1.361,5.275-2a1.85,1.85,0,0,0,1.057-.926c1.428-2.613,2.833-5.239,4.284-7.84.042-.074.079-.15.125-.221.1-.159.2-.368.421-.325.182.036.205.251.249.411.112.408.212.819.357,1.216a.793.793,0,0,0,1.046.557.782.782,0,0,0,.559-1.039c-.35-1.35-.711-2.7-1.066-4.045a.843.843,0,0,0-1.207-.661c-1.2.415-2.443.674-3.655,1.044a1.76,1.76,0,0,0-.636.271.752.752,0,0,0-.275.9.736.736,0,0,0,.776.528,8.429,8.429,0,0,0,1.363-.278c.206-.04.441-.121.594.07s.008.408-.084.588c-.88,1.709-1.836,3.377-2.743,5.072-.418.782-.872,1.546-1.266,2.341a1.829,1.829,0,0,1-1.045.95c-2.211.842-4.434,1.652-6.645,2.5-1.078.412-1.1.443-.952,1.617a.321.321,0,0,1-.042.182,1.1,1.1,0,0,1-.782.253,2.046,2.046,0,0,0-.646.058,52.456,52.456,0,0,1-7.026.468,5.933,5.933,0,0,0-1.533.052A2.816,2.816,0,0,1-4941.978,301.268Z" transform="translate(-0.272 -44.751)" fill="#dce9f3"/>
        <path id="Trazado_189959" data-name="Trazado 189959" d="M-4740,452.2c.007-.672.051-1.347.009-2.016-.033-.518.111-.745.648-.655a1.742,1.742,0,0,0,.376-.017,1.063,1.063,0,0,1,.722-.18q6.522-.008,13.045,0a1.941,1.941,0,0,1,.5.053c.343.1.349.385.359.662a18.88,18.88,0,0,1-1.791,8.8,24.368,24.368,0,0,1-11.112,11.257c-.579.308-1.165.6-1.762.873a1.471,1.471,0,0,1-.958.252q-.009-4.344-.019-8.687c0-.274-.014-.549-.022-.823a1.277,1.277,0,0,1-.18-.846q-.006-3.881,0-7.761A1.786,1.786,0,0,1-4740,452.2Z" transform="translate(-168.118 -202.8)" fill="#2e5f86"/>
        <path id="Trazado_189960" data-name="Trazado 189960" d="M-4942.6,271.119c-.008-.232-.022-.464-.022-.7,0-10.34.035-20.679-.026-31.019a4.242,4.242,0,0,1,4.474-4.465c1.307.073,2.62.026,3.931.033a.951.951,0,0,1,.173.719,106.429,106.429,0,0,1-.709,12.631,71.379,71.379,0,0,1-2.019,10.76,36.1,36.1,0,0,1-4.93,11.194C-4941.954,270.607-4942.1,271.05-4942.6,271.119Z" transform="translate(0 -24.763)" fill="#3789c9"/>
        <path id="Trazado_189961" data-name="Trazado 189961" d="M-4808.312,222.683a2.988,2.988,0,0,0-1.643-1.481,1.213,1.213,0,0,1-.792-.983,7.083,7.083,0,0,1-.062-2.139,1.533,1.533,0,0,1,1.1-1.395,2.576,2.576,0,0,0,1.533-1.74,3.1,3.1,0,0,0,.231-2.9,1.359,1.359,0,0,1,.214-1.535c.31-.372.634-.734.975-1.077a1.924,1.924,0,0,1,2.322-.537,3.845,3.845,0,0,0,4.275-1.887c.234-.513.471-1,1.121-1.065a2.451,2.451,0,0,1,.9,1.173,4.05,4.05,0,0,0,4.5,1.732.515.515,0,0,0,.286-.228,4.234,4.234,0,0,0,2.166.377c-.068.311-.293.216-.472.2a2.614,2.614,0,0,1,1.274,3.3,3.833,3.833,0,0,0,1.78,4.008,1.979,1.979,0,0,1,1.268,1.99c0,.38.014.761,0,1.141a1.808,1.808,0,0,1-1.22,1.817c-.5.176-.78.733-1.35.792a7.61,7.61,0,0,0-1.28.007,8.294,8.294,0,0,0-1.491-.016.955.955,0,0,1-.637-.743,4.385,4.385,0,0,1,.374-1.123,4.914,4.914,0,0,0-.4-3.708,4.89,4.89,0,0,0-7.419-1.48,4.9,4.9,0,0,0-1.226,6.187c.116.238.415.49.055.775a8.291,8.291,0,0,1-1.955.084c-.718.018-1.438.031-2.154,0A4.395,4.395,0,0,0-4808.312,222.683Z" transform="translate(-109.434 -0.694)" fill="#3789c9"/>
        <path id="Trazado_189962" data-name="Trazado 189962" d="M-4942.467,271.152a26.112,26.112,0,0,0,3.771-6.616,52.648,52.648,0,0,0,3.145-11.143c.369-2,.628-4.015.825-6.043.233-2.406.391-4.812.519-7.225.091-1.709.032-3.414.1-5.12,1.773-.1,1.771-.1,1.774,1.636,0,.8.012,1.6.018,2.395a1.269,1.269,0,0,1,.185.849q.005,17.4,0,34.8a1.163,1.163,0,0,1-.22.9c-1.963,0-3.927,0-5.89.01a4.06,4.06,0,0,0-4.123,3.157c-.13-.044-.123-.155-.122-.258Q-4942.479,274.824-4942.467,271.152Z" transform="translate(-0.129 -24.796)" fill="#1176be"/>
        <path id="Trazado_189963" data-name="Trazado 189963" d="M-4641.233,354.56a7.116,7.116,0,0,0,5.351,2.085q0,12.053,0,24.106a2.021,2.021,0,0,1-2.265,2.271l-4.821,0c-.3-.29-.216-.669-.217-1.018-.008-3.339-.017-6.678.007-10.016,0-.6-.145-.976-.77-1.066-.414-.407-.118-.877-.117-1.321a11.491,11.491,0,0,1,1.319-3.81,15.113,15.113,0,0,0,1.515-8.784c-.081-.668-.129-1.342-.215-2.011C-4641.454,354.816-4641.469,354.628-4641.233,354.56Z" transform="translate(-247.854 -124.102)" fill="#b7d4eb"/>
        <path id="Trazado_189964" data-name="Trazado 189964" d="M-4722.852,449.764c1.014.053,1.012.053,1.014,1.12q.009,5.545.02,11.089c-.007,3.507-.026,7.014-.007,10.521,0,.527-.126.657-.655.655q-7.955-.032-15.91,0c-.57,0-.8-.13-.714-.716a7.575,7.575,0,0,0,.025-.949,32.075,32.075,0,0,0,5.341-2.864,23.621,23.621,0,0,0,8.412-9.719,19.256,19.256,0,0,0,1.607-5.94c.107-1.055.069-2.1.109-3.155A.543.543,0,0,1-4722.852,449.764Z" transform="translate(-169.005 -203.048)" fill="#264b69"/>
        <path id="Trazado_189965" data-name="Trazado 189965" d="M-4906.189,466.266l0,9.523q-15.3,0-30.595,0a3.841,3.841,0,0,1-3.53-2.405c.312-.269.685-.078,1.025-.137.5-.167,1.027.053,1.524-.124,2.261.055,4.5-.226,6.752-.391a1.578,1.578,0,0,0,.356-.115.693.693,0,0,0,.633,0,2.439,2.439,0,0,0,.781-.132,3.289,3.289,0,0,0,2.2-.392c.215-.093.443-.255.7-.076a6.652,6.652,0,0,0,2.148-.231c2.645-.459,5.254-1.083,7.864-1.708.264.077.293.338.41.528a1.873,1.873,0,0,0,2.228.856,1.863,1.863,0,0,0,1.257-1.969c-.017-.223-.139-.453.021-.671A56.172,56.172,0,0,0-4906.189,466.266Z" transform="translate(-1.933 -216.862)" fill="#c7def0"/>
        <path id="Trazado_189966" data-name="Trazado 189966" d="M-4882.733,295.486c.005-.274.015-.548.015-.823q0-17.452,0-34.9c0-.274.012-.548.018-.823l2.007.014q0,17.967.013,35.934c0,.46-.108.659-.6.618S-4882.247,295.489-4882.733,295.486Z" transform="translate(-49.75 -44.697)" fill="#b7d4eb"/>
        <path id="Trazado_189967" data-name="Trazado 189967" d="M-4671.239,258.975l10.022.006a.533.533,0,0,1,.157.339,16.185,16.185,0,0,1-.155,4.1.94.94,0,0,1-.518.439,7.1,7.1,0,0,0-2.975,2.771,1.129,1.129,0,0,1-1.129.643c-.591-.025-1.184-.006-1.775,0a4.933,4.933,0,0,1-1.132-.053,5.463,5.463,0,0,0-1.89-1.126c-.014-.421.307-.605.608-.72a1.915,1.915,0,0,0,1.283-2.207c-.02-.231-.005-.465,0-.7a1.589,1.589,0,0,0-1-1.61,2.959,2.959,0,0,1-1.391-1.249C-4671.253,259.418-4671.42,259.22-4671.239,258.975Z" transform="translate(-225.307 -44.728)" fill="#deeaf4"/>
        <path id="Trazado_189968" data-name="Trazado 189968" d="M-4693.474,228.1a2.658,2.658,0,0,0,1.6,1.765,1.548,1.548,0,0,1,1.051,1.563q.021.729,0,1.458a1.533,1.533,0,0,1-1.041,1.57,1.847,1.847,0,0,0-1,.738,5.01,5.01,0,0,0-1.763,1.112.668.668,0,0,1-.469.011,7.507,7.507,0,0,1-1.173-1.024c.638-.349,1.253-.751,1.847-1.156.876-.6.817-3.283.011-3.98-.369-.319-.9-.328-1.244-.725-1.077-1.248-1.75-2.595-1.094-4.268.37-.942-.255-1.5-.727-2.131-.2-.269-.419-.526-.618-.774.106-.066.375.105.55-.1.6-.122,1.153-.618,1.8-.2a5.516,5.516,0,0,1,2.134,2.272,1.011,1.011,0,0,1-.062.913A3.113,3.113,0,0,0-4693.474,228.1Z" transform="translate(-203.072 -13.851)" fill="#1176be"/>
        <path id="Trazado_189969" data-name="Trazado 189969" d="M-4612.519,263.494a37.96,37.96,0,0,0,.129-4.527,2.76,2.76,0,0,1,2.029.44,2.036,2.036,0,0,1,.761,1.648c-.01.65,0,1.3,0,1.949l-.379.042A9.215,9.215,0,0,1-4612.519,263.494Z" transform="translate(-274.134 -44.715)" fill="#b7d4eb"/>
        <path id="Trazado_189970" data-name="Trazado 189970" d="M-4691,314.789c-.14.111-.1.263-.09.407-.3.35-.459-.027-.6-.16a8.033,8.033,0,0,0-1.823-1.358,6.557,6.557,0,0,0-2.682-.694c-.992-.055-1.988-.033-2.981-.007a1.364,1.364,0,0,0-1.5,1.313,1.37,1.37,0,0,0,1.505,1.368c1.057.028,2.114,0,3.172.011a1.246,1.246,0,0,1,1.15.539,1.176,1.176,0,0,1-.8,1.8,6.054,6.054,0,0,1-1.33.026c-.539-.031-.7.211-.687.717a3.978,3.978,0,0,0,1.385,3.08,2.6,2.6,0,0,1,.279.258,1.207,1.207,0,0,1,.065,1.618,1.171,1.171,0,0,1-1.656.121,6.277,6.277,0,0,1-2.443-4.689c-.013-.211-.009-.423,0-.634a.588.588,0,0,0-.468-.656,3.748,3.748,0,0,1-2.414-4.562.579.579,0,0,0-.253-.755,2.261,2.261,0,0,1-.926-1.984c.01-.93,0-1.861,0-2.792a1.648,1.648,0,0,1,.234-1.032.194.194,0,0,1,.184-.057,2.358,2.358,0,0,1,.449,1.031,5.868,5.868,0,0,0,2.011,2.782c.281.212.57.389.928.209.339-.17.252-.5.257-.789.014-.929,0-1.858-.007-2.787.1-.175.21-.34.454-.307a1.923,1.923,0,0,1,.417.908,6.962,6.962,0,0,0,1.336,2.206,2.161,2.161,0,0,0,2.064.671,3.415,3.415,0,0,1,.991.118.831.831,0,0,1,.626.3,4.831,4.831,0,0,1,2.87,3.224A3.612,3.612,0,0,0-4691,314.789Z" transform="translate(-198.085 -84.331)" fill="#f8a87a"/>
        <path id="Trazado_189971" data-name="Trazado 189971" d="M-4649.627,291.35l-.641-.15c-.039-.05-.1-.092-.1-.156a16.848,16.848,0,0,1,0-3.832c.007-.064.068-.1.107-.154a9.6,9.6,0,0,0,2.145-.056c.732-.18.813-1.091,1.305-1.6a8.68,8.68,0,0,1,2.772-1.959,6.772,6.772,0,0,1,2.538-.448,11.722,11.722,0,0,1-6.267,7.427C-4648.384,290.745-4649.008,291.042-4649.627,291.35Z" transform="translate(-242.61 -64.668)" fill="#ffbc13"/>
        <path id="Trazado_189972" data-name="Trazado 189972" d="M-4599.992,308.346v5.592c-.3-.862-.6-1.726-.9-2.586a.585.585,0,0,1,0-.42C-4600.594,310.07-4600.371,309.181-4599.992,308.346Z" transform="translate(-283.753 -85.726)" fill="#b7d4e9"/>
        <path id="Trazado_189973" data-name="Trazado 189973" d="M-4733.665,331.659l-.758.043q-5.973-.011-11.946-.023c-.842,0-1.685-.013-2.527-.02a7.426,7.426,0,0,0-.837-3.28,20.086,20.086,0,0,1-2.113-8.006c-.148-2.325-.029-4.646-.1-6.968a1.089,1.089,0,0,1-.191-.774c0-1.508-.026-3.016.032-4.522a1.3,1.3,0,0,1,.218-.631.2.2,0,0,1,.182-.073c.294.195.325.532.425.825a5.89,5.89,0,0,0,2.758,3.342c.665.376.715.711.187,1.281a2.008,2.008,0,0,1-1.258.679c-.408.044-.542.188-.447.615a20.527,20.527,0,0,0,6.208,11.246,19.286,19.286,0,0,0,7.854,4.239c.631.175,1.259.364,1.906.477.208.036.427.063.515.3Z" transform="translate(-158.192 -84.943)" fill="#f8a87a"/>
        <path id="Trazado_189974" data-name="Trazado 189974" d="M-4873.489,424.079c-.532.2-1.068.385-1.593.6a1.235,1.235,0,0,1-1.309-.132c-.514-.976-.333-1.432.717-1.826q3.467-1.3,6.933-2.6a1.121,1.121,0,0,0,.688-.5q2.165-4.015,4.349-8.019a1.561,1.561,0,0,0,.074-.215,4.663,4.663,0,0,0-1.469.3c-.831.193-1.329-.039-1.49-.725-.139-.594.208-1.034.962-1.243,1.3-.36,2.622-.633,3.891-1.109a.988.988,0,0,1,1.3.764q.526,2.02,1.046,4.042c.18.7-.06,1.2-.646,1.359-.644.174-1.084-.112-1.3-.847-.072-.243-.145-.485-.212-.729s-.126-.486-.2-.784a3.91,3.91,0,0,0-.644,1.032c-1.342,2.443-2.684,4.886-4,7.345a2.146,2.146,0,0,1-1.235,1.087C-4869.585,422.592-4871.535,423.342-4873.489,424.079Z" transform="translate(-54.787 -168.932)" fill="#2e5f86"/>
        <path id="Trazado_189975" data-name="Trazado 189975" d="M-4795.666,306l-.138.5a4.2,4.2,0,0,1-1.789,2.986,11.725,11.725,0,0,1-4.66,2.432,3.055,3.055,0,0,1-2.631-2.434c-.279-1.319.313-2.478,1.735-3.393a1.152,1.152,0,0,1,.955-.4c2.057-.032,4.114-.076,6.17.019A.43.43,0,0,1-4795.666,306Z" transform="translate(-114.34 -83.488)" fill="#ffbc13"/>
        <path id="Trazado_189976" data-name="Trazado 189976" d="M-4794.981,475.643a2.07,2.07,0,0,1-2,2.911,2.141,2.141,0,0,1-1.917-1.655c.05-1.555.853-2.457,2.138-2.407A2.212,2.212,0,0,1-4794.981,475.643Z" transform="translate(-119.366 -223.691)" fill="#3789ca"/>
        <path id="Trazado_189977" data-name="Trazado 189977" d="M-4854.626,434.993c.027.438.429.594.668.867.519.591.565,1.088.1,1.552s-.979.41-1.557-.1c-.272-.24-.427-.642-.867-.666q-.724-.679-1.4-1.4c-.014-.422-.4-.569-.627-.826a1.072,1.072,0,0,1-.074-1.571,1.081,1.081,0,0,1,1.528.113c.259.227.407.611.826.63Q-4855.306,434.268-4854.626,434.993Z" transform="translate(-69.712 -188.888)" fill="#3789c9"/>
        <path id="Trazado_189978" data-name="Trazado 189978" d="M-4789.043,316.09c1.075-.525,2.2-.948,3.222-1.579a6.548,6.548,0,0,0,3.228-3.839q0,2.724.005,5.448Z" transform="translate(-127.55 -87.657)" fill="#eda100"/>
        <path id="Trazado_189979" data-name="Trazado 189979" d="M-4788.353,301.793c-1.832.007-3.663.024-5.495.014a5.272,5.272,0,0,0-1.735.242l-.257-.617a1.519,1.519,0,0,1,1.462-.628c1.68-.023,3.36-.018,5.04-.024A1.408,1.408,0,0,1-4788.353,301.793Z" transform="translate(-121.906 -79.443)" fill="#1176be"/>
        <path id="Trazado_189980" data-name="Trazado 189980" d="M-4857.876,448.287a3.052,3.052,0,0,1,1.4,1.4,10.175,10.175,0,0,1-.793.8.957.957,0,0,1-1.359-.1.931.931,0,0,1-.055-1.313A8.228,8.228,0,0,1-4857.876,448.287Z" transform="translate(-69.52 -201.932)" fill="#1276be"/>
        <path id="Trazado_189981" data-name="Trazado 189981" d="M-4841.59,434.943a3.054,3.054,0,0,1-1.4-1.4,10.351,10.351,0,0,1,.749-.767,1,1,0,0,1,1.376.046,1,1,0,0,1,.046,1.376A10.5,10.5,0,0,1-4841.59,434.943Z" transform="translate(-82.748 -188.838)" fill="#1276be"/>
        <path id="Trazado_189982" data-name="Trazado 189982" d="M-4932.749,506.6c-.49.262-1.018.063-1.524.124C-4933.783,506.461-4933.255,506.658-4932.749,506.6Z" transform="translate(-6.952 -250.34)" fill="#cee3f2"/>
        <path id="Trazado_189983" data-name="Trazado 189983" d="M-4882.747,503.665a.427.427,0,0,1-.633,0Z" transform="translate(-49.213 -247.918)" fill="#c6dff1"/>
        <path id="Trazado_189984" data-name="Trazado 189984" d="M-4731.523,319.183c-1.259-.329-2.539-.583-3.766-1.028a19.321,19.321,0,0,1-8.14-5.4,21.362,21.362,0,0,1-4.7-9.677c-.174-.782-.182-.776.586-.919a2.173,2.173,0,0,0,1.005-.506c.614-.52.579-.828-.1-1.213a6.264,6.264,0,0,1-3.015-4.243c-.167-.464.25-.61.477-.844a1.848,1.848,0,0,1,.841-.4,2.155,2.155,0,0,1,.9,0,2.112,2.112,0,0,1,1.443,1.089c.024.19.081.375.1.566a1.418,1.418,0,0,1,.212.9c.006.906-.033,1.814.016,2.719a1.775,1.775,0,0,0,1.186,1.646,1.732,1.732,0,0,0,1.883-.358c.471-.41.45-.629-.076-.941a5.976,5.976,0,0,1-2.925-3.94c-.083-.366-.248.232-.286-.055-.025-.164-.076-.322-.087-.487a1.483,1.483,0,0,1,.239-1.093,2.205,2.205,0,0,1,2.225-1.1,1.218,1.218,0,0,1,1.07.65l.509.663a.924.924,0,0,1,.274.89,23.26,23.26,0,0,0-.111,4.292,1.708,1.708,0,0,0,.958,1.48c.366.2.339.388.226.7a3.546,3.546,0,0,0,2.465,4.547c.476.085.4.425.388.727a6.326,6.326,0,0,0,1.127,3.939,7.745,7.745,0,0,0,1.172,1.239,1.027,1.027,0,0,0,1.521-.017,1.021,1.021,0,0,0-.167-1.514,3.914,3.914,0,0,1-1.562-2.637,11.747,11.747,0,0,1-.057-1.2c-.017-.3.115-.418.412-.409.422.012.845,0,1.268,0,.933,0,1.373-.335,1.359-1.032-.014-.676-.441-1-1.328-1-1.014,0-2.029,0-3.043,0a1.543,1.543,0,0,1-1.71-1.541,1.523,1.523,0,0,1,1.685-1.5,26.834,26.834,0,0,1,3.853.109,6.7,6.7,0,0,1,3.462,1.7c.239.215.345.636.786.59a11.137,11.137,0,0,1,.339,2.67,14.988,14.988,0,0,1-1.609,8.259A11.708,11.708,0,0,0-4731.523,319.183Z" transform="translate(-160.225 -73.713)" fill="#fbc4a6"/>
        <path id="Trazado_189985" data-name="Trazado 189985" d="M-4749.317,270.255h-1c-1.452.4-1.852.15-1.676-1.54a5.245,5.245,0,0,1,6.5-4.566,1.745,1.745,0,0,1,1.127.645,5.04,5.04,0,0,1-.014,4.94c-1.249-.856-2.162-.706-3.173.521C-4748.138,270.622-4748.727,270.366-4749.317,270.255Z" transform="translate(-158.286 -48.895)" fill="#deeaf4"/>
        <path id="Trazado_189986" data-name="Trazado 189986" d="M-4753.585,255.409a5.059,5.059,0,0,0-7.485,4.5c0,.943.01.95.96.952.19,0,.381,0,.571,0-.518.272-1.073.5-1.28,1.126l-.126.029-.252-.165-.985-1.013a5.21,5.21,0,0,1-.784-4.271,5,5,0,0,1,4.117-3.8,5.069,5.069,0,0,1,5.187,2.4A1.089,1.089,0,0,1-4753.585,255.409Z" transform="translate(-149.062 -39.51)" fill="#b7d4eb"/>
        <path id="Trazado_189987" data-name="Trazado 189987" d="M-4697.9,302.246a15.712,15.712,0,0,1,.091,3.509c0,.34-.729.5-1.1.254a6.13,6.13,0,0,1-2.682-4.145,1.084,1.084,0,0,1,1.13-.927,2.271,2.271,0,0,1,1.289,0,2.223,2.223,0,0,1,1.146.938C-4697.885,301.962-4697.769,302.063-4697.9,302.246Z" transform="translate(-200.169 -79.494)" fill="#fbc4a6"/>
        <path id="Trazado_189988" data-name="Trazado 189988" d="M-4702.382,300.863a2.25,2.25,0,0,0-1.13.927.322.322,0,0,0-.118.022c-.214-.259-.166-.6-.274-.89A2.138,2.138,0,0,1-4702.382,300.863Z" transform="translate(-198.248 -79.42)" fill="#1977be"/>
        <path id="Trazado_189989" data-name="Trazado 189989" d="M-4674.075,305.883c-1.685.012-2.742-.816-3.424-2.693-.149-.412-.273-.834-.409-1.252q-.051-.038-.032-.073c.013-.023.025-.034.037-.034a2.091,2.091,0,0,1,1.771-1.038,2.042,2.042,0,0,1,1.8,1.044.766.766,0,0,1,.4.677,24.113,24.113,0,0,1,.012,3.029A.571.571,0,0,1-4674.075,305.883Z" transform="translate(-219.805 -79.454)" fill="#fbc4a6"/>
        <path id="Trazado_189990" data-name="Trazado 189990" d="M-4656.383,311c0-.944-.017-1.888,0-2.832a2.493,2.493,0,0,0-.253-1.213l1.261.008q0,2.071,0,4.141Z" transform="translate(-237.497 -84.567)" fill="#eda100"/>
        <path id="Trazado_189991" data-name="Trazado 189991" d="M-4680.082,306.908a.521.521,0,0,1,0,.107c-.122.085-.14.31-.357.267l-.125-.376Z" transform="translate(-217.625 -84.53)" fill="#ffbc20"/>
        <path id="Trazado_189992" data-name="Trazado 189992" d="M-4727.589,308.271l.252-.328a7.281,7.281,0,0,0,1.481,2.932,5.566,5.566,0,0,0,1.785,1.364c.374.174.381.353.193.675a2.02,2.02,0,0,1-2.125.9,2,2,0,0,1-1.582-1.892c-.021-.843-.011-1.688,0-2.532a3.7,3.7,0,0,0-.122-1.122Q-4727.646,308.179-4727.589,308.271Z" transform="translate(-178.481 -85.391)" fill="#f8a87a"/>
        <path id="Trazado_189993" data-name="Trazado 189993" d="M-4736.039,300.913h1.769a1.81,1.81,0,0,0-.241,1.01.17.17,0,0,1-.248.01A2.671,2.671,0,0,0-4736.039,300.913Z" transform="translate(-171.564 -79.553)" fill="#b7d4ea"/>
        <path id="Trazado_189994" data-name="Trazado 189994" d="M-4728.492,306.877l.248-.01,0,.51-.06,0-.06-.007Z" transform="translate(-177.831 -84.498)" fill="#f1a718"/>
      </g>
    </g>
  </g>
</svg>
