<svg xmlns="http://www.w3.org/2000/svg" width="329.316" height="431.106" viewBox="0 0 329.316 431.106">
  <g id="Grupo_124761" data-name="Grupo 124761" transform="translate(-285 -5317.18)">
    <path id="Trazado_190740" data-name="Trazado 190740" d="M21,0H308.316a21,21,0,0,1,21,21V410.106a21,21,0,0,1-21,21H21a21,21,0,0,1-21-21V21A21,21,0,0,1,21,0Z" transform="translate(285 5317.18)" fill="#eeeffb"/>
    <g id="Grupo_122823" data-name="Grupo 122823" transform="translate(328.76 5351.876)">
      <g id="Background_Simple" data-name="Background Simple" transform="translate(0 0)">
        <g id="Grupo_122790" data-name="Grupo 122790" transform="translate(0 0)">
          <path id="Trazado_188774" data-name="Trazado 188774" d="M119.738,8.767s43.774-5.935,78.621,27.865,44.991,87.146,54.277,130.148-8.785,80.333-42.928,91.322-49.375-20.482-91.807-31.726S62.653,218.966,32.493,185,8.376,88.818,45.535,50.4,119.738,8.767,119.738,8.767Z" transform="translate(-13.264 -8.366)" fill="#ffebf1"/>
        </g>
      </g>
      <g id="Graphics" transform="translate(25.446 9.976)">
        <g id="Grupo_122810" data-name="Grupo 122810" transform="translate(0 0)">
          <path id="Trazado_188776" data-name="Trazado 188776" d="M267.273,167.826,58.623,158.193V35.783L267.273,26.15Z" transform="translate(-58.623 -26.15)" fill="#fff"/>
          <path id="Trazado_188777" data-name="Trazado 188777" d="M264.99,166.375,66.042,158V46.42L264.99,38.043Z" transform="translate(-61.88 -31.371)" fill="none" stroke="#12263f" stroke-miterlimit="10" stroke-width="1"/>
          <g id="Grupo_122809" data-name="Grupo 122809" transform="translate(11.851 16.456)">
            <path id="Trazado_188778" data-name="Trazado 188778" d="M141.946,70.84l-59.46,1.708a2.632,2.632,0,0,1-2.551-2.8h0a2.835,2.835,0,0,1,2.551-2.956l59.46-1.946a2.785,2.785,0,0,1,2.777,2.91h0A3,3,0,0,1,141.946,70.84Z" transform="translate(-79.829 -59.593)" fill="#ffebf1"/>
            <path id="Trazado_188779" data-name="Trazado 188779" d="M106.233,69.924a2.685,2.685,0,0,0-2.636-2.839l-21.112.691a2.835,2.835,0,0,0-2.551,2.956,2.632,2.632,0,0,0,2.551,2.8l21.112-.606A2.891,2.891,0,0,0,106.233,69.924Z" transform="translate(-79.829 -60.575)" fill="#ff8daf"/>
            <path id="Trazado_188780" data-name="Trazado 188780" d="M141.946,91.706l-59.46,1.245a2.658,2.658,0,0,1-2.551-2.819h0A2.809,2.809,0,0,1,82.485,87.2l59.46-1.482a2.811,2.811,0,0,1,2.777,2.932h0A2.971,2.971,0,0,1,141.946,91.706Z" transform="translate(-79.829 -68.754)" fill="#ffebf1"/>
            <path id="Trazado_188781" data-name="Trazado 188781" d="M121.106,89.647h0a2.749,2.749,0,0,0-2.69-2.887l-35.93.9a2.809,2.809,0,0,0-2.551,2.936h0a2.658,2.658,0,0,0,2.551,2.819l35.93-.752A2.905,2.905,0,0,0,121.106,89.647Z" transform="translate(-79.829 -69.213)" fill="#ff8daf"/>
            <path id="Trazado_188782" data-name="Trazado 188782" d="M141.946,112.573l-59.46.781a2.682,2.682,0,0,1-2.551-2.839h0a2.782,2.782,0,0,1,2.551-2.916l59.46-1.019a2.837,2.837,0,0,1,2.777,2.954h0A2.944,2.944,0,0,1,141.946,112.573Z" transform="translate(-79.829 -77.915)" fill="#ffebf1"/>
            <path id="Trazado_188783" data-name="Trazado 188783" d="M131.583,109.909a2.8,2.8,0,0,0-2.728-2.928l-46.369.794a2.782,2.782,0,0,0-2.551,2.916,2.682,2.682,0,0,0,2.551,2.839l46.369-.609A2.906,2.906,0,0,0,131.583,109.909Z" transform="translate(-79.829 -78.09)" fill="#ff8daf"/>
            <path id="Trazado_188784" data-name="Trazado 188784" d="M141.946,133.438l-59.46.318a2.708,2.708,0,0,1-2.551-2.859h0a2.756,2.756,0,0,1,2.551-2.9l59.46-.555a2.864,2.864,0,0,1,2.777,2.976h0A2.915,2.915,0,0,1,141.946,133.438Z" transform="translate(-79.829 -87.075)" fill="#ff8daf"/>
            <path id="Trazado_188785" data-name="Trazado 188785" d="M208.54,70.028l-8.149.234a2.8,2.8,0,0,1-2.791-2.924h0a3.02,3.02,0,0,1,2.791-3.1l8.149-.266a2.824,2.824,0,0,1,2.832,2.938h0A3.042,3.042,0,0,1,208.54,70.028Z" transform="translate(-137.154 -59.211)" fill="#ff8daf"/>
            <path id="Trazado_188786" data-name="Trazado 188786" d="M208.54,91.1l-8.149.171a2.83,2.83,0,0,1-2.791-2.945h0a2.992,2.992,0,0,1,2.791-3.074l8.149-.2a2.851,2.851,0,0,1,2.832,2.961h0A3.013,3.013,0,0,1,208.54,91.1Z" transform="translate(-137.154 -68.463)" fill="#ff8daf"/>
            <path id="Trazado_188787" data-name="Trazado 188787" d="M208.54,112.176l-8.149.107a2.856,2.856,0,0,1-2.791-2.967h0a2.963,2.963,0,0,1,2.791-3.051l8.149-.14a2.878,2.878,0,0,1,2.832,2.983h0A2.985,2.985,0,0,1,208.54,112.176Z" transform="translate(-137.154 -77.714)" fill="#ff8daf"/>
            <path id="Trazado_188788" data-name="Trazado 188788" d="M208.54,133.249l-8.149.044A2.884,2.884,0,0,1,197.6,130.3h0a2.936,2.936,0,0,1,2.791-3.03l8.149-.076a2.9,2.9,0,0,1,2.832,3.005h0A2.956,2.956,0,0,1,208.54,133.249Z" transform="translate(-137.154 -86.966)" fill="#ff8daf"/>
            <line id="Línea_263" data-name="Línea 263" y1="0.333" x2="9.57" transform="translate(3.12 3.851)" fill="none" stroke="#fff" stroke-miterlimit="10" stroke-width="1"/>
            <line id="Línea_264" data-name="Línea 264" y1="0.255" x2="9.57" transform="translate(3.12 15.723)" fill="none" stroke="#fff" stroke-miterlimit="10" stroke-width="1"/>
            <line id="Línea_265" data-name="Línea 265" y1="0.181" x2="9.57" transform="translate(3.12 26.987)" fill="none" stroke="#fff" stroke-miterlimit="10" stroke-width="1"/>
            <line id="Línea_266" data-name="Línea 266" y1="0.102" x2="9.57" transform="translate(3.12 38.86)" fill="none" stroke="#fff" stroke-miterlimit="10" stroke-width="1"/>
            <g id="Grupo_122794" data-name="Grupo 122794" transform="translate(159.543 3.915)">
              <g id="Grupo_122791" data-name="Grupo 122791" transform="translate(0 0.341)">
                <line id="Línea_267" data-name="Línea 267" y1="0.247" x2="8.026" transform="translate(4.661)" fill="none" stroke="#fff" stroke-miterlimit="10" stroke-width="1"/>
                <line id="Línea_268" data-name="Línea 268" y1="0.338" x2="12.687" transform="translate(0 6.82)" fill="none" stroke="#fff" stroke-miterlimit="10" stroke-width="1"/>
                <line id="Línea_269" data-name="Línea 269" y1="0.18" x2="8.026" transform="translate(4.661 13.64)" fill="none" stroke="#fff" stroke-miterlimit="10" stroke-width="1"/>
                <line id="Línea_270" data-name="Línea 270" y1="0.086" x2="4.708" transform="translate(7.979 20.459)" fill="none" stroke="#fff" stroke-miterlimit="10" stroke-width="1"/>
                <line id="Línea_271" data-name="Línea 271" y1="0.113" x2="8.026" transform="translate(4.661 27.279)" fill="none" stroke="#fff" stroke-miterlimit="10" stroke-width="1"/>
                <line id="Línea_272" data-name="Línea 272" y1="0.1" x2="10.165" transform="translate(2.522 34.099)" fill="none" stroke="#fff" stroke-miterlimit="10" stroke-width="1"/>
                <line id="Línea_273" data-name="Línea 273" y1="0.045" x2="8.026" transform="translate(4.661 40.919)" fill="none" stroke="#fff" stroke-miterlimit="10" stroke-width="1"/>
                <line id="Línea_274" data-name="Línea 274" y1="0.018" x2="11.912" transform="translate(0.775 47.739)" fill="none" stroke="#fff" stroke-miterlimit="10" stroke-width="1"/>
                <line id="Línea_275" data-name="Línea 275" x2="8.026" y2="0.022" transform="translate(4.661 54.537)" fill="none" stroke="#fff" stroke-miterlimit="10" stroke-width="1"/>
              </g>
              <g id="Grupo_122792" data-name="Grupo 122792" transform="translate(14.771 0.201)">
                <path id="Trazado_188789" data-name="Trazado 188789" d="M418.953,62.9l2.434-.075" transform="translate(-418.933 -62.821)" fill="none" stroke="#fff" stroke-miterlimit="10" stroke-width="1"/>
                <path id="Trazado_188790" data-name="Trazado 188790" d="M418.952,75.076l2.434-.065" transform="translate(-418.933 -68.172)" fill="none" stroke="#fff" stroke-miterlimit="10" stroke-width="1"/>
                <path id="Trazado_188791" data-name="Trazado 188791" d="M418.953,87.256l2.434-.054" transform="translate(-418.933 -73.524)" fill="none" stroke="#fff" stroke-miterlimit="10" stroke-width="1"/>
                <path id="Trazado_188792" data-name="Trazado 188792" d="M419.066,99.436l2.37-.044" transform="translate(-418.983 -78.876)" fill="none" stroke="#fff" stroke-miterlimit="10" stroke-width="1"/>
                <path id="Trazado_188793" data-name="Trazado 188793" d="M418.953,111.617l2.434-.034" transform="translate(-418.933 -84.228)" fill="none" stroke="#fff" stroke-miterlimit="10" stroke-width="1"/>
                <path id="Trazado_188794" data-name="Trazado 188794" d="M419.044,123.8l2.383-.024" transform="translate(-418.973 -89.579)" fill="none" stroke="#fff" stroke-miterlimit="10" stroke-width="1"/>
                <path id="Trazado_188795" data-name="Trazado 188795" d="M418.953,135.977l2.434-.013" transform="translate(-418.933 -94.931)" fill="none" stroke="#fff" stroke-miterlimit="10" stroke-width="1"/>
                <path id="Trazado_188796" data-name="Trazado 188796" d="M418.918,148.158l2.453,0" transform="translate(-418.918 -100.282)" fill="none" stroke="#fff" stroke-miterlimit="10" stroke-width="1"/>
                <path id="Trazado_188797" data-name="Trazado 188797" d="M418.953,160.333l2.434.007" transform="translate(-418.933 -105.629)" fill="none" stroke="#fff" stroke-miterlimit="10" stroke-width="1"/>
              </g>
              <g id="Grupo_122793" data-name="Grupo 122793" transform="translate(19.568)">
                <path id="Trazado_188798" data-name="Trazado 188798" d="M427.529,62.59l4.168-.128" transform="translate(-427.495 -62.462)" fill="none" stroke="#fff" stroke-miterlimit="10" stroke-width="1"/>
                <path id="Trazado_188799" data-name="Trazado 188799" d="M427.529,74.812,431.7,74.7" transform="translate(-427.495 -67.835)" fill="none" stroke="#fff" stroke-miterlimit="10" stroke-width="1"/>
                <path id="Trazado_188800" data-name="Trazado 188800" d="M427.529,87.034l4.168-.094" transform="translate(-427.495 -73.208)" fill="none" stroke="#fff" stroke-miterlimit="10" stroke-width="1"/>
                <path id="Trazado_188801" data-name="Trazado 188801" d="M427.722,99.254l4.059-.074" transform="translate(-427.58 -78.581)" fill="none" stroke="#fff" stroke-miterlimit="10" stroke-width="1"/>
                <path id="Trazado_188802" data-name="Trazado 188802" d="M427.529,111.477l4.168-.058" transform="translate(-427.495 -83.954)" fill="none" stroke="#fff" stroke-miterlimit="10" stroke-width="1"/>
                <path id="Trazado_188803" data-name="Trazado 188803" d="M427.686,123.7l4.08-.04" transform="translate(-427.564 -89.327)" fill="none" stroke="#fff" stroke-miterlimit="10" stroke-width="1"/>
                <path id="Trazado_188804" data-name="Trazado 188804" d="M427.529,135.922l4.168-.024" transform="translate(-427.495 -94.7)" fill="none" stroke="#fff" stroke-miterlimit="10" stroke-width="1"/>
                <path id="Trazado_188805" data-name="Trazado 188805" d="M427.469,148.143l4.2-.006" transform="translate(-427.469 -100.073)" fill="none" stroke="#fff" stroke-miterlimit="10" stroke-width="1"/>
                <path id="Trazado_188806" data-name="Trazado 188806" d="M427.529,160.356l4.168.012" transform="translate(-427.495 -105.438)" fill="none" stroke="#fff" stroke-miterlimit="10" stroke-width="1"/>
              </g>
            </g>
            <g id="Grupo_122795" data-name="Grupo 122795" transform="translate(76.362 42.356)">
              <line id="Línea_276" data-name="Línea 276" y1="0.055" x2="81.58" transform="translate(0 10.94)" fill="none" stroke="#ff8daf" stroke-miterlimit="10" stroke-width="1"/>
              <line id="Línea_277" data-name="Línea 277" y1="0.333" x2="81.58" transform="translate(0 5.47)" fill="none" stroke="#ff8daf" stroke-miterlimit="10" stroke-width="1"/>
              <line id="Línea_278" data-name="Línea 278" y1="0.61" x2="81.58" fill="none" stroke="#ff8daf" stroke-miterlimit="10" stroke-width="1"/>
            </g>
            <g id="Grupo_122797" data-name="Grupo 122797" transform="translate(70.926 37.363)">
              <g id="Grupo_122796" data-name="Grupo 122796">
                <path id="Trazado_188807" data-name="Trazado 188807" d="M317.871,148.8V124.119s-1.916-2.429-9.806-1.979c-7.812.445-9.687,7.348-17.935,11.362-8.163,3.972-12.082-2.461-18.83-2.426-6.69.035-10.014,7.482-14.846,10.3-4.8,2.806-9.074-.364-14.815.327a8.152,8.152,0,0,0-6.932,5.9l-.082.7Z" transform="translate(-234.626 -122.084)" fill="#ffebf1"/>
              </g>
              <path id="Trazado_188808" data-name="Trazado 188808" d="M323.6,159.088V145.532c-2.7-.146-8.3.3-14.248,5.256-5.909,4.923-16.555,2.343-19.671,1.2a17.848,17.848,0,0,0-16.32,1.685c-5.629,3.565-10.26,3.239-15.508,3.213a38.771,38.771,0,0,0-10.181,1.742Z" transform="translate(-240.351 -132.368)" fill="#ff8daf"/>
            </g>
            <path id="Trazado_188809" data-name="Trazado 188809" d="M258.493,233.826l-14.515-.452a2.627,2.627,0,0,1-2.456-2.677h0a2.448,2.448,0,0,1,2.456-2.532l14.515.4a2.663,2.663,0,0,1,2.51,2.7h0A2.48,2.48,0,0,1,258.493,233.826Z" transform="translate(-158.796 -131.29)" fill="#ff5e8e"/>
            <path id="Trazado_188810" data-name="Trazado 188810" d="M310.234,235.362l-15.067-.469a2.7,2.7,0,0,1-2.549-2.728h0a2.515,2.515,0,0,1,2.549-2.579l15.067.418a2.737,2.737,0,0,1,2.607,2.756h0A2.549,2.549,0,0,1,310.234,235.362Z" transform="translate(-183.806 -131.914)" fill="#ff5e8e"/>
            <path id="Trazado_188811" data-name="Trazado 188811" d="M362.789,236.924l-15.639-.487a2.774,2.774,0,0,1-2.644-2.781h0a2.584,2.584,0,0,1,2.644-2.626l15.639.434a2.814,2.814,0,0,1,2.706,2.809h0A2.621,2.621,0,0,1,362.789,236.924Z" transform="translate(-209.227 -132.548)" fill="#ff5e8e"/>
            <g id="Grupo_122801" data-name="Grupo 122801" transform="translate(0 57.249)">
              <g id="Grupo_122798" data-name="Grupo 122798" transform="translate(0 1.319)">
                <line id="Línea_279" data-name="Línea 279" x2="80.459" y2="1.905" transform="translate(0 29.887)" fill="none" stroke="#ffebf1" stroke-miterlimit="10" stroke-width="1"/>
                <line id="Línea_280" data-name="Línea 280" x2="80.459" y2="1.666" transform="translate(0 25.618)" fill="none" stroke="#ffebf1" stroke-miterlimit="10" stroke-width="1"/>
                <line id="Línea_281" data-name="Línea 281" x2="80.459" y2="1.428" transform="translate(0 21.348)" fill="none" stroke="#ffebf1" stroke-miterlimit="10" stroke-width="1"/>
                <line id="Línea_282" data-name="Línea 282" x2="80.459" y2="1.189" transform="translate(0 17.078)" fill="none" stroke="#ffebf1" stroke-miterlimit="10" stroke-width="1"/>
                <line id="Línea_283" data-name="Línea 283" x2="80.459" y2="0.95" transform="translate(0 12.809)" fill="none" stroke="#ffebf1" stroke-miterlimit="10" stroke-width="1"/>
                <line id="Línea_284" data-name="Línea 284" x2="80.459" y2="0.712" transform="translate(0 8.539)" fill="none" stroke="#ffebf1" stroke-miterlimit="10" stroke-width="1"/>
                <line id="Línea_285" data-name="Línea 285" x2="80.459" y2="0.473" transform="translate(0 4.27)" fill="none" stroke="#ffebf1" stroke-miterlimit="10" stroke-width="1"/>
                <line id="Línea_286" data-name="Línea 286" x2="80.459" y2="0.234" fill="none" stroke="#ffebf1" stroke-miterlimit="10" stroke-width="1"/>
              </g>
              <g id="Grupo_122800" data-name="Grupo 122800" transform="translate(1.998)">
                <g id="Grupo_122799" data-name="Grupo 122799">
                  <path id="Trazado_188812" data-name="Trazado 188812" d="M91.019,208.389l-7.711-.207V191.253l7.711.117Z" transform="translate(-83.308 -172.335)" fill="#ff8daf"/>
                  <path id="Trazado_188813" data-name="Trazado 188813" d="M110.419,205.07l-7.827-.21V183.022l7.827.092Z" transform="translate(-91.774 -168.721)" fill="#ff8daf"/>
                  <path id="Trazado_188814" data-name="Trazado 188814" d="M130.113,202.537l-7.946-.213V176.574l7.946.074Z" transform="translate(-100.367 -165.891)" fill="#ff8daf"/>
                  <path id="Trazado_188815" data-name="Trazado 188815" d="M150.109,194.48l-8.068-.217V157.531l8.068.016Z" transform="translate(-109.092 -157.531)" fill="#ff8daf"/>
                  <path id="Trazado_188816" data-name="Trazado 188816" d="M170.412,203.311l-8.193-.22V176.945l8.193.076Z" transform="translate(-117.95 -166.054)" fill="#ff8daf"/>
                  <path id="Trazado_188817" data-name="Trazado 188817" d="M191.031,210.135l-8.321-.224V191.779l8.321.123Z" transform="translate(-126.946 -172.566)" fill="#ff8daf"/>
                  <path id="Trazado_188818" data-name="Trazado 188818" d="M211.973,216.2l-8.451-.227v-11.1l8.451.165Z" transform="translate(-136.082 -178.316)" fill="#ff8daf"/>
                </g>
                <line id="Línea_287" data-name="Línea 287" x2="6.272" y2="0.187" transform="translate(0.366 40.122)" fill="none" stroke="#fff" stroke-linecap="round" stroke-linejoin="round" stroke-width="1"/>
                <line id="Línea_288" data-name="Línea 288" x2="6.368" y2="0.19" transform="translate(11.26 40.447)" fill="none" stroke="#fff" stroke-linecap="round" stroke-linejoin="round" stroke-width="1"/>
                <line id="Línea_289" data-name="Línea 289" x2="6.465" y2="0.193" transform="translate(22.32 40.777)" fill="none" stroke="#fff" stroke-linecap="round" stroke-linejoin="round" stroke-width="1"/>
                <line id="Línea_290" data-name="Línea 290" x2="6.565" y2="0.196" transform="translate(33.55 41.112)" fill="none" stroke="#fff" stroke-linecap="round" stroke-linejoin="round" stroke-width="1"/>
                <line id="Línea_291" data-name="Línea 291" x2="6.667" y2="0.199" transform="translate(44.953 41.452)" fill="none" stroke="#fff" stroke-linecap="round" stroke-linejoin="round" stroke-width="1"/>
                <line id="Línea_292" data-name="Línea 292" x2="6.772" y2="0.202" transform="translate(56.535 41.797)" fill="none" stroke="#fff" stroke-linecap="round" stroke-linejoin="round" stroke-width="1"/>
                <line id="Línea_293" data-name="Línea 293" x2="6.879" y2="0.205" transform="translate(68.298 42.148)" fill="none" stroke="#fff" stroke-linecap="round" stroke-linejoin="round" stroke-width="1"/>
              </g>
            </g>
            <g id="Grupo_122802" data-name="Grupo 122802" transform="translate(160.541 66.417)">
              <path id="Trazado_188819" data-name="Trazado 188819" d="M394.368,177.9v-4.025l10.944.082v4.052Z" transform="translate(-394.368 -173.873)" fill="#ff8daf"/>
              <path id="Trazado_188820" data-name="Trazado 188820" d="M394.368,187.941v-4.024l14.039.154v4.059Z" transform="translate(-394.368 -178.282)" fill="#ff5e8e"/>
              <path id="Trazado_188821" data-name="Trazado 188821" d="M394.368,197.984v-4.025l16.453.237v4.066Z" transform="translate(-394.368 -182.691)" fill="#ff8daf"/>
              <path id="Trazado_188822" data-name="Trazado 188822" d="M394.368,208.027V204l23.393.419V208.5Z" transform="translate(-394.368 -187.1)" fill="#ff5e8e"/>
              <path id="Trazado_188823" data-name="Trazado 188823" d="M394.368,218.071v-4.024l16.453.352v4.065Z" transform="translate(-394.368 -191.509)" fill="#ff8daf"/>
              <path id="Trazado_188824" data-name="Trazado 188824" d="M394.368,228.114v-4.025l11.287.281v4.053Z" transform="translate(-394.368 -195.918)" fill="#ff5e8e"/>
              <path id="Trazado_188825" data-name="Trazado 188825" d="M394.368,238.157v-4.025l6.836.194v4.041Z" transform="translate(-394.368 -200.327)" fill="#ff8daf"/>
            </g>
            <g id="Grupo_122806" data-name="Grupo 122806" transform="translate(72.629 68.105)">
              <g id="Grupo_122803" data-name="Grupo 122803">
                <path id="Trazado_188826" data-name="Trazado 188826" d="M260.988,189.375c0,6.843-5.283,12.258-11.752,12.1-6.414-.16-11.575-5.751-11.575-12.491s5.161-12.156,11.575-12.1C255.7,176.939,260.988,182.533,260.988,189.375Z" transform="translate(-237.661 -176.881)" fill="#ffebf1"/>
                <path id="Trazado_188827" data-name="Trazado 188827" d="M249.791,176.916c-.185-.011-.368-.033-.555-.034-6.414-.057-11.575,5.36-11.575,12.1s5.161,12.331,11.575,12.491c.187,0,.37-.011.555-.016Z" transform="translate(-237.661 -176.881)" fill="#ff5e8e"/>
                <path id="Trazado_188828" data-name="Trazado 188828" d="M260.121,192.291a8.109,8.109,0,0,1-8.1,8.353,8.456,8.456,0,0,1-8.011-8.625,8.118,8.118,0,0,1,8.011-8.354A8.446,8.446,0,0,1,260.121,192.291Z" transform="translate(-240.45 -179.859)" fill="#263238"/>
              </g>
              <g id="Grupo_122804" data-name="Grupo 122804" transform="translate(28.135 0.255)">
                <path id="Trazado_188829" data-name="Trazado 188829" d="M312.013,190.065a12.062,12.062,0,0,1-12.194,12.317,12.582,12.582,0,0,1-12.007-12.726,12.078,12.078,0,0,1,12.007-12.32A12.562,12.562,0,0,1,312.013,190.065Z" transform="translate(-287.812 -177.335)" fill="#ff8daf"/>
                <path id="Trazado_188830" data-name="Trazado 188830" d="M311.111,193.034a8.33,8.33,0,0,1-8.4,8.505,8.685,8.685,0,0,1-8.31-8.788,8.337,8.337,0,0,1,8.31-8.506A8.676,8.676,0,0,1,311.111,193.034Z" transform="translate(-290.705 -180.368)" fill="#263238"/>
              </g>
              <g id="Grupo_122805" data-name="Grupo 122805" transform="translate(57.325 0.519)">
                <path id="Trazado_188831" data-name="Trazado 188831" d="M364.969,190.781a12.4,12.4,0,0,1-12.661,12.546,12.932,12.932,0,0,1-12.464-12.971,12.414,12.414,0,0,1,12.464-12.55A12.916,12.916,0,0,1,364.969,190.781Z" transform="translate(-339.845 -177.806)" fill="#ff8daf"/>
                <path id="Trazado_188832" data-name="Trazado 188832" d="M352.907,177.842c-.2-.011-.4-.034-.6-.036a12.414,12.414,0,0,0-12.464,12.55,12.932,12.932,0,0,0,12.464,12.971c.2.005.4-.011.6-.016Z" transform="translate(-339.845 -177.806)" fill="#ffebf1"/>
                <path id="Trazado_188833" data-name="Trazado 188833" d="M364.032,193.8a8.564,8.564,0,0,1-8.721,8.663,8.927,8.927,0,0,1-8.627-8.956,8.57,8.57,0,0,1,8.627-8.665A8.92,8.92,0,0,1,364.032,193.8Z" transform="translate(-342.847 -180.897)" fill="#263238"/>
              </g>
              <line id="Línea_294" data-name="Línea 294" x2="5.333" y2="0.092" transform="translate(9.08 12.87)" fill="none" stroke="#fff" stroke-miterlimit="10" stroke-width="1"/>
              <line id="Línea_295" data-name="Línea 295" x2="5.533" y2="0.096" transform="translate(37.668 13.364)" fill="none" stroke="#fff" stroke-miterlimit="10" stroke-width="1"/>
              <line id="Línea_296" data-name="Línea 296" x2="5.742" y2="0.099" transform="translate(66.803 13.869)" fill="none" stroke="#fff" stroke-miterlimit="10" stroke-width="1"/>
            </g>
            <g id="Grupo_122808" data-name="Grupo 122808" transform="translate(80.012)">
              <g id="Grupo_122807" data-name="Grupo 122807">
                <path id="Trazado_188834" data-name="Trazado 188834" d="M305.185,83.049l.042-.427-.125.125.083.3Z" transform="translate(-270.123 -67.397)" fill="#ff8daf"/>
                <path id="Trazado_188835" data-name="Trazado 188835" d="M275.548,94.233l.288.044.655-.2-.943-.3.131.308-.384.088.253.065Z" transform="translate(-257.038 -72.291)" fill="#ff8daf"/>
                <path id="Trazado_188836" data-name="Trazado 188836" d="M268.7,86.617l-1.449-.579-.26.151.04-.217-.466-.314-.531.226.171-.264-.4-.114-.127.178.25-.472-.3-.672-.34-.3-.767-.1-.02.007-.553-.555-.287-.027.053-.187-.293-.119.026-.126-.167-.052-.38.163-.629-.163-.319-.295-.057.146-.266.181.066.33-.21-.076.087-.3-.026-.156.048-.045.048-.141-.572.312-.091-.013-.449.68-.043.013-.123-.175-.274-.145-.279.126-.314,0-.323-.424.118-.936-.218-.173-.783.031,0,0-.079-.052.113-.492.043-.03h0l.231-.751-.479-.025-.439.68-.608.1-.222-.116-.321-.518.009-1.164-.081-.033.081.033-.057-.289.048-.216.668-.525.652.15.087-.082.174.136-.083-.238.309-.142.078.058.261-.041.183.146.135.022.183-.074.5,1.151.148.027.087-.268-.274-1.106.894-1,.017-.15.048-.081.135.007.048-.136-.131-.228,0-.11-.126-.187.078-.082.031-.3.066,0,.035.49.087-.067.039-.392.14-.013.1-.283.4-.165-.3,0,.319-.123.1-.1.166.011-.052-.174.153-.365.257-.252.245,0,.586-.432.013.1.179.076-.4.206-.022.251.258-.061.188-.191.456-.152.039-.117.263-.117-.074-.089,0-.155-.32.325-.35-.062-.214-.2-.026-.23-.088-.074-.017-.09.192-.3-.853.182-.428.433.494-.65.205-.076.144-.2,1.234-.1.9-.557-.017-.095-.057-.064.118-.139-.1-.173-.21.036-.013-.181-.5.195-.048-.089.512-.24-.959-.606.022-.061.158-.1-.617-1.128-.18.236-.066.263-.07.088-.118.023-.2.136-.323-.282-.1-.408.065-.192-.45-.142-.41-.369-.2.08-.6-.077-.083.168.126.151-.109.219.14.326-.2.487.3.262.044.5-.279.323-.274.123.161.712-.044.192.031.114-.088-.008-.109.143-.165-.066-.344-.5.008-.526-.109-.137-1.631-.641-.291.108.026-.111-.23-.474-.217-.054.126-.8.664-.714-.591-.263.678.111.048-.2.292.047.278-.338-.491-.226.013-.126.392.209.3-.254-.113-.127.153-.08.126.1.209-.031-.109-.157.035-.061.135.131h.169l.292-.249-.161-.4,0-.095.2-.086-.117-.232-.679-.2.017.215.061.108-.035.1-.126.1-.1.228-.087-.137-.026.176.074.138-.139.114-.239-.328.082-.1,0-.15-.13-.151-.183-.044-.16.345-.066-.268.074-.187-.2-.084-.148.049.009-.2.113-.048-.3-.256.008-.2-.252-.192-.048-.1.143-.125.044-.221.3.02.282-.454-.526-.164-.408.088.052.133-.126-.011.109.767-.122.134.061.134-.16-.015.009.609.395.148-.065.3.1-.083.087.122-.326.234v.22l-.1.088-.1-.182.026-.176-.225-.068.143-.029.1-.094.226-.026-.108-.192-.156-.01.161-.04-.334-.125-.425.228.321.235-.169.125-.013.146-1.079-.058-.173-.094-.1-.177-.32.025-.286.154.086.092.442-.168-.32.2-.026.48-.121-.056-.022-.184-1.335-.1.22-.181-.073-.168-1.265-.335-.664.135.009-.145-.065-.172-.262.326-.293-.439-.116.044-.211.281-.8.417.048-.126.679-.439-.168-.02-.658.319-.146-.08-.266.232.077.127-3.293-.615-.06-.112-.334.015-.094-.086-.248.067.077-.1-.154-.08-.684.3.043.117-.422.053-.226.226-.081.24-.486.129-.051.14.528.529h.324l.065.191.2.043-.64.138v-.154l-.239.017-.107.137-.166.025-.26.181.277.121-.034.11.145.159.584.007.342-.149-.056.155.021.3-.235.027-.1.186-.243-.072-.076.23-.192.169-.094.2.175.129-.008.213.238.256.227-.046.1-.1.06.474.593.023.081-.116.209.019-.064.463-.559.551-.3.043-.141.247,1.837-1.341-.154-.085.68-.744.116.051,0,.085-.2.05-.077.206.013.163-.068.1.077.072.381-.254.279-.023,0-.114-.085-.131.064-.111.4.078-.086.077.022.079.27-.063.043.044.639.047.172.129.236-.1-.039.14.549.407.112-.113.155.09.017-.19.077.018.013.293L249,70.94l-.134.043.31.494.013-.393.026.159.116-.078,0-.214.116.151-.064.156-.108.063.022.233.077-.082.125-.033.163.145-.077-.108,0-.125.15.22-.1.117-.167-.09.03.392.065-.076.108.042.043-.126.1.037.09-.057.017.159.081.012v.025l.082.112-.052.1.034.168.168-.015.043.128.241.183.047.352.508.23.073.133.263.082.168.235.035.233-.061.231-.089-.333.02-.094-.573-.488-.456-.088.615.551.276.646.026,2.131.651,1.081.406.145.829,1.522-.156.018.454.349.056.278.433.509.095-.072-.043-.179-.164-.076-.544-1.091.021-.12-.151-.071-.173-.5.069-.026.3.113.069.537,1.449,1.82-.008.165-.061.081.155.277,1.422.744.751.02.21.184h0l.215.206.661.2.063-.031h.058l.048.169.306.351-.015.089.052.194.113-.027.784.571.152-.048-.057-.124.1-.112.218-.084.236.456.03.847-.3.4v.031l-.135.082-.261.731.113.113.1.024-.087.142-.016,0-.163.2.074.31-.061.061,1.046,2,1.113.84-.812,6.188.091.15.087-.407.074-.086.053.085-.075.959-.1.066.017.15-.126-.059.087-.151-.1-.164.066.18-.218.153.008.111-.122.136.253.022.018.115-.061.141.183.018,0,.09-.248-.022-.131.127.074.1.1-.071.083.009-.205.233.091.164.144-.2-.057.332-.118.146,0,.135.205-.032.039.075-.092.106.118.014.066-.026.127.049-.175.082-.057.136.144-.057.3.017-.353.154,0,.09.4-.139-.249.208-.21-.028.022.15.3.1-.035-.075.406-.445-.057.241.179.008-.109.1.009.16-.083-.185-.039.141-.1-.039-.153.177.144.034.1.2.07-.176.14.209.07-.081.205.168-.026-.15.612-.116-.616-.466.017-.1-.069-.122h0l-.176-.086.023-.034.187.027-.127-.38.039-.212.6-.729.035-.221-.2-.058-.135-.344.323-.214.241-.675.109.074.078-.177-.135.042-.109-.059-.039-.382.315.092.228-.134.008-.376.07-.091.508-.041.376-.216.179-.3-.368-.633.071-.014.332.114.452-.051.61-1.124.018.281.452-.69.123-.831.774-.565.506-.068.563-1.2.053-1.15.035-.066.124.043.625-.978-.04-.659-.172-.128Zm-6.559,12.958-.009-.028.009.028Z" transform="translate(-242.751 -59.461)" fill="#ff8daf"/>
                <path id="Trazado_188837" data-name="Trazado 188837" d="M273.781,93.207l-1.317-.663-.7.3.339-.187.941.411.1.178.637-.033Z" transform="translate(-255.49 -71.752)" fill="#ff8daf"/>
                <path id="Trazado_188838" data-name="Trazado 188838" d="M273.911,94.543l.4.072-.4-.072Z" transform="translate(-256.43 -72.63)" fill="#ff8daf"/>
                <path id="Trazado_188839" data-name="Trazado 188839" d="M277.911,94.489l.324-.007-.324.007Z" transform="translate(-258.186 -72.604)" fill="#ff8daf"/>
                <path id="Trazado_188840" data-name="Trazado 188840" d="M269.35,102.111l.122.228-.122-.228Z" transform="translate(-254.428 -75.952)" fill="#ff8daf"/>
                <path id="Trazado_188841" data-name="Trazado 188841" d="M286.072,61.85l-.8-.016.094-.366.719.254.071-.3-.519-.509.295.031.189-.241-.478.008-.088-.145.077-.191.442.134.336-.1-.265-.274.442-.061.053-.157-.36-.244.348-.079-.094-.414-.354-.089-.148-.17.814-.067-.124-.238-.33-.07.271-.076-.56-.069.124-.428.685-.561-.136-.177-.33.132.272-.2.5-.1-.366-.089,1.241-.581-.686-.2-.407.229-.407.041-.177-.068-.725.57.33-.482-.124-.326-.89.441.412-.31-1.5.146,2.256-.555-3.161-.394-.335.207-1.5.066.2.2-.352.133.5.345-1.23-.333.24.307-.275.023-.363-.215-.018.289-.164.16-.105-.459-1.414.417.058.34-.379-.054-.892.586.484.071-.163.421-1.369.507.116.163,1.171.249-1.014.18.355.1.006.18.233.14,1.02-.127.952.4.7,1.13-.1.285.094.305.3-.157.07.226.38.2-.082.1-.526-.031.532.265.175.229-.041.316-.252.021-.322.506.193.189-.152.206.275.32.035.388.463.8,1.219.737.147-.179.082-.714.334-.453.006-.161.076-.11-.041-.167.029-.088.464-.4.1-.009.041.12.37-.1.688-.739L286,61.966l.077-.117Z" transform="translate(-257.325 -55.483)" fill="#ff8daf"/>
                <path id="Trazado_188842" data-name="Trazado 188842" d="M282.876,67.422l-.158-.163-.386-.069-.029.2.216.141.357-.1Z" transform="translate(-260.114 -60.623)" fill="#ff8daf"/>
                <path id="Trazado_188843" data-name="Trazado 188843" d="M268.409,63.141l.547.173.139-.075,1.61.018.174-.366-1.985-.106.061-.212-.938-.29-.495.1.877.411.009.35Z" transform="translate(-253.626 -58.468)" fill="#ff8daf"/>
                <path id="Trazado_188844" data-name="Trazado 188844" d="M273.445,73.013l.026-.251-.026.251Z" transform="translate(-256.226 -63.068)" fill="#ff8daf"/>
                <path id="Trazado_188845" data-name="Trazado 188845" d="M263.021,66.647l.277-.018-.659-.459-.13-1.145-.381.112.242.232-.268-.111-.208.007.13.545-.121.124-.147-.385-.363-.148.147.185-.225.027-.372-.218-.13.214-.147-.065.034-.26-.846.4-.06.161.173.294.457-.084-.509.245,1.235.211-1.071.223,1.14.5.874-.316,1.013.089-.13-.2-.147-.005.191-.156Z" transform="translate(-250.233 -59.671)" fill="#ff8daf"/>
                <path id="Trazado_188846" data-name="Trazado 188846" d="M272.078,72.653l.331-.26-.331.26Z" transform="translate(-255.626 -62.906)" fill="#ff8daf"/>
                <path id="Trazado_188847" data-name="Trazado 188847" d="M281.443,78.923l-.093-.071L280.771,80l.766-.027-.047.162.17-.085.368.084-.1-.319-.082-.051.012-.221-.333-.079-.088-.132-.152.011.018-.161.14-.258Z" transform="translate(-259.442 -65.742)" fill="#ff8daf"/>
                <path id="Trazado_188848" data-name="Trazado 188848" d="M278.893,79.818l.543.2-.543-.2Z" transform="translate(-258.617 -66.166)" fill="#ff8daf"/>
                <path id="Trazado_188849" data-name="Trazado 188849" d="M272.154,71.3l-.9-.695-.218.157-.217.617.244-.017.1.177.331-.22.653-.019Z" transform="translate(-255.074 -62.121)" fill="#ff8daf"/>
                <path id="Trazado_188850" data-name="Trazado 188850" d="M264.939,63.825l-.182-.1.182.1Z" transform="translate(-252.412 -59.099)" fill="#ff8daf"/>
                <path id="Trazado_188851" data-name="Trazado 188851" d="M274.685,69.074l.026-.3-.253-.062-.174.356.4.008Z" transform="translate(-256.594 -61.289)" fill="#ff8daf"/>
                <path id="Trazado_188852" data-name="Trazado 188852" d="M266.153,65.828l.347-.121.26-.558-.122-.026-.026.091-.243-.1.252-.248-.139-.206-.7.312.217.193-.39-.028.546.692Z" transform="translate(-252.785 -59.511)" fill="#ff8daf"/>
                <path id="Trazado_188853" data-name="Trazado 188853" d="M257.93,66.1l1.467-1.113-.242-.242-.906-.2-.612.129.086.206-.31.687.517.532Z" transform="translate(-249.188 -59.463)" fill="#ff8daf"/>
                <path id="Trazado_188854" data-name="Trazado 188854" d="M269.742,61.682l-.191.176.191-.176Z" transform="translate(-254.516 -58.204)" fill="#ff8daf"/>
                <path id="Trazado_188855" data-name="Trazado 188855" d="M259.688,63.537l.3-.239-.3.239Z" transform="translate(-250.186 -58.914)" fill="#ff8daf"/>
                <path id="Trazado_188856" data-name="Trazado 188856" d="M254.869,78.248l.295.485-.092-.345-.2-.14Z" transform="translate(-248.071 -65.477)" fill="#ff8daf"/>
                <path id="Trazado_188857" data-name="Trazado 188857" d="M268.282,61.578l-.573.139.573-.139Z" transform="translate(-253.708 -58.158)" fill="#ff8daf"/>
                <path id="Trazado_188858" data-name="Trazado 188858" d="M273.55,65.72l-.3.019-.89-.534-.218.2-.122-.046-.322.13.009-.381-.139-.266-.383.012-.418.2.061.328-.1.213.209.164-.331-.14-.044-.289.1-.324.2-.207-.774.245-.183.786.417.077-.043.1-.3.039,1.41.387.2-.106.444.056-.026-.139.043-.112.637.492-.192.2.305-.11.48.427v.391l.323-.04.306.161-.288.169-.5-.2-.052.383-.724.192-.113.284.925-.067.227.224.113.288,1.084.41-.516-.587.831.076-.63-.895.052-.252.28.1.289.313.411-.2.254-.3L274.2,66.7l.271-.079-.227-.124.114-.1-.1-.187-.14.085.035-.182-.446-.207-.253.068-.07-.068.166-.186Z" transform="translate(-254.673 -59.574)" fill="#ff8daf"/>
                <path id="Trazado_188859" data-name="Trazado 188859" d="M273.057,64.774l.122.277.3.1.471-.105-.5-.265-.392-.008Z" transform="translate(-256.055 -59.562)" fill="#ff8daf"/>
                <path id="Trazado_188860" data-name="Trazado 188860" d="M262.41,61.6l-.121-.086-.493.2.259.191.355-.3Z" transform="translate(-251.112 -58.129)" fill="#ff8daf"/>
                <path id="Trazado_188861" data-name="Trazado 188861" d="M264.609,60.529l.26.131-.312.07,1.135.2-.078-.247-.442-.305-.693-.087.13.235Z" transform="translate(-252.29 -57.595)" fill="#ff8daf"/>
                <path id="Trazado_188862" data-name="Trazado 188862" d="M261.409,61.755l-.259-.051.259.051Z" transform="translate(-250.828 -58.214)" fill="#ff8daf"/>
                <path id="Trazado_188863" data-name="Trazado 188863" d="M264.588,62l-.294-.26.294.26Z" transform="translate(-252.208 -58.231)" fill="#ff8daf"/>
                <path id="Trazado_188864" data-name="Trazado 188864" d="M260.588,62.871l.026.149-.164.195.2-.006-.345.141.518.033.155-.075.372.018-.285.189-.009.21,1.41-.345.069-.462-.216.1-.363-.437-.208.256.017.149.147.165-1.115-.423-.207.146Z" transform="translate(-250.456 -58.597)" fill="#ff8daf"/>
                <path id="Trazado_188865" data-name="Trazado 188865" d="M258.481,62.864l.293-.149.138.175.406-.492.06.2.337-.151v-.17l.121-.124-.155-.095-.121.094-.259-.021-.888.607.069.127Z" transform="translate(-249.626 -58.369)" fill="#ff8daf"/>
                <path id="Trazado_188866" data-name="Trazado 188866" d="M261.953,61.191l.562-.1-.424-.106-.372.192.233.012Z" transform="translate(-251.078 -57.899)" fill="#ff8daf"/>
                <path id="Trazado_188867" data-name="Trazado 188867" d="M267.663,59.138l.191.234h.573l-.347.2.738.366.278-.019.4-.454.331-.141-.383-.237-.087-.207-1.277-.537.017.1-.3.21.035.249-.173.236Z" transform="translate(-253.687 -56.739)" fill="#ff8daf"/>
                <path id="Trazado_188868" data-name="Trazado 188868" d="M267.28,61.161l.347-.081.017-.171-.616-.22.252.472Z" transform="translate(-253.409 -57.768)" fill="#ff8daf"/>
                <path id="Trazado_188869" data-name="Trazado 188869" d="M266.624,59.726l-.26-.1.26.1Z" transform="translate(-253.117 -57.301)" fill="#ff8daf"/>
                <path id="Trazado_188870" data-name="Trazado 188870" d="M268,63.514l-.495.236.59.141-.1-.377Z" transform="translate(-253.619 -59.009)" fill="#ff8daf"/>
                <path id="Trazado_188871" data-name="Trazado 188871" d="M265.629,62.464l.061.258-.225-.063-.069.162-.121.014-.321-.329-.026.281.312.24.468-.025-.043.281.408.007.165-.185-.017-.229-.226-.333-.364-.078Z" transform="translate(-252.486 -58.547)" fill="#ff8daf"/>
                <path id="Trazado_188872" data-name="Trazado 188872" d="M269.42,57.227l.113.026.078.087-.061.152.183.134.5,0,.061.108,1.393-.258v.19l-.645.182.244.292-.949-.238.009.36.749.516-.531-.1-.5.277.47-.006-.044.142.226.293-.261-.021-.339-.189-.035.361-.4.243,2.22-.022.087-.2-.645-.069.009-.131.514-.037.035-.222.366-.042.392-.474-.523-.113.445-.145.244-.219.384.017,1.442-.942-.586-.02,1.067-.358.052-.223-.534-.192-.446.086.079-.143-3.8.443-.322.251-.3-.04-.157.146-.417.054.148.045Z" transform="translate(-254.394 -55.854)" fill="#ff8daf"/>
                <path id="Trazado_188873" data-name="Trazado 188873" d="M243.8,78.215l.256-.156-.256.156Z" transform="translate(-243.212 -65.394)" fill="#ff8daf"/>
                <path id="Trazado_188874" data-name="Trazado 188874" d="M247.606,75.943l-.171.233-.141.063.081.172.1,0,.252-.216-.073-.132.137-.078-.039-.108-.15.069Z" transform="translate(-244.745 -64.435)" fill="#ff8daf"/>
                <path id="Trazado_188875" data-name="Trazado 188875" d="M243.135,74.968l-.171.074.269.086.038-.155-.136-.006Z" transform="translate(-242.845 -64.037)" fill="#ff8daf"/>
                <path id="Trazado_188876" data-name="Trazado 188876" d="M303,84.29l-.175.072L303,84.29Z" transform="translate(-269.121 -68.129)" fill="#ff8daf"/>
                <path id="Trazado_188877" data-name="Trazado 188877" d="M310.769,86.113l-.445-.04-.122.06.3.081.272-.1Z" transform="translate(-272.362 -68.912)" fill="#ff8daf"/>
                <path id="Trazado_188878" data-name="Trazado 188878" d="M313.7,86.081l.108-.148,0-.044-.287.105-.093.165.275-.078Z" transform="translate(-273.776 -68.831)" fill="#ff8daf"/>
                <path id="Trazado_188879" data-name="Trazado 188879" d="M295.073,70.18l.313-.322-.248-.434-.136.014-.192-.1-.024.139-.313.043-.1-.037-.133.108-.08-.045-.091.073-.026.1-.13.071-.053-.18-.3-.22.03.127-.074,0-.13.061-.1.154.433.041-.039.112-.33.144.289,0,.13.158-.168.183.254-.017.363.154.862-.328Z" transform="translate(-264.933 -61.566)" fill="#ff8daf"/>
                <path id="Trazado_188880" data-name="Trazado 188880" d="M298.414,77.457l.592-.235,0-.564.154-.114-.112-.253-.477.1.095.105-.163.1-.213.009.115.331-.053.194-.133.152.2.177Z" transform="translate(-267.1 -64.617)" fill="#ff8daf"/>
                <path id="Trazado_188881" data-name="Trazado 188881" d="M299.541,74.4l-.133.206.133-.206Z" transform="translate(-267.623 -63.789)" fill="#ff8daf"/>
                <path id="Trazado_188882" data-name="Trazado 188882" d="M299.555,74.577l.145.131-.074.17.106.118-.166.146.142-.061.083.136.116-.182.015.158-.071.231.287-.038.139.289-.018.206-.2.016-.062.039-.059.143.118.085-.192.16.077.092.329.055.018.057-.222.04-.255.364.148-.1.148.03.089-.1.3-.082.16.04.5-.192-.086-.045.015-.135.166-.224L300.945,76l0-.125-.483-.78-.181-.029.225-.553-.37-.01-.068-.072.151-.193.03-.136-.089.094-.216.009-.264.419-.121-.047Z" transform="translate(-267.688 -63.657)" fill="#ff8daf"/>
                <path id="Trazado_188883" data-name="Trazado 188883" d="M306.077,76.088l.146-.193.048-.248-.068.056-.069-.052-.131.068.077.207-.057.062.053.1Z" transform="translate(-270.519 -64.335)" fill="#ff8daf"/>
                <path id="Trazado_188884" data-name="Trazado 188884" d="M308.506,74.479l-.137.3.137-.3Z" transform="translate(-271.557 -63.822)" fill="#ff8daf"/>
                <path id="Trazado_188885" data-name="Trazado 188885" d="M309.942,73.787l-.128.021.128-.021Z" transform="translate(-272.192 -63.518)" fill="#ff8daf"/>
                <path id="Trazado_188886" data-name="Trazado 188886" d="M309.74,74.169l.209-.162-.129-.04-.08.2Z" transform="translate(-272.159 -63.597)" fill="#ff8daf"/>
                <path id="Trazado_188887" data-name="Trazado 188887" d="M308.378,58.027h.733l-.42.176.716.138.766-.478-.7-.093-.112.065-.116-.143-.036.225-.161-.1-.165,0-.219-.135.013.1-.147-.041,0,.127-.152-.117-.085.089.1.1-.022.087Z" transform="translate(-271.526 -56.448)" fill="#ff8daf"/>
                <path id="Trazado_188888" data-name="Trazado 188888" d="M305.852,59.535l.143.107-.268-.305.125.2Z" transform="translate(-270.397 -57.175)" fill="#ff8daf"/>
                <path id="Trazado_188889" data-name="Trazado 188889" d="M306.112,58.589l-.116.227.2.247.286.011.214-.286.018.136.174-.026.08.073-.558.267.183.075.4-.034-.554.2.2.176.2.019-.1.089.165.106.134-.05.474-.9.242-.089.04.049.031.172.071.079-.036.219.192.039.112.113.43-.283-.309-.076-.036-.09-.156-.061-.112-.123-.04-.131-.514-.181-.08-.175-.165.087.054-.164-.21-.074-.107-.1-.076.221.125.341-.362-.394-.08.185-.054.042-.152-.132.17-.077-.116-.042-.312.026-.161.087v.228l.21-.027Z" transform="translate(-270.474 -56.645)" fill="#ff8daf"/>
                <path id="Trazado_188890" data-name="Trazado 188890" d="M352.853,80.9l-.172.087-.117.278v.179l.215-.081-.123-.169.486.05.437-.224.339-.407-.4.127-.456-.36-.135.072-.074.449Z" transform="translate(-290.959 -66.411)" fill="#ff8daf"/>
                <path id="Trazado_188891" data-name="Trazado 188891" d="M348.8,86.226l-.086.167.116-.071.11.512.233-.4-.043-.15-.141-.113-.19.053Z" transform="translate(-289.268 -68.956)" fill="#ff8daf"/>
                <path id="Trazado_188892" data-name="Trazado 188892" d="M350.394,83.708l-.129.237-.687.119-.319.275v.137l.749-.223.086.2.246-.019.074-.16.061-.036.418-.017.123-.14.2-.039.1-.69.191-.259-.1-.616-.264.089-.142.622-.32.4-.135-.072-.154.189Z" transform="translate(-289.508 -67.335)" fill="#ff8daf"/>
                <path id="Trazado_188893" data-name="Trazado 188893" d="M349.922,86.192l.178-.08.141-.209-.209-.022-.2.067-.031.31.116-.065Z" transform="translate(-289.748 -68.827)" fill="#ff8daf"/>
                <path id="Trazado_188894" data-name="Trazado 188894" d="M345.274,90.851l.257-.725-.367.33.11.4Z" transform="translate(-287.711 -70.691)" fill="#ff8daf"/>
                <path id="Trazado_188895" data-name="Trazado 188895" d="M341.266,92.75l.11-.276-.256-.015-.2.319.348-.028Z" transform="translate(-285.847 -71.715)" fill="#ff8daf"/>
                <path id="Trazado_188896" data-name="Trazado 188896" d="M346.548,96.857l-.239.231-.184-.044-.239.162-.079.241.337-.178.172.394.214.119-.006-.295.221-.107-.049-.513-.147-.011Z" transform="translate(-287.993 -73.646)" fill="#ff8daf"/>
                <path id="Trazado_188897" data-name="Trazado 188897" d="M345.022,93.575l.11.491.649.336.251.592.159-.2-.055-.28-.373-.383-.288-.049-.1-.21.141-.332-.049-.458-.3-.021-.043.542-.1-.025Z" transform="translate(-287.648 -71.978)" fill="#ff8daf"/>
                <path id="Trazado_188898" data-name="Trazado 188898" d="M345.23,95.221l.2.243-.2-.243Z" transform="translate(-287.739 -72.928)" fill="#ff8daf"/>
                <path id="Trazado_188899" data-name="Trazado 188899" d="M344.348,96.45l-.263.389.373-.4.055-.248-.165.257Z" transform="translate(-287.237 -73.355)" fill="#ff8daf"/>
                <path id="Trazado_188900" data-name="Trazado 188900" d="M346.648,96.657l-.153.113.153-.113Z" transform="translate(-288.295 -73.558)" fill="#ff8daf"/>
                <path id="Trazado_188901" data-name="Trazado 188901" d="M346.131,96.1l-.312-.268.012.315.11-.071.049.438.22-.375-.08-.039Z" transform="translate(-287.998 -73.196)" fill="#ff8daf"/>
                <path id="Trazado_188902" data-name="Trazado 188902" d="M356.333,102.593l-.253.169-.444.028.339.166.432-.248.062-.208-.136.092Z" transform="translate(-292.307 -76.124)" fill="#ff8daf"/>
                <path id="Trazado_188903" data-name="Trazado 188903" d="M357.271,102.425l-.068-.233-.062.015.13.218Z" transform="translate(-292.968 -75.988)" fill="#ff8daf"/>
                <path id="Trazado_188904" data-name="Trazado 188904" d="M352.608,102.255l-2.1-1.049-.522.435-.221-.573-.472-.06-.178.154.11.06.116.156.331.015-.018.069-.3.074.129.2,1.124.386.117.266-.006.206-.2.189.479-.036.443.267.375-.336.437.1.456.446.438.082-.031-.144-.357-.262-.2-.5.043-.152Z" transform="translate(-289.445 -75.469)" fill="#ff8daf"/>
                <path id="Trazado_188905" data-name="Trazado 188905" d="M330.769,97.056l-.085.527.1.339.315-.333-.333-.532Z" transform="translate(-281.354 -73.733)" fill="#ff8daf"/>
                <path id="Trazado_188906" data-name="Trazado 188906" d="M318.466,106.214l-.072.069-.03.164-.222.207-.006.122-.69.371-.186,1.74.132.433.36.1.21-.091.606-2.27.12-.029-.222-.811Z" transform="translate(-275.46 -77.754)" fill="#ff8daf"/>
                <path id="Trazado_188907" data-name="Trazado 188907" d="M320.982,96.033l.207-.049-.207.049Z" transform="translate(-277.094 -73.263)" fill="#ff8daf"/>
                <path id="Trazado_188908" data-name="Trazado 188908" d="M354.573,118.859l-.356-.109.1.463.277.358.116-.094.046-.119.12.024.051-.609-.351.087Z" transform="translate(-291.685 -83.257)" fill="#ff8daf"/>
                <path id="Trazado_188909" data-name="Trazado 188909" d="M348.813,105.672l.267-.076-.267.076Z" transform="translate(-289.312 -77.482)" fill="#ff8daf"/>
                <path id="Trazado_188910" data-name="Trazado 188910" d="M351.135,116.405l.249-.039-.249.039Z" transform="translate(-290.331 -82.21)" fill="#ff8daf"/>
                <path id="Trazado_188911" data-name="Trazado 188911" d="M350.909,109.382l-.06-.557-.453-.5-.074-.241-.083-.076-.12.012-.2-.5-.48-.307-.393-1.149-.161.008-.263-.883-.134.172-.161,1.214-.175.276-.991-.639.037-.31.134-.11.069-.156-.046-.113-.078.094-.078-.122-.156.075-.6-.263.078.153-.318.113-.29.452.009.2-.239.04-.359-.3-.119.079-.064.109-.161.008-.037.1-.1.079-.041.227-.151-.013.032.174-.064.119-.083-.173-.161.1-.009.273-.3.334-1.265.528-.11.171-.023-.143-.105.171-.027.632.119.306-.124-.116.06.163-.147-.121.568,1.482-.046.309-.119.192.055.153.151.147.4.041,2.751-.957.617.234.014.144.184.193.051.257.553-.455-.217.513.193-.023.115-.069-.028.258.152-.012.286.615.632.26.263-.173.088.035.037.072.055-.047.208.193.291-.292.435-.093.768-2.56Z" transform="translate(-286.519 -77.303)" fill="#ff8daf"/>
                <path id="Trazado_188912" data-name="Trazado 188912" d="M362.843,121.866l.079-.1-.079.1Z" transform="translate(-295.471 -84.579)" fill="#ff8daf"/>
                <path id="Trazado_188913" data-name="Trazado 188913" d="M319.281,66.783l.378-.1-.18-.144-.2.244Z" transform="translate(-276.348 -60.336)" fill="#ff8daf"/>
                <path id="Trazado_188914" data-name="Trazado 188914" d="M320.567,62.971l.036.169.078-.077.421.279.529-.016-.277-.27-.072-.494.578-.9,2.122-1.178-2.513.816-.223.463-.174.108-.078.295-.325.228.066.154-.372.3.2.13Z" transform="translate(-276.823 -57.677)" fill="#ff8daf"/>
                <path id="Trazado_188915" data-name="Trazado 188915" d="M334.815,56.293l-.273.05.273-.05Z" transform="translate(-283.047 -55.839)" fill="#ff8daf"/>
                <path id="Trazado_188916" data-name="Trazado 188916" d="M353.431,62.464l-.271-.28-.345.19.615.09Z" transform="translate(-291.07 -58.424)" fill="#ff8daf"/>
                <path id="Trazado_188917" data-name="Trazado 188917" d="M352.882,61.9l-.2.1.2-.1Z" transform="translate(-291.012 -58.301)" fill="#ff8daf"/>
                <path id="Trazado_188918" data-name="Trazado 188918" d="M335.775,57.347l-.14.21.936.31.231-.438-.456-.238-.571.156Z" transform="translate(-283.527 -56.233)" fill="#ff8daf"/>
                <path id="Trazado_188919" data-name="Trazado 188919" d="M337.564,58.543l1.254-.37-.268-.189-.3.078.024-.124-.122-.146-.219.1-.073.187-.152.135-.146.333Z" transform="translate(-284.374 -56.496)" fill="#ff8daf"/>
                <path id="Trazado_188920" data-name="Trazado 188920" d="M351.788,60.9l.873-.083-.018-.267.381.242.148-.2-.056-.2-.449-.082-.3.092-.4-.2-.35.554.166.146Z" transform="translate(-290.545 -57.554)" fill="#ff8daf"/>
                <path id="Trazado_188921" data-name="Trazado 188921" d="M353.574,75.745l-.135-.271-.129,2.505.135-.155.179.167-.179-.477.062-.38.246-.034.068-.043-.246-1.313Z" transform="translate(-291.286 -64.259)" fill="#ff8daf"/>
                <path id="Trazado_188922" data-name="Trazado 188922" d="M342.161,62.026l-.122.113.372-.08-.25-.033Z" transform="translate(-286.338 -58.355)" fill="#ff8daf"/>
                <path id="Trazado_188923" data-name="Trazado 188923" d="M355.449,61.118l.5-.126-.863-.213-.142.163.505.176Z" transform="translate(-292.004 -57.808)" fill="#ff8daf"/>
                <path id="Trazado_188924" data-name="Trazado 188924" d="M335.158,56.672l-.049.091-.146.087.182.13.808-.382.055-.193-.237-.34-.529.291-.091.16.006.157Z" transform="translate(-283.233 -55.738)" fill="#ff8daf"/>
                <path id="Trazado_188925" data-name="Trazado 188925" d="M337.805,64.128l.237.048-.05-.065.046-.022.116.01.133-.194-.7-.356-.274,0,.1.1-.031.149-.133-.061-.009-.238-.081-.122-3-.986-.068.15.1.183-.053.229-.493-.254.254-.135-.264-.113-.247.225-1.154.011-.043.218-.055-.222-.273-.105.038-.149-.34-.32-1.278.073-.056-.112-.6-.2L329.6,61.8l.169-.095-.671-.1-.123.231-.222-.014.163-.118-.234-.072.117-.066.209-.006-1.092-.193-.046.108-.375.228h.166l-.055.125.065.156-.366,0-.058.053v.093l-.485-.157-.24.1-.429-.131-.246.426-.128-.04-.5-.534.233.013-.132-.49-.141-.105-.352.008L324.409,61l-.2.24,0,.175-1.031-.05.086-.112-1.088,0-.027.125-.034-.225-.1-.024-.214.041-.238-.13-.232.158.125.034-.905.35.052-.162,1.15-.66.1-.126.251-.117.094-.144-.092-.076.1-.044-.07-.217-.135-.023-.043-.187-.86-.05-.134.09-.259.036.149-.22-.582-.049.253-.118.024-.09-.39-.1-.271.074-.368.405.039.1-.429.1.134.112-.6.071.058-.131-.195.065-.137-.02-.331.106.125.092-1.223.384-.03.056-.076.06.054.08-.176,0,.2.144-.155.015.155.15-.022.1-1.182.154-.067.394.279.158.118.222-.966-.318-.13.12.2.1-.391.1.457.34-.03.069-.236-.128-.348-.024.036-.379-.088-.284-.106.338-.245.15-.082.146.233.31-.112.623.157.026.239-.065.393.138.076.175-.094.173.236.17-.23-.013-.094-.144.051-.169-.233-.235-.315.1.043.319-.511.625-.583-.02-.1-.1.344.061.462-.47.1-.351-.16-.192.042-.7-.166-.257.154-.57-.644-.1-.607.91.115.028-.106.452.242.095.087.185.123.068-.127.232-1.992-.813.057.189.28.164.093.188-.063.127-.244.134v-.136l-.123-.1-.313.186-.343.011-.189.162-.274-.016.144-.289-.277.1-.039.131-.09-.059-.883.4-.045.242-.345.061-.162-.168-.006-.145.321-.081-.123-.217-.51-.1.1.245-.078.257.141.28-.063.178h-.087l-.06-.066-.2-.038-.5.334.1.377-.453-.058-.23-.149-.123.132.06.131.2.072.018.139-.153.032-.344-.163-.152-.293.021-.3-.547-.475,1.269.379.587-.309-.018-.271-1.772-.753.149-.059-.134-.057-.266.032-.014-.011-.24,0-.132-.111.1.007.271-.117-.1-.112-.26-.107-.206.149.024-.13-.084-.126-.245.315,0-.193-.322.3.036-.147.131-.18L304.4,62.8l-.111.1-.143-.016-.036.089-.185.094-.068.223-.075-.147.149-.211-.236.065.012.152-.057.049-.152.008.113.112-.1-.011-.107-.071-.066.046.048.148-.068-.045-.113-.007-.015-.131-.14.018-.056.066-.018.105-.066.056-.209.036-.1.159.129-.014.027.08-.018.062-.1.017-.09-.058-.11.064.048-.191-.581.515.069,0,.589-.214-.018.122-.056.039-.081-.042-.434.632-.033.17-.158.035-.026.366-.265.079.113.139-.241.119-.223.324-.11-.095L301,65.97l-.3.168.107.088-.172.008-.2.192-.074.025-.092.1.077.112-.059.417.1.034.143-.064.036.07-.1.1-.08-.021-.068.07-.015.136.22-.01-.134.166.211.183.235.064.374-.324.14-.038.05-.167.491,1.378.158-.007.136-.214.167-.021.116-.108.071.032.113-.219-.071.015.03-.484.414-.529-.19-.234-.143-.04-.024-.257.364-.693.5-.4-.021-.219.078-.188.131-.122.32-.028.163.071.072.174-.808.89.009.785.531.2.808-.209.1-.142-.1.142.085-.036.128.145.176.039-1.192.291-.122.135.042.145.12.074.041.09,0,0-.018.227-.164.093-.179-.232-.194.107-.111.4.005.012-.01.312.031.034-.066.127-.232.016-.012.054-.11.067-.1-.139-.811.337-.017-.027-.12-.071.018-.132-.4.214-.324-.2-.092-.173.247.013-.071-.14-.092-.011.057-.143.128-.081-.1-.105.015-.356-.265.17.009.1L301,68.143l-.1.168.2.859-.086.094-.3.012-.006.048-.252.036-.084.161-.095.01-.092.056-.253.405-.21.1-.46.528L299,70.526l-.116.09.026.242-.174-.006-.122-.064-.2.029-.125.111.024.141.442.14.275.469-.125.688-1.262-.086-.165.122-.023,1.676.42.007.243.257.047-.075.554-.111.525-.553,0-.334.57-.48.083-.193-.012-.058.166-.231.368.082.594-.362,1.386,1.277.018.429.217-.33-.092-.177.194-.1.152.006-1.143-1.121,0-.23.089-.132.128-.022.071.164.155.071.178.316.675.439.039-.108-.039.108.049.48.134.191.009,0,.107.194.325.121-.215.025.146.348.188.1-.036-.229.14-.01-.093-.089.072-.045.146-.024-.066-.184-.167.01.066-.123-.164-.254.1-.067.162.023.039-.173.122.041.152-.089.254.133.189-.137.272-.037-.152-.135-.119-.342.2-.251v-.12l.206-.317v-.011l.269-.41.224-.043.021.149.329.046-.269.176.2.1.009.176.628-.2-.2-.056-.165-.182.884-.352-.252.173.078.127-.284.292.9.676.078.235-.047.08-.729.171-.721-.254-1.055.266-.1.179-.424.051-.042.17.084.062.024.453.233.2.1.031.125.142.424-.149.275.176.209-.045.189-.14.155.04.156-.051-.219.924.106.049,0,0-.015.134.015-.134-.1-.047-.215.557-1.793-.133-.006-.008-.578-.247-.45.271.027.3-.682-.133-.33-.286-.6-.126-.318-.245.158-.162.042-.508-.027-.08-1.907.123-.7.43-.76-.182-.219.471-.3.172-.263.417v.347L295.83,78.1l.156.621-.145.831.085.365-.026.138.023.105,1.732,1.829,1.028-.131.15.058,1.045-.454,0,0,.3.082.3.423.5-.1.084.125.155.034.056.222-.038.2,0,.007-.049.3-.034.049.077.113-.19.243.889,1.691-.033.241.125.478L301.608,87l1.272,4.118.19.153,1.354-.309,1.186-1.347.1-.493-.081-.087.571-.452-.081-1.083,1.191-1.2-.38-2,2.528-4.164-.132-.075-1.381.275-.1-.129-.029.039.029-.039-.109-.05.117-.108-2.188-4.381.338.588.122-.328,1.752,3.933,1.641-.614.2-.235.557-.178.078-.182.223-.045.132-.213.13-.078.069-.311.334-.4-.015-.126-.172-.238-.34-.135-.166-.527-.243.315-.625.289-.043-.012-.084-.145-.02-.359-.135.227-.015,0-.528-1.142.018-.039.373-.106.324.563.709.324.328-.109.157.3,1.952.12.136.279.4.3.223.008-.284.116.435.389.278-.364.967,3.339.381-.365.315-1.475,1.157-1.078.063-.24.843-.407.568,1.115-.03.373.085.125.2-.031.173-.236.107.09.837,3.2.594.427-.14-.77-.861-1.115.137-.844.173-.062.389.27.056.207.128.021.009.123.165.014.109.111-.058.2.1.09.29-.378.408-.183.161-.311-.049-.536-.67-1.156.4-.484.358-.039.1.3.055-.1.693-.474.559-.071.7-.683V76.2l.144-.079.394-.728-.278-.117.217-.125-.309-.27.3.027-.343-.633-.183-.14.2-.344.474-.251-.12-.144-.2-.088-.276.209-.128-.182-.214-.077,0-.288.85-.449-.172.5.144-.007.383-.249.1-.016.237.125-.123.254.037.14.1.056.159-.038.049.03.064.121-.058.75.6-.254.086-.1-.27-.72-.184-.189.058-.207.362-.256.073-.283.282-.3h0l.172-.109.239.145,1.342-1.576.381-1.566-.366-.358-.178.012-.129.172-.117.013-.015-.23-.129.169L327,68.307h-.236l.009-.172,1.666-1.489,1.419-.108.3.108-.1.154.793-.16-.084-.07-.016-.2.572-.632.343-.044.139.061.151-.07-.1.22.117.086-.056.1.6-.324.043-.228.359-.152,0,.055-1.49,1.631-.195.05-.263.823.235,1.419.324-.353.047-.238.142-.111.154-.039-.019-.2.2-.219.25-.055-.037-.23.149-.287.161-.015-.1-.152.037-.387-.133.014-.025-.241.334-.509.182-.016.08.039.211-.23.043.2.2-.13.523-.059.155.144.086-.14,1.424-.848.416.019-.006-.19-.453-.595-.177-.036.208-.072.112.111.239-.025.279-.167.059-.122-.038-.137.016-.115.077-.078.112-.01-.028.125.074.157.547.112.149.2.321.139.242-.021-.093-.125.1.025-.009-.346.066-.029Z" transform="translate(-266.053 -57.173)" fill="#ff8daf"/>
                <path id="Trazado_188926" data-name="Trazado 188926" d="M327.646,63.383l-.224-.1-.09.187.314-.092Z" transform="translate(-279.882 -58.909)" fill="#ff8daf"/>
                <path id="Trazado_188927" data-name="Trazado 188927" d="M330.636,63.561l-.157.08.157-.08Z" transform="translate(-281.264 -59.029)" fill="#ff8daf"/>
                <path id="Trazado_188928" data-name="Trazado 188928" d="M274.021,91.654l-.072.067.146.24-.074-.307Z" transform="translate(-256.447 -71.362)" fill="#ff8daf"/>
                <path id="Trazado_188929" data-name="Trazado 188929" d="M279.815,97.733l.15-.024-.01-.132-.145.049.005.106Z" transform="translate(-259.02 -73.962)" fill="#ff8daf"/>
                <path id="Trazado_188930" data-name="Trazado 188930" d="M340.616,102.106l-.11.057.11-.057Z" transform="translate(-285.665 -75.95)" fill="#ff8daf"/>
                <path id="Trazado_188931" data-name="Trazado 188931" d="M345.7,104.323l.067-.07-.826.117.336.063.422-.11Z" transform="translate(-287.615 -76.893)" fill="#ff8daf"/>
                <path id="Trazado_188932" data-name="Trazado 188932" d="M343.882,104.268l-.189.031-.1.125.3.05.293-.1-.306-.1Z" transform="translate(-287.022 -76.899)" fill="#ff8daf"/>
                <path id="Trazado_188933" data-name="Trazado 188933" d="M346.656,104.575l.049-.061.457-.247-.307.012-.361.2-.1.264.26-.171Z" transform="translate(-288.251 -76.899)" fill="#ff8daf"/>
                <path id="Trazado_188934" data-name="Trazado 188934" d="M348.034,102.064l.546.141-.141-.231-.4.09Z" transform="translate(-288.97 -75.893)" fill="#ff8daf"/>
                <path id="Trazado_188935" data-name="Trazado 188935" d="M345.031,104.967l-.379-.11.183.1.2.01Z" transform="translate(-287.486 -77.158)" fill="#ff8daf"/>
                <path id="Trazado_188936" data-name="Trazado 188936" d="M347.281,102.172l.251.071-.251-.071Z" transform="translate(-288.64 -75.979)" fill="#ff8daf"/>
                <path id="Trazado_188937" data-name="Trazado 188937" d="M344.6,101.161l.214.743.1-.228-.025-.424.135.094.1.231.19.024-.1-.636.312-.259-.422.145-.257-.222,1.046-.43-.22.1-.52-.052-.251.121-.312.794Z" transform="translate(-287.461 -75.113)" fill="#ff8daf"/>
                <path id="Trazado_188938" data-name="Trazado 188938" d="M347.979,100.146l-.141-.086.11.506.153-.36-.123-.06Z" transform="translate(-288.884 -75.052)" fill="#ff8daf"/>
                <path id="Trazado_188939" data-name="Trazado 188939" d="M336.621,100.388l.128.182-.128-.182Z" transform="translate(-283.96 -75.196)" fill="#ff8daf"/>
                <path id="Trazado_188940" data-name="Trazado 188940" d="M337.152,101.426l.1.128-.1-.128Z" transform="translate(-284.193 -75.652)" fill="#ff8daf"/>
                <path id="Trazado_188941" data-name="Trazado 188941" d="M341.529,104.011l.244,0-.208-.14-.36-.055.208-.161-1.592-.171-.1.138.152.032.11.128,1.544.227Z" transform="translate(-285.322 -76.556)" fill="#ff8daf"/>
                <path id="Trazado_188942" data-name="Trazado 188942" d="M340.908,99.495l.482.854.165.086.275-.039.262.132.3-.06.281-.875.312-.2-.263-.742.348-.253-.141-.134-.183-.051-.19-.174-.32.46-.1.054-.147-.025-.183.325-.3.108-.134.3-.329-.083-.134.324Z" transform="translate(-285.842 -74.162)" fill="#ff8daf"/>
                <path id="Trazado_188943" data-name="Trazado 188943" d="M338.159,100.954l.03-.24.085-.056.006-.144-.171-.182-.024.1.079.108-.128-.039-2.044-1.822,1.874,2.611.219,0,.073-.343Z" transform="translate(-283.684 -74.448)" fill="#ff8daf"/>
                <path id="Trazado_188944" data-name="Trazado 188944" d="M306.851,84.944l-.244.006-.17.1.437.28.137-.372-.161-.01Z" transform="translate(-270.71 -68.416)" fill="#ff8daf"/>
                <path id="Trazado_188945" data-name="Trazado 188945" d="M304.863,83.671l.157.51.14-.1.033-.372-.184-.08-.146.044Z" transform="translate(-270.018 -67.838)" fill="#ff8daf"/>
              </g>
              <path id="Trazado_188946" data-name="Trazado 188946" d="M261.781,77.076a2.4,2.4,0,0,1-2.269,2.447,2.255,2.255,0,0,1-2.262-2.326,2.406,2.406,0,0,1,2.262-2.447A2.255,2.255,0,0,1,261.781,77.076Z" transform="translate(-249.116 -63.941)" fill="#ffebf1"/>
              <path id="Trazado_188947" data-name="Trazado 188947" d="M269.975,95.526a1.106,1.106,0,0,1-1.052,1.125,1.053,1.053,0,0,1-1.051-1.083,1.106,1.106,0,0,1,1.051-1.125A1.053,1.053,0,0,1,269.975,95.526Z" transform="translate(-253.779 -72.586)" fill="#ffebf1"/>
              <path id="Trazado_188948" data-name="Trazado 188948" d="M311.258,92a4.031,4.031,0,0,1-3.875,4.078,3.839,3.839,0,0,1-3.856-3.92,4.033,4.033,0,0,1,3.856-4.078A3.837,3.837,0,0,1,311.258,92Z" transform="translate(-269.432 -69.794)" fill="#ffebf1"/>
              <path id="Trazado_188949" data-name="Trazado 188949" d="M328.259,67.121a1.75,1.75,0,0,1-1.666,1.76,1.629,1.629,0,0,1-1.662-1.661,1.751,1.751,0,0,1,1.662-1.761A1.629,1.629,0,0,1,328.259,67.121Z" transform="translate(-278.828 -59.862)" fill="#ffebf1"/>
              <path id="Trazado_188950" data-name="Trazado 188950" d="M335.111,84.636a1.992,1.992,0,0,1-1.914,2.005,1.882,1.882,0,0,1-1.909-1.915,1.992,1.992,0,0,1,1.909-2.005A1.882,1.882,0,0,1,335.111,84.636Z" transform="translate(-281.619 -67.44)" fill="#ffebf1"/>
              <path id="Trazado_188951" data-name="Trazado 188951" d="M349.69,64.58a1.721,1.721,0,0,1-1.643,1.725,1.6,1.6,0,0,1-1.64-1.625,1.721,1.721,0,0,1,1.64-1.725A1.6,1.6,0,0,1,349.69,64.58Z" transform="translate(-288.256 -58.763)" fill="#ffebf1"/>
            </g>
          </g>
        </g>
      </g>
      <g id="Plants" transform="translate(17.243 146.257)">
        <g id="Grupo_122812" data-name="Grupo 122812" transform="translate(0 0)">
          <line id="Línea_297" data-name="Línea 297" x1="213.723" y1="16.178" transform="translate(1.795 25.155)" fill="none" stroke="#263238" stroke-miterlimit="10" stroke-width="1"/>
          <line id="Línea_298" data-name="Línea 298" y1="25.845" transform="translate(13.584)" fill="none" stroke="#263238" stroke-miterlimit="10" stroke-width="1"/>
          <line id="Línea_299" data-name="Línea 299" y1="25.155" transform="translate(35.293 2.068)" fill="none" stroke="#263238" stroke-miterlimit="10" stroke-width="1"/>
          <line id="Línea_300" data-name="Línea 300" y1="25.845" transform="translate(56.281 3.446)" fill="none" stroke="#263238" stroke-miterlimit="10" stroke-width="1"/>
          <line id="Línea_301" data-name="Línea 301" y1="27.223" transform="translate(82.268 4.135)" fill="none" stroke="#263238" stroke-miterlimit="10" stroke-width="1"/>
          <line id="Línea_302" data-name="Línea 302" y1="28.946" transform="translate(109.218 4.135)" fill="none" stroke="#263238" stroke-miterlimit="10" stroke-width="1"/>
          <line id="Línea_303" data-name="Línea 303" y1="27.568" transform="translate(136.168 6.892)" fill="none" stroke="#263238" stroke-miterlimit="10" stroke-width="1"/>
          <line id="Línea_304" data-name="Línea 304" y1="29.79" transform="translate(164.889 8.615)" fill="none" stroke="#263238" stroke-miterlimit="10" stroke-width="1"/>
          <line id="Línea_305" data-name="Línea 305" y1="28.601" transform="translate(196.109 11.027)" fill="none" stroke="#263238" stroke-miterlimit="10" stroke-width="1"/>
          <line id="Línea_306" data-name="Línea 306" x1="214.465" y1="17.102" transform="translate(1.054 28.259)" fill="none" stroke="#263238" stroke-miterlimit="10" stroke-width="1"/>
          <g id="Grupo_122811" data-name="Grupo 122811" transform="translate(0 86.914)">
            <line id="Línea_307" data-name="Línea 307" x2="6.881" y2="0.802" transform="translate(208.29 26.126)" fill="none" stroke="#263238" stroke-miterlimit="10" stroke-width="1"/>
            <line id="Línea_308" data-name="Línea 308" x2="200.592" y2="25.229" fill="none" stroke="#263238" stroke-miterlimit="10" stroke-width="1"/>
          </g>
        </g>
      </g>
      <g id="Character_2" data-name="Character 2" transform="translate(45.3 99.091)">
        <g id="Grupo_122822" data-name="Grupo 122822" transform="translate(0 0)">
          <g id="Grupo_122813" data-name="Grupo 122813" transform="translate(12.722 157.896)">
            <ellipse id="Elipse_6902" data-name="Elipse 6902" cx="23.161" cy="6.885" rx="23.161" ry="6.885" fill="#ffebf1" stroke="rgba(0,0,0,0)" stroke-width="0.5"/>
          </g>
          <g id="Grupo_122821" data-name="Grupo 122821">
            <g id="Grupo_122816" data-name="Grupo 122816" transform="translate(11.309 79.927)">
              <path id="Trazado_188952" data-name="Trazado 188952" d="M121.911,329.8s.958,8.484,1.368,12.864S124.784,359.5,124.648,361s-1.505,17.148-1.505,23.169.821,14.506.821,14.506-1.369,2.326-1.1,3.558a19.016,19.016,0,0,1,.548,3.148,7.473,7.473,0,0,0,.274,1.642,10.6,10.6,0,0,0,3.284,1.506c1.232.136,3.7-.684,3.7-1.1s1.095-4.516,1.095-6.021a9.108,9.108,0,0,1,.411-3.011c.411-2.053,4.79-30.422,5.337-33.023s1.368-22.169,1.368-22.169l.958,1.779s2.327,20.938,2.19,23.264-.958,11.222-.548,15.328,1.231,14.232,1.231,15.327-.274,3.558-.274,4.516-.821,2.463-.41,3.147a11.966,11.966,0,0,1,.821,2.053s4.927.821,6.3.821a3.814,3.814,0,0,0,2.463-1.231v-2.327c0-1.232.274-2.326.274-3.558s.137-3.832.137-5.747a49.032,49.032,0,0,1,.548-5.474c.137-1.231,2.053-15.6,2.326-20.938s1.505-17.38,1.505-19.3-.137-19.843-.137-19.843l-.274-3.284s-14.369,1.916-21.211.958-12.454-1.231-12.454-1.231Z" transform="translate(-121.911 -327.473)" fill="#263238" stroke="#263238" stroke-linecap="round" stroke-linejoin="round" stroke-width="0.5"/>
              <g id="Grupo_122814" data-name="Grupo 122814" transform="translate(1.101 76.467)">
                <path id="Trazado_188953" data-name="Trazado 188953" d="M132.067,465.1a2.851,2.851,0,0,1-1.131.6c-.755.226-1.207.377-1.81-.452s-1.81-1.81-2.79-1.357A5.473,5.473,0,0,0,124,465.551c-.227.528-.076,6.033-.076,7.089s2.036,1.509,4.072,1.584a6.446,6.446,0,0,0,3.62-1.056s1.735.151,2.338-.6.3-2.489-.075-3.092a23.55,23.55,0,0,1-1.207-2.187A6.472,6.472,0,0,1,132.067,465.1Z" transform="translate(-123.873 -463.778)" fill="#fff" stroke="#263238" stroke-linecap="round" stroke-linejoin="round" stroke-width="0.5"/>
                <path id="Trazado_188954" data-name="Trazado 188954" d="M133.983,478.672a1.822,1.822,0,0,0,.329-.983,6.482,6.482,0,0,1-2.591.228,10.235,10.235,0,0,1-4.449.754,9.11,9.11,0,0,1-3.328-.757c.006.368.01.66.01.833,0,1.056,2.036,1.508,4.072,1.584a6.449,6.449,0,0,0,3.62-1.056S133.38,479.426,133.983,478.672Z" transform="translate(-123.904 -469.885)" fill="#ff5e8e" stroke="#263238" stroke-linecap="round" stroke-linejoin="round" stroke-width="0.5"/>
                <line id="Línea_309" data-name="Línea 309" y1="3.62" x2="0.302" transform="translate(7.44 5.77)" fill="none" stroke="#263238" stroke-linecap="round" stroke-linejoin="round" stroke-width="0.5"/>
                <path id="Trazado_188955" data-name="Trazado 188955" d="M130,465.809a1.555,1.555,0,0,1-.625-.559c-.6-.83-1.81-1.81-2.79-1.357a7.261,7.261,0,0,0-2.15,1.387c.325.932,1.115,2.577,2.678,2.685C128.383,468.053,129.374,466.935,130,465.809Z" transform="translate(-124.118 -463.778)" fill="#ff5e8e" stroke="#263238" stroke-linecap="round" stroke-linejoin="round" stroke-width="0.5"/>
              </g>
              <g id="Grupo_122815" data-name="Grupo 122815" transform="translate(20.275 77.007)">
                <path id="Trazado_188956" data-name="Trazado 188956" d="M167.583,467.245a2.737,2.737,0,0,1-1.735-.075c-.6-.377-1.508-2.639-3.544-2.413s-2.941,2.111-3.394,2.338-.528.3-.679.528a68.511,68.511,0,0,0-.15,6.94c.075.6,4.374,1.2,7.013.9a5.991,5.991,0,0,0,3.77-1.583,2.149,2.149,0,0,0,1.358-1.81,3.961,3.961,0,0,0-1.056-3.394,11.426,11.426,0,0,1-1.358-1.131Z" transform="translate(-158.052 -464.741)" fill="#fff" stroke="#263238" stroke-linecap="round" stroke-linejoin="round" stroke-width="0.5"/>
                <path id="Trazado_188957" data-name="Trazado 188957" d="M164.642,478.669a18.305,18.305,0,0,1-6.589-1.013c0,.911,0,1.648.029,1.845.075.6,4.374,1.2,7.013.9a5.991,5.991,0,0,0,3.77-1.583,2.149,2.149,0,0,0,1.358-1.81,5.037,5.037,0,0,0,.005-1.02c-.109.228-.237.476-.383.718C169.393,477.462,168.262,478.593,164.642,478.669Z" transform="translate(-158.052 -469.679)" fill="#ff5e8e" stroke="#263238" stroke-linecap="round" stroke-linejoin="round" stroke-width="0.5"/>
                <line id="Línea_310" data-name="Línea 310" x1="0.439" y2="3.735" transform="translate(9.113 6.414)" fill="none" stroke="#263238" stroke-linecap="round" stroke-linejoin="round" stroke-width="0.5"/>
                <path id="Trazado_188958" data-name="Trazado 188958" d="M163.2,469.205c1.356.156,2.818-.912,3.618-1.911a1.129,1.129,0,0,1-.3-.125c-.6-.377-1.508-2.639-3.544-2.413s-2.941,2.111-3.394,2.338A6.8,6.8,0,0,0,163.2,469.205Z" transform="translate(-158.724 -464.741)" fill="#ff5e8e" stroke="#263238" stroke-linecap="round" stroke-linejoin="round" stroke-width="0.5"/>
              </g>
              <line id="Línea_311" data-name="Línea 311" x1="3.284" y1="1.642" transform="translate(13.685 14.095)" fill="none" stroke="#636363" stroke-linecap="round" stroke-linejoin="round" stroke-width="0.5"/>
            </g>
            <g id="Grupo_122817" data-name="Grupo 122817" transform="translate(17.703 2.401)">
              <path id="Trazado_188959" data-name="Trazado 188959" d="M163.259,217.493s.821-1.368,1.1.411a4.9,4.9,0,0,1-1.369,4.379c-.958.684-1.368,0-1.368-.684A25.389,25.389,0,0,1,163.259,217.493Z" transform="translate(-145.737 -201.445)" fill="#fff" stroke="#263238" stroke-linecap="round" stroke-linejoin="round" stroke-width="0.5"/>
              <path id="Trazado_188960" data-name="Trazado 188960" d="M134.825,219.07a1.14,1.14,0,0,0-1.505,1.231c0,1.642,2.19,3.969,3.147,3.422S134.825,219.07,134.825,219.07Z" transform="translate(-133.314 -202.338)" fill="#fff" stroke="#263238" stroke-linecap="round" stroke-linejoin="round" stroke-width="0.5"/>
              <path id="Trazado_188961" data-name="Trazado 188961" d="M142.758,190s-2.14,3.556-4.379,4.516a9.108,9.108,0,0,0-5.064,7.937c.137,3.011,4.516,12.864,5.2,13.137s9.305-.41,9.579-.821,1.506-4.516,2.6-8.485a25.529,25.529,0,0,0,1.1-6.022,12.681,12.681,0,0,0,.547-3.969,7.2,7.2,0,0,0-1.779-4.379l-1.642,2.053.547-4.653a5.275,5.275,0,0,0-3.285.684,12.066,12.066,0,0,0-2.6,2.326Z" transform="translate(-133.31 -189.281)" fill="#263238" stroke="#263238" stroke-linecap="round" stroke-linejoin="round" stroke-width="0.5"/>
            </g>
            <path id="Trazado_188962" data-name="Trazado 188962" d="M227.715,191.822c-.2-.611-.815-.611-1.324-1.935s-1.934-1.018-2.342-1.222-.407-.407-.2-1.018.712-2.647-.2-2.647-1.629,2.138-1.833,2.647a27.8,27.8,0,0,1-1.833,2.648,7.126,7.126,0,0,1-1.323.2c-.509,0-1.12,1.018-1.222,1.527a6.165,6.165,0,0,0,.809,2.084,16.27,16.27,0,0,0,.617,1.786s.509.713,2.036.509,4.379,1.833,4.786,1.528a12.463,12.463,0,0,0,1.731-3.157A5.229,5.229,0,0,0,227.715,191.822Z" transform="translate(-152.533 -185)" fill="#fff" stroke="#263238" stroke-linecap="round" stroke-linejoin="round" stroke-width="0.5"/>
            <g id="Grupo_122818" data-name="Grupo 122818" transform="translate(2.891 91.631)">
              <path id="Trazado_188963" data-name="Trazado 188963" d="M113.335,348.634s1.85,2.825,1.948,3.9.1,3.117.195,3.8-.292,1.169-.779,1.169a1.027,1.027,0,0,1-.779-.487,11.633,11.633,0,0,0,.292,1.656c.195.682,1.266,1.266,1.169,1.948s-1.169.974-2.63.974a4.43,4.43,0,0,1-4.091-2.824,41.039,41.039,0,0,1-1.753-8.961C106.906,348.731,112.36,347.855,113.335,348.634Z" transform="translate(-106.906 -348.336)" fill="#fff" stroke="#263238" stroke-linecap="round" stroke-linejoin="round" stroke-width="0.5"/>
              <path id="Trazado_188964" data-name="Trazado 188964" d="M113.5,355.291a2.621,2.621,0,0,1-.39,2.24,8.9,8.9,0,0,0-1.169,2.63,9.382,9.382,0,0,0,.876,1.948c.39.779,1.656.682,1.753,1.364a1.508,1.508,0,0,1-.195,1.071" transform="translate(-109.116 -351.389)" fill="none" stroke="#263238" stroke-linecap="round" stroke-linejoin="round" stroke-width="0.5"/>
              <path id="Trazado_188965" data-name="Trazado 188965" d="M116.906,362.716a10.076,10.076,0,0,0,.526,2.263c.389.974,2.435,1.558,1.656,2.63" transform="translate(-111.296 -354.649)" fill="none" stroke="#263238" stroke-linecap="round" stroke-linejoin="round" stroke-width="0.5"/>
              <path id="Trazado_188966" data-name="Trazado 188966" d="M114.719,363.451a8.572,8.572,0,0,0,.487,1.851c.292.584,2.24,1.169,1.851,2.727" transform="translate(-110.336 -354.972)" fill="none" stroke="#263238" stroke-linecap="round" stroke-linejoin="round" stroke-width="0.5"/>
              <path id="Trazado_188967" data-name="Trazado 188967" d="M119.1,360.826s-.195-1.558-.292-2.142a13.533,13.533,0,0,1-.1-1.656" transform="translate(-112.089 -352.151)" fill="none" stroke="#263238" stroke-linecap="round" stroke-linejoin="round" stroke-width="0.5"/>
            </g>
            <g id="Grupo_122820" data-name="Grupo 122820" transform="translate(0 9.835)">
              <path id="Trazado_188968" data-name="Trazado 188968" d="M154.834,238.965A20.36,20.36,0,0,0,146.076,235c-5.474-1.1-12.727.684-15.6,2.6a7.515,7.515,0,0,0-3.147,5.2Z" transform="translate(-112.98 -216.637)" fill="#fff" stroke="#263238" stroke-linecap="round" stroke-linejoin="round" stroke-width="0.5"/>
              <path id="Trazado_188969" data-name="Trazado 188969" d="M216.514,208.165a3.137,3.137,0,0,1,0-1.643c.274-.548.411-2.19.821-2.6s3.421-2.053,5.611-1.095,3.285,5.064,3.7,6.021-.821,3.148-1.369,3.421-1.094-1.643-1.642-2.19S218.43,207.344,216.514,208.165Z" transform="translate(-152.08 -202.532)" fill="#fff" stroke="#263238" stroke-linecap="round" stroke-linejoin="round" stroke-width="0.5"/>
              <path id="Trazado_188970" data-name="Trazado 188970" d="M130.059,226.959c-.547.137-10.948,1.506-15.6,2.874s-8.485,3.147-8.621,4.927-3.937,34.929-4.074,36.845,1.231,13,1.916,13.411a9.759,9.759,0,0,0,4.927.274,4.7,4.7,0,0,0,1.779-1.231l.411-9.169s.274,3.147.821,3.284a61.339,61.339,0,0,0,20.938,1.78c11.769-.958,16.7-2.737,17.654-3.422s.821-2.737.821-2.737.137-1.505.137-3.01S146.755,239,146.755,239s18.064-4.927,19.432-6.569,7.938-19.569,7.938-20.938-3.011-3.421-5.2-3.558-7.527,10.674-8.758,11.5-13,5.474-17.38,6.3S130.059,226.959,130.059,226.959Z" transform="translate(-101.753 -204.904)" fill="#ff5e8e" stroke="#263238" stroke-linecap="round" stroke-linejoin="round" stroke-width="0.5"/>
              <path id="Trazado_188971" data-name="Trazado 188971" d="M144.48,258.385s1.854,7.274,7.274,10.27" transform="translate(-120.51 -227.052)" fill="none" stroke="#263238" stroke-linecap="round" stroke-linejoin="round" stroke-width="0.5"/>
              <path id="Trazado_188972" data-name="Trazado 188972" d="M158.764,282.451q.611.321,1.258.62" transform="translate(-126.781 -237.616)" fill="none" stroke="#263238" stroke-linecap="round" stroke-linejoin="round" stroke-width="0.5"/>
              <path id="Trazado_188973" data-name="Trazado 188973" d="M144.48,271.86a32.226,32.226,0,0,0,6.021,4.8" transform="translate(-120.51 -232.967)" fill="none" stroke="#263238" stroke-linecap="round" stroke-linejoin="round" stroke-width="0.5"/>
              <path id="Trazado_188974" data-name="Trazado 188974" d="M177.391,268.859l-.708-5.547-6.756,2.49,2.61,1.069c-1.271,1.118-2.937,2.706-1.91,2.519a17.842,17.842,0,0,0,3.893-1.708Z" transform="translate(-131.681 -229.215)" fill="#263238" stroke="#263238" stroke-linecap="round" stroke-linejoin="round" stroke-width="0.5"/>
              <g id="Grupo_122819" data-name="Grupo 122819" transform="translate(4.07 31.865)">
                <path id="Trazado_188975" data-name="Trazado 188975" d="M112.747,293.484c0-2.463,1.2-27.539,1.2-27.539l-.411-1.779-3.038-4.832,1.616,9.374c-1.284-.4-3.871-1.084-2.892.221a18.584,18.584,0,0,0,3.061,2.96l-.919,18.543a7.956,7.956,0,0,0,1.087,4.425l.944,1.6A7.054,7.054,0,0,1,112.747,293.484Z" transform="translate(-109.007 -259.333)" fill="#263238" stroke="#263238" stroke-linecap="round" stroke-linejoin="round" stroke-width="0.5"/>
                <path id="Trazado_188976" data-name="Trazado 188976" d="M116.831,325.514a5.126,5.126,0,0,0,.583.992Z" transform="translate(-112.442 -288.386)" fill="#263238" stroke="#263238" stroke-linecap="round" stroke-linejoin="round" stroke-width="0.5"/>
              </g>
              <path id="Trazado_188977" data-name="Trazado 188977" d="M157.556,324.019A54.062,54.062,0,0,1,117.87,325.8s.274,3.147.821,3.284a61.344,61.344,0,0,0,20.938,1.779c11.769-.958,16.7-2.737,17.654-3.422s.821-2.737.821-2.737.029-.316.06-.8Z" transform="translate(-108.828 -255.813)" fill="#fff" stroke="#263238" stroke-linecap="round" stroke-linejoin="round" stroke-width="0.5"/>
              <path id="Trazado_188978" data-name="Trazado 188978" d="M102.5,342.132s3.147,1.368,5.747.548,3.285-1.643,3.7-1.506.41,3.422,0,4.38-1.369,1.642-4.243,1.916-4.379-1.1-4.652-1.916A27.536,27.536,0,0,1,102.5,342.132Z" transform="translate(-102.082 -263.39)" fill="#fff" stroke="#263238" stroke-linecap="round" stroke-linejoin="round" stroke-width="0.5"/>
            </g>
          </g>
        </g>
      </g>
    </g>
    <path id="Trazado_190741" data-name="Trazado 190741" d="M20.185,12.667a4.673,4.673,0,0,1-.721,2.36,4.35,4.35,0,0,1-1.85,1.586,6.3,6.3,0,0,1-2.72.563,5.025,5.025,0,0,1-3.973-1.644,6.786,6.786,0,0,1-1.45-4.641v-.633a7.746,7.746,0,0,1,.655-3.292,4.961,4.961,0,0,1,1.885-2.18,5.26,5.26,0,0,1,2.848-.769A5.516,5.516,0,0,1,18.6,5.245a4.844,4.844,0,0,1,1.608,3.379H17.135a2.292,2.292,0,0,0-.589-1.679,2.422,2.422,0,0,0-1.688-.51,1.843,1.843,0,0,0-1.687.861,5.536,5.536,0,0,0-.562,2.751v.905a6.126,6.126,0,0,0,.514,2.927,1.882,1.882,0,0,0,1.771.879,2.369,2.369,0,0,0,1.626-.5,2.126,2.126,0,0,0,.6-1.591Zm.949-.51a5.613,5.613,0,0,1,.554-2.536,3.96,3.96,0,0,1,1.591-1.709,4.791,4.791,0,0,1,2.435-.6,4.373,4.373,0,0,1,3.366,1.323,5.076,5.076,0,0,1,1.23,3.6v.105a4.925,4.925,0,0,1-1.235,3.529,4.384,4.384,0,0,1-3.344,1.305,4.434,4.434,0,0,1-3.261-1.217,4.761,4.761,0,0,1-1.327-3.3Zm2.962.185a3.538,3.538,0,0,0,.413,1.934,1.376,1.376,0,0,0,1.222.615q1.582,0,1.617-2.435v-.3q0-2.558-1.635-2.558-1.485,0-1.608,2.206ZM34.335,7.49l.1,1.116a3.225,3.225,0,0,1,2.716-1.292,2.713,2.713,0,0,1,2.219.888,4.226,4.226,0,0,1,.76,2.672V17H37.157V11a1.6,1.6,0,0,0-.29-1.059A1.342,1.342,0,0,0,35.812,9.6a1.413,1.413,0,0,0-1.292.686V17H31.558V7.49ZM45.216,5.126V7.49h1.564V9.547H45.216V13.9a1.111,1.111,0,0,0,.193.747,1.037,1.037,0,0,0,.765.211,4.345,4.345,0,0,0,.738-.053v2.118a5.466,5.466,0,0,1-1.67.255,3.1,3.1,0,0,1-2.259-.721,2.954,2.954,0,0,1-.729-2.188V9.547H41.041V7.49h1.213V5.126ZM53.7,10.171l-.976-.07a1.752,1.752,0,0,0-1.793.879V17H47.967V7.49h2.777l.1,1.222a2.294,2.294,0,0,1,2.083-1.4,2.888,2.888,0,0,1,.826.105Zm.378,1.986a5.613,5.613,0,0,1,.554-2.536A3.96,3.96,0,0,1,56.22,7.912a4.791,4.791,0,0,1,2.435-.6,4.373,4.373,0,0,1,3.366,1.323,5.076,5.076,0,0,1,1.23,3.6v.105a4.925,4.925,0,0,1-1.235,3.529,4.384,4.384,0,0,1-3.344,1.305,4.434,4.434,0,0,1-3.261-1.217,4.761,4.761,0,0,1-1.327-3.3Zm2.962.185a3.538,3.538,0,0,0,.413,1.934,1.376,1.376,0,0,0,1.222.615q1.582,0,1.617-2.435v-.3q0-2.558-1.635-2.558-1.485,0-1.608,2.206ZM67.681,17H64.71V3.5h2.971Zm6.425.176a4.889,4.889,0,0,1-3.542-1.305,4.507,4.507,0,0,1-1.354-3.4v-.246a5.84,5.84,0,0,1,.541-2.575,3.955,3.955,0,0,1,1.578-1.727,4.763,4.763,0,0,1,2.461-.611,4.117,4.117,0,0,1,3.164,1.244,4.887,4.887,0,0,1,1.16,3.467v1.151H72.225a2.135,2.135,0,0,0,.694,1.257,2.066,2.066,0,0,0,1.389.457,2.662,2.662,0,0,0,2.2-.984l1.354,1.6a3.784,3.784,0,0,1-1.569,1.217A5.3,5.3,0,0,1,74.106,17.176ZM73.772,9.6q-1.3,0-1.547,1.723h2.988v-.229a1.467,1.467,0,0,0-.36-1.1A1.434,1.434,0,0,0,73.772,9.6Zm10.512,4.729a.684.684,0,0,0-.4-.606,6.016,6.016,0,0,0-1.5-.475,6.853,6.853,0,0,1-1.828-.646,3.062,3.062,0,0,1-1.1-.971,2.319,2.319,0,0,1-.378-1.31,2.628,2.628,0,0,1,1.081-2.158,4.453,4.453,0,0,1,2.83-.848,4.934,4.934,0,0,1,3.023.853,2.666,2.666,0,0,1,1.143,2.241H84.187q0-1.143-1.2-1.143a1.194,1.194,0,0,0-.782.259.8.8,0,0,0-.316.646.737.737,0,0,0,.387.642,3.654,3.654,0,0,0,1.235.4,10.671,10.671,0,0,1,1.49.378A2.706,2.706,0,0,1,87.14,14.24a2.491,2.491,0,0,1-1.156,2.118,5.068,5.068,0,0,1-2.993.817,5.172,5.172,0,0,1-2.18-.439,3.645,3.645,0,0,1-1.494-1.2,2.707,2.707,0,0,1-.536-1.591H81.55a1.145,1.145,0,0,0,.439.962,1.808,1.808,0,0,0,1.081.3,1.422,1.422,0,0,0,.91-.246A.787.787,0,0,0,84.283,14.328Zm8.35-2.153a5.809,5.809,0,0,1,.976-3.56,3.211,3.211,0,0,1,2.725-1.3,2.731,2.731,0,0,1,2.145,1V3.5h2.971V17H98.785l-.149-1.02a2.8,2.8,0,0,1-2.32,1.2,3.205,3.205,0,0,1-2.689-1.3A5.993,5.993,0,0,1,92.633,12.175Zm2.962.185q0,2.531,1.477,2.531a1.458,1.458,0,0,0,1.406-.826V10.443A1.419,1.419,0,0,0,97.089,9.6q-1.371,0-1.485,2.215Zm12.138,4.816a4.889,4.889,0,0,1-3.542-1.305,4.507,4.507,0,0,1-1.354-3.4v-.246a5.84,5.84,0,0,1,.541-2.575,3.955,3.955,0,0,1,1.578-1.727,4.763,4.763,0,0,1,2.461-.611,4.117,4.117,0,0,1,3.164,1.244,4.887,4.887,0,0,1,1.16,3.467v1.151h-5.889a2.135,2.135,0,0,0,.694,1.257,2.066,2.066,0,0,0,1.389.457,2.662,2.662,0,0,0,2.2-.984l1.354,1.6a3.784,3.784,0,0,1-1.569,1.217A5.3,5.3,0,0,1,107.733,17.176ZM107.4,9.6q-1.3,0-1.547,1.723h2.988v-.229a1.467,1.467,0,0,0-.36-1.1A1.434,1.434,0,0,0,107.4,9.6Zm9.642,2.575a5.809,5.809,0,0,1,.976-3.56,3.211,3.211,0,0,1,2.725-1.3,2.731,2.731,0,0,1,2.145,1V3.5h2.971V17h-2.663l-.149-1.02a2.8,2.8,0,0,1-2.32,1.2,3.205,3.205,0,0,1-2.689-1.3A5.993,5.993,0,0,1,117.04,12.175Zm2.962.185q0,2.531,1.477,2.531a1.458,1.458,0,0,0,1.406-.826V10.443A1.419,1.419,0,0,0,121.5,9.6q-1.371,0-1.485,2.215ZM132.9,17a3.344,3.344,0,0,1-.281-.853,2.754,2.754,0,0,1-2.285,1.028,3.374,3.374,0,0,1-2.285-.813,2.588,2.588,0,0,1-.94-2.043,2.66,2.66,0,0,1,1.143-2.338,5.821,5.821,0,0,1,3.322-.791h.914v-.5q0-1.316-1.134-1.316a.927.927,0,0,0-1.055,1.042h-2.962a2.655,2.655,0,0,1,1.173-2.239,4.931,4.931,0,0,1,2.993-.86,4.323,4.323,0,0,1,2.874.888,3.086,3.086,0,0,1,1.081,2.435v4.21a4.311,4.311,0,0,0,.4,2V17Zm-1.854-1.934a1.652,1.652,0,0,0,.918-.237,1.487,1.487,0,0,0,.523-.536V12.772h-.861q-1.547,0-1.547,1.389a.848.848,0,0,0,.272.655A.986.986,0,0,0,131.041,15.066Zm9.5-9.94V7.49h1.564V9.547h-1.564V13.9a1.111,1.111,0,0,0,.193.747,1.037,1.037,0,0,0,.765.211,4.345,4.345,0,0,0,.738-.053v2.118a5.466,5.466,0,0,1-1.67.255,3.1,3.1,0,0,1-2.259-.721,2.954,2.954,0,0,1-.729-2.188V9.547h-1.213V7.49h1.213V5.126Zm2.092,7.031a5.613,5.613,0,0,1,.554-2.536,3.96,3.96,0,0,1,1.591-1.709,4.791,4.791,0,0,1,2.435-.6,4.373,4.373,0,0,1,3.366,1.323,5.076,5.076,0,0,1,1.23,3.6v.105a4.925,4.925,0,0,1-1.235,3.529,4.384,4.384,0,0,1-3.344,1.305,4.434,4.434,0,0,1-3.261-1.217,4.761,4.761,0,0,1-1.327-3.3Zm2.962.185a3.538,3.538,0,0,0,.413,1.934,1.376,1.376,0,0,0,1.222.615q1.582,0,1.617-2.435v-.3q0-2.558-1.635-2.558-1.485,0-1.608,2.206Zm12.5,1.986a.684.684,0,0,0-.4-.606,6.016,6.016,0,0,0-1.5-.475,6.853,6.853,0,0,1-1.828-.646,3.062,3.062,0,0,1-1.1-.971,2.319,2.319,0,0,1-.378-1.31,2.628,2.628,0,0,1,1.081-2.158,4.453,4.453,0,0,1,2.83-.848,4.934,4.934,0,0,1,3.023.853,2.666,2.666,0,0,1,1.143,2.241H158q0-1.143-1.2-1.143a1.194,1.194,0,0,0-.782.259.8.8,0,0,0-.316.646.737.737,0,0,0,.387.642,3.654,3.654,0,0,0,1.235.4,10.671,10.671,0,0,1,1.49.378,2.706,2.706,0,0,1,2.145,2.646,2.491,2.491,0,0,1-1.156,2.118,5.068,5.068,0,0,1-2.993.817,5.172,5.172,0,0,1-2.18-.439,3.645,3.645,0,0,1-1.494-1.2,2.707,2.707,0,0,1-.536-1.591h2.769a1.145,1.145,0,0,0,.439.962,1.808,1.808,0,0,0,1.081.3,1.422,1.422,0,0,0,.91-.246A.787.787,0,0,0,158.094,14.328ZM169.616,7.49l.1,1.116a3.27,3.27,0,0,1,2.716-1.292,2.407,2.407,0,0,1,2.435,1.433,3.165,3.165,0,0,1,2.795-1.433q2.892,0,2.971,3.5V17h-2.971V11a1.813,1.813,0,0,0-.246-1.063,1.048,1.048,0,0,0-.9-.334,1.4,1.4,0,0,0-1.31.782l.009.123V17h-2.971V11.015a1.906,1.906,0,0,0-.237-1.081A1.045,1.045,0,0,0,171.1,9.6a1.42,1.42,0,0,0-1.3.782V17h-2.962V7.49ZM187.678,17a3.344,3.344,0,0,1-.281-.853,2.754,2.754,0,0,1-2.285,1.028,3.374,3.374,0,0,1-2.285-.813,2.588,2.588,0,0,1-.94-2.043,2.66,2.66,0,0,1,1.143-2.338,5.821,5.821,0,0,1,3.322-.791h.914v-.5q0-1.316-1.134-1.316a.927.927,0,0,0-1.055,1.042h-2.962a2.655,2.655,0,0,1,1.173-2.239,4.931,4.931,0,0,1,2.993-.86,4.323,4.323,0,0,1,2.874.888,3.086,3.086,0,0,1,1.081,2.435v4.21a4.311,4.311,0,0,0,.4,2V17Zm-1.854-1.934a1.652,1.652,0,0,0,.918-.237,1.487,1.487,0,0,0,.523-.536V12.772H186.4q-1.547,0-1.547,1.389a.848.848,0,0,0,.272.655A.986.986,0,0,0,185.823,15.066Zm10.652,2.109a4.889,4.889,0,0,1-3.542-1.305,4.507,4.507,0,0,1-1.354-3.4v-.246a5.84,5.84,0,0,1,.541-2.575A3.955,3.955,0,0,1,193.7,7.925a4.763,4.763,0,0,1,2.461-.611,4.117,4.117,0,0,1,3.164,1.244,4.887,4.887,0,0,1,1.16,3.467v1.151h-5.889a2.135,2.135,0,0,0,.694,1.257,2.066,2.066,0,0,0,1.389.457,2.662,2.662,0,0,0,2.2-.984l1.354,1.6a3.784,3.784,0,0,1-1.569,1.217A5.3,5.3,0,0,1,196.476,17.176ZM196.142,9.6q-1.3,0-1.547,1.723h2.988v-.229a1.467,1.467,0,0,0-.36-1.1A1.434,1.434,0,0,0,196.142,9.6Zm10.512,4.729a.684.684,0,0,0-.4-.606,6.016,6.016,0,0,0-1.5-.475,6.853,6.853,0,0,1-1.828-.646,3.062,3.062,0,0,1-1.1-.971,2.319,2.319,0,0,1-.378-1.31,2.628,2.628,0,0,1,1.081-2.158,4.453,4.453,0,0,1,2.83-.848,4.934,4.934,0,0,1,3.023.853,2.666,2.666,0,0,1,1.143,2.241h-2.971q0-1.143-1.2-1.143a1.194,1.194,0,0,0-.782.259.8.8,0,0,0-.316.646.737.737,0,0,0,.387.642,3.654,3.654,0,0,0,1.235.4,10.671,10.671,0,0,1,1.49.378,2.706,2.706,0,0,1,2.145,2.646,2.491,2.491,0,0,1-1.156,2.118,5.068,5.068,0,0,1-2.993.817,5.172,5.172,0,0,1-2.18-.439,3.645,3.645,0,0,1-1.494-1.2,2.707,2.707,0,0,1-.536-1.591h2.769a1.145,1.145,0,0,0,.439.962,1.808,1.808,0,0,0,1.081.3,1.422,1.422,0,0,0,.91-.246A.787.787,0,0,0,206.654,14.328Zm7.69-9.2V7.49h1.564V9.547h-1.564V13.9a1.111,1.111,0,0,0,.193.747,1.037,1.037,0,0,0,.765.211,4.345,4.345,0,0,0,.738-.053v2.118a5.466,5.466,0,0,1-1.67.255,3.1,3.1,0,0,1-2.259-.721,2.954,2.954,0,0,1-.729-2.188V9.547h-1.213V7.49h1.213V5.126Zm8.481,5.045-.976-.07a1.752,1.752,0,0,0-1.793.879V17h-2.962V7.49h2.777l.1,1.222a2.294,2.294,0,0,1,2.083-1.4,2.888,2.888,0,0,1,.826.105Zm.378,1.986a5.613,5.613,0,0,1,.554-2.536,3.96,3.96,0,0,1,1.591-1.709,4.791,4.791,0,0,1,2.435-.6,4.373,4.373,0,0,1,3.366,1.323,5.076,5.076,0,0,1,1.23,3.6v.105a4.925,4.925,0,0,1-1.235,3.529,4.384,4.384,0,0,1-3.344,1.305,4.434,4.434,0,0,1-3.261-1.217,4.761,4.761,0,0,1-1.327-3.3Zm2.962.185a3.538,3.538,0,0,0,.413,1.934,1.376,1.376,0,0,0,1.222.615q1.582,0,1.617-2.435v-.3q0-2.558-1.635-2.558-1.485,0-1.608,2.206Zm12.5,1.986a.684.684,0,0,0-.4-.606,6.016,6.016,0,0,0-1.5-.475,6.853,6.853,0,0,1-1.828-.646,3.062,3.062,0,0,1-1.1-.971,2.319,2.319,0,0,1-.378-1.31,2.628,2.628,0,0,1,1.081-2.158,4.453,4.453,0,0,1,2.83-.848,4.934,4.934,0,0,1,3.023.853,2.666,2.666,0,0,1,1.143,2.241h-2.971q0-1.143-1.2-1.143a1.194,1.194,0,0,0-.782.259.8.8,0,0,0-.316.646.737.737,0,0,0,.387.642,3.654,3.654,0,0,0,1.235.4,10.671,10.671,0,0,1,1.49.378,2.706,2.706,0,0,1,2.145,2.646,2.491,2.491,0,0,1-1.156,2.118,5.068,5.068,0,0,1-2.993.817,5.172,5.172,0,0,1-2.18-.439,3.645,3.645,0,0,1-1.494-1.2,2.707,2.707,0,0,1-.536-1.591h2.769a1.145,1.145,0,0,0,.439.962,1.808,1.808,0,0,0,1.081.3,1.422,1.422,0,0,0,.91-.246A.787.787,0,0,0,238.663,14.328Z" transform="translate(324.574 5669.869)" fill="#12263f"/>
  </g>
</svg>
