<svg xmlns="http://www.w3.org/2000/svg" xmlns:xlink="http://www.w3.org/1999/xlink" width="400" height="351" viewBox="0 0 400 351">
  <defs>
    <linearGradient id="linear-gradient" y1="0.5" x2="1" y2="0.5" gradientUnits="objectBoundingBox">
      <stop offset="0" stop-color="#dae3fe"/>
      <stop offset="1" stop-color="#e9effd"/>
    </linearGradient>
    <linearGradient id="linear-gradient-3" x1="-2.648" y1="2.581" x2="6.204" y2="-3.271" gradientUnits="objectBoundingBox">
      <stop offset="0" stop-color="#fe7062"/>
      <stop offset="1" stop-color="#ff928e"/>
    </linearGradient>
    <linearGradient id="linear-gradient-4" x1="-2.648" y1="2.581" x2="6.204" y2="-3.271" xlink:href="#linear-gradient-3"/>
    <linearGradient id="linear-gradient-5" x1="-2.648" y1="2.581" x2="6.204" y2="-3.271" xlink:href="#linear-gradient-3"/>
    <linearGradient id="linear-gradient-6" x1="1.208" y1="-0.097" x2="0.898" y2="0.172" gradientUnits="objectBoundingBox">
      <stop offset="0" stop-color="#09005d"/>
      <stop offset="1" stop-color="#1a0f91"/>
    </linearGradient>
    <linearGradient id="linear-gradient-10" x1="-5.846" y1="31.094" x2="-10.255" y2="36.677" xlink:href="#linear-gradient-3"/>
    <linearGradient id="linear-gradient-12" x1="0" y1="0.5" x2="1" y2="0.5" xlink:href="#linear-gradient-3"/>
    <linearGradient id="linear-gradient-14" x1="-5.066" y1="30.071" x2="-9.475" y2="35.655" xlink:href="#linear-gradient-3"/>
    <linearGradient id="linear-gradient-16" x1="-4.413" y1="30.074" x2="-10.215" y2="36.076" xlink:href="#linear-gradient-3"/>
    <linearGradient id="linear-gradient-18" x1="-3.505" y1="28.025" x2="-7.914" y2="33.609" xlink:href="#linear-gradient-3"/>
    <linearGradient id="linear-gradient-19" x1="3.07" y1="-7.015" x2="0.149" y2="-3.472" xlink:href="#linear-gradient-6"/>
    <linearGradient id="linear-gradient-20" x1="-1.083" y1="54.38" x2="-2.161" y2="60.507" xlink:href="#linear-gradient-6"/>
    <linearGradient id="linear-gradient-21" x1="-0.52" y1="53.546" x2="-0.965" y2="59.389" xlink:href="#linear-gradient-6"/>
    <linearGradient id="linear-gradient-22" x1="-91.266" y1="0.5" x2="-90.266" y2="0.5" gradientUnits="objectBoundingBox">
      <stop offset="0" stop-color="#ff928e"/>
      <stop offset="1" stop-color="#feb3b1"/>
    </linearGradient>
    <linearGradient id="linear-gradient-23" x1="-147.004" y1="0.5" x2="-146.004" y2="0.5" xlink:href="#linear-gradient-6"/>
    <linearGradient id="linear-gradient-24" x1="-363.428" y1="0.5" x2="-362.428" y2="0.5" xlink:href="#linear-gradient-22"/>
    <linearGradient id="linear-gradient-25" x1="-90.616" y1="0.5" x2="-89.616" y2="0.5" xlink:href="#linear-gradient-6"/>
    <linearGradient id="linear-gradient-26" x1="-355.29" y1="0.5" x2="-354.29" y2="0.5" xlink:href="#linear-gradient-22"/>
    <linearGradient id="linear-gradient-27" x1="-52.935" y1="0.5" x2="-51.935" y2="0.5" xlink:href="#linear-gradient-6"/>
    <linearGradient id="linear-gradient-28" x1="-3.515" y1="-5.192" x2="-0.641" y2="-1.118" xlink:href="#linear-gradient-6"/>
    <linearGradient id="linear-gradient-29" x1="-95.001" y1="-6.402" x2="-94.969" y2="-3.638" xlink:href="#linear-gradient-22"/>
    <linearGradient id="linear-gradient-30" x1="-74.815" y1="-16.671" x2="-74.79" y2="-9.278" xlink:href="#linear-gradient-22"/>
    <linearGradient id="linear-gradient-31" x1="-117.94" y1="-1.142" x2="-120.59" y2="2.815" xlink:href="#linear-gradient-22"/>
    <linearGradient id="linear-gradient-32" x1="-115.069" y1="13.17" x2="-116.287" y2="14.466" xlink:href="#linear-gradient-22"/>
    <linearGradient id="linear-gradient-33" x1="-83.201" y1="8.979" x2="-82.157" y2="8.979" xlink:href="#linear-gradient-6"/>
    <linearGradient id="linear-gradient-34" x1="-325.499" y1="42.875" x2="-322.797" y2="40.337" xlink:href="#linear-gradient-22"/>
    <linearGradient id="linear-gradient-35" x1="-29.727" y1="-0.346" x2="-29.363" y2="0.297" xlink:href="#linear-gradient-6"/>
    <linearGradient id="linear-gradient-36" x1="-24.267" y1="-9.735" x2="-23.775" y2="-8.474" xlink:href="#linear-gradient-22"/>
    <linearGradient id="linear-gradient-37" x1="-90.143" y1="0.5" x2="-89.143" y2="0.5" gradientUnits="objectBoundingBox">
      <stop offset="0" stop-color="#4042e2"/>
      <stop offset="1" stop-color="#4f52ff"/>
    </linearGradient>
    <linearGradient id="linear-gradient-38" x1="-70.778" y1="1.602" x2="-69.743" y2="-1.187" xlink:href="#linear-gradient-22"/>
    <linearGradient id="linear-gradient-39" x1="-61.07" y1="0.5" x2="-60.07" y2="0.5" xlink:href="#linear-gradient-37"/>
    <linearGradient id="linear-gradient-40" x1="-29.517" y1="1.698" x2="-29.053" y2="-1.193" xlink:href="#linear-gradient-22"/>
    <linearGradient id="linear-gradient-41" x1="-93.265" y1="1.857" x2="-93.011" y2="0.807" xlink:href="#linear-gradient-22"/>
    <linearGradient id="linear-gradient-42" x1="36.54" y1="34.286" x2="37.123" y2="34.286" xlink:href="#linear-gradient-22"/>
    <linearGradient id="linear-gradient-43" x1="-61.798" y1="1.328" x2="-60.337" y2="-1.033" xlink:href="#linear-gradient-22"/>
    <linearGradient id="linear-gradient-44" x1="-58.739" y1="-0.334" x2="-58.037" y2="0.994" xlink:href="#linear-gradient-6"/>
    <linearGradient id="linear-gradient-45" x1="-223.536" y1="3.259" x2="-218.22" y2="-4.349" xlink:href="#linear-gradient-22"/>
    <linearGradient id="linear-gradient-46" x1="0.757" y1="-0.057" x2="0.265" y2="0.791" xlink:href="#linear-gradient-22"/>
    <linearGradient id="linear-gradient-47" x1="0" y1="0.5" x2="1" y2="0.5" xlink:href="#linear-gradient-22"/>
    <linearGradient id="linear-gradient-48" x1="1.704" y1="-5.594" x2="0.5" y2="0.571" xlink:href="#linear-gradient-37"/>
    <linearGradient id="linear-gradient-49" x1="1.464" y1="-14.746" x2="0.605" y2="-0.838" xlink:href="#linear-gradient-37"/>
    <linearGradient id="linear-gradient-52" x1="0.95" y1="0.531" x2="4.932" y2="0.806" xlink:href="#linear-gradient-22"/>
    <linearGradient id="linear-gradient-53" x1="0.785" y1="0.163" x2="0.062" y2="1.097" xlink:href="#linear-gradient-6"/>
  </defs>
  <g id="Grupo_124512" data-name="Grupo 124512" transform="translate(-914 -756)">
    <g id="Grupo_121786" data-name="Grupo 121786" transform="translate(-1 -3072)">
      <rect id="Rectángulo_43207" data-name="Rectángulo 43207" width="388" height="339" rx="29" transform="translate(927 3840)" fill="#febf10"/>
      <rect id="Rectángulo_43206" data-name="Rectángulo 43206" width="388" height="340" rx="29" transform="translate(915 3828)" fill="#f3f3f3"/>
    </g>
    <g id="Grupo_121823" data-name="Grupo 121823" transform="translate(810.448 645.089)">
      <path id="Trazado_188091" data-name="Trazado 188091" d="M470.772,260.33c-9.576-16.242-29.872-24.945-30.4-49.287-.343-15.817,5.567-24.39-3.89-37.892-22.86-32.637-58.089-36.462-88.168-22.828s-54.1,40.95-87.531,39.3c-18.206-.9-35.121-11.393-53.143-13.363a38.012,38.012,0,0,0-15.59,1.423c-18.185,5.659-34.241,26.909-40.288,50.517-4.9,19.138,1.361,38.03-6.335,56.77-8.2,19.975-24.356,33.849-28.426,56.91-4.885,27.678,13.778,51.748,33.826,52.5,12.761.479,36.414-2,47.254-11.562,13.2-11.646,29.418,17.9,44.807,18.343,29.285.849,74.556-8.511,103.463-2.811,24.77,4.884,29.951-.827,55.055.092,18.436.674,34.081.978,44.057-23.348C457.385,346.024,490.858,294.4,470.772,260.33Z" fill="#dedff1"/>
      <g id="Grupo_121787" data-name="Grupo 121787" transform="translate(117.433 151.945)">
        <path id="Trazado_188092" data-name="Trazado 188092" d="M220.048,308.653s-27.229-7.289-38.641-39.154c-11.092-30.972-19.24-75.664-57.456-82.257a1.5,1.5,0,0,0-1.507,2.293C126.673,196,136.965,213,141.871,232.3,148.134,256.927,175.531,312.972,220.048,308.653Z" transform="translate(-122.197 -187.219)" fill="#c7c8da"/>
        <path id="Trazado_188093" data-name="Trazado 188093" d="M175.319,235.529l.157.067.127.06c.085.04.165.08.243.12.159.08.312.163.465.247.3.168.6.341.9.522s.582.366.871.552.569.382.845.585a38.482,38.482,0,0,1,3.2,2.558,43.47,43.47,0,0,1,5.548,5.982,51.847,51.847,0,0,1,4.43,6.834,55.333,55.333,0,0,1,3.317,7.421,67.1,67.1,0,0,1,2.3,7.779l.433,1.979.367,1.992c.126.669.232,1.311.349,1.968s.227,1.307.363,1.957a120.074,120.074,0,0,0,4.094,15.388l.648,1.885.688,1.871c.224.626.469,1.244.713,1.862s.478,1.241.739,1.852c1,2.462,2.108,4.883,3.264,7.279s2.414,4.741,3.729,7.055q2,3.457,4.227,6.771,2.25,3.3,4.757,6.412t5.316,5.961a64.52,64.52,0,0,0,5.925,5.363,57.289,57.289,0,0,0,6.573,4.562,57.394,57.394,0,0,1-6.7-4.4,64.788,64.788,0,0,1-6.085-5.235,79.531,79.531,0,0,1-5.487-5.871q-2.582-3.082-4.916-6.363-2.31-3.293-4.393-6.739c-1.369-2.306-2.677-4.65-3.9-7.041-1.2-2.4-2.351-4.825-3.4-7.3-.273-.613-.515-1.239-.774-1.858s-.512-1.241-.748-1.869l-.722-1.88-.682-1.895a121.488,121.488,0,0,1-4.37-15.507c-.147-.656-.274-1.317-.4-1.978l-.376-1.974-.374-1.946-.439-1.932a65.474,65.474,0,0,0-2.3-7.566,53.46,53.46,0,0,0-7.535-13.787c-.806-1.034-1.638-2.049-2.531-3.007s-1.8-1.9-2.777-2.774a36.846,36.846,0,0,0-3.033-2.476c-.527-.383-1.063-.751-1.61-1.1-.272-.175-.549-.341-.826-.5-.139-.079-.278-.158-.416-.23-.07-.038-.138-.074-.2-.106l-.1-.049-.072-.034-.066-.031a.79.79,0,0,1,.647-1.441Z" transform="translate(-163.61 -225.628)" fill="#bdd0fb"/>
      </g>
      <g id="Grupo_121793" data-name="Grupo 121793" transform="translate(294.552 147.337)">
        <g id="Grupo_121788" data-name="Grupo 121788" transform="translate(9.111 0)">
          <path id="Trazado_188094" data-name="Trazado 188094" d="M1079.94,465.715a.429.429,0,0,1-.342-.688c.347-.459.707-.917,1.07-1.361a.429.429,0,1,1,.664.543c-.356.436-.709.885-1.05,1.335A.429.429,0,0,1,1079.94,465.715Z" transform="translate(-1079.511 -447.056)" fill="#91b3fa"/>
          <path id="Trazado_188095" data-name="Trazado 188095" d="M1179.484,419.833a.429.429,0,0,1-.42-.345c-.227-1.137-.5-2.28-.817-3.4a.429.429,0,0,1,.826-.234c.322,1.138.6,2.3.833,3.462a.429.429,0,0,1-.337.5A.407.407,0,0,1,1179.484,419.833ZM1176.752,411a.429.429,0,0,1-.395-.261c-.454-1.063-.958-2.125-1.5-3.156a.429.429,0,0,1,.76-.4c.549,1.051,1.062,2.133,1.525,3.217a.429.429,0,0,1-.394.6Zm-4.478-8.086a.428.428,0,0,1-.353-.184c-.663-.955-1.37-1.893-2.1-2.789a.429.429,0,0,1,.664-.543c.746.914,1.467,1.87,2.142,2.843a.429.429,0,0,1-.352.674Zm-68-6.986a.429.429,0,0,1-.295-.74c.858-.811,1.76-1.6,2.681-2.342a.429.429,0,1,1,.539.668c-.9.729-1.788,1.5-2.63,2.3A.429.429,0,0,1,1104.276,395.932Zm61.979-.025a.426.426,0,0,1-.3-.118c-.841-.8-1.724-1.57-2.626-2.3a.429.429,0,0,1,.539-.668c.919.743,1.82,1.531,2.677,2.343a.429.429,0,0,1-.3.74Zm-54.646-5.6a.429.429,0,0,1-.226-.794c1.009-.623,2.051-1.212,3.1-1.752a.429.429,0,1,1,.393.762c-1.028.53-2.051,1.109-3.041,1.72A.425.425,0,0,1,1111.608,390.3Zm47.319-.023a.427.427,0,0,1-.224-.064c-.984-.606-2.008-1.182-3.043-1.712a.429.429,0,1,1,.391-.763c1.055.54,2.1,1.127,3.1,1.745a.429.429,0,0,1-.225.794Zm-39-4.008a.429.429,0,0,1-.146-.832c1.112-.4,2.253-.768,3.392-1.082a.429.429,0,1,1,.228.827c-1.117.309-2.236.666-3.327,1.062A.429.429,0,0,1,1119.926,386.272Zm30.677,0a.42.42,0,0,1-.146-.026c-1.09-.393-2.21-.748-3.328-1.056a.429.429,0,1,1,.227-.827c1.14.313,2.281.676,3.392,1.077a.429.429,0,0,1-.146.832Zm-8.966-2.234a.444.444,0,0,1-.061,0c-1.146-.165-2.315-.285-3.474-.36a.429.429,0,0,1-.4-.456.436.436,0,0,1,.456-.4c1.182.076,2.373.2,3.541.367a.429.429,0,0,1-.06.854Zm-12.744-.007a.429.429,0,0,1-.06-.854c1.17-.167,2.362-.289,3.541-.363a.434.434,0,0,1,.455.4.429.429,0,0,1-.4.455c-1.157.073-2.326.193-3.474.357A.442.442,0,0,1,1128.892,384.031Z" transform="translate(-1098.885 -382.814)" fill="#91b3fa"/>
          <path id="Trazado_188096" data-name="Trazado 188096" d="M1476.96,590.683a.429.429,0,0,1-.429-.416c-.017-.563-.046-1.133-.084-1.7a.429.429,0,0,1,.4-.458.438.438,0,0,1,.457.4c.039.573.068,1.155.086,1.729a.429.429,0,0,1-.416.442Z" transform="translate(-1395.515 -546.255)" fill="#91b3fa"/>
        </g>
        <g id="Grupo_121789" data-name="Grupo 121789" transform="translate(0 44.309)">
          <path id="Trazado_188097" data-name="Trazado 188097" d="M1415.064,753.3a.429.429,0,0,1-.308-.728c.4-.407.786-.825,1.16-1.242a.429.429,0,0,1,.638.574c-.381.424-.779.85-1.182,1.265A.427.427,0,0,1,1415.064,753.3Z" transform="translate(-1337.196 -720.394)" fill="#91b3fa"/>
          <path id="Trazado_188098" data-name="Trazado 188098" d="M1082.287,675.428l-.389,0a.429.429,0,0,1,0-.858h0l.38,0c1.013,0,2.041-.035,3.055-.1a.436.436,0,0,1,.457.4.429.429,0,0,1-.4.458C1084.367,675.392,1083.32,675.428,1082.287,675.428Zm-6-.4a.46.46,0,0,1-.058,0c-1.152-.155-2.312-.356-3.451-.6a.429.429,0,0,1,.179-.839c1.117.238,2.256.436,3.386.587a.429.429,0,0,1-.056.854Zm14.675-.443a.429.429,0,0,1-.082-.85c1.121-.22,2.246-.487,3.344-.793a.429.429,0,1,1,.23.826c-1.119.312-2.266.584-3.408.81A.43.43,0,0,1,1090.958,674.585Zm-23.523-1.662a.427.427,0,0,1-.141-.024c-1.1-.382-2.2-.811-3.262-1.275a.429.429,0,0,1,.343-.787c1.044.455,2.12.876,3.2,1.251a.429.429,0,0,1-.141.834Zm32.223-.992a.429.429,0,0,1-.166-.824c1.048-.44,2.1-.928,3.115-1.452a.429.429,0,1,1,.392.763c-1.039.534-2.107,1.032-3.175,1.48A.422.422,0,0,1,1099.658,671.93Zm-40.469-2.84a.425.425,0,0,1-.219-.06c-1-.593-1.987-1.234-2.938-1.9a.429.429,0,1,1,.494-.7c.933.657,1.9,1.285,2.883,1.867a.429.429,0,0,1-.22.8Zm48.459-1.508a.429.429,0,0,1-.242-.783c.943-.643,1.873-1.33,2.764-2.043a.429.429,0,0,1,.536.67c-.908.726-1.856,1.426-2.817,2.081A.429.429,0,0,1,1107.647,667.582Zm-55.763-3.905a.425.425,0,0,1-.289-.112c-.857-.781-1.7-1.609-2.494-2.459a.429.429,0,0,1,.625-.587c.783.834,1.606,1.645,2.447,2.412a.429.429,0,0,1-.289.746Zm-6.062-6.777a.428.428,0,0,1-.347-.177c-.538-.74-1.062-1.507-1.557-2.281q-.2-.313-.394-.628a.429.429,0,0,1,.73-.451q.19.309.387.616c.486.76,1,1.513,1.528,2.239a.429.429,0,0,1-.346.681Zm-4.592-7.851a.429.429,0,0,1-.39-.25c-.484-1.058-.932-2.148-1.333-3.24a.429.429,0,0,1,.805-.3c.393,1.071.833,2.141,1.308,3.178a.429.429,0,0,1-.39.607Zm-2.925-8.612a.429.429,0,0,1-.417-.333c-.26-1.133-.479-2.291-.651-3.442a.429.429,0,0,1,.849-.126c.169,1.13.383,2.266.638,3.377a.43.43,0,0,1-.419.525Z" transform="translate(-1036.742 -628.822)" fill="#91b3fa"/>
          <path id="Trazado_188099" data-name="Trazado 188099" d="M1035.265,602.706a.429.429,0,0,1-.428-.419c-.013-.572-.015-1.154-.006-1.731a.436.436,0,0,1,.436-.422.429.429,0,0,1,.422.436c-.009.567-.007,1.138.005,1.7a.429.429,0,0,1-.419.439Z" transform="translate(-1034.825 -600.133)" fill="#91b3fa"/>
        </g>
        <g id="Grupo_121792" data-name="Grupo 121792" transform="translate(11.209 10.629)">
          <path id="Trazado_188100" data-name="Trazado 188100" d="M1089.818,464.851a.541.541,0,0,0,.228.585l5.506,3.609a28.68,28.68,0,0,0,1.335,9.2l-4.246,5.025a.541.541,0,0,0-.052.626l4.041,6.785a.542.542,0,0,0,.575.253l6.441-1.34a28.681,28.681,0,0,0,7.449,5.553l.551,6.561a.541.541,0,0,0,.406.479l7.655,1.94a.541.541,0,0,0,.585-.228l3.609-5.506a28.676,28.676,0,0,0,9.195-1.335l5.026,4.246a.541.541,0,0,0,.626.052l6.785-4.041a.541.541,0,0,0,.253-.575l-1.34-6.441a28.671,28.671,0,0,0,5.553-7.449l6.561-.551a.541.541,0,0,0,.479-.406l1.94-7.655a.54.54,0,0,0-.228-.585l-5.506-3.609a28.664,28.664,0,0,0-1.334-9.195l4.246-5.026a.541.541,0,0,0,.052-.626l-4.041-6.785a.542.542,0,0,0-.575-.253l-6.441,1.34a28.682,28.682,0,0,0-7.45-5.553l-.551-6.56a.541.541,0,0,0-.406-.479l-7.655-1.94a.541.541,0,0,0-.586.228l-3.609,5.506a28.676,28.676,0,0,0-9.195,1.335l-5.026-4.246a.54.54,0,0,0-.626-.051l-6.785,4.041a.541.541,0,0,0-.253.575l1.34,6.441a28.685,28.685,0,0,0-5.553,7.449l-6.56.552a.541.541,0,0,0-.479.406Z" transform="translate(-1089.802 -434.945)" fill="#91b3fa"/>
          <g id="Grupo_121790" data-name="Grupo 121790" transform="translate(26.942 26.945)">
            <path id="Trazado_188101" data-name="Trazado 188101" d="M1229.6,582.407h-.007a7.663,7.663,0,1,1,.007,0Zm0-14.024a6.369,6.369,0,0,0-.006,12.737h.006a6.369,6.369,0,0,0,.006-12.737Z" transform="translate(-1221.94 -567.1)" fill="#bdd0fb"/>
          </g>
          <g id="Grupo_121791" data-name="Grupo 121791" transform="translate(16.085 14.931)">
            <path id="Trazado_188102" data-name="Trazado 188102" d="M1187.4,547.562a19.717,19.717,0,0,1-18.71-13.423l1.219-.41a18.434,18.434,0,0,0,21,12.209l.041-.008.043-.008a18.421,18.421,0,0,0,14.224-13.529,18.546,18.546,0,0,0,.572-4.559,18.419,18.419,0,0,0-34.628-8.7l-1.133-.61a19.7,19.7,0,1,1,17.374,29.043Z" transform="translate(-1168.692 -508.174)" fill="#bdd0fb"/>
          </g>
        </g>
      </g>
      <g id="Grupo_121794" data-name="Grupo 121794" transform="translate(318.465 348.051)">
        <path id="Trazado_188103" data-name="Trazado 188103" d="M1654.4,1169.518c-9.459,11.8-67.307,78.252-139.411,35.167,0,0,26.823-53.548,138.6-37.235A1.28,1.28,0,0,1,1654.4,1169.518Z" transform="translate(-1514.993 -1164.358)" fill="#b2b5df"/>
        <path id="Trazado_188104" data-name="Trazado 188104" d="M1703.265,1207.145c-4.257,2.291-8.557,4.492-12.878,6.656s-8.667,4.274-13.037,6.335-8.765,4.071-13.183,6.029-8.868,3.844-13.341,5.675c-8.951,3.646-18.015,7.035-27.248,9.922q-6.917,2.187-13.989,3.861a122.011,122.011,0,0,1-14.3,2.563.385.385,0,1,1-.085-.765h0a121.287,121.287,0,0,0,14.219-2.494q7.042-1.633,13.955-3.795c9.22-2.844,18.283-6.193,27.237-9.8q6.711-2.718,13.348-5.618t13.2-5.974q6.563-3.064,13.053-6.281c4.325-2.146,8.634-4.33,12.893-6.6h0a.163.163,0,0,1,.154.288Z" transform="translate(-1578.578 -1198.177)" fill="url(#linear-gradient)"/>
      </g>
      <g id="Grupo_121795" data-name="Grupo 121795" transform="translate(333.414 242.446)">
        <path id="Trazado_188105" data-name="Trazado 188105" d="M1588.312,760.688s4.452-21.892,30.62-40.117c24.279-16.91,83.416-55.489,99.849-79.813a1.2,1.2,0,0,1,2.184.866,147.329,147.329,0,0,1-40.878,77.611C1641.5,757.779,1588.312,760.688,1588.312,760.688Z" transform="translate(-1588.312 -640.218)" fill="#b2b5df"/>
        <path id="Trazado_188106" data-name="Trazado 188106" d="M1732.551,756.119a51.307,51.307,0,0,1-3.677,8.485c-.179.342-.351.688-.536,1.027l-.573,1.006-1.149,2.013-1.231,1.963c-.417.651-.807,1.32-1.263,1.944a109.367,109.367,0,0,1-11.673,14.394c-1.029,1.158-2.174,2.2-3.279,3.282-1.121,1.065-2.2,2.183-3.381,3.177l-3.488,3.062c-.57.524-1.193.984-1.8,1.467l-1.822,1.437-1.822,1.437-.913.716-.945.673-3.78,2.691c-.633.443-1.253.909-1.9,1.333L1687.4,807.5l-3.857,2.553c-5.172,3.358-10.368,6.679-15.643,9.871-2.625,1.616-5.276,3.189-7.918,4.775l-7.973,4.673c-5.317,3.109-10.637,6.207-15.844,9.472-1.314.8-2.584,1.66-3.87,2.5-.649.413-1.266.867-1.894,1.307s-1.26.877-1.874,1.336c-1.206.945-2.449,1.848-3.586,2.875-1.194.966-2.255,2.07-3.353,3.142l-.007.007a.182.182,0,0,1-.263-.252,54.45,54.45,0,0,1,6.82-6.283c.607-.479,1.236-.927,1.853-1.393s1.234-.933,1.874-1.363c1.271-.876,2.53-1.775,3.827-2.609,5.156-3.4,10.458-6.544,15.724-9.738l7.9-4.784c2.628-1.6,5.265-3.189,7.875-4.818q7.856-4.846,15.582-9.894l3.846-2.549,1.923-1.275c.641-.424,1.258-.877,1.888-1.315l3.762-2.646.94-.661.908-.7,1.813-1.414a135.87,135.87,0,0,0,13.782-12.156,108.4,108.4,0,0,0,11.893-14.015c.467-.61.866-1.266,1.306-1.895l1.291-1.906,1.211-1.959.605-.98c.2-.331.378-.668.568-1,.371-.672.764-1.333,1.119-2.015l1.047-2.053a45.289,45.289,0,0,0,1.834-4.23.022.022,0,0,1,.028-.015A.024.024,0,0,1,1732.551,756.119Z" transform="translate(-1614.55 -732.465)" fill="#bdd0fb"/>
      </g>
      <g id="Grupo_121796" data-name="Grupo 121796" transform="translate(317.928 192.795)">
        <path id="Trazado_188107" data-name="Trazado 188107" d="M1613.872,394.54a1.362,1.362,0,0,0-2.546-.7c-6.69,11.939-25.214,42.7-45.6,56.463-33.2,22.417-61.956,64.9-50.995,93.155C1514.729,543.455,1610.024,548.728,1613.872,394.54Z" transform="translate(-1512.358 -393.143)" fill="#b2b5df"/>
        <path id="Trazado_188108" data-name="Trazado 188108" d="M1653.166,485.785c-.131.39-.278.725-.418,1.08l-.438,1.048-.9,2.084c-.607,1.386-1.229,2.765-1.854,4.142q-1.889,4.126-3.871,8.208c-2.644,5.442-5.429,10.815-8.3,16.143s-5.865,10.588-8.973,15.781l-1.162,1.95-1.188,1.934c-.8,1.286-1.571,2.587-2.39,3.859l-2.43,3.834-2.488,3.8a294.894,294.894,0,0,1-21.788,29.041c-.246.288-.487.579-.738.863l-.757.847-1.514,1.693-1.514,1.693c-.511.558-1.038,1.1-1.556,1.654l-1.561,1.65c-.525.546-1.029,1.111-1.574,1.637l-3.22,3.2a160.624,160.624,0,0,1-13.746,11.859.146.146,0,0,1-.179-.23h0a171.917,171.917,0,0,0,13.5-12.059l3.178-3.225c.537-.529,1.035-1.1,1.552-1.647l1.539-1.66c.511-.555,1.03-1.1,1.535-1.664l1.492-1.7,1.492-1.7.746-.851c.247-.285.484-.579.727-.868l2.9-3.474c.96-1.164,1.889-2.354,2.835-3.53.469-.591.946-1.176,1.408-1.772l1.374-1.8,1.374-1.8c.46-.6.916-1.2,1.358-1.812,3.611-4.84,7.029-9.82,10.4-14.832,6.7-10.053,12.878-20.445,18.723-31.019q4.371-7.938,8.433-16.043,2.036-4.049,3.989-8.139c.645-1.366,1.287-2.733,1.914-4.108l.929-2.066.453-1.038c.143-.345.3-.7.419-1.026l.011-.03a.145.145,0,0,1,.273.1Z" transform="translate(-1558.688 -466.744)" fill="url(#linear-gradient)"/>
      </g>
      <g id="Grupo_121800" data-name="Grupo 121800" transform="translate(142.676 168.823)">
        <g id="Grupo_121799" data-name="Grupo 121799" transform="translate(12.845 10.925)">
          <g id="Grupo_121797" data-name="Grupo 121797">
            <path id="Trazado_188109" data-name="Trazado 188109" d="M431.066,382.949a44.814,44.814,0,0,0,12.3-31.362V325.571l-67.181-1.986L309,325.571v26.016a44.752,44.752,0,0,0,12.23,31.362L355.716,419a9.525,9.525,0,0,1-.118,13.254L321.289,468.3A44.808,44.808,0,0,0,309,499.659v26.016l67.181,1.986,67.181-1.986V499.659a44.814,44.814,0,0,0-12.3-31.362L396.547,432.25a9.525,9.525,0,0,1-.1-13.254Z" transform="translate(-309 -323.585)" fill="#a1a4ce"/>
            <path id="Trazado_188110" data-name="Trazado 188110" d="M429.64,459.077s-17.818-12.694-20.5-33.454c2.681-20.76,20.5-33.454,20.5-33.454,43.04-29.792,26.954-66.593,26.954-66.593l-58.726-1.991-58.445,1.991s-15.945,36.8,27.1,66.593c0,0,17.939,12.694,20.638,33.454-2.7,20.76-20.638,33.454-20.638,33.454-43.04,29.792-27.1,66.593-27.1,66.593l58.445,1.99,58.726-1.99S472.679,488.869,429.64,459.077Z" transform="translate(-330.921 -323.585)" fill="#bdd0fb"/>
          </g>
          <g id="Grupo_121798" data-name="Grupo 121798" transform="translate(14.181 33.663)">
            <path id="Trazado_188111" data-name="Trazado 188111" d="M430.807,544.817a23.49,23.49,0,0,1,9.378,11.736c.116.321.225.979.324,1.293a3.328,3.328,0,0,0,2.849,2.428h.036a5.3,5.3,0,0,0,4.594-3.589,23.23,23.23,0,0,1,9.116-11.349C488.555,524.848,494.72,504,494.72,504H393.39S399.529,524.389,430.807,544.817Z" transform="translate(-390.365 -504)" fill="#febf10"/>
            <path id="Trazado_188112" data-name="Trazado 188112" d="M445.748,1067a25.363,25.363,0,0,1-9.525-11.992c-.22-.567-.423-1.264-.6-1.816a3.337,3.337,0,0,0-3.119-2.344,5.043,5.043,0,0,0-4.757,3.277,25.976,25.976,0,0,1-9.663,12.629c-33.05,21.551-39.529,44.069-39.529,44.069H485.178S478.711,1088.51,445.748,1067Z" transform="translate(-378.555 -939.35)" fill="#febf10"/>
          </g>
          <path id="Trazado_188113" data-name="Trazado 188113" d="M632.152,809.216a2.552,2.552,0,1,1-2.552-2.552A2.552,2.552,0,0,1,632.152,809.216Z" transform="translate(-562.202 -709.683)" fill="url(#linear-gradient-3)"/>
          <path id="Trazado_188114" data-name="Trazado 188114" d="M653.082,897.568a1.89,1.89,0,1,1-1.89-1.891A1.89,1.89,0,0,1,653.082,897.568Z" transform="translate(-579.917 -780.814)" fill="url(#linear-gradient-4)"/>
          <path id="Trazado_188115" data-name="Trazado 188115" d="M615.993,964.327a1.891,1.891,0,1,1-1.89-1.891A1.891,1.891,0,0,1,615.993,964.327Z" transform="translate(-550.39 -834.17)" fill="url(#linear-gradient-5)"/>
        </g>
        <rect id="Rectángulo_43208" data-name="Rectángulo 43208" width="160.053" height="19.166" rx="9.583" fill="#a1a4ce"/>
        <rect id="Rectángulo_43209" data-name="Rectángulo 43209" width="160.053" height="19.166" rx="9.583" transform="translate(0 211.37)" fill="#a1a4ce"/>
      </g>
      <g id="Grupo_121803" data-name="Grupo 121803" transform="translate(191.781 209.716)">
        <path id="Trazado_188116" data-name="Trazado 188116" d="M638.751,594.349l104.907,1.842A10.87,10.87,0,0,1,754.331,606.7L759.4,758.928a8.015,8.015,0,0,1-8.006,8.283l-120.275.074a7.609,7.609,0,0,1-7.612-7.742L626.2,606.468A12.338,12.338,0,0,1,638.751,594.349Z" transform="translate(-623.509 -572.23)" fill="url(#linear-gradient-6)"/>
        <path id="Trazado_188117" data-name="Trazado 188117" d="M663.211,1316.369h0l-13.451-.41a8.354,8.354,0,0,1-8.067-8.464l.357-20.313a.343.343,0,0,1,.349-.337.347.347,0,0,1,.337.349l-.357,20.313a7.666,7.666,0,0,0,7.4,7.767l13.451.41a.343.343,0,0,1-.02.685Z" transform="translate(-637.984 -1123.536)" fill="#91b3fa"/>
        <path id="Trazado_188118" data-name="Trazado 188118" d="M644.322,1243.826a.343.343,0,0,1-.334-.349l.058-3.289a.343.343,0,0,1,.349-.337h0a.343.343,0,0,1,.335.349l-.058,3.289a.342.342,0,0,1-.349.337Z" transform="translate(-639.813 -1086.123)" fill="#91b3fa"/>
        <g id="Grupo_121801" data-name="Grupo 121801" transform="translate(9.585 20.849)">
          <path id="Trazado_188119" data-name="Trazado 188119" d="M676.522,588.172c14.292,2.194,63.45,9.068,104.235,6.657a3.314,3.314,0,0,1,3.513,3.188l5.437,152.916a3.814,3.814,0,0,1-3.653,3.947c-17.148.713-87.765,3.393-112.883.315a3.021,3.021,0,0,1-2.651-3.037l1.874-160.483A3.584,3.584,0,0,1,676.522,588.172Z" transform="translate(-670.521 -588.13)" fill="#91b3fa"/>
          <path id="Trazado_188120" data-name="Trazado 188120" d="M684.589,607.747c13.754,2.112,61.06,8.727,100.31,6.406a3.189,3.189,0,0,1,3.381,3.068l5.232,147.158a3.67,3.67,0,0,1-3.515,3.8c-16.5.686-84.461,3.265-108.632.3a2.908,2.908,0,0,1-2.551-2.923l1.8-154.44A3.449,3.449,0,0,1,684.589,607.747Z" transform="translate(-677.123 -603.715)" fill="#c7c8da"/>
          <path id="Trazado_188121" data-name="Trazado 188121" d="M842.067,685.42a.755.755,0,0,0,.776-.8l-.024-.488a.9.9,0,0,0-.855-.835L752.51,681.02c-.449-.011-.592.27-.319.626l1.213,1.579a1.92,1.92,0,0,0,1.312.661Z" transform="translate(-735.43 -662.08)" fill="url(#linear-gradient)"/>
          <path id="Trazado_188122" data-name="Trazado 188122" d="M752,709.84c-.448-.012-.592.27-.319.626l1.212,1.579a1.921,1.921,0,0,0,1.312.661l87.351,1.534a.755.755,0,0,0,.776-.8l-.024-.488a.9.9,0,0,0-.855-.835Z" transform="translate(-735.027 -685.024)" fill="url(#linear-gradient)"/>
          <path id="Trazado_188123" data-name="Trazado 188123" d="M761.687,909.789h-.032l-11.809.062a3.2,3.2,0,0,1-3.307-2.676l-1.185-9.891a2.18,2.18,0,0,1,.491-1.648,2.619,2.619,0,0,1,1.813-.928h0c1-.082,2.365-.22,3.872-.371,3.282-.328,7-.7,9.19-.761h.048a3.321,3.321,0,0,1,3.32,2.285c.65,2.269.66,6.577.61,11.166A2.947,2.947,0,0,1,761.687,909.789Zm-13.949-14.121a1.651,1.651,0,0,0-1.146.577,1.225,1.225,0,0,0-.281.924l1.185,9.891a2.243,2.243,0,0,0,2.346,1.828l11.809-.062h.023a1.984,1.984,0,0,0,2.063-1.81c.048-4.515.041-8.746-.574-10.891a2.385,2.385,0,0,0-2.415-1.586c-2.153.059-6.016.446-9.121.756-1.513.152-2.889.289-3.888.373Z" transform="translate(-730.084 -831.297)" fill="#fff"/>
          <path id="Trazado_188124" data-name="Trazado 188124" d="M757.541,905.1c2.478-.206,7.861-.833,10.417-.9a2.286,2.286,0,0,1,2.311,1.546c.521,1.817.509,5.455.473,8.813a1.964,1.964,0,0,1-2.05,1.828l-9.437.049a2.18,2.18,0,0,1-2.259-1.8l-.947-7.9A1.532,1.532,0,0,1,757.541,905.1Z" transform="translate(-738.604 -839.75)" fill="#bdd0fb"/>
          <path id="Trazado_188125" data-name="Trazado 188125" d="M872.414,921.923a.581.581,0,0,0-.6.778l1.2,4.306a1.119,1.119,0,0,0,1.035.773l59.757-.886a.8.8,0,0,0,.785-.827l-.1-2.773a.864.864,0,0,0-.845-.822Z" transform="translate(-830.753 -853.866)" fill="url(#linear-gradient)"/>
          <path id="Trazado_188126" data-name="Trazado 188126" d="M762.419,882.579h0a1.812,1.812,0,0,1,2.51.643l2.391,4.14a.582.582,0,0,0,1.038-.06l5.586-12.945a.645.645,0,0,1,1.237.26,25.389,25.389,0,0,1-7.126,17.778s-3.483-1.3-6.363-7.378A1.9,1.9,0,0,1,762.419,882.579Z" transform="translate(-742.957 -815.687)" fill="url(#linear-gradient-10)"/>
          <path id="Trazado_188127" data-name="Trazado 188127" d="M765.143,779.76h-.033l-11.809.062a3.2,3.2,0,0,1-3.307-2.676l-1.185-9.891a2.182,2.182,0,0,1,.491-1.648,2.619,2.619,0,0,1,1.813-.928h0c.995-.082,2.365-.22,3.872-.371,3.282-.328,7-.7,9.19-.761h.048a3.322,3.322,0,0,1,3.32,2.285c.65,2.269.659,6.577.61,11.166A2.947,2.947,0,0,1,765.143,779.76Zm-13.949-14.121a1.652,1.652,0,0,0-1.146.577,1.225,1.225,0,0,0-.281.924l1.185,9.891a2.243,2.243,0,0,0,2.346,1.828l11.808-.062h.023a1.984,1.984,0,0,0,2.063-1.81c.048-4.515.041-8.746-.574-10.891a2.385,2.385,0,0,0-2.416-1.586c-2.153.059-6.016.446-9.12.756-1.514.152-2.889.289-3.888.373Z" transform="translate(-732.835 -727.78)" fill="#fff"/>
          <path id="Trazado_188128" data-name="Trazado 188128" d="M761,775.066c2.478-.206,7.861-.833,10.417-.9a2.286,2.286,0,0,1,2.311,1.547c.521,1.817.509,5.455.473,8.813a1.964,1.964,0,0,1-2.05,1.828l-9.437.049a2.18,2.18,0,0,1-2.259-1.8l-.947-7.9A1.533,1.533,0,0,1,761,775.066Z" transform="translate(-741.354 -736.232)" fill="#bdd0fb"/>
          <path id="Trazado_188129" data-name="Trazado 188129" d="M875.87,791.894a.581.581,0,0,0-.6.778l1.2,4.306a1.119,1.119,0,0,0,1.035.773l59.757-.885a.8.8,0,0,0,.786-.827l-.1-2.773a.865.865,0,0,0-.846-.822Z" transform="translate(-833.504 -750.349)" fill="url(#linear-gradient)"/>
          <path id="Trazado_188130" data-name="Trazado 188130" d="M765.874,752.55h0a1.813,1.813,0,0,1,2.51.643l2.391,4.14a.582.582,0,0,0,1.038-.06l5.586-12.945a.645.645,0,0,1,1.237.26,25.391,25.391,0,0,1-7.126,17.778s-3.483-1.295-6.364-7.378A1.9,1.9,0,0,1,765.874,752.55Z" transform="translate(-745.707 -712.17)" fill="url(#linear-gradient-12)"/>
          <path id="Trazado_188131" data-name="Trazado 188131" d="M763.526,1033.9h-.032l-11.809.061a3.2,3.2,0,0,1-3.307-2.676l-1.185-9.891a2.181,2.181,0,0,1,.491-1.648,2.619,2.619,0,0,1,1.813-.928h0c.995-.083,2.365-.22,3.872-.371,3.282-.328,7-.7,9.19-.761h.048a3.321,3.321,0,0,1,3.32,2.286c.65,2.268.66,6.576.61,11.165A2.947,2.947,0,0,1,763.526,1033.9Zm-13.949-14.121a1.65,1.65,0,0,0-1.146.577,1.225,1.225,0,0,0-.281.924l1.185,9.891a2.243,2.243,0,0,0,2.346,1.827l11.809-.061h.023a1.983,1.983,0,0,0,2.062-1.81c.049-4.515.041-8.746-.573-10.89a2.4,2.4,0,0,0-2.416-1.586c-2.153.059-6.016.446-9.12.756-1.513.152-2.889.289-3.888.373Z" transform="translate(-731.549 -930.104)" fill="#fff"/>
          <path id="Trazado_188132" data-name="Trazado 188132" d="M759.379,1029.208c2.478-.206,7.861-.833,10.417-.9a2.286,2.286,0,0,1,2.311,1.547c.521,1.817.509,5.455.473,8.813a1.964,1.964,0,0,1-2.05,1.828l-9.437.049a2.18,2.18,0,0,1-2.259-1.8l-.947-7.9A1.533,1.533,0,0,1,759.379,1029.208Z" transform="translate(-740.067 -938.558)" fill="#bdd0fb"/>
          <path id="Trazado_188133" data-name="Trazado 188133" d="M874.253,1046.036a.581.581,0,0,0-.6.778l1.2,4.306a1.119,1.119,0,0,0,1.035.773l59.758-.885a.8.8,0,0,0,.786-.827l-.1-2.773a.864.864,0,0,0-.845-.822Z" transform="translate(-832.217 -952.674)" fill="url(#linear-gradient)"/>
          <path id="Trazado_188134" data-name="Trazado 188134" d="M764.257,1006.692h0a1.812,1.812,0,0,1,2.51.643l2.391,4.14a.582.582,0,0,0,1.038-.06l5.586-12.945a.645.645,0,0,1,1.237.26,25.391,25.391,0,0,1-7.126,17.778s-3.484-1.3-6.363-7.379A1.9,1.9,0,0,1,764.257,1006.692Z" transform="translate(-744.42 -914.495)" fill="url(#linear-gradient-14)"/>
          <path id="Trazado_188135" data-name="Trazado 188135" d="M759.873,1153.164h-.031l-11.809.061a3.2,3.2,0,0,1-3.307-2.676l-1.185-9.891a2.183,2.183,0,0,1,.491-1.648,2.623,2.623,0,0,1,1.813-.929h0c.994-.082,2.363-.219,3.869-.37,3.121-.313,7.005-.7,9.194-.761a3.368,3.368,0,0,1,3.368,2.284c.65,2.269.66,6.576.61,11.165A2.948,2.948,0,0,1,759.873,1153.164Zm-13.948-14.122a1.653,1.653,0,0,0-1.146.577,1.225,1.225,0,0,0-.281.924l1.185,9.891a2.242,2.242,0,0,0,2.345,1.828l11.809-.061a2.028,2.028,0,0,0,2.086-1.811c.048-4.515.041-8.745-.573-10.89a2.414,2.414,0,0,0-2.416-1.586c-2.154.058-6.019.446-9.124.756-1.512.151-2.886.289-3.884.372Z" transform="translate(-728.64 -1025.051)" fill="#fff"/>
          <path id="Trazado_188136" data-name="Trazado 188136" d="M755.727,1148.466c2.478-.206,7.861-.833,10.417-.9a2.287,2.287,0,0,1,2.311,1.547c.52,1.817.509,5.455.473,8.813a1.965,1.965,0,0,1-2.05,1.828l-9.437.049a2.18,2.18,0,0,1-2.259-1.8l-.947-7.9A1.533,1.533,0,0,1,755.727,1148.466Z" transform="translate(-737.16 -1033.5)" fill="#bdd0fb"/>
          <path id="Trazado_188137" data-name="Trazado 188137" d="M870.6,1165.294a.581.581,0,0,0-.6.778l1.2,4.306a1.119,1.119,0,0,0,1.035.773l59.758-.885a.8.8,0,0,0,.786-.827l-.1-2.773a.864.864,0,0,0-.845-.822Z" transform="translate(-829.309 -1047.617)" fill="url(#linear-gradient)"/>
          <path id="Trazado_188138" data-name="Trazado 188138" d="M760.605,1125.95h0a1.812,1.812,0,0,1,2.51.643l2.391,4.14a.582.582,0,0,0,1.038-.06l5.586-12.945a.645.645,0,0,1,1.237.26,25.392,25.392,0,0,1-7.126,17.778s-3.483-1.295-6.363-7.378A1.9,1.9,0,0,1,760.605,1125.95Z" transform="translate(-741.513 -1009.438)" fill="url(#linear-gradient-16)"/>
          <path id="Trazado_188139" data-name="Trazado 188139" d="M755.117,1276.166h-.033l-11.809.062a3.2,3.2,0,0,1-3.307-2.676l-1.185-9.891a2.181,2.181,0,0,1,.491-1.648,2.62,2.62,0,0,1,1.813-.928h0c1-.083,2.365-.22,3.872-.371,3.282-.328,7-.7,9.19-.761a3.358,3.358,0,0,1,3.368,2.284c.65,2.269.66,6.577.61,11.166A2.947,2.947,0,0,1,755.117,1276.166Zm-13.949-14.121a1.652,1.652,0,0,0-1.146.577,1.225,1.225,0,0,0-.281.924l1.185,9.892a2.243,2.243,0,0,0,2.346,1.827l11.809-.062h.023a1.984,1.984,0,0,0,2.063-1.81c.048-4.515.041-8.746-.574-10.891a2.428,2.428,0,0,0-2.415-1.586c-2.153.059-6.016.446-9.121.756-1.513.152-2.889.289-3.888.373Z" transform="translate(-724.853 -1122.975)" fill="#fff"/>
          <path id="Trazado_188140" data-name="Trazado 188140" d="M750.969,1271.465c2.478-.206,7.861-.833,10.417-.9a2.286,2.286,0,0,1,2.311,1.547c.521,1.817.509,5.455.473,8.813a1.965,1.965,0,0,1-2.05,1.828l-9.437.049a2.181,2.181,0,0,1-2.259-1.8l-.947-7.9A1.533,1.533,0,0,1,750.969,1271.465Z" transform="translate(-733.372 -1131.421)" fill="#bdd0fb"/>
          <path id="Trazado_188141" data-name="Trazado 188141" d="M865.844,1288.294a.581.581,0,0,0-.6.778l1.2,4.306a1.119,1.119,0,0,0,1.035.773l59.758-.885a.8.8,0,0,0,.786-.827l-.1-2.773a.864.864,0,0,0-.845-.822Z" transform="translate(-825.522 -1145.538)" fill="url(#linear-gradient)"/>
          <path id="Trazado_188142" data-name="Trazado 188142" d="M755.848,1248.95h0a1.812,1.812,0,0,1,2.51.643l2.391,4.14a.582.582,0,0,0,1.038-.06l5.586-12.945a.645.645,0,0,1,1.237.26,25.392,25.392,0,0,1-7.126,17.778s-3.483-1.3-6.363-7.378A1.9,1.9,0,0,1,755.848,1248.95Z" transform="translate(-737.725 -1107.359)" fill="url(#linear-gradient-18)"/>
        </g>
        <path id="Trazado_188143" data-name="Trazado 188143" d="M939.426,488.29c-3.743-2.7-7.039-2.708-9.37-2.065a4.627,4.627,0,0,0-3.371,4.807l.808,10.936,11.884,1.265S946.767,493.591,939.426,488.29Zm-5.389,8.716a2.968,2.968,0,1,1,3.02-2.916A2.969,2.969,0,0,1,934.037,497.006Z" transform="translate(-864.86 -485.874)" fill="url(#linear-gradient-19)"/>
        <g id="Grupo_121802" data-name="Grupo 121802" transform="translate(62.957 1.316)">
          <path id="Trazado_188144" data-name="Trazado 188144" d="M933.027,502.8a.589.589,0,0,1-.376-.507l-.129-1.742a.59.59,0,0,1,1.176-.086l.129,1.742a.59.59,0,0,1-.8.593Zm-.252-3.413a.589.589,0,0,1-.376-.507l-.1-1.322a4.72,4.72,0,0,1,3.433-4.892,9.2,9.2,0,0,1,4.5-.106.59.59,0,0,1-.257,1.151,8.034,8.034,0,0,0-3.929.091,3.538,3.538,0,0,0-2.571,3.669l.1,1.322a.59.59,0,0,1-.8.593Z" transform="translate(-932.288 -492.326)" fill="#91b3fa"/>
        </g>
        <path id="Trazado_188145" data-name="Trazado 188145" d="M850.414,563.728l.1-5.49a3.35,3.35,0,0,1,3.523-3.287l37.823,1.961a3.258,3.258,0,0,1,3.087,3.116l.224,5.28Z" transform="translate(-804.151 -540.864)" fill="url(#linear-gradient-20)"/>
        <path id="Trazado_188146" data-name="Trazado 188146" d="M910.905,563.487a.343.343,0,0,1,.015-.685l1.627.029a.339.339,0,0,1,.337.349.342.342,0,0,1-.349.337l-1.628-.029Z" transform="translate(-852.043 -547.117)" fill="#fff"/>
        <path id="Trazado_188147" data-name="Trazado 188147" d="M858.12,567.066a.589.589,0,0,1-.377-.56l.039-2.221a3.415,3.415,0,0,1,3.474-3.354l5.984.105a.59.59,0,0,1-.021,1.18l-5.984-.105a2.237,2.237,0,0,0-2.274,2.2l-.039,2.221a.589.589,0,0,1-.8.539Z" transform="translate(-809.985 -545.627)" fill="#91b3fa"/>
        <path id="Trazado_188148" data-name="Trazado 188148" d="M777.481,587.136l66.181,1.161a4.892,4.892,0,0,1,4.749,4.142l.05.324a4.2,4.2,0,0,1-4.226,4.845l-67.9-1.192a2.732,2.732,0,0,1-2.678-2.91l.2-3.036A3.567,3.567,0,0,1,777.481,587.136Z" transform="translate(-743.041 -566.489)" fill="url(#linear-gradient-21)"/>
      </g>
      <g id="Grupo_121808" data-name="Grupo 121808" transform="translate(282.313 196.77)">
        <g id="Grupo_121804" data-name="Grupo 121804" transform="translate(65.782 116.809)">
          <path id="Trazado_188149" data-name="Trazado 188149" d="M1661.509,1095.4a1.16,1.16,0,0,0,1.172-.886l18.511-97.987a1.082,1.082,0,0,0-.975-1.225,1.184,1.184,0,0,0-1.372.871l-18.511,97.988a1.082,1.082,0,0,0,.975,1.225A1.335,1.335,0,0,0,1661.509,1095.4Z" transform="translate(-1660.317 -995.285)" fill="#7d97f4"/>
          <path id="Trazado_188150" data-name="Trazado 188150" d="M1882.6,1100.372a1.312,1.312,0,0,0,.236-.021,1.073,1.073,0,0,0,.932-1.252l-21.821-96.713a1.19,1.19,0,0,0-1.4-.832,1.073,1.073,0,0,0-.931,1.252l21.821,96.713A1.166,1.166,0,0,0,1882.6,1100.372Z" transform="translate(-1818.963 -1000.258)" fill="#7d97f4"/>
          <path id="Trazado_188151" data-name="Trazado 188151" d="M1730.79,1111.832h31.633a1.07,1.07,0,1,0,0-2.126H1730.79a1.07,1.07,0,1,0,0,2.126Z" transform="translate(-1715.474 -1086.377)" fill="#7d97f4"/>
          <path id="Trazado_188152" data-name="Trazado 188152" d="M1733.772,1111.832h30.485a1.066,1.066,0,1,0,0-2.126h-30.485a1.066,1.066,0,1,0,0,2.126Z" transform="translate(-1717.882 -1086.377)" fill="#7d97f4"/>
          <path id="Trazado_188153" data-name="Trazado 188153" d="M1730.79,1198.729h31.633a1.07,1.07,0,1,0,0-2.126H1730.79a1.07,1.07,0,1,0,0,2.126Z" transform="translate(-1715.474 -1155.556)" fill="#7d97f4"/>
          <path id="Trazado_188154" data-name="Trazado 188154" d="M1716.7,1198.729h38.35a1.07,1.07,0,1,0,0-2.126H1716.7a1.07,1.07,0,1,0,0,2.126Z" transform="translate(-1704.258 -1155.556)" fill="#7d97f4"/>
          <path id="Trazado_188155" data-name="Trazado 188155" d="M1730.79,1285.627h31.633a1.07,1.07,0,1,0,0-2.126H1730.79a1.07,1.07,0,1,0,0,2.126Z" transform="translate(-1715.474 -1224.737)" fill="#7d97f4"/>
          <path id="Trazado_188156" data-name="Trazado 188156" d="M1698.736,1285.627h45.905a1.07,1.07,0,1,0,0-2.126h-45.905a1.07,1.07,0,1,0,0,2.126Z" transform="translate(-1689.955 -1224.737)" fill="#7d97f4"/>
          <path id="Trazado_188157" data-name="Trazado 188157" d="M1730.79,1372.525h43.06a1.07,1.07,0,1,0,0-2.126h-43.06a1.07,1.07,0,1,0,0,2.126Z" transform="translate(-1715.474 -1293.917)" fill="#7d97f4"/>
          <path id="Trazado_188158" data-name="Trazado 188158" d="M1684.2,1372.525h52.558a1.07,1.07,0,1,0,0-2.126H1684.2a1.07,1.07,0,1,0,0,2.126Z" transform="translate(-1678.386 -1293.917)" fill="#7d97f4"/>
        </g>
        <g id="Grupo_121807" data-name="Grupo 121807" transform="translate(0 0)">
          <path id="Trazado_188159" data-name="Trazado 188159" d="M1700.861,696.821c10.661-.885,13.448,1.321,13.448,1.321l-5.123,8.089s-10.476-.207-17.983-5.992a18.318,18.318,0,0,0,3.006-4.487A14.116,14.116,0,0,0,1700.861,696.821Z" transform="translate(-1619.123 -640.013)" fill="#febf10"/>
          <path id="Trazado_188160" data-name="Trazado 188160" d="M1655.242,623.017a.327.327,0,0,1,.622-.125l1.36,2.9a3.025,3.025,0,0,1,.241,1.8l-.477,1.69a2.916,2.916,0,0,0,.6,2.321,20.292,20.292,0,0,0,7.7,5.992,18.325,18.325,0,0,1-3.006,4.487,18.389,18.389,0,0,1-6.4-8.887,1.426,1.426,0,0,1-1.006-1.418Z" transform="translate(-1590.201 -581.86)" fill="url(#linear-gradient-22)"/>
          <path id="Trazado_188161" data-name="Trazado 188161" d="M1843.078,1081.372s.772,1.217.966,4.624a.555.555,0,0,1-.551.588h-6.038a.356.356,0,0,1-.338-.468,9.662,9.662,0,0,1,3.81-5.059Z" transform="translate(-1735.272 -946.759)" fill="url(#linear-gradient-23)"/>
          <path id="Trazado_188162" data-name="Trazado 188162" d="M1856.713,1070.042l-.341,2.864a.539.539,0,0,1-.47.473,4.764,4.764,0,0,1-1.277-.012.885.885,0,0,1-.729-.877v-2.765Z" transform="translate(-1748.644 -937.738)" fill="url(#linear-gradient-24)"/>
          <path id="Trazado_188163" data-name="Trazado 188163" d="M1755.016,1081.056a8.43,8.43,0,0,1,1.131,4.262,1.067,1.067,0,0,1-1.073,1.043H1745.7a.449.449,0,0,1-.258-.817,40.8,40.8,0,0,1,7.784-4.489Z" transform="translate(-1662.148 -946.759)" fill="url(#linear-gradient-25)"/>
          <path id="Trazado_188164" data-name="Trazado 188164" d="M1786.956,1060.526l-.728,3.536a.729.729,0,0,1-.863.573,2.642,2.642,0,0,1-.824-.345.837.837,0,0,1-.374-.854l.753-4.284Z" transform="translate(-1693.123 -929.322)" fill="url(#linear-gradient-26)"/>
          <path id="Trazado_188165" data-name="Trazado 188165" d="M1798.624,824.737a10.152,10.152,0,0,1,3.009,4.919c.477,2.686-1.35,46.349-1.35,46.349s-2.532.421-3.838-.37c0,0-1.548-28.337-2.725-34.885,0,0-6.172,29.353-7.882,34.657,0,0-2.44.3-3.227-.168,0,0,1.617-38.05,3.649-44.814Z" transform="translate(-1691.893 -742.701)" fill="url(#linear-gradient-27)"/>
          <path id="Trazado_188166" data-name="Trazado 188166" d="M1836.409,874.7a.269.269,0,0,0,.26-.2l1.049-4.025,2.236-1.434a.269.269,0,1,0-.29-.452l-2.324,1.491a.268.268,0,0,0-.115.158l-1.076,4.127a.269.269,0,0,0,.26.337Z" transform="translate(-1734.509 -777.572)" fill="url(#linear-gradient-28)"/>
          <path id="Trazado_188167" data-name="Trazado 188167" d="M1682.516,697.9c3.753-4.044,10.9-5.871,15.042-6.622a3.8,3.8,0,0,1,4.243,2.408c1.863,5.007,6.929,18.034,7.911,20.273.806,1.837,1.647,3.631,2.181,4.752a1.346,1.346,0,0,1-.628,1.794,98.466,98.466,0,0,1-12.289,4.319.872.872,0,0,1-1.115-.839,2.726,2.726,0,0,0-.388-1.4l-9.621-16.033c-6,6.649-11.248,7.257-15.283,5.8a30.331,30.331,0,0,0,1.335-6.3C1679.863,705.03,1682.516,697.9,1682.516,697.9Z" transform="translate(-1604.288 -636.403)" fill="#febf10"/>
          <path id="Trazado_188168" data-name="Trazado 188168" d="M1630.8,752.9l1.076-1.434c3.482,2.391,6.393,2.958,8.776,2.55a30.346,30.346,0,0,1-1.335,6.3C1634,758.4,1630.8,752.9,1630.8,752.9Z" transform="translate(-1571.038 -684.372)" fill="url(#linear-gradient-29)"/>
          <path id="Trazado_188169" data-name="Trazado 188169" d="M1589.077,746.63l-6.06.236-5.579-3.116c.8-.5,5.329.524,5.329.524s4.734-.716,6.016-.718c1.064,0,.912,1.529.83,2.047-.017.106-.031.17-.031.17Z" transform="translate(-1528.554 -678.072)" fill="url(#linear-gradient-30)"/>
          <path id="Trazado_188170" data-name="Trazado 188170" d="M1747.578,655.089l3.2,7.8s-3.674,2.543-6.629,2.3l-1.6-7.015Z" transform="translate(-1660.002 -607.642)" fill="url(#linear-gradient-31)"/>
          <g id="Grupo_121805" data-name="Grupo 121805">
            <path id="Trazado_188171" data-name="Trazado 188171" d="M1385.95,488.388c1.469-2.591,3.683-7.89.64-12.544-3.971-6.073-19.817,3.028-11.925,12.4a1.064,1.064,0,0,1-.82,1.745h-16.354V472.37a2.022,2.022,0,0,0-2.9-1.826,25.77,25.77,0,0,1-7.2,2.322c-5.209.744-8.3-5.21-7.625-10.171s6.633-7.939,9.61-7.443a12.9,12.9,0,0,1,4.792,2.667,2.024,2.024,0,0,0,3.275-1.59v-17.2h15.8a1.565,1.565,0,0,0,1.243-2.515c-3.3-4.34-1.848-9.733,2.675-11.377,5.458-1.985,10.419-.5,11.164,5.21a9.443,9.443,0,0,1-3.4,8.683h17.331l-.625,17.279a2.023,2.023,0,0,0,3.135,1.762,16.564,16.564,0,0,1,6.63-2.667c5.458-.744,10.419,3.721,10.419,8.435s-4.217,10.419-10.916,9.179a27.881,27.881,0,0,1-5.414-1.493,2.019,2.019,0,0,0-2.773,1.879v16.483h-15.839A1.066,1.066,0,0,1,1385.95,488.388Z" transform="translate(-1339.268 -423.989)" fill="#ff004c"/>
            <path id="Trazado_188172" data-name="Trazado 188172" d="M1401.534,488.782h-16.247a1.474,1.474,0,0,1-1.281-2.206c1.488-2.624,3.551-7.688.653-12.12a4.472,4.472,0,0,0-4.43-1.746,10.7,10.7,0,0,0-8.411,6.066c-1.03,2.524-.488,5.149,1.569,7.59a1.472,1.472,0,0,1-1.132,2.415h-16.762V470.76a1.615,1.615,0,0,0-2.313-1.458,26.37,26.37,0,0,1-7.32,2.358,6.14,6.14,0,0,1-5.359-1.826,10.852,10.852,0,0,1-2.727-8.8,8.753,8.753,0,0,1,3.693-5.752c2.054-1.513,4.621-2.332,6.387-2.037a12.677,12.677,0,0,1,4.976,2.748,1.616,1.616,0,0,0,2.616-1.269v-17.61h16.207a1.157,1.157,0,0,0,.919-1.86,8.275,8.275,0,0,1-1.587-7.349,7.069,7.069,0,0,1,4.447-4.658c3.326-1.209,6.356-1.146,8.534.178a7.026,7.026,0,0,1,3.174,5.363,9.817,9.817,0,0,1-2.731,8.328h16.68l-.64,17.7a1.615,1.615,0,0,0,2.5,1.406,16.688,16.688,0,0,1,6.8-2.73,9.778,9.778,0,0,1,7.727,2.393,8.7,8.7,0,0,1,3.156,6.446,10.245,10.245,0,0,1-3.667,7.655,9.1,9.1,0,0,1-7.731,1.925,28.579,28.579,0,0,1-5.493-1.517,1.574,1.574,0,0,0-1.494.155,1.621,1.621,0,0,0-.717,1.347Zm-20.6-16.921a5,5,0,0,1,4.411,2.15c1.345,2.058,3.053,6.479-.627,12.968h0a.658.658,0,0,0,0,.662.644.644,0,0,0,.569.326h15.431V471.89a2.435,2.435,0,0,1,1.078-2.024,2.409,2.409,0,0,1,2.257-.233,27.758,27.758,0,0,0,5.334,1.47,8.306,8.306,0,0,0,7.061-1.75,9.542,9.542,0,0,0,3.373-7.028,7.887,7.887,0,0,0-2.876-5.831,8.96,8.96,0,0,0-7.08-2.2,15.882,15.882,0,0,0-6.462,2.6,2.432,2.432,0,0,1-2.535.085,2.389,2.389,0,0,1-1.231-2.2l.609-16.856h-18.175l1.029-.739a8.953,8.953,0,0,0,3.234-8.3,6.242,6.242,0,0,0-2.789-4.771c-1.962-1.193-4.744-1.231-7.831-.108a6.262,6.262,0,0,0-3.943,4.122,7.471,7.471,0,0,0,1.453,6.626,1.973,1.973,0,0,1-1.568,3.17h-15.392V454.72a2.432,2.432,0,0,1-3.934,1.912,12.187,12.187,0,0,0-4.608-2.587c-1.539-.256-3.911.521-5.77,1.89a7.951,7.951,0,0,0-3.369,5.206,10,10,0,0,0,2.494,8.115,5.35,5.35,0,0,0,4.669,1.6,25.553,25.553,0,0,0,7.083-2.287,2.43,2.43,0,0,1,3.48,2.194v17.206h15.946a.646.646,0,0,0,.6-.383.635.635,0,0,0-.09-.692c-2.861-3.4-2.5-6.455-1.7-8.423a11.575,11.575,0,0,1,9.088-6.569Q1380.551,471.86,1380.932,471.861Z" transform="translate(-1337.679 -422.378)" fill="#fff"/>
          </g>
          <g id="Grupo_121806" data-name="Grupo 121806" transform="translate(79.106 38.523)">
            <path id="Trazado_188173" data-name="Trazado 188173" d="M1731.69,627.214c-.073.1-2.313,8.195-2.313,8.195l4.647,1.181,3.262-7.353S1732.916,625.477,1731.69,627.214Z" transform="translate(-1728.62 -623.608)" fill="url(#linear-gradient-32)"/>
            <path id="Trazado_188174" data-name="Trazado 188174" d="M1732.583,618.066l-1.414,4.005a.588.588,0,0,1-.074.143c-.192.273-.921,1.162-1.785.361a5.337,5.337,0,0,0-2.183-1.5.593.593,0,0,0-.675.426,25.644,25.644,0,0,0-.782,3.9.592.592,0,0,0,.481.638,19.109,19.109,0,0,0,4.439.369.594.594,0,0,0,.5-.344c.443-.967,1.8-3.9,2.3-4.662.474-.713,1.635-.693,2.121-.65a.583.583,0,0,0,.437-.143,1.538,1.538,0,0,0,.1-2.468.594.594,0,0,1,.014-.855,1.541,1.541,0,0,0,.2-2.29,2.174,2.174,0,0,0-2.595-.621.594.594,0,0,1-.715-.264.469.469,0,0,0-.484-.226.584.584,0,0,1-.624-.6,1.772,1.772,0,0,0-1.368-1.849c-2.03-.632-3.3,1.329-3.422,2.793s2.115,2.023,3.432,1.925c1-.075,1.745.918,2.044,1.4A.588.588,0,0,1,1732.583,618.066Z" transform="translate(-1725.667 -611.322)" fill="url(#linear-gradient-33)"/>
            <path id="Trazado_188175" data-name="Trazado 188175" d="M1760.968,657.468s.328-2.54,1.385-2.665,2.085.744,1.035,2.17C1762.08,658.747,1760.968,657.468,1760.968,657.468Z" transform="translate(-1753.771 -645.928)" fill="url(#linear-gradient-34)"/>
          </g>
        </g>
      </g>
      <g id="Grupo_121809" data-name="Grupo 121809" transform="translate(322.677 283.892)">
        <path id="Trazado_188176" data-name="Trazado 188176" d="M1436.478,925.032c1.216,1.941,2.5,4.724,2.188,7.506-.562,5.059-8.322,7.308-15.123,4.5-4.858-2.008-2.776-8.6-1.19-12.21a1.723,1.723,0,0,0-1.587-2.406h-17.515V902.691a2.29,2.29,0,0,1,3.351-2.033,22.744,22.744,0,0,0,6.768,2.369c5.34.843,10.681-5.059,10.118-10.681s-5.9-9.837-11.524-9.556a8.42,8.42,0,0,0-4.847,1.932,2.285,2.285,0,0,1-3.668-1.834V865.644h18.529a1.206,1.206,0,0,0,.929-1.977c-8.942-10.613,9.012-20.924,13.511-14.044,3.447,5.273.939,11.277-.725,14.212a1.208,1.208,0,0,0,1.049,1.809h17.945v17.837a2.287,2.287,0,0,1-3.671,1.833,11.317,11.317,0,0,0-5.885-2.525c-5.9-.562-9.275,5.059-10.432,9.556s3.968,10.962,9.308,10.118a56.011,56.011,0,0,0,7.959-1.971,2.29,2.29,0,0,1,2.983,2.2l-.122,19.726h-16.874A1.718,1.718,0,0,0,1436.478,925.032Z" transform="translate(-1402.843 -846.99)" fill="#ff004c"/>
        <path id="Trazado_188177" data-name="Trazado 188177" d="M1428.085,937.08a16.611,16.611,0,0,1-6.289-1.262,4.93,4.93,0,0,1-2.815-2.777c-1.176-2.925.117-7.038,1.408-9.974a1.278,1.278,0,0,0-.1-1.232,1.323,1.323,0,0,0-1.11-.6h-17.923V901.1a2.7,2.7,0,0,1,3.947-2.395,21.951,21.951,0,0,0,6.643,2.327,7.759,7.759,0,0,0,6.44-2.318,9.908,9.908,0,0,0,3.209-7.92c-.526-5.256-5.611-9.463-11.1-9.189a7.983,7.983,0,0,0-4.613,1.844,2.613,2.613,0,0,1-2.783.3,2.706,2.706,0,0,1-1.547-2.453V863.642h18.936a.785.785,0,0,0,.727-.465.771.771,0,0,0-.11-.841c-3.224-3.826-2.822-7.271-1.918-9.488a13.056,13.056,0,0,1,10.251-7.41c2.6-.25,4.669.591,5.83,2.368,1.518,2.321,3.443,7.309-.712,14.636a.8.8,0,0,0,.695,1.2H1453.5v18.245a2.7,2.7,0,0,1-1.539,2.447,2.625,2.625,0,0,1-2.792-.294,10.815,10.815,0,0,0-5.671-2.439c-5.49-.524-8.817,4.657-10,9.252-.53,2.061.364,4.753,2.279,6.859a7.556,7.556,0,0,0,6.571,2.755,55.911,55.911,0,0,0,7.9-1.957,2.7,2.7,0,0,1,3.515,2.592l-.124,20.131h-17.279a1.31,1.31,0,0,0-1.159.686,1.267,1.267,0,0,0,.03,1.3h0c1.205,1.924,2.573,4.834,2.247,7.768a6.042,6.042,0,0,1-3.19,4.553A12.251,12.251,0,0,1,1428.085,937.08Zm-26.017-16.662h17.107a2.135,2.135,0,0,1,1.793.972,2.107,2.107,0,0,1,.167,2.006c-1.006,2.286-2.525,6.539-1.4,9.341a4.143,4.143,0,0,0,2.37,2.327c4.01,1.657,8.738,1.567,11.766-.224a5.26,5.26,0,0,0,2.8-3.941c.3-2.7-.992-5.43-2.128-7.245h0a2.073,2.073,0,0,1-.053-2.13,2.115,2.115,0,0,1,1.873-1.106h16.469l.119-19.321a1.882,1.882,0,0,0-2.451-1.81,56.7,56.7,0,0,1-8.019,1.986,8.36,8.36,0,0,1-7.3-3.012c-2.094-2.3-3.062-5.292-2.465-7.611,1.263-4.906,4.864-10.432,10.866-9.861a11.614,11.614,0,0,1,6.1,2.61,1.793,1.793,0,0,0,1.931.2,1.893,1.893,0,0,0,1.079-1.713V864.458H1435.15a1.616,1.616,0,0,1-1.4-2.418c1.692-2.984,4.037-8.743.739-13.788-.988-1.51-2.788-2.222-5.07-2a12.186,12.186,0,0,0-9.574,6.906c-.819,2.008-1.175,5.14,1.786,8.654a1.613,1.613,0,0,1-1.24,2.647h-18.121v16.836a1.9,1.9,0,0,0,1.086,1.718,1.78,1.78,0,0,0,1.921-.2,8.783,8.783,0,0,1,5.08-2.02,11.633,11.633,0,0,1,7.937,2.656,10.233,10.233,0,0,1,.552,15.86,8.564,8.564,0,0,1-7.128,2.53,22.754,22.754,0,0,1-6.893-2.41,1.882,1.882,0,0,0-2.754,1.672Z" transform="translate(-1401.252 -845.395)" fill="#fff"/>
      </g>
      <g id="Grupo_121810" data-name="Grupo 121810" transform="translate(304.222 358.041)">
        <path id="Trazado_188178" data-name="Trazado 188178" d="M1360.306,1265.454c1.72-3.068,2-7.465-6.017-11.314-11.57-5.553-13.921,4.9-10.97,11.585a2.568,2.568,0,0,1-2.36,3.593H1325.62V1252.8a2.3,2.3,0,0,0-3.172-2.138,19.442,19.442,0,0,1-6.709,1.515c-6.139.281-10.813-4.778-9.882-11.8s6.908-8.713,9.822-7.87a29.293,29.293,0,0,1,6.342,3.641,2.292,2.292,0,0,0,3.6-1.885v-18.9h17.515a1.723,1.723,0,0,1,1.587,2.406c-1.586,3.606-3.668,10.2,1.19,12.21,6.8,2.811,14.56.562,15.122-4.5.309-2.783-.972-5.565-2.188-7.506a1.718,1.718,0,0,1,1.474-2.612H1377.2l-.106,17.17a2.567,2.567,0,0,1-4.027,2.085,11.445,11.445,0,0,0-5.563-2.109c-5.059-.281-10.118,3.654-10.416,8.713s3.389,11.524,9.01,11.243a15.77,15.77,0,0,0,7.506-2.949,2.558,2.558,0,0,1,3.985,2.141l-.106,17.672h-14.947A2.578,2.578,0,0,1,1360.306,1265.454Z" transform="translate(-1305.33 -1214.945)" fill="#ff004c"/>
        <path id="Trazado_188179" data-name="Trazado 188179" d="M1376.29,1268.134h-15.353a2.938,2.938,0,0,1-2.561-1.464,3,3,0,0,1-.021-3.007l.356.2-.356-.2a5.927,5.927,0,0,0,.693-4.8c-.7-2.2-2.893-4.2-6.531-5.948-4.2-2.016-7.49-2.043-9.517-.08-1.975,1.913-2.963,6.465-.9,11.133a2.975,2.975,0,0,1-2.734,4.165h-15.745V1251.2a1.911,1.911,0,0,0-.86-1.6,1.824,1.824,0,0,0-1.745-.166,19.786,19.786,0,0,1-6.85,1.547,9.681,9.681,0,0,1-7.727-3.086,11.128,11.128,0,0,1-2.578-9.18,9.445,9.445,0,0,1,4.108-7.022,7.917,7.917,0,0,1,6.232-1.186,27.615,27.615,0,0,1,6.461,3.7,1.884,1.884,0,0,0,2.959-1.55v-19.309h17.923a2.135,2.135,0,0,1,1.793.972,2.107,2.107,0,0,1,.167,2.006c-1.006,2.286-2.525,6.539-1.4,9.341a4.142,4.142,0,0,0,2.37,2.327c4.01,1.657,8.738,1.567,11.766-.224a5.26,5.26,0,0,0,2.8-3.941c.3-2.7-.992-5.43-2.128-7.245a2.072,2.072,0,0,1-.053-2.13,2.115,2.115,0,0,1,1.873-1.106h17.284l-.108,17.58a2.908,2.908,0,0,1-1.565,2.591,3.016,3.016,0,0,1-3.1-.17,10.884,10.884,0,0,0-5.359-2.041,9.9,9.9,0,0,0-6.713,2.263,8.507,8.507,0,0,0-3.273,6.067,11.91,11.91,0,0,0,3.237,8.583,7.01,7.01,0,0,0,5.346,2.229,14.964,14.964,0,0,0,7.3-2.88,2.966,2.966,0,0,1,4.62,2.482Zm-29.409-17.568a14.046,14.046,0,0,1,5.989,1.615c3.849,1.848,6.189,4.013,6.955,6.437a6.711,6.711,0,0,1-.759,5.444,2.187,2.187,0,0,0,.013,2.2,2.13,2.13,0,0,0,1.857,1.061h14.542l.1-17.267a2.151,2.151,0,0,0-3.351-1.8,15.739,15.739,0,0,1-7.713,3.018,7.742,7.742,0,0,1-5.966-2.469,12.591,12.591,0,0,1-3.472-9.2c.3-5.15,5.372-9.4,10.845-9.1a11.671,11.671,0,0,1,5.768,2.178,2.175,2.175,0,0,0,2.261.126,2.1,2.1,0,0,0,1.131-1.875l.1-16.759h-16.464a1.31,1.31,0,0,0-1.159.686,1.267,1.267,0,0,0,.031,1.3c1.2,1.924,2.573,4.834,2.247,7.767a6.043,6.043,0,0,1-3.191,4.554c-3.288,1.945-8.192,2.053-12.493.276a4.93,4.93,0,0,1-2.815-2.777c-1.176-2.925.117-7.038,1.408-9.974a1.277,1.277,0,0,0-.1-1.232,1.322,1.322,0,0,0-1.11-.6h-17.107v18.494a2.694,2.694,0,0,1-1.45,2.395,2.655,2.655,0,0,1-2.79-.175,27.53,27.53,0,0,0-6.222-3.585,7.191,7.191,0,0,0-5.559,1.085,8.655,8.655,0,0,0-3.745,6.447,10.329,10.329,0,0,0,2.37,8.521,8.88,8.88,0,0,0,7.088,2.823,18.972,18.972,0,0,0,6.569-1.483,2.661,2.661,0,0,1,2.514.237,2.724,2.724,0,0,1,1.225,2.276v16.114h14.93a2.165,2.165,0,0,0,1.82-.986,2.107,2.107,0,0,0,.168-2.034c-1.648-3.737-1.828-9.229,1.083-12.048A6.149,6.149,0,0,1,1346.882,1250.566Z" transform="translate(-1303.735 -1213.353)" fill="#fff"/>
      </g>
      <g id="Grupo_121811" data-name="Grupo 121811" transform="translate(283.397 339.572)">
        <path id="Trazado_188180" data-name="Trazado 188180" d="M1190.394,1193.41a15.337,15.337,0,0,0,1.569-4.593c1.621-9.814-10.526-8.49-15.381-3.431-2.472,2.576-1.646,5.611-.239,7.97a2.578,2.578,0,0,1-2.192,3.922h-16.529v-15.832a2.376,2.376,0,0,1,3.491-2.088,15.8,15.8,0,0,0,7.24,1.812c6.465,0,8.012-8.713,8.222-11.524.19-2.549-4.443-12.73-15.362-6.42a2.369,2.369,0,0,1-3.556-2.048V1142.8h16.964a1.718,1.718,0,0,0,1.371-2.745c-3.938-5.414-.48-13.1,2.479-14.4,3.514-1.546,10.681-1.968,12.789,5.9a10.978,10.978,0,0,1-1.136,9.034,1.714,1.714,0,0,0,1.452,2.63H1207.7v18.9a2.292,2.292,0,0,1-3.6,1.885,29.292,29.292,0,0,0-6.342-3.641c-2.914-.843-8.891.843-9.822,7.87s3.742,12.086,9.882,11.8a19.443,19.443,0,0,0,6.709-1.515,2.3,2.3,0,0,1,3.172,2.138v16.522h-15.036A2.575,2.575,0,0,1,1190.394,1193.41Z" transform="translate(-1157.213 -1124.349)" fill="#ff004c"/>
        <path id="Trazado_188181" data-name="Trazado 188181" d="M1172.558,1196.107h-16.937v-16.24a2.742,2.742,0,0,1,1.322-2.36,2.8,2.8,0,0,1,2.764-.091,15.274,15.274,0,0,0,7.053,1.766c6.9,0,7.781-10.691,7.816-11.146.1-1.349-1.311-4.983-4.259-6.834-2.857-1.794-6.485-1.518-10.493.8a2.777,2.777,0,0,1-4.167-2.4v-18.782h17.372a1.275,1.275,0,0,0,1.157-.706,1.314,1.314,0,0,0-.116-1.392,10.661,10.661,0,0,1-1.407-9.1c.756-2.8,2.385-5.178,4.052-5.912a10.842,10.842,0,0,1,8.613-.072,9.074,9.074,0,0,1,4.734,6.242,11.415,11.415,0,0,1-1.185,9.358,1.306,1.306,0,0,0,1.108,2h16.534v19.309a2.7,2.7,0,0,1-1.45,2.4,2.656,2.656,0,0,1-2.79-.175,27.515,27.515,0,0,0-6.222-3.584,7.19,7.19,0,0,0-5.559,1.085,8.654,8.654,0,0,0-3.745,6.447,10.328,10.328,0,0,0,2.37,8.521,8.877,8.877,0,0,0,7.088,2.823,18.97,18.97,0,0,0,6.569-1.483,2.661,2.661,0,0,1,2.514.237,2.725,2.725,0,0,1,1.225,2.276v16.93h-15.444a2.982,2.982,0,0,1-2.634-4.378h0a14.89,14.89,0,0,0,1.528-4.47c.5-3.01-.325-5.144-2.378-6.172-3.243-1.624-9.224-.123-12.307,3.09-1.9,1.98-1.962,4.5-.183,7.479a2.988,2.988,0,0,1,.039,3.04A2.935,2.935,0,0,1,1172.558,1196.107Zm-16.121-.816h16.121a2.128,2.128,0,0,0,1.872-1.086,2.182,2.182,0,0,0-.03-2.219c-1.962-3.29-1.86-6.216.295-8.461,3.357-3.5,9.677-5.049,13.261-3.254,3.037,1.521,3.208,4.664,2.817,7.034a15.7,15.7,0,0,1-1.61,4.716,2.168,2.168,0,0,0,.063,2.145,2.143,2.143,0,0,0,1.848,1.039H1205.7V1179.09a1.91,1.91,0,0,0-.86-1.6,1.824,1.824,0,0,0-1.745-.166,19.781,19.781,0,0,1-6.85,1.547,9.677,9.677,0,0,1-7.727-3.086,11.128,11.128,0,0,1-2.578-9.18,9.445,9.445,0,0,1,4.108-7.022,7.917,7.917,0,0,1,6.232-1.186,27.621,27.621,0,0,1,6.461,3.7,1.885,1.885,0,0,0,2.959-1.55v-18.494h-15.718a2.122,2.122,0,0,1-1.8-3.256,10.619,10.619,0,0,0,1.086-8.71,8.3,8.3,0,0,0-4.3-5.717,9.991,9.991,0,0,0-7.932.083c-1.431.629-2.908,2.841-3.593,5.378a9.863,9.863,0,0,0,1.28,8.409,2.142,2.142,0,0,1,.183,2.242,2.076,2.076,0,0,1-1.884,1.151h-16.557V1159.6a1.961,1.961,0,0,0,2.944,1.7c2.989-1.727,7.381-3.265,11.334-.783,3.264,2.05,4.755,6.028,4.639,7.586-.33,4.42-2.519,11.9-8.629,11.9a16.083,16.083,0,0,1-7.427-1.857,1.994,1.994,0,0,0-1.966.062,1.933,1.933,0,0,0-.931,1.663Z" transform="translate(-1155.621 -1122.771)" fill="#fff"/>
      </g>
      <g id="Grupo_121814" data-name="Grupo 121814" transform="translate(238.815 292.258)">
        <path id="Trazado_188182" data-name="Trazado 188182" d="M991.7,1077.822s-2.236,1.088-2.647,2.337c-.33,1-2.8,1.132-3.046,3.1a2.262,2.262,0,0,1-1.893,1.988c-2.525.387-6.416,1.7-7.039,6.082-.475,3.346,1.231,4.615,3.021,5.054a2.536,2.536,0,0,1,1.923,2.929c-.255,1.273.125,2.745,2.331,3.909,4.943,2.608,9.88-6.179,9.88-6.179l1.012-15.344Z" transform="translate(-965.765 -1039.672)" fill="url(#linear-gradient-35)"/>
        <path id="Trazado_188183" data-name="Trazado 188183" d="M1100.64,1080.7s-12.649,13.459-24.744,14.2c0,0,1.011,6.829,2.6,7.9,0,0,16.461-9.094,22.306-19.8Z" transform="translate(-1044.501 -1041.96)" fill="url(#linear-gradient-36)"/>
        <path id="Trazado_188184" data-name="Trazado 188184" d="M927.534,1545.782l-.32,2.63a1.087,1.087,0,0,1-.953.95,16.827,16.827,0,0,1-3.52.055.93.93,0,0,1-.781-1.207,9.578,9.578,0,0,1,1.764-3.436h2.917A.9.9,0,0,1,927.534,1545.782Z" transform="translate(-921.916 -1411.418)" fill="url(#linear-gradient-37)"/>
        <path id="Trazado_188185" data-name="Trazado 188185" d="M1039.549,1398.626l.492,2.9s-1.649,16.7-1.942,23.382a5.231,5.231,0,0,0,.775,2.975l2.867,4.656-7.287-4.3-.145-.889,1.193-1.64L1033.94,1407a5.741,5.741,0,0,1,.653-3.175l1.507-2.832Z" transform="translate(-1011.084 -1295.068)" fill="url(#linear-gradient-38)"/>
        <path id="Trazado_188186" data-name="Trazado 188186" d="M1041.5,1541.254h-2.325a1.4,1.4,0,0,1-1.111-.545c-.725-.942-2.227-2.78-2.945-2.828-.967-.065-.843,3.372-.843,3.372h-.542l-.687-4.271a2.528,2.528,0,0,1,1.327-2.642h0a3.574,3.574,0,0,0,1.419,2.357c1.2.723,4.876,3.312,4.876,3.312a3.314,3.314,0,0,1,.945.025A.615.615,0,0,1,1041.5,1541.254Z" transform="translate(-1010.365 -1403.112)" fill="url(#linear-gradient-39)"/>
        <path id="Trazado_188187" data-name="Trazado 188187" d="M944.39,1400.673S934.731,1419,933.2,1423.18a40.179,40.179,0,0,0-2.094,8c-.032.516-.674,1.012-2.445,1.012a1.7,1.7,0,0,1-1.58-.721,1.032,1.032,0,0,1-.039-1c.559-1.131,2.332-4.745,2.989-6.384.784-1.957,2.471-10.825,3.4-13.909s1.971-6.428,6-9.509C939.42,1400.673,942.185,1397.965,944.39,1400.673Z" transform="translate(-925.905 -1295.739)" fill="url(#linear-gradient-40)"/>
        <path id="Trazado_188188" data-name="Trazado 188188" d="M1027.59,1171.854c2.492-10.558-3.82-16.53-3.82-16.53,3.983-3.823,11.24-5.563,11.24-5.563s6.925,5.063,6.1,9.025c-.481,2.322-4.867,13.911-4.867,13.911A9.637,9.637,0,0,1,1027.59,1171.854Z" transform="translate(-1003.003 -1096.943)" fill="#febf10"/>
        <path id="Trazado_188189" data-name="Trazado 188189" d="M992.552,1263.346c1.014-3.055,5.525-5.227,5.525-5.227a9.637,9.637,0,0,0,8.655.843,17.361,17.361,0,0,1,.282,6.707c-.628,3.231-4.566,23.994-4.566,23.994-6.206,1.257-15.75-1.265-15.75-1.265C990.65,1281.38,991.538,1266.4,992.552,1263.346Z" transform="translate(-973.489 -1183.208)" fill="#242ca3"/>
        <path id="Trazado_188190" data-name="Trazado 188190" d="M1048.66,1112.152l-2.026,9.1c-.194.8.537.671,1.347.518,1.327-.25,3.037-.766,3.609-1.8a.977.977,0,0,0,.1-.343l.87-6.31a1.133,1.133,0,0,0-.663-1.191l-1.679-.745A1.134,1.134,0,0,0,1048.66,1112.152Z" transform="translate(-1021.18 -1066.311)" fill="url(#linear-gradient-41)"/>
        <g id="Grupo_121812" data-name="Grupo 121812" transform="translate(25.659)">
          <path id="Trazado_188191" data-name="Trazado 188191" d="M1102.247,947.318a10.978,10.978,0,0,0,1.136-9.034c-2.108-7.87-9.275-7.448-12.789-5.9-2.959,1.3-6.417,8.986-2.479,14.4a1.718,1.718,0,0,1-1.371,2.745h-16.964V929.635a2.364,2.364,0,0,0-3.411-2.127,19.1,19.1,0,0,1-6.973,1.922c-6.746.562-9.943-5.34-9.609-11.243.29-5.119,7.728-11.507,15.748-5.961a2.365,2.365,0,0,0,3.7-1.958V892.71h20.8c-6.464,5.439-4.778,13.392,1.687,16.484s12.367.562,12.929-6.465a9.856,9.856,0,0,0-2.308-7.546,1.207,1.207,0,0,1,.9-2.011h16.782v17.244a2.285,2.285,0,0,0,3.668,1.834,8.42,8.42,0,0,1,4.847-1.932c5.621-.281,10.962,3.935,11.524,9.556s-4.778,11.524-10.118,10.681a22.746,22.746,0,0,1-6.768-2.369,2.29,2.29,0,0,0-3.35,2.033v19.729H1103.7A1.714,1.714,0,0,1,1102.247,947.318Z" transform="translate(-1049.355 -892.302)" fill="#ff004c"/>
          <path id="Trazado_188192" data-name="Trazado 188192" d="M1118.641,948.764h-16.534a2.122,2.122,0,0,1-1.8-3.256h0a10.619,10.619,0,0,0,1.086-8.71,8.3,8.3,0,0,0-4.3-5.718,9.994,9.994,0,0,0-7.932.083c-1.431.63-2.908,2.841-3.593,5.378a9.862,9.862,0,0,0,1.28,8.409,2.142,2.142,0,0,1,.183,2.242,2.076,2.076,0,0,1-1.884,1.151h-17.372v-20.3a1.957,1.957,0,0,0-.933-1.675,1.928,1.928,0,0,0-1.887-.087,19.468,19.468,0,0,1-7.121,1.964,8.552,8.552,0,0,1-6.9-2.3,12.182,12.182,0,0,1-3.155-9.37c.164-2.9,2.429-5.974,5.509-7.479,2-.977,6.07-2.119,10.879,1.206a1.908,1.908,0,0,0,2,.119,1.936,1.936,0,0,0,1.056-1.742V890.71h22.325l-.855.72c-2.9,2.44-4.276,5.519-3.875,8.669a9.383,9.383,0,0,0,5.475,7.135c3.243,1.551,6.439,1.671,8.769.329,2.069-1.191,3.34-3.485,3.578-6.458a9.5,9.5,0,0,0-2.208-7.245,1.61,1.61,0,0,1-.261-1.744,1.594,1.594,0,0,1,1.469-.943h17.19v17.651a1.9,1.9,0,0,0,1.086,1.718,1.78,1.78,0,0,0,1.92-.2,8.784,8.784,0,0,1,5.08-2.02,11.637,11.637,0,0,1,7.937,2.656,10.234,10.234,0,0,1,.552,15.861,8.564,8.564,0,0,1-7.127,2.53,22.75,22.75,0,0,1-6.893-2.41,1.883,1.883,0,0,0-2.754,1.672ZM1101,945.944a1.306,1.306,0,0,0,1.108,2h15.718V928.627a2.7,2.7,0,0,1,3.947-2.395,21.947,21.947,0,0,0,6.643,2.327,7.761,7.761,0,0,0,6.44-2.317,9.909,9.909,0,0,0,3.209-7.92c-.526-5.256-5.608-9.464-11.1-9.189a7.985,7.985,0,0,0-4.614,1.844,2.611,2.611,0,0,1-2.782.3,2.706,2.706,0,0,1-1.547-2.453V891.988h-16.375a.777.777,0,0,0-.726.464.794.794,0,0,0,.132.87,10.3,10.3,0,0,1,2.407,7.847c-.26,3.249-1.675,5.771-3.984,7.1-2.566,1.478-6.039,1.368-9.528-.3a10.192,10.192,0,0,1-5.932-7.768,10.332,10.332,0,0,1,3.365-8.676h-19.335v17.152a2.775,2.775,0,0,1-1.492,2.464,2.711,2.711,0,0,1-2.845-.171c-4.467-3.089-8.218-2.043-10.057-1.144-2.827,1.382-4.9,4.175-5.053,6.792a11.363,11.363,0,0,0,2.909,8.739,7.758,7.758,0,0,0,6.259,2.074,18.662,18.662,0,0,0,6.825-1.881,2.739,2.739,0,0,1,2.681.123,2.767,2.767,0,0,1,1.32,2.369v19.484h16.557a1.274,1.274,0,0,0,1.157-.706,1.313,1.313,0,0,0-.115-1.392,10.662,10.662,0,0,1-1.408-9.1c.757-2.8,2.385-5.178,4.052-5.912a10.842,10.842,0,0,1,8.613-.072,9.074,9.074,0,0,1,4.734,6.242,11.415,11.415,0,0,1-1.185,9.358Z" transform="translate(-1047.763 -890.71)" fill="#fff"/>
        </g>
        <path id="Trazado_188193" data-name="Trazado 188193" d="M1017.668,1158.135s18.53,22.627,32.375-3.137a3.185,3.185,0,0,0,.1-1.609,15.364,15.364,0,0,1,.408-3.053.48.48,0,0,0-.427-.571h0a.656.656,0,0,0-.579.248l-2.529,3.22a1.35,1.35,0,0,0,.716,1.6h0a.666.666,0,0,1,.247,1.006c-10.529,13.8-28.139-1.343-28.461-1.165C1018.375,1155.306,1017.054,1156,1017.668,1158.135Z" transform="translate(-998.021 -1096.944)" fill="url(#linear-gradient-42)"/>
        <g id="Grupo_121813" data-name="Grupo 121813" transform="translate(22.943 33.943)">
          <path id="Trazado_188194" data-name="Trazado 188194" d="M1051.669,1072.486a8.978,8.978,0,0,1,4.031,4.48c1.631,3.467.413,5.068-1.117,5.287a7.162,7.162,0,0,1-6.239-2.053C1045.923,1077.961,1048.55,1071.286,1051.669,1072.486Z" transform="translate(-1044.756 -1069.253)" fill="url(#linear-gradient-43)"/>
          <path id="Trazado_188195" data-name="Trazado 188195" d="M1039.658,1066.283s-1.81-5.072,2.687-5.132l1.058.74s1.65-2.812-1.058-4.155-5.878-.234-7.03,3.415-1.349,6.091.568,7.837,2.708-.234,2.708-.234-1.044-1.633-.619-2.506,1.406.181,1.406.181Z" transform="translate(-1034.443 -1057.186)" fill="url(#linear-gradient-44)"/>
          <path id="Trazado_188196" data-name="Trazado 188196" d="M1047.8,1097.479s-.915-2.613-2.136-1.572.992,2.414,1.859,2.858Z" transform="translate(-1043.092 -1087.817)" fill="url(#linear-gradient-45)"/>
        </g>
      </g>
      <g id="Grupo_121816" data-name="Grupo 121816" transform="translate(397.282 243.717)">
        <path id="Trazado_188197" data-name="Trazado 188197" d="M2117.469,947.151s-11.318,14.491,1.6,29.229l4.855-.453s-9.345-15.005-5.183-26.967l6.877.5,3.8-2.479Z" transform="translate(-2069.794 -886.97)" fill="url(#linear-gradient-46)"/>
        <path id="Trazado_188198" data-name="Trazado 188198" d="M2165.79,1280.836s9.17,19.986,13.981,28.265c0,0,.956,5.209,0,6.847l-.814.362,3.8-.113s.338-7.006.074-7.4a.968.968,0,0,0-.791-.366s-1.63-12.911-6.349-15.667l-4.574-15.754Z" transform="translate(-2111.916 -1149.709)" fill="url(#linear-gradient-47)"/>
        <path id="Trazado_188199" data-name="Trazado 188199" d="M2222.407,1439.828c-.006.092,2.968.05,4.583.02a1.285,1.285,0,0,0,1.232-1.013l1.219-6.408a1.152,1.152,0,0,0-.875-1.339l-.681-.156a3.647,3.647,0,0,0-.666,2.587c.306,1.255.578,4.5-.195,4.882a11.28,11.28,0,0,1-3,.445S2222.458,1439,2222.407,1439.828Z" transform="translate(-2156.99 -1272.247)" fill="url(#linear-gradient-48)"/>
        <path id="Trazado_188200" data-name="Trazado 188200" d="M2122.5,1462.088a.336.336,0,0,0,.169.627c2.7-.027,8.76-.113,9.3-.337.695-.289-.253-2.786-1.251-3.631l-5.509,1.8Z" transform="translate(-2077.315 -1294.391)" fill="url(#linear-gradient-49)"/>
        <path id="Trazado_188201" data-name="Trazado 188201" d="M2114.774,1289.515s5.926,28.667,7.6,34.259l-3.966,2.489s1.988-.338,3.461-.445,2.829-1.8,2.829-1.8l-.475-.758s-1.486-28.511-1.125-31.748Z" transform="translate(-2071.302 -1159.663)" fill="url(#linear-gradient-47)"/>
        <path id="Trazado_188202" data-name="Trazado 188202" d="M2090.1,1066.492c2.271.63,9.967,2.654,14.771,2.572l-2.949,16.644.235,2.715-9.616-.043a74.6,74.6,0,0,0-4.843-9.422c-.617-.905-.158-1.985.192-3.023l-.48-.32a1.308,1.308,0,0,1-.518-1.495l2.342-7.165A.715.715,0,0,1,2090.1,1066.492Z" transform="translate(-2049.049 -982.091)" fill="#febf10"/>
        <path id="Trazado_188203" data-name="Trazado 188203" d="M2108.346,1165.676l.189,1.645s-2.718,8.139,1.359,27.148c0,0,8.829,2.5,16.085-3.484,0,0-2.047-17.942-2.606-18.777-2.785-4.163-4.64-5.068-4.64-5.068l-.084-1.8S2110.888,1166.746,2108.346,1165.676Z" transform="translate(-2065.628 -1060.808)" fill="#242ca3"/>
        <path id="Trazado_188204" data-name="Trazado 188204" d="M2129.533,1049.108c-.034-.045,2.008-6.163,2.008-6.163l2.924.265,1.142,6.941S2131.025,1051.077,2129.533,1049.108Z" transform="translate(-2083.052 -963.366)" fill="url(#linear-gradient-47)"/>
        <path id="Trazado_188205" data-name="Trazado 188205" d="M2130.256,994.452c-.195.121-6.248,2.623-4.948,8.908a1.18,1.18,0,0,0,.671.841,10.26,10.26,0,0,0,5.088.842c3.171-.322,5.249-5.856,5.161-7.466S2132.189,993.249,2130.256,994.452Z" transform="translate(-2079.543 -924.522)" fill="url(#linear-gradient-52)"/>
        <path id="Trazado_188206" data-name="Trazado 188206" d="M2135.7,983.066c-.159.021-3.5,1.184-1.843,3.6s2.277,3.844,1.494,4.907c-.714.968-2.294.416-2.156,2.43a1.129,1.129,0,0,1-.481,1.021c-1.49,1.008-5.124,4.112-1.523,8.538a1.127,1.127,0,0,1,.127,1.262c-1.054,1.891-3.269,7.432,4.75,10.506,7.924,3.037,10.786-2.143,11.585-4.213a1.105,1.105,0,0,1,1.094-.7c.871.041,2.1-.1,2.048-1.268a2.906,2.906,0,0,0-1-1.848,1.1,1.1,0,0,1,.212-1.739,2.163,2.163,0,0,0,1.069-1.343c.48-1.78-.479-7.1-5.579-8a1.2,1.2,0,0,1-.933-.9c0-.006,0-.013,0-.019a1.1,1.1,0,0,1,.41-1.084,2.862,2.862,0,0,0,1.011-3.729,4.181,4.181,0,0,0-3.267-2.472,1.111,1.111,0,0,1-.91-1.328C2142.165,984.985,2141.85,982.259,2135.7,983.066Z" transform="translate(-2083.142 -915.579)" fill="url(#linear-gradient-53)"/>
        <g id="Grupo_121815" data-name="Grupo 121815" transform="translate(0 0)">
          <path id="Trazado_188207" data-name="Trazado 188207" d="M1916.478,697.643a16.619,16.619,0,0,1-6.034,1.639c-5.553.444-6.885-3.776-6.885-8.218s4.442-7.107,7.774-6.663a12.747,12.747,0,0,1,4.94,2.283,1.81,1.81,0,0,0,2.834-1.5V671.295H1932.4a1.745,1.745,0,0,0,1.513-2.63,11.84,11.84,0,0,1-1.479-6.254c0-7.552,8.885-10.662,11.393-4.442,1.664,4.124,1.121,8.639.566,11.213a1.748,1.748,0,0,0,1.713,2.114H1960.2v13.473a2.022,2.022,0,0,1-3.106,1.71,19.889,19.889,0,0,0-5.008-2.523c-2.783-.666-7.879,2.443-8.1,7.774s2.443,7.552,7.774,8a9.283,9.283,0,0,0,5.442-1.231,2.025,2.025,0,0,1,3,1.788v14.454h-12.886a2.351,2.351,0,0,1-2.247-3.051c1.114-3.59,1.629-9.142-5.523-9.738-8.77-.731-8.464,4.31-6.125,9.481a2.35,2.35,0,0,1-2.15,3.307h-12.16V699.26A1.814,1.814,0,0,0,1916.478,697.643Z" transform="translate(-1903.151 -654.238)" fill="#ff004c"/>
          <path id="Trazado_188208" data-name="Trazado 188208" d="M1959.014,713.542H1945.72a2.759,2.759,0,0,1-2.637-3.579c.637-2.053,1.117-4.914-.211-6.883-.908-1.346-2.576-2.13-4.957-2.328-3.33-.278-5.51.277-6.478,1.648-1.021,1.446-.766,3.889.759,7.259a2.757,2.757,0,0,1-2.521,3.883h-12.568V697.659a1.371,1.371,0,0,0-.657-1.187,1.417,1.417,0,0,0-1.383-.064h0a16.964,16.964,0,0,1-6.181,1.679,6.371,6.371,0,0,1-5.034-1.435c-1.521-1.4-2.292-3.823-2.292-7.189a6.792,6.792,0,0,1,2.393-5.157,7.662,7.662,0,0,1,5.843-1.911,12.666,12.666,0,0,1,5.117,2.352,1.4,1.4,0,0,0,2.2-1.159v-14.3h13.7a1.341,1.341,0,0,0,1.182-.693,1.292,1.292,0,0,0-.017-1.318,12.356,12.356,0,0,1-1.539-6.466,8.548,8.548,0,0,1,1.862-5.469,7.239,7.239,0,0,1,4.191-2.59,5.286,5.286,0,0,1,6.126,3.464c1.732,4.294,1.111,9.017.587,11.451a1.34,1.34,0,0,0,1.314,1.62h14.5v13.881a2.429,2.429,0,0,1-3.733,2.054,18.86,18.86,0,0,0-4.883-2.469,5.746,5.746,0,0,0-4.378,1.336,8.01,8.01,0,0,0-3.22,6.058c-.2,4.859,2.011,7.124,7.4,7.573a8.845,8.845,0,0,0,5.206-1.179,2.361,2.361,0,0,1,2.38.016,2.436,2.436,0,0,1,1.228,2.126Zm-22.646-13.674q.763,0,1.615.071c2.64.22,4.512,1.123,5.565,2.685,1.509,2.237,1,5.357.314,7.581a1.944,1.944,0,0,0,1.858,2.522H1958.2V698.681a1.628,1.628,0,0,0-.822-1.421,1.553,1.553,0,0,0-1.566-.013,9.644,9.644,0,0,1-5.678,1.284c-5.857-.488-8.37-3.085-8.147-8.419a8.822,8.822,0,0,1,3.543-6.675,6.473,6.473,0,0,1,5.06-1.479,19.245,19.245,0,0,1,5.134,2.576,1.581,1.581,0,0,0,1.633.056,1.6,1.6,0,0,0,.844-1.423V670.1h-13.684a2.155,2.155,0,0,1-2.111-2.608c.5-2.342,1.1-6.883-.546-10.974a4.457,4.457,0,0,0-5.215-2.969,7.126,7.126,0,0,0-5.393,7.258,11.567,11.567,0,0,0,1.42,6.043,2.1,2.1,0,0,1,.03,2.141,2.147,2.147,0,0,1-1.892,1.108h-12.885v13.485a2.216,2.216,0,0,1-1.187,1.967,2.18,2.18,0,0,1-2.286-.136,12.091,12.091,0,0,0-4.763-2.215,6.825,6.825,0,0,0-5.2,1.716,5.987,5.987,0,0,0-2.115,4.543c0,3.129.683,5.346,2.03,6.59a5.6,5.6,0,0,0,4.415,1.222,16.155,16.155,0,0,0,5.886-1.6h0a2.228,2.228,0,0,1,2.175.1,2.2,2.2,0,0,1,1.042,1.879v15.068h11.752a1.945,1.945,0,0,0,1.64-.894,1.894,1.894,0,0,0,.139-1.838c-1.652-3.653-1.881-6.366-.682-8.066C1931.739,700.559,1933.617,699.868,1936.368,699.868Z" transform="translate(-1901.559 -652.638)" fill="#fff"/>
        </g>
        <path id="Trazado_188209" data-name="Trazado 188209" d="M2016.568,924.391s-.817,14.912,12.76,22.533l-3.269,7.455s-12.292-7.435-11.837-27.712a2.357,2.357,0,0,0-.577-1.588l-2.613-3.031a4.69,4.69,0,0,1-1-4.2l.344-1.374a.712.712,0,0,1,1.049-.443l.273.159a4.8,4.8,0,0,1,1.969,2.189l1.283,2.868a2.756,2.756,0,0,0,2.753,1.62l.793-.068Z" transform="translate(-1987.806 -862.25)" fill="url(#linear-gradient-47)"/>
      </g>
      <g id="Grupo_121822" data-name="Grupo 121822" transform="translate(260.848 150.368)">
        <g id="Grupo_121821" data-name="Grupo 121821" transform="translate(0 0)">
          <path id="Trazado_188224" data-name="Trazado 188224" d="M1665.293,270.034l-1.443.354a.252.252,0,1,1-.12-.489l.016,0,1.407-.35.018,0a.254.254,0,0,1,.123.493Z" transform="translate(-1555.123 -251.173)" fill="#7d97f4"/>
          <path id="Trazado_188225" data-name="Trazado 188225" d="M1651.072,273.032l-1.474.159a.246.246,0,1,1-.053-.49l.014,0,1.443-.161.016,0a.249.249,0,1,1,.055.495Z" transform="translate(-1543.806 -253.564)" fill="#7d97f4"/>
          <path id="Trazado_188226" data-name="Trazado 188226" d="M1636.693,274.175l-1.479-.011a.241.241,0,0,1,0-.482h.012l1.454.005h.013a.244.244,0,1,1,0,.487Z" transform="translate(-1532.382 -254.476)" fill="#7d97f4"/>
          <path id="Trazado_188227" data-name="Trazado 188227" d="M1622.342,273.182l-1.47-.155a.235.235,0,1,1,.049-.468h.009l1.45.148h.011a.238.238,0,0,1-.048.474Z" transform="translate(-1520.986 -253.581)" fill="#7d97f4"/>
          <path id="Trazado_188228" data-name="Trazado 188228" d="M1608.132,270.936l-1.451-.275a.23.23,0,0,1,.086-.452h.007l1.434.267.009,0a.233.233,0,1,1-.085.458Z" transform="translate(-1509.708 -251.708)" fill="#7d97f4"/>
          <path id="Trazado_188229" data-name="Trazado 188229" d="M1594.13,267.645l-1.427-.375a.225.225,0,0,1,.115-.435l.006,0,1.414.366.007,0a.228.228,0,0,1-.114.44Z" transform="translate(-1498.597 -249.019)" fill="#7d97f4"/>
          <path id="Trazado_188230" data-name="Trazado 188230" d="M1580.366,263.482l-1.4-.458a.219.219,0,0,1,.136-.417l0,0,1.391.45.006,0a.222.222,0,0,1-.137.423Z" transform="translate(-1487.672 -245.65)" fill="#7d97f4"/>
          <path id="Trazado_188231" data-name="Trazado 188231" d="M1566.848,258.585l-1.375-.529a.214.214,0,1,1,.154-.4h0l1.367.52,0,0a.217.217,0,0,1-.154.405Z" transform="translate(-1476.942 -241.707)" fill="#7d97f4"/>
          <path id="Trazado_188232" data-name="Trazado 188232" d="M1553.572,253.063l-1.349-.589a.209.209,0,1,1,.167-.382h0l1.343.581,0,0a.211.211,0,0,1-.168.388Z" transform="translate(-1466.403 -237.274)" fill="#7d97f4"/>
          <path id="Trazado_188233" data-name="Trazado 188233" d="M1540.533,247.005l-1.325-.641a.2.2,0,1,1,.177-.366h0l1.321.633,0,0a.206.206,0,0,1-.178.372Z" transform="translate(-1456.049 -232.421)" fill="#7d97f4"/>
          <path id="Trazado_188234" data-name="Trazado 188234" d="M1527.719,240.479l-1.3-.686a.2.2,0,1,1,.184-.35h0l1.3.678,0,0a.2.2,0,0,1-.186.356Z" transform="translate(-1445.874 -227.2)" fill="#7d97f4"/>
          <path id="Trazado_188235" data-name="Trazado 188235" d="M1515.121,233.541l-1.28-.726a.193.193,0,0,1,.19-.335h0l1.278.719h0a.2.2,0,0,1-.192.34Z" transform="translate(-1435.869 -221.655)" fill="#7d97f4"/>
          <path id="Trazado_188236" data-name="Trazado 188236" d="M1502.719,226.227l-1.26-.761a.19.19,0,1,1,.2-.325h0l1.256.757h0a.191.191,0,1,1-.2.326Z" transform="translate(-1426.016 -215.811)" fill="#7d97f4"/>
          <path id="Trazado_188237" data-name="Trazado 188237" d="M1490.51,218.578l-1.24-.793a.188.188,0,0,1,.2-.317h0l1.236.789h0a.189.189,0,0,1-.2.319Z" transform="translate(-1416.317 -209.7)" fill="#7d97f4"/>
          <path id="Trazado_188238" data-name="Trazado 188238" d="M1478.5,210.628l-1.219-.823a.187.187,0,0,1,.209-.31h0l1.217.819h0a.188.188,0,1,1-.21.311Z" transform="translate(-1406.772 -203.351)" fill="#7d97f4"/>
          <path id="Trazado_188239" data-name="Trazado 188239" d="M1466.68,202.4l-1.2-.85a.185.185,0,0,1,.215-.3h0l1.2.847h0a.186.186,0,0,1-.215.3Z" transform="translate(-1397.384 -196.783)" fill="#7d97f4"/>
          <path id="Trazado_188240" data-name="Trazado 188240" d="M1454.6,194.578l-1.253-.743-.01-.006a.184.184,0,0,1,.188-.316l1.273.754a.185.185,0,1,1-.188.318h0Z" transform="translate(-1387.704 -190.632)" fill="#7d97f4"/>
          <path id="Trazado_188241" data-name="Trazado 188241" d="M1441.683,188.307l-1.337-.578-.011,0a.182.182,0,1,1,.145-.335l1.359.586a.183.183,0,1,1-.145.336h0Z" transform="translate(-1377.34 -185.765)" fill="#7d97f4"/>
          <path id="Trazado_188242" data-name="Trazado 188242" d="M1428.078,183.723l-1.4-.4-.011,0a.181.181,0,0,1,.1-.348l1.421.409a.182.182,0,1,1-.1.349h0Z" transform="translate(-1366.443 -182.252)" fill="#7d97f4"/>
          <path id="Trazado_188243" data-name="Trazado 188243" d="M1414,180.9l-1.439-.224-.011,0a.18.18,0,0,1,.055-.355l1.462.226a.18.18,0,1,1-.055.356h0Z" transform="translate(-1355.188 -180.148)" fill="#7d97f4"/>
          <path id="Trazado_188244" data-name="Trazado 188244" d="M1399.683,179.882l-1.456-.04h-.011a.178.178,0,0,1,.01-.356l1.479.039a.179.179,0,0,1-.01.358h-.011Z" transform="translate(-1343.758 -179.486)" fill="#7d97f4"/>
          <path id="Trazado_188245" data-name="Trazado 188245" d="M1385.348,180.1l-1.449.145h-.011a.177.177,0,1,1-.035-.352l1.471-.149a.177.177,0,0,1,.036.353h-.011Z" transform="translate(-1332.334 -179.696)" fill="#7d97f4"/>
          <path id="Trazado_188246" data-name="Trazado 188246" d="M1371.231,182l-1.419.328-.011,0a.175.175,0,0,1-.079-.341l1.441-.334a.176.176,0,1,1,.079.343h0Z" transform="translate(-1321.103 -181.205)" fill="#7d97f4"/>
          <path id="Trazado_188247" data-name="Trazado 188247" d="M1357.558,185.681l-1.366.505-.01,0a.174.174,0,0,1-.121-.326l1.387-.514a.174.174,0,0,1,.121.327h0Z" transform="translate(-1310.245 -184.146)" fill="#7d97f4"/>
          <path id="Trazado_188248" data-name="Trazado 188248" d="M1344.581,191.1l-1.283.687-.011.006a.172.172,0,0,1-.163-.3l1.3-.7a.173.173,0,1,1,.163.3h0Z" transform="translate(-1299.964 -188.47)" fill="#7d97f4"/>
          <path id="Trazado_188249" data-name="Trazado 188249" d="M1332.6,198.337l-1.178.856-.009.006a.171.171,0,1,1-.2-.276l1.195-.87a.172.172,0,1,1,.2.277h0Z" transform="translate(-1290.494 -194.241)" fill="#7d97f4"/>
          <path id="Trazado_188250" data-name="Trazado 188250" d="M1321.693,207.145l-1.067.993-.007.007a.169.169,0,0,1-.231-.248l1.08-1.007a.17.17,0,1,1,.232.249h0Z" transform="translate(-1281.893 -201.266)" fill="#7d97f4"/>
          <path id="Trazado_188251" data-name="Trazado 188251" d="M1311.945,217.241l-.947,1.109-.006.007a.168.168,0,0,1-.255-.218l.958-1.125a.169.169,0,1,1,.257.219h0Z" transform="translate(-1274.22 -209.316)" fill="#7d97f4"/>
          <path id="Trazado_188252" data-name="Trazado 188252" d="M1303.468,228.444l-.813,1.211-.005.008a.166.166,0,0,1-.276-.185l.822-1.228a.167.167,0,0,1,.278.186h0Z" transform="translate(-1267.572 -218.248)" fill="#7d97f4"/>
          <path id="Trazado_188253" data-name="Trazado 188253" d="M1296.433,240.618l-.659,1.3,0,.009a.165.165,0,0,1-.294-.149l.667-1.319a.166.166,0,0,1,.3.149h0Z" transform="translate(-1262.088 -227.955)" fill="#7d97f4"/>
          <path id="Trazado_188254" data-name="Trazado 188254" d="M1291.082,253.646l-.478,1.375,0,.011a.163.163,0,0,1-.309-.107l.484-1.4a.164.164,0,0,1,.31.107h0Z" transform="translate(-1257.969 -238.343)" fill="#7d97f4"/>
          <path id="Trazado_188255" data-name="Trazado 188255" d="M1287.736,267.389l-.262,1.431,0,.013a.162.162,0,1,1-.318-.058l.265-1.457a.163.163,0,0,1,.32.059h0Z" transform="translate(-1255.475 -249.303)" fill="#7d97f4"/>
          <path id="Trazado_188256" data-name="Trazado 188256" d="M1286.762,281.61l-.009,1.452v.015a.16.16,0,0,1-.321,0l.008-1.482a.161.161,0,0,1,.322,0h0Z" transform="translate(-1254.903 -260.647)" fill="#7d97f4"/>
          <path id="Trazado_188257" data-name="Trazado 188257" d="M1287.392,295.947l.272,1.425,0,.016a.159.159,0,0,1-.312.06l-.28-1.457a.16.16,0,1,1,.314-.06h0Z" transform="translate(-1255.413 -272.086)" fill="#7d97f4"/>
          <path id="Trazado_188258" data-name="Trazado 188258" d="M1290.8,309.887l.555,1.341.006.015a.157.157,0,0,1-.291.121l-.569-1.37a.158.158,0,1,1,.292-.121h0Z" transform="translate(-1258.134 -283.21)" fill="#7d97f4"/>
          <path id="Trazado_188259" data-name="Trazado 188259" d="M1297.082,322.8a7.38,7.38,0,0,0,.914,1.108.156.156,0,1,1-.22.222,7.678,7.678,0,0,1-.954-1.153.157.157,0,1,1,.26-.176Z" transform="translate(-1263.154 -293.529)" fill="#7d97f4"/>
          <path id="Trazado_188260" data-name="Trazado 188260" d="M1307.251,332.787a6.19,6.19,0,0,0,1.29.615.155.155,0,0,1-.1.293,6.492,6.492,0,0,1-1.356-.644.155.155,0,1,1,.165-.264Z" transform="translate(-1271.288 -301.512)" fill="#7d97f4"/>
          <path id="Trazado_188261" data-name="Trazado 188261" d="M1320.7,337.357a6.784,6.784,0,0,0,1.433-.007.153.153,0,1,1,.034.3,7.1,7.1,0,0,1-1.5.009.154.154,0,0,1,.031-.306Z" transform="translate(-1282.051 -305.163)" fill="#7d97f4"/>
          <path id="Trazado_188262" data-name="Trazado 188262" d="M1334.869,333.675a7.985,7.985,0,0,0,1.328-.553.152.152,0,0,1,.141.269,8.305,8.305,0,0,1-1.379.576.153.153,0,1,1-.091-.291Z" transform="translate(-1293.379 -301.783)" fill="#7d97f4"/>
          <path id="Trazado_188263" data-name="Trazado 188263" d="M1347.516,325.4a8.672,8.672,0,0,0,1.064-.971.15.15,0,0,1,.221.2,8.966,8.966,0,0,1-1.1,1.006.151.151,0,1,1-.184-.239Z" transform="translate(-1303.486 -294.835)" fill="#7d97f4"/>
          <path id="Trazado_188264" data-name="Trazado 188264" d="M1357.223,313.762l.366-.623a7.113,7.113,0,0,0,.334-.641l0-.009a.149.149,0,0,1,.266.133c-.111.222-.21.45-.343.661l-.378.644a.15.15,0,0,1-.258-.151h0Z" transform="translate(-1311.238 -285.305)" fill="#7d97f4"/>
          <path id="Trazado_188265" data-name="Trazado 188265" d="M1363.215,300.17a8.232,8.232,0,0,0,.274-1.416.148.148,0,0,1,.294.03,8.514,8.514,0,0,1-.282,1.467.148.148,0,0,1-.285-.081Z" transform="translate(-1316.027 -274.331)" fill="#7d97f4"/>
          <path id="Trazado_188266" data-name="Trazado 188266" d="M1363.561,285.978a7.383,7.383,0,0,0-.267-1.412.146.146,0,0,1,.28-.082,7.7,7.7,0,0,1,.279,1.468.147.147,0,0,1-.292.027Z" transform="translate(-1316.09 -262.992)" fill="#7d97f4"/>
          <path id="Trazado_188267" data-name="Trazado 188267" d="M1357.624,273.059a8.442,8.442,0,0,0-.762-1.223.145.145,0,0,1,.231-.173,8.685,8.685,0,0,1,.79,1.265.145.145,0,1,1-.259.132Z" transform="translate(-1310.951 -252.823)" fill="#7d97f4"/>
          <path id="Trazado_188268" data-name="Trazado 188268" d="M1347.768,262.75a10.41,10.41,0,0,0-1.1-.936.143.143,0,0,1,.17-.23,10.681,10.681,0,0,1,1.135.961.144.144,0,1,1-.2.206Z" transform="translate(-1302.809 -244.822)" fill="#7d97f4"/>
          <path id="Trazado_188269" data-name="Trazado 188269" d="M1335.474,255.464a12.325,12.325,0,0,0-1.307-.629.142.142,0,0,1,.108-.262,12.57,12.57,0,0,1,1.337.642.142.142,0,0,1-.138.249Z" transform="translate(-1292.836 -239.255)" fill="#7d97f4"/>
          <path id="Trazado_188270" data-name="Trazado 188270" d="M1321.781,251.131c-.465-.135-.945-.223-1.416-.337l-.011,0a.144.144,0,1,1,.068-.279h0c.479.117.961.211,1.437.348a.141.141,0,1,1-.076.271Z" transform="translate(-1281.821 -236.027)" fill="#7d97f4"/>
          <path id="Trazado_188271" data-name="Trazado 188271" d="M1307.54,249.028l-1.452-.14h-.01a.152.152,0,1,1,.029-.3h0l1.47.15a.148.148,0,0,1-.029.294Z" transform="translate(-1270.435 -234.495)" fill="#7d97f4"/>
          <path id="Trazado_188272" data-name="Trazado 188272" d="M1293.142,248.612l-1.458.036h-.009a.16.16,0,0,1-.008-.32h0l1.477-.028a.156.156,0,0,1,.007.312Z" transform="translate(-1258.947 -234.269)" fill="#7d97f4"/>
          <path id="Trazado_188273" data-name="Trazado 188273" d="M1278.8,249.3l-1.446.2h-.009a.168.168,0,1,1-.045-.333h0l1.464-.191a.164.164,0,0,1,.044.325Z" transform="translate(-1247.52 -234.808)" fill="#7d97f4"/>
          <path id="Trazado_188274" data-name="Trazado 188274" d="M1264.691,251.56l-1.416.349-.009,0a.176.176,0,0,1-.084-.343h0l1.436-.346a.172.172,0,0,1,.082.335Z" transform="translate(-1236.287 -236.593)" fill="#7d97f4"/>
          <path id="Trazado_188275" data-name="Trazado 188275" d="M1250.965,255.306l-1.37.5-.01,0a.185.185,0,1,1-.126-.347h0l1.392-.5a.18.18,0,0,1,.122.339Z" transform="translate(-1225.373 -239.566)" fill="#7d97f4"/>
          <path id="Trazado_188276" data-name="Trazado 188276" d="M1237.808,260.527l-1.3.649-.01.005a.193.193,0,1,1-.172-.345h0l1.328-.652a.188.188,0,0,1,.167.338Z" transform="translate(-1214.925 -243.715)" fill="#7d97f4"/>
          <path id="Trazado_188277" data-name="Trazado 188277" d="M1225.454,267.255l-1.213.8-.01.007a.2.2,0,1,1-.221-.335h0l1.238-.809a.2.2,0,0,1,.216.328Z" transform="translate(-1205.137 -249.068)" fill="#7d97f4"/>
          <path id="Trazado_188278" data-name="Trazado 188278" d="M1214.013,275.454l-1.124.928-.008.006a.209.209,0,1,1-.266-.322h0l1.144-.934a.2.2,0,0,1,.26.317Z" transform="translate(-1196.077 -255.594)" fill="#7d97f4"/>
          <path id="Trazado_188279" data-name="Trazado 188279" d="M1203.413,284.8l-1.042,1.021-.006.006a.217.217,0,0,1-.3-.31h0l1.059-1.027a.213.213,0,0,1,.3.3Z" transform="translate(-1187.683 -263.031)" fill="#7d97f4"/>
          <path id="Trazado_188280" data-name="Trazado 188280" d="M1193.577,295l-.968,1.094,0,.005a.225.225,0,0,1-.337-.3h0l.983-1.1a.221.221,0,0,1,.33.294Z" transform="translate(-1179.893 -271.149)" fill="#7d97f4"/>
          <path id="Trazado_188281" data-name="Trazado 188281" d="M1184.441,305.871l-.9,1.152,0,.005a.233.233,0,1,1-.367-.286h0l.913-1.158a.229.229,0,0,1,.36.282Z" transform="translate(-1172.657 -279.804)" fill="#7d97f4"/>
          <path id="Trazado_188282" data-name="Trazado 188282" d="M1175.959,317.287l-.834,1.2,0,.005a.24.24,0,1,1-.395-.274h0l.847-1.206a.236.236,0,0,1,.388.271Z" transform="translate(-1165.94 -288.891)" fill="#7d97f4"/>
          <path id="Trazado_188283" data-name="Trazado 188283" d="M1168.1,329.162l-.771,1.242,0,.005a.248.248,0,1,1-.421-.261h0l.784-1.248a.244.244,0,0,1,.414.258Z" transform="translate(-1159.719 -298.344)" fill="#7d97f4"/>
          <path id="Trazado_188284" data-name="Trazado 188284" d="M1160.861,341.433l-.708,1.279,0,.006a.256.256,0,1,1-.447-.248h0l.721-1.286a.252.252,0,0,1,.44.245Z" transform="translate(-1153.988 -308.112)" fill="#7d97f4"/>
          <path id="Trazado_188285" data-name="Trazado 188285" d="M1154.245,354.062l-.643,1.312,0,.006a.263.263,0,0,1-.473-.232h0l.656-1.321a.259.259,0,0,1,.465.23Z" transform="translate(-1148.755 -318.165)" fill="#7d97f4"/>
          <path id="Trazado_188286" data-name="Trazado 188286" d="M1148.287,367.017l-.575,1.344,0,.007a.271.271,0,1,1-.5-.213h0l.588-1.354a.267.267,0,0,1,.49.211Z" transform="translate(-1144.051 -328.48)" fill="#7d97f4"/>
          <path id="Trazado_188287" data-name="Trazado 188287" d="M1143.051,380.28l-.5,1.373,0,.008a.278.278,0,0,1-.524-.19h0l.511-1.386a.275.275,0,0,1,.516.189Z" transform="translate(-1139.927 -339.041)" fill="#7d97f4"/>
          <path id="Trazado_188288" data-name="Trazado 188288" d="M1138.646,393.836l-.408,1.4,0,.01a.286.286,0,1,1-.549-.16h0l.421-1.417a.282.282,0,0,1,.542.159Z" transform="translate(-1136.475 -349.837)" fill="#7d97f4"/>
          <path id="Trazado_188289" data-name="Trazado 188289" d="M1135.252,407.669l-.3,1.424,0,.01a.293.293,0,0,1-.574-.119c.1-.484.207-.965.31-1.448a.29.29,0,1,1,.567.121Z" transform="translate(-1133.846 -360.857)" fill="#7d97f4"/>
          <path id="Trazado_188290" data-name="Trazado 188290" d="M1133.128,421.777l-.171,1.444,0,.014a.291.291,0,0,1-.577-.068l.171-1.472a.292.292,0,0,1,.58.068h0Z" transform="translate(-1132.258 -372.106)" fill="#7d97f4"/>
          <path id="Trazado_188291" data-name="Trazado 188291" d="M1132.4,436.1l-.024,1.453v.015a.288.288,0,0,1-.575-.009l.022-1.484a.289.289,0,1,1,.578.009h0Z" transform="translate(-1131.796 -383.531)" fill="#7d97f4"/>
          <path id="Trazado_188292" data-name="Trazado 188292" d="M1132.646,450.474l.134,1.446v.016a.285.285,0,0,1-.567.053l-.14-1.477a.286.286,0,1,1,.57-.054h0Z" transform="translate(-1132.017 -395.003)" fill="#7d97f4"/>
          <path id="Trazado_188293" data-name="Trazado 188293" d="M1134.393,464.741l.3,1.42,0,.016a.282.282,0,0,1-.551.116l-.307-1.452a.283.283,0,0,1,.554-.117h0Z" transform="translate(-1133.414 -406.388)" fill="#7d97f4"/>
          <path id="Trazado_188294" data-name="Trazado 188294" d="M1137.754,478.708l.458,1.378,0,.015a.279.279,0,0,1-.529.177l-.471-1.407a.28.28,0,1,1,.531-.178h0Z" transform="translate(-1136.1 -417.535)" fill="#7d97f4"/>
          <path id="Trazado_188295" data-name="Trazado 188295" d="M1142.685,492.213l.608,1.319.006.013a.276.276,0,0,1-.5.232l-.623-1.345a.277.277,0,0,1,.5-.233h0Z" transform="translate(-1140.038 -428.312)" fill="#7d97f4"/>
          <path id="Trazado_188296" data-name="Trazado 188296" d="M1149.063,505.1l.742,1.25.007.011a.273.273,0,0,1-.469.279l-.759-1.272a.275.275,0,0,1,.472-.281h0Z" transform="translate(-1145.13 -438.596)" fill="#7d97f4"/>
          <path id="Trazado_188297" data-name="Trazado 188297" d="M1156.717,517.282l.858,1.176.007.01a.27.27,0,0,1-.436.319l-.875-1.194a.272.272,0,0,1,.438-.321h0Z" transform="translate(-1151.239 -448.312)" fill="#7d97f4"/>
          <path id="Trazado_188298" data-name="Trazado 188298" d="M1165.459,528.712l.955,1.1.007.008a.267.267,0,0,1-.4.351l-.971-1.115a.269.269,0,1,1,.405-.353h0Z" transform="translate(-1158.214 -457.428)" fill="#7d97f4"/>
          <path id="Trazado_188299" data-name="Trazado 188299" d="M1175.107,539.393l1.034,1.027.006.006a.264.264,0,0,1-.372.376l-1.049-1.038a.266.266,0,0,1,.374-.378h0Z" transform="translate(-1165.91 -465.945)" fill="#7d97f4"/>
          <path id="Trazado_188300" data-name="Trazado 188300" d="M1185.492,549.35l1.1.959.006.005a.261.261,0,1,1-.343.394l-1.114-.967a.263.263,0,0,1,.345-.4h0Z" transform="translate(-1174.192 -473.883)" fill="#7d97f4"/>
          <path id="Trazado_188301" data-name="Trazado 188301" d="M1196.488,558.641l1.154.9.005,0a.259.259,0,0,1-.317.409l-1.167-.9a.26.26,0,1,1,.318-.411h0Z" transform="translate(-1182.959 -481.289)" fill="#7d97f4"/>
          <path id="Trazado_188302" data-name="Trazado 188302" d="M1207.982,567.317l1.2.838,0,0a.256.256,0,0,1-.292.419l-1.21-.842a.257.257,0,0,1,.294-.422h0Z" transform="translate(-1192.123 -488.203)" fill="#7d97f4"/>
          <path id="Trazado_188303" data-name="Trazado 188303" d="M1219.885,575.455l1.225.809a.253.253,0,1,1-.278.423l-1.228-.808a.254.254,0,0,1,.28-.425Z" transform="translate(-1201.61 -494.687)" fill="#7d97f4"/>
          <path id="Trazado_188304" data-name="Trazado 188304" d="M1231.937,583.382l1.229.8a.25.25,0,0,1-.273.419l-1.231-.8a.251.251,0,0,1,.274-.421Z" transform="translate(-1211.209 -500.999)" fill="#7d97f4"/>
          <path id="Trazado_188305" data-name="Trazado 188305" d="M1244.012,591.258l1.229.8a.247.247,0,0,1-.27.413l-1.23-.8a.248.248,0,0,1,.271-.417Z" transform="translate(-1220.827 -507.27)" fill="#7d97f4"/>
          <path id="Trazado_188306" data-name="Trazado 188306" d="M1256.07,599.152l1.224.811a.244.244,0,1,1-.27.407l-1.224-.807a.246.246,0,0,1,.269-.411Z" transform="translate(-1230.428 -513.554)" fill="#7d97f4"/>
          <path id="Trazado_188307" data-name="Trazado 188307" d="M1268.064,607.132l1.215.825a.241.241,0,1,1-.271.4h0l-1.214-.821h0a.243.243,0,1,1,.272-.4Z" transform="translate(-1239.979 -519.907)" fill="#7d97f4"/>
          <path id="Trazado_188308" data-name="Trazado 188308" d="M1279.958,615.269l1.2.847a.238.238,0,1,1-.274.39h0l-1.2-.842h0a.24.24,0,1,1,.275-.393Z" transform="translate(-1249.449 -526.382)" fill="#7d97f4"/>
          <path id="Trazado_188309" data-name="Trazado 188309" d="M1291.7,623.624l1.182.873a.235.235,0,1,1-.28.379h0l-1.179-.868,0,0a.237.237,0,1,1,.281-.381Z" transform="translate(-1258.797 -533.032)" fill="#7d97f4"/>
          <path id="Trazado_188310" data-name="Trazado 188310" d="M1303.237,632.257l1.158.907a.233.233,0,0,1-.287.366l0,0-1.155-.9,0,0a.234.234,0,0,1,.288-.369Z" transform="translate(-1267.981 -539.902)" fill="#7d97f4"/>
          <path id="Trazado_188311" data-name="Trazado 188311" d="M1314.54,641.214l1.135.933a.23.23,0,0,1-.292.355l0,0-1.133-.927,0,0a.231.231,0,1,1,.293-.357Z" transform="translate(-1276.979 -547.031)" fill="#7d97f4"/>
          <path id="Trazado_188312" data-name="Trazado 188312" d="M1325.618,650.431l1.109.967a.227.227,0,1,1-.3.342l0,0-1.106-.96,0,0a.228.228,0,1,1,.3-.345Z" transform="translate(-1285.799 -554.366)" fill="#7d97f4"/>
          <path id="Trazado_188313" data-name="Trazado 188313" d="M1336.409,660l1.072,1.01a.224.224,0,1,1-.307.326l0,0-1.067-1,0,0a.225.225,0,1,1,.308-.328Z" transform="translate(-1294.388 -561.978)" fill="#7d97f4"/>
          <path id="Trazado_188314" data-name="Trazado 188314" d="M1346.8,670l1.021,1.063a.221.221,0,0,1-.318.306l0,0-1.015-1.052,0,0a.222.222,0,0,1,.32-.309Z" transform="translate(-1302.654 -569.938)" fill="#7d97f4"/>
          <path id="Trazado_188315" data-name="Trazado 188315" d="M1356.643,680.543l.954,1.125a.218.218,0,1,1-.332.282l0-.005-.947-1.112-.005-.005a.219.219,0,0,1,.334-.285Z" transform="translate(-1310.491 -578.321)" fill="#7d97f4"/>
          <path id="Trazado_188316" data-name="Trazado 188316" d="M1365.788,691.7l.868,1.194a.215.215,0,0,1-.348.253l-.005-.007-.86-1.178-.005-.007a.216.216,0,1,1,.35-.255Z" transform="translate(-1317.768 -587.193)" fill="#7d97f4"/>
          <path id="Trazado_188317" data-name="Trazado 188317" d="M1374.03,703.537l.758,1.268a.212.212,0,0,1-.364.218l0-.009-.75-1.249-.005-.009a.214.214,0,0,1,.366-.22Z" transform="translate(-1324.325 -596.606)" fill="#7d97f4"/>
          <path id="Trazado_188318" data-name="Trazado 188318" d="M1381.134,716.087l.62,1.342a.207.207,0,0,1-.375.174l0-.011-.618-1.318,0-.01a.211.211,0,1,1,.381-.179Z" transform="translate(-1329.977 -606.583)" fill="#7d97f4"/>
          <path id="Trazado_188319" data-name="Trazado 188319" d="M1386.865,729.348l.459,1.406a.2.2,0,0,1-.377.125l0-.012-.459-1.38,0-.012a.2.2,0,0,1,.385-.128Z" transform="translate(-1334.544 -617.126)" fill="#7d97f4"/>
          <path id="Trazado_188320" data-name="Trazado 188320" d="M1390.975,743.2l.279,1.453a.19.19,0,0,1-.374.073l0-.012-.282-1.427,0-.012a.194.194,0,1,1,.381-.076Z" transform="translate(-1337.824 -628.137)" fill="#7d97f4"/>
          <path id="Trazado_188321" data-name="Trazado 188321" d="M1393.3,757.457l.091,1.477a.182.182,0,0,1-.364.023v-.012l-.1-1.453v-.012a.186.186,0,0,1,.372-.025Z" transform="translate(-1339.688 -639.476)" fill="#7d97f4"/>
          <path id="Trazado_188322" data-name="Trazado 188322" d="M1393.375,771.9l-.107,1.472a.174.174,0,0,1-.348-.024v-.009l.1-1.454v-.01a.178.178,0,1,1,.356.024Z" transform="translate(-1339.679 -650.96)" fill="#7d97f4"/>
          <path id="Trazado_188323" data-name="Trazado 188323" d="M1391.53,786.279l-.24,1.456a.166.166,0,0,1-.328-.053v-.007l.23-1.442v-.007a.17.17,0,1,1,.336.053Z" transform="translate(-1338.119 -662.403)" fill="#7d97f4"/>
          <path id="Trazado_188324" data-name="Trazado 188324" d="M1388.408,800.479l-.375,1.428a.158.158,0,0,1-.306-.08l0-.008.363-1.414,0-.008a.162.162,0,0,1,.314.081Z" transform="translate(-1335.542 -673.704)" fill="#7d97f4"/>
          <path id="Trazado_188325" data-name="Trazado 188325" d="M1383.711,814.342l-.556,1.372a.15.15,0,0,1-.278-.112l0-.012.539-1.352,0-.011a.154.154,0,0,1,.286.114Z" transform="translate(-1331.675 -684.733)" fill="#7d97f4"/>
          <path id="Trazado_188326" data-name="Trazado 188326" d="M1376.649,827.5a9.892,9.892,0,0,1-.847,1.225.142.142,0,0,1-.22-.179,9.6,9.6,0,0,0,.815-1.194.146.146,0,1,1,.252.147Z" transform="translate(-1325.852 -695.202)" fill="#7d97f4"/>
          <path id="Trazado_188327" data-name="Trazado 188327" d="M1365.766,838.578a4.89,4.89,0,0,1-1.308.744.134.134,0,0,1-.094-.25,4.625,4.625,0,0,0,1.231-.71.138.138,0,0,1,.172.216Z" transform="translate(-1316.877 -704)" fill="#7d97f4"/>
        </g>
      </g>
    </g>
  </g>
</svg>
