<svg xmlns="http://www.w3.org/2000/svg" width="115" height="117" viewBox="0 0 115 117">
  <g id="Grupo_124517" data-name="Grupo 124517" transform="translate(-347 -2133)">
    <g id="Elipse_6004" data-name="Elipse 6004" transform="translate(347 2133)" fill="#fff" stroke="#242ca3" stroke-width="4">
      <ellipse cx="57.5" cy="58.5" rx="57.5" ry="58.5" stroke="none"/>
      <ellipse cx="57.5" cy="58.5" rx="55.5" ry="56.5" fill="none"/>
    </g>
    <g id="Grupo_124516" data-name="Grupo 124516" transform="translate(7123.704 2069.478)">
      <path id="Trazado_190034" data-name="Trazado 190034" d="M-6402.791,128.437c-.334.974-.431,2.007-.778,2.982a14.787,14.787,0,0,1-3.39,5.55c-2.313,2.339-4.607,4.7-6.987,6.969a14.674,14.674,0,0,1-11.474,4.074,11.462,11.462,0,0,1-3.8-.837c-.146-.393.2-.538.4-.733,1.711-1.73,3.416-3.467,5.165-5.158a16,16,0,0,0,2.256-2.755,8.234,8.234,0,0,0,1.979-1.511c1.859-1.847,3.691-3.721,5.566-5.55a6.718,6.718,0,0,0,2.258-4.7,5.975,5.975,0,0,0-1.164-3.822,2.489,2.489,0,0,1-.558-.9c0-.322.236-.505.433-.7q2.506-2.516,5.021-5.021c.2-.2.383-.433.712-.412a2.9,2.9,0,0,1,1.154,1.034,16.313,16.313,0,0,1,2.9,5.609c.222.76.154,1.548.315,2.311V125a1.858,1.858,0,0,0,0,1.145Z" transform="translate(-279.606 -26.015)" fill="#494949"/>
      <path id="Trazado_190035" data-name="Trazado 190035" d="M-6467.019,89.953c-1.216,1.031-2.277,2.22-3.411,3.336-.9.882-1.758,1.8-2.636,2.7-.359.057-.561-.223-.8-.4a6.255,6.255,0,0,0-8.219.577c-2.1,2.069-4.181,4.163-6.258,6.258a7.57,7.57,0,0,0-1.324,1.762c-2.955,2.05-5.159,4.9-7.774,7.311-.228.21-.381.574-.8.485a14.82,14.82,0,0,1,3.614-15.687c2.037-2.14,4.168-4.189,6.261-6.275a15.161,15.161,0,0,1,8.433-4.325c.15-.025.348.045.428-.169h.572a1.094,1.094,0,0,0,.859,0h.859a1.094,1.094,0,0,0,.859,0h.429a13.793,13.793,0,0,1,6.383,2.142,15.264,15.264,0,0,1,1.94,1.436C-6467.34,89.331-6467.013,89.536-6467.019,89.953Z" transform="translate(-219.787 0)" fill="#5c5c5c"/>
      <path id="Trazado_190036" data-name="Trazado 190036" d="M-6245.795,180.457a1.063,1.063,0,0,1,0-1.145Z" transform="translate(-436.601 -80.326)" fill="#555454"/>
      <path id="Trazado_190037" data-name="Trazado 190037" d="M-6357.674,85.53a.645.645,0,0,1-.859,0Z" transform="translate(-340.183 0)" fill="#817f7f"/>
      <path id="Trazado_190038" data-name="Trazado 190038" d="M-6345.7,85.53a.645.645,0,0,1-.859,0Z" transform="translate(-350.437 0)" fill="#807e7e"/>
      <path id="Trazado_190039" data-name="Trazado 190039" d="M-6693.705,411.85a14.535,14.535,0,0,1,.11,9.71,14.36,14.36,0,0,1-3.536,5.788c-2.286,2.3-4.547,4.627-6.9,6.861a14.461,14.461,0,0,1-11.627,4.029,14.085,14.085,0,0,1-9.26-4.368c-.093-.321.161-.475.335-.65q2.528-2.546,5.074-5.077a.977.977,0,0,1,.648-.4,1.06,1.06,0,0,1,.568.283,5.727,5.727,0,0,0,3.381,1.394,5.681,5.681,0,0,0,4.346-1.232c2.348-1.993,4.391-4.3,6.6-6.444a8.568,8.568,0,0,0,1.545-1.957.592.592,0,0,1,.181-.219c2.213-1.35,3.756-3.429,5.617-5.161.784-.73,1.514-1.521,2.286-2.265C-6694.173,411.988-6694.035,411.69-6693.705,411.85Z" transform="translate(-26.355 -279.459)" fill="#494949"/>
      <path id="Trazado_190040" data-name="Trazado 190040" d="M-6745.23,367.9q-3.108,2.932-6.039,6.043a14.876,14.876,0,0,1-1.019-20.075,61.641,61.641,0,0,1,9.224-9.063,14.358,14.358,0,0,1,13.829-2.078c.089.416-.269.577-.486.8-1.838,1.857-3.673,3.718-5.546,5.539a21.57,21.57,0,0,0-1.756,2.229,8.7,8.7,0,0,0-1.968,1.524q-2.931,2.927-5.857,5.858a6.251,6.251,0,0,0-.694,8.541C-6745.4,367.415-6745.164,367.592-6745.23,367.9Z" transform="translate(0 -219.528)" fill="#5c5c5c"/>
      <path id="Trazado_190041" data-name="Trazado 190041" d="M-6600.8,360.3q-2.457,2.426-4.914,4.854a15.836,15.836,0,0,1-3.678,3.1,4.119,4.119,0,0,1-2.514.616,5.954,5.954,0,0,1-4.529-1.888.474.474,0,0,1,.092-.467,2.964,2.964,0,0,1,.333-.373c4.653-4.652,9.181-9.427,13.889-14.025.224-.219.392-.57.807-.489,1.53,1.355,2.9,2.877,4.364,4.295.284.274.055.4-.105.566q-1.611,1.615-3.224,3.228C-6600.462,359.905-6600.626,360.108-6600.8,360.3Z" transform="translate(-119.261 -227.911)" fill="#f68906"/>
      <path id="Trazado_190042" data-name="Trazado 190042" d="M-6473.039,231.819a7.206,7.206,0,0,1-1.685,2.353q-3.083,3.106-6.16,6.22c-1.235,1.215-2.486,2.415-3.7,3.654-.349.356-.538.364-.883,0-1.339-1.412-2.8-2.706-4.088-4.167-.09-.322.161-.479.337-.656,2.909-2.918,5.772-5.884,8.757-8.723,1.813-1.724,3.549-3.52,5.356-5.247.248-.237.447-.586.884-.5a5.99,5.99,0,0,1,1.831,5.407C-6472.464,230.743-6472.456,231.41-6473.039,231.819Z" transform="translate(-227.945 -119.232)" fill="#f68906"/>
      <path id="Trazado_190043" data-name="Trazado 190043" d="M-6500.829,212.3a2.662,2.662,0,0,0-.281.216q-7.305,7.242-14.605,14.488a4.631,4.631,0,0,0-.315.385c-1.421-1.411-2.834-2.83-4.27-4.225-.294-.285-.205-.43.032-.668,1.246-1.247,2.477-2.51,3.712-3.767,1.811-1.789,3.63-3.571,5.428-5.372a12.917,12.917,0,0,1,3.022-2.475,3.62,3.62,0,0,1,2.543-.726,6.211,6.211,0,0,1,4.485,1.67C-6500.941,211.956-6500.781,212.075-6500.829,212.3Z" transform="translate(-201.467 -106.745)" fill="#ffc900"/>
      <path id="Trazado_190044" data-name="Trazado 190044" d="M-6613.722,325.273c-.213.189-.437.367-.637.568-2.815,2.81-5.681,5.573-8.422,8.454-1.985,2.086-4.1,4.042-6.03,6.18-.26.049-.384-.145-.52-.3a6.428,6.428,0,0,1-1.349-6.179,2.024,2.024,0,0,1,.452-.795,12.89,12.89,0,0,1,2.475-3.022c1.8-1.8,3.582-3.617,5.372-5.428,1.223-1.2,2.458-2.392,3.662-3.614.326-.33.505-.423.878-.032C-6616.493,322.514-6615.1,323.886-6613.722,325.273Z" transform="translate(-106.852 -201.551)" fill="#ffc900"/>
      <path id="Trazado_190045" data-name="Trazado 190045" d="M-6573.57,188.427c.244-.016.247.2.294.337.931,2.771,1.851,5.545,2.784,8.315.113.334,0,.457-.312.556-1.087.346-2.171.7-3.244,1.088-.359.13-.451-.023-.545-.308q-1.368-4.128-2.747-8.253c-.075-.225-.172-.434.183-.548,1.155-.369,2.3-.763,3.45-1.147C-6573.662,188.453-6573.616,188.44-6573.57,188.427Z" transform="translate(-152.711 -88.132)" fill="#ffc900"/>
      <path id="Trazado_190046" data-name="Trazado 190046" d="M-6651.017,263.684c.141.045.276.087.412.132,2.637.879,5.269,1.775,7.916,2.624.525.168.583.363.4.842-.358.956-.663,1.933-.968,2.907-.118.378-.254.541-.7.388-2.7-.923-5.4-1.82-8.11-2.717-.338-.112-.505-.217-.348-.641.388-1.046.7-2.119,1.066-3.175C-6651.3,263.9-6651.313,263.627-6651.017,263.684Z" transform="translate(-88.419 -152.585)" fill="#ffc900"/>
      <path id="Trazado_190047" data-name="Trazado 190047" d="M-6464.595,430.153c.095.305-.145.307-.273.351-1.124.384-2.256.743-3.378,1.134-.3.1-.37-.025-.448-.26q-1.4-4.192-2.806-8.379c-.1-.305.009-.415.289-.505q1.663-.533,3.312-1.105c.251-.086.376-.064.468.215q1.395,4.23,2.811,8.453C-6464.606,430.1-6464.6,430.149-6464.595,430.153Z" transform="translate(-243.393 -287.631)" fill="#ffc900"/>
      <path id="Trazado_190048" data-name="Trazado 190048" d="M-6410.656,376.754c-.2-.06-.319-.091-.432-.128-2.664-.888-5.323-1.79-7.994-2.652-.492-.159-.55-.341-.381-.8.365-.981.684-1.979.993-2.979.118-.383.289-.473.67-.344q4.09,1.383,8.191,2.736c.292.1.427.19.3.551-.388,1.074-.72,2.168-1.092,3.248C-6410.453,376.533-6410.44,376.812-6410.656,376.754Z" transform="translate(-287.921 -243.481)" fill="#ffc900"/>
    </g>
  </g>
</svg>
