<svg xmlns="http://www.w3.org/2000/svg" xmlns:xlink="http://www.w3.org/1999/xlink" width="103.768" height="103.768" viewBox="0 0 103.768 103.768">
  <defs>
    <filter id="Rect치ngulo_41488" x="0" y="0" width="103.768" height="103.768" filterUnits="userSpaceOnUse">
      <feOffset dy="3" input="SourceAlpha"/>
      <feGaussianBlur stdDeviation="3" result="blur"/>
      <feFlood flood-opacity="0.161"/>
      <feComposite operator="in" in2="blur"/>
      <feComposite in="SourceGraphic"/>
    </filter>
  </defs>
  <g id="Grupo_124746" data-name="Grupo 124746" transform="translate(11617.856 13296.312)">
    <g id="Grupo_124742" data-name="Grupo 124742" transform="translate(-11608.856 -13290.312)">
      <g transform="matrix(1, 0, 0, 1, -9, -6)" filter="url(#Rect치ngulo_41488)">
        <rect id="Rect치ngulo_41488-2" data-name="Rect치ngulo 41488" width="85.768" height="85.768" rx="23" transform="translate(9 6)" fill="#fff"/>
      </g>
      <g id="Grupo_124480" data-name="Grupo 124480" transform="translate(4774.717 449.707)">
        <path id="Trazado_189916" data-name="Trazado 189916" d="M-4706.4-439.056c.2-.107.458-.073.62-.267h2.031a6.75,6.75,0,0,1,3.211,1.743,5.534,5.534,0,0,1,1.611,3.862,19.349,19.349,0,0,1-.058,3.219,5.807,5.807,0,0,1-2.784,4.05c.345.142.685-.033.953.181-.166.213-.41.194-.634.193a3.807,3.807,0,0,0-1.292.245,5.947,5.947,0,0,1-.912.25,7.38,7.38,0,0,1-2.09,0c-.27-.06-.568-.066-.705-.376.065-.261.3-.344.5-.452a5.526,5.526,0,0,0,3.179-5.406,12.171,12.171,0,0,0-.206-3.339,5.483,5.483,0,0,0-2.745-3.332C-4705.984-438.619-4706.364-438.646-4706.4-439.056Z" transform="translate(-41.421)" fill="#f39d8f"/>
        <path id="Trazado_189917" data-name="Trazado 189917" d="M-4719.887-338.456c.379,0,.758.009,1.137.011,1.039,0,1.311.2,1.654,1.2.3.875.6,1.749.885,2.63a.833.833,0,0,0,.629.619,10.709,10.709,0,0,1,2.5,1.041.8.8,0,0,0,.873-.013c.558-.292,1.136-.548,1.705-.819a3.909,3.909,0,0,1,1.322,1.245,1.061,1.061,0,0,1,.051,1.088,23.061,23.061,0,0,1-1.193,2.522,1.585,1.585,0,0,0,0,1.627,11.082,11.082,0,0,1,.734,1.754,1.272,1.272,0,0,0,.783.86c.84.286,1.668.61,2.51.895a.848.848,0,0,0,.437.03,6.008,6.008,0,0,1,.779,1.865,10.046,10.046,0,0,1-.163,2.167.715.715,0,0,1-.223.326c-.467.156-.906.39-1.385.515-.7.178-1.351.484-2.033.708a1.049,1.049,0,0,0-.664.715,15.813,15.813,0,0,1-.854,2.045,1.346,1.346,0,0,0,0,1.278,3.246,3.246,0,0,1,.318.76c.091,1.274.035,2.548.034,3.821a.659.659,0,0,1-.207.568c-.679-.325-1.36-.646-2.036-.976a.606.606,0,0,0-.643-.053,14.132,14.132,0,0,1-3.137,1.271.486.486,0,0,1-.115-.411,24.517,24.517,0,0,0-.087-4.419c.077-.316.37-.382.6-.506a8.034,8.034,0,0,0,4.526-6.58,8.184,8.184,0,0,0-7.989-9,7.339,7.339,0,0,0-2.132.207,8.157,8.157,0,0,0-6.126,6.5,7.889,7.889,0,0,0,1.44,6.353,1.618,1.618,0,0,1,.455.817,1.05,1.05,0,0,1-.28.554,5.256,5.256,0,0,0-1.042,3.245c.007.547.008,1.094,0,1.641,0,.248.032.512-.181.709-.782.372-1.567.734-2.342,1.118a.97.97,0,0,1-1.215-.189c-.5-.488-1-.978-1.478-1.481a1.075,1.075,0,0,1-.185-1.336c.47-.945.912-1.9,1.383-2.848a.8.8,0,0,0-.01-.879,10,10,0,0,1-1.009-2.451.782.782,0,0,0-.566-.6c-.964-.307-1.914-.657-2.87-.989-.814-.283-.971-.494-.975-1.331,0-.57.029-1.143-.008-1.711a1.13,1.13,0,0,1,.9-1.262c.98-.324,1.952-.676,2.931-1.007a.7.7,0,0,0,.539-.461c.257-.779.56-1.543.843-2.312a1.986,1.986,0,0,0-.2-1.671c-.334-.7-.682-1.4-1.019-2.1a1.468,1.468,0,0,1,.106-1.659c.437-.458.886-.9,1.341-1.344a1.237,1.237,0,0,1,1.7-.293c.893.382,1.743.852,2.641,1.219.238.134.477.316.762.157.939-.524,1.976-.812,2.949-1.253.4-1,.753-2.015,1.1-3.033C-4721.319-338.408-4721.006-338.6-4719.887-338.456Z" transform="translate(-16.655 -83.72)" fill="#aaa0ac"/>
        <path id="Trazado_189918" data-name="Trazado 189918" d="M-4690.689-127.609q-4.594.013-9.187.025-2.6.005-5.2,0c-1.094,0-1.524-.435-1.527-1.541,0-1.859.086-3.722-.02-5.575a6.836,6.836,0,0,1,6.57-7.419,2.534,2.534,0,0,1,1.61.18c.2.111.474.116.595.363a1.471,1.471,0,0,1-.084.931c-.594,2.075-1.016,4.2-1.629,6.264a1.413,1.413,0,0,0,.552,1.723c.548.4,1.005.9,1.545,1.315a.808.808,0,0,0,1.236-.029c.556-.456,1.06-.974,1.635-1.4a1.22,1.22,0,0,0,.44-1.457c-.6-2.205-1.145-4.424-1.7-6.64a1.372,1.372,0,0,1-.1-.683.882.882,0,0,1,.865-.307,6.928,6.928,0,0,1,4.576,6.438c-.069,2.3-.012,4.605-.018,6.908C-4690.521-128.208-4690.454-127.878-4690.689-127.609Z" transform="translate(-41.27 -246.742)" fill="#b8cb5e"/>
        <path id="Trazado_189919" data-name="Trazado 189919" d="M-4748.7-353.11a1.32,1.32,0,0,0-.1,1.534c.425.824.781,1.685,1.229,2.495a.982.982,0,0,1-.143,1.352q-3.483-.007-6.966-.015c-1.22,0-1.646-.423-1.647-1.628,0-2.132-.017-4.265,0-6.4a7.094,7.094,0,0,1,6.326-7.125c.445-.092.9-.053,1.353-.106a.782.782,0,0,1,.791.395l.661.235c.2.287.056.573-.014.85q-.751,2.94-1.508,5.879A2.944,2.944,0,0,0-4748.7-353.11Z" transform="translate(0 -63.369)" fill="#e1354a"/>
        <path id="Trazado_189920" data-name="Trazado 189920" d="M-4579.5-225.781c.428-.079.747-.515,1.239-.374a2.838,2.838,0,0,1,.758,1.134c.567,1.149,1.22,2.251,1.786,3.4.609,1.327,1.39,2.566,2.006,3.889.087.186.256.347.2.584a2.311,2.311,0,0,0-.487,1.588,17.92,17.92,0,0,1-.045,2.58c-2.489.005-4.977.016-7.465.012a1.286,1.286,0,0,1-1.385-1.322c-.03-.483-.036-.967-.053-1.45l.026-4.583a4.612,4.612,0,0,1,.786-2.936A5.179,5.179,0,0,1-4579.5-225.781Z" transform="translate(-143.963 -176.979)" fill="#004e6e"/>
        <path id="Trazado_189921" data-name="Trazado 189921" d="M-4726.251-424.667a4.694,4.694,0,0,0-2.143-.289c.267-.221.61-.029.955-.183a6.4,6.4,0,0,1-2.32-2.634,5.686,5.686,0,0,1-.527-2.319,13.269,13.269,0,0,1,.187-3.587,5.678,5.678,0,0,1,3.882-4.07,14.745,14.745,0,0,1,1.962,1.25,5.607,5.607,0,0,1,1.832,4.41,16.97,16.97,0,0,1-.126,3.218,5.727,5.727,0,0,1-3.081,3.885C-4725.837-424.877-4726.044-424.773-4726.251-424.667Z" transform="translate(-21.604 -1.307)" fill="#f8c1b3"/>
        <path id="Trazado_189922" data-name="Trazado 189922" d="M-4677.674-201.692a4.813,4.813,0,0,0-1.6-.332l.424-.122a5.7,5.7,0,0,1-2.757-4.378,29.659,29.659,0,0,1,.1-3.409,5.082,5.082,0,0,1,1.191-2.536,1.1,1.1,0,0,0,.13-.282,3.706,3.706,0,0,1,2.593-1.559,5.914,5.914,0,0,1,3.351,3.434,4.788,4.788,0,0,1,.3,1.609c0,.908.013,1.816,0,2.723a5.631,5.631,0,0,1-3.417,4.792A1.433,1.433,0,0,1-4677.674-201.692Z" transform="translate(-62.047 -186.837)" fill="#f8c1b3"/>
        <path id="Trazado_189923" data-name="Trazado 189923" d="M-4634.412-128.508c0-2.639-.033-5.279,0-7.917a6.744,6.744,0,0,0-4.127-6.058,2.2,2.2,0,0,1-.32-.193,1.58,1.58,0,0,1,1.077-.566,2.019,2.019,0,0,1,1.349.274,7.438,7.438,0,0,1,3.209,1.547,6.732,6.732,0,0,1,2.388,5.294c-.005,2.046.007,4.092,0,6.138-.005,1.093-.444,1.507-1.555,1.505C-4633.062-128.485-4633.737-128.5-4634.412-128.508Z" transform="translate(-97.549 -245.843)" fill="#98b92e"/>
        <path id="Trazado_189924" data-name="Trazado 189924" d="M-4654.083-203.873l-1.008.414-.746.217a2.224,2.224,0,0,1-2.015,0l-.557-.227a8.894,8.894,0,0,0,2.262-1.681,4.876,4.876,0,0,0,1.287-3.139,17.561,17.561,0,0,0-.083-3.531,5.262,5.262,0,0,0-2.9-3.829c-.2-.105-.449-.148-.553-.392a1.941,1.941,0,0,1,1.6-.4,5.562,5.562,0,0,1,4.187,1.907,5.124,5.124,0,0,1,1.007,1.579c.082.187.215.372.073.589a14.612,14.612,0,0,1,.119,4.947,10.391,10.391,0,0,1-.614,1.65A3.91,3.91,0,0,1-4654.083-203.873Z" transform="translate(-81.312 -185.061)" fill="#f39d8f"/>
        <path id="Trazado_189925" data-name="Trazado 189925" d="M-4516.853-206.021h-5.214a.951.951,0,0,1-.176-.717c-.008-.634-.021-1.268,0-1.9a2.45,2.45,0,0,0-.378-1.506.675.675,0,0,1,.07-.548c.6-1.232,1.288-2.42,1.9-3.646a.421.421,0,0,1,.231-.206l1.783-3.25a7.034,7.034,0,0,1,1.951,4.612c.048,2.128.014,4.257.009,6.385A1.022,1.022,0,0,1-4516.853-206.021Z" transform="translate(-194.038 -183.943)" fill="#004e6e"/>
        <path id="Trazado_189926" data-name="Trazado 189926" d="M-4572.56-324.948a5.629,5.629,0,0,1,4.326-2.765,2.354,2.354,0,0,1,1.565,2.422c-.018.821.007,1.644-.006,2.466a3.781,3.781,0,0,1-2.692,3.521,7.4,7.4,0,0,0-1.577.427,5.767,5.767,0,0,1-1.747-.107.9.9,0,0,1-.765-.815,10.044,10.044,0,0,1,.359-4.407C-4572.974-324.494-4572.88-324.8-4572.56-324.948Z" transform="translate(-151.794 -92.674)" fill="#897d88"/>
        <path id="Trazado_189927" data-name="Trazado 189927" d="M-4497.209-213.016c0-2.2-.033-4.392.006-6.587a7.18,7.18,0,0,0-1.552-4.629.754.754,0,0,1-.233-.559c.087-.19.167-.385.264-.57.543-1.042.554-1.057,1.567-.467a6.623,6.623,0,0,1,3.488,5.9c.041,1.815.011,3.631.007,5.447a1.3,1.3,0,0,1-1.458,1.484C-4495.817-212.994-4496.513-213.008-4497.209-213.016Z" transform="translate(-213.682 -176.948)" fill="#003d54"/>
        <path id="Trazado_189928" data-name="Trazado 189928" d="M-4621.333-396.18a3.79,3.79,0,0,1-2.536,4.81,3.8,3.8,0,0,1-4.758-2.743,3.8,3.8,0,0,1,2.875-4.625,3.829,3.829,0,0,1,2.852.5c.177.1.312.3.551.282.064.154-.053.234-.14.317-.521.495-1.028,1-1.527,1.521-.33.341-.642.478-1.014.079a.585.585,0,0,0-.154-.111.743.743,0,0,0-.976.16.679.679,0,0,0-.054.928,5.537,5.537,0,0,0,1.2,1.21.9.9,0,0,0,1.256-.178c.609-.587,1.193-1.2,1.8-1.786C-4621.782-395.985-4621.642-396.235-4621.333-396.18Z" transform="translate(-105.947 -33.625)" fill="#49ad98"/>
        <path id="Trazado_189929" data-name="Trazado 189929" d="M-4535.511-221.851c-.629,1.458-1.462,2.812-2.163,4.233a1.483,1.483,0,0,1-.886.022,42.353,42.353,0,0,1-2.27-4.27,8.094,8.094,0,0,1,.741-2.327,6.638,6.638,0,0,1,.924-2.191,2.35,2.35,0,0,1,1.98.019Z" transform="translate(-178.943 -176.638)" fill="#e1354a"/>
        <path id="Trazado_189930" data-name="Trazado 189930" d="M-4558.074-319.09c.041-.279.261-.21.44-.235a3.814,3.814,0,0,0,3.547-2.9,9.652,9.652,0,0,0,.075-1.821c.1-1.464.084-2.879-1.392-3.757.817-.006,1.634-.03,2.451-.014a2.494,2.494,0,0,1,1.857,1.135,1.061,1.061,0,0,1,.163.151.41.41,0,0,1,.091.163c.217,2.012.646,4.052-.777,5.846a4.568,4.568,0,0,1-2.963,1.392,10.836,10.836,0,0,1-3.326.182A.343.343,0,0,1-4558.074-319.09Z" transform="translate(-164.624 -92.58)" fill="#776d75"/>
        <path id="Trazado_189931" data-name="Trazado 189931" d="M-4556.962-401.342q-2.474,0-4.948,0a1.753,1.753,0,0,1-.808-.118.93.93,0,0,1-.582-.9.92.92,0,0,1,.666-.9,2.154,2.154,0,0,1,.753-.073q4.917,0,9.833,0c.084,0,.169,0,.253,0,.723.022,1.175.4,1.177.974,0,.609-.457,1.007-1.206,1.02-.7.012-1.4,0-2.093,0Z" transform="translate(-160.285 -29.879)" fill="#b9cb5e"/>
        <path id="Trazado_189932" data-name="Trazado 189932" d="M-4557.031-383.278q-2.5,0-5.01,0c-.829,0-1.275-.35-1.277-.986,0-.588.436-.976,1.226-1,1.12-.028,2.241-.01,3.362-.01q3.234,0,6.469,0a4.416,4.416,0,0,1,.756.057.976.976,0,0,1,.87,1.056.988.988,0,0,1-1.068.873c-1.669.011-3.34,0-5.01,0Z" transform="translate(-160.27 -44.877)" fill="#b9cb5e"/>
        <path id="Trazado_189933" data-name="Trazado 189933" d="M-4529.942-270.658a5.872,5.872,0,0,0-1.994.118.314.314,0,0,1-.165-.348.98.98,0,0,1,.517-.345,5.566,5.566,0,0,0,3.407-5.391,18.051,18.051,0,0,0-.159-2.588c-.027-.225-.111-.462.092-.658a3.227,3.227,0,0,1,1.412.076,4.394,4.394,0,0,0,.745.053,1,1,0,0,1,.657.17,3.7,3.7,0,0,1,.27,1.725,11.555,11.555,0,0,1-.057,2.071.279.279,0,0,0-.24.254,5.569,5.569,0,0,1-2.795,4.207c-.023.082-.1.09-.163.117Z" transform="translate(-186.185 -132.345)" fill="#f39d8f"/>
        <path id="Trazado_189934" data-name="Trazado 189934" d="M-4512.882-314.337l-.633-.041c-.307-.045-.25-.2-.2-.45.535-2.815.007-5.154-2.568-6.381a4.669,4.669,0,0,1-.648-.391c0-.041,0-.081-.005-.122,3.109-.538,5.753.65,6.516,3.6a9.2,9.2,0,0,1,.137,2.9.777.777,0,0,1-.714.765A1.927,1.927,0,0,1-4512.882-314.337Z" transform="translate(-198.779 -97.545)" fill="#554c55"/>
        <path id="Trazado_189935" data-name="Trazado 189935" d="M-4677.469-358.287a1.4,1.4,0,0,1-.361.073,1.113,1.113,0,0,0-1.231.931c-.289.923-.621,1.832-.944,2.744-.068.192-.071.418-.261.554-.489.127-.381-.271-.4-.493-.047-.609,0-1.22-.106-1.831a6.9,6.9,0,0,0-3.792-5.229c-.244-.127-.588-.166-.629-.541a4.1,4.1,0,0,1,2.027-.3A6.965,6.965,0,0,1-4677.469-358.287Z" transform="translate(-59.074 -63.889)" fill="#de1f34"/>
        <path id="Trazado_189936" data-name="Trazado 189936" d="M-4582.754-314.345c-.974,1.6-.758,3.376-.749,5.119,0,.395.3.573.627.7-.417.538-.929,1-.865,1.8a1.908,1.908,0,0,0,2.2,1.794c.215-.032.446-.17.646.047a.616.616,0,0,1-.062.694c-.038.305-.244.166-.376.121-.9-.3-1.79-.615-2.679-.94a1.212,1.212,0,0,1-.747-.81,12.386,12.386,0,0,0-.873-2.095,1.358,1.358,0,0,1,.014-1.327c.421-.849.8-1.718,1.231-2.563a1.116,1.116,0,0,0-.307-1.506c-.313-.277-.576-.611-.862-.919.18-.1.368-.192.538-.308A1.544,1.544,0,0,1-4582.754-314.345Z" transform="translate(-141.6 -103.278)" fill="#978d99"/>
        <path id="Trazado_189937" data-name="Trazado 189937" d="M-4610.583-396.01l-2.267,2.214a1.081,1.081,0,0,1-1.8,0c-.287-.282-.583-.556-.848-.857a.889.889,0,0,1,.022-1.344.856.856,0,0,1,1.327.049c.285.3.441.25.7-.019.6-.624,1.231-1.215,1.85-1.819a6.586,6.586,0,0,1,.627-.62.936.936,0,0,1,1.31.11.928.928,0,0,1,.025,1.272C-4609.926-396.665-4610.266-396.347-4610.583-396.01Z" transform="translate(-116.697 -33.795)" fill="#1f897a"/>
        <path id="Trazado_189938" data-name="Trazado 189938" d="M-4560.083-360.976c.7,0,1.4-.012,2.092,0a.944.944,0,0,1,1.016.905.953.953,0,0,1-.981,1.017q-2.187.031-4.376,0a.956.956,0,0,1-.984-1.015.948.948,0,0,1,1.014-.908C-4561.564-360.988-4560.824-360.976-4560.083-360.976Z" transform="translate(-160.27 -65.051)" fill="#b8cb5e"/>
        <path id="Trazado_189939" data-name="Trazado 189939" d="M-4493.02-278.156l1.88-.117a2.215,2.215,0,0,1,.967,2.577,2.064,2.064,0,0,1-2.587,1.3,1.236,1.236,0,0,1-.126-.8A18.4,18.4,0,0,0-4493.02-278.156Z" transform="translate(-218.641 -133.726)" fill="#ee7f70"/>
        <path id="Trazado_189940" data-name="Trazado 189940" d="M-4530.64-174.1c.291-.208.59-.068.886-.023a1.8,1.8,0,0,1,.527,1.472c-.042.938-.013,1.88-.014,2.82l-1.9.005a12.427,12.427,0,0,1-.03-3.616C-4531.136-173.779-4530.868-173.923-4530.64-174.1Z" transform="translate(-186.863 -220.132)" fill="#003d55"/>
        <path id="Trazado_189941" data-name="Trazado 189941" d="M-4632.914-151.6a11.014,11.014,0,0,0,2.056-1.9,9.869,9.869,0,0,1-.637,2.018Z" transform="translate(-102.481 -237.338)" fill="#aca1ac"/>
        <path id="Trazado_189942" data-name="Trazado 189942" d="M-4510.339-229l.163-.117.627.023c.038.022.05.044.038.066s-.025.033-.038.033Z" transform="translate(-204.261 -174.543)" fill="#b2c8d1"/>
        <path id="Trazado_189943" data-name="Trazado 189943" d="M-4505.7-228.971a.562.562,0,0,1,0-.1c.18,0,.367-.069.544.05C-4505.328-228.9-4505.516-228.975-4505.7-228.971Z" transform="translate(-208.115 -174.566)" fill="#99b5c0"/>
        <path id="Trazado_189944" data-name="Trazado 189944" d="M-4713.957-350a1.317,1.317,0,0,1-.44-1.614c.679-2.541,1.3-5.1,1.947-7.647a11.027,11.027,0,0,0,2.154,0,1.041,1.041,0,0,1,.324.6c.581,2.436,1.271,4.844,1.848,7.281.092.39.2.8-.3,1.027a17.353,17.353,0,0,1-2.641-1.193,1.191,1.191,0,0,0-1.578.27C-4713.056-350.829-4713.517-350.424-4713.957-350Z" transform="translate(-34.744 -66.479)" fill="#f6f0ee"/>
        <path id="Trazado_189945" data-name="Trazado 189945" d="M-4687.888-351.476c.348-.346.208-.741.109-1.128q-.988-3.89-1.981-7.778l.775-.229a14.6,14.6,0,0,1,2.277,1.439,7.36,7.36,0,0,1,2.415,5.724c0,.308-.226.721.233.932a20.413,20.413,0,0,0-3.073,1.3C-4687.465-351.03-4687.679-351.262-4687.888-351.476Z" transform="translate(-55.28 -65.357)" fill="#e1354a"/>
        <path id="Trazado_189946" data-name="Trazado 189946" d="M-4675.444-272.13a5.552,5.552,0,0,0-5.72-1.64,7.7,7.7,0,0,0-2.531,1.512,8.21,8.21,0,0,1-2.136-5.405,7.975,7.975,0,0,1,2.036-5.624,8.136,8.136,0,0,1,4.4-2.687,4.747,4.747,0,0,1,2.919,1.189,8.317,8.317,0,0,1,3.582,7.17,8,8,0,0,1-1.951,5.165C-4674.994-272.276-4675.11-271.98-4675.444-272.13Z" transform="translate(-58.542 -127.331)" fill="#eae8eb"/>
        <path id="Trazado_189947" data-name="Trazado 189947" d="M-4558.34-279.418q-.015-.359-.03-.718a.787.787,0,0,1-.178-.588c-.016-.736-.014-1.473,0-2.21a.849.849,0,0,1,.2-.644,23.89,23.89,0,0,0,3.45-.265,5.23,5.23,0,0,0,2.756-1.263c.6.4,1.339.551,1.909,1.015a12.5,12.5,0,0,1,.116,4.581,5.531,5.531,0,0,1-3.643,4.271c-.094.039-.182.093-.272.14-.585.183-1.04-.182-1.538-.364a6.922,6.922,0,0,1-1.612-1.357,1.122,1.122,0,0,1-.423-.8A10.94,10.94,0,0,1-4558.34-279.418Z" transform="translate(-164.222 -128.053)" fill="#f8c1b3"/>
        <path id="Trazado_189948" data-name="Trazado 189948" d="M-4643.956-273.59a6.5,6.5,0,0,0,2.107-3.574,8.068,8.068,0,0,0-.71-6.057,8.322,8.322,0,0,0-5.351-4.212,7.456,7.456,0,0,1,4.88.244,8.084,8.084,0,0,1,5.154,5.59,8.045,8.045,0,0,1-1.776,7.826,7.347,7.347,0,0,1-3.163,2.22A6.33,6.33,0,0,0-4643.956-273.59Z" transform="translate(-90.03 -125.871)" fill="#cdc6cd"/>
        <path id="Trazado_189949" data-name="Trazado 189949" d="M-4552.79-229.531l1.491.494c.109.057.111.168.132.268-.56,1.457-1.014,2.953-1.652,4.381q-1.225-2.315-2.45-4.63l.159-.245A3.173,3.173,0,0,1-4552.79-229.531Z" transform="translate(-166.954 -174.116)" fill="#fff"/>
        <path id="Trazado_189950" data-name="Trazado 189950" d="M-4581.785-223.816a7.145,7.145,0,0,0-3.246,4.47,3.436,3.436,0,0,1-.176.987,1.7,1.7,0,0,1-.221-2.146,8.674,8.674,0,0,0,.7-1.692,1.34,1.34,0,0,1,1.024-1A14.427,14.427,0,0,1-4581.785-223.816Z" transform="translate(-141.677 -178.944)" fill="#968d99"/>
        <path id="Trazado_189951" data-name="Trazado 189951" d="M-4552.011-238.959l-2.319.268a5.776,5.776,0,0,0,.127-1.631c.007-.223-.084-.469.111-.663A6.973,6.973,0,0,0-4552.011-238.959Z" transform="translate(-167.733 -164.688)" fill="#988e9a"/>
        <path id="Trazado_189952" data-name="Trazado 189952" d="M-4664.71-138.6h2.015q.993,3.821,1.983,7.644a.923.923,0,0,1-.318,1.02c-.694.585-1.368,1.195-2.051,1.793a.8.8,0,0,1-1.187.008c-.633-.559-1.252-1.136-1.913-1.661a1.189,1.189,0,0,1-.418-1.394C-4665.956-133.66-4665.337-136.132-4664.71-138.6Z" transform="translate(-74.455 -249.7)" fill="#006185"/>
        <path id="Trazado_189953" data-name="Trazado 189953" d="M-4509.706-169.768a1.016,1.016,0,0,1,.986.968,1.014,1.014,0,0,1-1.018,1,1.017,1.017,0,0,1-.957-1A1.016,1.016,0,0,1-4509.706-169.768Z" transform="translate(-203.966 -223.822)" fill="#fcfdfd"/>
        <path id="Trazado_189954" data-name="Trazado 189954" d="M-4571.748-276.972q-.011,1.721-.022,3.442a2.08,2.08,0,0,1-2.909-2.159,1.677,1.677,0,0,1,1.023-1.459c.6-.031,1.176.214,1.778.136Z" transform="translate(-150.82 -134.658)" fill="#f39d8f"/>
        <path id="Trazado_189955" data-name="Trazado 189955" d="M-4518.816-313.386a3.453,3.453,0,0,1-1.909-1.015c1.291-1.879,1.033-3.925.647-5.986a4.7,4.7,0,0,1,3.547,4.3c.015.631,0,1.262,0,1.893a.781.781,0,0,1-.213.693c-.205.168.012.236.082.338A19.084,19.084,0,0,1-4518.816-313.386Z" transform="translate(-195.636 -98.758)" fill="#665f67"/>
      </g>
    </g>
  </g>
</svg>
