<svg xmlns="http://www.w3.org/2000/svg" xmlns:xlink="http://www.w3.org/1999/xlink" width="105.859" height="105.859" viewBox="0 0 105.859 105.859">
  <defs>
    <filter id="Rect치ngulo_41487" x="0" y="0" width="105.859" height="105.859" filterUnits="userSpaceOnUse">
      <feOffset dy="3" input="SourceAlpha"/>
      <feGaussianBlur stdDeviation="3" result="blur"/>
      <feFlood flood-opacity="0.161"/>
      <feComposite operator="in" in2="blur"/>
      <feComposite in="SourceGraphic"/>
    </filter>
  </defs>
  <g id="Grupo_124747" data-name="Grupo 124747" transform="translate(11445.192 13290.455)">
    <g id="Grupo_124744" data-name="Grupo 124744" transform="translate(-11436.192 -13284.455)">
      <g transform="matrix(1, 0, 0, 1, -9, -6)" filter="url(#Rect치ngulo_41487)">
        <rect id="Rect치ngulo_41487-2" data-name="Rect치ngulo 41487" width="87.86" height="87.86" rx="23" transform="translate(9 6)" fill="#fff"/>
      </g>
      <g id="Grupo_124482" data-name="Grupo 124482" transform="translate(5453.797 308.165)">
        <path id="Trazado_189995" data-name="Trazado 189995" d="M-5424.036-296.735a2.451,2.451,0,0,1,1.666,2.158c.1,1.39.057,2.782.032,4.172a15.1,15.1,0,0,1,.135,2.575,19.8,19.8,0,0,0-.129,2.707,2.87,2.87,0,0,1-1.99-.033,2.489,2.489,0,0,1-.154-1.324c-.036-2.384,0-4.768-.017-7.152,0-.956-.039-.992-1-1-3.734-.014-7.468.021-11.2-.016-1.5.063-1.5-.282-1.492,1.524,0,2.319,0,4.637,0,6.956a4.925,4.925,0,0,0,.053.944,2.5,2.5,0,0,0,2.095,1.767,6.606,6.606,0,0,0,1.694.126c.185-.013.387-.039.5.172a2.479,2.479,0,0,1-.115,1.82c-1.4.015-2.792.081-4.187-.034a3.209,3.209,0,0,1-3.009-2.6.866.866,0,0,1,.467-.961c.406-.182.41-.454.41-.8-.007-2.721.035-5.443-.02-8.162a2.6,2.6,0,0,1,1.787-2.839Z" transform="translate(-0.169)" fill="#8d9cac"/>
        <path id="Trazado_189996" data-name="Trazado 189996" d="M-5392.494-274.494q.007-4.76.015-9.52c.2.264.1.572.1.858.012,1.268.028,2.536-.006,3.8-.014.518.128.69.667.683,2.176-.029,4.353-.014,6.529-.012a2.3,2.3,0,0,1,2.462,2.447c.01.972.015,1.944,0,2.916-.008.41.153.5.536.456a19.831,19.831,0,0,1,4.661,0c.392.047.535-.063.528-.464-.018-1.035.049-2.074-.021-3.105a2.279,2.279,0,0,1,2.283-2.264c3.3.035,6.593.008,9.889.006a1.838,1.838,0,0,1,0,1.916c-3.194,0-6.388,0-9.582-.013-.479,0-.693.131-.68.647.028,1.057.022,2.115,0,3.172-.008.412.142.558.549.677a19.147,19.147,0,0,1,7.479,4.09,18.963,18.963,0,0,1,6.339,11.55,13.248,13.248,0,0,1,.223,1.492c.018.419.207.475.556.474,1.819-.006,3.638.006,5.457.011a4.75,4.75,0,0,1-.046,1.892c-1.8,0-3.6.006-5.392-.011-.391,0-.534.091-.572.521a19.563,19.563,0,0,1-3.182,9.281,18.98,18.98,0,0,1-6.871,6.3,20.194,20.194,0,0,1-4.15,1.676.44.44,0,0,0-.382.486q0,1.744,0,3.489c0,.523.366.475.708.475h9.833a2.131,2.131,0,0,1,0,1.9c-3.362,0-6.725-.034-10.087.019a2.3,2.3,0,0,1-2.374-2.373c.079-.966,0-1.945.023-2.917.013-.492-.135-.581-.631-.527a20.6,20.6,0,0,1-4.482,0c-.439-.049-.627,0-.614.485.024.93.01,1.861.006,2.791a2.313,2.313,0,0,1-2.516,2.525c-2.918,0-5.836.013-8.754-.011-.532,0-.684.152-.672.677.033,1.5.016,3,.01,4.5,0,.226.069.468-.1.673-.3-.261-.2-.615-.215-.941-.041-3.984-.014-7.969-.012-11.953a.79.79,0,0,1,.224-.7c.169.2.1.446.1.672.006,1.543.015,3.086,0,4.629,0,.409.117.551.539.549q4.439-.022,8.878,0c.446,0,.615-.2.616-.6,0-1.12-.008-2.241.006-3.361,0-.364-.212-.467-.5-.541a17.957,17.957,0,0,1-6.458-3.235,19.591,19.591,0,0,1-5.154-5.916,19.551,19.551,0,0,1-2.187-6.092,7.275,7.275,0,0,1-.185-1.817c.03-.47-.179-.673-.681-.666-1.754.024-3.509.011-5.264.012a4.661,4.661,0,0,1-.041-1.894c1.735,0,3.47-.032,5.2,0,.558.01.756-.21.785-.714a17.062,17.062,0,0,1,1.938-6.949,19.393,19.393,0,0,1,12.038-9.962c.391-.118.507-.274.5-.648-.015-1.036-.013-2.073,0-3.11,0-.481-.136-.736-.69-.73-2.158.024-4.316.018-6.474,0-.423,0-.622.1-.591.562.037.569.015,1.142.018,1.713A.1.1,0,0,1-5392.494-274.494Z" transform="translate(-30.06 -10.563)" fill="#e3e2e3"/>
        <path id="Trazado_189997" data-name="Trazado 189997" d="M-5402.1-6.673l-.018,12.7a1.186,1.186,0,0,1-.842.2c-3.235,0-6.469.011-9.7,0-1.09,0-1.343-.268-1.345-1.361q-.009-5.644,0-11.289a1.131,1.131,0,0,1,.208-.9c3.541,0,7.083,0,10.624-.01C-5402.657-7.335-5402.259-7.217-5402.1-6.673Z" transform="translate(-22.716 -240.3)" fill="#65b7e7"/>
        <path id="Trazado_189998" data-name="Trazado 189998" d="M-5165.85-3.767v-1.9q.01-2.472.02-4.945a2.3,2.3,0,0,1,2.55-2.545q3.9,0,7.8,0a2.255,2.255,0,0,1,2.444,2.448q.006,5.993,0,11.985a2.255,2.255,0,0,1-2.443,2.449q-3.964.005-7.927,0a2.263,2.263,0,0,1-2.422-2.417C-5165.844-.386-5165.843-2.077-5165.85-3.767Z" transform="translate(-228.773 -235.46)" fill="#798b98"/>
        <path id="Trazado_189999" data-name="Trazado 189999" d="M-5147.6-248.355c0,1.792.021,3.584,0,5.376-.005.413.242.826.006,1.237a1.665,1.665,0,0,0-1.187-.328q-4.5.009-9.007,0a7.812,7.812,0,0,1-.824-.019c-.7-.075-.982-.345-1-1.06q-.044-2.283,0-4.567c.012-.669.176-.84.837-.843,3.51-.021,7.02-.015,10.529,0a1.091,1.091,0,0,1,.553.117Z" transform="translate(-233.934 -39.993)" fill="#65b7e7"/>
        <path id="Trazado_190000" data-name="Trazado 190000" d="M-5159.39-290.87q5.393,0,10.785,0c.788,0,1.027.238,1.033,1.016.014,1.922-.04,3.844.081,5.764a.822.822,0,0,1-.089.612l-.027-.025a.48.48,0,0,1-.152-.339c.032-.815-.205-.839-1.052-.839h-9.056a5.572,5.572,0,0,1-.885-.037.862.862,0,0,1-.827-.881c-.039-1.583-.027-3.166,0-4.749A.644.644,0,0,1-5159.39-290.87Z" transform="translate(-233.959 -4.867)" fill="#65b7e7"/>
        <path id="Trazado_190001" data-name="Trazado 190001" d="M-5165.985-290.952q0,2.531-.007,5.061c0,.785.125.918.917.919,3.291,0,6.581,0,9.871,0,1.156,0,1-.152,1.013,1,0,.126-.007.253-.011.379-3.675.006-7.351.026-11.026,0-.6,0-.8.144-.78.766.045,1.456.014,2.914.015,4.372,0,.852.114.965,1,.965,3.4,0,6.8.007,10.2-.007.409,0,.659.073.619.538a.815.815,0,0,1-.831.913,5.769,5.769,0,0,1-.692.051q-5.159,0-10.319,0a3.923,3.923,0,0,1-.567-.027c-.7-.1-.937-.369-.942-1.095-.013-1.814-.018-3.628-.026-5.443v-1.916q.012-2.556.023-5.112C-5167.519-290.837-5167.283-291.05-5165.985-290.952Z" transform="translate(-227.364 -4.784)" fill="#489ed5"/>
        <path id="Trazado_190002" data-name="Trazado 190002" d="M-5420.9-7.4q0,6.273-.006,12.547c0,.652.164.8.914.8q5.386.006,10.773,0,.011.447.021.893c-.221.7-.812.724-1.388.725-2.724.008-5.448,0-8.171,0-.845,0-1.689.013-2.534,0-1.005-.02-1.273-.3-1.273-1.3q0-6.113,0-12.225C-5422.562-7.313-5422.333-7.512-5420.9-7.4Z" transform="translate(-15.616 -240.222)" fill="#489ed5"/>
        <path id="Trazado_190003" data-name="Trazado 190003" d="M-5427.822-121.321a3.839,3.839,0,0,1,.041,1.894c-.079.172-.158.343-.237.514a2.991,2.991,0,0,1-3.2-.343,3.39,3.39,0,0,1-1.175-3.749,3.153,3.153,0,0,1,4.295,1.2C-5428.008-121.646-5427.915-121.484-5427.822-121.321Z" transform="translate(-7.325 -143.917)" fill="#cbd889"/>
        <path id="Trazado_190004" data-name="Trazado 190004" d="M-5098.315-123.165a3.035,3.035,0,0,1,3.522.638,3.055,3.055,0,0,1,.552,3.693,3.335,3.335,0,0,1-4.489-3.188A1.268,1.268,0,0,1-5098.315-123.165Z" transform="translate(-284.505 -143.867)" fill="#cbd889"/>
        <path id="Trazado_190005" data-name="Trazado 190005" d="M-5439.718-121.018a.268.268,0,0,1,.116.328,3.177,3.177,0,0,0,4.132,3.772.611.611,0,0,1,.126-.008,3.09,3.09,0,0,1-3.368,1.773,3.228,3.228,0,0,1-2.613-2.582A3.155,3.155,0,0,1-5439.718-121.018Z" transform="translate(0 -145.904)" fill="#afcd8b"/>
        <path id="Trazado_190006" data-name="Trazado 190006" d="M-5105.57-121.666a3.17,3.17,0,0,0,2,4.235,4.538,4.538,0,0,0,1.747.04c.126-.013.24-.08.332.057a3,3,0,0,1-2.7,1.667,3.035,3.035,0,0,1-2.835-1.563,5.953,5.953,0,0,1-.337-.747,3.8,3.8,0,0,1,.046-1.892C-5106.894-120.623-5106.483-121.389-5105.57-121.666Z" transform="translate(-277.25 -145.366)" fill="#afcd8b"/>
        <path id="Trazado_190007" data-name="Trazado 190007" d="M-5361.912-228.931l.134-.017c.9.443,1,.949.393,1.925a.926.926,0,0,1-.59.189c-1.917.007-3.833.025-5.75-.01a.957.957,0,0,1-.247-.047.551.551,0,0,1-.206-.126,3.248,3.248,0,0,1-.044-1.858.378.378,0,0,1,.172-.16,24.146,24.146,0,0,1,4.242-.026A6.6,6.6,0,0,1-5361.912-228.931Z" transform="translate(-60.643 -56.125)" fill="#a7b8c4"/>
        <path id="Trazado_190008" data-name="Trazado 190008" d="M-5413.817-216.689l6.746.006a2.982,2.982,0,0,1-3.022,1.866c-4.3.027-8.6.011-12.907.006a1.448,1.448,0,0,1-.356-.093l4.211-.008a1.256,1.256,0,0,1,.9-.191c1.174-.007,2.348-.013,3.522,0,.5.006.737-.172.714-.694A1.088,1.088,0,0,1-5413.817-216.689Z" transform="translate(-14.956 -66.465)" fill="#8d9dad"/>
        <path id="Trazado_190009" data-name="Trazado 190009" d="M-5416.051-285.524q5.924-.007,11.848-.02c.432,0,.6.147.6.589-.017,2.6-.015,5.2-.019,7.793a1.127,1.127,0,0,1-.838.2q-5.318.007-10.635,0c-.972,0-1.158-.188-1.162-1.146-.01-2.194-.006-4.389,0-6.583A1.1,1.1,0,0,1-5416.051-285.524Z" transform="translate(-20.846 -9.292)" fill="#f6f3f3"/>
        <path id="Trazado_190010" data-name="Trazado 190010" d="M-5423.15-285.494c0,2.539.013,5.078-.016,7.616-.007.591.186.762.767.759,3.893-.022,7.786-.013,11.68-.014q.008.634.017,1.268c-.167.185-.391.121-.594.122-1.241,0-2.482,0-3.723,0a23.565,23.565,0,0,1-3.213.054c-1.83-.02-3.648.264-5.479.158a1.448,1.448,0,0,1-.964-.2c-.2-.19-.119-.438-.119-.66q-.009-4.124,0-8.247c0-.865,0-.866.889-.865C-5423.657-285.508-5423.4-285.5-5423.15-285.494Z" transform="translate(-13.748 -9.322)" fill="#e3e2e3"/>
        <path id="Trazado_190011" data-name="Trazado 190011" d="M-5393.236-218.276c0,.4-.027.806,0,1.205.033.439-.12.587-.571.58-1.586-.024-3.174-.009-4.761-.009q0-.95,0-1.9l.09-.083a1.993,1.993,0,0,1,.931-.113c1.137,0,2.274-.008,3.411,0,.332,0,.689-.035.9.318Z" transform="translate(-35.538 -64.877)" fill="#7a8b99"/>
        <path id="Trazado_190012" data-name="Trazado 190012" d="M-5424.013-228.578c3,.055,5.992-.206,8.991-.119.225.007.469-.078.666.11l-.018.02a1.185,1.185,0,0,1-.846.184c-1.119.007-2.239,0-3.358,0-.883,0-.884.006-.924.864a1.067,1.067,0,0,1-.194.717h0C-5421.357-226.408-5423.564-226.937-5424.013-228.578Z" transform="translate(-14.411 -56.479)" fill="#a7b7c4"/>
        <path id="Trazado_190013" data-name="Trazado 190013" d="M-5323.887-190.649a17.408,17.408,0,0,1-17.45,17.461,17.366,17.366,0,0,1-17.436-17.857,17.341,17.341,0,0,1,17.45-17.074A17.4,17.4,0,0,1-5323.887-190.649Z" transform="translate(-68.58 -73.58)" fill="#f6f3f3"/>
        <path id="Trazado_190014" data-name="Trazado 190014" d="M-5394.39,18.718c0,1.036-.016,2.072.007,3.108.01.439-.144.6-.585.592-1.522-.018-3.045-.015-4.567,0-.439,0-.595-.175-.592-.607q.019-3.045,0-6.089c0-.448.185-.591.609-.587,1.522.013,3.045.018,4.567,0,.463-.006.576.188.568.607C-5394.4,16.73-5394.39,17.724-5394.39,18.718Z" transform="translate(-34.244 -258.951)" fill="#f6f3f3"/>
        <path id="Trazado_190015" data-name="Trazado 190015" d="M-5149.661-1.941c2.47-.006,4.94-.006,7.41-.025.446,0,.588.178.587.6q-.023,5.731-.024,11.463c-.166.326-.478.32-.771.322-2.072.013-4.144.022-6.215,0-.9-.011-1.185-.3-1.188-1.189-.015-3.466-.009-6.933,0-10.4A1,1,0,0,1-5149.661-1.941Z" transform="translate(-242.04 -244.757)" fill="#f6f3f3"/>
        <path id="Trazado_190016" data-name="Trazado 190016" d="M-5153.542-1.89c0,3.783.005,7.567-.013,11.35,0,.537.2.81.718.812q3.424.014,6.848,0a1.6,1.6,0,0,0,.419-.119c.046,1.014.046,1.014-.974,1.014h-7.171c-.787,0-.83-.039-.83-.819q0-5.648,0-11.3C-5154.544-1.929-5154.535-1.937-5153.542-1.89Z" transform="translate(-238.16 -244.807)" fill="#e2e2e2"/>
        <path id="Trazado_190017" data-name="Trazado 190017" d="M-5132.287-228.45c-.613,0-1.226.011-1.839,0a.955.955,0,0,1-.981-.937.953.953,0,0,1,.984-.869q1.838-.014,3.678,0c.623.006.914.3.925.871.012.624-.268.919-.928.934C-5131.061-228.439-5131.674-228.45-5132.287-228.45Z" transform="translate(-254.299 -55.191)" fill="#f6f3f3"/>
        <path id="Trazado_190018" data-name="Trazado 190018" d="M-5152.96-228.425a.858.858,0,0,1-.959-.859.86.86,0,0,1,.932-.949.957.957,0,0,1,.959.889A.957.957,0,0,1-5152.96-228.425Z" transform="translate(-238.679 -55.22)" fill="#f5f3f3"/>
        <path id="Trazado_190019" data-name="Trazado 190019" d="M-5132.227-274.4c.613,0,1.226-.005,1.839,0a.787.787,0,0,1,.869.864c.016.6-.263.929-.856.937-1.268.018-2.536.016-3.8,0a.938.938,0,0,1-.926-.926.955.955,0,0,1,.976-.877C-5133.5-274.41-5132.861-274.4-5132.227-274.4Z" transform="translate(-254.301 -18.542)" fill="#f6f3f3"/>
        <path id="Trazado_190020" data-name="Trazado 190020" d="M-5153-274.378a.959.959,0,0,1,.978.871.956.956,0,0,1-.912.936.863.863,0,0,1-.979-.9A.853.853,0,0,1-5153-274.378Z" transform="translate(-238.684 -18.564)" fill="#f5f3f3"/>
        <path id="Trazado_190021" data-name="Trazado 190021" d="M-5398.636-226.156c0-.4.022-.806-.009-1.205-.035-.441.123-.587.571-.58,1.586.026,3.173.014,4.759.016l.012,1.893a1.374,1.374,0,0,0-.734-.125Q-5396.336-226.154-5398.636-226.156Z" transform="translate(-35.472 -57.122)" fill="#8d9cac"/>
        <path id="Trazado_190022" data-name="Trazado 190022" d="M-5288.438-107.7c.007,2.547.037,5.094.008,7.641a3.226,3.226,0,0,1-.585,2.022,1.247,1.247,0,0,1-.845.2q-7.729,0-15.457,0a3.51,3.51,0,0,1-1.062-.152,1.817,1.817,0,0,1-1.368-1.713c-.055-2.47-.027-4.94-.014-7.411a.86.86,0,0,1,.181-.593,1.389,1.389,0,0,1,.914-.182q8.661-.006,17.321,0A1.224,1.224,0,0,1-5288.438-107.7Z" transform="translate(-110.923 -156.797)" fill="#8d9cac"/>
        <path id="Trazado_190023" data-name="Trazado 190023" d="M-5284.966-186.5a7.505,7.505,0,0,1,6.064,3.232,7.281,7.281,0,0,1,1.413,4.375q0,.854,0,1.709a2.367,2.367,0,0,1-1.815.143c-.27-.148-.249-.416-.261-.664-.016-.357,0-.714-.007-1.072a3.781,3.781,0,0,0-3.581-3.771,4.156,4.156,0,0,0-1.317.052,3.919,3.919,0,0,0-2.706.587,3.963,3.963,0,0,0-1.708,3.4c-.014.484.178,1.013-.217,1.445a3.727,3.727,0,0,1-1.751.023c-.254-.128-.247-.373-.259-.6a8.451,8.451,0,0,1,2.021-6.41,7.709,7.709,0,0,1,3.836-2.342C-5285.155-186.421-5285.043-186.411-5284.966-186.5Z" transform="translate(-124.749 -91.532)" fill="#ffc54e"/>
        <path id="Trazado_190024" data-name="Trazado 190024" d="M-5315.955-107.7c0,2.454.07,4.91-.019,7.361-.058,1.6.881,2.28,2.331,2.274,5.077-.022,10.155-.009,15.232-.008.339,0,.677,0,1.016,0a3.571,3.571,0,0,1-3.239,1.869q-6.754.058-13.51,0a3.726,3.726,0,0,1-3.724-3.844c-.01-2.558,0-5.116.006-7.674a2.412,2.412,0,0,1,1.828-.072Z" transform="translate(-102.544 -156.767)" fill="#798b98"/>
        <path id="Trazado_190025" data-name="Trazado 190025" d="M-5304.9-132.48l1.913.006a1.012,1.012,0,0,1,.664-.16c2.345,0,4.689-.025,7.034.012a5.027,5.027,0,0,1,1.941.142l1.907.008c.444.009.888.022,1.331.026a1.36,1.36,0,0,1,1.565,1.483c.013.274-.012.549-.019.824a1.123,1.123,0,0,1-.841.191q-8.709.008-17.418,0a1.431,1.431,0,0,1-.857-.16,2.906,2.906,0,0,1-.017-2.32l.906-.045A2.634,2.634,0,0,1-5304.9-132.48Z" transform="translate(-110.802 -136.244)" fill="#8d9cac"/>
        <path id="Trazado_190026" data-name="Trazado 190026" d="M-5307.57-118.03q4.657.01,9.315.02,4.912.008,9.823.011v1.883l-18.315.012c-.274,0-.548.013-.822.02l.008-.04a2.547,2.547,0,0,1-.087-1.818Z" transform="translate(-110.929 -148.385)" fill="#ffc54e"/>
        <path id="Trazado_190027" data-name="Trazado 190027" d="M-5299.417-177.351l-1.892.008a9.533,9.533,0,0,1,.872-5.169,7.294,7.294,0,0,1,6.2-4.066c.27-.016.523-.183.8-.082.012.072.3.149-.011.214a7.641,7.641,0,0,0-5.873,6.455C-5299.412-179.105-5299.375-178.23-5299.417-177.351Z" transform="translate(-116.28 -91.373)" fill="#fba34c"/>
        <path id="Trazado_190028" data-name="Trazado 190028" d="M-5315.949-131.389q0,1.128,0,2.256l.009.04a2.2,2.2,0,0,1-1.916-.024c0-.146-.008-.292-.009-.438C-5317.873-131.14-5317.523-131.474-5315.949-131.389Z" transform="translate(-102.546 -137.282)" fill="#798b99"/>
        <path id="Trazado_190029" data-name="Trazado 190029" d="M-5317.819-117.934l1.916.024v1.866l-1.915.023Q-5317.819-116.978-5317.819-117.934Z" transform="translate(-102.588 -148.465)" fill="#fba44c"/>
        <path id="Trazado_190030" data-name="Trazado 190030" d="M-5131.724,55.919a.961.961,0,0,1-.989.934.978.978,0,0,1-.906-.96.972.972,0,0,1,1-.934A.963.963,0,0,1-5131.724,55.919Z" transform="translate(-255.536 -292.023)" fill="#7a8c99"/>
        <path id="Trazado_190031" data-name="Trazado 190031" d="M-5266.13-93.225a2,2,0,0,1,1.978,1.2,2.07,2.07,0,0,1-.534,2.471,1.235,1.235,0,0,0-.449,1.089,2.682,2.682,0,0,1-.178,1.485.843.843,0,0,1-1,.465.873.873,0,0,1-.711-.853,7.439,7.439,0,0,1,0-.76,1.471,1.471,0,0,0-.63-1.509,1.987,1.987,0,0,1-.472-2.258A1.9,1.9,0,0,1-5266.13-93.225Z" transform="translate(-143.72 -168.981)" fill="#798b98"/>
        <path id="Trazado_190032" data-name="Trazado 190032" d="M-5271.048-158.529l-7.742,0c.01-.675-.021-1.354.036-2.025a3.851,3.851,0,0,1,4.535-3.424,3.081,3.081,0,0,1,2.778,1.793A4.571,4.571,0,0,1-5271.048-158.529Z" transform="translate(-134.995 -110.187)" fill="#f6f3f3"/>
        <path id="Trazado_190033" data-name="Trazado 190033" d="M-5248.68-158.917a17.65,17.65,0,0,0-.042-2.085,3.768,3.768,0,0,0-3.128-3.365,4.054,4.054,0,0,1,5.067,3.8c0,.547,0,1.095,0,1.642Z" transform="translate(-157.363 -109.799)" fill="#fba34c"/>
      </g>
    </g>
  </g>
</svg>
