<svg xmlns="http://www.w3.org/2000/svg" width="1030.457" height="752.401" viewBox="0 0 1030.457 752.401">
  <g id="Grupo_124757" data-name="Grupo 124757" transform="translate(7041.957 13227)">
    <g id="Grupo_124752" data-name="Grupo 124752" transform="translate(-7041.957 -13227)">
      <path id="Trazado_169727" data-name="Trazado 169727" d="M1879.8-2057.963a.89.89,0,0,1,1.353-.739l12.507,7.442a.853.853,0,0,1,0,1.476l-4.355,2.592-8.151,4.849a.89.89,0,0,1-1.353-.738v-14.882Z" transform="translate(-864.123 2251.785)" fill="#9da1d8" stroke="#fff" stroke-linejoin="round" stroke-width="1" fill-rule="evenodd"/>
      <path id="Trazado_169696" data-name="Trazado 169696" d="M1382.591-1246.6a2.772,2.772,0,0,1-2.431-1.642,9.412,9.412,0,0,1-.83-4.217c.215-5.86,5.846-10.418,12.568-10.172a13.809,13.809,0,0,1,3.723.649,14.9,14.9,0,0,1,14.663-9.708,15.071,15.071,0,0,1,12.216,6.924,15.479,15.479,0,0,1,2.964-.175,14.957,14.957,0,0,1,13.511,9.519,10,10,0,0,1,6.437-2.026,9.8,9.8,0,0,1,9.545,10.037,9.516,9.516,0,0,1-.117,1.18,2.565,2.565,0,0,1-2.628,2.164c-10.518-.368-60.231-2.189-69.62-2.533Z" transform="translate(-532.876 1730.806)" fill="#e9eef4" fill-rule="evenodd"/>
      <path id="Trazado_169697" data-name="Trazado 169697" d="M328.863-2541.673a3.925,3.925,0,0,1-3.374-2.181,16.306,16.306,0,0,1-1.726-7.9c.37-10.1,10.077-17.958,21.663-17.533a23.788,23.788,0,0,1,6.417,1.117,25.677,25.677,0,0,1,25.274-16.734,25.979,25.979,0,0,1,21.056,11.936,26.714,26.714,0,0,1,5.109-.3,25.779,25.779,0,0,1,23.29,16.408,17.24,17.24,0,0,1,11.1-3.492,16.891,16.891,0,0,1,16.451,17.3,16.2,16.2,0,0,1-.383,2.966,3.627,3.627,0,0,1-3.67,2.824c-16.73-.583-106.249-3.863-121.2-4.411Z" transform="translate(165.775 2599.988)" fill="#e9eef4" fill-rule="evenodd"/>
      <path id="Trazado_169698" data-name="Trazado 169698" d="M545.7-699.069a3.421,3.421,0,0,1-2.941-1.9,14.219,14.219,0,0,1-1.505-6.886c.323-8.808,8.786-15.658,18.889-15.288a20.75,20.75,0,0,1,5.6.975,22.387,22.387,0,0,1,22.037-14.591,22.649,22.649,0,0,1,18.359,10.407,23.262,23.262,0,0,1,4.455-.263,22.478,22.478,0,0,1,20.307,14.307,15.032,15.032,0,0,1,9.674-3.045,14.728,14.728,0,0,1,14.345,15.084,14.086,14.086,0,0,1-.333,2.586,3.162,3.162,0,0,1-3.2,2.462c-14.588-.509-92.642-3.368-105.682-3.846Z" transform="translate(21.827 1376.756)" fill="#e9eef4" fill-rule="evenodd"/>
      <path id="Trazado_169699" data-name="Trazado 169699" d="M-1119.837-1843.9a2.773,2.773,0,0,1-2.419-1.391,12.873,12.873,0,0,1-1.744-6.377c-.044-7.967,7.338-14.476,16.476-14.528a18.762,18.762,0,0,1,5.09.667,20.236,20.236,0,0,1,19.346-14.018,20.474,20.474,0,0,1,16.979,8.7,21,21,0,0,1,4.013-.407,20.318,20.318,0,0,1,18.885,12.146,13.587,13.587,0,0,1,8.622-3.119,13.313,13.313,0,0,1,13.531,13.076,12.735,12.735,0,0,1-.264,2.666,2.562,2.562,0,0,1-2.492,2.029c-12.612.091-84.743.495-96.022.558Z" transform="translate(1124 2133.125)" fill="#e9eef4" fill-rule="evenodd"/>
      <path id="Trazado_169700" data-name="Trazado 169700" d="M-739.972-2233.592a.681.681,0,0,1,1.035-.565l9.57,5.695a.652.652,0,0,1,0,1.129l-3.333,1.983-6.237,3.711a.681.681,0,0,1-1.035-.564v-11.387Z" transform="translate(869.823 2367.893)" fill="#242ca3" fill-rule="evenodd"/>
      <path id="Trazado_169701" data-name="Trazado 169701" d="M-539.475-2233.592a.681.681,0,0,1,1.035-.565l9.57,5.695a.652.652,0,0,1,0,1.129l-3.333,1.983-6.237,3.711a.68.68,0,0,1-1.035-.564v-11.387Z" transform="translate(737.12 2367.893)" fill="#242ca3" fill-rule="evenodd"/>
      <path id="Trazado_169702" data-name="Trazado 169702" d="M-639.638-2233.592a.681.681,0,0,1,1.035-.565l9.57,5.695a.652.652,0,0,1,0,1.129l-3.333,1.983-6.237,3.711a.681.681,0,0,1-1.035-.564v-11.387Z" transform="translate(803.415 2367.893)" fill="#242ca3" fill-rule="evenodd"/>
      <path id="Trazado_169703" data-name="Trazado 169703" d="M-439.142-2233.592a.681.681,0,0,1,1.035-.565l9.57,5.695a.653.653,0,0,1,0,1.129l-3.333,1.983-6.237,3.711a.68.68,0,0,1-1.035-.564v-11.387Z" transform="translate(670.713 2367.893)" fill="#242ca3" fill-rule="evenodd"/>
      <path id="Trazado_169704" data-name="Trazado 169704" d="M-789.71-2233.592a.681.681,0,0,1,1.035-.565l9.57,5.695a.652.652,0,0,1,0,1.129l-3.333,1.983-6.237,3.711a.681.681,0,0,1-1.035-.564v-11.387Z" transform="translate(902.743 2367.893)" fill="#242ca3" fill-rule="evenodd"/>
      <path id="Trazado_169705" data-name="Trazado 169705" d="M-589.213-2233.592a.681.681,0,0,1,1.035-.565l9.57,5.695a.653.653,0,0,1,0,1.129l-3.333,1.983-6.237,3.711a.681.681,0,0,1-1.035-.564v-11.387Z" transform="translate(770.04 2367.893)" fill="#242ca3" fill-rule="evenodd"/>
      <path id="Trazado_169706" data-name="Trazado 169706" d="M-689.377-2233.592a.681.681,0,0,1,1.035-.565l9.57,5.695a.652.652,0,0,1,0,1.129l-3.333,1.983-6.237,3.711a.681.681,0,0,1-1.035-.564v-11.387Z" transform="translate(836.336 2367.893)" fill="#242ca3" fill-rule="evenodd"/>
      <path id="Trazado_169707" data-name="Trazado 169707" d="M-488.88-2233.592a.681.681,0,0,1,1.035-.565l9.57,5.695a.653.653,0,0,1,0,1.129l-3.333,1.983-6.237,3.711a.681.681,0,0,1-1.035-.564v-11.387Z" transform="translate(703.633 2367.893)" fill="#242ca3" fill-rule="evenodd"/>
      <path id="Trazado_169708" data-name="Trazado 169708" d="M1467.464-1079.391a.627.627,0,0,1,.954-.521l8.816,5.246a.6.6,0,0,1,0,1.04l-3.071,1.827-5.746,3.419a.627.627,0,0,1-.954-.52v-10.491Z" transform="translate(-591.214 1603.928)" fill="#9da1d8" stroke="#fff" stroke-linejoin="round" stroke-width="1" fill-rule="evenodd"/>
      <path id="Trazado_169709" data-name="Trazado 169709" d="M1652.185-1079.391a.627.627,0,0,1,.954-.521l8.817,5.246a.6.6,0,0,1,0,1.04l-3.071,1.827-5.746,3.419a.627.627,0,0,1-.954-.52v-10.491Z" transform="translate(-713.475 1603.928)" fill="#9da1d8" stroke="#fff" stroke-linejoin="round" stroke-width="1" fill-rule="evenodd"/>
      <path id="Trazado_169710" data-name="Trazado 169710" d="M1559.9-1079.391a.627.627,0,0,1,.954-.521l8.817,5.246a.6.6,0,0,1,0,1.04l-3.071,1.827-5.746,3.419a.627.627,0,0,1-.954-.52v-10.491Z" transform="translate(-652.396 1603.928)" fill="#9da1d8" stroke="#fff" stroke-linejoin="round" stroke-width="1" fill-rule="evenodd"/>
      <path id="Trazado_169711" data-name="Trazado 169711" d="M1744.624-1079.391a.627.627,0,0,1,.954-.521l8.817,5.246a.6.6,0,0,1,0,1.04l-3.071,1.827-5.745,3.419a.627.627,0,0,1-.954-.52v-10.491Z" transform="translate(-774.658 1603.928)" fill="#9da1d8" stroke="#fff" stroke-linejoin="round" stroke-width="1" fill-rule="evenodd"/>
      <path id="Trazado_169712" data-name="Trazado 169712" d="M1421.64-1079.391a.627.627,0,0,1,.953-.521l8.817,5.246a.6.6,0,0,1,0,1.04l-3.071,1.827-5.746,3.419a.627.627,0,0,1-.953-.52v-10.491Z" transform="translate(-560.884 1603.928)" fill="#9da1d8" stroke="#fff" stroke-linejoin="round" stroke-width="1" fill-rule="evenodd"/>
      <path id="Trazado_169713" data-name="Trazado 169713" d="M1606.361-1079.391a.627.627,0,0,1,.953-.521l8.816,5.246a.6.6,0,0,1,0,1.04l-3.07,1.827-5.746,3.419a.627.627,0,0,1-.953-.52v-10.491Z" transform="translate(-683.145 1603.928)" fill="#9da1d8" stroke="#fff" stroke-linejoin="round" stroke-width="1" fill-rule="evenodd"/>
      <path id="Trazado_169714" data-name="Trazado 169714" d="M1514.079-1079.391a.627.627,0,0,1,.953-.521l8.817,5.246a.6.6,0,0,1,0,1.04l-3.071,1.827-5.746,3.419a.627.627,0,0,1-.953-.52v-10.491Z" transform="translate(-622.066 1603.928)" fill="#9da1d8" stroke="#fff" stroke-linejoin="round" stroke-width="1" fill-rule="evenodd"/>
      <path id="Trazado_169715" data-name="Trazado 169715" d="M1698.8-1079.391a.627.627,0,0,1,.953-.521l8.817,5.246a.6.6,0,0,1,0,1.04l-3.07,1.827-5.746,3.419a.627.627,0,0,1-.953-.52v-10.491Z" transform="translate(-744.328 1603.928)" fill="#9da1d8" stroke="#fff" stroke-linejoin="round" stroke-width="1" fill-rule="evenodd"/>
      <path id="Trazado_169716" data-name="Trazado 169716" d="M-365.733-740.617a.562.562,0,0,1,.854-.467l7.9,4.7a.539.539,0,0,1,0,.933l-2.753,1.638-5.152,3.065a.562.562,0,0,1-.854-.467v-9.405Z" transform="translate(622.125 1379.661)" fill="#f15d2b" fill-rule="evenodd"/>
      <path id="Trazado_169717" data-name="Trazado 169717" d="M-200.128-740.617a.563.563,0,0,1,.855-.467l7.9,4.7a.539.539,0,0,1,0,.933l-2.753,1.638-5.151,3.065a.562.562,0,0,1-.855-.467v-9.405Z" transform="translate(512.516 1379.661)" fill="#f15d2b" fill-rule="evenodd"/>
      <path id="Trazado_169718" data-name="Trazado 169718" d="M-282.86-740.617a.562.562,0,0,1,.855-.467l7.9,4.7a.539.539,0,0,1,0,.933l-2.753,1.638-5.151,3.065a.562.562,0,0,1-.855-.467v-9.405Z" transform="translate(567.274 1379.661)" fill="#f15d2b" fill-rule="evenodd"/>
      <path id="Trazado_169719" data-name="Trazado 169719" d="M-117.255-740.617a.562.562,0,0,1,.855-.467l7.9,4.7a.539.539,0,0,1,0,.933l-2.753,1.638-5.152,3.065a.562.562,0,0,1-.855-.467v-9.405Z" transform="translate(457.665 1379.661)" fill="#f15d2b" fill-rule="evenodd"/>
      <path id="Trazado_169720" data-name="Trazado 169720" d="M-406.816-740.617a.563.563,0,0,1,.855-.467l7.9,4.7a.539.539,0,0,1,0,.933l-2.753,1.638-5.151,3.065a.562.562,0,0,1-.855-.467v-9.405Z" transform="translate(649.317 1379.661)" fill="#f15d2b" fill-rule="evenodd"/>
      <path id="Trazado_169721" data-name="Trazado 169721" d="M-241.21-740.617a.562.562,0,0,1,.855-.467l7.9,4.7a.539.539,0,0,1,0,.933l-2.753,1.638-5.151,3.065a.562.562,0,0,1-.855-.467v-9.405Z" transform="translate(539.708 1379.661)" fill="#f15d2b" fill-rule="evenodd"/>
      <path id="Trazado_169722" data-name="Trazado 169722" d="M-323.943-740.617a.563.563,0,0,1,.855-.467l7.9,4.7a.539.539,0,0,1,0,.933l-2.753,1.638-5.151,3.065a.562.562,0,0,1-.855-.467v-9.405Z" transform="translate(594.466 1379.661)" fill="#f15d2b" fill-rule="evenodd"/>
      <path id="Trazado_169723" data-name="Trazado 169723" d="M-158.337-740.617a.562.562,0,0,1,.854-.467l7.9,4.7a.539.539,0,0,1,0,.933l-2.753,1.638-5.152,3.065a.562.562,0,0,1-.854-.467v-9.405Z" transform="translate(484.856 1379.661)" fill="#f15d2b" fill-rule="evenodd"/>
      <path id="Trazado_169724" data-name="Trazado 169724" d="M1486.642-2057.963a.89.89,0,0,1,1.353-.739l12.506,7.442a.852.852,0,0,1,0,1.476l-4.355,2.592-8.151,4.849a.89.89,0,0,1-1.353-.738v-14.882Z" transform="translate(-603.906 2251.785)" fill="#9da1d8" stroke="#fff" stroke-linejoin="round" stroke-width="1" fill-rule="evenodd"/>
      <path id="Trazado_169725" data-name="Trazado 169725" d="M1748.67-2057.963a.89.89,0,0,1,1.353-.739l12.507,7.442a.853.853,0,0,1,0,1.476l-4.356,2.592-8.151,4.849a.89.89,0,0,1-1.353-.738v-14.882Z" transform="translate(-777.335 2251.785)" fill="#9da1d8" stroke="#fff" stroke-linejoin="round" stroke-width="1" fill-rule="evenodd"/>
      <path id="Trazado_169726" data-name="Trazado 169726" d="M1617.768-2057.963a.89.89,0,0,1,1.353-.739l12.507,7.442a.853.853,0,0,1,0,1.476l-4.356,2.592-8.151,4.849a.89.89,0,0,1-1.353-.738v-14.882Z" transform="translate(-690.695 2251.785)" fill="#9da1d8" stroke="#fff" stroke-linejoin="round" stroke-width="1" fill-rule="evenodd"/>
      <path id="Trazado_169728" data-name="Trazado 169728" d="M1421.64-2057.963a.89.89,0,0,1,1.353-.739l12.506,7.442a.852.852,0,0,1,0,1.476l-4.356,2.592-8.151,4.849a.89.89,0,0,1-1.353-.738v-14.882Z" transform="translate(-560.884 2251.785)" fill="#9da1d8" stroke="#fff" stroke-linejoin="round" stroke-width="1" fill-rule="evenodd"/>
      <path id="Trazado_169729" data-name="Trazado 169729" d="M1683.668-2057.963a.89.89,0,0,1,1.352-.739l12.508,7.442a.853.853,0,0,1,0,1.476l-4.356,2.592-8.151,4.849a.889.889,0,0,1-1.352-.738v-14.882Z" transform="translate(-734.313 2251.785)" fill="#9da1d8" stroke="#fff" stroke-linejoin="round" stroke-width="1" fill-rule="evenodd"/>
      <path id="Trazado_169730" data-name="Trazado 169730" d="M1552.766-2057.963a.889.889,0,0,1,1.352-.739l12.507,7.442a.852.852,0,0,1,0,1.476l-4.355,2.592-8.151,4.849a.889.889,0,0,1-1.352-.738v-14.882Z" transform="translate(-647.672 2251.785)" fill="#9da1d8" stroke="#fff" stroke-linejoin="round" stroke-width="1" fill-rule="evenodd"/>
      <path id="Trazado_169731" data-name="Trazado 169731" d="M1814.793-2057.963a.89.89,0,0,1,1.353-.739l12.507,7.442a.853.853,0,0,1,0,1.476l-4.356,2.592-8.151,4.849a.89.89,0,0,1-1.353-.738v-14.882Z" transform="translate(-821.1 2251.785)" fill="#9da1d8" stroke="#fff" stroke-linejoin="round" stroke-width="1" fill-rule="evenodd"/>
      <path id="Trazado_169732" data-name="Trazado 169732" d="M-214.672-2032.9c-20.037,10.748-61.665,6.979-76.67,5.093-172.317-21.657-176.194-303.339,16.62-305.5,232.549-2.6,196.33,283.231,60.05,300.405Zm159.029-320.563c-9.079,4.87-27.943,3.162-34.742,2.308-78.083-9.814-79.84-137.454,7.531-138.432,105.377-1.18,88.964,128.342,27.211,136.124Zm-491.03,157.289c-9.08,4.87-27.942,3.162-34.742,2.307-78.083-9.813-79.84-137.454,7.531-138.432,105.376-1.18,88.964,128.342,27.211,136.125Z" transform="translate(803.464 2536.898)" fill="none" stroke="#cb980c" stroke-linecap="round" stroke-linejoin="round" stroke-dashoffset="84.87" stroke-width="5" stroke-dasharray="34.985 42.63 0 0"/>
      <path id="Trazado_169733" data-name="Trazado 169733" d="M-85.792-2394.287c-8.014,4.3-24.663,2.791-30.665,2.036-68.919-8.661-70.47-121.323,6.647-122.186,93.01-1.041,78.523,113.281,24.017,120.15ZM384.98-2155.2c-8.484,4.551-26.11,2.955-32.463,2.156-72.962-9.17-74.6-128.439,7.037-129.354,98.466-1.1,83.13,119.926,25.426,127.2Zm-390.5,301.052c-8.291,4.447-25.514,2.887-31.723,2.107-71.3-8.961-72.9-125.507,6.877-126.4,96.218-1.078,81.232,117.188,24.846,124.293Z" transform="translate(491.195 2553.342)" fill="none" stroke="#cb980c" stroke-linecap="round" stroke-linejoin="round" stroke-dashoffset="84.87" stroke-width="5" stroke-dasharray="34.985 42.63 0 0"/>
      <path id="Trazado_169734" data-name="Trazado 169734" d="M-521.826-1162.025c-9.75,5.23-30.009,3.4-37.311,2.478-83.856-10.539-85.743-147.617,8.088-148.668,113.168-1.267,95.542,137.833,29.222,146.19Zm517.669,44.2c-7.755,4.128-23.846,2.719-29.646,2.01a53.729,53.729,0,0,1-37.688-21.764C-96.3-1171.167-83.04-1231.965-27.13-1232.7c89.91-1.185,75.675,108.194,22.972,114.875Z" transform="translate(791.573 1754.98)" fill="none" stroke="#febf10" stroke-linecap="round" stroke-linejoin="round" stroke-dashoffset="84.87" stroke-width="8" stroke-dasharray="34.985 42.63 0 0"/>
      <path id="Trazado_169735" data-name="Trazado 169735" d="M-933.427-1644.455l-9.8-6.489.691,11.736a8,8,0,0,1,9.112-5.247Z" transform="translate(1004.354 1981.817)" fill="#164d8c" fill-rule="evenodd"/>
      <path id="Trazado_169736" data-name="Trazado 169736" d="M-930.816-1629.385c10.033,16.1,38.075,53.954,84.377,62.88,41.4,7.982,80.449-6.421,121.98,5.517,154.816,44.5,66.456,191.229,66.456,191.229" transform="translate(996.137 1967.547)" fill="none" stroke="#987209" stroke-linecap="round" stroke-linejoin="round" stroke-dashoffset="84.87" stroke-width="10.366" stroke-dasharray="34.985 42.63 0 0"/>
      <path id="Trazado_169737" data-name="Trazado 169737" d="M1391.718-2228.268l10.117-5.987-1.281,11.686a8,8,0,0,0-8.837-5.7Z" transform="translate(-541.08 2367.893)" fill="#14a59a" fill-rule="evenodd"/>
      <path id="Trazado_169738" data-name="Trazado 169738" d="M478.3-2397.694s29.774,3.987,68.1,43.617c15.68,16.214,6.25,55.172,41.412,79.948,63.4,44.676,111.464,26.533,146.661.606,28.986-21.352,49.577-49.033,58.238-61.838" transform="translate(63.483 2476.068)" fill="none" stroke="#987209" stroke-linecap="round" stroke-linejoin="round" stroke-dashoffset="84.87" stroke-width="10.366" stroke-dasharray="34.985 42.63 0 0"/>
      <path id="Trazado_169739" data-name="Trazado 169739" d="M1333.833-1153.62l4.561,10.835-11.405-2.852a8,8,0,0,0,6.844-7.983Z" transform="translate(-498.237 1652.652)" fill="#164d8c" fill-rule="evenodd"/>
      <path id="Trazado_169740" data-name="Trazado 169740" d="M890.507-1021.558S771.629-1118.42,867.1-1190.539c62.253-47.028,117.646-12.314,135.96,2.089" transform="translate(-169.287 1692.843)" fill="none" stroke="#987209" stroke-linecap="round" stroke-linejoin="round" stroke-dashoffset="84.87" stroke-width="10.366" stroke-dasharray="34.985 42.63 0 0"/>
      <path id="Trazado_169741" data-name="Trazado 169741" d="M738.938-1869.51a178.107,178.107,0,0,0,2.374-80.436,179.078,179.078,0,0,0-129.1-137.363l-3.595,12.973a165.646,165.646,0,0,1,119.419,127.061,164.735,164.735,0,0,1-2.2,74.4l13.1,3.362Z" transform="translate(-22.767 2270.634)" fill="#febf10" fill-rule="evenodd"/>
      <path id="Trazado_169742" data-name="Trazado 169742" d="M103.478-1214.465a178.094,178.094,0,0,0,68.369,42.441,179.071,179.071,0,0,0,183.2-42.261l-9.382-9.654A165.641,165.641,0,0,1,176.2-1184.848a164.737,164.737,0,0,1-63.241-39.258l-9.485,9.641Z" transform="translate(311.569 1699.306)" fill="#febf10" fill-rule="evenodd"/>
      <path id="Trazado_169743" data-name="Trazado 169743" d="M76.106-2088.651a178.1,178.1,0,0,0-70.655,38.516,179.067,179.067,0,0,0-53.76,179.807l13.035-3.367a165.637,165.637,0,0,1,49.728-166.321,164.745,164.745,0,0,1,65.355-35.627l-3.7-13.007Z" transform="translate(416.024 2271.522)" fill="#febf10" fill-rule="evenodd"/>
      <path id="Trazado_169744" data-name="Trazado 169744" d="M422.3-2167.852a28.2,28.2,0,0,1,28.191,28.191,28.2,28.2,0,0,1-28.191,28.19,28.2,28.2,0,0,1-28.191-28.19,28.2,28.2,0,0,1,28.191-28.191Z" transform="translate(119.211 2323.942)" fill="#242ca3" fill-rule="evenodd"/>
      <path id="Trazado_169745" data-name="Trazado 169745" d="M441.8-2135.352a17.209,17.209,0,0,1,17.2,17.2,17.209,17.209,0,0,1-17.2,17.2,17.209,17.209,0,0,1-17.2-17.2,17.209,17.209,0,0,1,17.2-17.2Z" transform="translate(99.027 2302.431)" fill="#9da1d8" fill-rule="evenodd"/>
      <path id="Trazado_169746" data-name="Trazado 169746" d="M872.836-1394.857a28.2,28.2,0,0,1,28.19,28.191,28.2,28.2,0,0,1-28.19,28.191,28.2,28.2,0,0,1-28.191-28.191,28.2,28.2,0,0,1,28.191-28.191Z" transform="translate(-178.988 1812.32)" fill="#164d8c" fill-rule="evenodd"/>
      <path id="Trazado_169747" data-name="Trazado 169747" d="M894.348-1362.356a17.209,17.209,0,0,1,17.2,17.2,17.209,17.209,0,0,1-17.2,17.2,17.21,17.21,0,0,1-17.2-17.2,17.21,17.21,0,0,1,17.2-17.2Z" transform="translate(-200.5 1790.809)" fill="#9da1d8" fill-rule="evenodd"/>
      <path id="Trazado_169748" data-name="Trazado 169748" d="M-30.081-1394.857a28.2,28.2,0,0,1,28.19,28.191,28.2,28.2,0,0,1-28.19,28.191,28.2,28.2,0,0,1-28.191-28.191,28.2,28.2,0,0,1,28.191-28.191Z" transform="translate(418.626 1812.32)" fill="#242ca3" fill-rule="evenodd"/>
      <path id="Trazado_169749" data-name="Trazado 169749" d="M-8.57-1362.356a17.209,17.209,0,0,1,17.2,17.2,17.209,17.209,0,0,1-17.2,17.2,17.209,17.209,0,0,1-17.2-17.2,17.209,17.209,0,0,1,17.2-17.2Z" transform="translate(397.115 1790.809)" fill="#9da1d8" fill-rule="evenodd"/>
      <path id="Trazado_169750" data-name="Trazado 169750" d="M184.049,106.075a92.518,92.518,0,1,0-16.008,39.908L157.327,138.4a79.389,79.389,0,1,1,13.737-34.246l12.984,1.922Z" transform="matrix(-0.996, -0.087, 0.087, -0.996, 319.956, 374.636)" fill="#febf10" fill-rule="evenodd"/>
      <path id="Trazado_169751" data-name="Trazado 169751" d="M12.295.1a13.917,13.917,0,1,0,15.446,12.2A13.925,13.925,0,0,0,12.295.1Z" transform="matrix(-0.996, -0.087, 0.087, -0.996, 170.98, 250.393)" fill="#164d8c" fill-rule="evenodd"/>
      <path id="Trazado_169752" data-name="Trazado 169752" d="M7.5.059A8.492,8.492,0,1,0,16.927,7.5,8.5,8.5,0,0,0,7.5.059Z" transform="matrix(-0.996, -0.087, 0.087, -0.996, 165.713, 244.525)" fill="#ff004c" fill-rule="evenodd"/>
      <path id="Trazado_169753" data-name="Trazado 169753" d="M3.186,116.074a92.062,92.062,0,1,1,20.454,37.581l9.707-8.739A78.992,78.992,0,1,0,15.8,112.668L3.186,116.074Z" transform="translate(842.887 174.092) rotate(161)" fill="#febf10" fill-rule="evenodd"/>
      <path id="Trazado_169754" data-name="Trazado 169754" d="M13.848,0A13.849,13.849,0,1,1,0,13.849,13.855,13.855,0,0,1,13.848,0Z" transform="translate(801.881 61.961) rotate(161)" fill="#164d8c" fill-rule="evenodd"/>
      <path id="Trazado_169755" data-name="Trazado 169755" d="M8.45,0A8.45,8.45,0,1,1,0,8.45,8.454,8.454,0,0,1,8.45,0Z" transform="translate(795.334 58.506) rotate(161)" fill="#f9e424" fill-rule="evenodd"/>
      <path id="Trazado_169756" data-name="Trazado 169756" d="M1040.246-1001.6a78.428,78.428,0,0,0,17.323-17.615,78.465,78.465,0,0,0-18.386-109.379A78.465,78.465,0,0,0,929.8-1110.209a78.464,78.464,0,0,0,18.386,109.378,78.427,78.427,0,0,0,58.5,13.46l-1.844-10.973a67.3,67.3,0,0,1-50.2-11.55,67.333,67.333,0,0,1-15.778-93.861,67.332,67.332,0,0,1,93.86-15.778,67.332,67.332,0,0,1,15.778,93.86,67.3,67.3,0,0,1-14.866,15.116l6.606,8.954Z" transform="translate(-225.73 1645.712)" fill="#febf10" fill-rule="evenodd"/>
      <path id="Trazado_169757" data-name="Trazado 169757" d="M1200.746-744.993a11.8,11.8,0,0,0-2.124,16.549,11.8,11.8,0,0,0,16.55,2.123,11.8,11.8,0,0,0,2.123-16.549,11.8,11.8,0,0,0-16.549-2.123Z" transform="translate(-411.648 1383.823)" fill="#164d8c" fill-rule="evenodd"/>
      <path id="Trazado_169758" data-name="Trazado 169758" d="M1213.225-732.865a7.2,7.2,0,0,0-1.3,10.1,7.2,7.2,0,0,0,10.1,1.3,7.2,7.2,0,0,0,1.3-10.1,7.2,7.2,0,0,0-10.1-1.3Z" transform="translate(-421.089 1375.161)" fill="#ff004c" fill-rule="evenodd"/>
      <path id="Trazado_169759" data-name="Trazado 169759" d="M-676.569-1318.266a97.163,97.163,0,0,1,16.925-25.5,97.2,97.2,0,0,1,137.285-5.671,97.2,97.2,0,0,1,5.671,137.285,97.2,97.2,0,0,1-137.285,5.671,97.157,97.157,0,0,1-31.268-67.468l13.773-.569a83.373,83.373,0,0,0,26.832,57.9,83.414,83.414,0,0,0,117.808-4.866,83.414,83.414,0,0,0-4.866-117.808,83.414,83.414,0,0,0-117.808,4.866,83.372,83.372,0,0,0-14.524,21.884l-12.542-5.719Z" transform="translate(833.598 1799.244)" fill="#bec6d0" fill-rule="evenodd"/>
      <path id="Trazado_169760" data-name="Trazado 169760" d="M-675.825-1160.948a14.622,14.622,0,0,1-19.518,6.8,14.623,14.623,0,0,1-6.8-19.518,14.622,14.622,0,0,1,19.518-6.8,14.623,14.623,0,0,1,6.8,19.517Z" transform="translate(845.751 1671.385)" fill="#242ca3" fill-rule="evenodd"/>
      <path id="Trazado_169761" data-name="Trazado 169761" d="M-669.349-1153.209a8.923,8.923,0,0,1-11.909,4.152,8.922,8.922,0,0,1-4.152-11.909,8.923,8.923,0,0,1,11.909-4.152,8.922,8.922,0,0,1,4.152,11.909Z" transform="translate(834.299 1660.851)" fill="#f9e424" fill-rule="evenodd"/>
      <path id="Trazado_169762" data-name="Trazado 169762" d="M157.518,46.816a82.885,82.885,0,1,1-24.365-29.838l-7.13,9.351a71.125,71.125,0,1,0,20.908,25.6l10.588-5.117Z" transform="matrix(-0.839, 0.545, -0.545, -0.839, 580.021, 662.108)" fill="#febf10" fill-rule="evenodd"/>
      <path id="Trazado_169763" data-name="Trazado 169763" d="M3.705,3.594a12.468,12.468,0,1,1-.111,17.633A12.474,12.474,0,0,1,3.705,3.594Z" transform="matrix(-0.839, 0.545, -0.545, -0.839, 459.591, 714.627)" fill="#242ca3" fill-rule="evenodd"/>
      <path id="Trazado_169764" data-name="Trazado 169764" d="M2.261,2.193a7.608,7.608,0,1,1-.068,10.759A7.611,7.611,0,0,1,2.261,2.193Z" transform="matrix(-0.839, 0.545, -0.545, -0.839, 452.933, 712.904)" fill="#f15d2b" fill-rule="evenodd"/>
      <path id="Trazado_169765" data-name="Trazado 169765" d="M-213.147-2519.84a79.761,79.761,0,0,1,13.01-21.5,79.813,79.813,0,0,1,112.43-9.362,79.813,79.813,0,0,1,9.362,112.43,79.813,79.813,0,0,1-112.43,9.362,79.774,79.774,0,0,1-27.966-54.276l11.279-.939a68.457,68.457,0,0,0,24,46.576,68.489,68.489,0,0,0,96.479-8.034,68.49,68.49,0,0,0-8.033-96.479,68.489,68.489,0,0,0-96.479,8.034,68.451,68.451,0,0,0-11.165,18.451l-10.485-4.261Z" transform="translate(524.836 2589.827)" fill="#bec6d0" fill-rule="evenodd"/>
      <path id="Trazado_169766" data-name="Trazado 169766" d="M-223.951-2376.95a12.006,12.006,0,0,1-11.3-12.666,12.006,12.006,0,0,1,12.666-11.3,12.006,12.006,0,0,1,11.3,12.666,12.006,12.006,0,0,1-12.666,11.3Z" transform="translate(535.774 2478.211)" fill="#164d8c" fill-rule="evenodd"/>
      <path id="Trazado_169767" data-name="Trazado 169767" d="M-213.674-2372.414a7.326,7.326,0,0,1-6.893-7.728,7.326,7.326,0,0,1,7.728-6.893,7.326,7.326,0,0,1,6.893,7.728,7.326,7.326,0,0,1-7.729,6.893Z" transform="translate(526.052 2469.022)" fill="#febf10" fill-rule="evenodd"/>
      <path id="Trazado_169768" data-name="Trazado 169768" d="M1299.824-1863.426a87.468,87.468,0,0,0-21.392-17.373,87.52,87.52,0,0,0-119.508,31.981,87.521,87.521,0,0,0,31.981,119.509,87.52,87.52,0,0,0,119.508-31.981,87.48,87.48,0,0,0,8.761-66.378l-11.989,3.208a75.068,75.068,0,0,1-7.517,56.96,75.1,75.1,0,0,1-102.553,27.444,75.1,75.1,0,0,1-27.444-102.553,75.1,75.1,0,0,1,102.553-27.444,75.076,75.076,0,0,1,18.357,14.908l9.244-8.281Z" transform="translate(-379.232 2141.718)" fill="#bec6d0" fill-rule="evenodd"/>
      <path id="Trazado_169769" data-name="Trazado 169769" d="M1596.616-1760.311a13.165,13.165,0,0,0,6.968-17.257,13.166,13.166,0,0,0-17.257-6.968,13.166,13.166,0,0,0-6.968,17.257,13.166,13.166,0,0,0,17.257,6.967Z" transform="translate(-664.58 2070.931)" fill="#164d8c" fill-rule="evenodd"/>
      <path id="Trazado_169770" data-name="Trazado 169770" d="M1603.791-1754.623a8.034,8.034,0,0,0,4.252-10.53,8.034,8.034,0,0,0-10.53-4.251,8.033,8.033,0,0,0-4.251,10.53,8.033,8.033,0,0,0,10.53,4.251Z" transform="translate(-674.051 2060.646)" fill="#febf10" fill-rule="evenodd"/>
      <path id="Trazado_169771" data-name="Trazado 169771" d="M-418.023-1218.7h-33.552v-33.552H-419.2v2.35h-30.026v28.851h28.851v-18.863h2.35v21.213Z" transform="translate(678.941 1717.932)" fill="#162b87"/>
      <path id="Trazado_169772" data-name="Trazado 169772" d="M-420.309-984.027H-453.86v-33.552h33.551v33.552Zm-31.2-2.35h28.882v-28.882H-451.51v28.882Z" transform="translate(680.454 1562.611)" fill="#162b87"/>
      <path id="Trazado_169773" data-name="Trazado 169773" d="M-416.155-1227.044l-8.349-8.349,3.309-3.309,4.731,4.731,19.142-22.759,3.587,3.03-22.419,26.656Z" transform="translate(661.024 1720.899)" fill="#162b87"/>
      <path id="Trazado_169774" data-name="Trazado 169774" d="M-418.023-1101.729h-33.552v-33.552H-419.2v2.35h-30.026v28.882h28.851v-18.863h2.35v21.182Z" transform="translate(678.941 1640.514)" fill="#162b87"/>
      <path id="Trazado_169775" data-name="Trazado 169775" d="M-416.155-1110.015l-8.349-8.349,3.309-3.309,4.731,4.762,19.142-22.759,3.587,3-22.419,26.656Z" transform="translate(661.024 1643.42)" fill="#162b87"/>
      <path id="Trazado_169776" data-name="Trazado 169776" d="M-17.031-2388.179l-5.408-13.082,4.9-2.034,2.358,5.709,10.007-10.031,9.869-9.915,3.767,3.744-25.493,25.608Z" transform="translate(394.91 2489.198)" fill="#febf10"/>
      <path id="Trazado_169777" data-name="Trazado 169777" d="M-14.014-2276.729l-2.889,8.9-7.28,22.442a1.255,1.255,0,0,1-2.311.185l-3.513-6.887a1.264,1.264,0,0,0-1.687-.555l-6.888,3.513a1.249,1.249,0,0,1-1.756-1.5l8.69-26.856c.046-.023.116-.046.162-.069a5.623,5.623,0,0,1,2.288-.463,5.953,5.953,0,0,1,4.715,2.334,5.875,5.875,0,0,0,4.692,2.334,4.637,4.637,0,0,0,.971-.092,5.875,5.875,0,0,0,3.721-2.242,11.513,11.513,0,0,1,1.086-1.04Z" transform="translate(406.799 2396.862)" fill="#939eac"/>
      <path id="Trazado_169778" data-name="Trazado 169778" d="M56.386-2257.726l-7.049-3.213a1.279,1.279,0,0,0-1.664.624l-3.212,7.049a1.252,1.252,0,0,1-2.311-.069l-4.53-12.065a1.149,1.149,0,0,1-.023-.786l3.375-11.648a1.223,1.223,0,0,1,.947-.878,4.475,4.475,0,0,1,.786-.07,5.628,5.628,0,0,1,2.288.393A5.8,5.8,0,0,0,47.3-2278a5.61,5.61,0,0,0,2.15-.485,1.259,1.259,0,0,1,1.664.717l6.934,18.49a1.226,1.226,0,0,1-1.664,1.549Z" transform="translate(355.213 2397.365)" fill="#939eac"/>
      <path id="Trazado_169779" data-name="Trazado 169779" d="M-14.176-2446.714a5.923,5.923,0,0,1-2.334-4.715,5.709,5.709,0,0,1,.462-2.288,5.78,5.78,0,0,0,.463-2.288,5.921,5.921,0,0,0-5.177-5.871,5.748,5.748,0,0,1-3.421-1.686,6.023,6.023,0,0,1-1.687-3.421,5.919,5.919,0,0,0-5.87-5.177,5.784,5.784,0,0,0-2.288.462,5.89,5.89,0,0,1-6.98-1.872A5.874,5.874,0,0,0-45.7-2475.9a5.875,5.875,0,0,0-4.692,2.334,5.919,5.919,0,0,1-4.715,2.334,5.7,5.7,0,0,1-2.288-.462,5.781,5.781,0,0,0-2.288-.462,5.919,5.919,0,0,0-5.87,5.177,5.753,5.753,0,0,1-1.688,3.421,6.02,6.02,0,0,1-3.421,1.686,5.92,5.92,0,0,0-5.177,5.871,5.791,5.791,0,0,0,.462,2.288,5.626,5.626,0,0,1,.462,2.288,5.954,5.954,0,0,1-2.334,4.715,5.873,5.873,0,0,0-2.334,4.691,5.873,5.873,0,0,0,2.334,4.692,5.921,5.921,0,0,1,2.334,4.715,5.7,5.7,0,0,1-.462,2.288,5.793,5.793,0,0,0-.462,2.289,5.92,5.92,0,0,0,5.177,5.87,5.744,5.744,0,0,1,3.421,1.687,6.022,6.022,0,0,1,1.688,3.421,5.919,5.919,0,0,0,5.87,5.177,6.378,6.378,0,0,0,2.126-.393c.047-.023.116-.046.162-.069a5.627,5.627,0,0,1,2.288-.462,5.954,5.954,0,0,1,4.715,2.334,5.875,5.875,0,0,0,4.692,2.335,4.619,4.619,0,0,0,.97-.093,5.877,5.877,0,0,0,3.721-2.242,6.459,6.459,0,0,1,1.04-1.063,5.847,5.847,0,0,1,3.651-1.271,5.7,5.7,0,0,1,2.288.462,5.784,5.784,0,0,0,2.288.462,5.849,5.849,0,0,0,3.328-1.04,5.757,5.757,0,0,0,2.519-4.137,5.749,5.749,0,0,1,1.687-3.421,6.018,6.018,0,0,1,3.42-1.687,5.92,5.92,0,0,0,5.177-5.87,5.787,5.787,0,0,0-.462-2.289,5.625,5.625,0,0,1-.463-2.288,5.955,5.955,0,0,1,2.334-4.715,5.873,5.873,0,0,0,2.334-4.692,5.848,5.848,0,0,0-2.311-4.691Zm-16.849,26.047a25.072,25.072,0,0,1-7.142,3.628,25.387,25.387,0,0,1-7.765,1.2c-.462,0-.924-.023-1.387-.046a25.265,25.265,0,0,1-8.459-1.941A25.46,25.46,0,0,1-71.4-2441.306a25.473,25.473,0,0,1,25.47-25.469,25.458,25.458,0,0,1,25.47,25.469,25.511,25.511,0,0,1-10.562,20.639Z" transform="translate(432.731 2527.833)" fill="#939eac"/>
      <path id="Trazado_169780" data-name="Trazado 169780" d="M135.517-1740.309v119.8H104.353v-119.8Z" transform="translate(341.978 2040.965)" fill="#febf10"/>
      <path id="Trazado_169781" data-name="Trazado 169781" d="M384.35-1708.893H355.314v-8.854c0-4.155-.347-6.776-1.089-7.914a4.077,4.077,0,0,0-3.71-1.682,4.656,4.656,0,0,0-4.254,2.275c-.94,1.533-1.435,3.858-1.435,6.975q0,6.01,1.632,9.052c1.038,2.028,3.957,4.452,8.8,7.321q20.776,12.317,26.216,20.281,5.417,7.939,5.392,25.524c0,8.557-.99,14.839-3.017,18.846-1.979,4.056-5.837,7.419-11.575,10.19a45.359,45.359,0,0,1-19.983,4.105c-8.36,0-15.433-1.583-21.369-4.749-5.887-3.166-9.745-7.172-11.575-12.07s-2.721-11.822-2.721-20.775v-7.865H345.57v14.592c0,4.5.4,7.37,1.237,8.657.791,1.286,2.275,1.929,4.353,1.929a4.981,4.981,0,0,0,4.6-2.424c.989-1.632,1.533-4.056,1.533-7.271,0-7.073-.94-11.673-2.869-13.85-1.978-2.177-6.826-5.787-14.592-10.882-7.766-5.144-12.861-8.854-15.384-11.179a26.05,26.05,0,0,1-6.233-9.6c-1.632-4.106-2.473-9.3-2.473-15.681,0-9.151,1.188-15.878,3.512-20.132s6.134-7.568,11.377-9.943,11.526-3.611,18.945-3.611c8.112,0,14.988,1.286,20.676,3.908s9.448,5.887,11.328,9.893c1.83,3.957,2.77,10.734,2.77,20.231v4.7Z" transform="translate(178.959 2045.806)" fill="#242ca3"/>
      <path id="Trazado_169782" data-name="Trazado 169782" d="M713.893-1675.2c0,12.02-.3,20.577-.841,25.573a27.926,27.926,0,0,1-5.342,13.7,28.539,28.539,0,0,1-12.119,9.547,43.925,43.925,0,0,1-17.758,3.314,44.381,44.381,0,0,1-17.263-3.166,28.686,28.686,0,0,1-12.317-9.448,28.3,28.3,0,0,1-5.54-13.7c-.594-4.947-.891-13.553-.891-25.92v-20.479c0-12.02.3-20.577.841-25.573a27.926,27.926,0,0,1,5.342-13.7,28.54,28.54,0,0,1,12.119-9.547,43.924,43.924,0,0,1,17.758-3.314,44.376,44.376,0,0,1,17.263,3.166,28.31,28.31,0,0,1,12.317,9.448,28.307,28.307,0,0,1,5.54,13.7c.593,4.947.891,13.553.891,25.92v20.479Zm-31.113-39.374c0-5.589-.3-9.151-.94-10.684a3.718,3.718,0,0,0-3.808-2.325,4.363,4.363,0,0,0-3.759,1.88c-.841,1.237-1.287,4.947-1.287,11.13v55.945c0,6.975.3,11.229.841,12.861s1.88,2.424,3.957,2.424a3.813,3.813,0,0,0,4.056-2.819c.594-1.88.891-6.331.891-13.405v-55.005Z" transform="translate(-63.034 2045.999)" fill="#febf10"/>
      <path id="Trazado_169783" data-name="Trazado 169783" d="M1500.252-1686.849l4.951,10.018,11.054,1.612-7.991,7.783,1.888,11.031-9.9-5.2-9.88,5.2,1.888-11.031-8.014-7.783,11.077-1.612,4.928-10.018Z" transform="translate(-602.321 2005.581)" fill="#febf10"/>
      <path id="Trazado_169784" data-name="Trazado 169784" d="M1251.026-1686.849l4.951,10.018,11.054,1.612-7.991,7.783,1.888,11.031-9.9-5.2-9.879,5.2,1.888-11.031-7.991-7.783,11.054-1.612,4.928-10.018Z" transform="translate(-437.382 2005.581)" fill="#febf10"/>
      <path id="Trazado_169785" data-name="Trazado 169785" d="M1368.714-1706.055l5.9,11.975,13.2,1.911-9.557,9.3,2.256,13.15-11.791-6.195-11.814,6.195,2.257-13.15-9.557-9.3,13.2-1.911,5.919-11.975Z" transform="translate(-513.202 2018.293)" fill="#febf10"/>
      <text id="ISO" transform="translate(692.957 111.635)" fill="#12263f" font-size="44" font-family="Roboto-Bold, Roboto" font-weight="700"><tspan x="0" y="0">ISO</tspan></text>
      <text id="ISO-2" data-name="ISO" transform="translate(736.957 573.635)" fill="#12263f" font-size="40" font-family="Roboto-Bold, Roboto" font-weight="700"><tspan x="0" y="0">ISO</tspan></text>
      <text id="ISO-3" data-name="ISO" transform="translate(434.957 633.635)" fill="#12263f" font-size="40" font-family="Roboto-Bold, Roboto" font-weight="700"><tspan x="0" y="0">ISO</tspan></text>
      <text id="ISO-4" data-name="ISO" transform="translate(203.957 270.635)" fill="#12263f" font-size="40" font-family="Roboto-Bold, Roboto" font-weight="700"><tspan x="0" y="0">ISO</tspan></text>
      <text id="_14001" data-name="14001" transform="translate(672.957 149.635)" fill="#12263f" font-size="39" font-family="Roboto-Bold, Roboto" font-weight="700"><tspan x="0" y="0">14001</tspan></text>
      <text id="_45001" data-name="45001" transform="translate(718.957 606.635)" fill="#12263f" font-size="35" font-family="Roboto-Bold, Roboto" font-weight="700"><tspan x="0" y="0">45001</tspan></text>
      <text id="_50001" data-name="50001" transform="translate(416.957 666.635)" fill="#12263f" font-size="35" font-family="Roboto-Bold, Roboto" font-weight="700"><tspan x="0" y="0">50001</tspan></text>
      <text id="_9001" data-name="9001" transform="translate(197.957 303.635)" fill="#12263f" font-size="35" font-family="Roboto-Bold, Roboto" font-weight="700"><tspan x="0" y="0">9001</tspan></text>
    </g>
    <g id="Grupo_124753" data-name="Grupo 124753" transform="translate(-6912.937 -13021.897)">
      <ellipse id="Elipse_5255" data-name="Elipse 5255" cx="29.765" cy="29.765" rx="29.765" ry="29.765" transform="translate(0 0)" fill="#ff004c" opacity="0.5"/>
      <ellipse id="Elipse_5256" data-name="Elipse 5256" cx="15.307" cy="15.308" rx="15.307" ry="15.308" transform="translate(14.609 14.839)" fill="#ff004c"/>
    </g>
    <g id="Grupo_124754" data-name="Grupo 124754" transform="translate(-6286.803 -13204.836)">
      <ellipse id="Elipse_5256-2" data-name="Elipse 5256" cx="15.307" cy="15.308" rx="15.307" ry="15.308" transform="translate(14.609 14.839)" fill="#ff004c"/>
      <g id="Grupo_124576" data-name="Grupo 124576">
        <ellipse id="Elipse_5255-2" data-name="Elipse 5255" cx="29.765" cy="29.765" rx="29.765" ry="29.765" fill="#ff004c" opacity="0.5"/>
      </g>
    </g>
    <g id="Grupo_124755" data-name="Grupo 124755" transform="translate(-6277.527 -12608.646)">
      <g id="Grupo_115559" data-name="Grupo 115559" transform="translate(0 0)">
        <ellipse id="Elipse_5255-3" data-name="Elipse 5255" cx="29.765" cy="29.765" rx="29.765" ry="29.765" transform="translate(0 0)" fill="#ff004c" opacity="0.5"/>
        <ellipse id="Elipse_5256-3" data-name="Elipse 5256" cx="15.307" cy="15.308" rx="15.307" ry="15.308" transform="translate(14.609 14.839)" fill="#ff004c"/>
      </g>
    </g>
    <g id="Grupo_124756" data-name="Grupo 124756" transform="translate(-6631.657 -12546.78)">
      <ellipse id="Elipse_5255-4" data-name="Elipse 5255" cx="29.765" cy="29.765" rx="29.765" ry="29.765" transform="translate(0 0)" fill="#ff004c" opacity="0.5"/>
      <ellipse id="Elipse_5256-4" data-name="Elipse 5256" cx="15.307" cy="15.308" rx="15.307" ry="15.308" transform="translate(14.609 14.839)" fill="#ff004c"/>
    </g>
  </g>
</svg>
