<svg id="Grupo_119357" data-name="Grupo 119357" xmlns="http://www.w3.org/2000/svg" width="124" height="124" viewBox="0 0 124 124">
  <g id="Elipse_6016" data-name="Elipse 6016" fill="#fff" stroke="#2631a0" stroke-width="4">
    <circle cx="62" cy="62" r="62" stroke="none"/>
    <circle cx="62" cy="62" r="60" fill="none"/>
  </g>
  <g id="Grupo_124468" data-name="Grupo 124468" transform="translate(1451.977 -21.506)">
    <path id="Trazado_189694" data-name="Trazado 189694" d="M-1426.421,144.3V85.847a1.052,1.052,0,0,1,.721-.251c.236-.012.474-.011.71-.011q34.987,0,69.973,0a2.23,2.23,0,0,1,1.38.2c.164.237.085.506.085.759q.006,28.506.017,57.012a4.916,4.916,0,0,1-2.233,4.4,4.719,4.719,0,0,1-2.782.668q-10.057.01-20.114,0-21.394,0-42.788.012a4.908,4.908,0,0,1-4.389-2.26A5.4,5.4,0,0,1-1426.421,144.3Z" transform="translate(0 -28.692)" fill="#e8edef"/>
    <path id="Trazado_189695" data-name="Trazado 189695" d="M-1353.64,57.116c-.332,0-.663.011-.995.011l-70.793,0c-.331,0-.662.017-.993.026V51.04a4.559,4.559,0,0,1,4.123-3.982h64.556a4.459,4.459,0,0,1,3.32,1.91,4.147,4.147,0,0,1,.869,2.5c.015,1.8.005,3.6,0,5.395A.3.3,0,0,1-1353.64,57.116Z" fill="#1d86c8"/>
    <path id="Trazado_189696" data-name="Trazado 189696" d="M-1374.55,150.676a22.645,22.645,0,0,1-2.635-11.78,23.1,23.1,0,0,1,9.408-18.1,23.759,23.759,0,0,1,37.576,13.428,23.64,23.64,0,0,1-18.273,28.86,23.183,23.183,0,0,1-19.334-4.344,2.866,2.866,0,0,1-.257-.242,4.172,4.172,0,0,1,2.09-2.09,1.344,1.344,0,0,1,1.486.428c.556.515,1.067,1.076,1.617,1.6.9.85,1.693.62,2.032-.581.109-.388.163-.788.265-1.177.076-.293.109-.615.412-.794a2.231,2.231,0,0,1,1.023.252,16.632,16.632,0,0,0,13.83-1.014,16.712,16.712,0,0,0,9.223-14.242,16.661,16.661,0,0,0-5.176-13.548,16.63,16.63,0,0,0-12.058-4.892,16.818,16.818,0,0,0-12.536,5.294,16.669,16.669,0,0,0-4.8,10.953,23.813,23.813,0,0,0,.13,3.676,1.4,1.4,0,0,1-.047.632c-.139.3-.436.334-.709.4-1.035.243-2.074.467-3.114.687-.489.1-1,.224-1.158.8a1.38,1.38,0,0,0,.52,1.385c.515.521,1.067,1.008,1.537,1.569A1.759,1.759,0,0,1-1374.55,150.676Z" transform="translate(-36.657 -51.279)" fill="#dd342d"/>
    <path id="Trazado_189697" data-name="Trazado 189697" d="M-1376.692,227.033c-.16.688-.306,1.38-.483,2.063a1.255,1.255,0,0,1-2.284.632c-.3-.3-.6-.6-.9-.9-1.7-1.7-1.815-1.7-3.537.024-.233.233-.453.48-.679.72l-6.952,6.917c-.979.975-1.519.975-2.5-.005q-2.287-2.286-4.573-4.574c-1.028-1.028-1.031-1.539-.023-2.552q3.783-3.8,7.563-7.609c.142-.122.292-.237.426-.368,1.2-1.184,1.205-1.623.026-2.8-.451-.451-.915-.891-1.35-1.357a1.229,1.229,0,0,1,.619-2.176c1.39-.357,2.794-.656,4.192-.98a.9.9,0,0,1,.613-.314c1.841-.406,3.677-.834,5.53-1.183,2.045-.407,4.049-1.007,6.126-1.26a1.417,1.417,0,0,1,1.4,1.717,4.433,4.433,0,0,1-.167.967c-.51,2.249-1.012,4.5-1.465,6.762-.385,1.779-.778,3.556-1.161,5.335A1.372,1.372,0,0,1-1376.692,227.033Z" transform="translate(-20.147 -122.35)" fill="#f4b600"/>
    <path id="Trazado_189698" data-name="Trazado 189698" d="M-1174.137,296.306c0,.639.009,1.278,0,1.916a1.054,1.054,0,0,1-.962,1.131,16.505,16.505,0,0,1-4.238,0,1.185,1.185,0,0,1-1.018-1.252,1.218,1.218,0,0,1,1.264-1.178c.662-.02,1.325-.024,1.987,0,.408.015.539-.144.525-.538-.023-.638-.017-1.278,0-1.916a1.253,1.253,0,0,1,1.262-1.331,1.25,1.25,0,0,1,1.186,1.322c.013.615,0,1.23,0,1.846Z" transform="translate(-183.294 -183.309)" fill="#849595"/>
    <path id="Trazado_189699" data-name="Trazado 189699" d="M-1411.5,104.229c0-.592-.011-1.185,0-1.777a1.178,1.178,0,0,1,1.264-1.31c1.208-.029,2.416-.026,3.624,0a1.272,1.272,0,0,1,1.341,1.276,1.3,1.3,0,0,1-1.376,1.248c-.615.021-1.233.027-1.847,0-.446-.022-.579.156-.56.58.027.615.017,1.232,0,1.848a1.221,1.221,0,0,1-1.2,1.3c-.763.015-1.226-.464-1.245-1.315C-1411.515,105.461-1411.5,104.845-1411.5,104.229Z" transform="translate(-11.109 -40.273)" fill="#849595"/>
    <path id="Trazado_189700" data-name="Trazado 189700" d="M-1211.519,64.1c-2.227,0-4.453.006-6.68,0-.917,0-1.459-.515-1.425-1.3a1.092,1.092,0,0,1,.853-1.089,4.563,4.563,0,0,1,1.258-.175c3.719.012,7.438.006,11.157.008a9.392,9.392,0,0,1,1.834.119c.817.161,1.166.528,1.111,1.327A1.12,1.12,0,0,1-1204.7,64.1C-1206.97,64.107-1209.245,64.1-1211.519,64.1Z" transform="translate(-154.045 -10.786)" fill="#006faf"/>
    <path id="Trazado_189701" data-name="Trazado 189701" d="M-1298.288,64.053c-1.183,0-2.366,0-3.549,0-.858,0-1.352-.377-1.413-1.061-.071-.791.286-1.221,1.173-1.365a39.116,39.116,0,0,1,5.307-.123,9.491,9.491,0,0,1,2.4.12,1.164,1.164,0,0,1,1.074,1.325,1.153,1.153,0,0,1-1.3,1.1C-1295.827,64.059-1297.057,64.053-1298.288,64.053Z" transform="translate(-91.746 -10.737)" fill="#006faf"/>
    <path id="Trazado_189702" data-name="Trazado 189702" d="M-1369.789,63.01a1.307,1.307,0,0,1-1.326,1.2,1.278,1.278,0,0,1-1.219-1.3,1.319,1.319,0,0,1,1.236-1.236A1.39,1.39,0,0,1-1369.789,63.01Z" transform="translate(-40.29 -10.894)" fill="#6bb99f"/>
    <path id="Trazado_189703" data-name="Trazado 189703" d="M-1389.434,63.055A1.229,1.229,0,0,1-1390.7,64.3a1.213,1.213,0,0,1-1.225-1.278,1.25,1.25,0,0,1,1.22-1.229A1.264,1.264,0,0,1-1389.434,63.055Z" transform="translate(-25.698 -10.978)" fill="#f3b600"/>
    <path id="Trazado_189704" data-name="Trazado 189704" d="M-1409.072,63.161a1.241,1.241,0,0,1-1.262,1.249,1.191,1.191,0,0,1-1.2-1.224,1.18,1.18,0,0,1,1.251-1.238A1.192,1.192,0,0,1-1409.072,63.161Z" transform="translate(-11.09 -11.093)" fill="#e13c53"/>
    <path id="Trazado_189705" data-name="Trazado 189705" d="M-1341.786,174.28l1.393-6.281c.335-.165.595.059.864.181a11.056,11.056,0,0,0,15.439-8.042,11.017,11.017,0,0,0-8.91-12.954,11.068,11.068,0,0,0-12.932,9.295,21.716,21.716,0,0,0-.058,2.7,1.427,1.427,0,0,1-.109.83l-6.145,1.3a17.549,17.549,0,0,1,13.5-20.387,17.57,17.57,0,0,1,21.144,14.583,17.534,17.534,0,0,1-13.964,19.817A17.181,17.181,0,0,1-1341.786,174.28Z" transform="translate(-55.052 -69.597)" fill="#e8edef"/>
    <path id="Trazado_189706" data-name="Trazado 189706" d="M-1327.854,178.409a11.328,11.328,0,0,1,9.064-13.039,11.3,11.3,0,0,1,13.175,9.12,11.289,11.289,0,0,1-10.737,13.292,11.2,11.2,0,0,1-5.8-1.381c.379-2.29.926-4.544,1.45-6.8.354-.07.478.246.676.419a4.807,4.807,0,0,0,7.911-2.266,4.482,4.482,0,0,0-1.428-4.835,4.489,4.489,0,0,0-5.025-.848,4.594,4.594,0,0,0-2.926,4.106c-.026.323.063.672-.208.941Z" transform="translate(-73.296 -87.998)" fill="#dd342d"/>
    <path id="Trazado_189707" data-name="Trazado 189707" d="M-1303.331,195.439a5.022,5.022,0,0,1,4.916-5.648,5.021,5.021,0,0,1,4.9,3.7,5.027,5.027,0,0,1-2.338,5.675,5.041,5.041,0,0,1-6.079-.835c-.132-.134-.263-.27-.394-.405.05-.276.107-.55.149-.827C-1302.036,196.124-1302.347,195.679-1303.331,195.439Z" transform="translate(-91.665 -106.323)" fill="#e8edef"/>
  </g>
</svg>
