<svg xmlns="http://www.w3.org/2000/svg" width="124" height="124" viewBox="0 0 124 124">
  <g id="Grupo_124497" data-name="Grupo 124497" transform="translate(-619.139 -2276.447)">
    <g id="Grupo_121492" data-name="Grupo 121492" transform="translate(619.139 2276.447)">
      <g id="Elipse_6016" data-name="Elipse 6016" fill="#fff" stroke="#2631a0" stroke-width="4">
        <circle cx="62" cy="62" r="62" stroke="none"/>
        <circle cx="62" cy="62" r="60" fill="none"/>
      </g>
    </g>
    <g id="Grupo_124469" data-name="Grupo 124469" transform="translate(2748.611 1812.266)">
      <path id="Trazado_189708" data-name="Trazado 189708" d="M-2089.729,802.936c-.846-.416-1.8-.543-2.623-1.029a8.539,8.539,0,0,1-4.488-7.8c0-.359.013-.719.02-1.079a8.154,8.154,0,0,1,2.2-4.72,8.894,8.894,0,0,1,6.546-2.763c4.3-.036,8.595-.015,12.891-.016q17.52-.006,35.04,0a1.994,1.994,0,0,1,1.41.236q.005,3.784.01,7.568c-.389.355-.873.262-1.327.262q-10.279.009-20.558,0h-26.74a4.482,4.482,0,0,0-1.23.076.782.782,0,0,0-.658.757.78.78,0,0,0,.658.756,4.835,4.835,0,0,0,1.307.076q23.533,0,47.067.006c.5,0,1.041-.124,1.482.261q.006,3.7.013,7.4Z" transform="translate(-0.002 -237.163)" fill="#f5a96f"/>
      <path id="Trazado_189709" data-name="Trazado 189709" d="M-2007.111,548.7l-49.376.005c-.077,0-.154-.011-.231-.018a1.833,1.833,0,0,1-.242-1.333q-.011-8.7,0-17.391,0-20.87.006-41.739c0-.5-.129-1.039.243-1.487,4.137-.008,8.274-.024,12.41-.024q7.169,0,14.338.024c.322.376.219.833.219,1.26.007,5.948,0,11.9.011,17.845,0,.567-.2,1.257.484,1.587s1.089-.247,1.538-.606c1.649-1.318,3.26-2.682,4.9-4.013.685-.557.787-.566,1.45-.012q2.49,2.078,4.954,4.188a2.977,2.977,0,0,0,.619.457.857.857,0,0,0,1.309-.6,4.151,4.151,0,0,0,.062-1.077q0-8.884.005-17.767c0-.427-.1-.884.219-1.26,1.983-.008,3.966-.028,5.949-.018a1.062,1.062,0,0,1,1.16,1.154c.007.129,0,.257,0,.386q0,29.911,0,59.823C-2007.09,548.291-2007.1,548.5-2007.111,548.7Z" transform="translate(-31.626 -0.101)" fill="#e0303c"/>
      <path id="Trazado_189710" data-name="Trazado 189710" d="M-2088.343,486.64q0,30.975,0,61.95a8.456,8.456,0,0,0-8.265,6.8c-.038.16-.022.371-.213.472-.007-.231-.019-.463-.019-.694q0-30.683,0-61.366a6.931,6.931,0,0,1,5.8-7.109A12.144,12.144,0,0,1-2088.343,486.64Z" fill="#be242d"/>
      <path id="Trazado_189711" data-name="Trazado 189711" d="M-1910.476,486.832q0,9.654,0,19.307c0,.18-.009.361,0,.54a1.193,1.193,0,0,1-.687,1.193,1.024,1.024,0,0,1-1.205-.242c-.807-.637-1.58-1.318-2.365-1.983-1.079-.915-2.166-1.822-3.231-2.754-.281-.246-.458-.291-.771-.028-1.81,1.525-3.645,3.02-5.464,4.534-.429.357-.843.681-1.452.419-.64-.275-.6-.822-.6-1.37q0-9.808,0-19.616Z" transform="translate(-135.35 -0.192)" fill="#ffc800"/>
      <path id="Trazado_189712" data-name="Trazado 189712" d="M-2010.879,825.568c-.334-.006-.669-.017-1-.017l-48.3,0a1.456,1.456,0,0,1-1.161-.276,1,1,0,0,1-.345-1.108,1.072,1.072,0,0,1,.966-.774c.257-.013.515-.006.772-.006h48.063c.335,0,.67-.011,1-.017Z" transform="translate(-27.849 -267.199)" fill="#fbe3cf"/>
      <path id="Trazado_189713" data-name="Trazado 189713" d="M-2015.587,654.982h-18.86a6.085,6.085,0,0,1-.695-.01,1.057,1.057,0,0,1-1.034-1.05,1.075,1.075,0,0,1,1.067-1.1c.179-.017.36-.006.541-.006h38.029a4.059,4.059,0,0,1,.617.013,1.029,1.029,0,0,1,.99,1.085,1.031,1.031,0,0,1-1.022,1.055,5.807,5.807,0,0,1-.695.01Z" transform="translate(-48.131 -131.88)" fill="#c1c1c1"/>
      <path id="Trazado_189714" data-name="Trazado 189714" d="M-2015.526,693.232h18.86c.206,0,.413-.01.618,0a1.065,1.065,0,0,1,1.107,1.059,1.074,1.074,0,0,1-1.069,1.095c-.179.017-.361.006-.541.006h-38.029c-.129,0-.258,0-.386,0-.75-.032-1.242-.474-1.229-1.1a1.115,1.115,0,0,1,1.192-1.059c.206-.01.412,0,.618,0Z" transform="translate(-48.117 -163.947)" fill="#c1c1c1"/>
      <path id="Trazado_189715" data-name="Trazado 189715" d="M-1988.217,734.394h11.748c.18,0,.361-.007.541,0a1.117,1.117,0,0,1,1.191,1.06,1.111,1.111,0,0,1-1.152,1.1c-.154.01-.309,0-.464,0h-23.806c-.155,0-.31.007-.464,0a1.112,1.112,0,0,1-1.153-1.1,1.116,1.116,0,0,1,1.191-1.06c.18-.009.361,0,.541,0Z" transform="translate(-75.427 -196.605)" fill="#c1c1c1"/>
      <path id="Trazado_189716" data-name="Trazado 189716" d="M-2021.119,525.525h-7.42c-.18,0-.361.009-.541,0a1.067,1.067,0,0,1-1.108-1.059,1.073,1.073,0,0,1,1.068-1.1c.153-.015.309-.006.464-.006h15.149a3.424,3.424,0,0,1,.54.013,1.03,1.03,0,0,1,.987,1.088,1.033,1.033,0,0,1-1.024,1.054,5.109,5.109,0,0,1-.618.01Z" transform="translate(-52.882 -29.171)" fill="#c1c1c1"/>
      <path id="Trazado_189717" data-name="Trazado 189717" d="M-2021.117,559.2h-7.42c-.18,0-.361.009-.541,0a1.067,1.067,0,0,1-1.109-1.058,1.086,1.086,0,0,1,1.144-1.1c.128-.009.257,0,.386,0h15.15a3.448,3.448,0,0,1,.54.013,1.03,1.03,0,0,1,.989,1.086,1.033,1.033,0,0,1-1.023,1.055,5.07,5.07,0,0,1-.618.01Z" transform="translate(-52.882 -55.888)" fill="#c1c1c1"/>
    </g>
  </g>
</svg>
