<svg xmlns="http://www.w3.org/2000/svg" width="124" height="124" viewBox="0 0 124 124">
  <g id="Grupo_124495" data-name="Grupo 124495" transform="translate(-1095.5 -2276.447)">
    <g id="Grupo_121494" data-name="Grupo 121494" transform="translate(1095.5 2276.447)">
      <g id="Elipse_6016" data-name="Elipse 6016" fill="#fff" stroke="#2631a0" stroke-width="4">
        <circle cx="62" cy="62" r="62" stroke="none"/>
        <circle cx="62" cy="62" r="60" fill="none"/>
      </g>
    </g>
    <g id="Grupo_124471" data-name="Grupo 124471" transform="translate(3840.583 2727.586)">
      <path id="Trazado_189736" data-name="Trazado 189736" d="M-2601.1-429.344a11.173,11.173,0,0,0,2.651.44c13.957,2.385,24.057,9.963,30.389,22.585a37.246,37.246,0,0,1,3.338,10.651c.039.231.048.468.072.7.038.176-.057.207-.2.187a14.551,14.551,0,0,0-1.789-2.159,6.031,6.031,0,0,0-6.048-.983c-.357.084-.717.487-1.072-.005a3.641,3.641,0,0,1-.1-1.244c-.016-3.085.024-6.17-.025-9.252a1.427,1.427,0,0,0-.553-.825q-7.136-7.143-14.279-14.279a1.584,1.584,0,0,0-.833-.556c-6.609-.033-13.216-.006-19.822-.013-4.439,0-8.878,0-13.318-.01-.351,0-.8.16-1-.345a42.347,42.347,0,0,1,10.2-3.859,49.174,49.174,0,0,1,5.165-.856c.166-.02.38.059.468-.178h1.57a1.6,1.6,0,0,0,1.1,0h1.257c.3.17.629.04.941.081.313-.041.641.089.943-.081Z" transform="translate(-78.687)" fill="#5fa847"/>
      <path id="Trazado_189737" data-name="Trazado 189737" d="M-2376.647-240.161v.628a42.146,42.146,0,0,1-.723,5.407,41.084,41.084,0,0,1-7.022,15.354,1.819,1.819,0,0,1-.627.583c-.4.134-.815.349-1.175-.091a2.631,2.631,0,0,1-.126-1.081q0-9.87,0-19.741a3.411,3.411,0,0,1,.084-1.009c.293-.569.716-.247,1.078-.127a6.522,6.522,0,0,0,4.652-.125,5.466,5.466,0,0,0,1.949-1.4,4.471,4.471,0,0,0,1.148-1.645,1.856,1.856,0,0,1,.436-.727.287.287,0,0,1,.326.051v3.612A.2.2,0,0,0-2376.647-240.161Z" transform="translate(-266.241 -146.316)" fill="#5fa847"/>
      <path id="Trazado_189738" data-name="Trazado 189738" d="M-2395.384-121.757l1.077-.146a1.615,1.615,0,0,1,1.135-.17,8.117,8.117,0,0,1,6.79,5.049,16.174,16.174,0,0,1,.372,1.731v2.669c-.318.782-.6,1.583-.969,2.34a4.2,4.2,0,0,1-1.04,1.436,6.844,6.844,0,0,1-5.6-.389,8.037,8.037,0,0,1-3.827-10.625,12.668,12.668,0,0,1,1.018-1.664A.9.9,0,0,1-2395.384-121.757Z" transform="translate(-256.878 -242.763)" fill="#5a98ce"/>
      <path id="Trazado_189739" data-name="Trazado 189739" d="M-2377.535-274.454a5.641,5.641,0,0,1-1.386,2.368,5.523,5.523,0,0,1-5.4-.883,6.414,6.414,0,0,1-1.419-9.2,6.185,6.185,0,0,1,7.9,3.281c.178.122.169.339.255.507.144.3.072.676.332.933v2.355C-2377.381-274.895-2377.356-274.628-2377.535-274.454Z" transform="translate(-265.641 -115.942)" fill="#5a98ce"/>
      <path id="Trazado_189740" data-name="Trazado 189740" d="M-2539.655-429.344a.905.905,0,0,1-1.1,0Z" transform="translate(-144.219)" fill="#7db561"/>
      <path id="Trazado_189741" data-name="Trazado 189741" d="M-2528.58-429.194c-.319-.04-.671.133-.95-.15h.942q.075.046.054.1T-2528.58-429.194Z" transform="translate(-153.087)" fill="#70ae55"/>
      <path id="Trazado_189742" data-name="Trazado 189742" d="M-2525.033-429.194q-.007-.075-.008-.15h.942C-2524.369-429.039-2524.722-429.248-2525.033-429.194Z" transform="translate(-156.634)" fill="#8fbe75"/>
      <path id="Trazado_189743" data-name="Trazado 189743" d="M-2341.594-246.147a.7.7,0,0,1,.288-.634v.628Z" transform="translate(-301.582 -144.25)" fill="#7db67e"/>
      <path id="Trazado_189744" data-name="Trazado 189744" d="M-2340.743-226.266c-.195-.1-.175-.209,0-.314Z" transform="translate(-302.146 -160.211)" fill="#b8d5a3"/>
      <path id="Trazado_189745" data-name="Trazado 189745" d="M-2688.383-380.615a37.788,37.788,0,0,1,8.008-8.328c.351.4.244.894.245,1.353q.011,11.658.005,23.317,0,17.076,0,34.152a7.561,7.561,0,0,0,.088,1.565,2.068,2.068,0,0,0,2.184,1.845c1.255.028,2.511.024,3.767.021,4.365-.027,8.729-.01,13.094-.012q14.231,0,28.462,0a3.128,3.128,0,0,1,1.391.146c.4.449.255.852-.1,1.238a42.354,42.354,0,0,1-8.25,4.875,3.776,3.776,0,0,1-.364.119,7.637,7.637,0,0,1-2.165.256q-13.644-.009-27.288,0a8.021,8.021,0,0,1-2.173-.231,26.871,26.871,0,0,1-5.022-2.528,39.292,39.292,0,0,1-11.878-11.011,3.326,3.326,0,0,1-.26-1.451q0-21.939,0-43.879A3.345,3.345,0,0,1-2688.383-380.615Z" transform="translate(-27.366 -31.922)" fill="#4d9f2c"/>
      <path id="Trazado_189746" data-name="Trazado 189746" d="M-2642.964-339.939c-1.385,0-2.772.036-4.155-.013a2.175,2.175,0,0,1-1.977-1.742,5.961,5.961,0,0,1-.1-1.245q-.008-29.205-.006-58.41c0-.366-.025-.731-.038-1.1q0-.234,0-.469c.01-2.029.978-2.964,3.036-2.987a6.989,6.989,0,0,0,2.324-.131c.205.247.487.138.733.138q16.429.019,32.858.032c.3,0,.629-.123.9.125a.638.638,0,0,1-.259.168,5.582,5.582,0,0,1-1.406.076q-15.346,0-30.691,0a2.249,2.249,0,0,0-1.94.619,2.222,2.222,0,0,0-.581,1.341c-.021.392-.016.785-.016,1.177q0,29.355-.01,58.71c0,1.319.007,2.581,1.254,3.421A.278.278,0,0,1-2642.964-339.939Z" transform="translate(-58.497 -18.419)" fill="#cacbd2"/>
      <path id="Trazado_189747" data-name="Trazado 189747" d="M-2715.749-349.261q0,23.391,0,46.781a38.455,38.455,0,0,1-6.931-16.53,39.717,39.717,0,0,1,6.642-29.884C-2715.95-349.022-2715.846-349.139-2715.749-349.261Z" transform="translate(0 -63.277)" fill="#5fa847"/>
      <path id="Trazado_189748" data-name="Trazado 189748" d="M-2606.87-61.941c.209-.01.418-.028.627-.028l31,0a35.341,35.341,0,0,1-9.5,2.79,40.131,40.131,0,0,1-21.294-2.356C-2606.321-61.646-2606.592-61.8-2606.87-61.941Z" transform="translate(-91.978 -290.277)" fill="#5fa847"/>
      <path id="Trazado_189749" data-name="Trazado 189749" d="M-2415.129-112.071q.071-.553.142-1.106a3.679,3.679,0,0,1,.64-2.269,7.065,7.065,0,0,1,.667-1.054,10.2,10.2,0,0,1,1.817-1.714c.653-.362,1.2-.994,2.068-.814-.244.8-.788,1.438-1.1,2.213a8.05,8.05,0,0,0,3.166,9.366,8.269,8.269,0,0,0,5.922,1.011,2.38,2.38,0,0,1,.391,0,7.435,7.435,0,0,1-8.013,2.325,7.551,7.551,0,0,1-5.541-6.086A11.855,11.855,0,0,1-2415.129-112.071Z" transform="translate(-243.48 -245.167)" fill="#3883c1"/>
      <path id="Trazado_189750" data-name="Trazado 189750" d="M-2342.764-264.893a.884.884,0,0,1-.256-.507l.135-.141A.81.81,0,0,1-2342.764-264.893Z" transform="translate(-300.456 -129.427)" fill="#7fba8e"/>
      <path id="Trazado_189751" data-name="Trazado 189751" d="M-2580.85-342.156a11.518,11.518,0,0,0-1.47,3.338l-42.762.013a1.956,1.956,0,0,1-.233-.028c-1.3-.682-1.594-1.793-1.593-3.2q.047-29.989.021-59.978c0-1.79.831-2.626,2.605-2.626h31.4c.34,0,.679.017,1.019.027a1.665,1.665,0,0,1,.23,1.2q.011,5.369,0,10.737c0,.34-.009.68.022,1.018a2.256,2.256,0,0,0,2.507,2.309c3.736.011,7.472,0,11.208.006a4.708,4.708,0,0,1,1.555.108c.341.22.2.567.2.857.013,3.362.012,6.724.015,10.086.031.3-.229.379-.4.516a6.159,6.159,0,0,0-2.347,6.99,1.841,1.841,0,0,1,.137.762,1.607,1.607,0,0,1-.513.675q-2.373,2.38-4.753,4.754a1.768,1.768,0,0,1-1.113.669c-4.133.076-8.265.027-12.4.029a11.74,11.74,0,0,0-3.039.114,1.485,1.485,0,0,0-.972,1.542q-.016,7.2,0,14.409a1.485,1.485,0,0,0,1.241,1.573,6.938,6.938,0,0,0,2.646.074,21.145,21.145,0,0,1,2.809-.138c3.238.012,6.476-.048,9.711.03a1.29,1.29,0,0,1,.824.392q1.615,1.576,3.193,3.191A.6.6,0,0,1-2580.85-342.156Z" transform="translate(-76.146 -19.526)" fill="#e7e8ef"/>
      <path id="Trazado_189752" data-name="Trazado 189752" d="M-2444.408-389.222c-.245.23-.548.129-.824.13-4,.007-8.005-.057-12.005.036a2.626,2.626,0,0,1-2.708-2.677q.011-6.434.011-12.868c.038-.01.076-.019.114-.027,1.153,1.136,2.314,2.265,3.458,3.41Q-2450.38-395.224-2444.408-389.222Z" transform="translate(-208.069 -19.529)" fill="#fef2f2"/>
      <path id="Trazado_189753" data-name="Trazado 189753" d="M-2399.882-271.9a7.575,7.575,0,0,1-.373-4.153,6.549,6.549,0,0,1,3.108-4.153l.883-.3c-.2.924-.8,1.676-1.009,2.617a6.372,6.372,0,0,0,4.89,7.465,11.131,11.131,0,0,0,2.935,0,6.2,6.2,0,0,1-7.042,1.614c-.216-.086-.439-.153-.659-.23a3.305,3.305,0,0,1-1.4-.844A4.669,4.669,0,0,1-2399.882-271.9Z" transform="translate(-255.115 -117.605)" fill="#3883c1"/>
      <path id="Trazado_189754" data-name="Trazado 189754" d="M-2409.136-230.446l1.323.95q0,11.062,0,22.124l-1.013.325a7.991,7.991,0,0,0-1.987.929c-.487-.066-.711-.486-1.021-.779-.543-.514-1.066-1.049-1.588-1.586a1.2,1.2,0,0,1-.42-.884,35.812,35.812,0,0,0,.079-3.915c.01-3.578,0-7.155,0-10.732a5.876,5.876,0,0,0-.111-1.4.832.832,0,0,1,.257-.852q1.979-2.008,3.99-3.984A.514.514,0,0,1-2409.136-230.446Z" transform="translate(-244.45 -157.148)" fill="#e7e8ef"/>
      <path id="Trazado_189755" data-name="Trazado 189755" d="M-2441.433-150.222l2.9,2.969-1.735,1.584-3.941-3.9a6.049,6.049,0,0,1-1.4-1.222q-1.441-1.424-2.865-2.865c-.215-.217-.487-.4-.512-.753.26-.447.755-.659,1.057-1.063a2.012,2.012,0,0,1,.6-.473.75.75,0,0,1,.681.312q2.451,2.431,4.885,4.881A1.454,1.454,0,0,1-2441.433-150.222Z" transform="translate(-216.733 -216.013)" fill="#003256"/>
      <path id="Trazado_189756" data-name="Trazado 189756" d="M-2490.692-198.453c1.223,1.419,2.629,2.66,3.922,4.01.268.28.524.572.787.859-2.483.009-4.966.011-7.449.029-2.43.018-4.859.055-7.289.075a1.392,1.392,0,0,1-.841-.1c.661-.481,1.418-.152,2.233-.286a2.22,2.22,0,0,1-.568-1.853v-13.713a2.112,2.112,0,0,1,.577-1.8c-.86-.152-1.743.225-2.537-.27.241-.228.543-.145.82-.145q7.517.008,15.033.029c.065.277-.132.434-.29.6-1.429,1.468-2.919,2.877-4.324,4.37a.3.3,0,0,1-.213.078,5.166,5.166,0,0,0-3.4-.326,4.491,4.491,0,0,0-3.156,5.12,4.582,4.582,0,0,0,4.335,3.739,5.166,5.166,0,0,0,1.534-.289C-2491.247-198.4-2490.994-198.6-2490.692-198.453Z" transform="translate(-174.954 -171.999)" fill="#0061a8"/>
      <path id="Trazado_189757" data-name="Trazado 189757" d="M-2594.238-261.056h19.623a3.411,3.411,0,0,1,.782.026,1.131,1.131,0,0,1,.966,1.166,1.13,1.13,0,0,1-.922,1.123,2.372,2.372,0,0,1-.623.037q-19.781,0-39.561,0c-.1,0-.21,0-.314,0a1.215,1.215,0,0,1-1.276-1.2,1.2,1.2,0,0,1,1.309-1.148q5.769-.007,11.539,0Z" transform="translate(-85.109 -132.963)" fill="#acacb3"/>
      <path id="Trazado_189758" data-name="Trazado 189758" d="M-2594.168-233.955h-19.619a3.81,3.81,0,0,1-.705-.018,1.125,1.125,0,0,1-1.017-1.119,1.131,1.131,0,0,1,1.016-1.2,3.466,3.466,0,0,1,.7-.018h39.239a5.532,5.532,0,0,1,.627.007,1.176,1.176,0,0,1,1.1,1.209,1.155,1.155,0,0,1-1.1,1.129,5.267,5.267,0,0,1-.706.009Z" transform="translate(-85.151 -152.517)" fill="#acacb3"/>
      <path id="Trazado_189759" data-name="Trazado 189759" d="M-2594.176-311.128h19.619a5.681,5.681,0,0,1,.627.007,1.177,1.177,0,0,1,1.106,1.2,1.157,1.157,0,0,1-1.093,1.135,4.432,4.432,0,0,1-.627.009h-39.239a3.681,3.681,0,0,1-.7-.018,1.128,1.128,0,0,1-1.024-1.191,1.13,1.13,0,0,1,1.011-1.127,3.548,3.548,0,0,1,.7-.019Z" transform="translate(-85.151 -93.401)" fill="#acacb3"/>
      <path id="Trazado_189760" data-name="Trazado 189760" d="M-2594.234-283.4q-9.573,0-19.147.006a4.516,4.516,0,0,1-1.391-.176,1.041,1.041,0,0,1-.779-1.2,1.029,1.029,0,0,1,1.037-.978c.131-.006.261,0,.392,0h39.785c.157,0,.314-.005.471.006a1.027,1.027,0,0,1,.992.941,1.042,1.042,0,0,1-.746,1.225,4.227,4.227,0,0,1-1.389.188Q-2584.621-283.4-2594.234-283.4Z" transform="translate(-85.108 -113.458)" fill="#acacb3"/>
      <path id="Trazado_189761" data-name="Trazado 189761" d="M-2505.989-210.9h3.021c-1.128.915-.81,2.054-.814,3.11-.019,4.289,0,8.579-.018,12.868a2.187,2.187,0,0,0,.791,1.947h-2.686a1.459,1.459,0,0,1-1.388-1.58q-.01-7.418,0-14.836A1.406,1.406,0,0,1-2505.989-210.9Z" transform="translate(-170.82 -172.601)" fill="#00508d"/>
      <path id="Trazado_189762" data-name="Trazado 189762" d="M-2603.207-369.592h10.594c.236,0,.472-.008.706.013a1.066,1.066,0,0,1,1.069,1.044,1.111,1.111,0,0,1-.923,1.264,3.078,3.078,0,0,1-.78.039q-10.634,0-21.268,0a3.389,3.389,0,0,1-.7-.022,1.118,1.118,0,0,1-1-1.206,1.1,1.1,0,0,1,1.087-1.12c.233-.023.47-.012.706-.013Z" transform="translate(-85.145 -47.21)" fill="#0061a8"/>
      <path id="Trazado_189763" data-name="Trazado 189763" d="M-2605.978-186.205q4.082,0,8.164,0c.836,0,1.375.447,1.4,1.138.025.717-.537,1.212-1.421,1.213q-8.165.007-16.329,0c-.849,0-1.388-.464-1.4-1.157-.012-.72.544-1.193,1.423-1.194Q-2610.06-186.209-2605.978-186.205Z" transform="translate(-85.108 -192.112)" fill="#acacb3"/>
      <path id="Trazado_189764" data-name="Trazado 189764" d="M-2606.006-159.119c-2.72,0-5.441-.007-8.161.005a1.263,1.263,0,0,1-1.387-.905c-.228-.748.386-1.439,1.294-1.45,1.386-.016,2.772,0,4.159,0q6.12,0,12.241,0a1.268,1.268,0,0,1,1.356.84,1.16,1.16,0,0,1-.39,1.268,1.181,1.181,0,0,1-.952.25Z" transform="translate(-85.079 -211.651)" fill="#acacb3"/>
      <path id="Trazado_189765" data-name="Trazado 189765" d="M-2605.978-210.943q4.078,0,8.156,0c.845,0,1.291.321,1.375.965s-.324,1.091-1.155,1.3a3.749,3.749,0,0,1-.93.088q-7.49,0-14.978,0a4.292,4.292,0,0,1-1.083-.127c-.687-.176-1.105-.668-.99-1.268a1.1,1.1,0,0,1,1.216-.967C-2611.572-210.936-2608.775-210.943-2605.978-210.943Z" transform="translate(-85.077 -172.563)" fill="#acacb3"/>
      <path id="Trazado_189766" data-name="Trazado 189766" d="M-2605.958-136.112q4.078,0,8.156,0c.9,0,1.352.331,1.414,1.006.06.658-.334,1.085-1.2,1.258a4.788,4.788,0,0,1-.93.085q-7.45.008-14.9.007a5.307,5.307,0,0,1-1.162-.132,1.059,1.059,0,0,1-.944-1.227,1.051,1.051,0,0,1,1.174-1Q-2610.153-136.105-2605.958-136.112Z" transform="translate(-85.134 -231.691)" fill="#acacb3"/>
      <path id="Trazado_189767" data-name="Trazado 189767" d="M-2606.46-347.143c2.534,0,5.067,0,7.6,0,.931,0,1.455.42,1.473,1.144.019.753-.536,1.214-1.493,1.214q-7.64.005-15.281.006a1.256,1.256,0,0,1-1.391-.893,1.123,1.123,0,0,1,.507-1.291,1.556,1.556,0,0,1,.983-.18Q-2610.26-347.146-2606.46-347.143Z" transform="translate(-85.08 -64.949)" fill="#0061a8"/>
      <path id="Trazado_189768" data-name="Trazado 189768" d="M-2448.665-228.655c-.018-.344.275-.485.467-.68q2.1-2.146,4.224-4.277l5.958-5.885,1.411,1.908-4.671,4.71a.866.866,0,0,1-.281.456q-2.5,2.51-5.013,5.01a.944.944,0,0,1-.383.259A5.113,5.113,0,0,1-2448.665-228.655Z" transform="translate(-216.981 -150.005)" fill="#003256"/>
      <path id="Trazado_189769" data-name="Trazado 189769" d="M-2441.14-202.279q2.759-2.925,5.686-5.681a1.473,1.473,0,0,1,.295,1.1q0,7.2.005,14.4a4.039,4.039,0,0,1-.209,1.146q-2.61-2.591-5.224-5.179c-.2-.2-.348-.473-.683-.478-.085-.223.044-.4.126-.586a4.9,4.9,0,0,0,.077-3.993C-2441.162-201.781-2441.317-202.015-2441.14-202.279Z" transform="translate(-222.804 -174.924)" fill="#0061a8"/>
      <path id="Trazado_189770" data-name="Trazado 189770" d="M-2465.581-188.7a5.54,5.54,0,0,1,.508,3.991,4.586,4.586,0,0,1-.637,1.32l-.449.505a4.758,4.758,0,0,1-6.049-4.138,5.143,5.143,0,0,1,.235-2.169,2.328,2.328,0,0,1,1.069-1.395,4.587,4.587,0,0,1,3.621.429A6.836,6.836,0,0,1-2465.581-188.7Z" transform="translate(-198.362 -188.505)" fill="#5a98ce"/>
      <path id="Trazado_189771" data-name="Trazado 189771" d="M-2478.53-189.874a4.706,4.706,0,0,0,1.878,7.449,9.276,9.276,0,0,0,2.866.252,3.312,3.312,0,0,1-1.124.935,4.685,4.685,0,0,1-6.154-1.447A4.723,4.723,0,0,1-2478.53-189.874Z" transform="translate(-190.736 -189.214)" fill="#3883c1"/>
    </g>
  </g>
</svg>
