<svg id="Grupo_121495" data-name="Grupo 121495" xmlns="http://www.w3.org/2000/svg" width="124" height="124" viewBox="0 0 124 124">
  <g id="Elipse_6016" data-name="Elipse 6016" fill="#fff" stroke="#2631a0" stroke-width="4">
    <circle cx="62" cy="62" r="62" stroke="none"/>
    <circle cx="62" cy="62" r="60" fill="none"/>
  </g>
  <g id="Grupo_124472" data-name="Grupo 124472" transform="translate(2750.092 1053.502)">
    <path id="Trazado_189772" data-name="Trazado 189772" d="M-2590.09-884.059l5.266-5.48c.463.267.326.528.326.729q.012,21.717.016,43.434c0,.546-.038.824-.726.823q-29.017-.031-58.034-.018c-.117,0-.233-.018-.35-.027a.943.943,0,0,1-.255-.718c0-1.593-.082-3.186.043-4.777a1.061,1.061,0,0,1,.275-.539c1.5-1.513,2.956-3.081,4.559-4.493a3.7,3.7,0,0,1,2.662-.945c1.726-.046,3.45-.023,5.173-.018.9.056,1.812.019,2.718.03a2.863,2.863,0,0,0,2.526-1.316c.886-1.271,1.782-2.536,2.71-3.777.183-.245.343-.8.843-.322a9.283,9.283,0,0,1,.114,2.449c.021,1.758-.008,3.517.012,5.275.017,1.528.365,1.854,1.869,1.881a5.824,5.824,0,0,1,2,.138c.6,1.214,1.646,1.376,2.863,1.3,1.194-.074,2.4-.015,3.594-.017a3.266,3.266,0,0,0,.872-.067,1.078,1.078,0,0,0,.886-1.145,1.049,1.049,0,0,0-.9-1.042,7.261,7.261,0,0,0-1.311-.069c-.368-.021-.775.067-1.043-.3-.032-.222.112-.378.206-.555.578-1.091.138-1.858-1.1-1.962-.466-.039-1.011.146-1.335-.4a4.219,4.219,0,0,1-.113-1.389q-.005-5.643,0-11.286a11.871,11.871,0,0,0-.177-2.349,1.163,1.163,0,0,1,.318-.786q.879-1.248,1.775-2.484a3.4,3.4,0,0,1,2.817-1.489c1.771-.051,3.54-.019,5.309-.023,1.8.028,3.6-.009,5.4.015a3.1,3.1,0,0,0,2.388-.853.74.74,0,0,1,.765-.3,1.758,1.758,0,0,1,.223,1.178c.01,1.752-.008,3.5.008,5.256.012,1.332.39,1.719,1.729,1.744,1.489.027,2.979-.015,4.468.015a1.74,1.74,0,0,0,1.821-1.076,1.725,1.725,0,0,1,.645-.438,1.106,1.106,0,0,0,.63-1.234,1.138,1.138,0,0,0-1.1-.961c-.262-.032-.526-.015-.788-.037-.322-.027-.655-.041-.806-.411a3.53,3.53,0,0,1-.106-1.134c0-2.9-.007-5.8,0-8.7C-2590.392-883.193-2590.49-883.688-2590.09-884.059Z" transform="translate(-63.205 -110.067)" fill="#faa200"/>
    <path id="Trazado_189773" data-name="Trazado 189773" d="M-2700.375-1033.43a14.077,14.077,0,0,1,14.013,14.148,14.082,14.082,0,0,1-14.171,13.992,14.083,14.083,0,0,1-13.97-14.105A14.076,14.076,0,0,1-2700.375-1033.43Z" transform="translate(-9.178)" fill="#faa200"/>
    <path id="Trazado_189774" data-name="Trazado 189774" d="M-2499.735-976.241a5.576,5.576,0,0,1,5.518-4.209c.494-.006.987-.018,1.481-.027a1.876,1.876,0,0,1,2.094.161,2.956,2.956,0,0,1,1.844,1.814,3.583,3.583,0,0,1,.146,3.145q-.011,6.585-.023,13.17c-.312.356-.742.306-1.143.307q-4.515.017-9.03,0a1.827,1.827,0,0,1-1.1-.217,1.163,1.163,0,0,1-.252-.817c-.017-2.826-.037-5.652.009-8.478a1.407,1.407,0,0,1,.083-.426c.188-.435.591-.4.962-.426,1.572-.1,1.851-.421,1.739-1.99,0-1.323-.283-1.636-1.6-1.773C-2499.27-976.032-2499.546-976-2499.735-976.241Z" transform="translate(-173.09 -40.317)" fill="#b80041"/>
    <path id="Trazado_189775" data-name="Trazado 189775" d="M-2499.944-901.84l11.228-.029c1.81.01,3.62.016,5.429.03a2.819,2.819,0,0,1,3.012,3.007c.015,1.78.021,3.561.03,5.341l-.023,11.327a.858.858,0,0,1-.708.282c-1.458.034-2.916.047-4.374-.008a1.007,1.007,0,0,1-.573-.192,1.7,1.7,0,0,1-.256-1.169c0-1.486-.022-2.973.015-4.458-.025-2.128,0-4.256-.013-6.385-.011-1.507-.348-1.837-1.871-1.846-2.041-.013-4.083.017-6.123-.013a3.791,3.791,0,0,0-.609-.01,5.058,5.058,0,0,1-5.362-3.2A4.033,4.033,0,0,1-2499.944-901.84Z" transform="translate(-173.051 -100.636)" fill="#004066"/>
    <path id="Trazado_189776" data-name="Trazado 189776" d="M-2600.993-890.708c1.247.078,2.558-.178,3.649.705.761.238.912.911,1.087,1.554a8.212,8.212,0,0,1,.1,1.3c.019,4.04.009,8.079.006,12.118a2.02,2.02,0,0,1-.233,1.272,1.533,1.533,0,0,1-1,.241q-4.694.015-9.388,0a1.533,1.533,0,0,1-.926-.213,1.16,1.16,0,0,1-.253-.816c-.018-2.826-.036-5.652.009-8.477a1.421,1.421,0,0,1,.083-.426c.186-.434.586-.4.955-.428,1.575-.105,1.851-.413,1.75-1.967.014-1.267-.106-1.432-1.33-1.822a.594.594,0,0,1-.356-.217,5.092,5.092,0,0,1,3.43-2.621c.224-.064.45-.122.675-.182A1.6,1.6,0,0,1-2600.993-890.708Z" transform="translate(-90.666 -108.983)" fill="#0091bd"/>
    <path id="Trazado_189777" data-name="Trazado 189777" d="M-2706.667-741.52q-.014,2.848-.028,5.7h-5.629c-.454-.686-.193-1.456-.245-2.187-.039-.551-.013-1.105-.508-1.493a1.274,1.274,0,0,0-.991-.242c-2.2-.016-4.391.025-6.586-.018-.994,0-1.989.027-2.982-.017a2.722,2.722,0,0,1-2.735-2.337v-4.927a1.259,1.259,0,0,1,.982-.281c3.388,0,6.775-.038,10.162.017,1.817-.021,3.634-.027,5.45,0a3.094,3.094,0,0,1,3.338,3.363A5.55,5.55,0,0,1-2706.667-741.52Z" transform="translate(-0.1 -218.842)" fill="#004066"/>
    <path id="Trazado_189778" data-name="Trazado 189778" d="M-2715.22-802.016l-11.239.031c-.006-3.863-.061-7.727,0-11.589a5.575,5.575,0,0,1,5.336-5.294c.614-.026,1.228-.026,1.842-.037a1.741,1.741,0,0,1,1.887.042,3.117,3.117,0,0,1,2.174,3.477,9.365,9.365,0,0,0,.023,1.049c.492,1.032.155,2.122.227,3.183a12.868,12.868,0,0,1-.164,3.5c-.062.06-.116.144-.205.157a23.943,23.943,0,0,1-5.153.054c-.516-.034-.589-.508-.609-.931-.04-.847-.01-1.7-.018-2.544-.016-1.7-.366-2.03-2-1.9-1.109-.224-1.641.136-1.668,1.249-.053,2.159-.048,4.321,0,6.48.022,1.022.464,1.4,1.593,1.411,2.248.027,4.5,0,6.745.013a2.02,2.02,0,0,1,1.271.221A1.212,1.212,0,0,1-2715.22-802.016Z" transform="translate(-0.01 -163.901)" fill="#0091bd"/>
    <path id="Trazado_189779" data-name="Trazado 189779" d="M-2480.553-1011.588a11.546,11.546,0,0,0-2.094-.161,7.011,7.011,0,0,1-3.659-2.823,4.6,4.6,0,0,1,1.3-6.349,3.915,3.915,0,0,1,4.246-.112,4.057,4.057,0,0,1,2.167,3.5c.04.965.005,1.932.011,2.9a2.825,2.825,0,0,1-1.656,2.676C-2480.4-1011.879-2480.689-1011.914-2480.553-1011.588Z" transform="translate(-183.181 -9.045)" fill="#f2bb8d"/>
    <path id="Trazado_189780" data-name="Trazado 189780" d="M-2708.23-849.982l-1.887-.042a6.984,6.984,0,0,1-3.661-2.815,4.612,4.612,0,0,1,1.424-6.447,4.22,4.22,0,0,1,6.278,3.361c.052,1.08.04,2.165,0,3.246A3.012,3.012,0,0,1-2708.23-849.982Z" transform="translate(-9.177 -132.783)" fill="#f2bb8d"/>
    <path id="Trazado_189781" data-name="Trazado 189781" d="M-2590.982-921.905l-1.746.021a3.146,3.146,0,0,1-2.137-3.51,15.382,15.382,0,0,1,.17-3.229,4.23,4.23,0,0,1,4.967-3,4.272,4.272,0,0,1,3.212,5.069A5.834,5.834,0,0,1-2590.982-921.905Z" transform="translate(-100.677 -77.785)" fill="#f2bb8d"/>
    <path id="Trazado_189782" data-name="Trazado 189782" d="M-2517.776-961.654c.321,0,.642,0,.963.013a1.44,1.44,0,0,1,1.532,1.948c.025.762-.512.968-1.1,1.073a8.97,8.97,0,0,1-1.638.043c-.5.034-.992,0-1.489.017-.9.024-1,.1-1.005,1.02-.015,2.686.007,5.373-.01,8.059-.009,1.327-.314,1.754-1.467,2.175-1.445-.171-1.955-.853-1.775-2.372a1.656,1.656,0,0,0,.166-1.021q0-4.57,0-9.139c0-1.34.456-1.8,1.783-1.8C-2520.471-961.648-2519.124-961.65-2517.776-961.654Z" transform="translate(-155.049 -54.904)" fill="#efbb8d"/>
    <path id="Trazado_189783" data-name="Trazado 189783" d="M-2624.885-877.883c1.561.076,2.117.666,1.852,1.964-.073.779-.66.967-1.282,1.077a8.314,8.314,0,0,1-1.482.041,6.035,6.035,0,0,1-.7.016c-1.877.008-1.778-.157-1.78,1.825,0,2.449.015,4.9-.008,7.348a1.816,1.816,0,0,1-1.464,2.083c-1.445-.172-1.955-.854-1.774-2.372a1.65,1.65,0,0,0,.166-1.018q0-4.6,0-9.2c0-1.27.475-1.74,1.74-1.748C-2628.038-877.873-2626.462-877.877-2624.885-877.883Z" transform="translate(-72.626 -118.983)" fill="#efbb8d"/>
    <path id="Trazado_189784" data-name="Trazado 189784" d="M-2451.49-988.134a21.119,21.119,0,0,0-.147-3.145q4.919-2.43,9.837-4.861c.682-.338,1.36-.685,2.043-1.019,1-.487,1.782-.3,2.171.512s.056,1.522-.949,2.026Q-2445.011-991.375-2451.49-988.134Z" transform="translate(-210.253 -27.541)" fill="#efbb8d"/>
    <path id="Trazado_189785" data-name="Trazado 189785" d="M-2586.328-1029.162a1.394,1.394,0,0,1-1.34,1.364,6.153,6.153,0,0,1-.965.005c-.37-.026-.54.091-.509.489a5.654,5.654,0,0,1-.01,1.052,1.372,1.372,0,0,1-1.426,1.267,1.357,1.357,0,0,1-1.358-1.249c-.08-.485.2-1.1-.121-1.437s-.945-.061-1.432-.127a1.408,1.408,0,0,1-1.271-1.432,1.407,1.407,0,0,1,1.34-1.367c.46-.049,1.036.194,1.354-.108s.071-.888.118-1.347a1.411,1.411,0,0,1,1.437-1.359,1.4,1.4,0,0,1,1.365,1.339c.042.46-.109,1.047.123,1.35.258.337.876.075,1.334.122A1.412,1.412,0,0,1-2586.328-1029.162Z" transform="translate(-100.774 -0.015)" fill="#b80041"/>
    <path id="Trazado_189786" data-name="Trazado 189786" d="M-2710.3-913.7a1.421,1.421,0,0,1,1.435,1.541c.049,1.235.049,1.235,1.211,1.268.973.028,1.581.552,1.6,1.378.018.861-.606,1.411-1.629,1.436-1.144.027-1.144.027-1.179,1.212-.028.972-.555,1.58-1.381,1.6-.86.017-1.409-.607-1.433-1.631-.027-1.143-.027-1.143-1.213-1.178-.974-.028-1.579-.552-1.6-1.38-.017-.861.606-1.409,1.63-1.433,1.146-.027,1.146-.027,1.179-1.212C-2711.647-913.071-2711.123-913.678-2710.3-913.7Z" transform="translate(-9.193 -91.589)" fill="#b80041"/>
    <path id="Trazado_189787" data-name="Trazado 189787" d="M-2678.467-814.325q0-1.609,0-3.218l9.792-5.81c.3.227.263.568.254.874a1.578,1.578,0,0,0,.791,1.528c.213.418-.174.511-.389.642-3.226,1.972-6.473,3.91-9.722,5.844C-2677.958-814.336-2678.181-814.143-2678.467-814.325Z" transform="translate(-36.743 -160.695)" fill="#efbb8d"/>
    <path id="Trazado_189788" data-name="Trazado 189788" d="M-2561.813-899.759a3.322,3.322,0,0,0-.942-2.633q3.348-2.048,6.7-4.093c.4-.241.814-.447,1.222-.668.3.226.263.566.254.873a1.57,1.57,0,0,0,.788,1.526c.221.361-.111.475-.305.594-2.391,1.469-4.792,2.921-7.22,4.329A.483.483,0,0,1-2561.813-899.759Z" transform="translate(-125.255 -96.594)" fill="#efbb8d"/>
    <path id="Trazado_189789" data-name="Trazado 189789" d="M-2712.8-708.466l-12.356.013c.113-.472.546-.466.886-.565,1.443-.418,2.884-.841,4.332-1.244,1.35-.39,2.708-.752,4.048-1.174a1.921,1.921,0,0,1,.862-.126,4.029,4.029,0,0,0,.521.068C-2712.782-711.364-2712.069-710.1-2712.8-708.466Z" transform="translate(-1.031 -246.199)" fill="#faa200"/>
    <path id="Trazado_189790" data-name="Trazado 189790" d="M-2720.854-715.884l-5.331,1.619c-.39.039-.311-.246-.31-.461q.009-2.223.027-4.446c.3,0,.368.254.481.446a2.86,2.86,0,0,0,2.623,1.436,5.079,5.079,0,0,1,2.57.227A1.067,1.067,0,0,1-2720.854-715.884Z" transform="translate(0 -240.387)" fill="#0b2846"/>
    <path id="Trazado_189791" data-name="Trazado 189791" d="M-2720.8-721.625c-.756,0-1.514-.037-2.267.011a3.035,3.035,0,0,1-3.3-2.116l0-1.4a3.146,3.146,0,0,0,3.425,2.111c.725-.049,1.457,0,2.186,0A1.046,1.046,0,0,1-2720.8-721.625Z" transform="translate(-0.1 -235.829)" fill="#10172b"/>
    <path id="Trazado_189792" data-name="Trazado 189792" d="M-2680.054-710.936c0-.145-.012-.291,0-.435.128-1.749-.331-2.508-2.07-2.373-.071.005-.148-.079-.223-.122a4.8,4.8,0,0,1,3.1-.936,1.256,1.256,0,0,1,.6,1.256q0,1.305,0,2.61Z" transform="translate(-33.775 -243.73)" fill="#d78300"/>
    <path id="Trazado_189793" data-name="Trazado 189793" d="M-2527.951-907.344c-.774-.044-1.023-.558-1.074-1.226-.033-.432-.025-.868-.035-1.3a4.758,4.758,0,0,1,1.27-.836c.049.07.148.146.14.209a1.875,1.875,0,0,0,1.442,2.085A1.842,1.842,0,0,1-2527.951-907.344Z" transform="translate(-151.03 -93.874)" fill="#cb9a6e"/>
    <path id="Trazado_189794" data-name="Trazado 189794" d="M-2635.7-823.544c-.774-.044-1.024-.559-1.074-1.226-.033-.432-.025-.868-.035-1.3a4.755,4.755,0,0,1,1.27-.836c.049.07.148.146.14.209a1.876,1.876,0,0,0,1.442,2.085A1.841,1.841,0,0,1-2635.7-823.544Z" transform="translate(-68.607 -157.975)" fill="#cb9a6e"/>
    <path id="Trazado_189795" data-name="Trazado 189795" d="M-2595.4-818.052c1.72.008,3.441.058,5.16.012a3.124,3.124,0,0,1,2.96,1.487,4.566,4.566,0,0,1,.321,1.882q-.014,6.753,0,13.507a.863.863,0,0,1-.708.282q-2.146.057-4.292,0a1.1,1.1,0,0,1-.659-.2,1.86,1.86,0,0,1-.252-1.253c0-2.148-.031-4.3.02-6.443-.036-.613.014-1.228-.013-1.842-.049-1.09-.412-1.477-1.511-1.5-2.166-.041-4.332.008-6.5-.022-.465-.017-.931-.015-1.4-.02a4.273,4.273,0,0,1-4.367-3.39q0-1.233,0-2.466Z" transform="translate(-91.687 -164.75)" fill="#004066"/>
    <path id="Trazado_189796" data-name="Trazado 189796" d="M-2605.669-798.888c.008,2.184.061,4.368.007,6.55-.03,1.23-.918,2.172-1.348,3.274h-5.646a10.133,10.133,0,0,0,1.412-6.337c-.105-2.27-.006-4.549,0-6.824.348.018.372.324.477.548a4.108,4.108,0,0,0,3.922,2.566C-2606.441-799.105-2606.015-799.2-2605.669-798.888Z" transform="translate(-87.084 -176.857)" fill="#0b2846"/>
    <path id="Trazado_189797" data-name="Trazado 189797" d="M-2497.915-882.688c.006,2.051.04,4.1.009,6.152-.021,1.366-.807,2.481-1.349,3.672h-5.646a10.142,10.142,0,0,0,1.412-6.337c-.105-2.27-.006-4.549,0-6.824.348.018.372.324.477.548a4.108,4.108,0,0,0,3.922,2.566C-2498.686-882.905-2498.26-883-2497.915-882.688Z" transform="translate(-169.51 -112.755)" fill="#0b2846"/>
    <path id="Trazado_189798" data-name="Trazado 189798" d="M-2440.042-818.019l5.605-.023c.347.008.7.019,1.043.022,1.079.008,1.678.44,1.76,1.272q.115,1.184-1.4,1.571c-.048.033-.094.088-.146.095a21.685,21.685,0,0,1-5.939.008C-2440.292-815.24-2440.7-816.806-2440.042-818.019Z" transform="translate(-218.881 -164.758)" fill="#10172b"/>
    <path id="Trazado_189799" data-name="Trazado 189799" d="M-2547.848-746.19l5.605-.023c.375.008.75.036,1.123.018a1.437,1.437,0,0,1,1.589.924,1.385,1.385,0,0,1-.607,1.723,1.275,1.275,0,0,1-1.166.431c-.953.019-1.906.017-2.858.006-.669-.037-1.338.025-2.007,0A1.944,1.944,0,0,1-2547.848-746.19Z" transform="translate(-136.404 -219.702)" fill="#10172b"/>
    <path id="Trazado_189800" data-name="Trazado 189800" d="M-2443.687-836.161c-.155,2.23-.027,2.944,2.645,2.827,1.452-.063,2.91.006,4.366.015-.217,1.037-.585,1.37-1.583,1.376-1.728.01-3.456.017-5.184,0-1.225-.014-1.677-.5-1.679-1.728,0-2.226,0-4.451,0-6.677a7.811,7.811,0,0,1,1.375-1.409Z" transform="translate(-215.236 -146.616)" fill="#d78300"/>
    <path id="Trazado_189801" data-name="Trazado 189801" d="M-2534.287-734.677c1.349-.139,2.719.169,4.057-.2.594.366,1.245.127,1.867.161,1.042.057,1.64.534,1.646,1.408s-.594,1.409-1.626,1.415q-2.583.014-5.165,0c-1.051-.005-1.426-.331-1.659-1.4C-2535.338-734.089-2535.178-734.341-2534.287-734.677Z" transform="translate(-146.312 -228.376)" fill="#b26407"/>
    <path id="Trazado_189802" data-name="Trazado 189802" d="M-2494.818-803.184c-.879,0-1.758.013-2.637,0a1.383,1.383,0,0,1-1.532-1.43,1.368,1.368,0,0,1,1.5-1.374q2.725-.026,5.45,0a1.365,1.365,0,0,1,1.488,1.384,1.387,1.387,0,0,1-1.542,1.42C-2493-803.172-2493.91-803.184-2494.818-803.184Z" transform="translate(-174.033 -173.966)" fill="#b26407"/>
    <path id="Trazado_189803" data-name="Trazado 189803" d="M-2446.925-767.269c-.879,0-1.758.012-2.637,0a1.385,1.385,0,0,1-1.535-1.427,1.367,1.367,0,0,1,1.494-1.377q2.725-.026,5.45,0a1.366,1.366,0,0,1,1.491,1.38,1.387,1.387,0,0,1-1.538,1.424C-2445.108-767.257-2446.016-767.269-2446.925-767.269Z" transform="translate(-210.666 -201.438)" fill="#b26407"/>
    <path id="Trazado_189804" data-name="Trazado 189804" d="M-2602.492-719.384c-.908,0-1.817.014-2.725,0a1.379,1.379,0,0,1-1.524-1.438,1.37,1.37,0,0,1,1.506-1.366q2.725-.025,5.45,0a1.364,1.364,0,0,1,1.48,1.391,1.367,1.367,0,0,1-1.462,1.41C-2600.675-719.366-2601.583-719.384-2602.492-719.384Z" transform="translate(-91.609 -238.067)" fill="#b26407"/>
    <path id="Trazado_189805" data-name="Trazado 189805" d="M-2547.824-768.642a1.65,1.65,0,0,0-.88,1.391c-.846,0-1.692,0-2.538-.01-1.189-.01-1.661-.482-1.668-1.729-.016-2.771-.011-5.542-.015-8.312a9.434,9.434,0,0,1,1.393-1.974l.055,7.795a.793.793,0,0,0-.013.086c-.1,2.51.109,2.727,2.626,2.73C-2548.518-768.666-2548.17-768.65-2547.824-768.642Z" transform="translate(-132.775 -194.411)" fill="#d78300"/>
    <path id="Trazado_189806" data-name="Trazado 189806" d="M-2691.272-1021.459a11.265,11.265,0,0,1,11.252,11.3,11.273,11.273,0,0,1-11.262,11.208,11.271,11.271,0,0,1-11.252-11.307A11.259,11.259,0,0,1-2691.272-1021.459Z" transform="translate(-18.333 -9.157)" fill="#0b2846"/>
    <path id="Trazado_189807" data-name="Trazado 189807" d="M-2498.95-951.044q-.011-.7-.022-1.4a15.549,15.549,0,0,0,1.729-.068,1.236,1.236,0,0,0,.957-.8c.373,1.563-.158,2.268-1.714,2.272C-2498.317-951.04-2498.634-951.043-2498.95-951.044Z" transform="translate(-174.045 -61.284)" fill="#8d0921"/>
    <path id="Trazado_189808" data-name="Trazado 189808" d="M-2493.314-885.543a5.117,5.117,0,0,1-4.668-1.577,10.883,10.883,0,0,1-.9-1.76l0-.878a.375.375,0,0,1,.322.24,4.3,4.3,0,0,0,4.333,2.573c.318-.013.637.006.955.01Z" transform="translate(-174.11 -109.9)" fill="#10172b"/>
    <path id="Trazado_189809" data-name="Trazado 189809" d="M-2606.715-867.254q-.012-.691-.025-1.381c.573-.029,1.153-.016,1.719-.1a1.357,1.357,0,0,0,.973-.79c.372,1.578-.15,2.272-1.714,2.275C-2606.08-867.249-2606.4-867.253-2606.715-867.254Z" transform="translate(-91.61 -125.377)" fill="#00729d"/>
    <path id="Trazado_189810" data-name="Trazado 189810" d="M-2707-788.347c.9.008,1.809,0,2.713.027a1.383,1.383,0,0,1,1.508,1.446,1.385,1.385,0,0,1-1.508,1.359c-.9.022-1.809.018-2.713.026a1.562,1.562,0,0,1-1.087.249c-1.755.007-3.51.019-5.265,0-1.684-.02-2.336-.671-2.356-2.349-.018-1.52-.038-3.042.014-4.562.021-.6.04-1.258.79-1.5,1.2-.819,2.393.273,2.295,1.528-.082,1.046,0,2.1-.026,3.155-.014.486.127.666.636.655C-2710.333-788.349-2708.667-788.339-2707-788.347Z" transform="translate(-8.241 -183.197)" fill="#efbb8d"/>
    <path id="Trazado_189811" data-name="Trazado 189811" d="M-2718.563-793.747a2.047,2.047,0,0,0-.542,1.524c.019,1.581,0,3.163.008,4.745,0,1.349.515,1.866,1.848,1.872q3.295.017,6.59.023l-.025,1.381q-4.03,0-8.06,0c-1.287,0-1.757-.459-1.76-1.718,0-2.19-.01-4.38,0-6.57a1.405,1.405,0,0,1,1.652-1.548A.351.351,0,0,1-2718.563-793.747Z" transform="translate(-4.583 -183.103)" fill="#00719d"/>
    <path id="Trazado_189812" data-name="Trazado 189812" d="M-2601.062-802.867a5.117,5.117,0,0,1-4.668-1.577,10.873,10.873,0,0,1-.9-1.76q0-.611,0-1.223a4.841,4.841,0,0,0,3.335,3.069,17.056,17.056,0,0,0,2.273.1Q-2601.044-803.563-2601.062-802.867Z" transform="translate(-91.691 -172.878)" fill="#10172b"/>
    <path id="Trazado_189813" data-name="Trazado 189813" d="M-2667.548-994.853a1.448,1.448,0,0,1-.506,1.151c-2.174,2.171-4.338,4.352-6.524,6.51a1.372,1.372,0,0,1-2.161.024q-1.549-1.491-3.045-3.038a1.417,1.417,0,0,1-.08-2.1,1.438,1.438,0,0,1,2.1.147c.549.526,1.106,1.049,1.608,1.619.36.409.58.4.962.005,1.675-1.718,3.379-3.408,5.085-5.094a1.442,1.442,0,0,1,2.225-.115A1.249,1.249,0,0,1-2667.548-994.853Z" transform="translate(-35.346 -28.465)" fill="#eceded"/>
  </g>
</svg>
