<svg id="Grupo_121497" data-name="Grupo 121497" xmlns="http://www.w3.org/2000/svg" width="124" height="124" viewBox="0 0 124 124">
  <g id="Elipse_6016" data-name="Elipse 6016" fill="#fff" stroke="#2631a0" stroke-width="4">
    <circle cx="62" cy="62" r="62" stroke="none"/>
    <circle cx="62" cy="62" r="60" fill="none"/>
  </g>
  <g id="Grupo_124476" data-name="Grupo 124476" transform="translate(3900.825 -646.346)">
    <g id="Grupo_124474" data-name="Grupo 124474" transform="translate(-3876.645 672.747)">
      <path id="Trazado_189839" data-name="Trazado 189839" d="M-3849.8,672.747h43.8a4.02,4.02,0,0,1,3.594,2.722,3.745,3.745,0,0,1,.294,1.488q.006,14.378,0,28.756a2.173,2.173,0,0,1-.107.82c-.235.435-.661.363-1.044.372a11.386,11.386,0,0,0-7.071,2.525,11.3,11.3,0,0,0-4.366,9.409,11.6,11.6,0,0,0,11.512,11.246,1.073,1.073,0,0,1,.9.258c.8,3.69-1,6.355-4.6,6.607a24.714,24.714,0,0,1-2.845-.008,3.038,3.038,0,0,1-.762.046q-18.946,0-37.891,0a5.158,5.158,0,0,1-4.345-1.913,4.458,4.458,0,0,1-.964-2.63c-.017-.37-.007-.741-.007-1.112q0-24.82,0-49.639c0-1.3,0-1.288-1.293-1.31a5.044,5.044,0,0,1-1.924-.138c-.317-.442.119-.444.325-.478a12.338,12.338,0,0,1,1.871-.047c1.04-.012,1.041-.008,1.047-1.039,0-.417,0-.833,0-1.25A4.358,4.358,0,0,1-3849.8,672.747Z" transform="translate(3860.667 -672.747)" fill="#f7ebbe"/>
      <path id="Trazado_189840" data-name="Trazado 189840" d="M-3825.58,768.848c0,.95.016,1.9,0,2.849a4.4,4.4,0,0,1-4.394,4.375q-21.127.019-42.257,0a4.382,4.382,0,0,1-4.409-4.629q-.009-18.9,0-37.808,0-8.444,0-16.889a4.361,4.361,0,0,1,3.626-4.513c1.02,0,2.04.008,3.058-.015.417-.009.606.131.563.559a5.55,5.55,0,0,0,0,.556c0,16.849.036,33.7-.035,50.545a4.794,4.794,0,0,0,4.984,4.981c12.654-.051,25.308-.022,37.961-.021C-3826.182,768.838-3825.881,768.844-3825.58,768.848Z" transform="translate(3876.645 -704.884)" fill="#e5b247"/>
      <path id="Trazado_189841" data-name="Trazado 189841" d="M-3788.936,710.894h18.841a6.207,6.207,0,0,1,.694.014.772.772,0,0,1,.751.84.767.767,0,0,1-.723.8,4.112,4.112,0,0,1-.555.016h-37.961a2.607,2.607,0,0,1-.622-.033.766.766,0,0,1-.685-.826.781.781,0,0,1,.792-.8c.207-.019.417-.007.625-.007Z" transform="translate(3821.73 -703.802)" fill="#c3a380"/>
      <path id="Trazado_189842" data-name="Trazado 189842" d="M-3788.969,749.992h-18.84c-.208,0-.418.012-.625-.007a.776.776,0,0,1-.77-.747.752.752,0,0,1,.632-.864,3,3,0,0,1,.759-.048q18.91,0,37.819,0a3.23,3.23,0,0,1,.555.011.871.871,0,0,1,.79.909.765.765,0,0,1-.785.737c-.207.021-.417.01-.625.01Z" transform="translate(3821.741 -734.275)" fill="#c3a380"/>
      <path id="Trazado_189843" data-name="Trazado 189843" d="M-3788.966,824.892q-9.456,0-18.91,0a3.683,3.683,0,0,1-.76-.039.7.7,0,0,1-.565-.7.709.709,0,0,1,.439-.785,2.521,2.521,0,0,1,1.024-.14q18.839,0,37.679,0a1.717,1.717,0,0,1,.948.145.792.792,0,0,1,.458.857.752.752,0,0,1-.779.659c-.208,0-.417,0-.626,0Z" transform="translate(3821.737 -795.262)" fill="#c3a380"/>
      <path id="Trazado_189844" data-name="Trazado 189844" d="M-3788.151,787.418h-18.77c-.208,0-.418.007-.625-.009a.77.77,0,0,1-.74-.781.749.749,0,0,1,.606-.822,3.027,3.027,0,0,1,.757-.055q18.84,0,37.679,0a2.573,2.573,0,0,1,.624.023.872.872,0,0,1,.721.9.77.77,0,0,1-.787.736c-.207.02-.417.009-.625.009Z" transform="translate(3820.992 -764.745)" fill="#c3a380"/>
      <path id="Trazado_189845" data-name="Trazado 189845" d="M-3790.348,973.508h17.52a4.489,4.489,0,0,1,.625.013.762.762,0,0,1,.693.673.764.764,0,0,1-.494.893,2.069,2.069,0,0,1-.891.09q-17.45,0-34.9,0H-3808c-.814-.01-1.192-.278-1.189-.844s.358-.826,1.187-.826Z" transform="translate(3821.727 -917.615)" fill="#c3a380"/>
      <path id="Trazado_189846" data-name="Trazado 189846" d="M-3791.815,860.66q7.958,0,15.917,0a2.845,2.845,0,0,1,1.027.129.753.753,0,0,1,.5.76.749.749,0,0,1-.508.756,2.555,2.555,0,0,1-.888.131q-15.986,0-31.973,0c-1.022,0-1.456-.276-1.453-.89,0-.631.41-.879,1.457-.879Z" transform="translate(3821.724 -825.74)" fill="#c3a381"/>
      <path id="Trazado_189847" data-name="Trazado 189847" d="M-3793.244,936.075h14.662a3.912,3.912,0,0,1,.693.021.734.734,0,0,1,.656.7.749.749,0,0,1-.5.825,2.389,2.389,0,0,1-.888.119h-29.325a1.719,1.719,0,0,1-.815-.118.767.767,0,0,1-.448-.855.712.712,0,0,1,.674-.677,5.893,5.893,0,0,1,.694-.016Z" transform="translate(3821.744 -887.138)" fill="#c3a380"/>
      <path id="Trazado_189848" data-name="Trazado 189848" d="M-3794.222,898.628h13.625a4.492,4.492,0,0,1,.625.014.755.755,0,0,1,.686.678.749.749,0,0,1-.423.8,1.964,1.964,0,0,1-1.014.173q-13.485,0-26.971,0a2.6,2.6,0,0,1-.959-.114.77.77,0,0,1-.507-.886.7.7,0,0,1,.689-.658,6.244,6.244,0,0,1,.625-.012Z" transform="translate(3821.707 -856.651)" fill="#c3a380"/>
    </g>
    <g id="Grupo_124475" data-name="Grupo 124475" transform="translate(-3846.781 678.185)">
      <path id="Trazado_189849" data-name="Trazado 189849" d="M-3688.007,757.053c-1.336.006-2.671.024-4.006.013a2.139,2.139,0,0,1-1.75-.957c-.107-.25.041-.447.139-.651a3.849,3.849,0,0,0-3.43-5.517,37.535,37.535,0,0,0-8.572.369c-.326.055-.678.225-.992-.06q-1.781-1.8-3.563-3.6a2.224,2.224,0,0,1-.011-3.512c.5-.51,1.271-.956,1.428-1.558s-.563-1.247-.858-1.895a24.356,24.356,0,0,1-1.423-3.831c-.1-.361-.249-.491-.617-.476-.624.026-1.25.012-1.875.006a2.185,2.185,0,0,1-2.359-2.2q-.073-3.647,0-7.3a2.166,2.166,0,0,1,2.306-2.179c.625-.008,1.252-.021,1.876.005a.559.559,0,0,0,.674-.493,21.591,21.591,0,0,1,2.209-5.3.481.481,0,0,0-.087-.712c-.51-.471-1-.964-1.479-1.469a2.14,2.14,0,0,1,.032-3.111q2.536-2.573,5.116-5.1a2.158,2.158,0,0,1,3.07-.071c.538.473,1.04.991,1.532,1.513a.48.48,0,0,0,.707.1,21.5,21.5,0,0,1,5.3-2.2c.372-.1.53-.26.506-.668-.039-.646-.019-1.3-.008-1.945a2.171,2.171,0,0,1,2.174-2.228c.81-.017,1.62.009,2.431.016a2.066,2.066,0,0,1,.591.922,59.321,59.321,0,0,1,2.939,8.069c.087.309.318.646-.012.962a20.717,20.717,0,0,1-2.552-.048,8.539,8.539,0,0,0-1.375.12,16.819,16.819,0,0,0-9.161,3.633,17.075,17.075,0,0,0-6.673,11.9,17,17,0,0,0,4.957,14.251,16.785,16.785,0,0,0,8.741,4.828,14.936,14.936,0,0,0,5.169.337,11.78,11.78,0,0,1,1.774-.022c.274.261.128.57.066.846a62.964,62.964,0,0,1-2.551,8.57A1.54,1.54,0,0,1-3688.007,757.053Z" transform="translate(3715.934 -702.009)" fill="#5d6883"/>
      <path id="Trazado_189850" data-name="Trazado 189850" d="M-3570.266,711.873a71.46,71.46,0,0,0-3.612-9.836c1.69-.007,3.38-.032,5.07-.014a2.136,2.136,0,0,1,2.011,2.013q.037,1.111,0,2.223c-.011.337.1.472.43.558a21.869,21.869,0,0,1,5.417,2.246.432.432,0,0,0,.641-.1c.458-.49.938-.961,1.421-1.428a2.206,2.206,0,0,1,3.228-.006q2.551,2.509,5.066,5.054a2.179,2.179,0,0,1,.017,3.218c-.446.471-.9.942-1.383,1.367-.315.275-.29.489-.1.818a21.617,21.617,0,0,1,2.173,5.226c.108.4.265.518.655.5.67-.028,1.343-.014,2.014-.006a2.136,2.136,0,0,1,2.133,1.806,15.116,15.116,0,0,1,.075,2.634c.018,1.551-.017,3.1.01,4.655a2.346,2.346,0,0,1-2.621,2.6,3.836,3.836,0,0,0-1.98.07c-.538.286-.469,1.178-.7,1.792a22.791,22.791,0,0,1-1.727,3.772c-.226.374-.245.625.114.934a17.7,17.7,0,0,1,1.38,1.37,2.137,2.137,0,0,1,.035,3.061q-2.594,2.661-5.264,5.249a2.183,2.183,0,0,1-3.074-.041c-.6-.567-1.136-1.5-1.815-1.619-.636-.113-1.418.638-2.147.986a18.606,18.606,0,0,1-3.5,1.274c-.368.092-.525.245-.5.655.042.669.019,1.343.009,2.014a2.151,2.151,0,0,1-2.153,2.16c-1.135.009-2.269-.01-3.4-.017a3.646,3.646,0,0,1,.407-1.237,67.98,67.98,0,0,0,2.515-8.741c.142-.251.4-.292.643-.352a17.439,17.439,0,0,0,10.055-6.4,16.927,16.927,0,0,0,3.594-8.752,17.078,17.078,0,0,0-3.823-13.1,17.226,17.226,0,0,0-10.516-6.262C-3569.765,712.168-3570.087,712.183-3570.266,711.873Z" transform="translate(3600.276 -702.015)" fill="#4c5970"/>
      <path id="Trazado_189851" data-name="Trazado 189851" d="M-3649.16,790.153a15.431,15.431,0,0,1-6.015-2.546,17.432,17.432,0,0,1-7.717-12.17,17.784,17.784,0,0,1,13.106-19.74,10.687,10.687,0,0,1,2.721-.461,14.911,14.911,0,0,1,8.158,3.331,17.1,17.1,0,0,1,6.4,9.43,17.542,17.542,0,0,1-2.746,15.328,17.912,17.912,0,0,1-5.279,4.865c-.264.163-.522.412-.886.251a1.181,1.181,0,0,1-.139-.737c0-1.712.012-3.424-.01-5.136a1.262,1.262,0,0,1,.814-1.288c3.849-1.935,5.921-5.072,5.833-9.39a9.536,9.536,0,0,0-4.885-8.292,1.114,1.114,0,0,0-.778-.24c-.664.078-.712.589-.726,1.082-.033,1.2-.009,2.408-.012,3.612,0,1.158.005,2.315,0,3.473a4.163,4.163,0,0,1-3.966,4.192,4.2,4.2,0,0,1-3.944-4.209c.076-2.174.023-4.352.011-6.529,0-.546.106-1.2-.473-1.5s-1.062.139-1.52.441a9.949,9.949,0,0,0-2.114,14.623,9.535,9.535,0,0,0,3.373,2.61,1.528,1.528,0,0,1,1,1.62c-.042,2.152-.011,4.306-.019,6.46C-3648.971,789.546-3648.9,789.886-3649.16,790.153Z" transform="translate(3672.913 -745.345)" fill="#ff004c"/>
      <path id="Trazado_189852" data-name="Trazado 189852" d="M-3617.319,824.805c0-2.572-.012-5.144.015-7.715a.9.9,0,0,0-.628-.973,9.838,9.838,0,0,1-6.01-8.455,9.811,9.811,0,0,1,4.323-9.166,4.973,4.973,0,0,1,.833-.5c.979-.456,1.53-.149,1.582.931.042.9-.011,1.806-.012,2.71,0,1.576-.03,3.152.018,4.726a3.8,3.8,0,0,0,2.419,3.514,3.772,3.772,0,0,0,5.1-3.444c.051-2.269.007-4.541.009-6.811a3.836,3.836,0,0,1,.071-1.172c.142-.454.387-.736.908-.635a6.264,6.264,0,0,1,2.438,2.951,10.344,10.344,0,0,1-4.569,13.781,1.646,1.646,0,0,0-1.042,1.722c.05,2.637.021,5.276.016,7.914a1.439,1.439,0,0,1-.182,1A13.629,13.629,0,0,1-3617.319,824.805Z" transform="translate(3641.072 -779.997)" fill="#b5dfec"/>
      <path id="Trazado_189853" data-name="Trazado 189853" d="M-3571.139,787.706a17.327,17.327,0,0,0,9.108-12.733,17.049,17.049,0,0,0-3.838-14.186,17.109,17.109,0,0,0-10.8-6.194c-.062-.01-.116-.069-.174-.1a9.912,9.912,0,0,1,3.343-.057,7.879,7.879,0,0,0,.821.024,20.734,20.734,0,0,1,5.083,1.529,17.386,17.386,0,0,1,10.16,13.575,17.7,17.7,0,0,1-13.4,19.828c-.112.027-.222.062-.333.094A1.824,1.824,0,0,1-3571.139,787.706Z" transform="translate(3602.689 -744.598)" fill="#df2a46"/>
      <path id="Trazado_189854" data-name="Trazado 189854" d="M-3557.243,823.2l-.029,1.775-.672.182a11.916,11.916,0,0,1-1.806.125c0-3.1.014-6.2-.024-9.3a1.246,1.246,0,0,1,.819-1.334,10,10,0,0,0,4.854-4.832,9.992,9.992,0,0,0-1.848-11.389c-.162-.163-.309-.342-.462-.513a6.056,6.056,0,0,1,3.185,2.2,10.14,10.14,0,0,1-3.57,16.187.665.665,0,0,0-.47.722C-3557.245,819.081-3557.248,821.141-3557.243,823.2Z" transform="translate(3588.793 -780.091)" fill="#88c6d9"/>
    </g>
  </g>
</svg>
