<svg xmlns="http://www.w3.org/2000/svg" width="329.316" height="431.106" viewBox="0 0 329.316 431.106">
  <g id="Grupo_124762" data-name="Grupo 124762" transform="translate(-633.813 -5317.18)">
    <path id="Trazado_190742" data-name="Trazado 190742" d="M21,0H308.316a21,21,0,0,1,21,21V410.106a21,21,0,0,1-21,21H21a21,21,0,0,1-21-21V21A21,21,0,0,1,21,0Z" transform="translate(633.813 5317.18)" fill="#eeeffb"/>
    <g id="Grupo_123083" data-name="Grupo 123083" transform="translate(675.774 5358.265)">
      <g id="Background_Complete" data-name="Background Complete" transform="translate(51.338 12.608)">
        <g id="Grupo_122829" data-name="Grupo 122829" transform="translate(0 9.866)">
          <g id="Grupo_122828" data-name="Grupo 122828">
            <g id="Grupo_122827" data-name="Grupo 122827">
              <g id="Grupo_122826" data-name="Grupo 122826">
                <g id="Grupo_122825" data-name="Grupo 122825">
                  <g id="Grupo_122824" data-name="Grupo 122824">
                    <path id="Trazado_188979" data-name="Trazado 188979" d="M409.678,91.366c.3-2.2-2.8-4.01-5.135-4.2a13.2,13.2,0,0,1-3.322-.288c-2.284-.8-3.2-3.746-5.424-4.686-1.666-.7-3.584-.077-5.2.736s-3.211,1.836-5.015,1.952c-1.57.1-3.274-.482-4.647.285-1.023.571-1.559,1.75-2.5,2.446a5.973,5.973,0,0,1-3.271.887,9.2,9.2,0,0,0-3.372.551,2.665,2.665,0,0,0-1.688,2.706Z" transform="translate(-370.067 -81.89)" fill="#ebebeb"/>
                  </g>
                </g>
              </g>
            </g>
          </g>
        </g>
        <g id="Grupo_122835" data-name="Grupo 122835" transform="translate(84.939 0)">
          <g id="Grupo_122834" data-name="Grupo 122834">
            <g id="Grupo_122833" data-name="Grupo 122833">
              <g id="Grupo_122832" data-name="Grupo 122832">
                <g id="Grupo_122831" data-name="Grupo 122831">
                  <g id="Grupo_122830" data-name="Grupo 122830">
                    <path id="Trazado_188980" data-name="Trazado 188980" d="M549.2,45.761c.3-2.2-2.8-4.01-5.135-4.2a13.223,13.223,0,0,1-3.322-.287c-2.284-.8-3.2-3.746-5.425-4.687-1.666-.7-3.583-.077-5.2.736s-3.211,1.836-5.015,1.951c-1.57.1-3.274-.481-4.648.285-1.023.571-1.559,1.751-2.5,2.446a5.967,5.967,0,0,1-3.271.887,9.214,9.214,0,0,0-3.373.551,2.665,2.665,0,0,0-1.689,2.705Z" transform="translate(-509.589 -36.285)" fill="#ebebeb"/>
                  </g>
                </g>
              </g>
            </g>
          </g>
        </g>
        <g id="Grupo_122841" data-name="Grupo 122841" transform="translate(146.361 85.348)">
          <g id="Grupo_122840" data-name="Grupo 122840">
            <g id="Grupo_122839" data-name="Grupo 122839">
              <g id="Grupo_122838" data-name="Grupo 122838">
                <g id="Grupo_122837" data-name="Grupo 122837">
                  <g id="Grupo_122836" data-name="Grupo 122836">
                    <path id="Trazado_188981" data-name="Trazado 188981" d="M660.265,205.489c.367-2.669-3.4-4.864-6.228-5.091a16.032,16.032,0,0,1-4.03-.348c-2.769-.966-3.876-4.544-6.579-5.684-2.02-.852-4.347-.094-6.306.892s-3.895,2.227-6.083,2.367c-1.9.122-3.971-.584-5.637.346-1.241.693-1.891,2.123-3.035,2.966a7.235,7.235,0,0,1-3.967,1.076,11.186,11.186,0,0,0-4.09.669,3.233,3.233,0,0,0-2.048,3.281Z" transform="translate(-612.222 -193.996)" fill="#e0e0e0"/>
                  </g>
                </g>
              </g>
            </g>
          </g>
        </g>
      </g>
      <g id="Security_Icon" data-name="Security Icon" transform="translate(34.625 0)">
        <g id="Grupo_122868" data-name="Grupo 122868">
          <g id="Grupo_122865" data-name="Grupo 122865">
            <g id="Grupo_122856" data-name="Grupo 122856" transform="translate(4.21 4.702)">
              <g id="Grupo_122848" data-name="Grupo 122848">
                <g id="Grupo_122847" data-name="Grupo 122847">
                  <g id="Grupo_122846" data-name="Grupo 122846">
                    <g id="Grupo_122845" data-name="Grupo 122845">
                      <g id="Grupo_122844" data-name="Grupo 122844">
                        <g id="Grupo_122843" data-name="Grupo 122843">
                          <g id="Grupo_122842" data-name="Grupo 122842">
                            <path id="Trazado_188982" data-name="Trazado 188982" d="M406.636,62.475l-25.22-8.46-24.975,8.346c-3.188,1.406-5.985,2.249-5.985,5.023V81.2a49.652,49.652,0,0,0,8.228,27.492,50.191,50.191,0,0,0,22.978,18.957c10.209-3.1,17.829-11.355,22.488-18.417a49.651,49.651,0,0,0,8.227-27.492V69.315C412.376,65.358,410.132,63.426,406.636,62.475Z" transform="translate(-350.456 -54.015)" fill="#757ac6"/>
                          </g>
                        </g>
                      </g>
                    </g>
                  </g>
                </g>
              </g>
              <g id="Grupo_122855" data-name="Grupo 122855" transform="translate(3.93 3.99)">
                <g id="Grupo_122854" data-name="Grupo 122854">
                  <g id="Grupo_122853" data-name="Grupo 122853">
                    <g id="Grupo_122852" data-name="Grupo 122852">
                      <g id="Grupo_122851" data-name="Grupo 122851">
                        <g id="Grupo_122850" data-name="Grupo 122850">
                          <g id="Grupo_122849" data-name="Grupo 122849">
                            <path id="Trazado_188983" data-name="Trazado 188983" d="M383.845,124.475l-.106-.044a43.689,43.689,0,0,1-27.12-40.368V72.145c0-2.335,2.059-3.214,4.444-4.233.3-.127.6-.257.91-.393l21.677-7.245L405.5,67.6c3.485.951,5.178,2.981,5.178,6.206V84.528a43.261,43.261,0,0,1-7.151,23.895c-3.1,4.706-9.777,13.046-19.575,16.019Zm-.2-63.529L362.2,68.113c-.284.127-.59.258-.889.386-2.267.968-4.057,1.733-4.057,3.647V84.063A43.052,43.052,0,0,0,383.879,123.8c9.548-2.944,16.074-11.11,19.119-15.727a42.623,42.623,0,0,0,7.045-23.544V73.81c0-2.94-1.5-4.718-4.717-5.594l-.017-.005Z" transform="translate(-356.62 -60.274)" fill="#fff"/>
                          </g>
                        </g>
                      </g>
                    </g>
                  </g>
                </g>
              </g>
            </g>
            <g id="Grupo_122864" data-name="Grupo 122864">
              <g id="Grupo_122863" data-name="Grupo 122863">
                <g id="Grupo_122862" data-name="Grupo 122862">
                  <g id="Grupo_122861" data-name="Grupo 122861">
                    <g id="Grupo_122860" data-name="Grupo 122860">
                      <g id="Grupo_122859" data-name="Grupo 122859">
                        <g id="Grupo_122858" data-name="Grupo 122858">
                          <g id="Grupo_122857" data-name="Grupo 122857">
                            <path id="Trazado_188984" data-name="Trazado 188984" d="M407.543,56.321a11.126,11.126,0,0,1,1.688.541,9.142,9.142,0,0,1,1.909,1.013,6.546,6.546,0,0,1,2.008,2.168,7.738,7.738,0,0,1,.94,3.593c.034,1.369.017,2.851.027,4.453,0,3.2.032,6.861.006,10.936a56.843,56.843,0,0,1-1.754,13.285,56.205,56.205,0,0,1-5.933,14.394,62.152,62.152,0,0,1-10.849,13.671,42.051,42.051,0,0,1-16.237,9.8l-.056.017-.053-.022a66.793,66.793,0,0,1-6.552-3.2,59.9,59.9,0,0,1-6.268-4.124,56.3,56.3,0,0,1-10.948-10.939,57.03,57.03,0,0,1-8.07-14.6,56.238,56.238,0,0,1-3.394-15.618c-.2-2.6-.143-5.17-.151-7.689s0-5.005,0-7.445l0-3.628a11.422,11.422,0,0,1,.074-1.811,3.52,3.52,0,0,1,.757-1.66,8.256,8.256,0,0,1,2.892-2.022c1.049-.494,2.108-.92,3.137-1.374l.006,0,.006,0,28.254-9.406.035-.011.034.012,20.96,7.083,5.6,1.908,1.442.5c.324.114.486.179.486.179s-.168-.045-.5-.15L405.6,55.7l-5.615-1.853-20.994-6.99h.069l-28.233,9.471.012-.005c-1.033.458-2.092.885-3.127,1.375a7.994,7.994,0,0,0-2.786,1.944,3.221,3.221,0,0,0-.7,1.528,11.277,11.277,0,0,0-.067,1.758q0,1.8,0,3.628,0,3.66,0,7.445c.01,2.523-.043,5.083.156,7.666a55.982,55.982,0,0,0,3.383,15.526,56.734,56.734,0,0,0,8.027,14.513,56.024,56.024,0,0,0,10.883,10.878,59.79,59.79,0,0,0,6.23,4.1,66.737,66.737,0,0,0,6.515,3.186l-.108-.006a41.78,41.78,0,0,0,16.124-9.715,62.009,62.009,0,0,0,10.816-13.59,56.085,56.085,0,0,0,5.936-14.315,56.858,56.858,0,0,0,1.786-13.227c.014-4.071.027-7.731.038-10.933,0-1.6.023-3.089,0-4.447a7.65,7.65,0,0,0-.9-3.544,6.483,6.483,0,0,0-1.96-2.153,9.309,9.309,0,0,0-1.882-1.03c-.536-.224-.956-.365-1.24-.452S407.543,56.321,407.543,56.321Z" transform="translate(-343.853 -46.639)" fill="#757ac6"/>
                          </g>
                        </g>
                      </g>
                    </g>
                  </g>
                </g>
              </g>
            </g>
          </g>
          <g id="Grupo_122867" data-name="Grupo 122867" transform="translate(20.101 27.731)">
            <g id="Grupo_122866" data-name="Grupo 122866">
              <path id="Trazado_188985" data-name="Trazado 188985" d="M389.624,114.6l-14.242-11.913,4.157-4.97,9.55,7.988,14.624-15.567,4.722,4.436Z" transform="translate(-375.382 -90.136)" fill="#fff"/>
            </g>
          </g>
        </g>
      </g>
      <g id="Speech_Bubble" data-name="Speech Bubble" transform="translate(183.934 17.567)">
        <g id="Grupo_122892" data-name="Grupo 122892" transform="translate(0 0)">
          <g id="Grupo_122884" data-name="Grupo 122884">
            <g id="Grupo_122883" data-name="Grupo 122883">
              <g id="Grupo_122882" data-name="Grupo 122882">
                <g id="Grupo_122881" data-name="Grupo 122881">
                  <g id="Grupo_122880" data-name="Grupo 122880">
                    <g id="Grupo_122879" data-name="Grupo 122879">
                      <g id="Grupo_122878" data-name="Grupo 122878">
                        <g id="Grupo_122877" data-name="Grupo 122877">
                          <g id="Grupo_122876" data-name="Grupo 122876">
                            <g id="Grupo_122875" data-name="Grupo 122875">
                              <g id="Grupo_122874" data-name="Grupo 122874">
                                <g id="Grupo_122873" data-name="Grupo 122873">
                                  <g id="Grupo_122872" data-name="Grupo 122872">
                                    <g id="Grupo_122869" data-name="Grupo 122869" transform="translate(0 0.146)">
                                      <path id="Trazado_188986" data-name="Trazado 188986" d="M578.05,119.168l4.479-7.626a28.15,28.15,0,1,1,4.9,8.815l.006.015Z" transform="translate(-578.05 -74.423)" fill="#fff"/>
                                    </g>
                                    <g id="Grupo_122871" data-name="Grupo 122871">
                                      <g id="Grupo_122870" data-name="Grupo 122870">
                                        <path id="Trazado_188987" data-name="Trazado 188987" d="M578.05,119.085s.216.021.624.069l1.8.215,6.968.848-.075.1-.006-.015-.234-.5.355.428a28.123,28.123,0,0,0,11.132,8.156,27.322,27.322,0,0,0,4.136,1.306,31.3,31.3,0,0,0,4.6.647,27.848,27.848,0,0,0,19.744-6.5,28.124,28.124,0,0,0,7.305-9.452,28,28,0,0,0-.7-25.2l-.846-1.5c-.312-.481-.65-.943-.973-1.413a27.492,27.492,0,0,0-2.125-2.66c-.358-.439-.8-.8-1.19-1.2-.413-.381-.784-.808-1.229-1.148l-1.308-1.044c-.221-.168-.426-.358-.659-.509l-.7-.452a28.412,28.412,0,0,0-12-4.52,27.826,27.826,0,0,0-12.026,1.115,28.023,28.023,0,0,0-16.132,13.383l-.551,1.063-.272.525-.219.544q-.428,1.087-.843,2.138a38.272,38.272,0,0,0-1.072,4.22,28.009,28.009,0,0,0,1.035,13.717l.01.031-.017.027-3.357,5.631-.875,1.459c-.2.329-.307.5-.307.5s.087-.161.273-.486l.838-1.457,3.308-5.717-.006.058a28,28,0,0,1-1.117-13.8,38.154,38.154,0,0,1,1.065-4.257l.843-2.159.219-.55.272-.53.553-1.074a28.291,28.291,0,0,1,28.42-14.7,28.709,28.709,0,0,1,12.143,4.562l.705.458c.235.153.444.344.667.514l1.324,1.056c.45.344.826.775,1.244,1.161.4.406.841.771,1.2,1.215a27.974,27.974,0,0,1,2.15,2.691c.327.476.669.944.984,1.431l.856,1.519a28.292,28.292,0,0,1,.695,25.5,28.363,28.363,0,0,1-17.239,14.9,28.059,28.059,0,0,1-10.114,1.168,31.362,31.362,0,0,1-4.635-.669,27.418,27.418,0,0,1-4.165-1.332,28.122,28.122,0,0,1-11.161-8.269l.122-.076.006.014.054.119-.129-.017-7.007-.943-1.781-.245C578.242,119.117,578.05,119.085,578.05,119.085Z" transform="translate(-578.05 -74.194)" fill="#263238"/>
                                      </g>
                                    </g>
                                  </g>
                                </g>
                              </g>
                            </g>
                          </g>
                        </g>
                      </g>
                    </g>
                  </g>
                </g>
              </g>
            </g>
          </g>
          <g id="Grupo_122891" data-name="Grupo 122891" transform="translate(18.814 16.177)">
            <g id="Grupo_122888" data-name="Grupo 122888" transform="translate(0 3.239)">
              <g id="Grupo_122885" data-name="Grupo 122885" transform="translate(0.203 0.169)">
                <rect id="Rect치ngulo_43652" data-name="Rect치ngulo 43652" width="20.422" height="20.422" fill="#e0e0e0"/>
              </g>
              <g id="Grupo_122887" data-name="Grupo 122887">
                <g id="Grupo_122886" data-name="Grupo 122886">
                  <path id="Trazado_188988" data-name="Trazado 188988" d="M628.186,125.239a.61.61,0,0,1-.007-.1c0-.079-.005-.173-.008-.288,0-.271-.01-.638-.017-1.107-.009-.983-.022-2.388-.037-4.165-.018-3.585-.043-8.668-.073-14.759l.143.143-20.42.022c-.038.036.312-.312.164-.163v5.506c0,1.8,0,3.564,0,5.279-.006,3.428-.011,6.664-.016,9.633l-.143-.143,14.76.073,4.165.038,1.107.017.288.008a.541.541,0,0,1,.1.008,2.873,2.873,0,0,1-.359.016l-1.079.017-4.133.038-14.851.073h-.143v-.144c0-2.97-.011-6.205-.016-9.633,0-1.715,0-3.478,0-5.279q0-1.351,0-2.73V104.82c-.149.147.2-.206.168-.17l20.42.023h.145v.143c-.03,6.129-.055,11.244-.073,14.85-.016,1.764-.029,3.158-.038,4.133-.007.457-.013.815-.016,1.079A2.737,2.737,0,0,1,628.186,125.239Z" transform="translate(-607.561 -104.648)" fill="#263238"/>
                </g>
              </g>
            </g>
            <g id="Grupo_122890" data-name="Grupo 122890" transform="translate(1.392)">
              <g id="Grupo_122889" data-name="Grupo 122889">
                <path id="Trazado_188989" data-name="Trazado 188989" d="M622.019,120.652l-12.275-10.268,3.583-4.283,8.231,6.885,12.6-13.418,4.07,3.823Z" transform="translate(-609.744 -99.568)" fill="#455a64"/>
              </g>
            </g>
          </g>
        </g>
      </g>
      <g id="Character" transform="translate(0 29.628)">
        <g id="Grupo_123082" data-name="Grupo 123082">
          <g id="Grupo_122893" data-name="Grupo 122893" transform="translate(88.068 92.922)">
            <path id="Trazado_188990" data-name="Trazado 188990" d="M467.217,249.184l-15.1-10.094a10.082,10.082,0,0,0-11.713,7.475c-4.994-1.045-10.289,2.449-12.009,7.253s-.211,10.4,3.1,14.278,8.194,6.18,13.2,7.174c7.2,1.429,15.619-.145,19.931-6.085C468.68,263.608,468.037,256.027,467.217,249.184Z" transform="translate(-427.681 -238.864)" fill="#263238"/>
          </g>
          <g id="Grupo_122894" data-name="Grupo 122894" transform="translate(142.293 45.48)">
            <path id="Trazado_188991" data-name="Trazado 188991" d="M562.788,210.753a13.813,13.813,0,0,0-7.882-12.156c1.724-6.03,3.629-12.363,2.294-18.49-3.017-13.843-15.493-15.747-21.763-15.654l-20.623,13.16c-5.516,6.259,1.413,40.593,3.9,48.557a24.9,24.9,0,0,0,17.43,16.425c5.765,1.43,12.355.518,16.754-3.471s5.8-11.337,2.223-16.078A13.813,13.813,0,0,0,562.788,210.753Z" transform="translate(-512.735 -164.449)" fill="#263238"/>
          </g>
          <g id="Grupo_122913" data-name="Grupo 122913" transform="translate(64.856 103.48)">
            <g id="Grupo_122902" data-name="Grupo 122902">
              <g id="Grupo_122901" data-name="Grupo 122901">
                <g id="Grupo_122895" data-name="Grupo 122895" transform="translate(21.605)">
                  <path id="Trazado_188992" data-name="Trazado 188992" d="M425.159,301.316l1.909,84.532,112.672.444s-8.358-118.661-10.792-119.82c-1.816-.865-24.075-8.167-24.075-8.167l-9.9-2.881-40.921,7.849-14.841,3.25Z" transform="translate(-425.159 -255.424)" fill="#455a64"/>
                </g>
                <g id="Grupo_122900" data-name="Grupo 122900" transform="translate(0 0.628)">
                  <g id="Grupo_122897" data-name="Grupo 122897" transform="translate(0 9.762)">
                    <g id="Grupo_122896" data-name="Grupo 122896">
                      <path id="Trazado_188993" data-name="Trazado 188993" d="M419.405,293.1c0-.221,10.764-21.381,10.764-21.381-10.546,1.109-19.964,4.832-26.085,12.861-2.846,3.733-4.125,9.4-5.543,13.431-.961,2.734-7.271,39.526-7.271,39.526l25,10.241Z" transform="translate(-391.271 -271.721)" fill="#455a64"/>
                    </g>
                  </g>
                  <g id="Grupo_122898" data-name="Grupo 122898" transform="translate(19.86 7.695)">
                    <path id="Trazado_188994" data-name="Trazado 188994" d="M470.409,322.878l-23.58-54.4c-8.592,1.928-18.25,4.094-24.407,8.058l3.254,39.988-.474,74.495,45.136.236,2.781-53.014Z" transform="translate(-422.422 -268.48)" fill="#c6c8e9"/>
                  </g>
                  <g id="Grupo_122899" data-name="Grupo 122899" transform="translate(67.776)">
                    <path id="Trazado_188995" data-name="Trazado 188995" d="M557.769,332.369l-4.861-67.191-27.372-8.768L497.58,318.047v68.835l69.088-.231Z" transform="translate(-497.58 -256.41)" fill="#c6c8e9"/>
                  </g>
                </g>
              </g>
            </g>
            <g id="Grupo_122904" data-name="Grupo 122904" transform="translate(67.61 0.448)">
              <g id="Grupo_122903" data-name="Grupo 122903">
                <path id="Trazado_188996" data-name="Trazado 188996" d="M557.675,332.267s.065.323.174.954.269,1.577.478,2.807c.413,2.473,1.02,6.111,1.8,10.795,1.551,9.381,3.793,22.947,6.563,39.706l.023.139h-.141l-69.087.269h-.159v-.159c0-16.86-.005-35.21-.008-54.256V317.909l.015-.033,27.974-61.63.054-.119.124.04,27.366,8.784.083.027.006.087c1.465,20.582,2.661,37.378,3.491,49.035.406,5.824.722,10.363.938,13.452.1,1.538.183,2.715.236,3.513s.067,1.2.067,1.2-.042-.405-.106-1.2-.153-1.972-.272-3.509c-.231-3.088-.572-7.624-1.008-13.444-.857-11.657-2.091-28.452-3.6-49.032l.089.114-27.376-8.75.178-.08-27.941,61.645.015-.069c0,4.794,0,9.663,0,14.579,0,19.046-.005,37.4-.008,54.256l-.159-.158,69.088-.193-.117.139c-2.726-16.769-4.933-30.342-6.458-39.728l-1.739-10.8c-.194-1.232-.343-2.172-.444-2.811S557.675,332.267,557.675,332.267Z" transform="translate(-497.32 -256.127)" fill="#263238"/>
              </g>
            </g>
            <g id="Grupo_122905" data-name="Grupo 122905" transform="translate(23.514 74.818)">
              <rect id="Rect치ngulo_43653" data-name="Rect치ngulo 43653" width="97.007" height="12.683" fill="#fff"/>
            </g>
            <g id="Grupo_122906" data-name="Grupo 122906" transform="translate(123.577 10.355)">
              <path id="Trazado_188997" data-name="Trazado 188997" d="M585.106,271.666s6.31-.073,15.445,16.343c10.255,18.429,16.811,41.823,16.811,41.823l-25.255,13.784Z" transform="translate(-585.106 -271.666)" fill="#455a64"/>
            </g>
            <g id="Grupo_122907" data-name="Grupo 122907" transform="translate(29.09 9.455)">
              <path id="Trazado_188998" data-name="Trazado 188998" d="M436.9,273.04l2.745,118.63,10.805.058-3.742-121.473S438.6,272.156,436.9,273.04Z" transform="translate(-436.9 -270.255)" fill="#fff"/>
            </g>
            <g id="Grupo_122908" data-name="Grupo 122908" transform="translate(102.32 3.797)">
              <path id="Trazado_188999" data-name="Trazado 188999" d="M555.069,261.379l-3.3,127.132h14.122l.659-123.3Z" transform="translate(-551.764 -261.379)" fill="#fff"/>
            </g>
            <g id="Grupo_122910" data-name="Grupo 122910" transform="translate(76.657 29.709)" opacity="0.3">
              <g id="Grupo_122909" data-name="Grupo 122909">
                <path id="Trazado_189000" data-name="Trazado 189000" d="M511.511,310.058a16.287,16.287,0,0,0,7.8,12.239c2.059,1.216,4.407,1.983,6.211,3.554a17.713,17.713,0,0,1,3.838,5.693c7.651,15.335,15.317,30.708,21.221,46.8,1.321,3.6,2.573,7.272,4.687,10.47s5.242,5.926,9.005,6.653,8.118-1.007,9.616-4.536l-47.644-88.9Z" transform="translate(-511.511 -302.023)"/>
              </g>
            </g>
            <g id="Grupo_122912" data-name="Grupo 122912" transform="translate(19.706 7.969)">
              <g id="Grupo_122911" data-name="Grupo 122911">
                <path id="Trazado_189001" data-name="Trazado 189001" d="M470.25,322.22s.014.423.021,1.248.011,2.055.02,3.652c.009,3.211.022,7.914.038,13.917.014,12.014.034,29.221.058,50.019v.138h-.138l-45.211-.242h-.159v-.16c.084-13.383.173-27.818.266-42.738.071-11.047.141-21.826.208-32.184v.014c-1.123-14.023-2.187-27.3-3.167-39.533l-.007-.09.076-.047A52.684,52.684,0,0,1,434.691,271c4.155-1.238,8.213-2.177,12.1-3.05l.1-.023.043.1,17.052,39.551,4.655,10.846c.528,1.239.931,2.187,1.206,2.832s.4.969.4.969-.154-.324-.437-.961l-1.242-2.824-4.722-10.825c-4.076-9.387-9.949-22.91-17.148-39.485l.147.075c-3.884.879-7.935,1.823-12.077,3.064a52.482,52.482,0,0,0-12.359,5.2l.069-.136c.99,12.234,2.063,25.509,3.2,39.53v.014c-.064,10.359-.132,21.137-.2,32.184-.1,14.921-.191,29.355-.278,42.738l-.159-.161,45.21.287-.138.137c.024-20.8.044-38,.058-50.019.017-6,.029-10.7.038-13.906.009-1.6.015-2.822.02-3.655S470.25,322.22,470.25,322.22Z" transform="translate(-422.18 -267.924)" fill="#263238"/>
              </g>
            </g>
          </g>
          <g id="Grupo_123043" data-name="Grupo 123043" transform="translate(81.4)">
            <g id="Grupo_123035" data-name="Grupo 123035">
              <g id="Grupo_123034" data-name="Grupo 123034">
                <g id="Grupo_122915" data-name="Grupo 122915" transform="translate(9.431 30.599)">
                  <g id="Grupo_122914" data-name="Grupo 122914">
                    <path id="Trazado_189002" data-name="Trazado 189002" d="M435.195,153.467a8.065,8.065,0,0,1,6.316-12.36l12.748,1.866-3.711,21.538c-.355,2.061-.771,4.249-2.205,5.772a7.319,7.319,0,0,1-5.411,2.013,11.037,11.037,0,0,1-7.737-18.83Z" transform="translate(-432.014 -141.107)" fill="#263238"/>
                  </g>
                </g>
                <g id="Grupo_122985" data-name="Grupo 122985" transform="translate(17.524 13.045)">
                  <g id="Grupo_122984" data-name="Grupo 122984">
                    <g id="Grupo_122917" data-name="Grupo 122917">
                      <g id="Grupo_122916" data-name="Grupo 122916">
                        <path id="Trazado_189003" data-name="Trazado 189003" d="M478.416,226.268c10.649-.023,22.163-11.242,22.37-21.888l1.138-58.344c.883-17.2-8.391-32.055-25.611-32.461l-1.594.055a30.792,30.792,0,0,0-29.7,29.359c-.683,14.914-.1,28.381.278,36.357.777,16.511,16.2,19.148,16.2,19.148.037,0-1.329,14.533.941,18.819,5.082,9.6,9.129,8.776,15.97,8.956Z" transform="translate(-444.708 -113.574)" fill="#fff"/>
                      </g>
                    </g>
                    <g id="Grupo_122919" data-name="Grupo 122919" transform="translate(16.493 77.834)">
                      <g id="Grupo_122918" data-name="Grupo 122918">
                        <path id="Trazado_189004" data-name="Trazado 189004" d="M470.753,242.765a39.926,39.926,0,0,0,21.285-7.1s-4.927,12.507-21.461,11.591Z" transform="translate(-470.578 -235.66)" fill="#ebebeb"/>
                      </g>
                    </g>
                    <g id="Grupo_122927" data-name="Grupo 122927" transform="translate(7.889 40.44)">
                      <g id="Grupo_122926" data-name="Grupo 122926">
                        <g id="Grupo_122925" data-name="Grupo 122925">
                          <g id="Grupo_122924" data-name="Grupo 122924">
                            <g id="Grupo_122923" data-name="Grupo 122923">
                              <g id="Grupo_122922" data-name="Grupo 122922">
                                <g id="Grupo_122921" data-name="Grupo 122921">
                                  <g id="Grupo_122920" data-name="Grupo 122920">
                                    <path id="Trazado_189005" data-name="Trazado 189005" d="M457.083,179.219a2.361,2.361,0,0,0,2.357,2.3,2.258,2.258,0,0,0,2.358-2.212,2.361,2.361,0,0,0-2.354-2.3A2.259,2.259,0,0,0,457.083,179.219Z" transform="translate(-457.083 -177.005)" fill="#263238"/>
                                  </g>
                                </g>
                              </g>
                            </g>
                          </g>
                        </g>
                      </g>
                    </g>
                    <g id="Grupo_122936" data-name="Grupo 122936" transform="translate(4.363 33.169)">
                      <g id="Grupo_122935" data-name="Grupo 122935">
                        <g id="Grupo_122934" data-name="Grupo 122934">
                          <g id="Grupo_122933" data-name="Grupo 122933">
                            <g id="Grupo_122932" data-name="Grupo 122932">
                              <g id="Grupo_122931" data-name="Grupo 122931">
                                <g id="Grupo_122930" data-name="Grupo 122930">
                                  <g id="Grupo_122929" data-name="Grupo 122929">
                                    <g id="Grupo_122928" data-name="Grupo 122928">
                                      <path id="Trazado_189006" data-name="Trazado 189006" d="M451.592,168.245c.3.3,2.044-1.088,4.583-1.169,2.534-.118,4.442,1.123,4.707.8.13-.143-.187-.688-1.018-1.25a6.48,6.48,0,0,0-3.782-1.023,6.223,6.223,0,0,0-3.635,1.314C451.689,167.546,451.443,168.112,451.592,168.245Z" transform="translate(-451.551 -165.601)" fill="#263238"/>
                                    </g>
                                  </g>
                                </g>
                              </g>
                            </g>
                          </g>
                        </g>
                      </g>
                    </g>
                    <g id="Grupo_122944" data-name="Grupo 122944" transform="translate(30.996 40.44)">
                      <g id="Grupo_122943" data-name="Grupo 122943">
                        <g id="Grupo_122942" data-name="Grupo 122942">
                          <g id="Grupo_122941" data-name="Grupo 122941">
                            <g id="Grupo_122940" data-name="Grupo 122940">
                              <g id="Grupo_122939" data-name="Grupo 122939">
                                <g id="Grupo_122938" data-name="Grupo 122938">
                                  <g id="Grupo_122937" data-name="Grupo 122937">
                                    <path id="Trazado_189007" data-name="Trazado 189007" d="M493.327,179.22a2.36,2.36,0,0,0,2.357,2.3,2.257,2.257,0,0,0,2.358-2.212,2.361,2.361,0,0,0-2.355-2.3A2.259,2.259,0,0,0,493.327,179.22Z" transform="translate(-493.327 -177.006)" fill="#263238"/>
                                  </g>
                                </g>
                              </g>
                            </g>
                          </g>
                        </g>
                      </g>
                    </g>
                    <g id="Grupo_122953" data-name="Grupo 122953" transform="translate(29.263 33.334)">
                      <g id="Grupo_122952" data-name="Grupo 122952">
                        <g id="Grupo_122951" data-name="Grupo 122951">
                          <g id="Grupo_122950" data-name="Grupo 122950">
                            <g id="Grupo_122949" data-name="Grupo 122949">
                              <g id="Grupo_122948" data-name="Grupo 122948">
                                <g id="Grupo_122947" data-name="Grupo 122947">
                                  <g id="Grupo_122946" data-name="Grupo 122946">
                                    <g id="Grupo_122945" data-name="Grupo 122945">
                                      <path id="Trazado_189008" data-name="Trazado 189008" d="M490.649,168.5c.3.3,2.047-1.086,4.584-1.168,2.533-.117,4.442,1.123,4.707.8.13-.142-.183-.687-1.019-1.249a6.473,6.473,0,0,0-3.781-1.024,6.226,6.226,0,0,0-3.635,1.314C490.747,167.8,490.5,168.37,490.649,168.5Z" transform="translate(-490.608 -165.859)" fill="#263238"/>
                                    </g>
                                  </g>
                                </g>
                              </g>
                            </g>
                          </g>
                        </g>
                      </g>
                    </g>
                    <g id="Grupo_122961" data-name="Grupo 122961" transform="translate(14.342 34.607)">
                      <g id="Grupo_122960" data-name="Grupo 122960">
                        <g id="Grupo_122959" data-name="Grupo 122959">
                          <g id="Grupo_122958" data-name="Grupo 122958">
                            <g id="Grupo_122957" data-name="Grupo 122957">
                              <g id="Grupo_122956" data-name="Grupo 122956">
                                <g id="Grupo_122955" data-name="Grupo 122955">
                                  <g id="Grupo_122954" data-name="Grupo 122954">
                                    <path id="Trazado_189009" data-name="Trazado 189009" d="M473.737,189.047c.007-.145-1.581-.363-4.148-.6-.65-.044-1.269-.152-1.393-.59a3.3,3.3,0,0,1,.366-1.936q.833-2.385,1.746-5c2.418-7.12,4.145-12.964,3.857-13.06s-2.481,5.6-4.9,12.718q-.871,2.634-1.664,5.03a3.755,3.755,0,0,0-.248,2.555,1.629,1.629,0,0,0,1.1.911,4.421,4.421,0,0,0,1.106.115C472.136,189.235,473.732,189.191,473.737,189.047Z" transform="translate(-467.205 -167.856)" fill="#263238"/>
                                  </g>
                                </g>
                              </g>
                            </g>
                          </g>
                        </g>
                      </g>
                    </g>
                    <g id="Grupo_122963" data-name="Grupo 122963" transform="translate(21.915 57.947)">
                      <g id="Grupo_122962" data-name="Grupo 122962">
                        <path id="Trazado_189010" data-name="Trazado 189010" d="M480.373,211.575a3.131,3.131,0,0,0,2.207.9,3.353,3.353,0,0,0,2.309-1,4.543,4.543,0,0,0,1.1-4.04,1.749,1.749,0,0,0-.256-.669,1.329,1.329,0,0,0-.082-.375,2.946,2.946,0,0,0-1.642-1.667,3.8,3.8,0,0,0-2.4-.113,3.666,3.666,0,0,0-2.469,3.006A4.627,4.627,0,0,0,480.373,211.575Z" transform="translate(-479.083 -204.466)" fill="#ebebeb"/>
                      </g>
                    </g>
                    <g id="Grupo_122971" data-name="Grupo 122971" transform="translate(19.807 58.056)">
                      <g id="Grupo_122970" data-name="Grupo 122970">
                        <g id="Grupo_122969" data-name="Grupo 122969">
                          <g id="Grupo_122968" data-name="Grupo 122968">
                            <g id="Grupo_122967" data-name="Grupo 122967">
                              <g id="Grupo_122966" data-name="Grupo 122966">
                                <g id="Grupo_122965" data-name="Grupo 122965">
                                  <g id="Grupo_122964" data-name="Grupo 122964">
                                    <path id="Trazado_189011" data-name="Trazado 189011" d="M485.208,204.641c-.4-.118-1.035,2.564-3.782,3.925s-5.533.392-5.643.762c-.077.159.515.671,1.714.989a6.866,6.866,0,0,0,4.674-.485,5.98,5.98,0,0,0,3-3.332C485.538,205.4,485.4,204.669,485.208,204.641Z" transform="translate(-475.777 -204.637)" fill="#263238"/>
                                  </g>
                                </g>
                              </g>
                            </g>
                          </g>
                        </g>
                      </g>
                    </g>
                    <g id="Grupo_122975" data-name="Grupo 122975" transform="translate(28.634 25.131)">
                      <g id="Grupo_122974" data-name="Grupo 122974">
                        <g id="Grupo_122973" data-name="Grupo 122973">
                          <g id="Grupo_122972" data-name="Grupo 122972">
                            <path id="Trazado_189012" data-name="Trazado 189012" d="M489.638,155.073c.275.681,2.8.266,5.788.521,3,.2,5.428.984,5.8.352.166-.3-.276-.937-1.27-1.572a10.1,10.1,0,0,0-8.829-.665C490.05,154.187,489.519,154.749,489.638,155.073Z" transform="translate(-489.621 -152.994)" fill="#263238"/>
                          </g>
                        </g>
                      </g>
                    </g>
                    <g id="Grupo_122979" data-name="Grupo 122979" transform="translate(5.004 23.648)">
                      <g id="Grupo_122978" data-name="Grupo 122978">
                        <g id="Grupo_122977" data-name="Grupo 122977">
                          <g id="Grupo_122976" data-name="Grupo 122976">
                            <path id="Trazado_189013" data-name="Trazado 189013" d="M452.63,153.454c.467.561,2.2-.1,4.3-.2,2.1-.175,3.9.252,4.285-.365.169-.3-.131-.866-.928-1.385a6.227,6.227,0,0,0-6.915.455C452.647,152.577,452.424,153.18,452.63,153.454Z" transform="translate(-452.557 -150.668)" fill="#263238"/>
                          </g>
                        </g>
                      </g>
                    </g>
                    <g id="Grupo_122981" data-name="Grupo 122981" transform="translate(56.528 43.751)">
                      <g id="Grupo_122980" data-name="Grupo 122980">
                        <path id="Trazado_189014" data-name="Trazado 189014" d="M533.459,182.852c.277-.132,11.233-3.751,11.264,7.554s-11.325,9-11.345,8.681S533.459,182.852,533.459,182.852Z" transform="translate(-533.375 -182.198)" fill="#fff"/>
                      </g>
                    </g>
                    <g id="Grupo_122983" data-name="Grupo 122983" transform="translate(59.962 47.397)">
                      <g id="Grupo_122982" data-name="Grupo 122982">
                        <path id="Trazado_189015" data-name="Trazado 189015" d="M538.771,196.867c.05-.036.2.137.531.289a1.971,1.971,0,0,0,1.472.026c1.193-.442,2.193-2.341,2.243-4.379a6.514,6.514,0,0,0-.559-2.818,2.278,2.278,0,0,0-1.485-1.508,1,1,0,0,0-1.161.543c-.15.316-.078.542-.138.562-.031.029-.243-.189-.154-.656a1.256,1.256,0,0,1,.443-.71,1.488,1.488,0,0,1,1.088-.291,2.767,2.767,0,0,1,2.062,1.747,6.688,6.688,0,0,1,.691,3.149c-.066,2.278-1.226,4.413-2.859,4.89a2.11,2.11,0,0,1-1.8-.294C538.793,197.14,538.732,196.888,538.771,196.867Z" transform="translate(-538.761 -187.917)" fill="#ebebeb"/>
                      </g>
                    </g>
                  </g>
                </g>
                <g id="Grupo_122987" data-name="Grupo 122987" transform="translate(58.276 28.313)">
                  <g id="Grupo_122986" data-name="Grupo 122986">
                    <path id="Trazado_189016" data-name="Trazado 189016" d="M510.409,139.749a8.626,8.626,0,0,1,5.153-2.039,26.336,26.336,0,0,1,14.333,2.317,12.582,12.582,0,0,1,5.831,4.88c1.256,2.249,1.275,5.332-.5,7.2a7.925,7.925,0,0,1-6.34,14.376h0a5.141,5.141,0,0,1-7.78,3.893,8.078,8.078,0,0,1-2.035-1.833c-2.166-2.774-2.382-8.037-1.784-11.506a7.514,7.514,0,0,1-5.794-3.068,14.582,14.582,0,0,1-2.561-6.224C508.39,144.974,508.4,141.742,510.409,139.749Z" transform="translate(-508.629 -137.523)" fill="#263238"/>
                  </g>
                </g>
                <g id="Grupo_123033" data-name="Grupo 123033">
                  <g id="Grupo_122992" data-name="Grupo 122992">
                    <g id="Grupo_122991" data-name="Grupo 122991">
                      <g id="Grupo_122990" data-name="Grupo 122990">
                        <g id="Grupo_122989" data-name="Grupo 122989">
                          <g id="Grupo_122988" data-name="Grupo 122988">
                            <path id="Trazado_189017" data-name="Trazado 189017" d="M481.387,93.716c.771.16,19.313,5.664,23.088,20s2.109,18.549,2.109,18.549a9.214,9.214,0,0,1,1.853,1.821c.722.972-.716,5.315-3.14,4.653-17.846-9.361-39.555-11.628-63.851-12.489l-18.55-1.465c-5.239.258-6.971-1.243-4.692-2.4,1.748-.888,16.893-5.83,16.893-5.83l3.039-1.92,8.374-10.12s-.848-1.542,1.108-2.65S466.173,90.557,481.387,93.716Z" transform="translate(-417.221 -93.112)" fill="#757ac6"/>
                          </g>
                        </g>
                      </g>
                    </g>
                  </g>
                  <g id="Grupo_122998" data-name="Grupo 122998" transform="translate(39.034 4.503)" opacity="0.3">
                    <g id="Grupo_122997" data-name="Grupo 122997">
                      <g id="Grupo_122996" data-name="Grupo 122996">
                        <g id="Grupo_122995" data-name="Grupo 122995">
                          <g id="Grupo_122994" data-name="Grupo 122994">
                            <g id="Grupo_122993" data-name="Grupo 122993">
                              <path id="Trazado_189018" data-name="Trazado 189018" d="M520.221,105.686s-20.07-4.628-29.443-.864l1.089-.46-8.834,3.2c-1.492.541-3.234,1.062-4.586.233a40.328,40.328,0,0,1,13.535-6.12C500.66,99.372,514.22,99.031,520.221,105.686Z" transform="translate(-478.448 -100.175)"/>
                            </g>
                          </g>
                        </g>
                      </g>
                    </g>
                  </g>
                  <g id="Grupo_123004" data-name="Grupo 123004" transform="translate(29.276 4.242)">
                    <g id="Grupo_123003" data-name="Grupo 123003">
                      <g id="Grupo_123002" data-name="Grupo 123002">
                        <g id="Grupo_123001" data-name="Grupo 123001">
                          <g id="Grupo_123000" data-name="Grupo 123000">
                            <g id="Grupo_122999" data-name="Grupo 122999">
                              <path id="Trazado_189019" data-name="Trazado 189019" d="M514.961,105.664a14.45,14.45,0,0,0-1.739-1.311,25.307,25.307,0,0,0-5.293-2.688,30.134,30.134,0,0,0-8.611-1.823,25.3,25.3,0,0,0-10.664,1.36,45.583,45.583,0,0,0-5.088,2.323c-1.593.847-3.163,1.581-4.6,2.433a27.264,27.264,0,0,1-4.1,2.235,8.77,8.77,0,0,1-3.973.53c-4.99-.261-7.983-1.5-7.737-1.8a.8.8,0,0,0,.372.419,6.406,6.406,0,0,0,1.5.617,27.156,27.156,0,0,0,5.857.982,8.962,8.962,0,0,0,4.076-.509,27.016,27.016,0,0,0,4.157-2.229c1.416-.832,3-1.567,4.592-2.408a45.936,45.936,0,0,1,5.056-2.3,25.278,25.278,0,0,1,10.538-1.367,30.571,30.571,0,0,1,8.553,1.742,26.774,26.774,0,0,1,5.3,2.583c.591.372,1.039.68,1.335.9S514.961,105.664,514.961,105.664Z" transform="translate(-463.141 -99.765)" fill="#263238"/>
                            </g>
                          </g>
                        </g>
                      </g>
                    </g>
                  </g>
                  <g id="Grupo_123010" data-name="Grupo 123010" transform="translate(59.359 16.763)" opacity="0.3">
                    <g id="Grupo_123009" data-name="Grupo 123009">
                      <g id="Grupo_123008" data-name="Grupo 123008">
                        <g id="Grupo_123007" data-name="Grupo 123007">
                          <g id="Grupo_123006" data-name="Grupo 123006">
                            <g id="Grupo_123005" data-name="Grupo 123005">
                              <path id="Trazado_189020" data-name="Trazado 189020" d="M539.6,129.219c-3.635-.266-6.332-1.393-9.89-2.421-3.792-1.1-7.559-2.015-11.294-3.291-2.834-.968-6.2-1.89-7.945-4.1a4.22,4.22,0,0,0,1.024,4.02c1.035,1.134,4.536,2.634,5.988,3.135,8.274,2.854,14.01,4.782,22.714,5.969a25.131,25.131,0,0,0-.6-3.311" transform="translate(-510.329 -119.406)"/>
                            </g>
                          </g>
                        </g>
                      </g>
                    </g>
                  </g>
                  <g id="Grupo_123015" data-name="Grupo 123015" transform="translate(59.374 14.541)">
                    <g id="Grupo_123014" data-name="Grupo 123014">
                      <g id="Grupo_123013" data-name="Grupo 123013">
                        <g id="Grupo_123012" data-name="Grupo 123012">
                          <g id="Grupo_123011" data-name="Grupo 123011">
                            <path id="Trazado_189021" data-name="Trazado 189021" d="M537.747,120.411c2.238,1.152,3.606,1.92,3.544,3.886-.053,1.637-.517,3.614-2.145,3.793a4.014,4.014,0,0,1-1.475-.208L512.9,121.16a3.74,3.74,0,0,1-2.236-1.219c-.754-1.1-.052-2.719,1.1-3.395a6.987,6.987,0,0,1,3.9-.6,83.709,83.709,0,0,1,22.085,4.463" transform="translate(-510.351 -115.92)" fill="#757ac6"/>
                          </g>
                        </g>
                      </g>
                    </g>
                  </g>
                  <g id="Grupo_123021" data-name="Grupo 123021" transform="translate(59.245 13.565)">
                    <g id="Grupo_123020" data-name="Grupo 123020">
                      <g id="Grupo_123019" data-name="Grupo 123019">
                        <g id="Grupo_123018" data-name="Grupo 123018">
                          <g id="Grupo_123017" data-name="Grupo 123017">
                            <g id="Grupo_123016" data-name="Grupo 123016">
                              <path id="Trazado_189022" data-name="Trazado 189022" d="M510.953,119.78a2.422,2.422,0,0,1-.6-1.139,3.152,3.152,0,0,1,1.241-3.1,7.823,7.823,0,0,1,5.123-.783c2.007.234,4.214.521,6.515.9a66.816,66.816,0,0,1,11.578,2.856c1.443.5,2.582.986,3.369,1.321l.9.4a1.427,1.427,0,0,0,.324.119,1.426,1.426,0,0,0-.3-.176l-.878-.451c-.773-.37-1.9-.886-3.344-1.419a61.221,61.221,0,0,0-11.6-2.956c-2.309-.381-4.519-.66-6.535-.879a7.937,7.937,0,0,0-5.285.891,3.264,3.264,0,0,0-1.229,3.306,2.138,2.138,0,0,0,.455.887A1.154,1.154,0,0,0,510.953,119.78Z" transform="translate(-510.15 -114.389)" fill="#263238"/>
                            </g>
                          </g>
                        </g>
                      </g>
                    </g>
                  </g>
                  <g id="Grupo_123026" data-name="Grupo 123026" transform="translate(23.7 14.576)">
                    <g id="Grupo_123025" data-name="Grupo 123025">
                      <g id="Grupo_123024" data-name="Grupo 123024">
                        <g id="Grupo_123023" data-name="Grupo 123023">
                          <g id="Grupo_123022" data-name="Grupo 123022">
                            <path id="Trazado_189023" data-name="Trazado 189023" d="M457.357,115.975l15.816.714-1.628,4.363-17.15-1.5Z" transform="translate(-454.396 -115.975)" fill="#fff"/>
                          </g>
                        </g>
                      </g>
                    </g>
                  </g>
                  <g id="Grupo_123032" data-name="Grupo 123032" transform="translate(18.407 23.904)">
                    <g id="Grupo_123031" data-name="Grupo 123031">
                      <g id="Grupo_123030" data-name="Grupo 123030">
                        <g id="Grupo_123029" data-name="Grupo 123029">
                          <g id="Grupo_123028" data-name="Grupo 123028">
                            <g id="Grupo_123027" data-name="Grupo 123027">
                              <path id="Trazado_189024" data-name="Trazado 189024" d="M477.312,136.873c.017-.085-6.959-1.556-15.578-3.285s-15.624-3.063-15.641-2.978,6.957,1.555,15.579,3.285S477.3,136.958,477.312,136.873Z" transform="translate(-446.093 -130.607)" fill="#263238"/>
                            </g>
                          </g>
                        </g>
                      </g>
                    </g>
                  </g>
                </g>
              </g>
            </g>
            <g id="Grupo_123036" data-name="Grupo 123036" transform="translate(29.573 96.158)">
              <path id="Trazado_189025" data-name="Trazado 189025" d="M463.607,259.585l4.461-8.059,17.2,21.995,23.967-29.582,3.505,9.02-18.59,32.523-7.888-10.691-1.871.273-6.507,11.3Z" transform="translate(-463.607 -243.939)" fill="#e0e0e0"/>
            </g>
            <g id="Grupo_123038" data-name="Grupo 123038" transform="translate(52.224 127.009)">
              <g id="Grupo_123037" data-name="Grupo 123037">
                <path id="Trazado_189026" data-name="Trazado 189026" d="M513.67,293.25a5.806,5.806,0,0,1-.511.815c-.344.515-.84,1.262-1.434,2.2a64.272,64.272,0,0,0-4.164,7.706l-.126.279-.165-.259-.5-.775c-2.021-3.056-4.09-5.668-5.482-7.635-.7-.979-1.255-1.784-1.62-2.351a5.954,5.954,0,0,1-.533-.9,6.7,6.7,0,0,1,.639.829l1.7,2.285c1.437,1.928,3.535,4.516,5.571,7.593l.5.782-.291.019a54.939,54.939,0,0,1,4.276-7.693c.62-.929,1.148-1.659,1.523-2.153A5.386,5.386,0,0,1,513.67,293.25Z" transform="translate(-499.137 -292.33)" fill="#263238"/>
              </g>
            </g>
            <g id="Grupo_123040" data-name="Grupo 123040" transform="translate(82.663 44.853)">
              <g id="Grupo_123039" data-name="Grupo 123039">
                <path id="Trazado_189027" data-name="Trazado 189027" d="M550.413,163.466a2.166,2.166,0,0,1,.452.487,7.88,7.88,0,0,1,.935,1.553,8.8,8.8,0,0,1-2.729,10.806,7.855,7.855,0,0,1-1.561.923,2.187,2.187,0,0,1-.629.214,17.423,17.423,0,0,0,2.044-1.322,8.914,8.914,0,0,0,2.659-10.526A17.278,17.278,0,0,0,550.413,163.466Z" transform="translate(-546.882 -163.465)" fill="#455a64"/>
              </g>
            </g>
            <g id="Grupo_123042" data-name="Grupo 123042" transform="translate(29.76 112.427)">
              <g id="Grupo_123041" data-name="Grupo 123041">
                <path id="Trazado_189028" data-name="Trazado 189028" d="M484.5,284.313a.961.961,0,0,1-.085.233l-.29.654c-.261.568-.657,1.392-1.187,2.417a79.189,79.189,0,0,1-4.819,8.086l-.142.209-.12-.222-3.959-7.325-7.127-13.337-2.126-4.06-.564-1.112a2.194,2.194,0,0,1-.177-.4,2.091,2.091,0,0,1,.236.367l.618,1.082,2.219,4.01,7.212,13.291,3.937,7.337-.261-.013a90.592,90.592,0,0,0,4.908-8l1.262-2.373.333-.632A.909.909,0,0,1,484.5,284.313Z" transform="translate(-463.901 -269.458)" fill="#263238"/>
              </g>
            </g>
          </g>
          <g id="Grupo_123074" data-name="Grupo 123074" transform="translate(0 129.89)">
            <g id="Grupo_123071" data-name="Grupo 123071">
              <g id="Grupo_123045" data-name="Grupo 123045" transform="translate(24.206 34.817)">
                <g id="Grupo_123044" data-name="Grupo 123044">
                  <path id="Trazado_189029" data-name="Trazado 189029" d="M368.714,351.46l-9.176,26.289-13.744-15.984L327.51,373.12l23.257,31.115c6.3,8.977,16.693,11.794,22.374,10.439,11.578-2.763,17.737-17.748,17.737-17.748l-.065-14.362-2.472-21.292Z" transform="translate(-327.51 -351.46)" fill="#455a64"/>
                </g>
              </g>
              <g id="Grupo_123047" data-name="Grupo 123047" transform="translate(65.756 7.811)">
                <g id="Grupo_123046" data-name="Grupo 123046">
                  <path id="Trazado_189030" data-name="Trazado 189030" d="M392.683,309.1s35.326,38.377,42.57,45.409c3.459,3.357,10.762,7.855,10.762,7.855l-10.953,1.274Z" transform="translate(-392.683 -309.101)" fill="#e0e0e0"/>
                </g>
              </g>
              <g id="Grupo_123049" data-name="Grupo 123049" transform="translate(55.093 65.07)" opacity="0.3">
                <g id="Grupo_123048" data-name="Grupo 123048">
                  <path id="Trazado_189031" data-name="Trazado 189031" d="M375.957,398.988s14.485,3.371,24.369,3.916,35.722.375,35.722.375l-5.089-4.365Z" transform="translate(-375.957 -398.914)"/>
                </g>
              </g>
              <g id="Grupo_123051" data-name="Grupo 123051" transform="translate(0 1.313)">
                <g id="Grupo_123050" data-name="Grupo 123050">
                  <path id="Trazado_189032" data-name="Trazado 189032" d="M352.873,300.459l-63.331-1.552,55.093,63.832,58.459,1.593Z" transform="translate(-289.542 -298.908)" fill="#263238"/>
                </g>
              </g>
              <g id="Grupo_123067" data-name="Grupo 123067" transform="translate(13.734 23.621)">
                <g id="Grupo_123063" data-name="Grupo 123063">
                  <g id="Grupo_123053" data-name="Grupo 123053">
                    <g id="Grupo_123052" data-name="Grupo 123052">
                      <path id="Trazado_189033" data-name="Trazado 189033" d="M333.392,336.855a2.931,2.931,0,0,0-3.184-2.947c-.933.067-2.152.183-3.647.384-3.865.521-15.183,6.553-15.415,8.845-.34,3.364,1.4,4.6,1.4,4.6s-2.146,3.049-1.237,5.482c.779,2.086,4.178,2.7,4.178,2.7s-2.406,3,.249,4.984c.921.689,2.769,2.01,3.2,2.462a8.05,8.05,0,0,0,.764,1.77,6.83,6.83,0,0,0,5.031,2.672l.648.038a4.976,4.976,0,0,0,3.445-1.118c4.379-3.587,16.759-13.959,16.921-16.727,0,0,2.361-1.967,1.338-3.915s-4.6-.965-4.6-.965a2.967,2.967,0,0,0,.8-3.435c-.9-2.046-7.313-1.651-10.215-1.174-2.309.379-8.749,1.645-8.749,1.645s8.516-3.239,8.979-4.724A2.261,2.261,0,0,0,333.392,336.855Z" transform="translate(-311.085 -333.9)" fill="#fff"/>
                    </g>
                  </g>
                  <g id="Grupo_123056" data-name="Grupo 123056" transform="translate(11.059 16.102)">
                    <g id="Grupo_123055" data-name="Grupo 123055">
                      <g id="Grupo_123054" data-name="Grupo 123054">
                        <path id="Trazado_189034" data-name="Trazado 189034" d="M352.036,359.158a6.2,6.2,0,0,1-.851.555c-.557.341-1.379.809-2.409,1.359-2.057,1.109-4.967,2.511-8.248,3.9s-6.3,2.523-8.5,3.3c-1.1.391-1.994.7-2.615.9a6.087,6.087,0,0,1-.975.282,6.213,6.213,0,0,1,.933-.4l2.579-.991c2.178-.835,5.182-2,8.458-3.387s6.19-2.755,8.27-3.809c1.04-.524,1.877-.96,2.453-1.267A6.157,6.157,0,0,1,352.036,359.158Z" transform="translate(-328.432 -359.157)" fill="#ebebeb"/>
                      </g>
                    </g>
                  </g>
                  <g id="Grupo_123059" data-name="Grupo 123059" transform="translate(8.782 11.13)">
                    <g id="Grupo_123058" data-name="Grupo 123058">
                      <g id="Grupo_123057" data-name="Grupo 123057">
                        <path id="Trazado_189035" data-name="Trazado 189035" d="M347.87,351.364a5.59,5.59,0,0,1-.936.233c-.6.14-1.478.33-2.549.611-2.146.543-5.063,1.461-8.253,2.579-1.594.565-3.129,1.063-4.488,1.6s-2.567,1.064-3.57,1.532-1.8.877-2.349,1.162a6.42,6.42,0,0,1-.864.426c-.006-.009.062-.062.2-.154s.339-.221.6-.381c.534-.319,1.317-.761,2.312-1.256s2.2-1.054,3.559-1.6,2.9-1.058,4.491-1.623a80.313,80.313,0,0,1,8.3-2.5c1.082-.254,1.968-.411,2.579-.514A5.612,5.612,0,0,1,347.87,351.364Z" transform="translate(-324.861 -351.358)" fill="#ebebeb"/>
                      </g>
                    </g>
                  </g>
                  <g id="Grupo_123062" data-name="Grupo 123062" transform="translate(3.637 8.256)">
                    <g id="Grupo_123061" data-name="Grupo 123061">
                      <g id="Grupo_123060" data-name="Grupo 123060">
                        <path id="Trazado_189036" data-name="Trazado 189036" d="M326.385,346.854a6.924,6.924,0,0,1-1.362.784c-.864.44-2.082.995-3.423,1.6s-2.54,1.19-3.4,1.63a9.194,9.194,0,0,1-1.412.68,6.562,6.562,0,0,1,1.3-.879,37.274,37.274,0,0,1,3.375-1.723c1.346-.611,2.574-1.132,3.46-1.517A8.587,8.587,0,0,1,326.385,346.854Z" transform="translate(-316.789 -346.85)" fill="#ebebeb"/>
                      </g>
                    </g>
                  </g>
                </g>
                <g id="Grupo_123066" data-name="Grupo 123066" transform="translate(12.456 21.277)">
                  <g id="Grupo_123065" data-name="Grupo 123065">
                    <g id="Grupo_123064" data-name="Grupo 123064">
                      <path id="Trazado_189037" data-name="Trazado 189037" d="M348.947,367.275a4.726,4.726,0,0,1-.574.695c-.39.428-.969,1.035-1.711,1.759-1.475,1.456-3.642,3.328-5.97,5.449-.579.529-1.127,1.077-1.7,1.561a19.047,19.047,0,0,1-1.724,1.306,11.877,11.877,0,0,1-3.3,1.573,7.35,7.35,0,0,1-2.448.3,4.324,4.324,0,0,1-.666-.07.652.652,0,0,1-.228-.054c0-.032.323.01.9,0a8.028,8.028,0,0,0,2.381-.393,12.267,12.267,0,0,0,3.2-1.6,19.82,19.82,0,0,0,1.684-1.3c.561-.479,1.1-1.023,1.689-1.559,2.338-2.129,4.521-3.967,6.031-5.378.759-.7,1.36-1.28,1.777-1.681A4.985,4.985,0,0,1,348.947,367.275Z" transform="translate(-330.623 -367.274)" fill="#ebebeb"/>
                    </g>
                  </g>
                </g>
              </g>
              <g id="Grupo_123070" data-name="Grupo 123070" transform="translate(16.395)">
                <g id="Grupo_123068" data-name="Grupo 123068" transform="translate(0.307 0.307)">
                  <path id="Trazado_189038" data-name="Trazado 189038" d="M344.216,297.68l-27.8-.35a.668.668,0,0,0-.516,1.1l6.057,7.088,27.437.831a.668.668,0,0,0,.547-1.054l-5.188-7.335A.669.669,0,0,0,344.216,297.68Z" transform="translate(-315.739 -297.33)" fill="#e0e0e0"/>
                </g>
                <g id="Grupo_123069" data-name="Grupo 123069">
                  <path id="Trazado_189039" data-name="Trazado 189039" d="M321.638,305.649l-6.145-7.191a.975.975,0,0,1,.754-1.609l27.8.351a.966.966,0,0,1,.784.412l5.188,7.335a.975.975,0,0,1-.8,1.538Zm22.428-7.835-.028,0-27.8-.35a.361.361,0,0,0-.279.6l5.968,6.985,27.3.827a.362.362,0,0,0,.287-.571l-5.188-7.335A.364.364,0,0,0,344.066,297.814Z" transform="translate(-315.258 -296.849)" fill="#263238"/>
                </g>
              </g>
            </g>
            <g id="Grupo_123073" data-name="Grupo 123073" transform="translate(55.892 60.666)">
              <g id="Grupo_123072" data-name="Grupo 123072">
                <path id="Trazado_189040" data-name="Trazado 189040" d="M389.965,410.44a27.485,27.485,0,0,0,.045-3.606,16.249,16.249,0,0,0-9.41-13.6,27.494,27.494,0,0,0-3.389-1.228.707.707,0,0,1,.252.023c.163.03.406.061.71.14a14.47,14.47,0,0,1,2.525.852,15.9,15.9,0,0,1,9.547,13.794,14.51,14.51,0,0,1-.092,2.662c-.033.313-.091.552-.119.715A.729.729,0,0,1,389.965,410.44Z" transform="translate(-377.211 -392.005)" fill="#263238"/>
              </g>
            </g>
          </g>
          <g id="Grupo_123081" data-name="Grupo 123081" transform="translate(140.846 101.402)">
            <g id="Grupo_123075" data-name="Grupo 123075" transform="translate(22.054 41.507)">
              <path id="Trazado_189041" data-name="Trazado 189041" d="M545.057,332.321s13.876,34.356,20.168,46.754c6.519,12.847,16.208,34.37,35.622,23.118,15.886-9.207,1.5-57.55,1.5-57.55L588.048,351.1,566.9,317.271Z" transform="translate(-545.057 -317.271)" fill="#455a64"/>
            </g>
            <g id="Grupo_123076" data-name="Grupo 123076">
              <path id="Trazado_189042" data-name="Trazado 189042" d="M540.684,253.411a1.807,1.807,0,0,0-2.493-1.07,7.474,7.474,0,0,0-4.156,6.158c-.794,5.885.3,10.04-1.077,11.58s-18.679,2.763-20.017,5.29c-1.29,2.436-.528,4.633-.586,5.878a1.805,1.805,0,0,1-.521,1.183,3.857,3.857,0,0,0-.842,4.8,1.877,1.877,0,0,1,.066,1.786,3.789,3.789,0,0,0,.876,4.613,1.918,1.918,0,0,1,.4.581c.519,1.211,2.54,5.515,5.424,6.4a21.67,21.67,0,0,0,6.644.722,1.784,1.784,0,0,1,1.237.438c1.459,1.269,6.3,4.367,7.74,6.243,0,0,17.859-12.483,18.977-13.073,0,0-8.048-12.279-8.452-17.91-.431-6-4.209-13-3.192-18.624A10.376,10.376,0,0,0,540.684,253.411Z" transform="translate(-510.465 -252.165)" fill="#fff"/>
            </g>
            <g id="Grupo_123078" data-name="Grupo 123078" transform="translate(22.054 41.288)">
              <g id="Grupo_123077" data-name="Grupo 123077">
                <path id="Trazado_189043" data-name="Trazado 189043" d="M545.057,332.2a.473.473,0,0,1,.1-.083l.3-.224,1.189-.849,4.492-3.149,15.676-10.871.132-.092.088.135c2.3,3.537,4.795,7.428,7.366,11.5l15.045,24.112,4.589,7.287,1.244,1.984.317.52a.975.975,0,0,1,.1.184,1.013,1.013,0,0,1-.127-.165c-.087-.128-.2-.294-.344-.5l-1.3-1.95c-1.118-1.7-2.722-4.167-4.679-7.232-3.927-6.123-9.213-14.669-15.127-24.061-2.571-4.075-5.058-7.968-7.347-11.511l.219.043-15.744,10.773-4.544,3.076-1.217.808-.318.2A.489.489,0,0,1,545.057,332.2Z" transform="translate(-545.057 -316.926)" fill="#263238"/>
              </g>
            </g>
            <g id="Grupo_123080" data-name="Grupo 123080" transform="translate(70.1 81.9)">
              <g id="Grupo_123079" data-name="Grupo 123079">
                <path id="Trazado_189044" data-name="Trazado 189044" d="M631.807,392.09a2.6,2.6,0,0,1-.345-.572l-.843-1.6a28.194,28.194,0,0,0-3.2-5,12.771,12.771,0,0,0-4.648-3.562,17.178,17.178,0,0,0-2.349-.718,2.227,2.227,0,0,1,.669.034,8,8,0,0,1,1.769.465,12.122,12.122,0,0,1,4.814,3.566,24.292,24.292,0,0,1,3.158,5.1c.332.692.583,1.259.75,1.653A2.591,2.591,0,0,1,631.807,392.09Z" transform="translate(-620.419 -380.628)" fill="#263238"/>
              </g>
            </g>
          </g>
        </g>
      </g>
    </g>
    <path id="Trazado_190743" data-name="Trazado 190743" d="M33.043,4.2l2.856,8.9,2.848-8.9h4.061V17H39.714V14.012l.3-6.117L36.919,17H34.88l-3.1-9.114.3,6.126V17H28.991V4.2ZM49.233,17.176a4.889,4.889,0,0,1-3.542-1.305,4.507,4.507,0,0,1-1.354-3.4v-.246a5.84,5.84,0,0,1,.541-2.575,3.955,3.955,0,0,1,1.578-1.727,4.763,4.763,0,0,1,2.461-.611A4.117,4.117,0,0,1,52.08,8.558a4.887,4.887,0,0,1,1.16,3.467v1.151H47.352a2.135,2.135,0,0,0,.694,1.257,2.066,2.066,0,0,0,1.389.457,2.662,2.662,0,0,0,2.2-.984l1.354,1.6a3.784,3.784,0,0,1-1.569,1.217A5.3,5.3,0,0,1,49.233,17.176ZM48.9,9.6q-1.3,0-1.547,1.723H50.34v-.229a1.467,1.467,0,0,0-.36-1.1A1.434,1.434,0,0,0,48.9,9.6Zm9.554,5.291a1.317,1.317,0,0,0,.967-.338,1.241,1.241,0,0,0,.334-.945h2.777a3.288,3.288,0,0,1-1.121,2.566,4.168,4.168,0,0,1-2.887,1,4.22,4.22,0,0,1-3.27-1.3,5.125,5.125,0,0,1-1.2-3.6v-.123A5.792,5.792,0,0,1,54.59,9.6a3.872,3.872,0,0,1,1.534-1.7A4.573,4.573,0,0,1,58.5,7.314a4.116,4.116,0,0,1,2.944,1.028,3.647,3.647,0,0,1,1.09,2.786H59.753A1.626,1.626,0,0,0,59.393,10a1.244,1.244,0,0,0-.967-.4q-1.151,0-1.345,1.468a10.357,10.357,0,0,0-.062,1.283,4.068,4.068,0,0,0,.343,1.986A1.187,1.187,0,0,0,58.452,14.891ZM69.14,17a3.344,3.344,0,0,1-.281-.853,2.754,2.754,0,0,1-2.285,1.028,3.374,3.374,0,0,1-2.285-.813,2.588,2.588,0,0,1-.94-2.043,2.66,2.66,0,0,1,1.143-2.338,5.821,5.821,0,0,1,3.322-.791h.914v-.5q0-1.316-1.134-1.316a.927.927,0,0,0-1.055,1.042H63.576A2.655,2.655,0,0,1,64.75,8.175a4.931,4.931,0,0,1,2.993-.86,4.323,4.323,0,0,1,2.874.888A3.086,3.086,0,0,1,71.7,10.637v4.21a4.311,4.311,0,0,0,.4,2V17Zm-1.854-1.934a1.652,1.652,0,0,0,.918-.237,1.487,1.487,0,0,0,.523-.536V12.772h-.861q-1.547,0-1.547,1.389a.848.848,0,0,0,.272.655A.986.986,0,0,0,67.285,15.066ZM76.057,7.49l.1,1.116a3.225,3.225,0,0,1,2.716-1.292,2.713,2.713,0,0,1,2.219.888,4.226,4.226,0,0,1,.76,2.672V17H78.878V11a1.6,1.6,0,0,0-.29-1.059A1.342,1.342,0,0,0,77.533,9.6a1.413,1.413,0,0,0-1.292.686V17H73.28V7.49ZM86.613,17H83.642V7.49h2.971ZM83.466,5.029a1.334,1.334,0,0,1,.457-1.043,1.934,1.934,0,0,1,2.373,0,1.334,1.334,0,0,1,.457,1.043A1.334,1.334,0,0,1,86.3,6.073a1.934,1.934,0,0,1-2.373,0A1.334,1.334,0,0,1,83.466,5.029Zm9.949,9.3a.684.684,0,0,0-.4-.606,6.016,6.016,0,0,0-1.5-.475,6.853,6.853,0,0,1-1.828-.646,3.062,3.062,0,0,1-1.1-.971,2.319,2.319,0,0,1-.378-1.31,2.628,2.628,0,0,1,1.081-2.158,4.453,4.453,0,0,1,2.83-.848,4.934,4.934,0,0,1,3.023.853,2.666,2.666,0,0,1,1.143,2.241H93.319q0-1.143-1.2-1.143a1.194,1.194,0,0,0-.782.259.8.8,0,0,0-.316.646.737.737,0,0,0,.387.642,3.654,3.654,0,0,0,1.235.4,10.671,10.671,0,0,1,1.49.378,2.706,2.706,0,0,1,2.145,2.646,2.491,2.491,0,0,1-1.156,2.118,5.068,5.068,0,0,1-2.993.817,5.172,5.172,0,0,1-2.18-.439,3.645,3.645,0,0,1-1.494-1.2,2.707,2.707,0,0,1-.536-1.591h2.769a1.145,1.145,0,0,0,.439.962,1.808,1.808,0,0,0,1.081.3,1.422,1.422,0,0,0,.91-.246A.787.787,0,0,0,93.415,14.328Zm7.04-6.838.1,1.116a3.27,3.27,0,0,1,2.716-1.292A2.407,2.407,0,0,1,105.7,8.747,3.165,3.165,0,0,1,108.5,7.314q2.892,0,2.971,3.5V17H108.5V11a1.813,1.813,0,0,0-.246-1.063,1.048,1.048,0,0,0-.9-.334,1.4,1.4,0,0,0-1.31.782l.009.123V17h-2.971V11.015a1.906,1.906,0,0,0-.237-1.081,1.045,1.045,0,0,0-.905-.334,1.42,1.42,0,0,0-1.3.782V17H97.678V7.49Zm12.331,4.667a5.613,5.613,0,0,1,.554-2.536,3.96,3.96,0,0,1,1.591-1.709,4.791,4.791,0,0,1,2.435-.6,4.373,4.373,0,0,1,3.366,1.323,5.076,5.076,0,0,1,1.23,3.6v.105a4.925,4.925,0,0,1-1.235,3.529,4.384,4.384,0,0,1-3.344,1.305,4.434,4.434,0,0,1-3.261-1.217,4.761,4.761,0,0,1-1.327-3.3Zm2.962.185a3.538,3.538,0,0,0,.413,1.934,1.376,1.376,0,0,0,1.222.615q1.582,0,1.617-2.435v-.3Q119,9.6,117.365,9.6q-1.485,0-1.608,2.206Zm12.5,1.986a.684.684,0,0,0-.4-.606,6.016,6.016,0,0,0-1.5-.475,6.853,6.853,0,0,1-1.828-.646,3.062,3.062,0,0,1-1.1-.971,2.319,2.319,0,0,1-.378-1.31,2.628,2.628,0,0,1,1.081-2.158,4.453,4.453,0,0,1,2.83-.848,4.934,4.934,0,0,1,3.023.853,2.666,2.666,0,0,1,1.143,2.241H128.15q0-1.143-1.2-1.143a1.194,1.194,0,0,0-.782.259.8.8,0,0,0-.316.646.737.737,0,0,0,.387.642,3.654,3.654,0,0,0,1.235.4,10.671,10.671,0,0,1,1.49.378A2.706,2.706,0,0,1,131.1,14.24a2.491,2.491,0,0,1-1.156,2.118,5.068,5.068,0,0,1-2.993.817,5.172,5.172,0,0,1-2.18-.439,3.645,3.645,0,0,1-1.494-1.2,2.707,2.707,0,0,1-.536-1.591h2.769a1.145,1.145,0,0,0,.439.962,1.808,1.808,0,0,0,1.081.3,1.422,1.422,0,0,0,.91-.246A.787.787,0,0,0,128.246,14.328Zm13.324,2.848a4.889,4.889,0,0,1-3.542-1.305,4.507,4.507,0,0,1-1.354-3.4v-.246a5.84,5.84,0,0,1,.541-2.575,3.955,3.955,0,0,1,1.578-1.727,4.763,4.763,0,0,1,2.461-.611,4.117,4.117,0,0,1,3.164,1.244,4.887,4.887,0,0,1,1.16,3.467v1.151H139.69a2.135,2.135,0,0,0,.694,1.257,2.066,2.066,0,0,0,1.389.457,2.662,2.662,0,0,0,2.2-.984l1.354,1.6a3.784,3.784,0,0,1-1.569,1.217A5.3,5.3,0,0,1,141.571,17.176ZM141.237,9.6q-1.3,0-1.547,1.723h2.988v-.229a1.467,1.467,0,0,0-.36-1.1A1.434,1.434,0,0,0,141.237,9.6Zm10.512,4.729a.684.684,0,0,0-.4-.606,6.016,6.016,0,0,0-1.5-.475,6.853,6.853,0,0,1-1.828-.646,3.062,3.062,0,0,1-1.1-.971,2.319,2.319,0,0,1-.378-1.31,2.628,2.628,0,0,1,1.081-2.158,4.453,4.453,0,0,1,2.83-.848,4.934,4.934,0,0,1,3.023.853,2.666,2.666,0,0,1,1.143,2.241h-2.971q0-1.143-1.2-1.143a1.194,1.194,0,0,0-.782.259.8.8,0,0,0-.316.646.737.737,0,0,0,.387.642,3.654,3.654,0,0,0,1.235.4,10.671,10.671,0,0,1,1.49.378A2.706,2.706,0,0,1,154.6,14.24a2.491,2.491,0,0,1-1.156,2.118,5.068,5.068,0,0,1-2.993.817,5.172,5.172,0,0,1-2.18-.439,3.645,3.645,0,0,1-1.494-1.2,2.707,2.707,0,0,1-.536-1.591h2.769a1.145,1.145,0,0,0,.439.962,1.808,1.808,0,0,0,1.081.3,1.422,1.422,0,0,0,.91-.246A.787.787,0,0,0,151.748,14.328Zm13.069-2.013a5.735,5.735,0,0,1-1,3.538,3.2,3.2,0,0,1-2.694,1.323,2.742,2.742,0,0,1-2.153-.958v4.438h-2.962V7.49h2.769l.088.879a2.742,2.742,0,0,1,2.241-1.055,3.224,3.224,0,0,1,2.733,1.3,5.805,5.805,0,0,1,.976,3.564Zm-2.962-.185q0-2.531-1.477-2.531a1.394,1.394,0,0,0-1.406.756V14.1a1.439,1.439,0,0,0,1.424.791q1.415,0,1.459-2.443Zm8.868,5.045a4.889,4.889,0,0,1-3.542-1.305,4.507,4.507,0,0,1-1.354-3.4v-.246a5.84,5.84,0,0,1,.541-2.575,3.955,3.955,0,0,1,1.578-1.727,4.763,4.763,0,0,1,2.461-.611,4.117,4.117,0,0,1,3.164,1.244,4.887,4.887,0,0,1,1.16,3.467v1.151h-5.889a2.135,2.135,0,0,0,.694,1.257,2.066,2.066,0,0,0,1.389.457,2.662,2.662,0,0,0,2.2-.984l1.354,1.6a3.784,3.784,0,0,1-1.569,1.217A5.3,5.3,0,0,1,170.724,17.176ZM170.39,9.6q-1.3,0-1.547,1.723h2.988v-.229a1.467,1.467,0,0,0-.36-1.1A1.434,1.434,0,0,0,170.39,9.6Zm9.554,5.291a1.317,1.317,0,0,0,.967-.338,1.241,1.241,0,0,0,.334-.945h2.777a3.288,3.288,0,0,1-1.121,2.566,4.168,4.168,0,0,1-2.887,1,4.22,4.22,0,0,1-3.27-1.3,5.125,5.125,0,0,1-1.2-3.6v-.123a5.792,5.792,0,0,1,.532-2.544,3.872,3.872,0,0,1,1.534-1.7,4.573,4.573,0,0,1,2.373-.593,4.116,4.116,0,0,1,2.944,1.028,3.647,3.647,0,0,1,1.09,2.786h-2.777a1.626,1.626,0,0,0-.36-1.134,1.244,1.244,0,0,0-.967-.4q-1.151,0-1.345,1.468a10.357,10.357,0,0,0-.062,1.283,4.068,4.068,0,0,0,.343,1.986A1.187,1.187,0,0,0,179.944,14.891ZM188.4,17h-2.971V7.49H188.4ZM185.252,5.029a1.334,1.334,0,0,1,.457-1.043,1.934,1.934,0,0,1,2.373,0,1.334,1.334,0,0,1,.457,1.043,1.334,1.334,0,0,1-.457,1.043,1.934,1.934,0,0,1-2.373,0A1.334,1.334,0,0,1,185.252,5.029ZM195.579,17a3.344,3.344,0,0,1-.281-.853,2.754,2.754,0,0,1-2.285,1.028,3.374,3.374,0,0,1-2.285-.813,2.588,2.588,0,0,1-.94-2.043,2.66,2.66,0,0,1,1.143-2.338,5.821,5.821,0,0,1,3.322-.791h.914v-.5q0-1.316-1.134-1.316a.927.927,0,0,0-1.055,1.042h-2.962a2.655,2.655,0,0,1,1.173-2.239,4.931,4.931,0,0,1,2.993-.86,4.323,4.323,0,0,1,2.874.888,3.086,3.086,0,0,1,1.081,2.435v4.21a4.311,4.311,0,0,0,.4,2V17Zm-1.854-1.934a1.652,1.652,0,0,0,.918-.237,1.487,1.487,0,0,0,.523-.536V12.772H194.3q-1.547,0-1.547,1.389a.848.848,0,0,0,.272.655A.986.986,0,0,0,193.725,15.066ZM202.9,17H199.93V3.5H202.9Zm6.425.176a4.889,4.889,0,0,1-3.542-1.305,4.507,4.507,0,0,1-1.354-3.4v-.246a5.84,5.84,0,0,1,.541-2.575,3.955,3.955,0,0,1,1.578-1.727,4.763,4.763,0,0,1,2.461-.611,4.117,4.117,0,0,1,3.164,1.244,4.887,4.887,0,0,1,1.16,3.467v1.151h-5.889a2.135,2.135,0,0,0,.694,1.257,2.066,2.066,0,0,0,1.389.457,2.662,2.662,0,0,0,2.2-.984l1.354,1.6a3.784,3.784,0,0,1-1.569,1.217A5.3,5.3,0,0,1,209.325,17.176ZM208.991,9.6q-1.3,0-1.547,1.723h2.988v-.229a1.467,1.467,0,0,0-.36-1.1A1.434,1.434,0,0,0,208.991,9.6ZM219.5,14.328a.684.684,0,0,0-.4-.606,6.016,6.016,0,0,0-1.5-.475,6.853,6.853,0,0,1-1.828-.646,3.062,3.062,0,0,1-1.1-.971,2.319,2.319,0,0,1-.378-1.31,2.628,2.628,0,0,1,1.081-2.158,4.453,4.453,0,0,1,2.83-.848,4.934,4.934,0,0,1,3.023.853,2.666,2.666,0,0,1,1.143,2.241h-2.971q0-1.143-1.2-1.143a1.194,1.194,0,0,0-.782.259.8.8,0,0,0-.316.646.737.737,0,0,0,.387.642,3.654,3.654,0,0,0,1.235.4,10.671,10.671,0,0,1,1.49.378,2.706,2.706,0,0,1,2.145,2.646,2.491,2.491,0,0,1-1.156,2.118,5.068,5.068,0,0,1-2.993.817,5.172,5.172,0,0,1-2.18-.439,3.645,3.645,0,0,1-1.494-1.2A2.707,2.707,0,0,1,214,13.95h2.769a1.145,1.145,0,0,0,.439.962,1.808,1.808,0,0,0,1.081.3,1.422,1.422,0,0,0,.91-.246A.787.787,0,0,0,219.5,14.328Z" transform="translate(673.772 5669.869)" fill="#12263f"/>
  </g>
</svg>
