<svg xmlns="http://www.w3.org/2000/svg" width="115" height="117" viewBox="0 0 115 117">
  <g id="Grupo_124591" data-name="Grupo 124591" transform="translate(-347 -4302)">
    <g id="Elipse_6894" data-name="Elipse 6894" transform="translate(347 4302)" fill="#fff" stroke="#242ca3" stroke-width="4">
      <ellipse cx="57.5" cy="58.5" rx="57.5" ry="58.5" stroke="none"/>
      <ellipse cx="57.5" cy="58.5" rx="55.5" ry="56.5" fill="none"/>
    </g>
    <g id="Grupo_124530" data-name="Grupo 124530" transform="translate(7584.755 5621.059)">
      <path id="Trazado_190134" data-name="Trazado 190134" d="M-7160.5-1223.851h-43.545a4.143,4.143,0,0,1-3.684-4.493q-.007-25.376,0-50.752a2.153,2.153,0,0,1,.173-1.187,1.636,1.636,0,0,1,1.227-.246c4.006-.008,8.012.01,12.019-.011a4.035,4.035,0,0,0,3.874-2.454,3.783,3.783,0,0,0,.333-1.451c.205-3.573.13-7.15.142-10.725,0-.429-.01-.859.008-1.288a.93.93,0,0,1,.258-.785,1.74,1.74,0,0,1,.357-.023q14.383,0,28.765,0c2.421.245,3.784,2.6,3.78,4.724q-.056,29.074-.021,58.149,0,3.115,0,6.23a4.6,4.6,0,0,1-1.44,3.323A3.7,3.7,0,0,1-7160.5-1223.851Z" fill="#e8f2f7"/>
      <path id="Trazado_190135" data-name="Trazado 190135" d="M-6960.978-1297.018a25.677,25.677,0,0,1,4.562.145,4.125,4.125,0,0,1,3.17,3.995q0,32.509,0,65.018a4.18,4.18,0,0,1-3.128,4.04,2.228,2.228,0,0,0-.312.145h-4.3a4.772,4.772,0,0,0,3.074-2.557,3.956,3.956,0,0,0,.365-1.583q0-32.527,0-65.054a4.262,4.262,0,0,0-2.72-3.847A1.726,1.726,0,0,1-6960.978-1297.018Z" transform="translate(-199.512 -0.176)" fill="#c5e1ef"/>
      <path id="Trazado_190136" data-name="Trazado 190136" d="M-7057.868-1237.909a6.347,6.347,0,0,0-3.176-3.017c-5.257-2.818-6.294-10.4-2.141-14.679a9.254,9.254,0,0,1,6.754-3.071,1.114,1.114,0,0,0,.668.99,9.349,9.349,0,0,1,4.8,6.533,9.31,9.31,0,0,1-2.4,8.664,8.163,8.163,0,0,1-2.332,1.87,3.857,3.857,0,0,0-1.872,2.154C-7057.652-1238.272-7057.677-1238.046-7057.868-1237.909Z" transform="translate(-114.806 -31.204)" fill="#e69fc6"/>
      <path id="Trazado_190137" data-name="Trazado 190137" d="M-7206.425-1279.94a6.155,6.155,0,0,1,2.2-4.475c.78-.7,1.548-1.412,2.312-2.129,2.537-2.379,5.04-4.8,7.615-7.132,1.133-1.028,2.122-2.277,3.677-2.77a6.465,6.465,0,0,1,1.946-.389c0,3.436.045,6.873-.018,10.307-.019.994-.025,2-.128,2.991a4.36,4.36,0,0,1-4.145,3.592Q-7199.7-1279.93-7206.425-1279.94Z" transform="translate(-1.054 -0.35)" fill="#a7d1e6"/>
      <path id="Trazado_190138" data-name="Trazado 190138" d="M-7024.6-1238.005a3.563,3.563,0,0,1,1.683-2.645,9.312,9.312,0,0,0,5.155-7.178,9.454,9.454,0,0,0-5.021-9.9c-.453-.256-.889-.465-.381-1.046a9.581,9.581,0,0,1,9.767,8.038,9.682,9.682,0,0,1-5.372,10.18,1.394,1.394,0,0,0-.652.624c-.84,1.467-1.693,2.927-2.545,4.386-.433.74-.809.747-1.224.023C-7023.668-1236.346-7024.133-1237.177-7024.6-1238.005Z" transform="translate(-148.071 -31.108)" fill="#df81b3"/>
      <path id="Trazado_190139" data-name="Trazado 190139" d="M-7137.011-1085.152q8.517,0,17.033,0c.877,0,1.258.313,1.244,1.016a.987.987,0,0,1-.726,1.024,2.48,2.48,0,0,1-.772.11l-33.635,0a2.6,2.6,0,0,1-.5-.02,1.275,1.275,0,0,1-1-1.151,1.067,1.067,0,0,1,1.18-.977q7.657,0,15.314,0Z" transform="translate(-42.337 -171.51)" fill="#a7d1e6"/>
      <path id="Trazado_190140" data-name="Trazado 190140" d="M-7137-1028.353q-8.479,0-16.958,0c-.64,0-1.133-.171-1.288-.862a1.085,1.085,0,0,1,.6-1.176,1.011,1.011,0,0,1,.621-.116q17.03,0,34.061,0a1.167,1.167,0,0,1,1.269.823,1.019,1.019,0,0,1-.457,1.176,1.288,1.288,0,0,1-.894.153Q-7128.524-1028.351-7137-1028.353Z" transform="translate(-42.412 -215.694)" fill="#a7d1e6"/>
      <path id="Trazado_190141" data-name="Trazado 190141" d="M-7137.095-1104.658h-16.958c-.837,0-1.321-.378-1.343-1.037-.017-.524.581-1.042,1.291-1.107.189-.017.381-.005.572-.005q16.529,0,33.058,0a2.585,2.585,0,0,1,1.122.156,1.027,1.027,0,0,1,.585,1.186.881.881,0,0,1-.868.8c-.212.02-.429.009-.643.009Z" transform="translate(-42.315 -153.996)" fill="#a7d1e6"/>
      <path id="Trazado_190142" data-name="Trazado 190142" d="M-7137.052-994.647h-16.972c-.852,0-1.323-.357-1.361-1.02-.031-.576.638-1.128,1.406-1.128q16.9,0,33.8,0c.568,0,1.107.091,1.355.711a1.039,1.039,0,0,1-.2,1.129c-.289.346-.672.309-1.052.309Z" transform="translate(-42.323 -242.951)" fill="#a7d1e6"/>
      <path id="Trazado_190143" data-name="Trazado 190143" d="M-7140.3-1051.461q6.8,0,13.606,0c1,0,1.348.276,1.353,1.056,0,.709-.464,1.092-1.367,1.092q-13.679,0-27.357,0a1.2,1.2,0,0,1-1.338-1.1c.009-.657.506-1.051,1.352-1.052Q-7147.18-1051.464-7140.3-1051.461Z" transform="translate(-42.307 -198.752)" fill="#a7d1e6"/>
      <path id="Trazado_190144" data-name="Trazado 190144" d="M-7145.22-975.19q4.364,0,8.728,0c.757,0,1.223.36,1.259.96a1.185,1.185,0,0,1-1.067,1.153,3.386,3.386,0,0,1-.64.035q-8.264,0-16.527,0a2.82,2.82,0,0,1-.847-.087,1.035,1.035,0,0,1-.846-1.153.988.988,0,0,1,1.141-.918C-7151.087-975.178-7148.153-975.19-7145.22-975.19Z" transform="translate(-42.499 -260.415)" fill="#a7d1e6"/>
      <path id="Trazado_190145" data-name="Trazado 190145" d="M-7149.749-1167.525q-2.181,0-4.362,0c-.778,0-1.25-.385-1.279-1.028a1.28,1.28,0,0,1,1.27-1.117c1.62-.016,3.242-.006,4.863-.006,1.263,0,2.527-.005,3.792,0a1.287,1.287,0,0,1,1.314.679,1.037,1.037,0,0,1-1.02,1.463C-7146.7-1167.514-7148.222-1167.525-7149.749-1167.525Z" transform="translate(-42.32 -103.164)" fill="#a7d1e6"/>
      <path id="Trazado_190146" data-name="Trazado 190146" d="M-7149.63-1148.039c1.5,0,3-.006,4.5,0,.778,0,1.119.295,1.162.955.043.641-.276,1.019-.991,1.165a1.443,1.443,0,0,1-.284.027c-2.884,0-5.768.018-8.651-.009-1-.009-1.561-.745-1.246-1.507a.961.961,0,0,1,1-.639C-7152.632-1148.028-7151.132-1148.039-7149.63-1148.039Z" transform="translate(-42.455 -120.657)" fill="#a7d1e6"/>
      <path id="Trazado_190147" data-name="Trazado 190147" d="M-7018-1209.809c0,.666.006,1.332,0,2a.908.908,0,0,1-.891,1c-.58.047-1.048-.157-1.144-.806a19.418,19.418,0,0,1-.038-4.332,1.042,1.042,0,0,1,1.119-.986c.555,0,.948.522.956,1.2C-7018-1211.094-7018-1210.452-7018-1209.809Z" transform="translate(-151.647 -68.191)" fill="#e8f1f7"/>
      <path id="Trazado_190148" data-name="Trazado 190148" d="M-7017.929-1232.21c0,.142-.006.285,0,.427a.974.974,0,0,1-.87,1.049,1,1,0,0,1-1.15-.738,2.246,2.246,0,0,1-.057-1.4,1.064,1.064,0,0,1,1.092-.925c.607.012.968.477.985,1.157C-7017.926-1232.495-7017.929-1232.352-7017.929-1232.21Z" transform="translate(-151.719 -51.323)" fill="#e8f1f7"/>
    </g>
  </g>
</svg>
