<svg xmlns="http://www.w3.org/2000/svg" width="116" height="117" viewBox="0 0 116 117">
  <g id="Grupo_124593" data-name="Grupo 124593" transform="translate(-1140 -4302)">
    <g id="Elipse_6897" data-name="Elipse 6897" transform="translate(1140 4302)" fill="#fff" stroke="#242ca3" stroke-width="4">
      <ellipse cx="58" cy="58.5" rx="58" ry="58.5" stroke="none"/>
      <ellipse cx="58" cy="58.5" rx="56" ry="56.5" fill="none"/>
    </g>
    <g id="Grupo_124537" data-name="Grupo 124537" transform="translate(7075.236 5084.875)">
      <path id="Trazado_190188" data-name="Trazado 190188" d="M-5865-667.363c-.284.01-.567.028-.85.028q-21.779,0-43.556.016c-.735,0-.989-.128-.989-.945q.039-35.924,0-71.848c0-.777.216-.917.938-.911,4.688.034,9.375.018,14.063.018.544.85.2,1.79.275,2.687.021.479.006.958.011,1.437.011,1.01.057,1.059,1.039,1.072.62.008,1.241-.005,1.861.006a1.551,1.551,0,0,1,.974.217,1.26,1.26,0,0,1,.213.8,21.328,21.328,0,0,0,.229,4.049.754.754,0,0,1-.156.716,2.347,2.347,0,0,1-1.328.2q-5.493.009-10.988,0c-1.359,0-1.377.016-1.377,1.376q0,23.848,0,47.7c0,.369.012.738-.022,1.106.045.965.033,1.932.013,2.9-.014.7.289.984.968.947.311-.017.625,0,.937,0q14.791,0,29.581,0a9.2,9.2,0,0,1,1.529.055c.482.094.677.468.842.872a18.427,18.427,0,0,0,1.792,3.276,19.244,19.244,0,0,0,3.534,3.585C-5865.257-667.839-5864.962-667.717-5865-667.363Z" transform="translate(0 -18.809)" fill="#57585a"/>
      <path id="Trazado_190189" data-name="Trazado 190189" d="M-5740.473-524.407a16.892,16.892,0,0,1-2.258-4.1,2.342,2.342,0,0,1-.628-1.431,17.97,17.97,0,0,1-.448-2.731q-.039-1.275,0-2.549a16.8,16.8,0,0,1,.478-2.809,16.277,16.277,0,0,1,.958-2.725,21.941,21.941,0,0,1,1.582-2.784,16.79,16.79,0,0,1,2.425-2.677,15.8,15.8,0,0,1,4.4-2.929,15.753,15.753,0,0,1,4.172-1.253,18.314,18.314,0,0,1,4.306-.146,1.539,1.539,0,0,1,1.016.368,17.387,17.387,0,0,1,6.625,2.754,4.523,4.523,0,0,1,.372.33,65.2,65.2,0,0,1,.018,7.232c-.165.477-.444.311-.707.108a11.334,11.334,0,0,1-.91-.869c-.937-1-1.952-1.929-2.9-2.923a3.624,3.624,0,0,0-.157-1.335,1.859,1.859,0,0,0-1.93-1.092,1.933,1.933,0,0,0-1.528,1.621,1.9,1.9,0,0,0,1.293,1.89,4.76,4.76,0,0,1,.983.247c.22.342-.07.532-.25.716-1.146,1.178-2.313,2.337-3.484,3.491-.2.194-.4.422-.733.334a1.69,1.69,0,0,1-.575-.611,5.226,5.226,0,0,0-5.92-2.014,5.238,5.238,0,0,0-3.6,5.378,5.133,5.133,0,0,0,2.052,3.766c.327.253.766.4.849.893a12.482,12.482,0,0,0-.178,2.979c-.007.226-.008.454-.02.68-.023.432.174.624.6.621.852-.006,1.7,0,2.557,0a1.82,1.82,0,0,0,1.287-.739q5.994-6,11.991-11.989a4.1,4.1,0,0,1,.7-.625c.218-.137.425-.179.548.126a40.512,40.512,0,0,1-.122,8.316,8.321,8.321,0,0,1-7.769,6.72c-4.708.085-9.419.023-14.129.021A1.548,1.548,0,0,1-5740.473-524.407Z" transform="translate(-128.606 -165.833)" fill="#2873ba"/>
      <path id="Trazado_190190" data-name="Trazado 190190" d="M-5725.317-697.191a22.8,22.8,0,0,0-5.456,0c-.394-.464-.269-1.027-.269-1.553q-.011-14.693-.006-29.387c0-1.676,0-1.673-1.679-1.678-.71,0-1.419.025-2.129-.02-2.989.045-5.979.014-8.969.016a1.606,1.606,0,0,1-.9-.184.7.7,0,0,1-.178-.709,21.721,21.721,0,0,0,.23-4.067,1.255,1.255,0,0,1,.214-.806,5.864,5.864,0,0,1,2.591-.215c1.269-.042,1.271-.014,1.275-1.285,0-.964-.01-1.928.006-2.891.006-.361-.038-.748.286-1.026,4.685,0,9.369.014,14.054-.015.7,0,.951.1.95.9Q-5725.34-718.653-5725.317-697.191Z" transform="translate(-127.756 -18.816)" fill="#57585a"/>
      <path id="Trazado_190191" data-name="Trazado 190191" d="M-5706.328-527.642c.014-2.231.024-4.462.047-6.693,0-.3-.114-.629.168-.877,5.169,4,7.433,9.3,6.4,15.714-1.061,6.595-5.013,11.025-11.386,13.067a15.73,15.73,0,0,1-13.2-1.63c-.244-.142-.5-.267-.746-.4a18.283,18.283,0,0,1-4.075-4.068c4.993,0,9.985.014,14.979,0a8.144,8.144,0,0,0,7.684-6.8,68.288,68.288,0,0,0,.137-8.231Z" transform="translate(-139.966 -177.711)" fill="#0b54a0"/>
      <path id="Trazado_190192" data-name="Trazado 190192" d="M-5844.519-756.748q-.026-1.362-.054-2.724c.009-1.589.032-3.179.018-4.768,0-.481.074-.7.64-.7q11.966.041,23.932.04c.055.065.137.122.143.208a13.242,13.242,0,0,1-.209,5.391,4.313,4.313,0,0,1-4.175,2.817c-2.811.024-5.622.006-8.434.007q-5.281,0-10.562,0A1.724,1.724,0,0,1-5844.519-756.748Z" transform="translate(-50.822 -0.341)" fill="#ffcf42"/>
      <path id="Trazado_190193" data-name="Trazado 190193" d="M-5844.467-757.09q10.228,0,20.455,0a4.143,4.143,0,0,0,4.074-4.064c.01-1.364,0-2.727.006-4.091.872-.023,1.979-.366,2.548.113.545.458.141,1.595.171,2.432.035.961.023,1.923.032,2.884-.009,1.584-.039,3.168-.015,4.751.009.55-.146.736-.71.719-1.13-.033-2.263.005-3.394.014-.892.45-1.842.167-2.766.225q-6.781.053-13.562,0c-.928-.058-1.882.227-2.776-.225-1.159-.009-2.316-.038-3.474-.017-.479.009-.653-.142-.626-.625C-5844.462-755.677-5844.477-756.384-5844.467-757.09Z" transform="translate(-50.875)" fill="#ef9932"/>
      <path id="Trazado_190194" data-name="Trazado 190194" d="M-5854.006-693.139l9.882.035a1.45,1.45,0,0,1,.273,1.12q.012,5.046,0,10.093a1.734,1.734,0,0,1-.218,1.062,1.28,1.28,0,0,1-.884.24c-5.71.009-11.419.028-17.128-.009a1.818,1.818,0,0,1-.335-.043c-.439-.083-.621-.448-.848-.773a7.213,7.213,0,0,0-9.655-2.356,7.249,7.249,0,0,0-2.581,2.408c-.191.28-.35.59-.715.691-1.584.168-3.173.03-4.759.083-.351.012-.829-.138-.988.28a2.267,2.267,0,0,0,.021,1.664c.122.3.482.249.761.253,1.077.015,2.155,0,3.232.01a1.679,1.679,0,0,1,1.141.24,4.209,4.209,0,0,1,.016,2.74,1.535,1.535,0,0,1-1.126.262c-1.018.013-2.037,0-3.055.007s-1.1.088-1.092,1.125c0,.988.072,1.064,1.055,1.074,1.02.011,2.037,0,3.056.007a1.713,1.713,0,0,1,1.14.235,4.2,4.2,0,0,1,.022,2.746,1.526,1.526,0,0,1-1.125.263c-1.019.013-2.037,0-3.056.007s-1.1.087-1.092,1.125c0,.988.072,1.064,1.055,1.075,1.019.011,2.037,0,3.056.007a1.713,1.713,0,0,1,1.14.235,4.2,4.2,0,0,1,.022,2.746,1.525,1.525,0,0,1-1.125.262c-1.019.013-2.037,0-3.056.007s-1.1.088-1.092,1.125c0,.988.072,1.065,1.055,1.075,1.019.011,2.037,0,3.056.006a1.719,1.719,0,0,1,1.14.235,4.206,4.206,0,0,1,.024,2.743,1.506,1.506,0,0,1-1.122.265c-1.1.015-2.207-.016-3.31.014-.77.021-.845.142-.844,1.115s.065,1.057.875,1.075c1.046.023,2.093,0,3.139.009a2.2,2.2,0,0,1,1.159.177,5.248,5.248,0,0,1,.334,2.873,1.978,1.978,0,0,1-1.152.195c-1.133.009-2.266-.009-3.4.008-.884.013-.953.1-.956,1.087,0,1,.063,1.1.93,1.11,1.586.017,3.172,0,4.758.007a4.914,4.914,0,0,1,1.183.073.891.891,0,0,1,.429.258,7.526,7.526,0,0,0,3.883,2.266c.209.052.843.068.266.564a4.215,4.215,0,0,1-1.271.1c-3.01,0-6.019,0-9.028,0a1.182,1.182,0,0,0-1.044,1.852.616.616,0,0,0,.563.309,8.238,8.238,0,0,0,.937.021q12.649,0,25.3.005c.5,0,1.032-.109,1.467.274v2.719a1.468,1.468,0,0,1-1.128.275q-15.22.01-30.439,0a1.453,1.453,0,0,1-1.127-.276c-.009-.284-.026-.567-.026-.85q0-24.33-.017-48.66c0-.749.149-.994.954-.986,4.347.042,8.693.016,13.039.014.463.032.445.449.561.734a9.482,9.482,0,0,0,8.7,5.877,9.445,9.445,0,0,0,8.582-5.8C-5854.471-692.633-5854.5-693.086-5854.006-693.139Z" transform="translate(-18.503 -55.767)" fill="#eaeaea"/>
      <path id="Trazado_190195" data-name="Trazado 190195" d="M-5886.383-471.605h32.693a29.431,29.431,0,0,0,.862,4.085q-16.438.005-32.878.022c-.545,0-.743-.131-.718-.7C-5886.372-469.333-5886.393-470.47-5886.383-471.605Z" transform="translate(-18.509 -226.82)" fill="#d9d9d8"/>
      <path id="Trazado_190196" data-name="Trazado 190196" d="M-5807.751-711.464a11.936,11.936,0,0,1-2.183,3.7,9.08,9.08,0,0,1-8.089,3.054,9.29,9.29,0,0,1-8.01-6.551.837.837,0,0,0-.151-.2,23.18,23.18,0,0,1-.336-5.424h2.732c.363.437.24.962.237,1.453a8.752,8.752,0,0,0,.542,3.787,6.166,6.166,0,0,0,5.955,4.032,6.2,6.2,0,0,0,6.129-4.03,8.652,8.652,0,0,0,.542-3.765c0-.5-.13-1.031.237-1.477h2.732A23.345,23.345,0,0,1-5807.751-711.464Z" transform="translate(-64.757 -37.443)" fill="#afafaf"/>
      <path id="Trazado_190197" data-name="Trazado 190197" d="M-5701.758-680.8l0-12.256c1.191-.009,2.384-.005,3.575-.035.414-.01.565.142.525.542a5.766,5.766,0,0,0,0,.6q0,15.88,0,31.761a25.366,25.366,0,0,0-4.1,1.251c-.035-.039-.07-.079-.107-.118a10.024,10.024,0,0,1-.136-2.669c-.024-.9-.023-1.8,0-2.7-.022-.908-.024-1.815,0-2.723-.022-.909-.024-1.819,0-2.728-.022-.91-.024-1.819,0-2.729-.022-.91-.024-1.82,0-2.73q-.035-1.369,0-2.738C-5701.94-678.988-5702.25-679.931-5701.758-680.8Z" transform="translate(-160.866 -55.815)" fill="#d9d9d8"/>
      <path id="Trazado_190198" data-name="Trazado 190198" d="M-5863-541.617c-1.559-.007-3.117-.032-4.676-.01-.554.008-.8-.1-.8-.737-.008-2-.035-2,2-2,1.161,0,2.323-.013,3.485-.019a1.243,1.243,0,0,1,.88-.247c4.705,0,9.41-.034,14.116.014,5.617-.047,11.234-.017,16.854-.015a1.286,1.286,0,0,1,.884.238v.066a19.243,19.243,0,0,0-4.242,2.846,8.96,8.96,0,0,1-1.689.122c-3.937-.019-7.873.025-11.81-.022-4.677.049-9.353.014-14.028.017A1.355,1.355,0,0,1-5863-541.617Z" transform="translate(-32.365 -170.427)" fill="#afafaf"/>
      <path id="Trazado_190199" data-name="Trazado 190199" d="M-5861.111-517.676c-2.184-.005-4.366-.033-6.548,0-.645.01-.815-.191-.811-.82.015-1.923-.012-1.921,1.9-1.924,1.3,0,2.607-.01,3.911-.015a1.26,1.26,0,0,1,.961-.253c4.453,0,8.906-.027,13.359.008,3.423-.032,6.847-.013,10.27-.01.414,0,.861-.068,1.189.3l-1.55,2.7a1.413,1.413,0,0,1-.964.264c-3.488-.005-6.977.035-10.465-.018-3.4.049-6.8.013-10.2.021A1.938,1.938,0,0,1-5861.111-517.676Z" transform="translate(-32.372 -188.916)" fill="#afafaf"/>
      <path id="Trazado_190200" data-name="Trazado 190200" d="M-5839.855-493.751c-9.194,0-18.387-.018-27.58.015-.877,0-1.1-.232-1.07-1.085.067-1.663.018-1.663,1.658-1.665q5.15-.008,10.3-.019c.605-.408,1.285-.2,1.935-.232,4.625-.032,9.25-.026,13.875-.018a1.877,1.877,0,0,1,1.383.261Q-5839.606-495.123-5839.855-493.751Z" transform="translate(-32.342 -207.392)" fill="#afafaf"/>
      <path id="Trazado_190201" data-name="Trazado 190201" d="M-5699.138-513.471c1.547-1.44,3.034-2.94,4.484-4.476a2.2,2.2,0,0,1,1.311-1.322c.5-.018.679.437.961.71.661.635,1.277,1.315,1.912,1.976-.082.428-.437.653-.711.929q-6.016,6.029-12.043,12.048a3.241,3.241,0,0,1-3.569.661c-.01-.784.009-1.57-.04-2.351-.024-.394.219-.609.4-.879.008-.32.248-.5.443-.691q3.075-3.087,6.161-6.161C-5699.633-513.223-5699.457-513.463-5699.138-513.471Z" transform="translate(-157.166 -190.019)" fill="#ffcf42"/>
      <path id="Trazado_190202" data-name="Trazado 190202" d="M-5708.312-504.43q-3.573,3.723-7.295,7.295a5.454,5.454,0,0,1-3.11-5.053,5.514,5.514,0,0,1,3.932-5.166,5.532,5.532,0,0,1,6.028,2.206C-5708.6-504.915-5708.459-504.67-5708.312-504.43Z" transform="translate(-147.992 -199.059)" fill="#4791d0"/>
      <path id="Trazado_190203" data-name="Trazado 190203" d="M-5706.767-493.844c1.872.329,3.188-.423,4.492-1.8,3.626-3.821,7.417-7.485,11.146-11.21.219-.219.457-.421.686-.631l1.343,1.25a.057.057,0,0,0,.013.081q-4.687,4.71-9.374,9.42-1.893,1.9-3.8,3.794c-.215.214-.394.47-.77.464-1.107-.018-2.215-.014-3.323,0-.32,0-.474-.093-.448-.433C-5706.773-493.22-5706.776-493.533-5706.767-493.844Z" transform="translate(-157.192 -199.12)" fill="#ef9932"/>
      <path id="Trazado_190204" data-name="Trazado 190204" d="M-5792.481-504.763l-15.314-.009c-.025-.231.151-.3.311-.32a8.132,8.132,0,0,0,4.458-2.376l11.445-.01Z" transform="translate(-79.215 -199.123)" fill="#eaeaea"/>
      <path id="Trazado_190205" data-name="Trazado 190205" d="M-5768.794-528.688l-11.455-.047a5.691,5.691,0,0,1,.335-2.692l12.945-.019c.2,0,.4-.021.552.152A33.856,33.856,0,0,0-5768.794-528.688Z" transform="translate(-100.453 -180.618)" fill="#eaeaea"/>
      <path id="Trazado_190206" data-name="Trazado 190206" d="M-5660.976-528.667a8.476,8.476,0,0,1-1.311,1.322,2.23,2.23,0,0,1-2.437-1.275,1.905,1.905,0,0,1,.674-2.4,1.944,1.944,0,0,1,2.217-.142A2.02,2.02,0,0,1-5660.976-528.667Z" transform="translate(-189.533 -180.622)" fill="#4691d0"/>
      <path id="Trazado_190207" data-name="Trazado 190207" d="M-5831.175-755.031a2.011,2.011,0,0,1-1.326-2.2,2.135,2.135,0,0,1,2.046-1.71c1.815-.023,3.632-.03,5.447,0a2.092,2.092,0,0,1,2.033,2,2.1,2.1,0,0,1-2.039,2.078c-1.133.033-2.269,0-3.4,0a.51.51,0,0,1-.117-.121c-.205-.29,0-.812-.463-.935a3.947,3.947,0,0,0-1.524-.025C-5831.049-755.875-5830.84-755.252-5831.175-755.031Z" transform="translate(-60.116 -4.961)" fill="#ffe65d"/>
      <path id="Trazado_190208" data-name="Trazado 190208" d="M-5826.623-745.745c.034-1.187.034-1.187,1.253-1.187h.084c1.384,0,1.384,0,1.421,1.358-.038,1.371-.038,1.371-1.422,1.371a2.253,2.253,0,0,0-.337,0c-.748.113-1.123-.145-.989-.953A3.236,3.236,0,0,0-5826.623-745.745Z" transform="translate(-64.668 -14.247)" fill="#ef9932"/>
      <path id="Trazado_190209" data-name="Trazado 190209" d="M-5754.674-745.647c.026-1.54-.212-1.293,1.572-1.3,1.374-.005,1.149-.166,1.151,1.546,0,1.4.2,1.164-1.61,1.173C-5754.873-744.22-5754.653-744.1-5754.674-745.647Z" transform="translate(-120.229 -14.227)" fill="#ef9932"/>
      <path id="Trazado_190210" data-name="Trazado 190210" d="M-5800.919-716.888a22.07,22.07,0,0,1-.167,4.137,2.385,2.385,0,0,1-.521,1.308,1.623,1.623,0,0,1-1.131.258q-5,.008-10,0a1.624,1.624,0,0,1-1.131-.258,4.2,4.2,0,0,1-.674-2.478c-.049-.987-.014-1.978-.015-2.967Z" transform="translate(-73.985 -37.443)" fill="#57585a"/>
      <path id="Trazado_190211" data-name="Trazado 190211" d="M-5830.258-640.115v2.717a1.312,1.312,0,0,1-.958.275c-5.589,0-11.179.035-16.768-.016-4.681.047-9.364.014-14.045.016a1.364,1.364,0,0,1-.967-.248c-1.559-.008-3.119-.035-4.678-.012-.557.008-.8-.108-.8-.74-.007-2-.034-2,2-2,1.447,0,2.893-.012,4.339-.019a2.218,2.218,0,0,1,1.232-.256h10.814a2.222,2.222,0,0,1,1.232.256Z" transform="translate(-32.366 -96.501)" fill="#afafaf"/>
      <path id="Trazado_190212" data-name="Trazado 190212" d="M-5830.26-592.246v2.717a1.312,1.312,0,0,1-.957.275c-5.589,0-11.179.034-16.769-.016-4.682.047-9.364.014-14.046.016a1.358,1.358,0,0,1-.966-.25c-1.559-.007-3.117-.033-4.676-.01-.554.008-.8-.1-.8-.737-.008-2-.035-2,2-2,1.161,0,2.323-.013,3.485-.019a1.241,1.241,0,0,1,.88-.247c4.706,0,9.412-.034,14.117.014,5.594-.048,11.188-.015,16.782-.016A1.312,1.312,0,0,1-5830.26-592.246Z" transform="translate(-32.365 -133.456)" fill="#afafaf"/>
      <path id="Trazado_190213" data-name="Trazado 190213" d="M-5830.26-568.3v2.717a1.312,1.312,0,0,1-.957.275c-5.589,0-11.179.035-16.769-.016-4.682.047-9.364.014-14.046.017a1.359,1.359,0,0,1-.966-.25c-1.559-.007-3.117-.033-4.676-.01-.554.008-.8-.1-.8-.737-.008-2-.035-2,2-2,1.161,0,2.323-.012,3.485-.019a1.241,1.241,0,0,1,.88-.247c4.706,0,9.412-.034,14.117.014,5.594-.048,11.188-.015,16.782-.016A1.313,1.313,0,0,1-5830.26-568.3Z" transform="translate(-32.365 -151.942)" fill="#afafaf"/>
      <path id="Trazado_190214" data-name="Trazado 190214" d="M-5830.26-616.189v2.717a1.312,1.312,0,0,1-.957.275c-5.589,0-11.179.035-16.769-.016-4.682.047-9.364.014-14.046.016a1.357,1.357,0,0,1-.966-.25c-1.559-.007-3.117-.033-4.676-.01-.554.008-.8-.1-.8-.737-.008-2-.035-2,2-2,1.161,0,2.323-.013,3.485-.019a1.242,1.242,0,0,1,.88-.247c4.706,0,9.412-.034,14.117.014,5.594-.048,11.188-.015,16.782-.016A1.313,1.313,0,0,1-5830.26-616.189Z" transform="translate(-32.365 -114.97)" fill="#afafaf"/>
      <path id="Trazado_190215" data-name="Trazado 190215" d="M-5829.435-624.434h-14.995q0-1.343,0-2.686h14.993A3.08,3.08,0,0,1-5829.435-624.434Z" transform="translate(-50.933 -106.751)" fill="#fff"/>
      <path id="Trazado_190216" data-name="Trazado 190216" d="M-5829.435-576.556h-14.995v-2.688h14.995A3.087,3.087,0,0,1-5829.435-576.556Z" transform="translate(-50.933 -143.715)" fill="#fff"/>
      <path id="Trazado_190217" data-name="Trazado 190217" d="M-5844.429-555.3h14.995a3.087,3.087,0,0,1,0,2.688h-14.995Z" transform="translate(-50.933 -162.2)" fill="#fff"/>
      <path id="Trazado_190218" data-name="Trazado 190218" d="M-5844.429-603.187h14.995a3.088,3.088,0,0,1,0,2.689h-14.995Z" transform="translate(-50.933 -125.229)" fill="#fff"/>
      <path id="Trazado_190219" data-name="Trazado 190219" d="M-5829.478-531.358a7.375,7.375,0,0,1-.335,2.693h-14.324a6.418,6.418,0,0,1-.335-2.693Z" transform="translate(-50.89 -180.686)" fill="#fff"/>
      <path id="Trazado_190220" data-name="Trazado 190220" d="M-5827.387-652.963h-13.279a7.129,7.129,0,0,1,6.644-4.041A7.04,7.04,0,0,1-5827.387-652.963Z" transform="translate(-53.838 -83.678)" fill="#fff"/>
      <path id="Trazado_190221" data-name="Trazado 190221" d="M-5824.945-507.437c-.29.843-1.071,1.17-1.729,1.611a8.722,8.722,0,0,1-3.039,1.085l-1.878,0a10.8,10.8,0,0,1-2.827-1.059,4.631,4.631,0,0,1-1.768-1.635Z" transform="translate(-57.297 -199.154)" fill="#fff"/>
      <path id="Trazado_190222" data-name="Trazado 190222" d="M-5811.5-693h12.264a5.953,5.953,0,0,1-3.85,3.679,6.806,6.806,0,0,1-8.066-2.825A1.647,1.647,0,0,1-5811.5-693Z" transform="translate(-76.356 -55.888)" fill="#eaeaea"/>
      <path id="Trazado_190223" data-name="Trazado 190223" d="M-5778.644-624.529q0-1.343,0-2.687l17.744-.028v2.74Z" transform="translate(-101.724 -106.656)" fill="#eaeaea"/>
      <path id="Trazado_190224" data-name="Trazado 190224" d="M-5778.643-576.643v-2.689l17.744-.026v2.74Z" transform="translate(-101.725 -143.627)" fill="#eaeaea"/>
      <path id="Trazado_190225" data-name="Trazado 190225" d="M-5778.643-552.7v-2.689l17.744-.026q0,1.352,0,2.7Z" transform="translate(-101.725 -162.113)" fill="#eaeaea"/>
      <path id="Trazado_190226" data-name="Trazado 190226" d="M-5778.643-600.586v-2.689l17.744-.026v2.74Z" transform="translate(-101.725 -125.142)" fill="#eaeaea"/>
    </g>
  </g>
</svg>
