<svg xmlns="http://www.w3.org/2000/svg" xmlns:xlink="http://www.w3.org/1999/xlink" width="327.46" height="428.677" viewBox="0 0 327.46 428.677">
  <defs>
    <linearGradient id="linear-gradient" x1="-7.896" y1="5.063" x2="18.44" y2="-9.25" gradientUnits="objectBoundingBox">
      <stop offset="0" stop-color="#4f52ff"/>
      <stop offset="1" stop-color="#4042e2"/>
    </linearGradient>
    <linearGradient id="linear-gradient-2" x1="-280.688" y1="-0.166" x2="-298.731" y2="3.358" gradientUnits="objectBoundingBox">
      <stop offset="0" stop-color="#09005d"/>
      <stop offset="1" stop-color="#1a0f91"/>
    </linearGradient>
    <linearGradient id="linear-gradient-3" x1="-352.16" y1="-0.086" x2="-374.923" y2="3.376" xlink:href="#linear-gradient-2"/>
    <linearGradient id="linear-gradient-4" x1="-310.584" y1="-0.015" x2="-330.803" y2="3.448" xlink:href="#linear-gradient-2"/>
    <linearGradient id="linear-gradient-5" x1="-207.693" y1="0.121" x2="-221.387" y2="3.397" xlink:href="#linear-gradient-2"/>
    <linearGradient id="linear-gradient-6" x1="-482.071" y1="0.174" x2="-514.071" y2="3.699" xlink:href="#linear-gradient-2"/>
    <linearGradient id="linear-gradient-7" x1="-302.796" y1="0.227" x2="-323.01" y2="3.744" xlink:href="#linear-gradient-2"/>
    <linearGradient id="linear-gradient-8" x1="-188.058" y1="-0.19" x2="-200.053" y2="2.95" xlink:href="#linear-gradient-2"/>
    <linearGradient id="linear-gradient-9" x1="-395.73" y1="-0.166" x2="-413.773" y2="3.358" xlink:href="#linear-gradient-2"/>
    <linearGradient id="linear-gradient-10" x1="-497.26" y1="-0.086" x2="-520.021" y2="3.376" xlink:href="#linear-gradient-2"/>
    <linearGradient id="linear-gradient-11" x1="-439.512" y1="-0.015" x2="-459.732" y2="3.448" xlink:href="#linear-gradient-2"/>
    <linearGradient id="linear-gradient-12" x1="-295.006" y1="0.121" x2="-308.701" y2="3.397" xlink:href="#linear-gradient-2"/>
    <linearGradient id="linear-gradient-13" x1="-686.149" y1="0.174" x2="-718.152" y2="3.699" xlink:href="#linear-gradient-2"/>
    <linearGradient id="linear-gradient-14" x1="-431.633" y1="0.227" x2="-451.846" y2="3.744" xlink:href="#linear-gradient-2"/>
    <linearGradient id="linear-gradient-15" x1="-264.528" y1="-0.19" x2="-276.524" y2="2.95" xlink:href="#linear-gradient-2"/>
    <linearGradient id="linear-gradient-16" x1="-360.22" y1="-0.167" x2="-381.131" y2="3.363" xlink:href="#linear-gradient-2"/>
    <linearGradient id="linear-gradient-17" x1="-452.602" y1="-0.086" x2="-478.914" y2="3.373" xlink:href="#linear-gradient-2"/>
    <linearGradient id="linear-gradient-18" x1="-399.85" y1="-0.016" x2="-423.252" y2="3.449" xlink:href="#linear-gradient-2"/>
    <linearGradient id="linear-gradient-19" x1="-268.241" y1="0.123" x2="-284.011" y2="3.383" xlink:href="#linear-gradient-2"/>
    <linearGradient id="linear-gradient-20" x1="-623.762" y1="0.176" x2="-660.657" y2="3.687" xlink:href="#linear-gradient-2"/>
    <linearGradient id="linear-gradient-21" x1="-392.279" y1="0.227" x2="-415.676" y2="3.745" xlink:href="#linear-gradient-2"/>
    <linearGradient id="linear-gradient-22" x1="-240.896" y1="-0.189" x2="-254.742" y2="2.944" xlink:href="#linear-gradient-2"/>
    <linearGradient id="linear-gradient-23" x1="-3.112" y1="-3.045" x2="-3.092" y2="1.639" xlink:href="#linear-gradient-2"/>
    <linearGradient id="linear-gradient-24" x1="-14.276" y1="0.5" x2="-13.276" y2="0.5" gradientUnits="objectBoundingBox">
      <stop offset="0" stop-color="#febbba"/>
      <stop offset="1" stop-color="#ff928e"/>
    </linearGradient>
    <linearGradient id="linear-gradient-25" x1="-8.44" y1="-3.752" x2="-8.39" y2="1.733" xlink:href="#linear-gradient-2"/>
    <linearGradient id="linear-gradient-26" x1="-16.535" y1="0.5" x2="-15.535" y2="0.5" xlink:href="#linear-gradient-24"/>
  </defs>
  <g id="Grupo_124759" data-name="Grupo 124759" transform="translate(-637.349 -4835.3)">
    <path id="Trazado_190736" data-name="Trazado 190736" d="M21,0H306.46a21,21,0,0,1,21,21V407.677a21,21,0,0,1-21,21H21a21,21,0,0,1-21-21V21A21,21,0,0,1,21,0Z" transform="translate(637.349 4835.3)" fill="#eeeffb"/>
    <g id="Grupo_122745" data-name="Grupo 122745" transform="translate(666.33 4878.286)">
      <path id="Trazado_188578" data-name="Trazado 188578" d="M731.827,698.725a96.406,96.406,0,0,1-14.75,12.42c-48.119,34.526-105.057,24.462-117.158,22-17.869-3.63-52.41-10.645-77.382-40.012-37.781-44.43-31.9-114.427-2.592-160.634,5.36-8.452,33.676-55.362,91.227-62.885C646,465.065,686.6,474.248,716,498.88,777.717,550.585,773.323,655.04,731.827,698.725Z" transform="translate(-496.068 -467.872)" fill="#fdf5af"/>
      <g id="Grupo_122731" data-name="Grupo 122731" transform="translate(45.94)">
        <path id="Trazado_188579" data-name="Trazado 188579" d="M987.9,818.012h158.061a16.375,16.375,0,0,1,16.354,15.542l9.5,194.538a12.075,12.075,0,0,1-11.841,12.687l-181.157,3.293a11.462,11.462,0,0,1-11.67-11.46L969.316,836.6A18.587,18.587,0,0,1,987.9,818.012Z" transform="translate(-967.153 -783.306)" fill="#febf10"/>
        <path id="Trazado_188580" data-name="Trazado 188580" d="M1057.177,2691.488h-.006l-20.271-.262a12.474,12.474,0,0,1-12.265-12.425v-30.6a.405.405,0,0,1,.811,0v30.6a11.66,11.66,0,0,0,11.465,11.614l20.271.263a.405.405,0,0,1-.005.811Z" transform="translate(-1019.029 -2434.644)" fill="#91b3fa"/>
        <path id="Trazado_188581" data-name="Trazado 188581" d="M1025.04,2505.525a.406.406,0,0,1-.405-.406v-4.956a.405.405,0,0,1,.811,0v4.956A.406.406,0,0,1,1025.04,2505.525Z" transform="translate(-1019.029 -2301.047)" fill="url(#linear-gradient)"/>
        <g id="Grupo_122729" data-name="Grupo 122729" transform="translate(14.371 32.799)">
          <path id="Trazado_188582" data-name="Trazado 188582" d="M1121.387,798.5c21.585,2.927,95.808,11.98,157.176,7.269a4.992,4.992,0,0,1,5.376,4.708l10.07,195.559a5.745,5.745,0,0,1-5.4,6.042c-25.81,1.527-132.1,7.432-170.017,3.461a4.55,4.55,0,0,1-4.072-4.5l.741-207.151A5.4,5.4,0,0,1,1121.387,798.5Z" transform="translate(-1114.522 -798.453)" fill="#fbeb5c"/>
          <path id="Trazado_188583" data-name="Trazado 188583" d="M1146.731,859.747c20.772,2.817,92.2,11.529,151.257,7a4.8,4.8,0,0,1,5.173,4.531l9.609,186.892a5.529,5.529,0,0,1-5.195,5.814c-24.838,1.47-127.129,7.152-163.614,3.33a4.381,4.381,0,0,1-3.92-4.335l.8-198.047A5.2,5.2,0,0,1,1146.731,859.747Z" transform="translate(-1137.554 -853.727)" fill="#fff"/>
          <g id="Grupo_122727" data-name="Grupo 122727" transform="translate(19.145 61.245)">
            <path id="Trazado_188584" data-name="Trazado 188584" d="M1329.436,1493.993h-.035l-13.7-.131a3.563,3.563,0,0,1-3.64-3.025l-1.2-11.5a2.383,2.383,0,0,1,.563-1.789,2.891,2.891,0,0,1,2.013-.991h0c1.154-.079,2.777-.217,4.5-.364,3.624-.308,8.135-.693,10.671-.724h.055a3.7,3.7,0,0,1,3.664,2.6c.71,2.624.647,7.61.512,12.923A3.266,3.266,0,0,1,1329.436,1493.993Zm-.787-17.712h-.044c-2.506.031-7,.414-10.613.722-1.722.146-3.349.285-4.509.365h0a2.069,2.069,0,0,0-1.447.7,1.577,1.577,0,0,0-.377,1.183l1.2,11.5a2.754,2.754,0,0,0,2.841,2.3l13.7.132h.027a2.455,2.455,0,0,0,2.579-2.214c.134-5.25.2-10.171-.483-12.69A2.893,2.893,0,0,0,1328.65,1476.282Z" transform="translate(-1310.84 -1470.693)" fill="#fff"/>
            <path id="Trazado_188585" data-name="Trazado 188585" d="M1336.8,1500.292c2.878-.2,9.134-.832,12.1-.868a2.652,2.652,0,0,1,2.655,1.833c.572,2.118.5,6.338.4,10.234a2.279,2.279,0,0,1-2.41,2.086l-10.949-.105a2.53,2.53,0,0,1-2.59-2.126l-.963-9.188A1.779,1.779,0,0,1,1336.8,1500.292Z" transform="translate(-1332.676 -1492.309)" fill="#fff" opacity="0.6"/>
            <g id="Grupo_122722" data-name="Grupo 122722" transform="translate(29.678 11.507)" opacity="0.6">
              <path id="Trazado_188586" data-name="Trazado 188586" d="M1615.609,1544.478a.4.4,0,0,0-.411.575l2.052,5.676a.955.955,0,0,0,.835.586h96.427a.6.6,0,0,0,.6-.622l-.116-3.867a.661.661,0,0,0-.642-.633Z" transform="translate(-1615.163 -1544.478)" fill="#fff"/>
            </g>
            <path id="Trazado_188587" data-name="Trazado 188587" d="M1349.086,1436.266h0a2.1,2.1,0,0,1,2.9.789l2.7,4.845a.676.676,0,0,0,1.206-.052l6.7-14.924a.749.749,0,0,1,1.431.323,29.463,29.463,0,0,1-8.573,20.505s-4.02-1.562-7.257-8.67A2.206,2.206,0,0,1,1349.086,1436.266Z" transform="translate(-1344.377 -1426.48)" fill="#12263f"/>
            <path id="Trazado_188588" data-name="Trazado 188588" d="M1329.437,1795.145h-.036l-13.7-.132a3.562,3.562,0,0,1-3.64-3.025l-1.2-11.5a2.381,2.381,0,0,1,.563-1.789,2.892,2.892,0,0,1,2.013-.992h0c1.156-.079,2.784-.218,4.508-.365,3.62-.308,8.126-.692,10.659-.724h.054a3.7,3.7,0,0,1,3.665,2.6c.71,2.624.647,7.61.512,12.922A3.266,3.266,0,0,1,1329.437,1795.145Zm-15.953-16.625a2.07,2.07,0,0,0-1.448.7,1.578,1.578,0,0,0-.377,1.183l1.2,11.5a2.755,2.755,0,0,0,2.841,2.3l13.7.131h.028a2.454,2.454,0,0,0,2.578-2.214c.134-5.25.2-10.171-.483-12.69a2.872,2.872,0,0,0-2.926-2c-2.5.031-6.993.414-10.6.721-1.728.147-3.358.286-4.521.366Z" transform="translate(-1310.84 -1742.476)" fill="#fff"/>
            <path id="Trazado_188589" data-name="Trazado 188589" d="M1336.8,1801.442c2.878-.2,9.134-.832,12.1-.868a2.653,2.653,0,0,1,2.655,1.834c.572,2.117.5,6.338.4,10.234a2.28,2.28,0,0,1-2.41,2.086l-10.949-.106a2.53,2.53,0,0,1-2.59-2.126l-.963-9.187A1.78,1.78,0,0,1,1336.8,1801.442Z" transform="translate(-1332.676 -1764.092)" fill="#fff" opacity="0.6"/>
            <g id="Grupo_122723" data-name="Grupo 122723" transform="translate(29.678 40.875)" opacity="0.6">
              <path id="Trazado_188590" data-name="Trazado 188590" d="M1615.609,1845.63a.4.4,0,0,0-.411.574l2.052,5.677a.955.955,0,0,0,.835.585h96.427a.6.6,0,0,0,.6-.622l-.116-3.867a.662.662,0,0,0-.642-.633Z" transform="translate(-1615.163 -1845.63)" fill="#fff"/>
            </g>
            <path id="Trazado_188591" data-name="Trazado 188591" d="M1349.086,1737.417h0a2.1,2.1,0,0,1,2.9.789l2.7,4.845a.676.676,0,0,0,1.206-.052l6.7-14.924a.748.748,0,0,1,1.431.323,29.465,29.465,0,0,1-8.573,20.506s-4.02-1.562-7.257-8.67A2.206,2.206,0,0,1,1349.086,1737.417Z" transform="translate(-1344.377 -1698.264)" fill="#12263f"/>
            <path id="Trazado_188592" data-name="Trazado 188592" d="M1329.437,2096.295h-.036l-13.7-.132a3.562,3.562,0,0,1-3.64-3.024l-1.2-11.5a2.383,2.383,0,0,1,.563-1.79,2.888,2.888,0,0,1,2.013-.992h0c1.156-.078,2.784-.217,4.508-.365,3.62-.308,8.126-.692,10.659-.724h.054a3.7,3.7,0,0,1,3.665,2.6c.71,2.624.647,7.61.512,12.922A3.266,3.266,0,0,1,1329.437,2096.295Zm-15.953-16.625a2.067,2.067,0,0,0-1.448.7,1.576,1.576,0,0,0-.377,1.182l1.2,11.5a2.754,2.754,0,0,0,2.841,2.3l13.7.132h.028a2.454,2.454,0,0,0,2.578-2.214c.134-5.251.2-10.172-.483-12.691a2.879,2.879,0,0,0-2.926-2c-2.5.031-6.993.414-10.6.721-1.728.147-3.358.285-4.521.365Z" transform="translate(-1310.84 -2014.258)" fill="#fff"/>
            <path id="Trazado_188593" data-name="Trazado 188593" d="M1336.8,2102.594c2.878-.2,9.134-.832,12.1-.868a2.652,2.652,0,0,1,2.655,1.833c.572,2.118.5,6.339.4,10.235a2.278,2.278,0,0,1-2.41,2.084l-10.949-.1a2.529,2.529,0,0,1-2.59-2.126l-.963-9.188A1.78,1.78,0,0,1,1336.8,2102.594Z" transform="translate(-1332.676 -2035.875)" fill="#fff" opacity="0.6"/>
            <g id="Grupo_122724" data-name="Grupo 122724" transform="translate(29.68 70.244)" opacity="0.6">
              <path id="Trazado_188594" data-name="Trazado 188594" d="M1615.627,2146.779a.4.4,0,0,0-.408.574l2.084,5.678a.96.96,0,0,0,.837.585h97.909a.6.6,0,0,0,.6-.622l-.118-3.868a.662.662,0,0,0-.642-.633Z" transform="translate(-1615.183 -2146.779)" fill="#fff"/>
            </g>
            <path id="Trazado_188595" data-name="Trazado 188595" d="M1349.086,2038.568h0a2.1,2.1,0,0,1,2.9.79l2.7,4.844a.675.675,0,0,0,1.206-.052l6.7-14.924a.749.749,0,0,1,1.431.323,29.466,29.466,0,0,1-8.573,20.506s-4.02-1.563-7.257-8.67A2.207,2.207,0,0,1,1349.086,2038.568Z" transform="translate(-1344.377 -1970.046)" fill="#12263f"/>
            <path id="Trazado_188596" data-name="Trazado 188596" d="M1329.437,2397.449h-.036l-13.7-.132a3.563,3.563,0,0,1-3.64-3.025l-1.2-11.5a2.383,2.383,0,0,1,.563-1.789,2.89,2.89,0,0,1,2.013-.991h0c1.154-.079,2.777-.217,4.5-.364,3.625-.309,8.136-.693,10.671-.724h.055a3.7,3.7,0,0,1,3.664,2.6c.71,2.624.647,7.609.512,12.922A3.266,3.266,0,0,1,1329.437,2397.449Zm-.787-17.712h-.044c-2.506.031-7,.415-10.613.723-1.722.146-3.348.284-4.508.364h0a2.071,2.071,0,0,0-1.447.7,1.575,1.575,0,0,0-.377,1.182l1.2,11.5a2.755,2.755,0,0,0,2.841,2.3l13.7.131h.028a2.455,2.455,0,0,0,2.578-2.215c.134-5.25.2-10.171-.483-12.69A2.893,2.893,0,0,0,1328.65,2379.738Z" transform="translate(-1310.84 -2286.045)" fill="#fff"/>
            <path id="Trazado_188597" data-name="Trazado 188597" d="M1336.8,2403.745c2.878-.2,9.134-.832,12.1-.869a2.654,2.654,0,0,1,2.655,1.834c.572,2.117.5,6.338.4,10.234a2.279,2.279,0,0,1-2.41,2.085l-10.949-.1a2.531,2.531,0,0,1-2.59-2.127l-.963-9.187A1.779,1.779,0,0,1,1336.8,2403.745Z" transform="translate(-1332.676 -2307.658)" fill="#12263f" opacity="0.6"/>
            <g id="Grupo_122725" data-name="Grupo 122725" transform="translate(29.683 99.612)" opacity="0.6">
              <path id="Trazado_188598" data-name="Trazado 188598" d="M1615.662,2447.928a.394.394,0,0,0-.4.572l2.147,5.683a.973.973,0,0,0,.843.582h100.818a.6.6,0,0,0,.6-.623l-.122-3.866a.663.663,0,0,0-.642-.633Z" transform="translate(-1615.221 -2447.928)" fill="#fff"/>
            </g>
            <path id="Trazado_188599" data-name="Trazado 188599" d="M1349.086,2339.719h0a2.1,2.1,0,0,1,2.9.789l2.7,4.845a.676.676,0,0,0,1.206-.052l6.7-14.924a.748.748,0,0,1,1.431.323,29.465,29.465,0,0,1-8.573,20.506s-4.02-1.562-7.257-8.671A2.207,2.207,0,0,1,1349.086,2339.719Z" transform="translate(-1344.377 -2241.829)" fill="#fbeb5c"/>
            <path id="Trazado_188600" data-name="Trazado 188600" d="M1346.266,2697.834h-.036l-13.7-.13a3.563,3.563,0,0,1-3.64-3.025l-1.2-11.5a2.381,2.381,0,0,1,.563-1.789,2.887,2.887,0,0,1,2.013-.991h0c1.154-.079,2.777-.218,4.5-.363,3.625-.31,8.136-.694,10.672-.726h.054a3.7,3.7,0,0,1,3.665,2.595c.71,2.625.647,7.61.511,12.923A3.265,3.265,0,0,1,1346.266,2697.834Zm-.787-17.711h-.044c-2.506.031-7,.415-10.613.722-1.722.146-3.348.285-4.509.365h0a2.075,2.075,0,0,0-1.447.7,1.579,1.579,0,0,0-.377,1.183l1.2,11.5a2.755,2.755,0,0,0,2.841,2.3l13.7.131h.028a2.455,2.455,0,0,0,2.578-2.214c.134-5.251.2-10.172-.484-12.69A2.893,2.893,0,0,0,1345.479,2680.123Z" transform="translate(-1326.028 -2557.136)" fill="#fff"/>
            <path id="Trazado_188601" data-name="Trazado 188601" d="M1353.631,2704.131c2.879-.2,9.135-.832,12.1-.868a2.652,2.652,0,0,1,2.655,1.834c.573,2.117.5,6.338.4,10.233a2.28,2.28,0,0,1-2.41,2.085l-10.951-.105a2.529,2.529,0,0,1-2.59-2.127l-.963-9.186A1.778,1.778,0,0,1,1353.631,2704.131Z" transform="translate(-1347.864 -2578.751)" fill="#fff" opacity="0.6"/>
            <g id="Grupo_122726" data-name="Grupo 122726" transform="translate(31.967 128.905)" opacity="0.6">
              <path id="Trazado_188602" data-name="Trazado 188602" d="M1639.08,2748.314a.394.394,0,0,0-.4.571l2.143,5.682a.969.969,0,0,0,.843.583h100.647a.6.6,0,0,0,.6-.622l-.12-3.867a.663.663,0,0,0-.642-.634Z" transform="translate(-1638.64 -2748.314)" fill="#fff"/>
            </g>
            <path id="Trazado_188603" data-name="Trazado 188603" d="M1365.914,2640.1h0a2.1,2.1,0,0,1,2.9.79l2.7,4.846a.675.675,0,0,0,1.205-.053l6.7-14.924a.748.748,0,0,1,1.431.323,29.465,29.465,0,0,1-8.574,20.506s-4.019-1.562-7.256-8.671A2.206,2.206,0,0,1,1365.914,2640.1Z" transform="translate(-1359.563 -2512.922)" fill="#12263f"/>
          </g>
          <g id="Grupo_122728" data-name="Grupo 122728" transform="translate(12.819 29.684)">
            <path id="Trazado_188604" data-name="Trazado 188604" d="M1263.6,1147.53l-2.6.059a1.138,1.138,0,0,1-.724-.2,1.24,1.24,0,0,1-.418-.535l-1.434-3.654-7.482.171-1.265,3.715a1.181,1.181,0,0,1-.381.533,1.1,1.1,0,0,1-.713.254l-2.61.06,6.682-18.224,3.435-.078Zm-11.847-6.553,5.758-.131-2.336-5.958q-.159-.4-.352-.936t-.383-1.172q-.161.641-.316,1.2t-.309.969Z" transform="translate(-1245.974 -1127.018)" fill="#12263f"/>
            <path id="Trazado_188605" data-name="Trazado 188605" d="M1446.325,1137.851l.145,6.358-3.36.077-.413-18.062,5.883-.134a10.308,10.308,0,0,1,3.145.353,6.044,6.044,0,0,1,2.213,1.137,4.65,4.65,0,0,1,1.316,1.794,6.8,6.8,0,0,1,.083,4.728,5,5,0,0,1-1.269,1.91,6.1,6.1,0,0,1-2.157,1.274,9.721,9.721,0,0,1-3.063.507Zm-.06-2.623,2.523-.058a5.075,5.075,0,0,0,1.606-.268,2.991,2.991,0,0,0,1.121-.688,2.706,2.706,0,0,0,.651-1.064,4,4,0,0,0,.193-1.386,3.633,3.633,0,0,0-.255-1.307,2.6,2.6,0,0,0-.7-.983,3,3,0,0,0-1.151-.605,5.365,5.365,0,0,0-1.616-.182l-2.523.058Z" transform="translate(-1423.513 -1123.819)" fill="#12263f"/>
            <path id="Trazado_188606" data-name="Trazado 188606" d="M1606.428,1134.192l.145,6.358-3.36.077-.413-18.062,5.883-.135a10.315,10.315,0,0,1,3.145.353,6.037,6.037,0,0,1,2.213,1.136,4.645,4.645,0,0,1,1.316,1.795,6.355,6.355,0,0,1,.465,2.314,6.423,6.423,0,0,1-.382,2.415,5,5,0,0,1-1.269,1.91,6.111,6.111,0,0,1-2.158,1.274,9.728,9.728,0,0,1-3.063.507Zm-.06-2.623,2.523-.058a5.052,5.052,0,0,0,1.606-.268,2.985,2.985,0,0,0,1.121-.688,2.717,2.717,0,0,0,.651-1.065,4.017,4.017,0,0,0,.193-1.386,3.64,3.64,0,0,0-.254-1.306,2.594,2.594,0,0,0-.7-.984,3,3,0,0,0-1.151-.6,5.326,5.326,0,0,0-1.616-.182l-2.523.057Z" transform="translate(-1568.003 -1120.516)" fill="#12263f"/>
            <path id="Trazado_188607" data-name="Trazado 188607" d="M1766.516,1129.906l.161,7.057-3.36.077-.413-18.062,5.508-.126a11.517,11.517,0,0,1,3.175.308,6.041,6.041,0,0,1,2.185,1.019,4.124,4.124,0,0,1,1.274,1.615,5.76,5.76,0,0,1,.212,3.825,4.984,4.984,0,0,1-.741,1.492,5.211,5.211,0,0,1-1.223,1.19,6.556,6.556,0,0,1-1.674.838,3.326,3.326,0,0,1,1.123,1.012l4.674,6.566-3.022.069a1.475,1.475,0,0,1-.748-.158,1.512,1.512,0,0,1-.53-.488l-3.929-5.7a1.338,1.338,0,0,0-.479-.451,1.637,1.637,0,0,0-.759-.12Zm-.055-2.411,2.1-.048a5.213,5.213,0,0,0,1.649-.275,3.2,3.2,0,0,0,1.146-.683,2.632,2.632,0,0,0,.658-1.009,3.427,3.427,0,0,0,.2-1.266,2.568,2.568,0,0,0-.953-2.091,4.335,4.335,0,0,0-2.784-.674l-2.149.049Z" transform="translate(-1712.494 -1117.287)" fill="#12263f"/>
            <path id="Trazado_188608" data-name="Trazado 188608" d="M1933.675,1121.543a10.019,10.019,0,0,1-.578,3.694,8.7,8.7,0,0,1-1.794,2.972,8.417,8.417,0,0,1-2.841,1.995,10.427,10.427,0,0,1-7.475.171,8.478,8.478,0,0,1-2.942-1.863,8.657,8.657,0,0,1-1.934-2.886,10.553,10.553,0,0,1-.168-7.357,8.671,8.671,0,0,1,1.8-2.972,8.481,8.481,0,0,1,2.854-2,9.782,9.782,0,0,1,3.725-.779,9.655,9.655,0,0,1,3.75.614A8.551,8.551,0,0,1,1931,1115a8.656,8.656,0,0,1,1.928,2.88A10.006,10.006,0,0,1,1933.675,1121.543Zm-3.447.079a8.417,8.417,0,0,0-.455-2.658,5.647,5.647,0,0,0-1.176-1.978,4.87,4.87,0,0,0-1.822-1.221,6.715,6.715,0,0,0-4.764.109,4.909,4.909,0,0,0-1.776,1.3,5.665,5.665,0,0,0-1.1,2.03,9.113,9.113,0,0,0,.122,5.334,5.591,5.591,0,0,0,1.189,1.972,4.942,4.942,0,0,0,1.833,1.214,6.709,6.709,0,0,0,4.765-.109,4.9,4.9,0,0,0,1.763-1.3,5.577,5.577,0,0,0,1.085-2.025A8.414,8.414,0,0,0,1930.229,1121.622Z" transform="translate(-1850.083 -1111.574)" fill="#12263f"/>
            <path id="Trazado_188609" data-name="Trazado 188609" d="M2102.839,1108.686l2.71-.062a1.139,1.139,0,0,1,.718.2,1.3,1.3,0,0,1,.424.54l4.5,10.92q.224.532.433,1.171t.4,1.346a15.405,15.405,0,0,1,.655-2.552l3.982-11.114a1.279,1.279,0,0,1,.387-.533,1.08,1.08,0,0,1,.706-.254l2.71-.062-6.881,18.228-3.035.069Z" transform="translate(-2019.277 -1107.752)" fill="#12263f"/>
            <path id="Trazado_188610" data-name="Trazado 188610" d="M2314.293,1105.171l.061,2.673-8.006.183.114,5.008,6.307-.144.059,2.585-6.308.145.117,5.108,8.006-.183.062,2.685-11.391.261-.413-18.062Z" transform="translate(-2199.83 -1104.943)" fill="#12263f"/>
            <path id="Trazado_188611" data-name="Trazado 188611" d="M2465.8,1111.665a9.762,9.762,0,0,1-.579,3.663,8.2,8.2,0,0,1-4.639,4.829,10.137,10.137,0,0,1-3.72.747l-6.895.158-.413-18.061,6.9-.158a10.066,10.066,0,0,1,3.75.583,8.453,8.453,0,0,1,2.928,1.8,8.314,8.314,0,0,1,1.927,2.812A9.807,9.807,0,0,1,2465.8,1111.665Zm-3.434.078a8.311,8.311,0,0,0-.462-2.657,5.64,5.64,0,0,0-1.183-1.973,4.885,4.885,0,0,0-1.821-1.214,6.171,6.171,0,0,0-2.389-.383l-3.51.08.291,12.715,3.51-.08a6.179,6.179,0,0,0,2.371-.491,4.907,4.907,0,0,0,1.762-1.3,5.661,5.661,0,0,0,1.092-2.025A8.34,8.34,0,0,0,2462.366,1111.743Z" transform="translate(-2332.182 -1102.84)" fill="#12263f"/>
            <path id="Trazado_188612" data-name="Trazado 188612" d="M2638.553,1158.812a1.922,1.922,0,0,1,.126-.74,1.763,1.763,0,0,1,.386-.609,1.97,1.97,0,0,1,.6-.414,1.884,1.884,0,0,1,.747-.167,1.851,1.851,0,0,1,.74.133,1.832,1.832,0,0,1,1.022.977,1.9,1.9,0,0,1,.033,1.48,1.918,1.918,0,0,1-.386.6,1.787,1.787,0,0,1-.591.407,1.909,1.909,0,0,1-.733.161,1.956,1.956,0,0,1-.753-.127,1.855,1.855,0,0,1-.615-.38,1.776,1.776,0,0,1-.414-.584A1.905,1.905,0,0,1,2638.553,1158.812Zm.2,8.906a1.922,1.922,0,0,1,.127-.74,1.755,1.755,0,0,1,.386-.609,1.968,1.968,0,0,1,.6-.414,1.884,1.884,0,0,1,.746-.167,1.856,1.856,0,0,1,.741.133,1.841,1.841,0,0,1,1.022.976,1.9,1.9,0,0,1,.033,1.48,1.9,1.9,0,0,1-.386.6,1.8,1.8,0,0,1-.591.407,1.927,1.927,0,0,1-.733.161,1.962,1.962,0,0,1-.753-.127,1.877,1.877,0,0,1-.615-.38,1.785,1.785,0,0,1-.413-.584A1.911,1.911,0,0,1,2638.756,1167.719Z" transform="translate(-2502.749 -1151.613)" fill="#12263f"/>
          </g>
        </g>
        <path id="Trazado_188613" data-name="Trazado 188613" d="M1913.647,465.583c-5.709-3.972-10.673-3.893-14.168-2.862a6.971,6.971,0,0,0-4.951,7.328l1.508,16.45,17.933,1.592S1924.844,473.372,1913.647,465.583Zm-7.887,13.271a4.472,4.472,0,1,1,4.472-4.472A4.472,4.472,0,0,1,1905.76,478.854Z" transform="translate(-1804.063 -462.121)" fill="#febf10"/>
        <g id="Grupo_122730" data-name="Grupo 122730" transform="translate(92.679 2.436)">
          <path id="Trazado_188614" data-name="Trazado 188614" d="M1918.595,502.1a.406.406,0,0,1-.4-.369l-.24-2.619a.405.405,0,1,1,.807-.074l.24,2.619a.405.405,0,0,1-.367.441Zm-.47-5.134a.406.406,0,0,1-.4-.369l-.182-1.989a6.624,6.624,0,0,1,4.7-6.952,13.375,13.375,0,0,1,6.541-.269.406.406,0,1,1-.163.795,12.582,12.582,0,0,0-6.149.252,5.811,5.811,0,0,0-4.119,6.1l.182,1.989a.406.406,0,0,1-.367.441Z" transform="translate(-1917.511 -487.1)" fill="#91b3fa"/>
        </g>
        <path id="Trazado_188615" data-name="Trazado 188615" d="M1659.265,697.872V689.6a5.047,5.047,0,0,1,5.22-5.044l57.021,1.954a4.908,4.908,0,0,1,4.732,4.612l.477,7.947Z" transform="translate(-1591.77 -662.863)" fill="#fbeb5c"/>
        <path id="Trazado_188616" data-name="Trazado 188616" d="M1850.844,708.755h-2.452a.406.406,0,1,1,0-.811h2.452a.406.406,0,0,1,0,.811Z" transform="translate(-1762.087 -683.971)" fill="#91b3fa"/>
        <path id="Trazado_188617" data-name="Trazado 188617" d="M1687.16,716.356a.406.406,0,0,1-.406-.406v-3.345a4.666,4.666,0,0,1,4.661-4.661h9.016a.406.406,0,0,1,0,.811h-9.016a3.855,3.855,0,0,0-3.85,3.85v3.345A.405.405,0,0,1,1687.16,716.356Z" transform="translate(-1616.579 -683.971)" fill="#91b3fa"/>
        <path id="Trazado_188618" data-name="Trazado 188618" d="M1424.3,790.051l99.713,0a7.37,7.37,0,0,1,7.262,6.113l.084.488a6.329,6.329,0,0,1-6.237,7.409h-102.3a4.116,4.116,0,0,1-4.111-4.313l.22-4.578A5.373,5.373,0,0,1,1424.3,790.051Z" transform="translate(-1374.674 -758.068)" fill="#febf10"/>
      </g>
      <g id="Grupo_122738" data-name="Grupo 122738" transform="translate(142.107 148.598)">
        <g id="Grupo_122733" data-name="Grupo 122733" transform="translate(11.848 48.99)">
          <path id="Trazado_188619" data-name="Trazado 188619" d="M2176.389,2558.924a10.834,10.834,0,0,0,11.04-10.833v-48.208a11.55,11.55,0,0,0-11.424-11.555c-19.008-.208-58.211-.218-90.288,2.485a8.686,8.686,0,0,0-7.941,8.347l-3,46.606A11.036,11.036,0,0,0,2085.6,2557.2Z" transform="translate(-2074.772 -2488.246)" fill="#febf10"/>
          <path id="Trazado_188620" data-name="Trazado 188620" d="M2902.286,2627.463c.08,4.1-.042,10.61-.142,14.816a3.712,3.712,0,0,1-4.146,3.6l-15.643-1.833a3.716,3.716,0,0,1-3.242-4.241l1.921-12.809a3.713,3.713,0,0,1,3.673-3.163h13.863A3.709,3.709,0,0,1,2902.286,2627.463Z" transform="translate(-2800.638 -2610.611)" fill="#fff"/>
          <path id="Trazado_188621" data-name="Trazado 188621" d="M2546.994,2531.133l-13.048,1.408a2.942,2.942,0,0,1-3.25-3.14l2.853-38.818c5.47-.173,10.866-.3,16.072-.389v38.014A2.94,2.94,0,0,1,2546.994,2531.133Z" transform="translate(-2486.227 -2490.005)" fill="#fff" opacity="0.37"/>
          <path id="Trazado_188622" data-name="Trazado 188622" d="M2618.788,2525.512a1.311,1.311,0,0,1-1.308,1.235c-.026,0-.052,0-.078,0a1.309,1.309,0,0,1-1.233-1.385l1.967-33.878c.883-.022,1.758-.042,2.634-.06Z" transform="translate(-2563.369 -2491.112)" fill="#fff"/>
          <g id="Grupo_122732" data-name="Grupo 122732" transform="translate(84.371 17.097)">
            <path id="Trazado_188623" data-name="Trazado 188623" d="M3038.867,2679.6a.438.438,0,0,0,.436-.409l.677-10.672a.437.437,0,0,0-.41-.464.43.43,0,0,0-.464.41l-.676,10.669a.437.437,0,0,0,.409.464Z" transform="translate(-3028.824 -2667.616)" fill="url(#linear-gradient-2)"/>
            <path id="Trazado_188624" data-name="Trazado 188624" d="M3024.58,2677.709a.438.438,0,0,0,.438-.423l.355-10.875a.439.439,0,0,0-.424-.452.412.412,0,0,0-.451.422l-.355,10.875a.438.438,0,0,0,.423.452Z" transform="translate(-3015.931 -2665.725)" fill="url(#linear-gradient-3)"/>
            <path id="Trazado_188625" data-name="Trazado 188625" d="M3005.41,2677.714a.436.436,0,0,1-.417-.455c.175-3.654.505-10.622.51-10.859a.437.437,0,0,1,.875,0c0,.18-.425,9.108-.51,10.9a.438.438,0,0,1-.437.417Zm.084-11.311h0Z" transform="translate(-2998.648 -2665.731)" fill="url(#linear-gradient-4)"/>
            <path id="Trazado_188626" data-name="Trazado 188626" d="M2971.468,2675.992a.875.875,0,0,0,.873-.844c.369-10.536.3-10.774.261-10.931a.875.875,0,0,0-1.711.346c.028.633-.167,6.762-.3,10.524a.874.874,0,0,0,.844.9Z" transform="translate(-2967.602 -2663.57)" fill="url(#linear-gradient-5)"/>
            <path id="Trazado_188627" data-name="Trazado 188627" d="M2956.077,2679.6a.437.437,0,0,0,.437-.437V2668.5a.437.437,0,0,0-.875,0v10.671A.436.436,0,0,0,2956.077,2679.6Z" transform="translate(-2954.108 -2667.622)" fill="url(#linear-gradient-6)"/>
            <path id="Trazado_188628" data-name="Trazado 188628" d="M2940.372,2679.374a.437.437,0,0,0,.437-.427c.084-3.708.28-9.763.455-10.491a.438.438,0,0,0-.622-.58c-.24.156-.465.305-.708,11.052a.438.438,0,0,0,.427.447Z" transform="translate(-2939.935 -2667.39)" fill="url(#linear-gradient-7)"/>
            <path id="Trazado_188629" data-name="Trazado 188629" d="M3058.949,2676.519a.876.876,0,0,0,.873-.83l.583-11.206a.874.874,0,0,0-.829-.918.885.885,0,0,0-.919.829l-.583,11.2a.875.875,0,0,0,.827.92Z" transform="translate(-3046.552 -2663.563)" fill="url(#linear-gradient-8)"/>
          </g>
        </g>
        <g id="Grupo_122735" data-name="Grupo 122735" transform="translate(36.993)">
          <path id="Trazado_188630" data-name="Trazado 188630" d="M2411.737,2027.917v-33.855a8.113,8.113,0,0,0-8.022-8.116c-13.349-.145-40.881-.153-63.407,1.746a6.1,6.1,0,0,0-5.577,5.861l-2.106,32.732a7.75,7.75,0,0,0,7.6,8.028l63.76,1.212A7.609,7.609,0,0,0,2411.737,2027.917Z" transform="translate(-2332.619 -1985.889)" fill="#fbeb5c"/>
          <path id="Trazado_188631" data-name="Trazado 188631" d="M2913.762,2083.658c.058,2.88-.029,7.451-.1,10.4a2.607,2.607,0,0,1-2.912,2.527l-10.985-1.287a2.609,2.609,0,0,1-2.277-2.977l1.349-9a2.608,2.608,0,0,1,2.579-2.221h9.736A2.6,2.6,0,0,1,2913.762,2083.658Z" transform="translate(-2842.378 -2071.823)" fill="#fff"/>
          <path id="Trazado_188632" data-name="Trazado 188632" d="M2664.25,2016.008l-9.164.989a2.066,2.066,0,0,1-2.282-2.205l2-27.26c3.841-.122,7.631-.21,11.287-.273v26.7A2.065,2.065,0,0,1,2664.25,2016.008Z" transform="translate(-2621.575 -1987.124)" fill="#fff" opacity="0.37"/>
          <path id="Trazado_188633" data-name="Trazado 188633" d="M2714.668,2012.061a.92.92,0,0,1-.918.868c-.018,0-.036,0-.053,0a.922.922,0,0,1-.868-.973l1.382-23.792c.62-.016,1.235-.03,1.849-.043Z" transform="translate(-2675.749 -1987.902)" fill="#fff"/>
          <g id="Grupo_122734" data-name="Grupo 122734" transform="translate(59.251 12.007)">
            <path id="Trazado_188634" data-name="Trazado 188634" d="M3009.679,2120.273a.308.308,0,0,0,.307-.288l.475-7.494a.307.307,0,0,0-.287-.325.3.3,0,0,0-.327.287l-.475,7.494a.307.307,0,0,0,.287.325Z" transform="translate(-3002.626 -2111.857)" fill="url(#linear-gradient-9)"/>
            <path id="Trazado_188635" data-name="Trazado 188635" d="M2999.648,2118.945a.306.306,0,0,0,.307-.3l.25-7.638a.308.308,0,0,0-.3-.317.291.291,0,0,0-.318.3l-.25,7.638a.31.31,0,0,0,.3.318Z" transform="translate(-2993.573 -2110.529)" fill="url(#linear-gradient-10)"/>
            <path id="Trazado_188636" data-name="Trazado 188636" d="M2986.184,2118.948a.306.306,0,0,1-.292-.32c.122-2.565.355-7.459.358-7.626a.307.307,0,0,1,.614,0c0,.126-.3,6.4-.358,7.651a.309.309,0,0,1-.307.293A.037.037,0,0,1,2986.184,2118.948Zm.06-7.943h0Z" transform="translate(-2981.436 -2110.533)" fill="url(#linear-gradient-11)"/>
            <path id="Trazado_188637" data-name="Trazado 188637" d="M2962.346,2117.738a.614.614,0,0,0,.614-.593c.259-7.4.213-7.566.184-7.676a.615.615,0,0,0-1.2.243c.02.445-.118,4.75-.21,7.39a.613.613,0,0,0,.593.636Z" transform="translate(-2959.632 -2109.015)" fill="url(#linear-gradient-12)"/>
            <path id="Trazado_188638" data-name="Trazado 188638" d="M2951.538,2120.277a.307.307,0,0,0,.308-.307v-7.493a.307.307,0,1,0-.614,0v7.493A.306.306,0,0,0,2951.538,2120.277Z" transform="translate(-2950.156 -2111.861)" fill="url(#linear-gradient-13)"/>
            <path id="Trazado_188639" data-name="Trazado 188639" d="M2940.509,2120.114a.308.308,0,0,0,.308-.3c.058-2.6.2-6.858.318-7.368a.309.309,0,0,0-.011-.319.306.306,0,0,0-.426-.087c-.167.108-.326.213-.5,7.76a.307.307,0,0,0,.3.314Z" transform="translate(-2940.202 -2111.697)" fill="url(#linear-gradient-14)"/>
            <path id="Trazado_188640" data-name="Trazado 188640" d="M3023.783,2118.108a.616.616,0,0,0,.613-.582l.41-7.87a.616.616,0,0,0-.583-.646.623.623,0,0,0-.646.582l-.409,7.87a.615.615,0,0,0,.582.645Z" transform="translate(-3015.077 -2109.01)" fill="url(#linear-gradient-15)"/>
          </g>
        </g>
        <g id="Grupo_122737" data-name="Grupo 122737" transform="translate(0 69.9)">
          <path id="Trazado_188641" data-name="Trazado 188641" d="M2021.657,2744.69v-33.854c0-4.448-3.089-8.068-6.933-8.117-11.536-.145-35.33-.152-54.8,1.746-2.656.26-4.723,2.779-4.819,5.862l-1.82,32.73c-.135,4.33,2.824,7.947,6.567,8.03l55.1,1.211C2018.637,2752.378,2021.657,2748.948,2021.657,2744.69Z" transform="translate(-1953.283 -2702.662)" fill="#fbeb5c"/>
          <path id="Trazado_188642" data-name="Trazado 188642" d="M2455.522,2800.432c.05,2.88-.024,7.451-.085,10.4a2.391,2.391,0,0,1-2.516,2.528l-9.5-1.287a2.566,2.566,0,0,1-1.967-2.978l1.166-9a2.386,2.386,0,0,1,2.229-2.222h8.413A2.438,2.438,0,0,1,2455.522,2800.432Z" transform="translate(-2393.829 -2788.597)" fill="#fff"/>
          <path id="Trazado_188643" data-name="Trazado 188643" d="M2239.886,2732.78l-7.919.988a1.928,1.928,0,0,1-1.972-2.205l1.731-27.26c3.32-.122,6.594-.211,9.755-.273v26.7A1.982,1.982,0,0,1,2239.886,2732.78Z" transform="translate(-2203.005 -2703.897)" fill="#fff" opacity="0.37"/>
          <path id="Trazado_188644" data-name="Trazado 188644" d="M2283.459,2728.833a.856.856,0,0,1-.794.869h-.046a.885.885,0,0,1-.75-.974l1.2-23.793c.535-.015,1.066-.028,1.6-.041Z" transform="translate(-2249.824 -2704.675)" fill="#fff"/>
          <g id="Grupo_122736" data-name="Grupo 122736" transform="translate(51.207 12.007)">
            <path id="Trazado_188645" data-name="Trazado 188645" d="M2538.416,2837.046a.286.286,0,0,0,.265-.288l.41-7.493a.3.3,0,0,0-.248-.327.277.277,0,0,0-.282.287l-.411,7.494a.3.3,0,0,0,.249.326Z" transform="translate(-2532.321 -2828.63)" fill="url(#linear-gradient-16)"/>
            <path id="Trazado_188646" data-name="Trazado 188646" d="M2529.746,2835.717a.285.285,0,0,0,.265-.3l.216-7.636a.291.291,0,0,0-.256-.318c-.169-.01-.27.127-.275.3l-.215,7.637a.292.292,0,0,0,.257.317Z" transform="translate(-2524.497 -2827.302)" fill="url(#linear-gradient-17)"/>
            <path id="Trazado_188647" data-name="Trazado 188647" d="M2518.11,2835.721a.293.293,0,0,1-.253-.32c.105-2.566.306-7.459.31-7.626a.268.268,0,1,1,.531,0c0,.126-.258,6.4-.31,7.651a.285.285,0,0,1-.265.293Zm.052-7.943h0Z" transform="translate(-2514.007 -2827.307)" fill="url(#linear-gradient-18)"/>
            <path id="Trazado_188648" data-name="Trazado 188648" d="M2497.509,2834.511a.574.574,0,0,0,.531-.593c.225-7.4.185-7.567.159-7.677a.528.528,0,0,0-.651-.432.621.621,0,0,0-.388.675c.018.445-.1,4.75-.181,7.391a.585.585,0,0,0,.512.636Z" transform="translate(-2495.164 -2825.787)" fill="url(#linear-gradient-19)"/>
            <path id="Trazado_188649" data-name="Trazado 188649" d="M2488.168,2837.049a.288.288,0,0,0,.266-.307v-7.494a.268.268,0,1,0-.53,0v7.494A.288.288,0,0,0,2488.168,2837.049Z" transform="translate(-2486.975 -2828.633)" fill="url(#linear-gradient-20)"/>
            <path id="Trazado_188650" data-name="Trazado 188650" d="M2478.638,2836.885a.286.286,0,0,0,.265-.3c.051-2.6.17-6.857.276-7.368a.348.348,0,0,0-.01-.318.243.243,0,0,0-.368-.089c-.145.11-.282.214-.429,7.761a.29.29,0,0,0,.259.314Z" transform="translate(-2478.373 -2828.469)" fill="url(#linear-gradient-21)"/>
            <path id="Trazado_188651" data-name="Trazado 188651" d="M2550.6,2834.881a.572.572,0,0,0,.53-.583l.354-7.869a.588.588,0,0,0-.5-.645.572.572,0,0,0-.558.582l-.354,7.87a.587.587,0,0,0,.5.645Z" transform="translate(-2543.08 -2825.783)" fill="url(#linear-gradient-22)"/>
          </g>
        </g>
      </g>
      <g id="Grupo_122740" data-name="Grupo 122740" transform="translate(80.889 75.611)">
        <path id="Trazado_188652" data-name="Trazado 188652" d="M1392.694,2363.179l-65.328,71.1a6.947,6.947,0,0,0,.827,10.166l.523.411a6.459,6.459,0,0,0,9.093-1.128l59.431-76.756Z" transform="translate(-1325.534 -2253.398)" fill="#febf10" stroke="#707070" stroke-width="1"/>
        <ellipse id="Elipse_6901" data-name="Elipse 6901" cx="52.859" cy="51.906" rx="52.859" ry="51.906" transform="translate(32.558 48.694) rotate(-27.426)" fill="#fff" opacity="0.27"/>
        <path id="Trazado_188653" data-name="Trazado 188653" d="M1816.693,1371.584c-28.833,14.962-40.3,50.044-25.606,78.358s49.976,39.137,78.81,24.176,40.3-50.043,25.606-78.357S1845.527,1356.623,1816.693,1371.584Zm49.3,95c-24.6,12.764-54.7,3.53-67.233-20.625s-2.754-54.083,21.845-66.846,54.7-3.53,67.233,20.624S1890.587,1453.823,1865.989,1466.587Z" transform="translate(-1739.911 -1352.432)" fill="#febf10" stroke="#707070" stroke-width="1"/>
        <g id="Grupo_122739" data-name="Grupo 122739" transform="translate(48.653 16.26)">
          <path id="Trazado_188654" data-name="Trazado 188654" d="M1834.06,1489.539a.151.151,0,0,1-.145-.064c-.781-1.128-1.528-2.3-2.222-3.491a.151.151,0,0,1,.26-.152c.69,1.182,1.433,2.35,2.209,3.472a.15.15,0,0,1-.038.209A.142.142,0,0,1,1834.06,1489.539Zm-7.08-14.521a.152.152,0,0,1-.165-.1,52.964,52.964,0,0,1-2.175-11.05,54.09,54.09,0,0,1,6.467-30.7,55.8,55.8,0,0,1,53.277-28.787.151.151,0,0,1-.024.3,55.5,55.5,0,0,0-52.988,28.631,53.8,53.8,0,0,0-6.432,30.526,52.654,52.654,0,0,0,2.163,10.987.151.151,0,0,1-.1.188Z" transform="translate(-1824.434 -1404.2)" fill="#91b3fa"/>
        </g>
        <path id="Trazado_188655" data-name="Trazado 188655" d="M1354.232,3033.364c-2.839.395-4.816-.338-5.876-2.182a5.19,5.19,0,0,1,.705-6l7.714-8.788a.126.126,0,0,1,.18-.012.128.128,0,0,1,.012.18l-7.714,8.789a4.935,4.935,0,0,0-.675,5.7c1.015,1.763,2.925,2.454,5.708,2.045h0a.128.128,0,0,1,.036.252Z" transform="translate(-1345.543 -2842.873)" fill="#91b3fa"/>
        <path id="Trazado_188656" data-name="Trazado 188656" d="M1464.9,2978.293a.13.13,0,0,1-.1-.031.128.128,0,0,1-.012-.18l1-1.139a.128.128,0,1,1,.192.168l-1,1.139A.132.132,0,0,1,1464.9,2978.293Z" transform="translate(-1451.175 -2807.269)" fill="#91b3fa"/>
      </g>
      <g id="Grupo_122744" data-name="Grupo 122744" transform="translate(6.375 110.249)">
        <path id="Trazado_188657" data-name="Trazado 188657" d="M1004.033,1921.768s0,17.767-7.789,16.319c-4.759-.885-7.577-20.024-7.577-20.024s4.924-10.968,5.474-7.378C998.138,1936.783,1001.115,1916.809,1004.033,1921.768Z" transform="translate(-947.004 -1879.019)" fill="#ebebeb"/>
        <path id="Trazado_188658" data-name="Trazado 188658" d="M923.52,3112.421s-.588,3.33-.876,6.625a2.271,2.271,0,0,0,2.172,2.461c4.39.183,13.779.539,17.148.388a.738.738,0,0,0,.65-1.011h0a1.654,1.654,0,0,0-.846-.892l-15.509-7.127Z" transform="translate(-887.412 -2964.213)" fill="url(#linear-gradient-23)"/>
        <path id="Trazado_188659" data-name="Trazado 188659" d="M926.772,3086.667l.473,3.983s2.716,1.265,4.572-.16l-1.125-4.438Z" transform="translate(-891.145 -2940.416)" fill="url(#linear-gradient-24)"/>
        <path id="Trazado_188660" data-name="Trazado 188660" d="M816.425,2324.521c-.2,1.04-1.1,51.9,4.341,74.7a.775.775,0,0,1-.454.9,13.5,13.5,0,0,1-4.427.9,1.332,1.332,0,0,1-1.322-.957c-1.554-5.288-9-31.785-9.972-57.1-1.086-28.282,0-.963,0-.963l.636-17.482Z" transform="translate(-780.443 -2253.148)" fill="#fbeb5c" stroke="#707070" stroke-width="1"/>
        <path id="Trazado_188661" data-name="Trazado 188661" d="M731.456,3130.234a23.932,23.932,0,0,0-1.842,6.148,1.385,1.385,0,0,0,1.219,1.659c1.449.143,3.68.326,5.468.313a1.381,1.381,0,0,0,1.368-1.541,11.65,11.65,0,0,0-2.72-6.39Z" transform="translate(-713.187 -2980.289)" fill="url(#linear-gradient-25)"/>
        <path id="Trazado_188662" data-name="Trazado 188662" d="M740.339,3075.538l1.1,6.023a3.894,3.894,0,0,0,3.251.223l-.527-6.481Z" transform="translate(-722.893 -2930.715)" fill="url(#linear-gradient-26)"/>
        <path id="Trazado_188663" data-name="Trazado 188663" d="M693.91,2314.5c-4.447,26.836.965,66.326,2.79,74.056a1.206,1.206,0,0,0,.973.916,8.1,8.1,0,0,0,3.478-.139,1.106,1.106,0,0,0,.794-1.017c.245-6.249-.2-44.611,3.948-59.771a3.447,3.447,0,0,1,1.328-1.9l8.042-5.716.617-9.241Z" transform="translate(-679.446 -2241.561)" fill="#fbeb5c" stroke="#707070" stroke-width="1"/>
        <g id="Grupo_122741" data-name="Grupo 122741" transform="translate(12.803 22.721)">
          <path id="Trazado_188664" data-name="Trazado 188664" d="M723.208,1826.016a75.108,75.108,0,0,0-28.519,2.485c-3.972,23.176-.695,49.91-.695,49.91,10.316,2.706,21.954-1.654,21.954-1.654,1.715-9.688,8.859-32.057,8.859-32.057,3.255-.4,6.31,1.24,5.608-3.279S725.253,1826.22,723.208,1826.016Z" transform="translate(-692.724 -1825.636)" fill="#12263f"/>
        </g>
        <path id="Trazado_188665" data-name="Trazado 188665" d="M583.86,1867.918l-5.111-12.9s-12.447,8.457-14.494,19.179a29.446,29.446,0,0,1,10.82,2.9C576,1872.033,583.86,1867.918,583.86,1867.918Z" transform="translate(-563.98 -1829.43)" fill="#12263f"/>
        <path id="Trazado_188666" data-name="Trazado 188666" d="M593.279,2057.554s-14.378,7.876-19.093,1.132c-.979-1.4-1.86-3.259-1.619-4.585-4.189-2.115-8.5-2.238-10.853-2.41-.617,3.232-.3,5.978,2.059,10.395,6.313,11.816,31.355-1.085,31.355-1.085Z" transform="translate(-561.44 -2006.925)" fill="#fff"/>
        <g id="Grupo_122742" data-name="Grupo 122742" transform="translate(31.267 30.667)">
          <path id="Trazado_188667" data-name="Trazado 188667" d="M894.378,1951.086l6.108-21.33a.621.621,0,0,1,.526-.448c1.107-.129,4.313-.492,8.016-.8a91.044,91.044,0,0,1,12.733-.423.624.624,0,0,1,.51.9c-1.76,3.56-9,18.043-12.624,22.787a.624.624,0,0,1-.5.248l-14.171-.132A.624.624,0,0,1,894.378,1951.086Z" transform="translate(-893.155 -1925.95)" fill="#fbeb5c"/>
          <path id="Trazado_188668" data-name="Trazado 188668" d="M1048.784,1907.85l4.348-.724a.311.311,0,0,1,.348.405l-.431,1.3a.311.311,0,0,1-.255.211l-4.184.559a.312.312,0,0,1-.345-.38l.267-1.139A.312.312,0,0,1,1048.784,1907.85Z" transform="translate(-1032.048 -1907.121)" fill="#91b3fa"/>
          <path id="Trazado_188669" data-name="Trazado 188669" d="M1020.2,1923.589l.358-1.866a.432.432,0,0,1,.38-.348l8.783-.891a.431.431,0,0,1,.463.53l-.558,2.325a.43.43,0,0,1-.4.33l-8.583.432A.431.431,0,0,1,1020.2,1923.589Z" transform="translate(-1006.726 -1919.179)" fill="#7d97f4"/>
          <path id="Trazado_188670" data-name="Trazado 188670" d="M883.875,2064.289a1.212,1.212,0,0,1-1.289-.971c-.285-1.373-.728-3.881-.425-4.978.428-1.549,1.259-3.542,4.026-3.1a40.527,40.527,0,0,1,6.033,1.61,1.585,1.585,0,0,1-2.269,1.368l1.3,1.01s-.186,1.615-1.963.752l1.213,1.339a1.413,1.413,0,0,1-2.07.475C887.267,2061.032,886.642,2064.021,883.875,2064.289Z" transform="translate(-882.059 -2040.739)" fill="#fff"/>
          <path id="Trazado_188671" data-name="Trazado 188671" d="M1062.486,1974.554s3.221-3.137,3.681-4.677.815-3.671-1.764-4.766a40.443,40.443,0,0,0-5.966-1.842,1.584,1.584,0,0,0,1.2,2.364l-1.642.162s-.7,1.469,1.264,1.68l-1.739.49a1.414,1.414,0,0,0,1.5,1.5C1060.576,1969.442,1059.066,1973.031,1062.486,1974.554Z" transform="translate(-1040.405 -1957.794)" fill="#fff"/>
        </g>
        <path id="Trazado_188672" data-name="Trazado 188672" d="M828.467,1725.176l-4.24,12.261a.442.442,0,0,0,.2.532,9.969,9.969,0,0,0,10.338-.7,2.081,2.081,0,0,0,.958-1.486l1.373-10.612Z" transform="translate(-798.578 -1712.252)" fill="#ebebeb"/>
        <g id="Grupo_122743" data-name="Grupo 122743" transform="translate(24.061 0)">
          <path id="Trazado_188673" data-name="Trazado 188673" d="M873.672,1659.437s-1.37,9.829-3.93,12.347-7.084-1.074-9.479-6.358l2.7-9.729Z" transform="translate(-855.183 -1649.549)" fill="#fff"/>
          <path id="Trazado_188674" data-name="Trazado 188674" d="M816.155,1604.9a.361.361,0,0,0,.438-.335,9.432,9.432,0,0,1,.564-2.987s-.363-.925,2.456.24,7.05,2.868,9.285,1.367c2.179-1.462,3.882-7.876-2.091-6.108a.361.361,0,0,1-.466-.333c-.029-1.022-.368-3.347-2.809-3.855a3.417,3.417,0,0,0-3.831,1.3.359.359,0,0,1-.56.048,4.166,4.166,0,0,0-5.27-1.017c-2.084,1.185-2.286,2.564-2.165,3.4a.36.36,0,0,1-.476.394,2.167,2.167,0,0,0-2.689,1.106c-1.241,1.93.951,3.268,1.6,3.611a.363.363,0,0,1,.193.28c.1.928.659,4.959,2.921,7.035a.364.364,0,0,0,.592-.166l1.181-3.88a.363.363,0,0,1,.423-.249Z" transform="translate(-808.168 -1592.651)" fill="#12263f"/>
          <path id="Trazado_188675" data-name="Trazado 188675" d="M862.655,1701.014s-1.351-3.787-2.67-2.376.79,4,2.5,4.357Z" transform="translate(-854.558 -1688.018)" fill="#fff"/>
        </g>
      </g>
    </g>
    <path id="Trazado_190737" data-name="Trazado 190737" d="M86.2,17H83.12V4.2H86.2Zm4.729-9.51.1,1.116a3.225,3.225,0,0,1,2.716-1.292,2.713,2.713,0,0,1,2.219.888,4.226,4.226,0,0,1,.76,2.672V17H93.746V11a1.6,1.6,0,0,0-.29-1.059A1.342,1.342,0,0,0,92.4,9.6a1.413,1.413,0,0,0-1.292.686V17H88.147V7.49Zm12.41,6.838a.684.684,0,0,0-.4-.606,6.016,6.016,0,0,0-1.5-.475,6.853,6.853,0,0,1-1.828-.646,3.062,3.062,0,0,1-1.1-.971,2.319,2.319,0,0,1-.378-1.31,2.628,2.628,0,0,1,1.081-2.158,4.453,4.453,0,0,1,2.83-.848,4.934,4.934,0,0,1,3.023.853,2.666,2.666,0,0,1,1.143,2.241h-2.971q0-1.143-1.2-1.143a1.194,1.194,0,0,0-.782.259.8.8,0,0,0-.316.646.737.737,0,0,0,.387.642,3.654,3.654,0,0,0,1.235.4,10.671,10.671,0,0,1,1.49.378,2.706,2.706,0,0,1,2.145,2.646,2.491,2.491,0,0,1-1.156,2.118,5.068,5.068,0,0,1-2.993.817,5.172,5.172,0,0,1-2.18-.439,3.645,3.645,0,0,1-1.494-1.2,2.707,2.707,0,0,1-.536-1.591H100.6a1.145,1.145,0,0,0,.439.962,1.808,1.808,0,0,0,1.081.3,1.422,1.422,0,0,0,.91-.246A.787.787,0,0,0,103.334,14.328ZM116.4,12.315a5.735,5.735,0,0,1-1,3.538,3.2,3.2,0,0,1-2.694,1.323,2.742,2.742,0,0,1-2.153-.958v4.438H107.6V7.49h2.769l.088.879a2.742,2.742,0,0,1,2.241-1.055,3.224,3.224,0,0,1,2.733,1.3,5.805,5.805,0,0,1,.976,3.564Zm-2.962-.185q0-2.531-1.477-2.531a1.394,1.394,0,0,0-1.406.756V14.1a1.439,1.439,0,0,0,1.424.791q1.415,0,1.459-2.443Zm8.868,5.045a4.889,4.889,0,0,1-3.542-1.305,4.507,4.507,0,0,1-1.354-3.4v-.246a5.84,5.84,0,0,1,.541-2.575,3.955,3.955,0,0,1,1.578-1.727,4.763,4.763,0,0,1,2.461-.611,4.117,4.117,0,0,1,3.164,1.244,4.887,4.887,0,0,1,1.16,3.467v1.151h-5.889a2.135,2.135,0,0,0,.694,1.257,2.066,2.066,0,0,0,1.389.457,2.662,2.662,0,0,0,2.2-.984l1.354,1.6a3.784,3.784,0,0,1-1.569,1.217A5.3,5.3,0,0,1,122.31,17.176ZM121.976,9.6q-1.3,0-1.547,1.723h2.988v-.229a1.467,1.467,0,0,0-.36-1.1A1.434,1.434,0,0,0,121.976,9.6Zm9.554,5.291a1.317,1.317,0,0,0,.967-.338,1.241,1.241,0,0,0,.334-.945h2.777a3.288,3.288,0,0,1-1.121,2.566,4.168,4.168,0,0,1-2.887,1,4.22,4.22,0,0,1-3.27-1.3,5.125,5.125,0,0,1-1.2-3.6v-.123a5.792,5.792,0,0,1,.532-2.544,3.872,3.872,0,0,1,1.534-1.7,4.573,4.573,0,0,1,2.373-.593,4.116,4.116,0,0,1,2.944,1.028,3.647,3.647,0,0,1,1.09,2.786h-2.777A1.626,1.626,0,0,0,132.47,10a1.244,1.244,0,0,0-.967-.4q-1.151,0-1.345,1.468a10.357,10.357,0,0,0-.062,1.283,4.068,4.068,0,0,0,.343,1.986A1.187,1.187,0,0,0,131.53,14.891Zm9.352,0a1.317,1.317,0,0,0,.967-.338,1.241,1.241,0,0,0,.334-.945h2.777a3.288,3.288,0,0,1-1.121,2.566,4.168,4.168,0,0,1-2.887,1,4.22,4.22,0,0,1-3.27-1.3,5.125,5.125,0,0,1-1.2-3.6v-.123a5.792,5.792,0,0,1,.532-2.544,3.872,3.872,0,0,1,1.534-1.7,4.573,4.573,0,0,1,2.373-.593,4.116,4.116,0,0,1,2.944,1.028,3.647,3.647,0,0,1,1.09,2.786h-2.777a1.626,1.626,0,0,0-.36-1.134,1.244,1.244,0,0,0-.967-.4q-1.151,0-1.345,1.468a10.357,10.357,0,0,0-.062,1.283,4.068,4.068,0,0,0,.343,1.986A1.187,1.187,0,0,0,140.881,14.891ZM149.336,17h-2.971V7.49h2.971ZM146.19,5.029a1.334,1.334,0,0,1,.457-1.043,1.934,1.934,0,0,1,2.373,0,1.334,1.334,0,0,1,.457,1.043,1.334,1.334,0,0,1-.457,1.043,1.934,1.934,0,0,1-2.373,0A1.334,1.334,0,0,1,146.19,5.029Zm4.6,7.128a5.613,5.613,0,0,1,.554-2.536,3.96,3.96,0,0,1,1.591-1.709,4.791,4.791,0,0,1,2.435-.6,4.373,4.373,0,0,1,3.366,1.323,5.076,5.076,0,0,1,1.23,3.6v.105a4.925,4.925,0,0,1-1.235,3.529,4.384,4.384,0,0,1-3.344,1.305,4.434,4.434,0,0,1-3.261-1.217,4.761,4.761,0,0,1-1.327-3.3Zm2.962.185a3.538,3.538,0,0,0,.413,1.934,1.376,1.376,0,0,0,1.222.615q1.582,0,1.617-2.435v-.3Q157,9.6,155.366,9.6q-1.485,0-1.608,2.206ZM155.77,3.5H158.9l-2.443,2.76-2.417,0Zm8.218,3.99.1,1.116A3.225,3.225,0,0,1,166.8,7.314a2.713,2.713,0,0,1,2.219.888,4.226,4.226,0,0,1,.76,2.672V17h-2.971V11a1.6,1.6,0,0,0-.29-1.059,1.342,1.342,0,0,0-1.055-.338,1.413,1.413,0,0,0-1.292.686V17H161.21V7.49Z" transform="translate(675.774 5185.872)" fill="#12263f"/>
  </g>
</svg>
