<svg xmlns="http://www.w3.org/2000/svg" width="327.46" height="428.677" viewBox="0 0 327.46 428.677">
  <g id="Grupo_124760" data-name="Grupo 124760" transform="translate(-987.54 -4835.3)">
    <path id="Trazado_190738" data-name="Trazado 190738" d="M21,0H306.46a21,21,0,0,1,21,21V407.677a21,21,0,0,1-21,21H21a21,21,0,0,1-21-21V21A21,21,0,0,1,21,0Z" transform="translate(987.54 4835.3)" fill="#eeeffb"/>
    <g id="Grupo_122789" data-name="Grupo 122789" transform="translate(1020 4878.286)">
      <g id="Floor" transform="translate(0 137.971)">
        <path id="Floor-2" data-name="Floor" d="M73.092,357.528c55.127,24.6,144.5,24.6,199.63,0s55.127-64.487,0-89.088-144.5-24.6-199.63,0S17.966,332.927,73.092,357.528Z" transform="translate(-31.747 -249.99)" fill="#bec6d0"/>
      </g>
      <g id="Shadow" transform="translate(170.241 194.534)">
        <ellipse id="Shadow-2" data-name="Shadow" cx="32.774" cy="15.621" rx="32.774" ry="15.621" transform="translate(0 0)" fill="#e0e0e0"/>
      </g>
      <g id="Device" transform="translate(26.59 0)">
        <g id="Device-2" data-name="Device">
          <g id="Grupo_122746" data-name="Grupo 122746" transform="translate(55.753 134.011)">
            <path id="Trazado_188676" data-name="Trazado 188676" d="M186.048,244.816l-27.8,16.049a5.223,5.223,0,0,0-2.235,3.2l-6.908,39.885a3.313,3.313,0,0,0,1.5,3.2L168.53,317.5a4.129,4.129,0,0,0,3.735,0l38.308-22.117a3.509,3.509,0,0,0,0-6.2l-13.784-7.958A4.732,4.732,0,0,1,194.7,278l-3.067-30.1a4.589,4.589,0,0,0-1.97-3.156A4,4,0,0,0,186.048,244.816Z" transform="translate(-149.07 -244.349)" fill="#12263f"/>
            <path id="Trazado_188677" data-name="Trazado 188677" d="M179.457,329.995v7.459a3.818,3.818,0,0,0,1.867-.446l38.308-22.117a4,4,0,0,0,1.868-3.1,3.692,3.692,0,0,0-.735-2.023h-6.272Z" transform="translate(-158.13 -263.853)" fill="#3d4e63"/>
            <path id="Trazado_188678" data-name="Trazado 188678" d="M191.31,247.787l-27.8,16.049a5.226,5.226,0,0,0-2.235,3.2l-6.271,36.207a3.313,3.313,0,0,0,1.5,3.2l13.784,7.958a4.129,4.129,0,0,0,3.735,0l38.309-22.117a1.139,1.139,0,0,0,0-2.157l-13.784-7.958a4.732,4.732,0,0,1-2.086-3.224l-3.067-30.1A1.29,1.29,0,0,0,191.31,247.787Z" transform="translate(-150.83 -245.297)" fill="#12263f"/>
            <path id="Trazado_188679" data-name="Trazado 188679" d="M212.46,304.269l-13.783-7.958a4.31,4.31,0,0,1-1.367-1.367l-41.911,24.2a3.136,3.136,0,0,0,1.235,1.443l13.784,7.958a4.128,4.128,0,0,0,3.735,0l38.308-22.117A1.138,1.138,0,0,0,212.46,304.269Z" transform="translate(-150.957 -259.434)" fill="#939eac"/>
          </g>
          <g id="Grupo_122747" data-name="Grupo 122747">
            <path id="Trazado_188680" data-name="Trazado 188680" d="M74.027,267.212l-1.779-1.027a5.779,5.779,0,0,1-2.614-4.528V142.28a5.759,5.759,0,0,1,2.618-4.521l145.841-83.73a5.8,5.8,0,0,1,5.232.006l1.357.783a5.779,5.779,0,0,1,2.614,4.528V178.722a5.779,5.779,0,0,1-2.614,4.528L79.257,267.212A5.779,5.779,0,0,1,74.027,267.212Z" transform="translate(-69.633 -53.407)" fill="#939eac"/>
            <path id="Trazado_188681" data-name="Trazado 188681" d="M80.144,181.99,70.4,176.364a5.334,5.334,0,0,0-.767,2.576V298.316a5.779,5.779,0,0,0,2.614,4.528l1.78,1.027a5.776,5.776,0,0,0,5.228,0l.889-.513Z" transform="translate(-69.633 -90.067)" fill="#12263f"/>
            <path id="Trazado_188682" data-name="Trazado 188682" d="M79.619,267.432V148.057a5.779,5.779,0,0,1,2.615-4.528L227.659,59.566c1.444-.834,2.614-.158,2.614,1.51V180.452a5.779,5.779,0,0,1-2.614,4.528L82.234,268.942C80.79,269.776,79.619,269.1,79.619,267.432Z" transform="translate(-72.61 -55.137)" fill="#3d4e63"/>
            <path id="Trazado_188683" data-name="Trazado 188683" d="M176.123,288.995l13.783-7.957c1.032-.6,1.868-.173,1.868.945a4,4,0,0,1-1.868,3.1l-13.783,7.958c-1.032.6-1.868.172-1.868-.945A4.007,4.007,0,0,1,176.123,288.995Z" transform="translate(-100.826 -121.196)" fill="#e0e0e0"/>
            <path id="Trazado_188684" data-name="Trazado 188684" d="M88.53,150.776l136.96-79.3c.824-.477,1.493-.092,1.493.86V176.382a3.3,3.3,0,0,1-1.494,2.588L88.531,258.043c-.825.477-1.494.091-1.494-.863V153.366A3.307,3.307,0,0,1,88.53,150.776Z" transform="translate(-74.822 -58.734)" fill="#fff"/>
          </g>
          <g id="Tab" transform="translate(16.144 20.933)">
            <path id="Trazado_188685" data-name="Trazado 188685" d="M95.3,156.336,220.967,83.794c2.281-1.317,4.147-.239,4.147,2.394v90.336a4.274,4.274,0,0,1-1.926,3.336L94.561,254.113c-1.059.611-1.925.111-1.925-1.112V160.959A5.92,5.92,0,0,1,95.3,156.336Z" transform="translate(-92.635 -83.232)" fill="#e6e6e6"/>
            <path id="Trazado_188686" data-name="Trazado 188686" d="M169.854,147.926l69.25-39.982v13.907l-69.251,39.982Z" transform="translate(-115.658 -90.6)" fill="#f5f5f5"/>
            <path id="Trazado_188687" data-name="Trazado 188687" d="M169.854,175.587l69.25-39.982v34.839l-69.251,39.982Z" transform="translate(-115.658 -98.847)" fill="#f0f0f0"/>
            <path id="Trazado_188688" data-name="Trazado 188688" d="M225.114,88.352V86.188c0-2.633-1.866-3.711-4.147-2.394L95.3,156.336a5.92,5.92,0,0,0-2.669,4.622v3.871Z" transform="translate(-92.635 -83.232)" fill="#a4a4a4"/>
            <path id="Trazado_188689" data-name="Trazado 188689" d="M256.006,97.471a3.157,3.157,0,0,0-1.428,2.474c0,.911.639,1.28,1.428.825a3.157,3.157,0,0,0,1.428-2.474C257.435,97.385,256.8,97.016,256.006,97.471Z" transform="translate(-140.919 -87.42)" fill="#fff"/>
            <path id="Trazado_188690" data-name="Trazado 188690" d="M264.082,92.809a3.156,3.156,0,0,0-1.428,2.473c0,.911.639,1.28,1.428.825a3.158,3.158,0,0,0,1.428-2.474C265.511,92.723,264.871,92.354,264.082,92.809Z" transform="translate(-143.327 -86.03)" fill="#fff"/>
            <path id="Trazado_188691" data-name="Trazado 188691" d="M272.158,88.146a3.159,3.159,0,0,0-1.429,2.474c0,.911.639,1.28,1.429.825a3.159,3.159,0,0,0,1.428-2.474C273.586,88.06,272.946,87.691,272.158,88.146Z" transform="translate(-145.734 -84.639)" fill="#fff"/>
            <g id="Grupo_122748" data-name="Grupo 122748" transform="translate(5.279 61.762)">
              <path id="Trazado_188692" data-name="Trazado 188692" d="M100.9,240.546a.741.741,0,0,1-.741-.742v-45.2a.742.742,0,0,1,.37-.641l39.079-22.636a.741.741,0,0,1,1.112.641v45.233a.741.741,0,0,1-.37.641l-39.079,22.6A.744.744,0,0,1,100.9,240.546Zm.742-45.511V238.52l37.6-21.741v-43.52Z" transform="translate(-100.157 -171.232)" fill="#fafafa"/>
            </g>
            <g id="Grupo_122749" data-name="Grupo 122749" transform="translate(11.225 78.088)">
              <path id="Trazado_188693" data-name="Trazado 188693" d="M116.89,231.168a7.711,7.711,0,0,1-3.9-1.007c-2.81-1.622-4.358-4.981-4.358-9.46,0-8.905,6.264-19.778,13.964-24.238,3.866-2.24,7.541-2.581,10.347-.964s4.361,4.983,4.361,9.467c0,8.913-6.265,19.786-13.965,24.238A13.069,13.069,0,0,1,116.89,231.168Zm12.146-35.191a11.612,11.612,0,0,0-5.7,1.769c-7.292,4.224-13.225,14.521-13.225,22.955,0,3.927,1.284,6.83,3.617,8.176s5.477,1,8.865-.957c7.292-4.217,13.224-14.514,13.224-22.955,0-3.932-1.285-6.838-3.618-8.183A6.25,6.25,0,0,0,129.036,195.977Z" transform="translate(-108.628 -194.493)" fill="#fafafa"/>
            </g>
          </g>
        </g>
      </g>
      <g id="Gear" transform="translate(79.922 153.439)">
        <g id="Grupo_122759" data-name="Grupo 122759">
          <g id="Grupo_122752" data-name="Grupo 122752" transform="translate(49.724)">
            <path id="Trazado_188694" data-name="Trazado 188694" d="M262.123,285.082l-2.718-1.567v0a.464.464,0,0,0-.427.006l-4.909,2.214a.583.583,0,0,1-.818-.379,11,11,0,0,0-1.094-2.434,1.354,1.354,0,0,1-.075-1.19l3.272-6.6a.743.743,0,0,0-.29-.961l-3.551-2.05a.743.743,0,0,0-.977.229l-4.078,6.133a1.358,1.358,0,0,1-1.068.531,10.255,10.255,0,0,0-1.424.067V274.6l-2.725-1.571h0a.455.455,0,0,0-.446.04l-5.515,3.184a1.487,1.487,0,0,0-.658,1.03l-.552,6.137a2.051,2.051,0,0,1-.573,1.146,33.3,33.3,0,0,0-3.064,3.243,1.055,1.055,0,0,1-1.084.307l-3.54-1.236a.863.863,0,0,0-.994.369l-4.055,7.023a.863.863,0,0,0,.178,1.046l2.841,2.448a1.057,1.057,0,0,1,.276,1.092,33.144,33.144,0,0,0-1.277,4.276,2.047,2.047,0,0,1-.706,1.069l-5.039,3.547a1.487,1.487,0,0,0-.563,1.084V315.2a.45.45,0,0,0,.2.409h0l2.717,1.566,4.035-1.91a10.411,10.411,0,0,0,.5.938,1.355,1.355,0,0,1,.074,1.19L220.72,324a.744.744,0,0,0,.291.961l3.551,2.05a.743.743,0,0,0,.977-.229l4.078-6.134a1.357,1.357,0,0,1,1.068-.53,10.984,10.984,0,0,0,2.655-.27.583.583,0,0,1,.736.519l.538,5.358a.462.462,0,0,0,.213.376h0l2.712,1.564,3.257-4.785a1.488,1.488,0,0,0,.658-1.03l.552-6.137a1.228,1.228,0,0,1,.705-.929A12.984,12.984,0,0,0,247,311.778a1.11,1.11,0,0,1,1.1-.293l2.174.766a.861.861,0,0,0,.993-.368l4.055-7.023a.862.862,0,0,0-.178-1.045l-1.868-1.609a1.142,1.142,0,0,1-.3-1.1,18.351,18.351,0,0,0,.507-5.09,1.414,1.414,0,0,1,.53-1.084l5.039-3.547a1.486,1.486,0,0,0,.563-1.084l2.408-2.887Zm-24.085,25.243c-5.146,2.972-8.345.863-8.345-5.079s4.252-13.221,9.4-16.192,8.264-.81,8.264,5.132S243.183,307.355,238.037,310.326Z" transform="translate(-216.469 -272.03)" fill="#a4a4a4"/>
            <path id="Trazado_188695" data-name="Trazado 188695" d="M262.123,285.082l-2.718-1.567v0a.464.464,0,0,0-.427.006l-4.909,2.214a.583.583,0,0,1-.818-.379,11,11,0,0,0-1.094-2.434,1.354,1.354,0,0,1-.075-1.19l3.272-6.6a.743.743,0,0,0-.29-.961l-3.551-2.05a.743.743,0,0,0-.977.229l-4.078,6.133a1.358,1.358,0,0,1-1.068.531,10.255,10.255,0,0,0-1.424.067V274.6l-2.725-1.571h0a.455.455,0,0,0-.446.04l-5.515,3.184a1.487,1.487,0,0,0-.658,1.03l-.552,6.137a2.051,2.051,0,0,1-.573,1.146,33.3,33.3,0,0,0-3.064,3.243,1.055,1.055,0,0,1-1.084.307l-3.54-1.236a.863.863,0,0,0-.994.369l-4.055,7.023a.863.863,0,0,0,.178,1.046l2.841,2.448a1.057,1.057,0,0,1,.276,1.092,33.144,33.144,0,0,0-1.277,4.276,2.047,2.047,0,0,1-.706,1.069l-5.039,3.547a1.487,1.487,0,0,0-.563,1.084V315.2a.45.45,0,0,0,.2.409h0l2.717,1.566,4.035-1.91a10.411,10.411,0,0,0,.5.938,1.355,1.355,0,0,1,.074,1.19L220.72,324a.744.744,0,0,0,.291.961l3.551,2.05a.743.743,0,0,0,.977-.229l4.078-6.134a1.357,1.357,0,0,1,1.068-.53,10.984,10.984,0,0,0,2.655-.27.583.583,0,0,1,.736.519l.538,5.358a.462.462,0,0,0,.213.376h0l2.712,1.564,3.257-4.785a1.488,1.488,0,0,0,.658-1.03l.552-6.137a1.228,1.228,0,0,1,.705-.929A12.984,12.984,0,0,0,247,311.778a1.11,1.11,0,0,1,1.1-.293l2.174.766a.861.861,0,0,0,.993-.368l4.055-7.023a.862.862,0,0,0-.178-1.045l-1.868-1.609a1.142,1.142,0,0,1-.3-1.1,18.351,18.351,0,0,0,.507-5.09,1.414,1.414,0,0,1,.53-1.084l5.039-3.547a1.486,1.486,0,0,0,.563-1.084l2.408-2.887Zm-24.085,25.243c-5.146,2.972-8.345.863-8.345-5.079s4.252-13.221,9.4-16.192,8.264-.81,8.264,5.132S243.183,307.355,238.037,310.326Z" transform="translate(-216.469 -272.03)" opacity="0.1"/>
            <g id="Grupo_122750" data-name="Grupo 122750" transform="translate(0.231)">
              <path id="Trazado_188696" data-name="Trazado 188696" d="M266.9,277.318l1.082-2.182a.743.743,0,0,0-.29-.961l-3.551-2.05a.742.742,0,0,0-.977.229l-4.078,6.133a1.054,1.054,0,0,1-.272.262l4.565,2.635Z" transform="translate(-229.324 -272.03)" fill="#a4a4a4"/>
              <path id="Trazado_188697" data-name="Trazado 188697" d="M222.558,317.28a1.732,1.732,0,0,1-.39.414l-5.039,3.547a1.285,1.285,0,0,0-.332.381l3.075,1.775,6.689-3.805Z" transform="translate(-216.798 -285.521)" fill="#a4a4a4"/>
              <path id="Trazado_188698" data-name="Trazado 188698" d="M227.3,293.13a.866.866,0,0,0-.709.411l-4.055,7.023a.819.819,0,0,0-.091.513l3.5,2.018,5.55-7.508Z" transform="translate(-218.48 -278.321)" fill="#a4a4a4"/>
              <path id="Trazado_188699" data-name="Trazado 188699" d="M242.486,277.324l4.325,2.5,4.912-2.837v-1.978L249,273.435h0a.455.455,0,0,0-.446.04l-5.515,3.184A1.473,1.473,0,0,0,242.486,277.324Z" transform="translate(-224.457 -272.437)" fill="#a4a4a4"/>
              <path id="Trazado_188700" data-name="Trazado 188700" d="M278.6,289.942v0a.444.444,0,0,0-.436,0l-4.909,2.212a.581.581,0,0,1-.817-.376,10.6,10.6,0,0,0-.7-1.725l3.717-1.675a.465.465,0,0,1,.427,0v0Z" transform="translate(-233.179 -276.889)" fill="#a4a4a4"/>
            </g>
            <g id="Grupo_122751" data-name="Grupo 122751" transform="translate(0.231)" opacity="0.4">
              <path id="Trazado_188701" data-name="Trazado 188701" d="M266.9,277.318l1.082-2.182a.743.743,0,0,0-.29-.961l-3.551-2.05a.742.742,0,0,0-.977.229l-4.078,6.133a1.054,1.054,0,0,1-.272.262l4.565,2.635Z" transform="translate(-229.324 -272.03)" fill="#fff"/>
              <path id="Trazado_188702" data-name="Trazado 188702" d="M222.558,317.28a1.732,1.732,0,0,1-.39.414l-5.039,3.547a1.285,1.285,0,0,0-.332.381l3.075,1.775,6.689-3.805Z" transform="translate(-216.798 -285.521)" fill="#fff"/>
              <path id="Trazado_188703" data-name="Trazado 188703" d="M227.3,293.13a.866.866,0,0,0-.709.411l-4.055,7.023a.819.819,0,0,0-.091.513l3.5,2.018,5.55-7.508Z" transform="translate(-218.48 -278.321)" fill="#fff"/>
              <path id="Trazado_188704" data-name="Trazado 188704" d="M242.486,277.324l4.325,2.5,4.912-2.837v-1.978L249,273.435h0a.455.455,0,0,0-.446.04l-5.515,3.184A1.473,1.473,0,0,0,242.486,277.324Z" transform="translate(-224.457 -272.437)" fill="#fff"/>
              <path id="Trazado_188705" data-name="Trazado 188705" d="M278.6,289.942v0a.444.444,0,0,0-.436,0l-4.909,2.212a.581.581,0,0,1-.817-.376,10.6,10.6,0,0,0-.7-1.725l3.717-1.675a.465.465,0,0,1,.427,0v0Z" transform="translate(-233.179 -276.889)" fill="#fff"/>
            </g>
            <path id="Trazado_188706" data-name="Trazado 188706" d="M263.471,292.526v-6.369a.411.411,0,0,0-.627-.4l-4.909,2.213a.583.583,0,0,1-.818-.379,11.008,11.008,0,0,0-1.095-2.434,1.356,1.356,0,0,1-.074-1.19l3.272-6.6a.743.743,0,0,0-.29-.961l-3.551-2.05a.743.743,0,0,0-.978.229l-4.078,6.133a1.357,1.357,0,0,1-1.068.53,10.993,10.993,0,0,0-2.656.27.583.583,0,0,1-.736-.519l-.538-5.359a.411.411,0,0,0-.665-.34l-5.516,3.184a1.487,1.487,0,0,0-.658,1.03l-.552,6.137a2.054,2.054,0,0,1-.573,1.146,33.21,33.21,0,0,0-3.064,3.243,1.057,1.057,0,0,1-1.084.307l-3.541-1.237a.864.864,0,0,0-.994.369l-4.055,7.023a.866.866,0,0,0,.177,1.046l2.841,2.448a1.057,1.057,0,0,1,.276,1.092,33.27,33.27,0,0,0-1.277,4.275,2.046,2.046,0,0,1-.705,1.07l-5.038,3.547a1.484,1.484,0,0,0-.563,1.084v6.369a.411.411,0,0,0,.627.406l4.909-2.213a.583.583,0,0,1,.818.378,11,11,0,0,0,1.094,2.435,1.356,1.356,0,0,1,.074,1.19l-3.272,6.6a.743.743,0,0,0,.29.961l3.551,2.049a.742.742,0,0,0,.977-.229l4.078-6.133a1.358,1.358,0,0,1,1.068-.53,11.019,11.019,0,0,0,2.656-.27.582.582,0,0,1,.736.519l.538,5.359a.411.411,0,0,0,.665.34l5.516-3.185a1.483,1.483,0,0,0,.658-1.029l.552-6.138a2.052,2.052,0,0,1,.574-1.146,33.214,33.214,0,0,0,3.063-3.242,1.058,1.058,0,0,1,1.084-.307l3.541,1.237a.864.864,0,0,0,.994-.369l4.055-7.023a.865.865,0,0,0-.178-1.046l-2.841-2.448a1.057,1.057,0,0,1-.276-1.092,33.259,33.259,0,0,0,1.277-4.276,2.054,2.054,0,0,1,.706-1.069l5.039-3.546A1.487,1.487,0,0,0,263.471,292.526ZM241.9,312.554c-5.147,2.971-9.318.562-9.318-5.38s4.172-13.169,9.318-16.14,9.318-.563,9.318,5.38S247.048,309.583,241.9,312.554Z" transform="translate(-217.621 -272.694)" fill="#a4a4a4"/>
          </g>
          <g id="Grupo_122755" data-name="Grupo 122755" transform="translate(44.602 58.273)">
            <path id="Trazado_188707" data-name="Trazado 188707" d="M232.789,359.758v0a.441.441,0,0,0-.481.044l-2.321,1.528a.675.675,0,0,1-.932-.211,4.767,4.767,0,0,0-.452-.554,1.149,1.149,0,0,1-.272-1.105l3.688-2.338-2.753-1.589,0,0a.649.649,0,0,0-.182-.074l-1.75-.391a.946.946,0,0,0-.991.459L224.7,358.67a1.721,1.721,0,0,1-.994.747c-.034.009-.068.02-.1.03a3.986,3.986,0,0,0,.144-.729l-2.762-1.593v0a.451.451,0,0,0-.518.071l-2.621,2.061a1.465,1.465,0,0,0-.5,1.112l.156,2.494a1.973,1.973,0,0,1-.408,1.207c-.429.513-.836,1.053-1.217,1.611a1.352,1.352,0,0,1-1.067.541l-1.685-.083a1.082,1.082,0,0,0-.968.6l-1.585,3.552a.673.673,0,0,0,.271.853v0l1.868,1.078a.819.819,0,0,1,.044.483,15.769,15.769,0,0,0-.291,1.695,2.119,2.119,0,0,1-.569,1.151l-2.322,2.136a1.408,1.408,0,0,0-.39,1.144l.437,2.534a.479.479,0,0,0,.209.343l0,0,2.771,1.6.037-3.172a.673.673,0,0,1,.931.211,4.76,4.76,0,0,0,.453.554,1.15,1.15,0,0,1,.272,1.105l-1.183,3.2a.58.58,0,0,0,.232.711v0l2.766,1.6.753-2.061,1.07-2.657a1.721,1.721,0,0,1,.994-.747A8.446,8.446,0,0,0,220,381.7a.6.6,0,0,1,.827.378l.592,1.963a.509.509,0,0,0,.225.307l0,0,2.774,1.6-.485-3.068.849-.667a1.465,1.465,0,0,0,.5-1.112l-.156-2.494a1.976,1.976,0,0,1,.408-1.207c.43-.514,1.079-.788,1.46-1.346.214-.314.445-.825.825-.806l1.685.083a1.082,1.082,0,0,0,.968-.594l1.585-3.552a.676.676,0,0,0-.353-.9l-1.362-.58a.844.844,0,0,1-.467-.938,15.806,15.806,0,0,0,.292-1.694,2.112,2.112,0,0,1,.568-1.151l2.323-2.137a1.4,1.4,0,0,0,.384-.793l2.11-1.645Zm-10.548,16.381c-2.842,2.234-5.562,1.626-6.076-1.359s1.812-6.776,4.653-9.01,5.123-2.064,5.637.92S225.082,373.905,222.241,376.139Z" transform="translate(-209.17 -355.058)" fill="#a4a4a4"/>
            <path id="Trazado_188708" data-name="Trazado 188708" d="M232.789,359.758v0a.441.441,0,0,0-.481.044l-2.321,1.528a.675.675,0,0,1-.932-.211,4.767,4.767,0,0,0-.452-.554,1.149,1.149,0,0,1-.272-1.105l3.688-2.338-2.753-1.589,0,0a.649.649,0,0,0-.182-.074l-1.75-.391a.946.946,0,0,0-.991.459L224.7,358.67a1.721,1.721,0,0,1-.994.747c-.034.009-.068.02-.1.03a3.986,3.986,0,0,0,.144-.729l-2.762-1.593v0a.451.451,0,0,0-.518.071l-2.621,2.061a1.465,1.465,0,0,0-.5,1.112l.156,2.494a1.973,1.973,0,0,1-.408,1.207c-.429.513-.836,1.053-1.217,1.611a1.352,1.352,0,0,1-1.067.541l-1.685-.083a1.082,1.082,0,0,0-.968.6l-1.585,3.552a.673.673,0,0,0,.271.853v0l1.868,1.078a.819.819,0,0,1,.044.483,15.769,15.769,0,0,0-.291,1.695,2.119,2.119,0,0,1-.569,1.151l-2.322,2.136a1.408,1.408,0,0,0-.39,1.144l.437,2.534a.479.479,0,0,0,.209.343l0,0,2.771,1.6.037-3.172a.673.673,0,0,1,.931.211,4.76,4.76,0,0,0,.453.554,1.15,1.15,0,0,1,.272,1.105l-1.183,3.2a.58.58,0,0,0,.232.711v0l2.766,1.6.753-2.061,1.07-2.657a1.721,1.721,0,0,1,.994-.747A8.446,8.446,0,0,0,220,381.7a.6.6,0,0,1,.827.378l.592,1.963a.509.509,0,0,0,.225.307l0,0,2.774,1.6-.485-3.068.849-.667a1.465,1.465,0,0,0,.5-1.112l-.156-2.494a1.976,1.976,0,0,1,.408-1.207c.43-.514,1.079-.788,1.46-1.346.214-.314.445-.825.825-.806l1.685.083a1.082,1.082,0,0,0,.968-.594l1.585-3.552a.676.676,0,0,0-.353-.9l-1.362-.58a.844.844,0,0,1-.467-.938,15.806,15.806,0,0,0,.292-1.694,2.112,2.112,0,0,1,.568-1.151l2.323-2.137a1.4,1.4,0,0,0,.384-.793l2.11-1.645Zm-10.548,16.381c-2.842,2.234-5.562,1.626-6.076-1.359s1.812-6.776,4.653-9.01,5.123-2.064,5.637.92S225.082,373.905,222.241,376.139Z" transform="translate(-209.17 -355.058)" opacity="0.1"/>
            <g id="Grupo_122753" data-name="Grupo 122753" transform="translate(0.049)">
              <path id="Trazado_188709" data-name="Trazado 188709" d="M211.891,384.292l-2.3,2.112a1.351,1.351,0,0,0-.354.662l3.412,1.97,0-.182a.674.674,0,0,1,.931.211l0,0,3.287-1.9Z" transform="translate(-209.24 -363.774)" fill="#a4a4a4"/>
              <path id="Trazado_188710" data-name="Trazado 188710" d="M219.106,373.882a13.9,13.9,0,0,1,.845-1.168l-3.273-1.891a1.153,1.153,0,0,1-.481.1l-1.685-.083a1.062,1.062,0,0,0-.7.253l5.039,2.91Z" transform="translate(-210.603 -359.758)" fill="#a4a4a4"/>
              <path id="Trazado_188711" data-name="Trazado 188711" d="M244.833,363.321a.445.445,0,0,0-.472.055l-2.322,1.529a.677.677,0,0,1-.932-.211,4.484,4.484,0,0,0-.454-.555,1.15,1.15,0,0,1-.271-1.106l.22-.592,1-.656a.447.447,0,0,1,.481-.046v0Z" transform="translate(-218.51 -357.034)" fill="#a4a4a4"/>
              <path id="Trazado_188712" data-name="Trazado 188712" d="M235.118,360.665c-.027-.03-.05-.066-.077-.095a1.149,1.149,0,0,1-.272-1.105l3.688-2.338-2.753-1.589,0,0a.649.649,0,0,0-.182-.074l-1.75-.391a.946.946,0,0,0-.991.459l-1.645,3.134a1.4,1.4,0,0,1-.375.421l3.716,2.146Z" transform="translate(-215.656 -355.058)" fill="#a4a4a4"/>
              <path id="Trazado_188713" data-name="Trazado 188713" d="M220.917,360.8l3.412,1.971,2.805-2.571a4.384,4.384,0,0,0,.114-.629l-2.762-1.593v0a.451.451,0,0,0-.518.072l-2.621,2.061A1.433,1.433,0,0,0,220.917,360.8Z" transform="translate(-212.722 -355.914)" fill="#a4a4a4"/>
            </g>
            <g id="Grupo_122754" data-name="Grupo 122754" transform="translate(0.049)" opacity="0.4">
              <path id="Trazado_188714" data-name="Trazado 188714" d="M211.891,384.292l-2.3,2.112a1.351,1.351,0,0,0-.354.662l3.412,1.97,0-.182a.674.674,0,0,1,.931.211l0,0,3.287-1.9Z" transform="translate(-209.24 -363.774)" fill="#fff"/>
              <path id="Trazado_188715" data-name="Trazado 188715" d="M219.106,373.882a13.9,13.9,0,0,1,.845-1.168l-3.273-1.891a1.153,1.153,0,0,1-.481.1l-1.685-.083a1.062,1.062,0,0,0-.7.253l5.039,2.91Z" transform="translate(-210.603 -359.758)" fill="#fff"/>
              <path id="Trazado_188716" data-name="Trazado 188716" d="M244.833,363.321a.445.445,0,0,0-.472.055l-2.322,1.529a.677.677,0,0,1-.932-.211,4.484,4.484,0,0,0-.454-.555,1.15,1.15,0,0,1-.271-1.106l.22-.592,1-.656a.447.447,0,0,1,.481-.046v0Z" transform="translate(-218.51 -357.034)" fill="#fff"/>
              <path id="Trazado_188717" data-name="Trazado 188717" d="M235.118,360.665c-.027-.03-.05-.066-.077-.095a1.149,1.149,0,0,1-.272-1.105l3.688-2.338-2.753-1.589,0,0a.649.649,0,0,0-.182-.074l-1.75-.391a.946.946,0,0,0-.991.459l-1.645,3.134a1.4,1.4,0,0,1-.375.421l3.716,2.146Z" transform="translate(-215.656 -355.058)" fill="#fff"/>
              <path id="Trazado_188718" data-name="Trazado 188718" d="M220.917,360.8l3.412,1.971,2.805-2.571a4.384,4.384,0,0,0,.114-.629l-2.762-1.593v0a.451.451,0,0,0-.518.072l-2.621,2.061A1.433,1.433,0,0,0,220.917,360.8Z" transform="translate(-212.722 -355.914)" fill="#fff"/>
            </g>
            <path id="Trazado_188719" data-name="Trazado 188719" d="M237.369,364.909l-.436-2.533a.417.417,0,0,0-.692-.3L233.92,363.6a.674.674,0,0,1-.932-.211,4.772,4.772,0,0,0-.452-.554,1.149,1.149,0,0,1-.272-1.105l1.184-3.2a.585.585,0,0,0-.433-.8l-1.75-.391a.946.946,0,0,0-.991.459l-1.645,3.134a1.722,1.722,0,0,1-.994.748,8.392,8.392,0,0,0-1.077.356.6.6,0,0,1-.827-.378l-.591-1.964a.437.437,0,0,0-.74-.233l-2.622,2.061a1.468,1.468,0,0,0-.5,1.112l.156,2.494a1.969,1.969,0,0,1-.408,1.206c-.43.514-.836,1.054-1.217,1.611a1.354,1.354,0,0,1-1.067.541l-1.685-.084a1.082,1.082,0,0,0-.968.595l-1.585,3.553a.675.675,0,0,0,.353.9l1.362.581a.842.842,0,0,1,.467.938,15.785,15.785,0,0,0-.292,1.695,2.119,2.119,0,0,1-.568,1.151l-2.322,2.136a1.409,1.409,0,0,0-.39,1.144l.437,2.534a.417.417,0,0,0,.692.3l2.321-1.527a.673.673,0,0,1,.931.211,4.765,4.765,0,0,0,.453.554,1.15,1.15,0,0,1,.272,1.105l-1.183,3.2a.585.585,0,0,0,.433.8l1.749.391a.948.948,0,0,0,.992-.459l1.645-3.135a1.724,1.724,0,0,1,.994-.747,8.378,8.378,0,0,0,1.077-.357.6.6,0,0,1,.827.378l.592,1.963a.437.437,0,0,0,.74.234l2.621-2.061a1.465,1.465,0,0,0,.5-1.112l-.157-2.494a1.975,1.975,0,0,1,.408-1.207c.43-.514.837-1.053,1.218-1.611a1.352,1.352,0,0,1,1.067-.54l1.685.083a1.081,1.081,0,0,0,.968-.595l1.585-3.552a.675.675,0,0,0-.353-.9l-1.362-.581a.843.843,0,0,1-.467-.938,15.777,15.777,0,0,0,.292-1.694,2.117,2.117,0,0,1,.568-1.151l2.323-2.136A1.407,1.407,0,0,0,237.369,364.909Zm-11.2,13.5c-2.842,2.234-5.561,1.626-6.076-1.358s1.374-7.215,4.215-9.448,5.561-1.626,6.075,1.358S229.014,376.174,226.173,378.408Z" transform="translate(-210.342 -355.734)" fill="#a4a4a4"/>
          </g>
          <g id="Grupo_122758" data-name="Grupo 122758" transform="translate(0 45.273)">
            <path id="Trazado_188720" data-name="Trazado 188720" d="M191.275,349.587l-2.718-1.567v0a.462.462,0,0,0-.427.006l-4.909,2.214a.583.583,0,0,1-.818-.379,10.973,10.973,0,0,0-1.095-2.434,1.356,1.356,0,0,1-.074-1.19l3.272-6.6a.743.743,0,0,0-.29-.961l-3.551-2.05a.743.743,0,0,0-.977.229l-4.078,6.133a1.359,1.359,0,0,1-1.068.531,10.369,10.369,0,0,0-1.425.067V339.1l-2.725-1.571h0a.455.455,0,0,0-.446.04l-5.515,3.185a1.486,1.486,0,0,0-.658,1.03l-.552,6.137a2.05,2.05,0,0,1-.573,1.146,33.205,33.205,0,0,0-3.064,3.243,1.056,1.056,0,0,1-1.084.307l-3.54-1.237a.863.863,0,0,0-.994.369l-4.055,7.023a.863.863,0,0,0,.178,1.046l2.841,2.448a1.056,1.056,0,0,1,.275,1.093,33.36,33.36,0,0,0-1.277,4.275,2.046,2.046,0,0,1-.705,1.07l-5.039,3.546a1.487,1.487,0,0,0-.563,1.085v6.369a.449.449,0,0,0,.2.409h0l2.717,1.567,4.035-1.91a9.982,9.982,0,0,0,.5.938,1.358,1.358,0,0,1,.074,1.19l-3.273,6.6a.744.744,0,0,0,.291.961l3.551,2.05a.742.742,0,0,0,.977-.229l4.078-6.133a1.357,1.357,0,0,1,1.068-.531,10.958,10.958,0,0,0,2.655-.27.583.583,0,0,1,.736.52l.538,5.359a.461.461,0,0,0,.213.375h0l2.712,1.564,3.257-4.785a1.483,1.483,0,0,0,.658-1.03l.553-6.137a1.228,1.228,0,0,1,.705-.929,12.978,12.978,0,0,0,4.284-3.005,1.112,1.112,0,0,1,1.1-.293l2.174.765a.86.86,0,0,0,.993-.368l4.055-7.023a.863.863,0,0,0-.178-1.045l-1.868-1.609a1.142,1.142,0,0,1-.3-1.1,18.345,18.345,0,0,0,.507-5.09,1.415,1.415,0,0,1,.53-1.084l5.039-3.547a1.486,1.486,0,0,0,.563-1.084l2.408-2.887Zm-24.085,25.244c-5.146,2.971-8.345.863-8.345-5.079s4.252-13.222,9.4-16.193,8.263-.81,8.263,5.133S172.335,371.859,167.189,374.831Z" transform="translate(-145.621 -336.535)" fill="#a4a4a4"/>
            <path id="Trazado_188721" data-name="Trazado 188721" d="M191.275,349.587l-2.718-1.567v0a.462.462,0,0,0-.427.006l-4.909,2.214a.583.583,0,0,1-.818-.379,10.973,10.973,0,0,0-1.095-2.434,1.356,1.356,0,0,1-.074-1.19l3.272-6.6a.743.743,0,0,0-.29-.961l-3.551-2.05a.743.743,0,0,0-.977.229l-4.078,6.133a1.359,1.359,0,0,1-1.068.531,10.369,10.369,0,0,0-1.425.067V339.1l-2.725-1.571h0a.455.455,0,0,0-.446.04l-5.515,3.185a1.486,1.486,0,0,0-.658,1.03l-.552,6.137a2.05,2.05,0,0,1-.573,1.146,33.205,33.205,0,0,0-3.064,3.243,1.056,1.056,0,0,1-1.084.307l-3.54-1.237a.863.863,0,0,0-.994.369l-4.055,7.023a.863.863,0,0,0,.178,1.046l2.841,2.448a1.056,1.056,0,0,1,.275,1.093,33.36,33.36,0,0,0-1.277,4.275,2.046,2.046,0,0,1-.705,1.07l-5.039,3.546a1.487,1.487,0,0,0-.563,1.085v6.369a.449.449,0,0,0,.2.409h0l2.717,1.567,4.035-1.91a9.982,9.982,0,0,0,.5.938,1.358,1.358,0,0,1,.074,1.19l-3.273,6.6a.744.744,0,0,0,.291.961l3.551,2.05a.742.742,0,0,0,.977-.229l4.078-6.133a1.357,1.357,0,0,1,1.068-.531,10.958,10.958,0,0,0,2.655-.27.583.583,0,0,1,.736.52l.538,5.359a.461.461,0,0,0,.213.375h0l2.712,1.564,3.257-4.785a1.483,1.483,0,0,0,.658-1.03l.553-6.137a1.228,1.228,0,0,1,.705-.929,12.978,12.978,0,0,0,4.284-3.005,1.112,1.112,0,0,1,1.1-.293l2.174.765a.86.86,0,0,0,.993-.368l4.055-7.023a.863.863,0,0,0-.178-1.045l-1.868-1.609a1.142,1.142,0,0,1-.3-1.1,18.345,18.345,0,0,0,.507-5.09,1.415,1.415,0,0,1,.53-1.084l5.039-3.547a1.486,1.486,0,0,0,.563-1.084l2.408-2.887Zm-24.085,25.244c-5.146,2.971-8.345.863-8.345-5.079s4.252-13.222,9.4-16.193,8.263-.81,8.263,5.133S172.335,371.859,167.189,374.831Z" transform="translate(-145.621 -336.535)" opacity="0.1"/>
            <g id="Grupo_122756" data-name="Grupo 122756" transform="translate(0.231)">
              <path id="Trazado_188722" data-name="Trazado 188722" d="M196.048,341.823l1.082-2.182a.743.743,0,0,0-.29-.961l-3.551-2.05a.743.743,0,0,0-.977.229l-4.078,6.133a1.053,1.053,0,0,1-.272.262l4.565,2.635Z" transform="translate(-158.476 -336.535)" fill="#a4a4a4"/>
              <path id="Trazado_188723" data-name="Trazado 188723" d="M151.71,381.785a1.739,1.739,0,0,1-.389.415l-5.039,3.546a1.294,1.294,0,0,0-.332.381l3.075,1.775,6.689-3.805Z" transform="translate(-145.95 -350.026)" fill="#a4a4a4"/>
              <path id="Trazado_188724" data-name="Trazado 188724" d="M156.455,357.635a.867.867,0,0,0-.709.411l-4.055,7.023a.824.824,0,0,0-.091.513l3.5,2.019,5.551-7.509Z" transform="translate(-147.632 -342.826)" fill="#a4a4a4"/>
              <path id="Trazado_188725" data-name="Trazado 188725" d="M171.638,341.829l4.325,2.5,4.911-2.836v-1.979l-2.725-1.571h0a.455.455,0,0,0-.446.04l-5.515,3.185A1.464,1.464,0,0,0,171.638,341.829Z" transform="translate(-153.609 -336.942)" fill="#a4a4a4"/>
              <path id="Trazado_188726" data-name="Trazado 188726" d="M207.756,354.447v0a.44.44,0,0,0-.436,0l-4.91,2.211a.581.581,0,0,1-.816-.376,10.59,10.59,0,0,0-.7-1.726l3.717-1.675a.465.465,0,0,1,.427,0v0Z" transform="translate(-162.331 -341.394)" fill="#a4a4a4"/>
            </g>
            <g id="Grupo_122757" data-name="Grupo 122757" transform="translate(0.231)" opacity="0.4">
              <path id="Trazado_188727" data-name="Trazado 188727" d="M196.048,341.823l1.082-2.182a.743.743,0,0,0-.29-.961l-3.551-2.05a.743.743,0,0,0-.977.229l-4.078,6.133a1.053,1.053,0,0,1-.272.262l4.565,2.635Z" transform="translate(-158.476 -336.535)" fill="#fff"/>
              <path id="Trazado_188728" data-name="Trazado 188728" d="M151.71,381.785a1.739,1.739,0,0,1-.389.415l-5.039,3.546a1.294,1.294,0,0,0-.332.381l3.075,1.775,6.689-3.805Z" transform="translate(-145.95 -350.026)" fill="#fff"/>
              <path id="Trazado_188729" data-name="Trazado 188729" d="M156.455,357.635a.867.867,0,0,0-.709.411l-4.055,7.023a.824.824,0,0,0-.091.513l3.5,2.019,5.551-7.509Z" transform="translate(-147.632 -342.826)" fill="#fff"/>
              <path id="Trazado_188730" data-name="Trazado 188730" d="M171.638,341.829l4.325,2.5,4.911-2.836v-1.979l-2.725-1.571h0a.455.455,0,0,0-.446.04l-5.515,3.185A1.464,1.464,0,0,0,171.638,341.829Z" transform="translate(-153.609 -336.942)" fill="#fff"/>
              <path id="Trazado_188731" data-name="Trazado 188731" d="M207.756,354.447v0a.44.44,0,0,0-.436,0l-4.91,2.211a.581.581,0,0,1-.816-.376,10.59,10.59,0,0,0-.7-1.726l3.717-1.675a.465.465,0,0,1,.427,0v0Z" transform="translate(-162.331 -341.394)" fill="#fff"/>
            </g>
            <path id="Trazado_188732" data-name="Trazado 188732" d="M192.623,357.032v-6.37a.411.411,0,0,0-.627-.4l-4.909,2.213a.583.583,0,0,1-.818-.379,11.007,11.007,0,0,0-1.095-2.434,1.355,1.355,0,0,1-.074-1.19l3.272-6.6a.743.743,0,0,0-.29-.961l-3.551-2.05a.743.743,0,0,0-.978.229l-4.078,6.133a1.357,1.357,0,0,1-1.067.53,10.983,10.983,0,0,0-2.656.27.582.582,0,0,1-.736-.519l-.538-5.358a.411.411,0,0,0-.665-.341l-5.516,3.184a1.488,1.488,0,0,0-.658,1.03l-.552,6.138a2.056,2.056,0,0,1-.573,1.146,33.126,33.126,0,0,0-3.064,3.243,1.056,1.056,0,0,1-1.084.307l-3.541-1.237a.864.864,0,0,0-.994.369l-4.055,7.024a.864.864,0,0,0,.178,1.045l2.841,2.448a1.057,1.057,0,0,1,.276,1.092,33.148,33.148,0,0,0-1.277,4.276,2.047,2.047,0,0,1-.705,1.069l-5.039,3.547a1.486,1.486,0,0,0-.563,1.084v6.369a.411.411,0,0,0,.627.406l4.909-2.213a.583.583,0,0,1,.818.378,10.982,10.982,0,0,0,1.094,2.435,1.356,1.356,0,0,1,.074,1.19l-3.272,6.6a.743.743,0,0,0,.29.961l3.551,2.05a.743.743,0,0,0,.977-.23l4.078-6.132a1.358,1.358,0,0,1,1.068-.531,11.024,11.024,0,0,0,2.656-.269.582.582,0,0,1,.736.519l.538,5.359a.411.411,0,0,0,.665.34l5.516-3.184a1.486,1.486,0,0,0,.658-1.03l.552-6.138a2.053,2.053,0,0,1,.574-1.146,33.1,33.1,0,0,0,3.063-3.242,1.058,1.058,0,0,1,1.084-.307l3.541,1.237a.864.864,0,0,0,.994-.369l4.055-7.023a.864.864,0,0,0-.178-1.045l-2.841-2.448a1.057,1.057,0,0,1-.276-1.093,33.278,33.278,0,0,0,1.277-4.275,2.051,2.051,0,0,1,.706-1.069l5.039-3.547A1.487,1.487,0,0,0,192.623,357.032Zm-21.568,20.027c-5.147,2.971-9.318.562-9.318-5.38s4.172-13.169,9.318-16.14,9.318-.563,9.318,5.38S176.2,374.088,171.054,377.059Z" transform="translate(-146.773 -337.199)" fill="#a4a4a4"/>
          </g>
        </g>
      </g>
      <g id="Character_2" data-name="Character 2" transform="translate(110.105 64.889)">
        <g id="Character_girl" data-name="Character girl">
          <path id="Trazado_188733" data-name="Trazado 188733" d="M301.437,181.16h22.917v-20.54A11.458,11.458,0,0,0,312.9,149.161h0a11.459,11.459,0,0,0-11.458,11.458Z" transform="translate(-222.261 -146.845)" fill="#2f2f2f"/>
          <g id="Grupo_122769" data-name="Grupo 122769" transform="translate(0 9.393)">
            <g id="Girl_arm" data-name="Girl arm" transform="translate(57.202 14.737)">
              <path id="Trazado_188734" data-name="Trazado 188734" d="M299.312,184.855l-16.4.625c-.572-.49-3.818-4.361-3.818-4.361s-8.912-1.143-8.966-.82,8.767,9.757,9.639,10.709a2.627,2.627,0,0,0,2.082,1.018c2.306.138,15.013.937,15.013.937Z" transform="translate(-270.128 -180.242)" fill="#fff"/>
            </g>
            <g id="Tab-2" data-name="Tab">
              <g id="Grupo_122760" data-name="Grupo 122760">
                <path id="Trazado_188735" data-name="Trazado 188735" d="M190.531,252.524l-.489-.283a3.128,3.128,0,0,1-1.416-2.452V199.4a3.129,3.129,0,0,1,1.415-2.452l64.724-37.364a3.13,3.13,0,0,1,2.831,0l.488.282a3.128,3.128,0,0,1,1.416,2.452v50.392a3.129,3.129,0,0,1-1.415,2.452l-64.724,37.364A3.128,3.128,0,0,1,190.531,252.524Z" transform="translate(-188.626 -159.245)" fill="#3d4e63"/>
                <path id="Trazado_188736" data-name="Trazado 188736" d="M259.665,162.09c-.1-.733-.689-1-1.4-.593l-64.728,37.37a2.913,2.913,0,0,0-1,1.053l-3.313-1.913a2.877,2.877,0,0,1,1-1.06l64.72-37.363a3.127,3.127,0,0,1,2.832,0l.489.282A3.172,3.172,0,0,1,259.665,162.09Z" transform="translate(-188.804 -159.245)" fill="#fff" opacity="0.4"/>
                <path id="Trazado_188737" data-name="Trazado 188737" d="M193.123,269.1a3.145,3.145,0,0,1-2.587-.111l-.5-.282a3.132,3.132,0,0,1-1.409-2.453V215.866a2.835,2.835,0,0,1,.415-1.393l3.313,1.913a2.958,2.958,0,0,0-.415,1.393v50.4C191.944,268.983,192.456,269.361,193.123,269.1Z" transform="translate(-188.628 -175.711)" opacity="0.1"/>
              </g>
              <g id="Grupo_122762" data-name="Grupo 122762" transform="translate(9.217 37.248)">
                <path id="Trazado_188738" data-name="Trazado 188738" d="M202.4,218.421l4.868-2.811c.354-.2.642-.039.642.371v5.472a1.4,1.4,0,0,1-.645,1.105l-4.861,2.748c-.357.2-.646.033-.646-.376v-5.4A1.42,1.42,0,0,1,202.4,218.421Z" transform="translate(-201.758 -213.272)" fill="#fafafa"/>
                <g id="Grupo_122761" data-name="Grupo 122761" transform="translate(2.819)">
                  <path id="Trazado_188739" data-name="Trazado 188739" d="M207.835,220.822a.374.374,0,0,1-.42.021l-1.505-1.138c-.2-.152-.175-.572.057-.938s.584-.54.784-.387l1.049.793,2.913-6.26c.182-.391.53-.653.777-.586s.3.439.119.829l-3.325,7.146a1.206,1.206,0,0,1-.426.508Z" transform="translate(-205.774 -212.316)" fill="#434343"/>
                </g>
              </g>
              <g id="Grupo_122764" data-name="Grupo 122764" transform="translate(9.217 49.175)">
                <path id="Trazado_188740" data-name="Trazado 188740" d="M202.4,235.415l4.868-2.811c.354-.2.642-.039.642.371v5.472a1.4,1.4,0,0,1-.645,1.105L202.4,242.3c-.357.2-.646.033-.646-.376v-5.4A1.42,1.42,0,0,1,202.4,235.415Z" transform="translate(-201.758 -230.266)" fill="#fafafa"/>
                <g id="Grupo_122763" data-name="Grupo 122763" transform="translate(2.819)">
                  <path id="Trazado_188741" data-name="Trazado 188741" d="M207.835,237.816a.374.374,0,0,1-.42.021l-1.505-1.138c-.2-.152-.175-.572.057-.938s.584-.54.784-.387l1.049.793,2.913-6.26c.182-.391.53-.653.777-.586s.3.439.119.829l-3.325,7.146a1.213,1.213,0,0,1-.426.508Z" transform="translate(-205.774 -229.31)" fill="#434343"/>
                </g>
              </g>
              <g id="Grupo_122766" data-name="Grupo 122766" transform="translate(9.217 61.102)">
                <path id="Trazado_188742" data-name="Trazado 188742" d="M202.4,252.409l4.868-2.81c.354-.2.642-.039.642.37v5.471a1.4,1.4,0,0,1-.645,1.105l-4.861,2.748c-.357.2-.646.033-.646-.376v-5.4A1.42,1.42,0,0,1,202.4,252.409Z" transform="translate(-201.758 -247.26)" fill="#fafafa"/>
                <g id="Grupo_122765" data-name="Grupo 122765" transform="translate(2.819)">
                  <path id="Trazado_188743" data-name="Trazado 188743" d="M207.835,254.81a.374.374,0,0,1-.42.021l-1.505-1.138c-.2-.152-.175-.572.057-.938s.584-.54.784-.387l1.049.793,2.913-6.26c.182-.391.53-.653.777-.586s.3.439.119.829l-3.325,7.146a1.213,1.213,0,0,1-.426.508Z" transform="translate(-205.774 -246.304)" fill="#434343"/>
                </g>
              </g>
              <g id="Grupo_122768" data-name="Grupo 122768" transform="translate(9.217 73.062)">
                <path id="Trazado_188744" data-name="Trazado 188744" d="M202.4,269.449l4.868-2.811c.354-.2.642-.039.642.371v5.471a1.4,1.4,0,0,1-.645,1.106l-4.861,2.748c-.357.2-.646.032-.646-.377v-5.4A1.418,1.418,0,0,1,202.4,269.449Z" transform="translate(-201.758 -264.3)" fill="#fafafa"/>
                <g id="Grupo_122767" data-name="Grupo 122767" transform="translate(2.819)">
                  <path id="Trazado_188745" data-name="Trazado 188745" d="M207.835,271.85a.375.375,0,0,1-.42.02l-1.505-1.138c-.2-.152-.175-.571.057-.938s.584-.54.784-.387l1.049.793,2.913-6.26c.182-.391.53-.653.777-.586s.3.438.119.828l-3.325,7.147a1.206,1.206,0,0,1-.426.507Z" transform="translate(-205.774 -263.344)" fill="#434343"/>
                </g>
              </g>
              <path id="Trazado_188746" data-name="Trazado 188746" d="M219.1,206.884c0,.662.574.867,1.283.458L238.9,196.656a2.6,2.6,0,0,0,1.284-1.941c0-.662-.575-.867-1.284-.458l-18.509,10.686A2.6,2.6,0,0,0,219.1,206.884Z" transform="translate(-197.713 -169.621)" fill="#939eac"/>
              <path id="Trazado_188747" data-name="Trazado 188747" d="M219.1,207.455c0,.662.574.867,1.283.458l39.586-22.822a2.6,2.6,0,0,0,1.284-1.94c0-.663-.575-.868-1.284-.458l-39.585,22.823A2.6,2.6,0,0,0,219.1,207.455Z" transform="translate(-197.713 -166.173)" fill="#f0f0f0"/>
              <path id="Trazado_188748" data-name="Trazado 188748" d="M219.1,223.508c0,.662.574.867,1.283.458L238.9,213.28a2.6,2.6,0,0,0,1.284-1.941c0-.662-.575-.868-1.284-.458l-18.509,10.686A2.6,2.6,0,0,0,219.1,223.508Z" transform="translate(-197.713 -174.577)" fill="#939eac"/>
              <path id="Trazado_188749" data-name="Trazado 188749" d="M219.1,224.079c0,.663.574.867,1.283.458l39.586-22.821a2.6,2.6,0,0,0,1.284-1.941c0-.663-.575-.868-1.284-.458l-39.585,22.823A2.6,2.6,0,0,0,219.1,224.079Z" transform="translate(-197.713 -171.129)" fill="#f0f0f0"/>
              <path id="Trazado_188750" data-name="Trazado 188750" d="M219.1,241.189c0,.663.574.868,1.283.458L238.9,230.961a2.6,2.6,0,0,0,1.284-1.941c0-.662-.575-.867-1.284-.458l-18.509,10.686A2.6,2.6,0,0,0,219.1,241.189Z" transform="translate(-197.713 -179.849)" fill="#939eac"/>
              <path id="Trazado_188751" data-name="Trazado 188751" d="M219.1,241.76c0,.662.574.867,1.283.458L259.973,219.4a2.6,2.6,0,0,0,1.284-1.941c0-.663-.575-.867-1.284-.458L220.388,239.82A2.6,2.6,0,0,0,219.1,241.76Z" transform="translate(-197.713 -176.401)" fill="#f0f0f0"/>
              <path id="Trazado_188752" data-name="Trazado 188752" d="M219.1,258.87c0,.663.574.867,1.283.458L238.9,248.642a2.6,2.6,0,0,0,1.284-1.941c0-.662-.575-.867-1.284-.458L220.388,256.93A2.6,2.6,0,0,0,219.1,258.87Z" transform="translate(-197.713 -185.121)" fill="#939eac"/>
              <path id="Trazado_188753" data-name="Trazado 188753" d="M219.1,259.441c0,.663.574.867,1.283.458l39.586-22.821a2.6,2.6,0,0,0,1.284-1.941c0-.663-.575-.867-1.284-.458L220.388,257.5A2.6,2.6,0,0,0,219.1,259.441Z" transform="translate(-197.713 -181.673)" fill="#f0f0f0"/>
            </g>
          </g>
          <g id="Grupo_122776" data-name="Grupo 122776" transform="translate(73.864 61.014)">
            <g id="Grupo_122770" data-name="Grupo 122770" transform="translate(0 73.036)">
              <path id="Trazado_188754" data-name="Trazado 188754" d="M298.975,342.982a30.133,30.133,0,0,1-4.347,3.782,1.844,1.844,0,0,0-.6.624c-.2.426-.524,1.482,1.421,2.16a7.229,7.229,0,0,0,6-.575c1.6-1,1.668-3.078,3.174-4.264,1.117-.879,2.511-1.1,3.412-2.251.628-.8.464-1.863.137-3.179-.358-1.437-.522-2.524-1-2.414l.078.661c-.593.947-3.669,1.226-5.038.573A56.246,56.246,0,0,1,298.975,342.982Z" transform="translate(-293.869 -336.857)" fill="#2f2f2f"/>
            </g>
            <g id="Grupo_122771" data-name="Grupo 122771" transform="translate(2.486 68.925)">
              <path id="Trazado_188755" data-name="Trazado 188755" d="M298.683,342.58v-.01c.463-.424.915-.86,1.349-1.335a37.46,37.46,0,0,0,2.51-3.7,4.159,4.159,0,0,0,.7-2.649c-.107-.993-.383-3.542-.383-3.542l4.874-.345.566,4.778h0c.117,1.083-.778,2.044-2.363,3.411s-3.6,4.554-5.036,5.355-2.462.772-3.075.362C297.2,344.484,297.136,344.16,298.683,342.58Z" transform="translate(-297.411 -331)" fill="#fff"/>
            </g>
            <g id="Grupo_122772" data-name="Grupo 122772" transform="translate(18.894 78.859)">
              <path id="Trazado_188756" data-name="Trazado 188756" d="M328.892,345.892v-.733c-.288.86-1.628,4.558-3.661,6.411-1.616,1.474-3.819,3.176-4.38,4.818-.583,1.709,3.066,2.282,4.576,2.016a9.319,9.319,0,0,0,5.257-2.823c.869-1.067,1.421-2.332,2.042-3.17s2.049-1.776,2.384-2.747a6.183,6.183,0,0,0-.293-2.689c-.237-.905-.495-1.9-.8-1.816,0,.111,0,.559,0,.559a4.051,4.051,0,0,1-2.561.865C330.7,346.612,328.886,346.463,328.892,345.892Z" transform="translate(-320.789 -345.154)" fill="#2f2f2f"/>
            </g>
            <g id="Grupo_122773" data-name="Grupo 122773" transform="translate(21.316 74.666)">
              <path id="Trazado_188757" data-name="Trazado 188757" d="M324.8,351.086c.5-.447,1.005-.884,1.463-1.3a14.877,14.877,0,0,0,3.123-4.99,7.018,7.018,0,0,0,.538-2.7V339.18h5.121v4.752h0v.126l-.026.013c-.246,1.064-2.6,3.9-3.932,5.741a7.434,7.434,0,0,1-4.628,3.083C324.531,353.153,323.546,352.546,324.8,351.086Z" transform="translate(-324.24 -339.18)" fill="#fff"/>
            </g>
            <g id="Grupo_122774" data-name="Grupo 122774" transform="translate(4.8)">
              <path id="Trazado_188758" data-name="Trazado 188758" d="M327.008,232.795c3.97,8.672-.143,39.221-.143,39.221.119,1.408,1.728,4.177,2.327,10.371.709,7.319-1.111,25.695-1.111,25.695a5.542,5.542,0,0,1-5.176.206s-4.881-27.677-5.8-34.953c-.8-6.35-2.339-21.277-2.339-21.277l-4.608,21.284a27.175,27.175,0,0,1,.9,6.305c-.071,4.3-2.074,23.136-2.074,23.136a8.356,8.356,0,0,1-5.138.55s-3.23-24.751-3.134-30.521c.051-3.088,1.4-35.962,1.4-35.962Z" transform="translate(-300.708 -232.795)" fill="#3d4e63"/>
            </g>
            <g id="Grupo_122775" data-name="Grupo 122775" transform="translate(9.643 8.716)" opacity="0.15">
              <path id="Trazado_188759" data-name="Trazado 188759" d="M316.825,255.761l-1.289-7.091s-5.454-1.13-7.927-3.455a14.109,14.109,0,0,0,6.449,4.285l1.448,6.2-2.619,18.249Z" transform="translate(-307.608 -245.214)" fill="#2f2f2f"/>
            </g>
          </g>
          <g id="Grupo_122787" data-name="Grupo 122787" transform="translate(78.036)">
            <g id="Grupo_122786" data-name="Grupo 122786">
              <path id="Trazado_188760" data-name="Trazado 188760" d="M320.824,148.877l.265-3a1.464,1.464,0,0,0-1.659,1.317A1.584,1.584,0,0,0,320.824,148.877Z" transform="translate(-305.66 -145.862)" fill="#2f2f2f"/>
              <path id="Trazado_188761" data-name="Trazado 188761" d="M321.531,149.553l2.432-1.783a1.463,1.463,0,0,0-2.084-.378A1.585,1.585,0,0,0,321.531,149.553Z" transform="translate(-306.205 -146.234)" fill="#2f2f2f"/>
              <g id="Grupo_122777" data-name="Grupo 122777" transform="translate(1.482 28.743)">
                <path id="Trazado_188762" data-name="Trazado 188762" d="M318.293,187.031a57.726,57.726,0,0,1,6.672.877c-4.2,4.594,2.186,6.5,2.186,6.5l-4.37,15.641c2.622,4,4.3,7.1,5.286,11.044-2.95,5.2-19.522,5.919-25.6,2.046.529-7.255,1.707-12.449,1.315-14.627-2.069-8.9-1.993-10.775-1.722-12.81.531-3.974,4.474-7.438,6.729-8.89h2.1Z" transform="translate(-301.925 -186.815)" fill="#12263f"/>
              </g>
              <g id="Grupo_122778" data-name="Grupo 122778" transform="translate(3.343 7.758)">
                <path id="Trazado_188763" data-name="Trazado 188763" d="M307.2,157.072c-1.235.73-2.761,3.836-2.61,10.346.128,5.517,1.916,6.88,2.814,7.273s2.63.154,4.314-.126v3.311s-2.327,2.7-2.181,4.222,3.36,1.877,5.538.394a17.6,17.6,0,0,0,4.012-4.375l-.038-7.614s.991.962,2.671-.507c1.387-1.213,1.854-3.258.773-4.356a2.417,2.417,0,0,0-3.845.766c-.462,1-1.516,1.019-1.525-.123-.051-5.868-.745-6.18-1.333-8.585C312.282,156.553,309.774,156.973,307.2,157.072Z" transform="translate(-304.576 -156.915)" fill="#fff"/>
              </g>
              <g id="Grupo_122779" data-name="Grupo 122779" transform="translate(9.513 16.187)">
                <path id="Trazado_188764" data-name="Trazado 188764" d="M313.368,169.612a.694.694,0,1,0,.729-.686A.706.706,0,0,0,313.368,169.612Z" transform="translate(-313.367 -168.925)" fill="#2f2f2f"/>
              </g>
              <g id="Grupo_122780" data-name="Grupo 122780" transform="translate(7.717 21.552)">
                <path id="Trazado_188765" data-name="Trazado 188765" d="M312.42,176.569l-1.612.514a.832.832,0,0,0,1.049.578A.886.886,0,0,0,312.42,176.569Z" transform="translate(-310.808 -176.569)" fill="#adadad"/>
              </g>
              <g id="Grupo_122781" data-name="Grupo 122781" transform="translate(3.799 13.674)">
                <path id="Trazado_188766" data-name="Trazado 188766" d="M305.366,166.7l1.4-.973a.819.819,0,0,0-1.166-.239A.9.9,0,0,0,305.366,166.7Z" transform="translate(-305.226 -165.344)" fill="#2f2f2f"/>
              </g>
              <g id="Grupo_122782" data-name="Grupo 122782" transform="translate(10.129 13.897)">
                <path id="Trazado_188767" data-name="Trazado 188767" d="M315.65,167.023l-1.4-.973a.82.82,0,0,1,1.166-.239A.9.9,0,0,1,315.65,167.023Z" transform="translate(-314.245 -165.662)" fill="#2f2f2f"/>
              </g>
              <g id="Grupo_122783" data-name="Grupo 122783" transform="translate(4.148 15.685)">
                <path id="Trazado_188768" data-name="Trazado 188768" d="M305.724,168.9a.694.694,0,1,0,.729-.687A.7.7,0,0,0,305.724,168.9Z" transform="translate(-305.723 -168.21)" fill="#2f2f2f"/>
              </g>
              <g id="Grupo_122784" data-name="Grupo 122784" transform="translate(5.113 15.975)">
                <path id="Trazado_188769" data-name="Trazado 188769" d="M309.407,168.624l-.11,4.177-2.2-.681Z" transform="translate(-307.098 -168.624)" fill="#adadad"/>
              </g>
              <g id="Grupo_122785" data-name="Grupo 122785" transform="translate(10.481 22.683)">
                <path id="Trazado_188770" data-name="Trazado 188770" d="M314.747,180.905c1.774-.233,5.425-1.282,5.994-2.725a3.734,3.734,0,0,1-1.279,1.842c-1.091.935-4.714,1.988-4.714,1.988Z" transform="translate(-314.747 -178.18)" fill="#adadad"/>
              </g>
              <path id="Trazado_188771" data-name="Trazado 188771" d="M309.433,150.25h0a9.619,9.619,0,0,0-9.62,9.619v1.248h4.707a4.381,4.381,0,0,0,4.341-3.791h0l.173,3.791h0a3.483,3.483,0,0,0,3.47-3.181l.054-.618h0a4.128,4.128,0,0,0,4.114,3.8h.417l.482-6.8Z" transform="translate(-299.813 -147.17)" fill="#2f2f2f"/>
            </g>
          </g>
          <g id="Grupo_122788" data-name="Grupo 122788" transform="translate(60.678 29.782)">
            <path id="Trazado_188772" data-name="Trazado 188772" d="M313.13,190.919c-1.309,1.931-8.752,18.246-8.752,18.246s-11.225-.758-15.977-1.263c-1.5-.159-1.162-1.763-1.763-3.351s-1.361-1.277-1.361-1.277v2.116c.05,1.427-2.3,2.189-3.309,2.581-1.66.645-3.475,1.056-5.187,1.589a2.517,2.517,0,0,0-1.52.922,1.611,1.611,0,0,0,.052,1.571,4.969,4.969,0,0,0,3.841,2.357,19.122,19.122,0,0,0,5.62-.653,18.194,18.194,0,0,1,6.048-.414c2.088.278,4.814.856,6.887,1.232a70.77,70.77,0,0,0,8.017.931c1.5.063,2.582-.228,3.879-2.053s8.41-16.512,8.41-16.512c2.971-4.224,1.266-7.778-.938-8.533C315.7,187.935,314.439,188.989,313.13,190.919Z" transform="translate(-275.08 -188.296)" fill="#fff"/>
          </g>
          <path id="Trazado_188773" data-name="Trazado 188773" d="M261.773,169.6a8.4,8.4,0,0,1,1.665.406,6.455,6.455,0,0,1,3.355,2.631,3.363,3.363,0,0,1,.408,2,1.386,1.386,0,0,1-.156.515,1.871,1.871,0,0,1-.783.635,3.061,3.061,0,0,1-3.374.05,23.338,23.338,0,0,0-4.326-1.949,9.7,9.7,0,0,0-2.339-.415,2.128,2.128,0,0,0-1.252.458,1.81,1.81,0,0,1,.319-1.883,6.033,6.033,0,0,1,3.123-2.2A7.763,7.763,0,0,1,261.773,169.6Z" transform="translate(-208.366 -152.917)" fill="#fff"/>
        </g>
      </g>
    </g>
    <path id="Trazado_190739" data-name="Trazado 190739" d="M21.1,12.667a4.673,4.673,0,0,1-.721,2.36,4.35,4.35,0,0,1-1.85,1.586,6.3,6.3,0,0,1-2.72.563,5.025,5.025,0,0,1-3.973-1.644,6.786,6.786,0,0,1-1.45-4.641v-.633a7.746,7.746,0,0,1,.655-3.292,4.961,4.961,0,0,1,1.885-2.18,5.26,5.26,0,0,1,2.848-.769,5.516,5.516,0,0,1,3.744,1.226,4.844,4.844,0,0,1,1.608,3.379H18.049a2.292,2.292,0,0,0-.589-1.679,2.422,2.422,0,0,0-1.687-.51,1.843,1.843,0,0,0-1.687.861,5.536,5.536,0,0,0-.562,2.751v.905a6.126,6.126,0,0,0,.514,2.927,1.882,1.882,0,0,0,1.771.879,2.369,2.369,0,0,0,1.626-.5,2.126,2.126,0,0,0,.6-1.591Zm.949-.51A5.613,5.613,0,0,1,22.6,9.622a3.96,3.96,0,0,1,1.591-1.709,4.791,4.791,0,0,1,2.435-.6,4.373,4.373,0,0,1,3.366,1.323,5.076,5.076,0,0,1,1.23,3.6v.105a4.925,4.925,0,0,1-1.235,3.529,4.384,4.384,0,0,1-3.344,1.305,4.434,4.434,0,0,1-3.261-1.217,4.761,4.761,0,0,1-1.327-3.3Zm2.962.185a3.538,3.538,0,0,0,.413,1.934,1.376,1.376,0,0,0,1.222.615q1.582,0,1.617-2.435v-.3q0-2.558-1.635-2.558-1.485,0-1.608,2.206ZM35.249,7.49l.1,1.116a3.225,3.225,0,0,1,2.716-1.292,2.713,2.713,0,0,1,2.219.888,4.226,4.226,0,0,1,.76,2.672V17H38.07V11a1.6,1.6,0,0,0-.29-1.059A1.342,1.342,0,0,0,36.726,9.6a1.413,1.413,0,0,0-1.292.686V17H32.472V7.49ZM46.13,5.126V7.49h1.564V9.547H46.13V13.9a1.111,1.111,0,0,0,.193.747,1.037,1.037,0,0,0,.765.211,4.345,4.345,0,0,0,.738-.053v2.118a5.466,5.466,0,0,1-1.67.255,3.1,3.1,0,0,1-2.259-.721,2.954,2.954,0,0,1-.729-2.188V9.547H41.955V7.49h1.213V5.126Zm8.481,5.045-.976-.07a1.752,1.752,0,0,0-1.793.879V17H48.881V7.49h2.777l.1,1.222a2.294,2.294,0,0,1,2.083-1.4,2.888,2.888,0,0,1,.826.105Zm.378,1.986a5.613,5.613,0,0,1,.554-2.536,3.96,3.96,0,0,1,1.591-1.709,4.791,4.791,0,0,1,2.435-.6,4.373,4.373,0,0,1,3.366,1.323,5.076,5.076,0,0,1,1.23,3.6v.105a4.925,4.925,0,0,1-1.235,3.529,4.384,4.384,0,0,1-3.344,1.305,4.434,4.434,0,0,1-3.261-1.217A4.761,4.761,0,0,1,55,12.658Zm2.962.185a3.538,3.538,0,0,0,.413,1.934,1.376,1.376,0,0,0,1.222.615q1.582,0,1.617-2.435v-.3Q61.2,9.6,59.568,9.6q-1.485,0-1.608,2.206ZM68.595,17H65.624V3.5h2.971Zm6.425.176a4.889,4.889,0,0,1-3.542-1.305,4.507,4.507,0,0,1-1.354-3.4v-.246a5.84,5.84,0,0,1,.541-2.575,3.955,3.955,0,0,1,1.578-1.727A4.763,4.763,0,0,1,74.7,7.314a4.117,4.117,0,0,1,3.164,1.244,4.887,4.887,0,0,1,1.16,3.467v1.151H73.139a2.135,2.135,0,0,0,.694,1.257,2.066,2.066,0,0,0,1.389.457,2.662,2.662,0,0,0,2.2-.984l1.354,1.6A3.784,3.784,0,0,1,77.2,16.723,5.3,5.3,0,0,1,75.02,17.176ZM74.686,9.6q-1.3,0-1.547,1.723h2.988v-.229a1.467,1.467,0,0,0-.36-1.1A1.434,1.434,0,0,0,74.686,9.6ZM85.2,14.328a.684.684,0,0,0-.4-.606,6.016,6.016,0,0,0-1.5-.475,6.853,6.853,0,0,1-1.828-.646,3.062,3.062,0,0,1-1.1-.971,2.319,2.319,0,0,1-.378-1.31,2.628,2.628,0,0,1,1.081-2.158,4.453,4.453,0,0,1,2.83-.848,4.934,4.934,0,0,1,3.023.853,2.666,2.666,0,0,1,1.143,2.241H85.1q0-1.143-1.2-1.143a1.194,1.194,0,0,0-.782.259.8.8,0,0,0-.316.646.737.737,0,0,0,.387.642,3.654,3.654,0,0,0,1.235.4,10.671,10.671,0,0,1,1.49.378,2.706,2.706,0,0,1,2.145,2.646A2.491,2.491,0,0,1,86.9,16.358a5.068,5.068,0,0,1-2.993.817,5.172,5.172,0,0,1-2.18-.439,3.645,3.645,0,0,1-1.494-1.2A2.707,2.707,0,0,1,79.7,13.95h2.769a1.145,1.145,0,0,0,.439.962,1.808,1.808,0,0,0,1.081.3,1.422,1.422,0,0,0,.91-.246A.787.787,0,0,0,85.2,14.328Zm8.35-2.153a5.809,5.809,0,0,1,.976-3.56,3.211,3.211,0,0,1,2.725-1.3,2.731,2.731,0,0,1,2.145,1V3.5h2.971V17H99.7l-.149-1.02a2.8,2.8,0,0,1-2.32,1.2,3.205,3.205,0,0,1-2.689-1.3A5.993,5.993,0,0,1,93.547,12.175Zm2.962.185q0,2.531,1.477,2.531a1.458,1.458,0,0,0,1.406-.826V10.443A1.419,1.419,0,0,0,98,9.6q-1.371,0-1.485,2.215Zm12.138,4.816a4.889,4.889,0,0,1-3.542-1.305,4.507,4.507,0,0,1-1.354-3.4v-.246a5.84,5.84,0,0,1,.541-2.575,3.955,3.955,0,0,1,1.578-1.727,4.763,4.763,0,0,1,2.461-.611,4.117,4.117,0,0,1,3.164,1.244,4.887,4.887,0,0,1,1.16,3.467v1.151h-5.889a2.135,2.135,0,0,0,.694,1.257,2.066,2.066,0,0,0,1.389.457,2.662,2.662,0,0,0,2.2-.984l1.354,1.6a3.784,3.784,0,0,1-1.569,1.217A5.3,5.3,0,0,1,108.646,17.176ZM108.313,9.6q-1.3,0-1.547,1.723h2.988v-.229a1.467,1.467,0,0,0-.36-1.1A1.434,1.434,0,0,0,108.313,9.6Zm14.036,5.291a1.317,1.317,0,0,0,.967-.338,1.241,1.241,0,0,0,.334-.945h2.777a3.288,3.288,0,0,1-1.121,2.566,4.168,4.168,0,0,1-2.887,1,4.22,4.22,0,0,1-3.27-1.3,5.125,5.125,0,0,1-1.2-3.6v-.123a5.792,5.792,0,0,1,.532-2.544,3.872,3.872,0,0,1,1.534-1.7,4.573,4.573,0,0,1,2.373-.593,4.116,4.116,0,0,1,2.944,1.028,3.647,3.647,0,0,1,1.09,2.786h-2.777a1.626,1.626,0,0,0-.36-1.134,1.244,1.244,0,0,0-.967-.4q-1.151,0-1.345,1.468a10.357,10.357,0,0,0-.062,1.283,4.068,4.068,0,0,0,.343,1.986A1.187,1.187,0,0,0,122.349,14.891Zm4.957-2.733a5.613,5.613,0,0,1,.554-2.536,3.96,3.96,0,0,1,1.591-1.709,4.791,4.791,0,0,1,2.435-.6,4.373,4.373,0,0,1,3.366,1.323,5.076,5.076,0,0,1,1.23,3.6v.105a4.925,4.925,0,0,1-1.235,3.529,4.384,4.384,0,0,1-3.344,1.305,4.434,4.434,0,0,1-3.261-1.217,4.761,4.761,0,0,1-1.327-3.3Zm2.962.185a3.538,3.538,0,0,0,.413,1.934,1.376,1.376,0,0,0,1.222.615q1.582,0,1.617-2.435v-.3q0-2.558-1.635-2.558-1.485,0-1.608,2.206ZM140.507,7.49l.1,1.116a3.225,3.225,0,0,1,2.716-1.292,2.713,2.713,0,0,1,2.219.888,4.226,4.226,0,0,1,.76,2.672V17h-2.971V11a1.6,1.6,0,0,0-.29-1.059,1.342,1.342,0,0,0-1.055-.338,1.413,1.413,0,0,0-1.292.686V17h-2.962V7.49ZM148.628,17V9.547h-1.38V7.49h1.38V7.174a3.631,3.631,0,0,1,1.248-2.909,4.987,4.987,0,0,1,3.243-.949,11.509,11.509,0,0,1,3.094.51l-.4,2.338-.492-.132a7.832,7.832,0,0,0-2.021-.255q-1.7,0-1.7,1.547V7.49h1.863V9.547H151.6V17Zm8.947,0H154.6V7.49h2.979Zm1.459-4.825a6.421,6.421,0,0,1,.475-2.549,3.821,3.821,0,0,1,1.362-1.709,3.591,3.591,0,0,1,2.065-.6,2.855,2.855,0,0,1,2.32,1l.105-.826h2.689V16.64a4.009,4.009,0,0,1-.584,2.184,3.75,3.75,0,0,1-1.692,1.424,6.219,6.219,0,0,1-2.566.5,5.365,5.365,0,0,1-2.026-.4,3.657,3.657,0,0,1-1.5-1.028l1.239-1.74a2.716,2.716,0,0,0,2.18.976,1.764,1.764,0,0,0,1.969-2.021v-.3a2.781,2.781,0,0,1-2.153.94,3.437,3.437,0,0,1-2.812-1.332,5.517,5.517,0,0,1-1.072-3.564Zm2.971.185a3.383,3.383,0,0,0,.439,1.85,1.387,1.387,0,0,0,1.23.681,1.573,1.573,0,0,0,1.4-.642v-4a1.534,1.534,0,0,0-1.38-.65,1.4,1.4,0,0,0-1.239.708A3.858,3.858,0,0,0,162,12.359ZM175.4,15.972a3.054,3.054,0,0,1-2.54,1.2,3,3,0,0,1-2.369-.91,3.826,3.826,0,0,1-.8-2.615V7.49h2.962v6.179a1.065,1.065,0,0,0,1.187,1.222,1.548,1.548,0,0,0,1.45-.729V7.49h2.979V17h-2.777Zm10.239-5.8-.976-.07a1.752,1.752,0,0,0-1.793.879V17h-2.962V7.49h2.777l.1,1.222a2.294,2.294,0,0,1,2.083-1.4,2.888,2.888,0,0,1,.826.105ZM191.8,17a3.344,3.344,0,0,1-.281-.853,2.754,2.754,0,0,1-2.285,1.028,3.374,3.374,0,0,1-2.285-.813,2.588,2.588,0,0,1-.94-2.043,2.66,2.66,0,0,1,1.143-2.338,5.821,5.821,0,0,1,3.322-.791h.914v-.5q0-1.316-1.134-1.316a.927.927,0,0,0-1.055,1.042h-2.962a2.655,2.655,0,0,1,1.173-2.239,4.931,4.931,0,0,1,2.993-.86,4.323,4.323,0,0,1,2.874.888,3.086,3.086,0,0,1,1.081,2.435v4.21a4.311,4.311,0,0,0,.4,2V17Zm-1.854-1.934a1.652,1.652,0,0,0,.918-.237,1.487,1.487,0,0,0,.523-.536V12.772h-.861q-1.547,0-1.547,1.389a.848.848,0,0,0,.272.655A.986.986,0,0,0,189.945,15.066Zm10.072-.176a1.317,1.317,0,0,0,.967-.338,1.241,1.241,0,0,0,.334-.945H204.1a3.288,3.288,0,0,1-1.121,2.566,4.168,4.168,0,0,1-2.887,1,4.22,4.22,0,0,1-3.27-1.3,5.125,5.125,0,0,1-1.2-3.6v-.123a5.792,5.792,0,0,1,.532-2.544,3.872,3.872,0,0,1,1.534-1.7,4.573,4.573,0,0,1,2.373-.593,4.116,4.116,0,0,1,2.944,1.028,3.647,3.647,0,0,1,1.09,2.786h-2.777a1.626,1.626,0,0,0-.36-1.134,1.244,1.244,0,0,0-.967-.4q-1.151,0-1.345,1.468a10.357,10.357,0,0,0-.062,1.283,4.068,4.068,0,0,0,.343,1.986A1.187,1.187,0,0,0,200.018,14.891ZM208.473,17H205.5V7.49h2.971ZM205.326,5.029a1.334,1.334,0,0,1,.457-1.043,1.934,1.934,0,0,1,2.373,0,1.334,1.334,0,0,1,.457,1.043,1.334,1.334,0,0,1-.457,1.043,1.934,1.934,0,0,1-2.373,0A1.334,1.334,0,0,1,205.326,5.029Zm4.6,7.128a5.613,5.613,0,0,1,.554-2.536,3.96,3.96,0,0,1,1.591-1.709,4.791,4.791,0,0,1,2.435-.6,4.373,4.373,0,0,1,3.366,1.323,5.076,5.076,0,0,1,1.23,3.6v.105a4.925,4.925,0,0,1-1.235,3.529,4.384,4.384,0,0,1-3.344,1.305,4.434,4.434,0,0,1-3.261-1.217,4.761,4.761,0,0,1-1.327-3.3Zm2.962.185a3.538,3.538,0,0,0,.413,1.934,1.376,1.376,0,0,0,1.222.615q1.582,0,1.617-2.435v-.3q0-2.558-1.635-2.558-1.485,0-1.608,2.206ZM214.906,3.5h3.129l-2.443,2.76-2.417,0Zm8.218,3.99.1,1.116a3.225,3.225,0,0,1,2.716-1.292,2.713,2.713,0,0,1,2.219.888,4.226,4.226,0,0,1,.76,2.672V17h-2.971V11a1.6,1.6,0,0,0-.29-1.059A1.342,1.342,0,0,0,224.6,9.6a1.413,1.413,0,0,0-1.292.686V17h-2.962V7.49Z" transform="translate(1029.989 5185.872)" fill="#12263f"/>
  </g>
</svg>
