<svg xmlns="http://www.w3.org/2000/svg" width="116" height="117" viewBox="0 0 116 117">
  <g id="Grupo_124592" data-name="Grupo 124592" transform="translate(-875 -4302)">
    <g id="Elipse_6896" data-name="Elipse 6896" transform="translate(875 4302)" fill="#fff" stroke="#242ca3" stroke-width="4">
      <ellipse cx="58" cy="58.5" rx="58" ry="58.5" stroke="none"/>
      <ellipse cx="58" cy="58.5" rx="56" ry="56.5" fill="none"/>
    </g>
    <g id="Grupo_124535" data-name="Grupo 124535" transform="translate(7403.386 4743.396)">
      <path id="Trazado_190170" data-name="Trazado 190170" d="M-6493.371-101.1a11.106,11.106,0,0,1,3.531,1.595,8.642,8.642,0,0,1,3.315,5.311,3.437,3.437,0,0,1,.2,2.718,8.7,8.7,0,0,1-5.041,6.514,11.6,11.6,0,0,1-2.113.511h-2.679a7.973,7.973,0,0,1-6.879-6.33,8.448,8.448,0,0,1,6.884-10.437A4.356,4.356,0,0,1-6493.371-101.1Z" transform="translate(-4.878 -259.115)" fill="#079dda"/>
      <path id="Trazado_190171" data-name="Trazado 190171" d="M-6348.232-93.19a8.453,8.453,0,0,1,7.933-6.945,8.411,8.411,0,0,1,8.621,7.507,8.45,8.45,0,0,1-6.572,9c-.165.039-.382-.045-.482.176h-2.679a8.019,8.019,0,0,1-5.535-3.439,7.7,7.7,0,0,1-1.466-3.583A3.656,3.656,0,0,1-6348.232-93.19Z" transform="translate(-129.058 -260.114)" fill="#f99d29"/>
      <path id="Trazado_190172" data-name="Trazado 190172" d="M-6185.452-84.7a7.976,7.976,0,0,1-6.391-5.076,7.859,7.859,0,0,1,1.034-8.088,8.27,8.27,0,0,1,5.264-3.28,2.737,2.737,0,0,1,2.79,0,8.368,8.368,0,0,1,6.936,8.848,8.361,8.361,0,0,1-7.058,7.6c-.258.137-.569-.054-.819.131h-.945C-6184.888-84.751-6185.2-84.553-6185.452-84.7Z" transform="translate(-254.315 -258.999)" fill="#dc091d"/>
      <path id="Trazado_190173" data-name="Trazado 190173" d="M-6489.858-234.124c-.032.549-.032,1.1-.1,1.645a2.688,2.688,0,0,1-2.757,2.484c-1.837.029-3.674.025-5.511.035a7.511,7.511,0,0,1-2.752.188c-1.828.01-3.657.017-5.485,0a2.711,2.711,0,0,1-2.923-2.274v-6.932c.653-1.628,1.876-2.168,3.591-2.138,4.109.072,8.22.023,12.33.024,2.6,0,3.547.938,3.566,3.536,0,.208.026.416.04.624A3.479,3.479,0,0,1-6489.858-234.124Z" transform="translate(0 -146.965)" fill="#dc091d"/>
      <path id="Trazado_190174" data-name="Trazado 190174" d="M-6156.718-16.4a.927.927,0,0,1,.811.136h-.788A.334.334,0,0,0-6156.718-16.4Z" transform="translate(-283.049 -327.296)" fill="#eb6c58"/>
      <path id="Trazado_190175" data-name="Trazado 190175" d="M-6147.821-16.264A.916.916,0,0,1-6147-16.4c-.009.044-.02.088-.03.131Z" transform="translate(-290.189 -327.298)" fill="#e96250"/>
      <path id="Trazado_190176" data-name="Trazado 190176" d="M-6362.963-410.307l-9.209-.029c-2.259-.007-3.274-1.012-3.277-3.255q-.006-3.739,0-7.479c.006-2.087,1.073-3.158,3.146-3.158q10.748,0,21.493,0c2.073,0,3.14,1.072,3.146,3.158q.01,3.818,0,7.637a2.779,2.779,0,0,1-3.118,3.1q-4.685.021-9.367.031A4.6,4.6,0,0,1-6362.963-410.307Z" transform="translate(-107.494 0)" fill="#0060aa"/>
      <path id="Trazado_190177" data-name="Trazado 190177" d="M-6336.155-235.483a18.1,18.1,0,0,1-.128,1.959,2.7,2.7,0,0,1-2.643,2.168q-7.011.025-14.022,0a2.756,2.756,0,0,1-2.736-2.789c-.026-.445-.024-.892-.035-1.337a3.721,3.721,0,0,1,0-2.8c.01-.471.006-.943.033-1.413a2.755,2.755,0,0,1,2.786-2.716c1.571-.028,3.144,0,4.716-.014a1.389,1.389,0,0,0,.842-.1,5.378,5.378,0,0,1,2.764-.192,38.8,38.8,0,0,0,4.86.1c2.692.026,3.785,1.11,3.784,3.823,0,.183-.009.366-.009.55C-6336.01-237.328-6335.7-236.376-6336.155-235.483Z" transform="translate(-123.114 -145.609)" fill="#079dda"/>
      <path id="Trazado_190178" data-name="Trazado 190178" d="M-6192.358-230.738c-1.669-.01-3.338-.025-5.008-.03-2.258-.007-3.307-1.042-3.328-3.287,0-.285-.029-.571-.044-.856-.428-.586-.183-1.26-.239-1.894a4.671,4.671,0,0,1,.009-.859,7.509,7.509,0,0,1,.167-2.112,2.853,2.853,0,0,1,2.84-2.264c1.863-.034,3.728.05,5.591-.053a22.648,22.648,0,0,1,2.821.164c1.7.019,3.406.041,5.109.055,2.192.017,3.232,1.051,3.236,3.23,0,1.626.009,3.253,0,4.88a2.779,2.779,0,0,1-2.995,2.993c-1.783.016-3.567.022-5.35.033A4.266,4.266,0,0,1-6192.358-230.738Z" transform="translate(-247.511 -146.183)" fill="#4ca039"/>
      <path id="Trazado_190179" data-name="Trazado 190179" d="M-6373.333-315.351c-2.385-.948-4.851-1.658-7.276-2.488-2.4-.822-4.819-1.6-7.225-2.414-.208-.07-.477-.057-.651-.359,2.115-.708,4.212-1.4,6.305-2.111q4.386-1.48,8.767-2.972a2.083,2.083,0,0,1,2.793,0c3.753,1.336,7.528,2.608,11.34,3.771a16.756,16.756,0,0,1,3.31.945c.208.073.51.117.5.412-.011.27-.279.361-.5.439-1.135.4-2.285.76-3.42,1.161-3.74,1.239-7.489,2.452-11.2,3.768C-6371.525-314.924-6372.461-314.564-6373.333-315.351Z" transform="translate(-97.035 -78.652)" fill="#f99d29"/>
      <path id="Trazado_190180" data-name="Trazado 190180" d="M-6240.967-301.679l3.916-1.395-3.831-1.383q8.84-.008,17.681-.012c1.051,0,1.564.549,1.567,1.634q.014,5.422,0,10.843a10.148,10.148,0,0,1-2.8-.023c-.377-.321-.286-.767-.288-1.172-.012-2.357,0-4.715-.007-7.072,0-1.1-.027-1.128-1.159-1.129-4.61,0-9.221,0-13.831-.007C-6240.144-301.4-6240.617-301.289-6240.967-301.679Z" transform="translate(-215.431 -96.119)" fill="#1e3949"/>
      <path id="Trazado_190181" data-name="Trazado 190181" d="M-6157.236-184.577h2.808q0,8.388-.008,16.776a9.069,9.069,0,0,0-2.79,0Q-6157.232-176.188-6157.236-184.577Z" transform="translate(-282.633 -192.344)" fill="#1e3949"/>
      <path id="Trazado_190182" data-name="Trazado 190182" d="M-6399.656-219.916q0,1.4,0,2.8l-11.025,0a18.3,18.3,0,0,1,0-2.81Z" transform="translate(-79.174 -163.978)" fill="#1e3949"/>
      <path id="Trazado_190183" data-name="Trazado 190183" d="M-6309.379-347.74a3.565,3.565,0,0,0-2.793,0q-.005-2.98-.01-5.96h2.813Q-6309.374-350.72-6309.379-347.74Z" transform="translate(-158.275 -56.607)" fill="#1e3949"/>
      <path id="Trazado_190184" data-name="Trazado 190184" d="M-6312.142-271.106a3.865,3.865,0,0,0,2.652.016c.323.154.316.465.322.743q.043,2.194,0,4.389a.88.88,0,0,1-.255.715,16.822,16.822,0,0,1-2.806,0C-6312.182-267.2-6312.339-269.154-6312.142-271.106Z" transform="translate(-158.225 -122.896)" fill="#1f3949"/>
      <path id="Trazado_190185" data-name="Trazado 190185" d="M-6467.1-167.81q-.009-8.391-.019-16.782h2.817q-.012,8.357-.022,16.713A13,13,0,0,0-6467.1-167.81Z" transform="translate(-33.923 -192.331)" fill="#1e3949"/>
      <path id="Trazado_190186" data-name="Trazado 190186" d="M-6404.176-62.149h-14.113a8.755,8.755,0,0,0,0-2.793h14.113A9.444,9.444,0,0,0-6404.176-62.149Z" transform="translate(-73.114 -288.363)" fill="#1e3949"/>
      <path id="Trazado_190187" data-name="Trazado 190187" d="M-6244.5-220.946q0,1.4,0,2.8l-11.02,0q0-1.4,0-2.8a1.4,1.4,0,0,1,1.04-.252q4.471-.01,8.941,0A1.453,1.453,0,0,1-6244.5-220.946Z" transform="translate(-203.751 -162.949)" fill="#1e3949"/>
    </g>
  </g>
</svg>
