<svg xmlns="http://www.w3.org/2000/svg" width="116" height="117" viewBox="0 0 116 117">
  <g id="Grupo_124532" data-name="Grupo 124532" transform="translate(-610 -3970)">
    <g id="Elipse_6895" data-name="Elipse 6895" transform="translate(610 3970)" fill="#fff" stroke="#242ca3" stroke-width="4">
      <ellipse cx="58" cy="58.5" rx="58" ry="58.5" stroke="none"/>
      <ellipse cx="58" cy="58.5" rx="56" ry="56.5" fill="none"/>
    </g>
    <g id="Grupo_124531" data-name="Grupo 124531" transform="translate(6696.775 4267.354)">
      <path id="Trazado_190149" data-name="Trazado 190149" d="M-6006.13-260.7c0-1.2.016-2.391-.008-3.586-.008-.408.12-.541.53-.533.88.018,1.974.3,2.583-.113s.683-1.541,1.018-2.346c.249-.6.836-1.241.727-1.747-.123-.568-.858-1-1.329-1.495a6.1,6.1,0,0,0-.485-.481c-.274-.228-.293-.4-.015-.674q2.585-2.546,5.13-5.133c.314-.32.482-.232.744.035.615.63,1.179,1.58,1.911,1.745.663.149,1.537-.539,2.289-.916.624-.313,1.57-.192,1.866-.824a4.146,4.146,0,0,0,.057-2.021c-.081-.822.126-1.115,1.032-1.081,2.16.081,4.326.045,6.488.013.561-.008.733.149.707.708-.04.822-.272,1.826.1,2.419.339.534,1.375.649,2.122.9.718.238,1.368,1.051,2.049.816.656-.226,1.152-.981,1.655-1.559.429-.492.7-.51,1.173-.014,1.555,1.624,3.156,3.2,4.764,4.774.354.346.449.554.03.931-.633.568-1.536,1.134-1.7,1.842-.144.639.533,1.48.894,2.209.322.651.2,1.634.849,1.946a4.416,4.416,0,0,0,2.1.061c.738-.058,1.019.119.994.944-.067,2.189-.042,4.382-.01,6.573.008.556-.142.736-.706.708a5.085,5.085,0,0,0-2.432.094c-.615.331-.592,1.4-.88,2.132-.276.7-1.052,1.351-.818,2.046.213.63.938,1.119,1.5,1.589s.557.78.006,1.3c-1.611,1.527-3.166,3.112-4.715,4.7-.354.362-.557.43-.926.021-.571-.631-1.137-1.534-1.845-1.69-.642-.142-1.481.536-2.211.9-.651.322-1.633.205-1.946.848a4.081,4.081,0,0,0-.058,2.1c.1.868-.243,1.015-1.032.994-2.162-.057-4.326-.038-6.488-.007-.554.008-.739-.137-.711-.7a5.083,5.083,0,0,0-.093-2.432c-.33-.617-1.4-.589-2.13-.883-.7-.281-1.366-1.05-2.045-.816-.655.226-1.157.977-1.655,1.558-.437.512-.711.491-1.176.007-1.558-1.621-3.155-3.2-4.765-4.773-.363-.354-.428-.556-.021-.925.63-.571,1.534-1.138,1.69-1.846.141-.641-.535-1.481-.9-2.209-.325-.649-.2-1.634-.849-1.946a4.425,4.425,0,0,0-2.1-.061c-.739.059-1.057-.118-.991-.945C-6006.067-258.586-6006.13-259.644-6006.13-260.7Z" transform="translate(-41.744)" fill="#405161"/>
      <path id="Trazado_190150" data-name="Trazado 190150" d="M-6051.457-34.58a5.435,5.435,0,0,1,4.946,5.556c.011,1.992-.016,3.984.014,5.976.008.521-.1.9-.63,1.034a2.611,2.611,0,0,0-2.123,3.443,3.418,3.418,0,0,1-.018.765,14.677,14.677,0,0,1-3.672,4.094,19.693,19.693,0,0,1-3.456,2.332c-.3.163-.607.467-1.016.233-.01-2.987-.04-5.975-.015-8.962,0-.624-.125-1.054-.753-1.22-1.709-.45-2.237-1.53-2.031-3.26a39.6,39.6,0,0,0,.038-4.435,5.436,5.436,0,0,1,4.946-5.556,6.881,6.881,0,0,0,1.012-.254,1.062,1.062,0,0,1,.271,0,7.789,7.789,0,0,0,1.363.051A10.2,10.2,0,0,1-6051.457-34.58Z" transform="translate(0 -189.088)" fill="#588ac3"/>
      <path id="Trazado_190151" data-name="Trazado 190151" d="M-5943.7-34.58a5.435,5.435,0,0,1,4.946,5.556c.011,1.992-.016,3.984.015,5.976.007.521-.1.9-.631,1.034a2.611,2.611,0,0,0-2.122,3.443,3.418,3.418,0,0,1-.018.765,14.684,14.684,0,0,1-3.672,4.094,19.7,19.7,0,0,1-3.456,2.332c-.3.163-.607.467-1.016.233-.01-2.987-.039-5.975-.015-8.962,0-.624-.125-1.054-.754-1.22-1.709-.45-2.236-1.53-2.031-3.26a39.721,39.721,0,0,0,.038-4.435,5.435,5.435,0,0,1,4.946-5.556,6.9,6.9,0,0,0,1.012-.254,1.055,1.055,0,0,1,.27,0,7.8,7.8,0,0,0,1.363.051A10.244,10.244,0,0,1-5943.7-34.58Z" transform="translate(-83.154 -189.088)" fill="#588ac3"/>
      <path id="Trazado_190152" data-name="Trazado 190152" d="M-5841.9-11.147c-.01-2.987-.04-5.975-.016-8.962.005-.624-.124-1.054-.753-1.22-1.708-.45-2.237-1.53-2.031-3.26a39.722,39.722,0,0,0,.038-4.435,5.436,5.436,0,0,1,4.946-5.556,6.881,6.881,0,0,0,1.012-.254,1.058,1.058,0,0,1,.27,0,7.8,7.8,0,0,0,1.363.051,10.244,10.244,0,0,1,1.124.2A5.436,5.436,0,0,1-5831-29.024c.011,1.992-.016,3.984.014,5.976.008.521-.1.9-.63,1.034a2.612,2.612,0,0,0-2.123,3.443,3.361,3.361,0,0,1-.017.765,14.677,14.677,0,0,1-3.672,4.094,19.7,19.7,0,0,1-3.456,2.332C-5841.192-11.217-5841.5-10.913-5841.9-11.147Z" transform="translate(-166.309 -189.088)" fill="#588ac3"/>
      <path id="Trazado_190153" data-name="Trazado 190153" d="M-6044.516-61.644l-.187,0c-.235.169-.377,0-.527-.146a4.1,4.1,0,0,1-2.7-4.026,4.112,4.112,0,0,1,2.717-3.674,4.113,4.113,0,0,1,5.189,2.351,4.1,4.1,0,0,1-2.415,5.349c-.207.274-.506.222-.79.225A4.236,4.236,0,0,1-6044.516-61.644Z" transform="translate(-9.505 -162.169)" fill="#598ac3"/>
      <path id="Trazado_190154" data-name="Trazado 190154" d="M-5936.762-61.644l-.187,0c-.236.169-.377,0-.527-.146a4.1,4.1,0,0,1-2.7-4.026,4.111,4.111,0,0,1,2.716-3.674,4.113,4.113,0,0,1,5.19,2.351,4.1,4.1,0,0,1-2.415,5.35c-.207.274-.506.222-.79.225A4.233,4.233,0,0,1-5936.762-61.644Z" transform="translate(-92.66 -162.169)" fill="#598ac3"/>
      <path id="Trazado_190155" data-name="Trazado 190155" d="M-5829.009-61.644l-.187,0c-.236.169-.377,0-.527-.146a4.1,4.1,0,0,1-2.7-4.026,4.111,4.111,0,0,1,2.716-3.674,4.113,4.113,0,0,1,5.19,2.351,4.1,4.1,0,0,1-2.415,5.35c-.207.274-.506.222-.79.225A4.233,4.233,0,0,1-5829.009-61.644Z" transform="translate(-175.815 -162.169)" fill="#598ac3"/>
      <path id="Trazado_190156" data-name="Trazado 190156" d="M-6047.949,46.447A19.786,19.786,0,0,0-6041,41.191a9.872,9.872,0,0,1,1.2-1.4c.008,2.817,0,5.633.036,8.45.006.517-.2.605-.652.6q-3.458-.026-6.915,0c-.453,0-.691-.083-.65-.6C-6047.942,47.643-6047.959,47.044-6047.949,46.447Z" transform="translate(-9.461 -246.682)" fill="#4e76a6"/>
      <path id="Trazado_190157" data-name="Trazado 190157" d="M-5940.2,46.447a19.794,19.794,0,0,0,6.947-5.256,9.853,9.853,0,0,1,1.2-1.4c.008,2.817,0,5.633.036,8.45.006.517-.2.605-.652.6q-3.458-.026-6.915,0c-.453,0-.691-.083-.65-.6C-5940.189,47.643-5940.207,47.044-5940.2,46.447Z" transform="translate(-92.615 -246.682)" fill="#4e76a6"/>
      <path id="Trazado_190158" data-name="Trazado 190158" d="M-5832.444,46.447a19.786,19.786,0,0,0,6.947-5.256,9.917,9.917,0,0,1,1.2-1.4c.008,2.817,0,5.633.036,8.45.006.517-.2.605-.652.6q-3.458-.026-6.915,0c-.453,0-.691-.083-.65-.6C-5832.437,47.643-5832.454,47.044-5832.444,46.447Z" transform="translate(-175.769 -246.682)" fill="#4e76a6"/>
      <path id="Trazado_190159" data-name="Trazado 190159" d="M-6027.179-34.8l.7-.153.49.288-1.19.014c-.063-.033-.084-.066-.063-.1S-6027.2-34.8-6027.179-34.8Z" transform="translate(-25.468 -189.007)" fill="#c3d1eb"/>
      <path id="Trazado_190160" data-name="Trazado 190160" d="M-5919.426-34.8l.7-.153.49.288-1.19.014c-.063-.033-.084-.066-.063-.1S-5919.447-34.8-5919.426-34.8Z" transform="translate(-108.622 -189.007)" fill="#c3d1eb"/>
      <path id="Trazado_190161" data-name="Trazado 190161" d="M-5811.672-34.8l.7-.153.489.288-1.189.014c-.063-.033-.084-.066-.063-.1S-5811.693-34.8-5811.672-34.8Z" transform="translate(-191.778 -189.007)" fill="#c3d1eb"/>
      <path id="Trazado_190162" data-name="Trazado 190162" d="M-6037.746-34.947l.527.146c-.3.309-.672.136-1.018.142Z" transform="translate(-16.989 -189.008)" fill="#c4d1ea"/>
      <path id="Trazado_190163" data-name="Trazado 190163" d="M-5929.993-34.947l.527.146c-.3.309-.672.136-1.018.142Z" transform="translate(-100.144 -189.008)" fill="#c4d1ea"/>
      <path id="Trazado_190164" data-name="Trazado 190164" d="M-5822.24-34.947l.527.146c-.3.309-.673.136-1.018.142Z" transform="translate(-183.298 -189.008)" fill="#c4d1ea"/>
      <path id="Trazado_190165" data-name="Trazado 190165" d="M-5959.143-243.823a10.937,10.937,0,0,1,10.893,11.011,10.941,10.941,0,0,1-10.971,10.85,10.941,10.941,0,0,1-10.893-11.014A10.935,10.935,0,0,1-5959.143-243.823Z" transform="translate(-69.561 -27.815)" fill="#c5c5c5"/>
      <path id="Trazado_190166" data-name="Trazado 190166" d="M-6031.585-34.312a.543.543,0,0,0,0,.149c-.457-.057-.949.182-1.374-.159Z" transform="translate(-21.062 -189.49)" fill="#89a7d5"/>
      <path id="Trazado_190167" data-name="Trazado 190167" d="M-5923.832-34.312a.543.543,0,0,0,0,.149c-.458-.057-.949.182-1.374-.159Z" transform="translate(-104.217 -189.49)" fill="#89a7d5"/>
      <path id="Trazado_190168" data-name="Trazado 190168" d="M-5816.079-34.312a.476.476,0,0,0,0,.149c-.458-.057-.95.182-1.375-.159Z" transform="translate(-187.371 -189.49)" fill="#89a7d5"/>
      <path id="Trazado_190169" data-name="Trazado 190169" d="M-5944.662-206.8a1.541,1.541,0,0,1-1.144-.495c-1.186-1.187-2.361-2.385-3.567-3.551-.355-.343-.322-.544.008-.888,1.47-1.532,1.444-1.528,2.94-.075.534.519.993,1.5,1.652,1.4.554-.088.975-1.024,1.449-1.59,1.333-1.59,2.677-3.172,3.986-4.782.308-.378.509-.423.86-.075.481.478,1.325.85,1.427,1.38.105.549-.715,1.06-1.143,1.577-1.758,2.124-3.533,4.234-5.286,6.362A1.643,1.643,0,0,1-5944.662-206.8Z" transform="translate(-85.372 -48.44)" fill="#405161"/>
    </g>
  </g>
</svg>
