<svg xmlns="http://www.w3.org/2000/svg" width="116" height="117" viewBox="0 0 116 117">
  <g id="Grupo_124520" data-name="Grupo 124520" transform="translate(-610 -2133)">
    <g id="Elipse_6005" data-name="Elipse 6005" transform="translate(610 2133)" fill="#fff" stroke="#242ca3" stroke-width="4">
      <ellipse cx="58" cy="58.5" rx="58" ry="58.5" stroke="none"/>
      <ellipse cx="58" cy="58.5" rx="56" ry="56.5" fill="none"/>
    </g>
    <g id="Grupo_124519" data-name="Grupo 124519" transform="translate(7632.925 2648.969)">
      <path id="Trazado_190049" data-name="Trazado 190049" d="M-6878.017-235.431h-21.715c-.271-.368-.161-.8-.2-1.2.758-.918,1.578-1.784,2.361-2.681,2.131-2.44,4.3-4.846,6.417-7.3.355-.412.756-.78,1.086-1.217a1.706,1.706,0,0,0,.291-1.828,1.508,1.508,0,0,0-2.433-.483c-.982.723-1.844,1.593-2.762,2.4-2.49,2.179-4.945,4.4-7.456,6.552a5.264,5.264,0,0,1-1.03.9,12.923,12.923,0,0,0-2.2.052,4.941,4.941,0,0,0-3.844,3.829,2.239,2.239,0,0,1-.306.985h-15.566a12.616,12.616,0,0,1,.138-3.3,29.376,29.376,0,0,1,6.006-14.286,29.618,29.618,0,0,1,8.9-7.658,14.078,14.078,0,0,1,2.58-1.256c.132-.042.129-.154.2-.228a2.58,2.58,0,0,1,1.326-.143c.45-.014.9-.011,1.35-.067a.953.953,0,0,1,.214.016,6.808,6.808,0,0,0,1.354.053,25.949,25.949,0,0,1,11.759,3.39,23.578,23.578,0,0,1,5.516,4.156,25.7,25.7,0,0,1,5.64,7.789,25.187,25.187,0,0,1,2.542,10.721A1.08,1.08,0,0,1-6878.017-235.431Z" transform="translate(-60.238 -188.897)" fill="#5fc1e8"/>
      <path id="Trazado_190050" data-name="Trazado 190050" d="M-6916.1-478.733a2.843,2.843,0,0,1-1.105,1.148,1.832,1.832,0,0,1-2.569-1.327,20.224,20.224,0,0,1-.084-3.2c-.015-.5.019-1-.013-1.5-.037-.568-.455-.748-.9-.4a5.652,5.652,0,0,0-.518.5q-8.406,8.374-16.809,16.751a3.887,3.887,0,0,1-3.782,1.238,4.288,4.288,0,0,1-2.084-1.281q-4.885-4.868-9.772-9.734c-.854-.85-1.292-.852-2.137-.011q-7.295,7.266-14.59,14.531-4.519,4.493-9.055,8.968a1.779,1.779,0,0,1,.071-2.1,7.332,7.332,0,0,1,.545-.564q10.15-10.151,20.313-20.288c1.516-1.5,3.062-2.976,4.583-4.474a1.453,1.453,0,0,1,.76-.482,3.7,3.7,0,0,1,1.3.953q4.948,4.913,9.9,9.827a1.629,1.629,0,0,0,1.1.618,2.276,2.276,0,0,1,.582.413,1.143,1.143,0,0,0,1.862-.019c3.423-3.171,6.591-6.6,9.97-9.816,2.259-2.149,4.432-4.382,6.661-6.559.094-.091.192-.179.276-.279.186-.224.539-.4.376-.758-.144-.319-.486-.217-.76-.239a9.485,9.485,0,0,1-1.3-.025c.062-.6-.285-.765-.795-.754-1.216.025-2.433.058-3.649.077a1.033,1.033,0,0,1-.7-.095,5.984,5.984,0,0,1,2.538-.146c.208.1.176-.08.16.005a1.674,1.674,0,0,1-1.12-1.626c-.081-.762.564-1.855,1.386-1.842a.453.453,0,0,0,.188-.045c2.431-.006,4.862-.019,7.294-.017a1.993,1.993,0,0,1,1.873,1.434Z" transform="translate(-15.352 -0.016)" fill="#e45a6f"/>
      <path id="Trazado_190051" data-name="Trazado 190051" d="M-6692.64-221.237a25.76,25.76,0,0,0-4.864-15.427,32.492,32.492,0,0,0-3.252-3.8c1.47-1.513,2.978-2.989,4.469-4.481a.568.568,0,0,1,.388-.217,32.549,32.549,0,0,1,5.844,7.626,33.843,33.843,0,0,1,3.921,11.593,7.121,7.121,0,0,0,.3,1.828v.523a1,1,0,0,0,0,.785v.785a.914.914,0,0,1-.785.785Z" transform="translate(-245.614 -203.091)" fill="#8dc4a2"/>
      <path id="Trazado_190052" data-name="Trazado 190052" d="M-6937.02-261c.049.26-.192.238-.316.293a29.591,29.591,0,0,0-8.019,5.352,28.805,28.805,0,0,0-6.467,8.715,28.794,28.794,0,0,0-2.625,8.535c-.173,1.224-.111,2.463-.361,3.673h-6.148a.632.632,0,0,1-.151-.484,27.066,27.066,0,0,1,6-16.387,24.189,24.189,0,0,1,2.169-2.437,34.139,34.139,0,0,1,4.307-3.373,27.073,27.073,0,0,1,10.868-4.009A.827.827,0,0,1-6937.02-261Z" transform="translate(-30.801 -189.897)" fill="#2eb6e7"/>
      <path id="Trazado_190053" data-name="Trazado 190053" d="M-6997.774-221.234a1.491,1.491,0,0,1-.661-1.443,33.124,33.124,0,0,1,4.688-15.695,31.011,31.011,0,0,1,5.369-6.787.688.688,0,0,1,.48.3,23.722,23.722,0,0,1,2.348,2.478.4.4,0,0,1-.043.193,38.16,38.16,0,0,0-4.092,6.592,34.178,34.178,0,0,0-3.095,10.946c-.121,1.139-.129,2.277-.155,3.417Z" transform="translate(0 -203.093)" fill="#e23e56"/>
      <path id="Trazado_190054" data-name="Trazado 190054" d="M-6968.109-207.779a5.062,5.062,0,0,1-.091-2.742,32.161,32.161,0,0,1,.987-5.68,34.809,34.809,0,0,1,6.146-12.405,1.575,1.575,0,0,1,.3-.24c.316-.044.475.2.636.388.437.5,1.063.841,1.318,1.5a29.566,29.566,0,0,0-4.871,6.5,27.078,27.078,0,0,0-3.213,12.285c0,.13-.024.259-.037.389Z" transform="translate(-24.825 -216.549)" fill="#e45a6f"/>
      <path id="Trazado_190055" data-name="Trazado 190055" d="M-6810.732-132.521a3.381,3.381,0,0,1,.105,1.3h-6.672a.476.476,0,0,1-.137-.355,5.024,5.024,0,0,1,3.5-4.488,3.793,3.793,0,0,1,1.679.831,5.514,5.514,0,0,1,1.447,1.978C-6810.708-133.019-6810.562-132.787-6810.732-132.521Z" transform="translate(-149.343 -293.106)" fill="#d0e6f7"/>
      <path id="Trazado_190056" data-name="Trazado 190056" d="M-6829.273-137.135a5,5,0,0,0-3.417,4.718h-3.4a5.189,5.189,0,0,1,5.266-5.094c.365.011.729.084,1.094.128C-6829.539-137.375-6829.307-137.439-6829.273-137.135Z" transform="translate(-133.95 -291.911)" fill="#b8daf5"/>
      <path id="Trazado_190057" data-name="Trazado 190057" d="M-6619.954-112.08a2.169,2.169,0,0,0,.785-.785Q-6618.948-111.858-6619.954-112.08Z" transform="translate(-312.283 -312.248)" fill="#f6faf7"/>
      <path id="Trazado_190058" data-name="Trazado 190058" d="M-6616.171-121.055a.59.59,0,0,1,0-.785Z" transform="translate(-315.281 -304.843)" fill="#b4d8bf"/>
      <path id="Trazado_190059" data-name="Trazado 190059" d="M-6784.5-290.223l-4.466,4.5a.5.5,0,0,1-.391.2,26.577,26.577,0,0,0-14.939-7.286c-.731-.107-1.473-.142-2.209-.21-.473-.1-.96.044-1.432-.082l0,0a1.231,1.231,0,0,1-.193-.806q-.007-2.537,0-5.074a1.046,1.046,0,0,1,.211-.795,32.5,32.5,0,0,1,15.2,3.618A32.271,32.271,0,0,1-6784.5-290.223Z" transform="translate(-157.016 -158.03)" fill="#ffb330"/>
      <path id="Trazado_190060" data-name="Trazado 190060" d="M-6904.444-299.767q-.01,3.338-.02,6.675a19.274,19.274,0,0,1-2.18.128c-.231.019-.476-.047-.687.1a25.764,25.764,0,0,0-11.122,3.777,32.747,32.747,0,0,0-4.693,3.615l-1.955-1.889c-.007-.039-.016-.078-.023-.117.051-.6.562-.909.9-1.3a33.966,33.966,0,0,1,11.124-8.421,28.522,28.522,0,0,1,7.413-2.485c.235-.04.481.031.7-.087Z" transform="translate(-60.491 -158.037)" fill="#ffd960"/>
      <path id="Trazado_190061" data-name="Trazado 190061" d="M-6968.58-434.042c-8.685,8.347-17.1,16.969-25.659,25.439a2.18,2.18,0,0,0-.614,2.469,1.929,1.929,0,0,1-3.38-.172,1.86,1.86,0,0,1,.55-2.239q5.4-5.379,10.8-10.754,6.979-6.941,13.964-13.876A3.669,3.669,0,0,1-6968.58-434.042Z" transform="translate(-0.021 -46.935)" fill="#e23e56"/>
      <path id="Trazado_190062" data-name="Trazado 190062" d="M-6918.016-299.879c-1.146.31-2.3.593-3.435.935a33.264,33.264,0,0,0-9.184,4.409,37.585,37.585,0,0,0-5.2,4.316c-.832.819-1.553,1.75-2.325,2.631-.972-.863-1.868-1.8-2.764-2.74a30.717,30.717,0,0,1,6.653-5.1,33.024,33.024,0,0,1,11.97-4.164A20.7,20.7,0,0,1-6918.016-299.879Z" transform="translate(-47.455 -157.925)" fill="#ffc545"/>
      <path id="Trazado_190063" data-name="Trazado 190063" d="M-6739.861-466.666a3.9,3.9,0,0,1,1.866-.1c.521.031.618.536.2.958-1.039,1.054-2.077,2.11-3.14,3.139-4.268,4.131-8.456,8.343-12.673,12.525-.537.532-1.114,1.031-1.666,1.554a1.181,1.181,0,0,1-1.545-.035,10.355,10.355,0,0,1-.714-.756,1.986,1.986,0,0,0,.885-.524q8.219-8.185,16.446-16.362C-6740.077-466.393-6739.974-466.534-6739.861-466.666Z" transform="translate(-198.77 -20.194)" fill="#e23e56"/>
      <path id="Trazado_190064" data-name="Trazado 190064" d="M-6690.442-491.286c-1.275.586-1.716,1.49-1.24,2.569a2.428,2.428,0,0,0,1.119,1.085h-3.03a1.832,1.832,0,0,1-1.625-1.934,1.861,1.861,0,0,1,1.916-1.739C-6692.349-491.311-6691.4-491.293-6690.442-491.286Z" transform="translate(-250.178)" fill="#e23e56"/>
      <path id="Trazado_190065" data-name="Trazado 190065" d="M-6799.272-185.3l-.459-.248c1.35-1.386,2.872-2.582,4.3-3.878,1.689-1.529,3.414-3.019,5.127-4.522.62-.544,1.215-1.123,1.883-1.6a1.606,1.606,0,0,1,2.486.7c-.124.649-.732.882-1.146,1.251-2.517,2.241-5.062,4.45-7.576,6.694-.779.695-1.565,1.381-2.347,2.073-.2.179-.407.41-.736.342A5.106,5.106,0,0,0-6799.272-185.3Z" transform="translate(-163.951 -243.744)" fill="#547b86"/>
      <path id="Trazado_190066" data-name="Trazado 190066" d="M-6788.331-179.589a35.283,35.283,0,0,0,3.012-2.568c1.779-1.516,3.525-3.072,5.274-4.622,1.182-1.047,2.346-2.113,3.519-3.17.5.949,0,1.66-.583,2.324-2.169,2.453-4.354,4.891-6.526,7.342-.791.892-1.55,1.811-2.343,2.7-.209.235-.376.546-.739.6A5.351,5.351,0,0,0-6788.331-179.589Z" transform="translate(-173.357 -248.648)" fill="#6892a3"/>
      <path id="Trazado_190067" data-name="Trazado 190067" d="M-6806.981-261.758a3.77,3.77,0,0,1,1.432.082A3.8,3.8,0,0,1-6806.981-261.758Z" transform="translate(-157.969 -189.374)" fill="#ffd960"/>
    </g>
  </g>
</svg>
