<svg xmlns="http://www.w3.org/2000/svg" width="116" height="117" viewBox="0 0 116 117">
  <g id="Grupo_124525" data-name="Grupo 124525" transform="translate(-875 -2133)">
    <g id="Elipse_6006" data-name="Elipse 6006" transform="translate(875 2133)" fill="#fff" stroke="#242ca3" stroke-width="4">
      <ellipse cx="58" cy="58.5" rx="58" ry="58.5" stroke="none"/>
      <ellipse cx="58" cy="58.5" rx="56" ry="56.5" fill="none"/>
    </g>
    <g id="Grupo_124522" data-name="Grupo 124522" transform="translate(7045.977 3382.759)">
      <path id="Trazado_190068" data-name="Trazado 190068" d="M-5961.223-1190.611a32.447,32.447,0,0,1-4.88-6.67,35.717,35.717,0,0,1-4.384-12.674c-.354-2.333-.551-4.69-.824-7.036-.043-.376.187-.476.482-.6,2.481-1.026,4.955-2.069,7.43-3.109a26.7,26.7,0,0,0,7.725-4.987c.952-.871,1.908-1.741,2.812-2.661.415-.421.643-.414,1.066,0a41.6,41.6,0,0,0,6.622,5.6,57.623,57.623,0,0,0,8.434,3.933c.992.425,1.984.849,2.986,1.249.286.114.445.255.406.575-.627,5.264-1.011,10.573-3.151,15.535a36.365,36.365,0,0,1-6.936,10.849c-.346-.311-.254-.73-.256-1.113-.01-2.69-.137-5.387.027-8.067.232-3.8-2.164-6.318-5.963-5.979a4.382,4.382,0,0,1-1.571-.075c-.4-.225-.159-.362.083-.453.318-.121.657-.177.975-.309a6,6,0,0,0,3.88-5.128,5.788,5.788,0,0,0-2.652-5.639,5.752,5.752,0,0,0-6.767-.044,5.8,5.8,0,0,0-2.718,5.68,5.985,5.985,0,0,0,4.524,5.341c.552.173.554.166.44.54a9.445,9.445,0,0,1-2.278.093,4.891,4.891,0,0,0-5.25,5.286c0,2.92,0,5.839-.006,8.759C-5960.969-1191.339-5960.879-1190.921-5961.223-1190.611Z" transform="translate(-141.643 -0.493)" fill="#99b8de"/>
      <path id="Trazado_190069" data-name="Trazado 190069" d="M-6115.606-1206.487a11.406,11.406,0,0,1-11.41-11.41,11.4,11.4,0,0,1,11.43-11.388,11.408,11.408,0,0,1,11.37,11.369A11.407,11.407,0,0,1-6115.606-1206.487Z" transform="translate(-18.891)" fill="#ffdc7b"/>
      <path id="Trazado_190070" data-name="Trazado 190070" d="M-5888.066-989.861a11.386,11.386,0,0,1,11.332,11.518,11.4,11.4,0,0,1-11.569,11.281,11.4,11.4,0,0,1-11.219-11.633A11.4,11.4,0,0,1-5888.066-989.861Z" transform="translate(-198.243 -188.76)" fill="#e5e5e5"/>
      <path id="Trazado_190071" data-name="Trazado 190071" d="M-5913.785-1122.541a26.836,26.836,0,0,1,4.009.162,5.033,5.033,0,0,1,3.921,4.969q.015,5.136.027,10.272a23.159,23.159,0,0,1-3.793,3.764,38.41,38.41,0,0,1-4.577,3.353c-.3.191-.544.332-.917.093a42.408,42.408,0,0,1-8.3-6.875,1.837,1.837,0,0,1-.2-.335l.026-10.272a5.063,5.063,0,0,1,5.087-5.111c.949,0,1.9-.013,2.844-.02A1.936,1.936,0,0,1-5913.785-1122.541Z" transform="translate(-179.251 -83.966)" fill="#588ac3"/>
      <path id="Trazado_190072" data-name="Trazado 190072" d="M-6076.341-1045.227c-.724-.725-1.445-1.453-2.176-2.171-.177-.173-.307-.453-.638-.373-.125-.361.173-.525.361-.715q2.689-2.713,5.4-5.4c.19-.189.356-.484.716-.363.978,1.172,2.117,2.188,3.189,3.268,1.612,1.622,3.252,3.214,4.88,4.82.06.348-.21.519-.405.716q-2.608,2.625-5.235,5.232c-.191.189-.356.482-.715.37l-2.521-2.55A14.541,14.541,0,0,1-6076.341-1045.227Z" transform="translate(-56.601 -137.973)" fill="#3f6086"/>
      <path id="Trazado_190073" data-name="Trazado 190073" d="M-6104.905-1011.5a29.66,29.66,0,0,1,2.859,2.832c-.383-.025-.538.3-.751.512q-4.816,4.8-9.611,9.623c-.38.383-.6.448-.978.015a20.029,20.029,0,0,0-1.731-1.733c-.424-.378-.375-.614.01-1q4.83-4.787,9.624-9.61C-6105.281-1011.063-6105.1-1011.287-6104.905-1011.5Z" transform="translate(-28.036 -171.698)" fill="#588ac3"/>
      <path id="Trazado_190074" data-name="Trazado 190074" d="M-6042.9-1012.017c1.437-1.229,2.693-2.641,4.043-3.959.788-.769,1.542-1.572,2.31-2.359.839-.858.839-.858,1.675-.022.784.784,1.555,1.579,2.355,2.345.294.282.391.447.041.794q-3.691,3.64-7.335,7.329c-.3.3-.467.288-.75-.008-.859-.894-1.711-1.8-2.637-2.622-.552-.49-.516-.814.03-1.209A1.96,1.96,0,0,0-6042.9-1012.017Z" transform="translate(-84.656 -165.802)" fill="#405161"/>
      <path id="Trazado_190075" data-name="Trazado 190075" d="M-6088.144-1070.05c-1.661,1.442-3.134,3.074-4.7,4.612a13.722,13.722,0,0,0-1.781,1.868c-.706.792-.706.791-1.424.073-.838-.838-1.667-1.685-2.52-2.507-.276-.266-.343-.43-.031-.739q3.708-3.666,7.375-7.369c.265-.267.433-.281.7-.008.954.981,1.952,1.921,2.891,2.917C-6086.964-1070.493-6087.976-1070.439-6088.144-1070.05Z" transform="translate(-41.132 -122.175)" fill="#405161"/>
      <path id="Trazado_190076" data-name="Trazado 190076" d="M-6019.335-960.888a10.774,10.774,0,0,1,.16-2.272,3.83,3.83,0,0,1,3.62-2.773c.816-.013,1.631-.009,2.447,0a3.8,3.8,0,0,1,3.922,3.943c0,.368.009.736.014,1.1a1.253,1.253,0,0,1-1.03.268q-4.05.014-8.1,0A1.254,1.254,0,0,1-6019.335-960.888Z" transform="translate(-103.786 -207.617)" fill="#588ac3"/>
      <path id="Trazado_190077" data-name="Trazado 190077" d="M-6024.083-942.057h10.163c1.252.043,1.252.043,1.252,1.316,0,1.235,0,1.235-1.241,1.235-3.579,0-7.159-.012-10.737.013-.549,0-.78-.135-.693-.7a3.652,3.652,0,0,0,0-.552C-6025.335-942.014-6025.335-942.014-6024.083-942.057Z" transform="translate(-99.037 -226.448)" fill="#3f6086"/>
      <path id="Trazado_190078" data-name="Trazado 190078" d="M-6046.962-1096.366c0,.026,0,.053,0,.079.008,1.052.008,1.052-1.027,1.068-1.346.021-1.346.021-1.53-1.326-.142-1.042-.142-1.042.879-1.189.052-.007.1-.009.157-.013C-6046.973-1097.874-6046.973-1097.874-6046.962-1096.366Z" transform="translate(-79.936 -103.664)" fill="#c5c5c5"/>
      <path id="Trazado_190079" data-name="Trazado 190079" d="M-5948.379-1043.57a.315.315,0,0,1,.388.166c.076.137.149.277.224.414,1.008,1.826,1.008,1.826-.948,2.574a.891.891,0,0,1-.294.1c-.267,0-1.326-1.93-1.131-2.077C-5949.559-1042.832-5948.931-1043.208-5948.379-1043.57Z" transform="translate(-158.32 -146.409)" fill="#c5c5c5"/>
      <path id="Trazado_190080" data-name="Trazado 190080" d="M-5938.206-1020.749c.306-.083.271.193.318.334.184.547.34,1.1.506,1.655a.881.881,0,0,1,.039.152c.062.54-.428.56-.684.539-.608-.049-1.386.853-1.784-.042-.8-1.806-.523-2.2,1.45-2.6C-5938.308-1020.723-5938.257-1020.736-5938.206-1020.749Z" transform="translate(-166.152 -164.396)" fill="#c5c5c5"/>
      <path id="Trazado_190081" data-name="Trazado 190081" d="M-6093.9-1083.718a1.511,1.511,0,0,0-.288.091c-.53.285-1.055.581-1.584.868-.123.066-.292.086-.366-.022-.411-.6-.8-1.223-1.193-1.84-.02-.032,0-.1.016-.143a11.862,11.862,0,0,1,2.123-1.17c.048,0,.124.01.141.041C-6094.691-1085.226-6094.338-1084.556-6093.9-1083.718Z" transform="translate(-42.289 -113.017)" fill="#c5c5c5"/>
      <path id="Trazado_190082" data-name="Trazado 190082" d="M-6071.319-1092.381c0,.026.023.062.013.076-.443.616-1.212.455-1.8.743-.3.15-.552-.018-.641-.371-.159-.627-.776-1.385-.474-1.815.375-.534,1.311-.526,2.011-.732a.352.352,0,0,1,.49.261C-6071.57-1093.609-6071.449-1092.994-6071.319-1092.381Z" transform="translate(-60.452 -106.261)" fill="#c5c5c5"/>
      <path id="Trazado_190083" data-name="Trazado 190083" d="M-6142.622-1032.719c.487.228,1.107.515,1.725.808a.251.251,0,0,1,.141.33c-.241.611-.478,1.224-.751,1.821-.156.341-.466.113-.61.019-.552-.36-1.612-.16-1.674-.891-.056-.652.482-1.356.769-2.033C-6142.983-1032.758-6142.879-1032.817-6142.622-1032.719Z" transform="translate(-5.662 -154.931)" fill="#c5c5c5"/>
      <path id="Trazado_190084" data-name="Trazado 190084" d="M-6145.792-960.973c.026-.005.062-.024.076-.013.579.433.425,1.174.724,1.729a.417.417,0,0,1-.254.634c-.049.02-.094.049-.143.067-.588.217-1.4.768-1.74.5-.583-.448-.579-1.4-.787-2.157a.27.27,0,0,1,.2-.367c.64-.141,1.281-.274,1.921-.409Z" transform="translate(-2.401 -211.523)" fill="#c5c5c5"/>
      <path id="Trazado_190085" data-name="Trazado 190085" d="M-6104.381-902.189c-.415.634-.812,1.245-1.216,1.852a.217.217,0,0,1-.139.058,8.349,8.349,0,0,1-2.027-1.42.477.477,0,0,1,.1-.27,1.866,1.866,0,0,1,.326-.438c.414-.351.6-1.2,1.1-1.106a5.274,5.274,0,0,1,1.695,1.065C-6104.473-902.4-6104.441-902.286-6104.381-902.189Z" transform="translate(-34.068 -256.831)" fill="#c5c5c5"/>
      <path id="Trazado_190086" data-name="Trazado 190086" d="M-6085.157-891.763c.631.256,1.435.344,1.8.791.445.548-.269,1.22-.38,1.862-.036.209-.121.557-.426.454-.7-.236-1.366-.542-2.04-.834-.072-.031-.162-.2-.137-.25.317-.661.651-1.315.991-1.965C-6085.326-891.751-6085.21-891.749-6085.157-891.763Z" transform="translate(-50.955 -266.1)" fill="#c5c5c5"/>
      <path id="Trazado_190087" data-name="Trazado 190087" d="M-5960.832-1061.016a1.9,1.9,0,0,1-.167.232,2.458,2.458,0,0,1-.294.26c-1.417,1.092-1.4,1.073-2.595-.245-.354-.389-.334-.59.019-.948,1.374-1.39,1.54-1.389,2.72.209C-5961.042-1061.36-5960.951-1061.2-5960.832-1061.016Z" transform="translate(-147.298 -131.308)" fill="#c5c5c5"/>
      <path id="Trazado_190088" data-name="Trazado 190088" d="M-6147.985-1006.024c-1.86-.1-1.772-.093-1.541-1.875.121-.924.425-.97,1.179-.763,1.523.417,1.52.384,1.229,1.907C-6147.225-1006.2-6147.3-1005.684-6147.985-1006.024Z" transform="translate(-1.048 -173.857)" fill="#c5c5c5"/>
      <path id="Trazado_190089" data-name="Trazado 190089" d="M-6129.4-1052.427a7.163,7.163,0,0,1-1.3,1.88,10.71,10.71,0,0,1-1.164-.634c-.948-.6-.943-.611-.344-1.5.925-1.368.929-1.373,2.213-.272C-6129.787-1052.768-6129.46-1052.694-6129.4-1052.427Z" transform="translate(-14.468 -138.397)" fill="#c5c5c5"/>
      <path id="Trazado_190090" data-name="Trazado 190090" d="M-5981.052-1079.659c.72.472,1.572.8,1.9,1.455.256.513-.605.926-.91,1.426-.134.22-.361.582-.677.4a10.566,10.566,0,0,1-1.6-1.13c-.227-.193.039-.443.172-.608C-5981.766-1078.607-5981.6-1079.282-5981.052-1079.659Z" transform="translate(-132.887 -117.964)" fill="#c5c5c5"/>
      <path id="Trazado_190091" data-name="Trazado 190091" d="M-5943.747-949.763c.615.228,1.229.459,1.845.684.292.107.227.3.141.511q-.345.837-.688,1.675c-.13.318-.337.373-.623.193a1.175,1.175,0,0,0-.141-.069c-1.82-.847-1.843-.913-.934-2.7C-5944.066-949.628-5944.022-949.849-5943.747-949.763Z" transform="translate(-162.599 -220.358)" fill="#c5c5c5"/>
      <path id="Trazado_190092" data-name="Trazado 190092" d="M-5955.127-925.109a5.822,5.822,0,0,1-1.963-1.482c-.053-.345.252-.5.411-.722.888-1.259.868-1.218,2.2-.41.651.4.777.734.267,1.311a11.268,11.268,0,0,0-.735,1.014A3.339,3.339,0,0,0-5955.127-925.109Z" transform="translate(-152.854 -237.295)" fill="#c5c5c5"/>
      <path id="Trazado_190093" data-name="Trazado 190093" d="M-5990.437-896.977c.263-.065.331.132.443.273,1.253,1.573,1.2,1.782-.565,2.71-.528.278-.778.255-1.049-.33-.78-1.686-.753-1.818.976-2.565C-5990.56-896.92-5990.489-896.953-5990.437-896.977Z" transform="translate(-125.258 -261.979)" fill="#c5c5c5"/>
      <path id="Trazado_190094" data-name="Trazado 190094" d="M-6000.841-1086.947c-.569-.249-1.2-.508-1.811-.8-.148-.072-.075-.276-.04-.436.425-1.965.519-2,2.37-1.308.656.244.842.513.435,1.128a7.183,7.183,0,0,0-.454,1.005A.553.553,0,0,1-6000.841-1086.947Z" transform="translate(-116.868 -109.888)" fill="#c5c5c5"/>
      <path id="Trazado_190095" data-name="Trazado 190095" d="M-6137.113-939.8l1,1.689c.133.226.183.453-.076.618-.507.324-1.021.636-1.536.947a.324.324,0,0,1-.516-.154c-.1-.187-.2-.37-.295-.556-.25-.47-.9-1.053-.59-1.413A6.876,6.876,0,0,1-6137.113-939.8Z" transform="translate(-9.278 -228.226)" fill="#c5c5c5"/>
      <path id="Trazado_190096" data-name="Trazado 190096" d="M-6013.688-884.2c-.2.033-.318-.077-.369-.337-.112-.566-.254-1.126-.375-1.69-.021-.1-.043-.265,0-.292a5.6,5.6,0,0,1,2-.627c.432-.075.417.463.521.758.563,1.6.556,1.606-1.105,2.027C-6013.219-884.312-6013.424-884.266-6013.688-884.2Z" transform="translate(-107.632 -269.732)" fill="#c5c5c5"/>
      <path id="Trazado_190097" data-name="Trazado 190097" d="M-6025.2-1094.878c.524-.374-.425-1.589.66-1.644.684-.035,1.869-.266,2.114.76.22.921-.461,2-.91,1.974C-6024.769-1093.874-6025.234-1094.113-6025.2-1094.878Z" transform="translate(-99.16 -104.633)" fill="#c5c5c5"/>
      <path id="Trazado_190098" data-name="Trazado 190098" d="M-5934.791-971.323c-.476.706.162,1.979-.889,2.138-1.174.178-2.016-.407-1.983-.884.107-1.592.364-2.042,1.21-1.818C-5935.922-971.746-5935.129-972.139-5934.791-971.323Z" transform="translate(-168.174 -202.888)" fill="#c5c5c5"/>
      <path id="Trazado_190099" data-name="Trazado 190099" d="M-6059.5-883.108c-.374.394.321,1.507-.574,1.537-.694.023-1.958.31-2.142-.765-.093-.546-.129-1.778.8-1.927C-6060.161-884.465-6059.485-883.951-6059.5-883.108Z" transform="translate(-69.94 -271.978)" fill="#c5c5c5"/>
      <path id="Trazado_190100" data-name="Trazado 190100" d="M-6149.679-983.93c.211,0,.421,0,.631,0,.105,0,.246-.036.31.017.651.533.1,1.33.417,1.958.136.273-.132.4-.4.429-.6.076-1.189.169-1.784.249-.193.026-.273-.085-.312-.266a8.273,8.273,0,0,1-.156-1.957c.006-.3.13-.433.427-.427s.579,0,.868,0Z" transform="translate(0 -193.427)" fill="#c5c5c5"/>
      <path id="Trazado_190101" data-name="Trazado 190101" d="M-5971.775-907.033a4.091,4.091,0,0,0-.206-.363c-.193-.28-.393-.554-.6-.826-.629-.842-.631-.841.253-1.511,1.006-.764,1.006-.764,1.9.132.769.77.767.768-.042,1.567A4.724,4.724,0,0,1-5971.775-907.033Z" transform="translate(-140.298 -251.492)" fill="#c5c5c5"/>
      <path id="Trazado_190102" data-name="Trazado 190102" d="M-6122.293-917.679c-.066.3-.334.451-.531.651-1.127,1.143-1.13,1.14-2.235-.039-.744-.8-.743-.809.093-1.445,1.225-.932,1.225-.931,2.232.271.118.141.253.268.375.407A.556.556,0,0,1-6122.293-917.679Z" transform="translate(-20.003 -244.484)" fill="#c5c5c5"/>
      <path id="Trazado_190103" data-name="Trazado 190103" d="M-6037.274-881.026c0-.236.016-.474,0-.708-.035-.423.17-.56.562-.536a5.866,5.866,0,0,0,.786-.007c1.062-.079,1.092-.055,1.187,1.055.114,1.337.114,1.337-1.079,1.478C-6037.23-879.578-6037.271-879.613-6037.274-881.026Z" transform="translate(-89.636 -273.557)" fill="#c5c5c5"/>
      <path id="Trazado_190104" data-name="Trazado 190104" d="M-6113.153-1069.817a1.654,1.654,0,0,1-.572.619c-1.158.926-1.128.885-2.222-.111-.571-.519-.557-.808.006-1.322,1.253-1.146,1.222-1.177,2.3.1A1.777,1.777,0,0,1-6113.153-1069.817Z" transform="translate(-27.284 -124.405)" fill="#c5c5c5"/>
      <path id="Trazado_190105" data-name="Trazado 190105" d="M-5934.568-993.319c-1.314.006-1.439,0-1.338-1.936.046-.882,1.135-.471,1.74-.573.771-.131.86.092.86,1.577C-5933.3-993.145-5933.231-993.343-5934.568-993.319Z" transform="translate(-169.539 -184.031)" fill="#c5c5c5"/>
      <path id="Trazado_190106" data-name="Trazado 190106" d="M-5903.8-1155.35h-1.871a6.6,6.6,0,0,1-4.31-2.786,4.778,4.778,0,0,1-.965-2.853c.157-.893.906-1.331,1.516-1.818a7.75,7.75,0,0,1,10.645,1.193c.147.181.316.357.258.625a6.122,6.122,0,0,1-4.832,5.5A4.259,4.259,0,0,0-5903.8-1155.35Z" transform="translate(-189.232 -51.157)" fill="#ffd09b"/>
      <path id="Trazado_190107" data-name="Trazado 190107" d="M-5898.828-1174.4c-3.465-4.308-8.949-4.308-12.418,0a5.771,5.771,0,0,1,1.972-5.363,6.245,6.245,0,0,1,6.835-1.078,6.332,6.332,0,0,1,3.733,5.917A.735.735,0,0,1-5898.828-1174.4Z" transform="translate(-188.935 -37.744)" fill="#405161"/>
      <path id="Trazado_190108" data-name="Trazado 190108" d="M-6084.879-1206.322a1.159,1.159,0,0,1-1.459-.776c-.209-.54-.878-.628-1.457-.378a1.168,1.168,0,0,0-.745,1.341,1.158,1.158,0,0,0,1.183,1.067,3.892,3.892,0,0,1,2.868,1.284,3.7,3.7,0,0,1-.832,5.714c-.531.3-.816.6-.708,1.213.09.509-.124.736-.65.672a5.917,5.917,0,0,0-.712,0c-1.074,0-1.1,0-1.155-1.1-.021-.416-.277-.514-.555-.665a3.876,3.876,0,0,1-1.952-2.648c-.113-.471.024-.7.546-.655a5.72,5.72,0,0,0,.948,0c.55-.042.955,0,1.211.653a1.086,1.086,0,0,0,1.483.535,1.171,1.171,0,0,0,.817-1.371,1.158,1.158,0,0,0-1.183-1.067,3.887,3.887,0,0,1-2.868-1.285,3.7,3.7,0,0,1,.832-5.712c.533-.3.815-.6.708-1.214-.089-.51.126-.737.652-.671a5.136,5.136,0,0,0,.633,0c1.152,0,1.173,0,1.235,1.1.021.366.215.489.483.629a3.7,3.7,0,0,1,1.926,2.382c.253.919.241.947-.688.952Z" transform="translate(-47.214 -14.098)" fill="#a58a51"/>
      <path id="Trazado_190109" data-name="Trazado 190109" d="M-5875.634-959.642c0-.659.02-1.319-.008-1.977-.017-.419.143-.552.55-.541.87.023,1.743-.023,2.61.018.536.025.678-.175.656-.68-.036-.842.008-1.688-.016-2.531-.012-.422.088-.619.564-.609q1.977.041,3.955,0c.479-.01.573.192.562.612-.023.843.019,1.689-.016,2.531-.022.508.126.7.658.677.869-.04,1.74.006,2.61-.017.411-.011.554.128.548.543-.02,1.345-.017,2.69,0,4.035,0,.379-.137.507-.508.5-.871-.017-1.742.029-2.61-.017-.573-.03-.724.18-.7.721.041.815-.009,1.635.019,2.452.016.455-.09.664-.6.65q-1.937-.05-3.875,0c-.517.013-.616-.2-.6-.653.028-.843-.015-1.688.018-2.531.018-.474-.118-.658-.619-.637-.869.037-1.741-.01-2.61.018-.446.014-.609-.133-.588-.585C-5875.612-958.322-5875.635-958.983-5875.634-959.642Z" transform="translate(-217.07 -207.601)" fill="#e86876"/>
      <path id="Trazado_190110" data-name="Trazado 190110" d="M-5890.809-1119.636q1.173,5.311,2.356,10.621a.763.763,0,0,1-.11.662c-.681,1-1.359,2.009-2.016,3.029-.271.422-.435.328-.667-.033-.643-1-1.31-1.978-1.97-2.963a.692.692,0,0,1-.173-.578q1.207-5.37,2.4-10.743Z" transform="translate(-203.068 -86.442)" fill="#e5e5e5"/>
    </g>
  </g>
</svg>
