<svg xmlns="http://www.w3.org/2000/svg" width="116" height="117" viewBox="0 0 116 117">
  <g id="Grupo_124524" data-name="Grupo 124524" transform="translate(-1140 -2133)">
    <g id="Elipse_6007" data-name="Elipse 6007" transform="translate(1140 2133)" fill="#fff" stroke="#242ca3" stroke-width="4">
      <ellipse cx="58" cy="58.5" rx="58" ry="58.5" stroke="none"/>
      <ellipse cx="58" cy="58.5" rx="56" ry="56.5" fill="none"/>
    </g>
    <g id="Grupo_124523" data-name="Grupo 124523" transform="translate(7828.765 4110.771)">
      <path id="Trazado_190111" data-name="Trazado 190111" d="M-6551.077-1757.963c0-6.55.019-13.1-.017-19.651,0-.8.224-1,.981-.95.958.066,1.924.014,2.887.012a1.542,1.542,0,0,1,1.07-.255q7.958-.007,15.916,0a1.541,1.541,0,0,1,1.07.255c1.1,0,2.194.016,3.29,0,.4-.007.567.108.565.541-.021,4.332-.025,8.665-.033,13a25.985,25.985,0,0,1-3.181,6.256,36.334,36.334,0,0,1-3.087,4.286,1.292,1.292,0,0,1-.738.582,24.328,24.328,0,0,1-2.886.056c-3.1.01-6.2,0-9.307.006a1.145,1.145,0,0,0-1.042,1.778c.212.39.606.282.934.284,2.889.012,5.777,0,8.666.008a5.726,5.726,0,0,1,1.2.059c.6.216.273.532.05.774a31.531,31.531,0,0,1-2.359,2.175,18.367,18.367,0,0,1-3.3,2.541c-.106.016.029.029-.075.017a1.234,1.234,0,0,0-1.559,1.212,38.3,38.3,0,0,1-8.343,4.456c-.589.231-.832.037-.912-.6a3.778,3.778,0,0,1-.018-.482q0-7.638,0-15.275A1.544,1.544,0,0,1-6551.077-1757.963Z" transform="translate(-92.633 -140.096)" fill="#979797"/>
      <path id="Trazado_190112" data-name="Trazado 190112" d="M-6539.658-1931.5c-1.283-.058-1.283-.058-1.284-1.35a2.323,2.323,0,0,0-2.486-2.372c-.736.037-1.127.6-1.53,1.073-.511.6-.854.65-1.4.015-.787-.908-1.671-1.736-2.546-2.562-.344-.325-.34-.544.018-.815.126-.1.225-.228.342-.338,1.327-1.24,1.246-1.439.376-3.29a1.182,1.182,0,0,0-1.1-.681c-.214-.008-.428,0-.643,0-1.291,0-1.291,0-1.349-1.285a3.33,3.33,0,0,1,0-2.58c.058-1.284.058-1.284,1.353-1.285a2.287,2.287,0,0,0,2.37-2.417,1.444,1.444,0,0,0-.5-1.056c-.325-.319-.635-.655-.971-.963-.235-.216-.211-.368.01-.585q1.521-1.493,3.014-3.017c.241-.247.41-.276.646-.009s.543.52.789.8a1.565,1.565,0,0,0,2.012.435c1.554-.665,1.639-.7,1.586-2.524-.022-.747.129-1.042.946-.987,1.175.078,2.36.041,3.539.01.5-.013.768.107.686.659a3.378,3.378,0,0,0,0,.482,2.2,2.2,0,0,0,2.218,2.559,1.746,1.746,0,0,0,1.514-.751c.989-1,.993-.993,2,.013.759.758,1.507,1.527,2.283,2.268.277.265.313.459,0,.7-.146.116-.265.267-.4.394-1.36,1.268-1.221,1.456-.431,3.221a1.243,1.243,0,0,0,1.222.76h.563c1.3,0,1.3,0,1.353,1.285a3.325,3.325,0,0,1,0,2.58c-.058,1.285-.058,1.285-1.349,1.285a2.324,2.324,0,0,0-2.373,2.486c.036.736.6,1.125,1.075,1.528.6.511.654.854.016,1.406-.909.786-1.737,1.671-2.564,2.546-.324.342-.543.343-.816-.015-.1-.126-.229-.225-.337-.343-1.246-1.337-1.439-1.244-3.289-.379a1.183,1.183,0,0,0-.682,1.1c-.008.214,0,.428,0,.642,0,1.292,0,1.292-1.284,1.35A3.333,3.333,0,0,1-6539.658-1931.5Z" transform="translate(-92.464 0)" fill="#e86876"/>
      <path id="Trazado_190113" data-name="Trazado 190113" d="M-6587.854-1681.884q0,8.27,0,16.54c0,.981-.013.937.922.565a45.182,45.182,0,0,0,7.838-4.155.721.721,0,0,1,.231-.054.873.873,0,0,1,.265.725c.025,1.225.022,2.451,0,3.676a1,1,0,0,1-.266.733q-9.328.005-18.658.02c-.478,0-.646-.112-.646-.623q.026-8.4,0-16.809c0-.625.306-.608.74-.607Q-6592.639-1681.869-6587.854-1681.884Z" transform="translate(-55.858 -216.175)" fill="#898888"/>
      <path id="Trazado_190114" data-name="Trazado 190114" d="M-6431.439-1681.887c3.186.005,6.371.027,9.556,0,.6,0,.756.156.754.756q-.036,8.272,0,16.543c0,.6-.153.762-.755.755-3.185-.039-6.37-.032-9.556-.041a1.368,1.368,0,0,1-.261-1.06q-.011-7.948,0-15.9A1.346,1.346,0,0,1-6431.439-1681.887Z" transform="translate(-186.512 -216.173)" fill="#797a7a"/>
      <path id="Trazado_190115" data-name="Trazado 190115" d="M-6485.083-1707.624v18.015l-9,.015a1.467,1.467,0,0,1-.27-1.133c-.01-1.387-.021-2.775,0-4.161.012-.66-.25-.9-.9-.885-1.253.025-2.507.017-3.761,0-.365,0-.758.052-1.044-.273,1.8-1.408,3.522-2.905,5.2-4.459.214-.2.4-.429.6-.646.24-.284.577-.243.891-.253.561-.017,1.122,0,1.683-.006,1.1,0,1.58-.749,1.154-1.771-.1-.245-.29-.285-.5-.319-.284-.044-.6,0-.809-.268.905-1.247,1.847-2.469,2.708-3.746a38.5,38.5,0,0,0,3.7-6.619,4.394,4.394,0,0,1,.324-.544Q-6485.1-1711.151-6485.083-1707.624Z" transform="translate(-132.868 -190.435)" fill="#898888"/>
      <path id="Trazado_190116" data-name="Trazado 190116" d="M-6655.146-1862.4c1.1.005,2.2.029,3.293.006.479-.01.6.185.565.622a9.177,9.177,0,0,1-7.593,8.274,9.057,9.057,0,0,1-10.4-7.889c-.125-.924-.055-.995.89-1l2.65-.015c.937-.441,1.928-.163,2.894-.226,1.6-.018,3.2-.025,4.8,0C-6657.082-1862.566-6656.085-1862.846-6655.146-1862.4Z" transform="translate(0 -74.283)" fill="#7ec7f0"/>
      <path id="Trazado_190117" data-name="Trazado 190117" d="M-6380.276-1862.415c.991.008,1.985.066,2.972.009.718-.042.8.293.735.86a9.12,9.12,0,0,1-6.824,7.853,9.08,9.08,0,0,1-11.173-7.865c-.064-.586.057-.858.75-.853a9.414,9.414,0,0,0,3.019-.125,18.346,18.346,0,0,1,2.851-.074q2.385-.038,4.769,0A8.305,8.305,0,0,1-6380.276-1862.415Z" transform="translate(-215.652 -74.296)" fill="#7ec7f0"/>
      <path id="Trazado_190118" data-name="Trazado 190118" d="M-6514.265-1802.136h-18.055c.005-1.634,0-3.269.017-4.9.008-1.064.458-1.521,1.513-1.528,2.063-.011,4.127-.009,6.19-.012a3.22,3.22,0,0,1,2.614,0c2.036,0,4.072,0,6.109.011,1.155,0,1.588.444,1.595,1.61C-6514.272-1805.351-6514.27-1803.743-6514.265-1802.136Z" transform="translate(-107.538 -116.513)" fill="#898888"/>
      <path id="Trazado_190119" data-name="Trazado 190119" d="M-6642.056-1894.321h-2.886c-.38-.171-.491-.546-.658-.875-.565-1.11-1.108-2.233-1.755-3.5-.647,1.272-1.189,2.394-1.754,3.5-.167.329-.279.7-.659.875h-2.883q2.038-4.1,4.072-8.206a1.536,1.536,0,0,1,1.61-.8q8.165.013,16.329,0v2.58h-14.584Z" transform="translate(-13.089 -42.364)" fill="#898888"/>
      <path id="Trazado_190120" data-name="Trazado 190120" d="M-6416.083-1894.38a10.486,10.486,0,0,1-2.814-.124l3.109-6.273h-14.594v-2.58c5.412,0,10.823.017,16.233-.012a1.82,1.82,0,0,1,1.889,1.146c1.26,2.631,2.583,5.231,3.882,7.842h-2.871c-.383-.122-.475-.484-.629-.785-.58-1.131-1.13-2.278-1.792-3.569-.652,1.292-1.208,2.435-1.786,3.567C-6415.61-1894.865-6415.7-1894.5-6416.083-1894.38Z" transform="translate(-187.551 -42.329)" fill="#898888"/>
      <path id="Trazado_190121" data-name="Trazado 190121" d="M-6506.607-1628.058c1.761.009,3.521.035,5.281.015.522-.006.686.15.679.676-.021,1.92,0,3.841.008,5.762h-7.765q0-2.567,0-5.134C-6508.352-1627.969-6508.352-1627.969-6506.607-1628.058Z" transform="translate(-126.311 -258.424)" fill="#e5e5e5"/>
      <path id="Trazado_190122" data-name="Trazado 190122" d="M-6493.811-1830.941h-2.614q.007-3.2.016-6.405h2.582Q-6493.818-1834.144-6493.811-1830.941Z" transform="translate(-135.713 -94.151)" fill="#979797"/>
      <path id="Trazado_190123" data-name="Trazado 190123" d="M-6518.6-1751.116c-2.329,0-4.658-.014-6.986.011-.54.006-.743-.122-.743-.706,0-1.88-.024-1.88,1.887-1.88,4.256,0,8.513.01,12.769-.012.6,0,.838.121.826.788-.032,1.8,0,1.8-1.81,1.8Z" transform="translate(-112.239 -159.803)" fill="#e5e5e5"/>
      <path id="Trazado_190124" data-name="Trazado 190124" d="M-6518.586-1721.2c-2.329,0-4.659-.021-6.987.014-.614.009-.763-.186-.757-.775.017-1.814-.008-1.814,1.792-1.814,4.283,0,8.566.015,12.849-.016.681,0,.853.2.839.857-.036,1.733,0,1.733-1.712,1.733Z" transform="translate(-112.24 -183.282)" fill="#e5e5e5"/>
      <path id="Trazado_190125" data-name="Trazado 190125" d="M-6518.609-1691.263c-2.3,0-4.6-.016-6.906.011-.592.007-.848-.1-.835-.779.032-1.807,0-1.807,1.8-1.807,4.256,0,8.513.014,12.769-.014.666,0,.941.109.917.863-.054,1.725-.011,1.727-1.724,1.727Z" transform="translate(-112.225 -206.781)" fill="#e5e5e5"/>
      <path id="Trazado_190126" data-name="Trazado 190126" d="M-6512.5-1663.957c1.607.069,1.573.07,1.62,1.674.021.708-.14.991-.91.942-1.037-.067-2.083-.005-3.125,0-3.51-.007-7.021-.029-10.531-.006-.663,0-.945-.1-.921-.862.055-1.727.011-1.726,1.728-1.728Q-6518.569-1663.945-6512.5-1663.957Z" transform="translate(-112.212 -230.246)" fill="#e5e5e5"/>
      <path id="Trazado_190127" data-name="Trazado 190127" d="M-6509.1-1921.251a5.165,5.165,0,0,1,5.113,5.2,5.169,5.169,0,0,1-5.226,5.094,5.164,5.164,0,0,1-5.07-5.165A5.156,5.156,0,0,1-6509.1-1921.251Z" transform="translate(-121.697 -28.293)" fill="#fff"/>
      <path id="Trazado_190128" data-name="Trazado 190128" d="M-6578.843-1663.86c1.281,0,1.281,0,1.28,1.495,0,1.081,0,1.081-1.535,1.08-1.041,0-1.049,0-1.038-1.575C-6580.125-1664.037-6580.292-1663.84-6578.843-1663.86Z" transform="translate(-70.007 -230.321)" fill="#e5e5e5"/>
      <path id="Trazado_190129" data-name="Trazado 190129" d="M-6577.564-1632.56c0,1.211,0,1.211-1.485,1.21-1.09,0-1.09,0-1.09-1.524,0-1.052,0-1.061,1.565-1.047C-6577.38-1633.911-6577.586-1634.1-6577.564-1632.56Z" transform="translate(-70.005 -253.819)" fill="#e5e5e5"/>
      <path id="Trazado_190130" data-name="Trazado 190130" d="M-6409.2-1663.3c0,1.285,0,1.285-1.493,1.284-1.084,0-1.084,0-1.083-1.532,0-1.045,0-1.055,1.573-1.041C-6409.028-1664.579-6409.226-1664.768-6409.2-1663.3Z" transform="translate(-202.151 -229.748)" fill="#e5e5e5"/>
      <path id="Trazado_190131" data-name="Trazado 190131" d="M-6411.783-1633.365c0-1.3,0-1.3,1.482-1.3,1.095,0,1.095,0,1.094,1.523,0,1.055,0,1.065-1.562,1.051C-6411.962-1632.1-6411.762-1631.9-6411.783-1633.365Z" transform="translate(-202.149 -253.241)" fill="#e5e5e5"/>
      <path id="Trazado_190132" data-name="Trazado 190132" d="M-6639.246-1879.252l2.412-4.874c.862,1.742,1.639,3.309,2.414,4.875Z" transform="translate(-23.611 -57.433)" fill="#fff"/>
      <path id="Trazado_190133" data-name="Trazado 190133" d="M-6363.9-1879.229l2.417-4.837,2.418,4.837Z" transform="translate(-239.732 -57.48)" fill="#feffff"/>
    </g>
  </g>
</svg>
