<svg xmlns="http://www.w3.org/2000/svg" width="115" height="117" viewBox="0 0 115 117">
  <g id="Grupo_124556" data-name="Grupo 124556" transform="translate(-347 -3710)">
    <g id="Elipse_6894" data-name="Elipse 6894" transform="translate(347 3710)" fill="#fff" stroke="#242ca3" stroke-width="4">
      <ellipse cx="57.5" cy="58.5" rx="57.5" ry="58.5" stroke="none"/>
      <ellipse cx="57.5" cy="58.5" rx="55.5" ry="56.5" fill="none"/>
    </g>
    <g id="Grupo_124555" data-name="Grupo 124555" transform="translate(6582.911 5453.396)">
      <path id="Trazado_190326" data-name="Trazado 190326" d="M-6000.4-1525.245a5.257,5.257,0,0,0-.426,1.849,20.9,20.9,0,0,1-17.574,16.386,20.775,20.775,0,0,1-20.79-10.349c-.086-.15-.194-.287-.292-.43a1.345,1.345,0,0,1-.576-.748,22.77,22.77,0,0,1-1.4-3.828,20.2,20.2,0,0,1-.6-6.4,19.233,19.233,0,0,1,1.2-5.976,22.3,22.3,0,0,1,4.89-7.65,22.552,22.552,0,0,1,5.236-3.819,21.565,21.565,0,0,1,6.246-2.107,23.393,23.393,0,0,1,4.611-.186,20.672,20.672,0,0,1,13.168,5.8,20.823,20.823,0,0,1,6.046,10.765c.16.728.087,1.478.267,2.2v.9a1.147,1.147,0,0,0,0,.9v.748a1.538,1.538,0,0,0,0,1.048Z" transform="translate(-139.857 -139.744)" fill="#247dc3"/>
      <path id="Trazado_190327" data-name="Trazado 190327" d="M-5968.919-1723.2a2.771,2.771,0,0,1,1.928,3.063c-.05,1.394.013,2.792-.022,4.187-.014.544.122.74.7.724,1.469-.041,2.94,0,4.411-.017a2.529,2.529,0,0,1,2.668,1.511,2.5,2.5,0,0,1-.848,2.937q-2.936,2.88-5.816,5.815a2.949,2.949,0,0,1-2.261.944c-2.242-.023-4.485,0-6.729.009a2.384,2.384,0,0,1-2.768-.612,2.371,2.371,0,0,1-.56-2.716c.006-2.267.026-4.534.011-6.8a2.8,2.8,0,0,1,.888-2.13q3.006-2.967,5.971-5.975c.371-.377.835-.607,1.229-.94Z" transform="translate(-190.792 0)" fill="#247dc3"/>
      <path id="Trazado_190328" data-name="Trazado 190328" d="M-5834.356-1440.8a.862.862,0,0,1,0-1.048Z" transform="translate(-305.9 -225.082)" fill="#4b8dcc"/>
      <path id="Trazado_190329" data-name="Trazado 190329" d="M-5834.329-1449.185a.674.674,0,0,1,0-.9Z" transform="translate(-305.926 -218.497)" fill="#4389ca"/>
      <path id="Trazado_190330" data-name="Trazado 190330" d="M-6181.127-1623.875a31.272,31.272,0,0,0,1.788,4.467,30,30,0,0,1-9.2,1.371,28.787,28.787,0,0,1-26.856-19.548,28.655,28.655,0,0,1,18.754-36.609c9.6-2.9,18.461-1.108,26.422,5.023.2.152.4.3.593.453.079.266-.114.415-.263.567q-1.3,1.318-2.616,2.615a.714.714,0,0,1-.649.284c-1.355-.837-2.605-1.83-4.039-2.554a24.042,24.042,0,0,0-8.765-2.582,23.1,23.1,0,0,0-17.093,5.143,22.79,22.79,0,0,0-8.628,15.163,23.007,23.007,0,0,0,5.474,18.72,23.236,23.236,0,0,0,15.029,8.151,23.182,23.182,0,0,0,9.186-.636C-6181.709-1623.922-6181.42-1624.072-6181.127-1623.875Z" transform="translate(0 -38.125)" fill="#e02d2b"/>
      <path id="Trazado_190331" data-name="Trazado 190331" d="M-6068.3-1640.049c1.192-1.082,2.318-2.23,3.417-3.406l.618-.514a3.3,3.3,0,0,0,.76,2.673,3.46,3.46,0,0,0,2.568.655l-.523.626a3.981,3.981,0,0,1-1.051,1.226c-.737.764-1.5,1.5-2.245,2.261-1.509,1.531-3.088,2.995-4.525,4.6-1.209,1.038-2.27,2.228-3.408,3.337q-2.423,2.4-4.821,4.83c-1.322,1.315-2.631,2.643-3.957,3.953a2.538,2.538,0,0,1-3.772.095,2.537,2.537,0,0,1,.146-3.72c1.311-1.325,2.633-2.639,3.951-3.957,1.628-1.588,3.22-3.211,4.829-4.82,1.161-1.138,2.3-2.294,3.449-3.448,1.3-1.274,2.571-2.571,3.861-3.852A1.7,1.7,0,0,1-6068.3-1640.049Z" transform="translate(-104.736 -63.388)" fill="#4d6b79"/>
      <path id="Trazado_190332" data-name="Trazado 190332" d="M-6153.743-1646.022c-1.453,1.567-2.979,3.06-4.521,4.538a1.01,1.01,0,0,1-.814-.3,16.876,16.876,0,0,0-11.272-2.978,16.7,16.7,0,0,0-9.995,4.29,16.686,16.686,0,0,0-5.715,10.63,16.855,16.855,0,0,0,4.21,13.853,16.938,16.938,0,0,0,11.159,5.766,16.661,16.661,0,0,0,7.165-.75c.345-.115.687-.326,1.079-.163a26.24,26.24,0,0,0,.618,6.551c-7.562,2.146-14.675,1.146-21.019-3.514-7.37-5.414-10.7-12.857-9.792-21.976a23.681,23.681,0,0,1,18.9-20.839A23.492,23.492,0,0,1-6153.743-1646.022Z" transform="translate(-19.298 -57.415)" fill="#f9f6f6"/>
      <path id="Trazado_190333" data-name="Trazado 190333" d="M-6119.3-1585.911c1.522-1.635,3.115-3.2,4.729-4.742a.865.865,0,0,1,.532.488,12.8,12.8,0,0,1,1.682,8.6,3.076,3.076,0,0,1-.346.9,23.433,23.433,0,0,0-4.314,6.369,3.343,3.343,0,0,1-.52,1.059,4.3,4.3,0,0,1-1.983,1.41,12.965,12.965,0,0,1-18.459-9.63,12.931,12.931,0,0,1,11.38-14.934,12.333,12.333,0,0,1,7.973,1.7c.251.155.539.276.633.6-1.536,1.616-3.1,3.2-4.732,4.724a1.955,1.955,0,0,1-.952-.123,6.15,6.15,0,0,0-7.663,5.424,6.105,6.105,0,0,0,5.241,6.64,6.106,6.106,0,0,0,6.764-4.078,6.753,6.753,0,0,0,.134-3.608C-6119.251-1585.377-6119.415-1585.627-6119.3-1585.911Z" transform="translate(-63.001 -101.379)" fill="#f9f6f6"/>
      <path id="Trazado_190334" data-name="Trazado 190334" d="M-6136.354-1612.411c-4.646-2.862-9.368-3.038-14.036-.164a12.6,12.6,0,0,0-5.607,13.537,12.777,12.777,0,0,0,10.991,9.892,12.515,12.515,0,0,0,8.416-1.975c.229-.149.461-.293.692-.44-.274,1.273-.776,2.491-.932,3.793q-.136,1.139-.274,2.278a17.6,17.6,0,0,1-23.38-11.738,17.582,17.582,0,0,1,13.719-21.844,17.509,17.509,0,0,1,13.845,3.234Z" transform="translate(-44.641 -83.061)" fill="#e02d2b"/>
      <path id="Trazado_190335" data-name="Trazado 190335" d="M-5990.693-1477.323a2.126,2.126,0,0,1,1.454.606c1.1.942,2.206,1.869,3.285,2.831.378.337.606.336.961-.052,2.71-2.96,5.442-5.9,8.167-8.846a2.41,2.41,0,0,1,3.461-.376,2.341,2.341,0,0,1,.137,3.51c-2.209,2.438-4.463,4.836-6.7,7.25-1.1,1.188-2.207,2.373-3.3,3.567a2.476,2.476,0,0,1-3.86.254c-1.757-1.512-3.531-3-5.273-4.533a2.359,2.359,0,0,1-.427-3.229A2.318,2.318,0,0,1-5990.693-1477.323Z" transform="translate(-178.932 -191.578)" fill="#f9f6f6"/>
      <path id="Trazado_190336" data-name="Trazado 190336" d="M-6003.146-1602.585c1.457-1.578,2.981-3.087,4.547-4.556a.827.827,0,0,1,.582.427,24.28,24.28,0,0,1,4.662,10.733,1.333,1.333,0,0,1-.081.947,33.815,33.815,0,0,0-4.433,1.344c-.582.263-1.17.512-1.755.768a2.046,2.046,0,0,1-.326-1.2,17.239,17.239,0,0,0-2.871-7.663C-6002.985-1602.022-6003.205-1602.25-6003.146-1602.585Z" transform="translate(-171.002 -92.85)" fill="#f9f6f6"/>
      <path id="Trazado_190337" data-name="Trazado 190337" d="M-5975.209-1608.683a23.723,23.723,0,0,0-5.163-12.107c1.08-1.191,2.228-2.314,3.4-3.412a28.789,28.789,0,0,1,6.1,12.472c.2.948.317,1.912.472,2.869A38.2,38.2,0,0,0-5975.209-1608.683Z" transform="translate(-189.229 -79.202)" fill="#e02d2b"/>
      <path id="Trazado_190338" data-name="Trazado 190338" d="M-6016.805-1584.362a17.756,17.756,0,0,1,3.522,9.662,26.878,26.878,0,0,0-5.079,3.723,13.027,13.027,0,0,0-1.868-9.982C-6019.125-1582.131-6018.008-1583.29-6016.805-1584.362Z" transform="translate(-157.343 -111.074)" fill="#e02d2b"/>
      <path id="Trazado_190339" data-name="Trazado 190339" d="M-6092.923-1559.657a6.042,6.042,0,0,1-1.068,6.551,6,6,0,0,1-6.543,1.964,6.015,6.015,0,0,1-4.506-4.884,6,6,0,0,1,2.31-6.229,6,6,0,0,1,6.382-.86c-1.38,1.4-2.769,2.793-4.136,4.207a2.307,2.307,0,0,0-.427,2.693,2.384,2.384,0,0,0,2.387,1.336,2.541,2.541,0,0,0,1.561-.8C-6095.624-1557.009-6094.271-1558.33-6092.923-1559.657Z" transform="translate(-89.378 -127.634)" fill="#e02d2b"/>
    </g>
  </g>
</svg>
