<svg xmlns="http://www.w3.org/2000/svg" width="108" height="107.999" viewBox="0 0 108 107.999">
  <g id="Grupo_124609" data-name="Grupo 124609" transform="translate(-231.125 -64.267)">
    <g id="Grupo_124607" data-name="Grupo 124607" transform="translate(231.125 64.267)">
      <g id="Grupo_124602" data-name="Grupo 124602" transform="translate(21.906)">
        <path id="Trazado_190387" data-name="Trazado 190387" d="M307.6,93.475l-2.78-1.112a27.885,27.885,0,0,0-20.642,0l-2.78,1.112L262.4,74.48l5.112-2.962a53.826,53.826,0,0,1,53.964,0l5.113,2.962ZM277.476,76.713l6.2,6.2a37.021,37.021,0,0,1,21.636,0l6.2-6.2A45.3,45.3,0,0,0,277.476,76.713Z" transform="translate(-262.402 -64.267)" fill="#fefefe"/>
      </g>
      <g id="Grupo_124603" data-name="Grupo 124603" transform="translate(78.792 21.906)">
        <path id="Trazado_190388" data-name="Trazado 190388" d="M362.619,159.728l-4.177-4.171-12.7-12.7-2.117-2.117,1.112-2.78a27.769,27.769,0,0,0,0-20.641l-1.112-2.78,19-18.993,2.961,5.111a53.823,53.823,0,0,1,0,53.964Zm-8.437-21.272,6.2,6.2a44.723,44.723,0,0,0,0-34.041l-6.2,6.2a36.883,36.883,0,0,1,0,21.636Z" transform="translate(-343.622 -95.544)" fill="#fefefe"/>
      </g>
      <g id="Grupo_124604" data-name="Grupo 124604" transform="translate(21.906 78.791)">
        <path id="Trazado_190389" data-name="Trazado 190389" d="M294.5,205.971a53.9,53.9,0,0,1-26.983-7.253l-5.112-2.961L281.4,176.763l2.78,1.113a27.888,27.888,0,0,0,20.642,0l2.78-1.113,18.994,19-5.113,2.962A53.905,53.905,0,0,1,294.5,205.971Zm-17.021-12.447a45.3,45.3,0,0,0,34.04,0l-6.2-6.2a37.021,37.021,0,0,1-21.636,0Z" transform="translate(-262.402 -176.763)" fill="#fefefe"/>
      </g>
      <g id="Grupo_124605" data-name="Grupo 124605" transform="translate(0 21.91)">
        <path id="Trazado_190390" data-name="Trazado 190390" d="M241.339,159.733l-2.961-5.112a53.818,53.818,0,0,1,0-53.964l2.96-5.108,4.177,4.171,12.7,12.7,2.117,2.117-1.112,2.78a27.769,27.769,0,0,0,0,20.641l1.112,2.78Zm2.231-49.115a44.719,44.719,0,0,0,0,34.041l6.2-6.2a36.883,36.883,0,0,1,0-21.636Z" transform="translate(-231.125 -95.549)" fill="#fefefe"/>
      </g>
      <g id="Grupo_124606" data-name="Grupo 124606" transform="translate(6.811 6.816)">
        <path id="Trazado_190391" data-name="Trazado 190391" d="M322.175,168.372a12.97,12.97,0,0,1-9.23-3.823l-24.905-24.907-24.907,24.907a13.054,13.054,0,0,1-18.46-18.461l24.907-24.906L244.672,96.276a13.053,13.053,0,1,1,18.46-18.46l24.907,24.907,24.905-24.907a13.053,13.053,0,1,1,18.46,18.46L306.5,121.182l24.907,24.906a13.054,13.054,0,0,1-9.23,22.284ZM288.039,126.8l31.326,31.327a4.069,4.069,0,0,0,5.618,0,3.972,3.972,0,0,0,0-5.618l-31.327-31.328,31.326-31.327a3.972,3.972,0,1,0-5.618-5.618l-31.326,31.326L256.711,84.237a3.973,3.973,0,0,0-5.619,5.618l31.328,31.327L251.094,152.51a3.972,3.972,0,0,0,0,5.618,4.07,4.07,0,0,0,5.619,0Z" transform="translate(-240.849 -73.999)" fill="#fefefe"/>
      </g>
    </g>
    <g id="Grupo_124608" data-name="Grupo 124608" transform="translate(235.666 68.807)">
      <path id="Trazado_190392" data-name="Trazado 190392" d="M297.657,87.775a32.25,32.25,0,0,1,12.007,2.313l12.7-12.7a49.283,49.283,0,0,0-49.413,0l12.7,12.7A32.248,32.248,0,0,1,297.657,87.775Z" transform="translate(-248.197 -70.749)" fill="#febf10"/>
      <path id="Trazado_190393" data-name="Trazado 190393" d="M363.928,106.091l-12.7,12.7a32.308,32.308,0,0,1,0,24.014l12.7,12.7a49.283,49.283,0,0,0,0-49.413Z" transform="translate(-271.65 -81.338)" fill="#febf10"/>
      <path id="Trazado_190394" data-name="Trazado 190394" d="M297.657,186.684a32.248,32.248,0,0,1-12.007-2.313l-12.7,12.7a49.279,49.279,0,0,0,49.412,0l-12.7-12.7A32.25,32.25,0,0,1,297.657,186.684Z" transform="translate(-248.197 -104.791)" fill="#febf10"/>
      <path id="Trazado_190395" data-name="Trazado 190395" d="M254.634,130.8a32.248,32.248,0,0,1,2.314-12.007l-12.7-12.7a49.282,49.282,0,0,0,0,49.413l12.7-12.7A32.252,32.252,0,0,1,254.634,130.8Z" transform="translate(-237.608 -81.338)" fill="#febf10"/>
      <path id="Trazado_190396" data-name="Trazado 190396" d="M302.02,123.122l28.116-28.116A8.513,8.513,0,0,0,318.1,82.967l-28.116,28.116L261.864,82.967a8.513,8.513,0,0,0-12.039,12.039l28.116,28.116-28.116,28.117a8.513,8.513,0,1,0,12.039,12.039l28.116-28.116L318.1,163.278a8.513,8.513,0,0,0,12.039-12.039Z" transform="translate(-240.521 -73.663)" fill="#123d60"/>
    </g>
  </g>
</svg>
