<svg xmlns="http://www.w3.org/2000/svg" xmlns:xlink="http://www.w3.org/1999/xlink" width="400" height="351" viewBox="0 0 400 351">
  <defs>
    <linearGradient id="linear-gradient" x1="-0.529" y1="-1.696" x2="2.501" y2="-1.696" gradientUnits="objectBoundingBox">
      <stop offset="0" stop-color="#6986d9"/>
      <stop offset="1" stop-color="#8fb3ff"/>
    </linearGradient>
    <linearGradient id="linear-gradient-2" x1="-0.801" y1="-2.342" x2="3.832" y2="-2.342" xlink:href="#linear-gradient"/>
    <linearGradient id="linear-gradient-3" x1="-1.236" y1="-1.354" x2="1.824" y2="-1.354" xlink:href="#linear-gradient"/>
    <linearGradient id="linear-gradient-4" x1="-0.392" y1="-1.066" x2="1.545" y2="-1.066" xlink:href="#linear-gradient"/>
    <linearGradient id="linear-gradient-5" x1="-0.662" y1="-1.682" x2="2.367" y2="-1.682" xlink:href="#linear-gradient"/>
    <linearGradient id="linear-gradient-6" x1="-2.778" y1="-1.57" x2="1.934" y2="-1.57" xlink:href="#linear-gradient"/>
    <linearGradient id="linear-gradient-7" x1="-0.611" y1="-1.4" x2="1.908" y2="-1.4" xlink:href="#linear-gradient"/>
    <linearGradient id="linear-gradient-8" x1="-3.977" y1="-1.706" x2="2.049" y2="-1.706" xlink:href="#linear-gradient"/>
    <linearGradient id="linear-gradient-9" x1="-0.542" y1="-1.135" x2="1.552" y2="-1.135" xlink:href="#linear-gradient"/>
    <linearGradient id="linear-gradient-10" x1="-0.991" y1="-1.836" x2="2.513" y2="-1.836" xlink:href="#linear-gradient"/>
    <linearGradient id="linear-gradient-11" x1="-1.973" y1="-1.267" x2="1.411" y2="-1.267" xlink:href="#linear-gradient"/>
    <linearGradient id="linear-gradient-12" x1="-1.38" y1="-2.211" x2="3.234" y2="-2.211" xlink:href="#linear-gradient"/>
    <linearGradient id="linear-gradient-13" x1="0.789" y1="4.052" x2="0.789" y2="-0.783" xlink:href="#linear-gradient"/>
    <linearGradient id="linear-gradient-14" x1="0.542" y1="2.449" x2="0.542" y2="-2.385" xlink:href="#linear-gradient"/>
    <linearGradient id="linear-gradient-15" x1="0.295" y1="0.846" x2="0.295" y2="-3.989" xlink:href="#linear-gradient"/>
    <linearGradient id="linear-gradient-16" x1="0.048" y1="-0.756" x2="0.048" y2="-5.591" xlink:href="#linear-gradient"/>
    <linearGradient id="linear-gradient-17" x1="3.753" y1="51.536" x2="1.4" y2="60.347" xlink:href="#linear-gradient"/>
    <linearGradient id="linear-gradient-18" x1="4.025" y1="53.598" x2="1.507" y2="62.799" xlink:href="#linear-gradient"/>
    <linearGradient id="linear-gradient-19" x1="8.318" y1="77.302" x2="3.123" y2="90.899" xlink:href="#linear-gradient"/>
    <linearGradient id="linear-gradient-20" x1="11.697" y1="96.539" x2="3.308" y2="112.961" xlink:href="#linear-gradient"/>
    <linearGradient id="linear-gradient-21" x1="4.923" y1="59.282" x2="1.883" y2="69.583" xlink:href="#linear-gradient"/>
    <linearGradient id="linear-gradient-22" x1="5.965" y1="65.456" x2="2.29" y2="76.915" xlink:href="#linear-gradient"/>
    <linearGradient id="linear-gradient-23" x1="8.449" y1="76.893" x2="3.255" y2="90.492" xlink:href="#linear-gradient"/>
    <linearGradient id="linear-gradient-24" x1="7.415" y1="80.393" x2="2.195" y2="94.027" xlink:href="#linear-gradient"/>
    <linearGradient id="linear-gradient-25" x1="8.489" y1="88.49" x2="2.148" y2="103.313" xlink:href="#linear-gradient"/>
    <linearGradient id="linear-gradient-26" x1="5.759" y1="63.684" x2="2.252" y2="74.86" xlink:href="#linear-gradient"/>
    <linearGradient id="linear-gradient-27" x1="4.147" y1="53.031" x2="1.629" y2="62.226" xlink:href="#linear-gradient"/>
    <linearGradient id="linear-gradient-28" x1="8.57" y1="76.555" x2="3.375" y2="90.16" xlink:href="#linear-gradient"/>
    <linearGradient id="linear-gradient-29" x1="11.222" y1="97.687" x2="2.85" y2="114.129" xlink:href="#linear-gradient"/>
    <linearGradient id="linear-gradient-30" x1="8.977" y1="77.561" x2="3.584" y2="91.399" xlink:href="#linear-gradient"/>
    <linearGradient id="linear-gradient-31" x1="5.95" y1="63.865" x2="2.386" y2="75.142" xlink:href="#linear-gradient"/>
    <linearGradient id="linear-gradient-32" x1="10.001" y1="80.658" x2="4.021" y2="95.106" xlink:href="#linear-gradient"/>
    <linearGradient id="linear-gradient-33" x1="7.656" y1="79.641" x2="2.435" y2="93.276" xlink:href="#linear-gradient"/>
    <linearGradient id="linear-gradient-34" x1="6.171" y1="72.574" x2="1.94" y2="84.915" xlink:href="#linear-gradient"/>
    <linearGradient id="linear-gradient-35" x1="8.813" y1="87.632" x2="2.446" y2="102.446" xlink:href="#linear-gradient"/>
    <linearGradient id="linear-gradient-36" x1="5.449" y1="6.112" x2="6.456" y2="6.112" xlink:href="#linear-gradient"/>
    <linearGradient id="linear-gradient-37" x1="0.5" y1="0.166" x2="0.5" y2="0.911" gradientUnits="objectBoundingBox">
      <stop offset="0.015" stop-color="#fff"/>
      <stop offset="0.999" stop-color="#e1e7ff"/>
    </linearGradient>
    <linearGradient id="linear-gradient-38" x1="2.194" y1="-1.567" x2="1.454" y2="-0.38" xlink:href="#linear-gradient-37"/>
  </defs>
  <g id="Grupo_124570" data-name="Grupo 124570" transform="translate(-915 -1562)">
    <g id="Grupo_121786" data-name="Grupo 121786" transform="translate(0 -2266)">
      <rect id="Rect치ngulo_43207" data-name="Rect치ngulo 43207" width="388" height="339" rx="29" transform="translate(927 3840)" fill="#febf10"/>
      <rect id="Rect치ngulo_43206" data-name="Rect치ngulo 43206" width="388" height="340" rx="29" transform="translate(915 3828)" fill="#eeeffb"/>
      <g id="Grupo_124337" data-name="Grupo 124337" transform="translate(1102.166 3782.17)">
        <g id="Grupo_124311" data-name="Grupo 124311" transform="translate(-156.842 86.521)">
          <path id="Trazado_189492" data-name="Trazado 189492" d="M-3.31,261.719a3.228,3.228,0,0,1-2.7,3.683l-121.417,18.727a3.229,3.229,0,0,1-3.684-2.7L-156.8,114.85a3.231,3.231,0,0,1,2.7-3.685L-32.688,92.438A3.229,3.229,0,0,1-29,95.137Z" transform="translate(156.842 -88.341)" fill="#f9e424"/>
          <path id="Trazado_189493" data-name="Trazado 189493" d="M-8.046,251.236a3.23,3.23,0,0,1-2.7,3.685L-121.51,272a3.229,3.229,0,0,1-3.685-2.7l-22.943-148.752a3.229,3.229,0,0,1,2.7-3.684L-34.674,99.784a3.23,3.23,0,0,1,3.684,2.7Z" transform="translate(154.159 -90.615)" fill="#fff"/>
          <g id="Grupo_124303" data-name="Grupo 124303" transform="translate(39.168)">
            <path id="Trazado_189494" data-name="Trazado 189494" d="M-58.56,92.226l-9.649,1.488a8.487,8.487,0,0,0-9.681-7.094A8.486,8.486,0,0,0-84.983,96.3l-9.649,1.488a6.459,6.459,0,0,0-5.4,7.368l.083.536a6.459,6.459,0,0,0,7.368,5.4l36.073-5.564a6.46,6.46,0,0,0,5.4-7.369l-.082-.536A6.46,6.46,0,0,0-58.56,92.226Zm-17.471,6.443a3.883,3.883,0,0,1-4.428-3.244A3.881,3.881,0,0,1-77.215,91a3.881,3.881,0,0,1,4.427,3.243A3.882,3.882,0,0,1-76.032,98.669Z" transform="translate(100.109 -86.521)" fill="#242ca3"/>
          </g>
          <g id="Grupo_124304" data-name="Grupo 124304" transform="translate(22.935 39.283)" opacity="0.5">
            <path id="Trazado_189495" data-name="Trazado 189495" d="M-85.842,145.9a2.922,2.922,0,0,1-2.443,3.335l-31.685,4.887a2.923,2.923,0,0,1-3.334-2.443h0a2.923,2.923,0,0,1,2.443-3.334l31.686-4.887a2.922,2.922,0,0,1,3.333,2.443Z" transform="translate(123.533 -143.421)" fill="url(#linear-gradient)"/>
            <path id="Trazado_189496" data-name="Trazado 189496" d="M-99.107,175.582a2.921,2.921,0,0,1-2.442,3.333l-18.7,2.885a2.924,2.924,0,0,1-3.335-2.443h0a2.924,2.924,0,0,1,2.444-3.335l18.7-2.884a2.922,2.922,0,0,1,3.333,2.443Z" transform="translate(123.621 -152.611)" fill="url(#linear-gradient-2)"/>
            <path id="Trazado_189497" data-name="Trazado 189497" d="M-48.433,166.893a2.924,2.924,0,0,1-2.443,3.334l-31.32,4.831a2.922,2.922,0,0,1-3.334-2.443h0a2.922,2.922,0,0,1,2.443-3.334l31.32-4.831a2.923,2.923,0,0,1,3.334,2.443Z" transform="translate(111.838 -149.921)" fill="url(#linear-gradient-3)"/>
            <path id="Trazado_189498" data-name="Trazado 189498" d="M-60.094,199.39a2.921,2.921,0,0,1-2.442,3.333l-52.867,8.155a2.923,2.923,0,0,1-3.335-2.443h0a2.923,2.923,0,0,1,2.443-3.335l52.867-8.154a2.922,2.922,0,0,1,3.333,2.443Z" transform="translate(122.119 -159.983)" fill="url(#linear-gradient-4)"/>
            <path id="Trazado_189499" data-name="Trazado 189499" d="M-78.6,221.469a2.921,2.921,0,0,1-2.443,3.334l-31.685,4.887a2.924,2.924,0,0,1-3.335-2.443h0a2.924,2.924,0,0,1,2.444-3.335l31.684-4.887a2.921,2.921,0,0,1,3.334,2.443Z" transform="translate(121.291 -166.819)" fill="url(#linear-gradient-5)"/>
            <path id="Trazado_189500" data-name="Trazado 189500" d="M-30.882,215.036a2.922,2.922,0,0,1-2.443,3.333l-18.293,2.822a2.922,2.922,0,0,1-3.333-2.443h0a2.922,2.922,0,0,1,2.443-3.335l18.293-2.822a2.923,2.923,0,0,1,3.334,2.443Z" transform="translate(102.37 -164.827)" fill="url(#linear-gradient-6)"/>
            <path id="Trazado_189501" data-name="Trazado 189501" d="M-67.027,245.422a2.922,2.922,0,0,1-2.443,3.334l-39.3,6.062a2.923,2.923,0,0,1-3.335-2.443h0a2.923,2.923,0,0,1,2.444-3.334l39.3-6.062a2.922,2.922,0,0,1,3.333,2.443Z" transform="translate(120.066 -174.236)" fill="url(#linear-gradient-7)"/>
            <path id="Trazado_189502" data-name="Trazado 189502" d="M-24.563,240.69a2.923,2.923,0,0,1-2.443,3.335l-13.026,2.009a2.924,2.924,0,0,1-3.335-2.443h0a2.923,2.923,0,0,1,2.444-3.334l13.025-2.009a2.922,2.922,0,0,1,3.334,2.443Z" transform="translate(98.783 -172.77)" fill="url(#linear-gradient-8)"/>
            <path id="Trazado_189503" data-name="Trazado 189503" d="M-55.205,260.726a2.922,2.922,0,0,1-2.442,3.334l-48.447,7.472a2.922,2.922,0,0,1-3.335-2.443h0a2.922,2.922,0,0,1,2.443-3.333l48.447-7.473a2.922,2.922,0,0,1,3.333,2.443Z" transform="translate(119.237 -178.974)" fill="url(#linear-gradient-9)"/>
            <path id="Trazado_189504" data-name="Trazado 189504" d="M-73.085,291.258a2.923,2.923,0,0,1-2.443,3.335l-26.609,4.1a2.923,2.923,0,0,1-3.335-2.443h0a2.923,2.923,0,0,1,2.443-3.334l26.609-4.1a2.922,2.922,0,0,1,3.334,2.442Z" transform="translate(118.012 -188.428)" fill="url(#linear-gradient-10)"/>
            <path id="Trazado_189505" data-name="Trazado 189505" d="M-22.487,283.375a2.923,2.923,0,0,1-2.444,3.335l-27.759,4.281a2.922,2.922,0,0,1-3.335-2.443h0a2.923,2.923,0,0,1,2.443-3.333l27.76-4.282a2.922,2.922,0,0,1,3.335,2.443Z" transform="translate(102.703 -185.987)" fill="url(#linear-gradient-11)"/>
            <path id="Trazado_189506" data-name="Trazado 189506" d="M-78.219,310.35a2.923,2.923,0,0,1-2.443,3.335l-18.8,2.9a2.924,2.924,0,0,1-3.335-2.444h0a2.923,2.923,0,0,1,2.444-3.332l18.8-2.9a2.922,2.922,0,0,1,3.333,2.442Z" transform="translate(117.184 -194.339)" fill="url(#linear-gradient-12)"/>
          </g>
          <g id="Grupo_124305" data-name="Grupo 124305" transform="translate(94.479 41.138)">
            <path id="Trazado_189507" data-name="Trazado 189507" d="M-6.285,147.423a1.94,1.94,0,0,1,2.211,1.62l1.662,10.772a1.94,1.94,0,0,1-1.62,2.21L-14.8,163.687a1.94,1.94,0,0,1-2.211-1.62L-18.677,151.3a1.94,1.94,0,0,1,1.62-2.21l10.771-1.662m-.2-1.277-10.771,1.661a3.231,3.231,0,0,0-2.7,3.685l1.661,10.771a3.232,3.232,0,0,0,3.685,2.7L-3.836,163.3a3.231,3.231,0,0,0,2.7-3.685L-2.8,148.846a3.23,3.23,0,0,0-3.685-2.7Z" transform="translate(19.991 -146.109)" fill="url(#linear-gradient-13)"/>
            <path id="Trazado_189508" data-name="Trazado 189508" d="M.481,191.289a1.939,1.939,0,0,1,2.211,1.62L4.353,203.68a1.94,1.94,0,0,1-1.62,2.211l-10.771,1.662a1.94,1.94,0,0,1-2.211-1.62l-1.662-10.772a1.941,1.941,0,0,1,1.62-2.211L.481,191.289m-.2-1.277-10.771,1.662a3.231,3.231,0,0,0-2.7,3.685l1.662,10.771a3.23,3.23,0,0,0,3.685,2.7L2.93,207.168a3.23,3.23,0,0,0,2.7-3.684L3.968,192.712a3.231,3.231,0,0,0-3.684-2.7Z" transform="translate(17.896 -159.69)" fill="url(#linear-gradient-14)"/>
            <path id="Trazado_189509" data-name="Trazado 189509" d="M7.247,235.155a1.939,1.939,0,0,1,2.211,1.619l1.661,10.773a1.939,1.939,0,0,1-1.62,2.21l-10.771,1.661a1.939,1.939,0,0,1-2.211-1.62l-1.662-10.771a1.939,1.939,0,0,1,1.62-2.21l10.771-1.662m-.2-1.277L-3.721,235.54a3.23,3.23,0,0,0-2.7,3.684L-4.76,250a3.23,3.23,0,0,0,3.685,2.7L9.7,251.033a3.229,3.229,0,0,0,2.7-3.684l-1.661-10.772a3.23,3.23,0,0,0-3.685-2.7Z" transform="translate(15.802 -173.272)" fill="url(#linear-gradient-15)"/>
            <path id="Trazado_189510" data-name="Trazado 189510" d="M14.012,279.02a1.941,1.941,0,0,1,2.211,1.62l1.661,10.772a1.939,1.939,0,0,1-1.62,2.21L5.494,295.284a1.941,1.941,0,0,1-2.211-1.62L1.621,282.892a1.94,1.94,0,0,1,1.62-2.21l10.771-1.662m-.2-1.277L3.044,279.406a3.23,3.23,0,0,0-2.7,3.685l1.661,10.771a3.232,3.232,0,0,0,3.685,2.7L16.462,294.9a3.232,3.232,0,0,0,2.7-3.685L17.5,280.443a3.23,3.23,0,0,0-3.685-2.7Z" transform="translate(13.707 -186.854)" fill="url(#linear-gradient-16)"/>
          </g>
          <g id="Grupo_124310" data-name="Grupo 124310" transform="translate(91.671 30.232)">
            <g id="Grupo_124306" data-name="Grupo 124306">
              <path id="Trazado_189511" data-name="Trazado 189511" d="M-10.853,154.09a1.858,1.858,0,0,1-1.314-.292l-11.069-7.419a1.853,1.853,0,0,1-.508-2.571,1.854,1.854,0,0,1,2.571-.508l9.459,6.338L-.529,131.2a1.854,1.854,0,0,1,3.17,1.923L-9.552,153.22a1.857,1.857,0,0,1-1.184.848Z" transform="translate(24.058 -130.31)" fill="#757ac6"/>
            </g>
            <g id="Grupo_124307" data-name="Grupo 124307" transform="translate(4.802 31.13)">
              <path id="Trazado_189512" data-name="Trazado 189512" d="M-3.9,199.182a1.861,1.861,0,0,1-1.314-.292l-11.069-7.419a1.853,1.853,0,0,1-.508-2.571,1.854,1.854,0,0,1,2.571-.508l9.46,6.338L6.426,176.294a1.854,1.854,0,1,1,3.17,1.923L-2.6,198.312a1.857,1.857,0,0,1-1.184.848C-3.82,199.169-3.86,199.176-3.9,199.182Z" transform="translate(17.103 -175.402)" fill="#757ac6"/>
            </g>
            <g id="Grupo_124308" data-name="Grupo 124308" transform="translate(9.603 62.261)">
              <path id="Trazado_189513" data-name="Trazado 189513" d="M3.057,244.274a1.851,1.851,0,0,1-1.314-.293l-11.069-7.418a1.852,1.852,0,0,1-.508-2.57,1.855,1.855,0,0,1,2.572-.509L2.2,239.823,13.38,221.386a1.854,1.854,0,0,1,3.17,1.923L4.359,243.4a1.859,1.859,0,0,1-1.185.849C3.135,244.261,3.1,244.269,3.057,244.274Z" transform="translate(10.148 -220.495)" fill="#757ac6"/>
            </g>
            <g id="Grupo_124309" data-name="Grupo 124309" transform="translate(14.404 93.391)">
              <path id="Trazado_189514" data-name="Trazado 189514" d="M10.012,289.366a1.868,1.868,0,0,1-1.314-.291l-11.069-7.419a1.855,1.855,0,0,1-.508-2.573,1.854,1.854,0,0,1,2.571-.506l9.459,6.337,11.186-18.435a1.853,1.853,0,1,1,3.17,1.922L11.314,288.5a1.86,1.86,0,0,1-1.185.848Z" transform="translate(3.194 -265.586)" fill="#757ac6"/>
            </g>
          </g>
        </g>
        <g id="Grupo_124319" data-name="Grupo 124319" transform="translate(-101.203 156.431)">
          <path id="Trazado_189515" data-name="Trazado 189515" d="M29.664,321.412a3.565,3.565,0,0,1-3.483,3.645l-95.828,2.18a3.565,3.565,0,0,1-3.644-3.484l-2.958-130.144a3.564,3.564,0,0,1,3.483-3.645l95.827-2.177a3.564,3.564,0,0,1,3.645,3.482Z" transform="translate(76.249 -187.785)" fill="#e9eef4"/>
          <g id="Grupo_124312" data-name="Grupo 124312" transform="translate(11.639 15.988)">
            <path id="Trazado_189516" data-name="Trazado 189516" d="M-51.616,212.37a6.5,6.5,0,0,1,6.641,6.347,6.5,6.5,0,0,1-6.346,6.641,6.5,6.5,0,0,1-6.642-6.347,6.5,6.5,0,0,1,6.347-6.641m-.033-1.425a7.922,7.922,0,0,0-7.74,8.1,7.923,7.923,0,0,0,8.1,7.74,7.922,7.922,0,0,0,7.74-8.1,7.921,7.921,0,0,0-8.1-7.738Z" transform="translate(59.391 -210.943)" fill="#fff"/>
            <path id="Trazado_189517" data-name="Trazado 189517" d="M-50.595,257.3a6.5,6.5,0,0,1,6.641,6.348A6.5,6.5,0,0,1-50.3,270.29a6.5,6.5,0,0,1-6.641-6.347,6.506,6.506,0,0,1,6.347-6.644m-.033-1.423a7.919,7.919,0,0,0-7.739,8.1,7.921,7.921,0,0,0,8.1,7.74,7.92,7.92,0,0,0,7.739-8.1,7.92,7.92,0,0,0-8.1-7.738Z" transform="translate(59.075 -224.854)" fill="#fff"/>
            <path id="Trazado_189518" data-name="Trazado 189518" d="M-49.636,297.973a6.5,6.5,0,0,1,6.641,6.346,6.5,6.5,0,0,1-6.347,6.642,6.5,6.5,0,0,1-6.642-6.345,6.505,6.505,0,0,1,6.347-6.643m-.033-1.425a7.921,7.921,0,0,0-7.739,8.1,7.924,7.924,0,0,0,8.1,7.742,7.926,7.926,0,0,0,7.741-8.1,7.923,7.923,0,0,0-8.1-7.738Z" transform="translate(58.778 -237.447)" fill="#fff"/>
            <path id="Trazado_189519" data-name="Trazado 189519" d="M-48.746,338.648A6.5,6.5,0,0,1-42.1,345a6.5,6.5,0,0,1-6.347,6.641,6.5,6.5,0,0,1-6.642-6.345,6.5,6.5,0,0,1,6.347-6.644m-.032-1.426a7.924,7.924,0,0,0-7.741,8.1,7.923,7.923,0,0,0,8.1,7.741,7.924,7.924,0,0,0,7.741-8.1,7.925,7.925,0,0,0-8.1-7.741Z" transform="translate(58.502 -250.041)" fill="#fff"/>
          </g>
          <g id="Grupo_124313" data-name="Grupo 124313" transform="translate(36.25 16.936)">
            <path id="Trazado_189520" data-name="Trazado 189520" d="M-23.378,214.273,31.4,213.028a.356.356,0,0,0-.016-.712l-54.778,1.244a.357.357,0,0,0-.349.365A.356.356,0,0,0-23.378,214.273Z" transform="translate(23.742 -212.316)" fill="url(#linear-gradient-17)"/>
            <path id="Trazado_189521" data-name="Trazado 189521" d="M-23.213,221.526l51.147-1.161a.357.357,0,1,0-.017-.713l-51.147,1.162a.356.356,0,0,0-.347.365A.354.354,0,0,0-23.213,221.526Z" transform="translate(23.691 -214.587)" fill="url(#linear-gradient-18)"/>
            <path id="Trazado_189522" data-name="Trazado 189522" d="M-23.049,229.017l24.419-.556a.356.356,0,0,0-.017-.712l-24.418.554a.358.358,0,0,0-.349.365A.359.359,0,0,0-23.049,229.017Z" transform="translate(23.641 -217.094)" fill="url(#linear-gradient-19)"/>
            <path id="Trazado_189523" data-name="Trazado 189523" d="M16.606,227.5a.356.356,0,0,0,.017.712l14.85-.338a.356.356,0,0,0-.016-.712Z" transform="translate(11.357 -216.912)" fill="url(#linear-gradient-20)"/>
            <path id="Trazado_189524" data-name="Trazado 189524" d="M-22.356,259.331l42.239-.96a.357.357,0,0,0-.018-.715l-42.237.961a.356.356,0,0,0-.348.363A.356.356,0,0,0-22.356,259.331Z" transform="translate(23.426 -226.354)" fill="url(#linear-gradient-21)"/>
            <path id="Trazado_189525" data-name="Trazado 189525" d="M-22.193,266.623l34.813-.792a.357.357,0,0,0-.015-.713l-34.814.792a.357.357,0,0,0-.349.365A.356.356,0,0,0-22.193,266.623Z" transform="translate(23.375 -228.664)" fill="url(#linear-gradient-22)"/>
            <path id="Trazado_189526" data-name="Trazado 189526" d="M-22.028,273.945l24.419-.554a.357.357,0,0,0-.016-.715l-24.419.556a.356.356,0,0,0-.349.364A.358.358,0,0,0-22.028,273.945Z" transform="translate(23.324 -231.005)" fill="url(#linear-gradient-23)"/>
            <path id="Trazado_189527" data-name="Trazado 189527" d="M42.286,272.129a.354.354,0,0,0-.363-.349l-24.3.552a.356.356,0,1,0,.017.712l24.294-.552A.355.355,0,0,0,42.286,272.129Z" transform="translate(11.041 -230.727)" fill="url(#linear-gradient-24)"/>
            <path id="Trazado_189528" data-name="Trazado 189528" d="M32,265.187a.355.355,0,0,0,.364.349l19.875-.452a.356.356,0,1,0-.017-.711l-19.874.451A.355.355,0,0,0,32,265.187Z" transform="translate(6.485 -228.433)" fill="url(#linear-gradient-25)"/>
            <path id="Trazado_189529" data-name="Trazado 189529" d="M-21.431,300.064l36.514-.831a.356.356,0,1,0-.017-.712l-36.514.83a.357.357,0,0,0-.348.365A.357.357,0,0,0-21.431,300.064Z" transform="translate(23.14 -239.007)" fill="url(#linear-gradient-26)"/>
            <path id="Trazado_189530" data-name="Trazado 189530" d="M-21.267,307.132l51.148-1.161a.357.357,0,0,0-.016-.715l-51.148,1.163a.357.357,0,0,0-.349.365A.357.357,0,0,0-21.267,307.132Z" transform="translate(23.089 -241.092)" fill="url(#linear-gradient-27)"/>
            <path id="Trazado_189531" data-name="Trazado 189531" d="M-21.1,314.619l24.419-.554a.357.357,0,0,0-.016-.713l-24.42.556a.356.356,0,0,0-.348.364A.357.357,0,0,0-21.1,314.619Z" transform="translate(23.038 -243.599)" fill="url(#linear-gradient-28)"/>
            <path id="Trazado_189532" data-name="Trazado 189532" d="M36.355,298.969l14.883-.336a.358.358,0,0,0,.348-.366.354.354,0,0,0-.364-.347l-14.883.338a.356.356,0,1,0,.015.711Z" transform="translate(5.248 -238.821)" fill="url(#linear-gradient-29)"/>
            <path id="Trazado_189533" data-name="Trazado 189533" d="M-20.507,340.871l23.494-.533a.357.357,0,0,0-.016-.713l-23.5.534a.355.355,0,0,0-.348.365A.357.357,0,0,0-20.507,340.871Z" transform="translate(22.853 -251.733)" fill="url(#linear-gradient-30)"/>
            <path id="Trazado_189534" data-name="Trazado 189534" d="M-20.343,347.961l35.918-.817a.356.356,0,0,0-.017-.712l-35.917.816a.358.358,0,0,0-.349.364A.358.358,0,0,0-20.343,347.961Z" transform="translate(22.802 -253.841)" fill="url(#linear-gradient-31)"/>
            <path id="Trazado_189535" data-name="Trazado 189535" d="M.923,354.135l-21.118.48a.36.36,0,0,0-.349.365.358.358,0,0,0,.365.349l21.118-.481a.357.357,0,1,0-.016-.713Z" transform="translate(22.752 -256.226)" fill="url(#linear-gradient-32)"/>
            <path id="Trazado_189536" data-name="Trazado 189536" d="M43.772,353.131l-24.3.55a.357.357,0,0,0,.017.715l24.3-.553a.359.359,0,0,0,.348-.365A.353.353,0,0,0,43.772,353.131Z" transform="translate(10.469 -255.915)" fill="url(#linear-gradient-33)"/>
            <path id="Trazado_189537" data-name="Trazado 189537" d="M49.3,338.5l-30.148.685a.356.356,0,1,0,.017.712l30.148-.686a.356.356,0,1,0-.017-.711Z" transform="translate(10.57 -251.386)" fill="url(#linear-gradient-34)"/>
            <path id="Trazado_189538" data-name="Trazado 189538" d="M54.105,345.72l-19.79.449a.357.357,0,0,0,.015.715l19.792-.45a.357.357,0,1,0-.017-.714Z" transform="translate(5.875 -253.62)" fill="url(#linear-gradient-35)"/>
          </g>
          <g id="Grupo_124318" data-name="Grupo 124318" transform="translate(9.464 7.695)">
            <g id="Grupo_124314" data-name="Grupo 124314" transform="translate(0.744 32.728)">
              <path id="Trazado_189539" data-name="Trazado 189539" d="M-51.334,265.09a1.584,1.584,0,0,1-1.076-.391l-8.517-7.482a1.575,1.575,0,0,1-.144-2.223,1.575,1.575,0,0,1,2.225-.144l7.277,6.391L-40.1,246.927a1.579,1.579,0,0,1,2.218-.245,1.578,1.578,0,0,1,.244,2.217l-12.5,15.6a1.578,1.578,0,0,1-1.093.585C-51.266,265.088-51.3,265.09-51.334,265.09Z" transform="translate(61.462 -246.337)" fill="#757ac6"/>
            </g>
            <g id="Grupo_124315" data-name="Grupo 124315">
              <path id="Trazado_189540" data-name="Trazado 189540" d="M-52.412,217.684a1.571,1.571,0,0,1-1.076-.391l-8.517-7.48a1.578,1.578,0,0,1-.144-2.225,1.579,1.579,0,0,1,2.226-.145l7.277,6.393,11.472-14.314a1.576,1.576,0,0,1,2.216-.245,1.577,1.577,0,0,1,.244,2.217l-12.5,15.6a1.578,1.578,0,0,1-1.093.584C-52.343,217.682-52.379,217.684-52.412,217.684Z" transform="translate(62.54 -198.93)" fill="#757ac6"/>
            </g>
            <g id="Grupo_124316" data-name="Grupo 124316" transform="translate(1.375 60.453)">
              <path id="Trazado_189541" data-name="Trazado 189541" d="M-50.421,305.249a1.577,1.577,0,0,1-1.076-.391l-8.517-7.481a1.576,1.576,0,0,1-.144-2.224,1.578,1.578,0,0,1,2.225-.146l7.277,6.393,11.473-14.315a1.579,1.579,0,0,1,2.216-.244,1.579,1.579,0,0,1,.244,2.218l-12.5,15.6a1.577,1.577,0,0,1-1.094.585C-50.353,305.246-50.388,305.249-50.421,305.249Z" transform="translate(60.549 -286.495)" fill="#757ac6"/>
            </g>
            <g id="Grupo_124317" data-name="Grupo 124317" transform="translate(1.99 87.544)">
              <path id="Trazado_189542" data-name="Trazado 189542" d="M-49.529,344.49a1.573,1.573,0,0,1-1.076-.391l-8.517-7.48a1.578,1.578,0,0,1-.144-2.225,1.58,1.58,0,0,1,2.226-.146l7.277,6.393,11.471-14.313a1.574,1.574,0,0,1,2.215-.244,1.576,1.576,0,0,1,.246,2.215l-12.5,15.6a1.573,1.573,0,0,1-1.094.584A.593.593,0,0,1-49.529,344.49Z" transform="translate(59.658 -325.737)" fill="url(#linear-gradient-36)"/>
            </g>
          </g>
        </g>
        <g id="Grupo_124320" data-name="Grupo 124320" transform="translate(-13.911 90.176)">
          <path id="Trazado_189543" data-name="Trazado 189543" d="M153.115,98.483a6.668,6.668,0,0,1-6.668,6.668H56.859a6.668,6.668,0,0,1-6.668-6.668h0a6.668,6.668,0,0,1,6.668-6.668h89.589a6.668,6.668,0,0,1,6.668,6.668Z" transform="translate(-50.191 -91.815)" fill="url(#linear-gradient-37)"/>
          <path id="Trazado_189544" data-name="Trazado 189544" d="M190.847,98.483a6.668,6.668,0,0,0-6.668-6.668H172.057V105.15h12.122A6.668,6.668,0,0,0,190.847,98.483Z" transform="translate(-87.923 -91.815)" fill="#d8e5fe"/>
          <path id="Trazado_189545" data-name="Trazado 189545" d="M185.8,96.859a2.862,2.862,0,1,0-.37,4.33l2.158,2.188a.442.442,0,1,0,.63-.621l-2.158-2.187A2.864,2.864,0,0,0,185.8,96.859Zm-.65,3.417a1.977,1.977,0,1,1,.019-2.8A1.981,1.981,0,0,1,185.149,100.277Z" transform="translate(-90.661 -93.113)" fill="#fff"/>
        </g>
        <g id="Grupo_124323" data-name="Grupo 124323" transform="translate(-32.591 144.838)">
          <path id="Trazado_189546" data-name="Trazado 189546" d="M109.714,381.734a3.43,3.43,0,0,1-4.829.45L24.372,315.369a3.431,3.431,0,0,1-.449-4.831L118.34,196.765a3.429,3.429,0,0,1,4.829-.45l80.513,66.816a3.43,3.43,0,0,1,.45,4.829Z" transform="translate(-23.133 -178.588)" fill="#fff"/>
          <path id="Trazado_189547" data-name="Trazado 189547" d="M125.364,356.39a3.429,3.429,0,0,1-4.679,1.278L29.813,305.817a3.43,3.43,0,0,1-1.279-4.681l73.273-128.413a3.43,3.43,0,0,1,4.679-1.28L197.358,223.3a3.428,3.428,0,0,1,1.279,4.679Z" transform="translate(-24.665 -170.992)" fill="#bec6d0"/>
          <g id="Grupo_124321" data-name="Grupo 124321" transform="translate(16.792 17.622)">
            <path id="Trazado_189548" data-name="Trazado 189548" d="M134.878,197.158l79.147,45.161a.343.343,0,1,0,.341-.6l-79.147-45.161a.343.343,0,0,0-.341.6Z" transform="translate(-74.47 -196.517)" fill="#e9eef4"/>
            <path id="Trazado_189549" data-name="Trazado 189549" d="M129.746,206.152l50.1,28.589a.343.343,0,1,0,.34-.6l-50.1-28.589a.343.343,0,1,0-.34.6Z" transform="translate(-72.881 -199.302)" fill="#e9eef4"/>
            <path id="Trazado_189550" data-name="Trazado 189550" d="M206.329,249.061a.343.343,0,1,0-.34.6l24.629,14.053a.342.342,0,1,0,.34-.594Z" transform="translate(-96.487 -212.771)" fill="#e9eef4"/>
            <path id="Trazado_189551" data-name="Trazado 189551" d="M124.614,215.147l69.917,39.894a.342.342,0,1,0,.34-.594l-69.917-39.9a.343.343,0,0,0-.34.6Z" transform="translate(-71.292 -202.086)" fill="#e9eef4"/>
            <path id="Trazado_189552" data-name="Trazado 189552" d="M119.482,224.142,177.4,257.191a.342.342,0,1,0,.34-.594l-57.921-33.051a.343.343,0,1,0-.34.6Z" transform="translate(-69.703 -204.871)" fill="#e9eef4"/>
            <path id="Trazado_189553" data-name="Trazado 189553" d="M114.35,233.136l71.7,40.915a.343.343,0,1,0,.34-.6l-71.7-40.916a.343.343,0,0,0-.34.6Z" transform="translate(-68.114 -207.656)" fill="#e9eef4"/>
            <path id="Trazado_189554" data-name="Trazado 189554" d="M109.217,242.132,169.2,276.359a.344.344,0,0,0,.34-.6l-59.986-34.226a.343.343,0,0,0-.34.6Z" transform="translate(-66.525 -210.441)" fill="#e9eef4"/>
            <path id="Trazado_189555" data-name="Trazado 189555" d="M104.085,251.125l66.343,37.856a.344.344,0,0,0,.34-.6L104.424,250.53a.343.343,0,0,0-.34.6Z" transform="translate(-64.936 -213.226)" fill="#e9eef4"/>
            <path id="Trazado_189556" data-name="Trazado 189556" d="M98.953,260.12l53.929,30.774a.343.343,0,0,0,.34-.6l-53.93-30.772a.342.342,0,1,0-.339.6Z" transform="translate(-63.346 -216.011)" fill="#e9eef4"/>
            <path id="Trazado_189557" data-name="Trazado 189557" d="M182.875,307.217a.343.343,0,1,0-.34.6l12.713,7.252a.342.342,0,1,0,.34-.594Z" transform="translate(-89.225 -230.778)" fill="#e9eef4"/>
            <path id="Trazado_189558" data-name="Trazado 189558" d="M93.819,269.114l75.642,43.162a.343.343,0,1,0,.339-.6L94.16,268.519a.343.343,0,1,0-.341.6Z" transform="translate(-61.757 -218.796)" fill="#e9eef4"/>
            <path id="Trazado_189559" data-name="Trazado 189559" d="M168.175,322.676,89.027,277.514a.343.343,0,1,0-.34.6l79.147,45.161a.343.343,0,1,0,.34-.6Z" transform="translate(-60.169 -221.581)" fill="#e9eef4"/>
            <path id="Trazado_189560" data-name="Trazado 189560" d="M83.555,287.1l50.1,28.589a.343.343,0,1,0,.341-.6L83.9,286.509a.343.343,0,1,0-.34.6Z" transform="translate(-58.58 -224.366)" fill="#e9eef4"/>
            <path id="Trazado_189561" data-name="Trazado 189561" d="M184.768,344.066l-24.631-14.054a.343.343,0,0,0-.34.6l24.63,14.055a.344.344,0,0,0,.34-.6Z" transform="translate(-82.186 -237.836)" fill="#e9eef4"/>
            <path id="Trazado_189562" data-name="Trazado 189562" d="M78.423,296.1l69.918,39.895a.343.343,0,0,0,.34-.6L78.763,295.5a.343.343,0,1,0-.34.6Z" transform="translate(-56.991 -227.151)" fill="#e9eef4"/>
            <path id="Trazado_189563" data-name="Trazado 189563" d="M73.291,305.093l57.922,33.051a.343.343,0,1,0,.339-.6L73.632,304.5a.343.343,0,0,0-.34.6Z" transform="translate(-55.401 -229.935)" fill="#e9eef4"/>
            <path id="Trazado_189564" data-name="Trazado 189564" d="M68.158,314.088,139.863,355a.343.343,0,1,0,.34-.6L68.5,313.491a.344.344,0,0,0-.34.6Z" transform="translate(-53.812 -232.721)" fill="#e9eef4"/>
            <path id="Trazado_189565" data-name="Trazado 189565" d="M63.026,323.083l59.985,34.228a.343.343,0,0,0,.34-.6L63.366,322.487a.343.343,0,1,0-.34.6Z" transform="translate(-52.223 -235.506)" fill="#e9eef4"/>
            <path id="Trazado_189566" data-name="Trazado 189566" d="M57.894,332.076l66.343,37.854a.342.342,0,0,0,.34-.594L58.235,331.48a.344.344,0,0,0-.341.6Z" transform="translate(-50.634 -238.29)" fill="#e9eef4"/>
            <path id="Trazado_189567" data-name="Trazado 189567" d="M52.762,341.071l53.93,30.772a.343.343,0,1,0,.34-.6L53.1,340.476a.339.339,0,0,0-.467.126A.343.343,0,0,0,52.762,341.071Z" transform="translate(-49.045 -241.075)" fill="#e9eef4"/>
            <path id="Trazado_189568" data-name="Trazado 189568" d="M136.684,388.166a.344.344,0,0,0-.34.6l12.713,7.253a.343.343,0,1,0,.339-.6Z" transform="translate(-74.924 -255.841)" fill="#e9eef4"/>
            <path id="Trazado_189569" data-name="Trazado 189569" d="M123.611,392.63,47.969,349.47a.343.343,0,0,0-.34.6l75.641,43.161a.343.343,0,0,0,.34-.6Z" transform="translate(-47.456 -243.86)" fill="#e9eef4"/>
          </g>
          <path id="Trazado_189570" data-name="Trazado 189570" d="M147.818,251.138a3.913,3.913,0,0,1-5.049,2.267L98.323,236.5a3.912,3.912,0,0,1-2.267-5.049l18.228-47.921a3.913,3.913,0,0,1,5.049-2.267l44.446,16.907a3.913,3.913,0,0,1,2.266,5.049Z" transform="translate(-45.632 -174.092)" fill="#e9eef4"/>
          <g id="Grupo_124322" data-name="Grupo 124322" transform="translate(84.684 4.77)">
            <path id="Trazado_189571" data-name="Trazado 189571" d="M162.59,178.906a6.721,6.721,0,0,0-8.446,1.074l2.213,1.262a4.367,4.367,0,0,1,5.014-.2,4,4,0,0,1,1.491,5.457l-7.625,13.363c-.987,1.729-2.9,2.948-4.963,1.774a4.006,4.006,0,0,1-1.492-5.457l3.4-5.96A1.23,1.23,0,1,0,150.045,189l-3.4,5.959a6.47,6.47,0,0,0,2.409,8.815c2.966,1.691,6.465.56,8.322-2.692L165,187.722A6.471,6.471,0,0,0,162.59,178.906Z" transform="translate(-145.796 -177.902)" fill="#1d0c8c"/>
          </g>
        </g>
        <path id="Trazado_189572" data-name="Trazado 189572" d="M50.562,339.213H-51.787v-12.32a3.757,3.757,0,0,0-3.757-3.757h-53.348a3.756,3.756,0,0,0-3.757,3.757V429.831a3.757,3.757,0,0,0,3.757,3.758H50.562a3.757,3.757,0,0,0,3.756-3.758V342.971A3.756,3.756,0,0,0,50.562,339.213Z" transform="translate(-13.683 -73.261)" fill="#febf10"/>
        <g id="Grupo_124335" data-name="Grupo 124335" transform="translate(-53.799 209.694)">
          <g id="Grupo_124326" data-name="Grupo 124326" transform="translate(101.777 68.664)">
            <path id="Trazado_189573" data-name="Trazado 189573" d="M274.662,364.393l-59.97,37.838s-9.188-15.85-30.941-6.706c0,0-15.159-.982-30.23-13.772-9.428-8-17.986-.546-11.307,10.253,5.732,9.268,23.2,21.07,23.2,21.07l-21.87,21.452s16.022,20.553,21.751,23.589,39.834-1.586,50.584-21.181L274.662,424.1Z" transform="translate(-139.836 -364.393)" fill="#f6a9a3"/>
            <g id="Grupo_124325" data-name="Grupo 124325" transform="translate(43.423 46.686)">
              <g id="Grupo_124324" data-name="Grupo 124324">
                <path id="Trazado_189574" data-name="Trazado 189574" d="M219.721,432.9c-3.169.273-6.28.662-9.058,2.327-3.362,2.012-5.658,6-7.127,9.513-.22.523-.98.077-.764-.44,1.583-3.778,4-7.516,7.453-9.839,2.749-1.85,6.284-2.165,9.49-2.443.568-.049.568.832.006.882Z" transform="translate(-202.734 -432.016)" fill="#db6356"/>
              </g>
            </g>
          </g>
          <g id="Grupo_124330" data-name="Grupo 124330" transform="translate(0)">
            <path id="Trazado_189575" data-name="Trazado 189575" d="M128.465,418.284l7.716-6.725L112.512,384.7,104.8,391.43Z" transform="translate(-27.209 -302.017)" fill="#bdd0fb"/>
            <path id="Trazado_189576" data-name="Trazado 189576" d="M108.654,389.573l-3.858,3.364,23.67,26.854,3.858-3.363Z" transform="translate(-27.209 -303.525)" fill="#bdd0fb" opacity="0.5" style="mix-blend-mode: multiply;isolation: isolate"/>
            <path id="Trazado_189577" data-name="Trazado 189577" d="M170.679,473.206a9.375,9.375,0,0,0,13.226.907h0a9.375,9.375,0,0,0,.909-13.226L144.858,415.04a9.375,9.375,0,0,0-13.227-.909h0a9.374,9.374,0,0,0-.909,13.227Z" transform="translate(-34.522 -310.414)" fill="#242ca3"/>
            <g id="Grupo_124327" data-name="Grupo 124327">
              <path id="Trazado_189578" data-name="Trazado 189578" d="M5.278,351.542A52.267,52.267,0,1,0,10.34,277.8,52.269,52.269,0,0,0,5.278,351.542Zm10.884-67.064a43.406,43.406,0,1,1-4.2,61.242A43.406,43.406,0,0,1,16.162,284.479Z" transform="translate(7.586 -264.935)" fill="#242ca3"/>
            </g>
            <g id="Grupo_124328" data-name="Grupo 124328" transform="translate(2.032 2.032)">
              <path id="Trazado_189579" data-name="Trazado 189579" d="M7.722,351.119a50.235,50.235,0,1,0,4.866-70.876A50.235,50.235,0,0,0,7.722,351.119Zm9.352-65.729a43.406,43.406,0,1,1-4.2,61.242A43.406,43.406,0,0,1,17.074,285.39Z" transform="translate(4.643 -267.877)" fill="#c6c8e9"/>
            </g>
            <path id="Trazado_189580" data-name="Trazado 189580" d="M15.932,349.694a43.407,43.407,0,1,0,4.2-61.242A43.4,43.4,0,0,0,15.932,349.694Z" transform="translate(3.613 -268.908)" opacity="0.7" fill="url(#linear-gradient-38)" style="mix-blend-mode: screen;isolation: isolate"/>
            <g id="Grupo_124329" data-name="Grupo 124329" transform="translate(17.463 69.051)">
              <path id="Trazado_189581" data-name="Trazado 189581" d="M87.291,381.193a2.642,2.642,0,0,1-.5,3.7,40.276,40.276,0,0,1-35.027,6.748,2.642,2.642,0,1,1,1.4-5.1,34.994,34.994,0,0,0,30.424-5.86A2.642,2.642,0,0,1,87.291,381.193Z" transform="translate(-27.65 -369.658)" fill="#fff"/>
              <path id="Trazado_189582" data-name="Trazado 189582" d="M32.246,376.609a2.642,2.642,0,0,1-3.067,4.3,39.951,39.951,0,0,1-11.092-11.952,2.646,2.646,0,0,1,.111-2.9,2.612,2.612,0,0,1,.788-.727,2.642,2.642,0,0,1,3.627.9A34.718,34.718,0,0,0,32.246,376.609Z" transform="translate(-17.708 -364.953)" fill="#fff"/>
            </g>
          </g>
          <g id="Grupo_124334" data-name="Grupo 124334" transform="translate(93.703 107.65)">
            <path id="Trazado_189583" data-name="Trazado 189583" d="M137.785,456.916c-5.206-1.705-12.257-7.82-8.665-14.518s19.646-23,31.818-20.372c8.254,1.783,6.374,10.882-1.767,18.317S137.785,456.916,137.785,456.916Z" transform="translate(-128.14 -421.135)" fill="#f6a9a3"/>
            <g id="Grupo_124331" data-name="Grupo 124331" transform="translate(21.281)">
              <path id="Trazado_189584" data-name="Trazado 189584" d="M174.242,433.9c1.58-2.75,2.186-5.387,1.669-7.613-.564-2.419-2.439-4.155-5.421-5.019-3.957-1.146-8.319.372-11.281,1.847a.44.44,0,0,0,.391.789c2.822-1.406,6.96-2.857,10.645-1.789,2.658.77,4.32,2.282,4.808,4.372.834,3.578-1.753,8.633-6.751,13.2a.441.441,0,1,0,.6.65A27.566,27.566,0,0,0,174.242,433.9Z" transform="translate(-158.965 -420.863)" fill="#db6356"/>
            </g>
            <path id="Trazado_189585" data-name="Trazado 189585" d="M153.2,469.873c-6.211.7-15.953-5.232-11.105-13.653,3.793-6.588,23.008-26.85,35.18-24.219,8.253,1.783,5.516,10.131-2.624,17.565S153.2,469.873,153.2,469.873Z" transform="translate(-132.056 -424.239)" fill="#f6a9a3"/>
            <g id="Grupo_124332" data-name="Grupo 124332" transform="translate(9.598 7.086)">
              <path id="Trazado_189586" data-name="Trazado 189586" d="M181.307,442.545c1.534-2.669,2.126-5.137,1.6-7.076-.391-1.446-1.6-3.331-5.154-4.1-6.807-1.472-15.233,3.941-21.1,8.742-6.528,5.34-12.523,12.169-14.55,15.689h0a.44.44,0,0,0,.764.438c3.888-6.756,22.924-26.554,34.7-24.009,2.5.542,4.015,1.707,4.488,3.465.891,3.3-1.914,8.411-7.316,13.345a.441.441,0,0,0,.594.651A30.892,30.892,0,0,0,181.307,442.545Z" transform="translate(-142.043 -431.127)" fill="#db6356"/>
            </g>
            <path id="Trazado_189587" data-name="Trazado 189587" d="M155.953,475.845a47.579,47.579,0,0,1,6.452-8.271c4.213-4.449,9.656-8.961,15-11.324a15.661,15.661,0,0,1,8.793-1.537c6.311,1.067,5.576,5.83.874,12.629-.822,1.187-1.762,2.436-2.808,3.74a75.162,75.162,0,0,1-10.108,9.976l.851.976,3.839,4.4a9.389,9.389,0,0,0,1.351,1.27c-4.626,1.008-10.278,1.727-15.317.912C158.709,487.626,152.057,482.621,155.953,475.845Z" transform="translate(-136.392 -431.298)" fill="#f6a9a3"/>
            <g id="Grupo_124333" data-name="Grupo 124333" transform="translate(19.121 22.826)">
              <path id="Trazado_189588" data-name="Trazado 189588" d="M175.414,480.571a66.7,66.7,0,0,0,9.518-9.411c5.329-6.632,7.4-11.231,6.32-14.062-.6-1.582-2.168-2.6-4.656-3.017-6.156-1.039-13.128,3.319-17.893,7.154a57.678,57.678,0,0,0-12.808,14.192.44.44,0,0,0,.764.438c4.065-7.072,19.1-22.719,29.791-20.916,2.156.364,3.5,1.192,3.979,2.461.942,2.479-1.138,6.92-6.185,13.2a65.9,65.9,0,0,1-10.064,9.817.44.44,0,0,0,.155.777Z" transform="translate(-155.836 -453.926)" fill="#db6356"/>
            </g>
          </g>
        </g>
        <g id="Grupo_124336" data-name="Grupo 124336" transform="translate(61.615 189.003)">
          <path id="Trazado_189589" data-name="Trazado 189589" d="M159.709,307.952h0c-1.443-2.1,10.325-16.364,13.81-18.755l78.6-53.932c3.484-2.392,12.143,10.227,8.659,12.62l-78.6,53.932c-3.485,2.389-21.026,8.238-22.469,6.135Z" transform="translate(-159.587 -234.964)" fill="#fff"/>
          <path id="Trazado_189590" data-name="Trazado 189590" d="M179.4,292.009a21.446,21.446,0,0,0,8.648,12.606c.094-.058.183-.115.261-.168l70.494-48.369a13.447,13.447,0,0,0-8.659-12.619l-70.493,48.369C179.578,291.88,179.491,291.943,179.4,292.009Z" transform="translate(-165.723 -237.594)" fill="#242ca3"/>
          <path id="Trazado_189591" data-name="Trazado 189591" d="M293.942,243.106a14.439,14.439,0,0,1,2.605,7.493l3.959-2.715c3.484-2.393-5.174-15.012-8.659-12.62l-3.958,2.715A14.437,14.437,0,0,1,293.942,243.106Z" transform="translate(-199.312 -234.964)" fill="#8199fd" style="mix-blend-mode: multiply;isolation: isolate"/>
          <path id="Trazado_189592" data-name="Trazado 189592" d="M161.226,334.529c-1.254,2.038-1.931,3.647-1.517,4.25s2.158.551,4.512.113a4.49,4.49,0,0,0-3-4.363Z" transform="translate(-159.587 -265.791)" fill="#8199fd" style="mix-blend-mode: multiply;isolation: isolate"/>
          <path id="Trazado_189593" data-name="Trazado 189593" d="M256.449,248.415a12.758,12.758,0,0,0-6.3-4.957l-70.493,48.369c-.078.053-.164.116-.251.182a17.478,17.478,0,0,0,3.163,7.1" transform="translate(-165.723 -237.594)" fill="#4c53b5"/>
        </g>
      </g>
    </g>
  </g>
</svg>
