<svg xmlns="http://www.w3.org/2000/svg" width="400" height="351" viewBox="0 0 400 351">
  <g id="Grupo_124572" data-name="Grupo 124572" transform="translate(-1020 -3891)">
    <g id="Grupo_124344" data-name="Grupo 124344" transform="translate(105 63)">
      <rect id="Rect치ngulo_43207" data-name="Rect치ngulo 43207" width="388" height="339" rx="29" transform="translate(927 3840)" fill="#febf10"/>
      <rect id="Rect치ngulo_43206" data-name="Rect치ngulo 43206" width="388" height="340" rx="29" transform="translate(915 3828)" fill="#eeeffb"/>
    </g>
    <g id="Grupo_124457" data-name="Grupo 124457" transform="translate(1003.414 3854.641)">
      <g id="Floor" transform="translate(32.442 164.463)">
        <g id="Grupo_124345" data-name="Grupo 124345">
          <path id="Trazado_189594" data-name="Trazado 189594" d="M85.217,349.2c70.365,36.76,184.451,36.762,254.814,0s70.366-96.359,0-133.119-184.45-36.76-254.816,0S14.85,312.444,85.217,349.2Z" transform="translate(-32.442 -188.515)" fill="#fff"/>
        </g>
      </g>
      <g id="Filing_Cabinets" data-name="Filing Cabinets" transform="translate(42.695 131.857)">
        <g id="Grupo_124394" data-name="Grupo 124394">
          <g id="Grupo_124381" data-name="Grupo 124381">
            <g id="Grupo_124357" data-name="Grupo 124357" transform="translate(0.001 51.886)">
              <g id="Grupo_124346" data-name="Grupo 124346" transform="translate(0 18.868)">
                <path id="Trazado_189595" data-name="Trazado 189595" d="M68.064,298.2,45.188,284.988V235.932l22.876,13.208Z" transform="translate(-45.187 -235.932)" fill="#e0e0e0"/>
              </g>
              <g id="Grupo_124347" data-name="Grupo 124347" transform="translate(22.876 13.208)">
                <path id="Trazado_189596" data-name="Trazado 189596" d="M73.622,247.764,106.3,228.9v49.056L73.622,296.82Z" transform="translate(-73.622 -228.897)" fill="#ebebeb"/>
              </g>
              <g id="Grupo_124348" data-name="Grupo 124348">
                <path id="Trazado_189597" data-name="Trazado 189597" d="M100.743,225.687l-32.68,18.868L45.187,231.347l32.68-18.868Z" transform="translate(-45.187 -212.48)" fill="#f5f5f5"/>
              </g>
              <g id="Grupo_124352" data-name="Grupo 124352" transform="translate(26.144 18.868)">
                <g id="Grupo_124349" data-name="Grupo 124349">
                  <path id="Trazado_189598" data-name="Trazado 189598" d="M77.684,251.026l26.144-15.094.6.347V254.45L78.285,269.543l-.6-.347Z" transform="translate(-77.684 -235.932)" fill="#e0e0e0"/>
                </g>
                <g id="Grupo_124350" data-name="Grupo 124350" transform="translate(0.601 0.347)">
                  <path id="Trazado_189599" data-name="Trazado 189599" d="M78.432,251.457l26.144-15.094v18.171L78.431,269.627Z" transform="translate(-78.431 -236.363)" fill="#f5f5f5"/>
                </g>
                <g id="Grupo_124351" data-name="Grupo 124351" transform="translate(9.804 9.86)">
                  <path id="Trazado_189600" data-name="Trazado 189600" d="M90.915,250.932l4.446-2.568c.578-.333,1.046-.18,1.046.34a2.091,2.091,0,0,1-1.046,1.547l-4.446,2.566c-.578.333-1.045.182-1.045-.339A2.092,2.092,0,0,1,90.915,250.932Z" transform="translate(-89.87 -248.188)" fill="#e0e0e0"/>
                </g>
              </g>
              <g id="Grupo_124356" data-name="Grupo 124356" transform="translate(25.542 41.859)">
                <g id="Grupo_124353" data-name="Grupo 124353">
                  <path id="Trazado_189601" data-name="Trazado 189601" d="M76.937,279.6l26.144-15.094v18.171l.6.347L77.537,298.122l-.6-.348Z" transform="translate(-76.936 -264.51)" fill="#e0e0e0"/>
                </g>
                <g id="Grupo_124354" data-name="Grupo 124354" transform="translate(0.601 0.347)">
                  <path id="Trazado_189602" data-name="Trazado 189602" d="M77.684,280.036l26.144-15.095v18.171L77.683,298.206Z" transform="translate(-77.683 -264.941)" fill="#f5f5f5"/>
                </g>
                <g id="Grupo_124355" data-name="Grupo 124355" transform="translate(9.805 9.861)">
                  <path id="Trazado_189603" data-name="Trazado 189603" d="M90.168,279.51l4.446-2.567c.577-.333,1.045-.18,1.045.34a2.094,2.094,0,0,1-1.045,1.547L90.167,281.4c-.577.333-1.045.181-1.044-.34A2.093,2.093,0,0,1,90.168,279.51Z" transform="translate(-89.123 -276.767)" fill="#e0e0e0"/>
                </g>
              </g>
            </g>
            <g id="Grupo_124380" data-name="Grupo 124380">
              <g id="Grupo_124368" data-name="Grupo 124368">
                <g id="Grupo_124358" data-name="Grupo 124358" transform="translate(0 18.868)">
                  <path id="Trazado_189604" data-name="Trazado 189604" d="M68.063,233.7,45.187,220.494V171.439l22.876,13.207Z" transform="translate(-45.187 -171.439)" fill="#e0e0e0"/>
                </g>
                <g id="Grupo_124359" data-name="Grupo 124359" transform="translate(22.876 13.207)">
                  <path id="Trazado_189605" data-name="Trazado 189605" d="M73.621,183.27,106.3,164.4v49.056l-32.68,18.868Z" transform="translate(-73.621 -164.403)" fill="#ebebeb"/>
                </g>
                <g id="Grupo_124360" data-name="Grupo 124360">
                  <path id="Trazado_189606" data-name="Trazado 189606" d="M100.742,161.194l-32.68,18.868L45.187,166.854l32.68-18.868Z" transform="translate(-45.187 -147.986)" fill="#f5f5f5"/>
                </g>
                <g id="Grupo_124363" data-name="Grupo 124363" transform="translate(26.143 18.867)">
                  <g id="Grupo_124361" data-name="Grupo 124361">
                    <path id="Trazado_189607" data-name="Trazado 189607" d="M77.683,186.532l26.144-15.094.6.348v18.17L78.284,205.05l-.6-.348Z" transform="translate(-77.682 -171.438)" fill="#e0e0e0"/>
                  </g>
                  <g id="Grupo_124362" data-name="Grupo 124362" transform="translate(9.805 9.861)">
                    <path id="Trazado_189608" data-name="Trazado 189608" d="M90.914,186.438l4.446-2.566c.578-.334,1.045-.181,1.045.34a2.091,2.091,0,0,1-1.045,1.547l-4.447,2.566c-.577.333-1.044.181-1.044-.339A2.094,2.094,0,0,1,90.914,186.438Z" transform="translate(-89.869 -183.695)" fill="#e0e0e0"/>
                  </g>
                </g>
                <g id="Grupo_124367" data-name="Grupo 124367" transform="translate(25.542 41.859)">
                  <g id="Grupo_124364" data-name="Grupo 124364">
                    <path id="Trazado_189609" data-name="Trazado 189609" d="M76.935,215.111l26.144-15.094v18.17l.6.348L77.536,233.628l-.6-.347Z" transform="translate(-76.935 -200.017)" fill="#e0e0e0"/>
                  </g>
                  <g id="Grupo_124365" data-name="Grupo 124365" transform="translate(0.601 0.348)">
                    <path id="Trazado_189610" data-name="Trazado 189610" d="M77.683,215.543l26.144-15.094v18.17L77.682,233.712Z" transform="translate(-77.682 -200.449)" fill="#f5f5f5"/>
                  </g>
                  <g id="Grupo_124366" data-name="Grupo 124366" transform="translate(9.804 9.861)">
                    <path id="Trazado_189611" data-name="Trazado 189611" d="M90.166,215.017l4.447-2.567c.577-.333,1.045-.181,1.045.34a2.091,2.091,0,0,1-1.046,1.546L90.166,216.9c-.578.333-1.045.181-1.045-.34A2.094,2.094,0,0,1,90.166,215.017Z" transform="translate(-89.121 -212.274)" fill="#e0e0e0"/>
                  </g>
                </g>
              </g>
              <g id="Grupo_124379" data-name="Grupo 124379" transform="translate(26.143 18.867)">
                <g id="Grupo_124369" data-name="Grupo 124369">
                  <path id="Trazado_189612" data-name="Trazado 189612" d="M77.682,186.532l26.144-15.094v18.17L77.682,204.7Z" transform="translate(-77.682 -171.438)" fill="#e0e0e0"/>
                </g>
                <g id="Grupo_124370" data-name="Grupo 124370" transform="translate(24.906 0.717)">
                  <path id="Trazado_189613" data-name="Trazado 189613" d="M122.95,180.589l-14.31-8.26v16.008l14.31,8.26Z" transform="translate(-108.639 -172.329)" fill="#e0e0e0"/>
                </g>
                <g id="Grupo_124373" data-name="Grupo 124373" transform="translate(9.805 1.887)">
                  <g id="Grupo_124371" data-name="Grupo 124371">
                    <path id="Trazado_189614" data-name="Trazado 189614" d="M89.869,207.745V185.1l5.61-3.25.926,1.363,16.34-9.434v20.754Z" transform="translate(-89.869 -173.783)" fill="#ebebeb"/>
                  </g>
                  <g id="Grupo_124372" data-name="Grupo 124372" transform="translate(0 0.944)">
                    <path id="Trazado_189615" data-name="Trazado 189615" d="M89.869,207.974,91.5,188.163l22.876-13.207-1.633,19.81Z" transform="translate(-89.869 -174.956)" fill="#f5f5f5"/>
                  </g>
                </g>
                <g id="Grupo_124374" data-name="Grupo 124374" transform="translate(0.6 16.87)">
                  <path id="Trazado_189616" data-name="Trazado 189616" d="M90.9,199.608l-12.472-7.2v16.008l12.472,7.2Z" transform="translate(-78.427 -192.407)" fill="#ebebeb"/>
                </g>
                <g id="Grupo_124375" data-name="Grupo 124375" transform="translate(13.072 7.547)">
                  <path id="Trazado_189617" data-name="Trazado 189617" d="M93.931,195.913l26.144-15.094v18.17L93.93,214.082Z" transform="translate(-93.93 -180.818)" fill="#f5f5f5"/>
                </g>
                <g id="Grupo_124376" data-name="Grupo 124376" transform="translate(22.275 17.061)">
                  <path id="Trazado_189618" data-name="Trazado 189618" d="M106.414,195.387l4.447-2.567c.577-.333,1.045-.181,1.045.34a2.092,2.092,0,0,1-1.046,1.546l-4.446,2.567c-.578.333-1.045.181-1.045-.34A2.1,2.1,0,0,1,106.414,195.387Z" transform="translate(-105.369 -192.644)" fill="#e0e0e0"/>
                </g>
                <g id="Grupo_124377" data-name="Grupo 124377" transform="translate(12.202 22.139)">
                  <path id="Trazado_189619" data-name="Trazado 189619" d="M93.719,199.458l-.871-.5v18.17l.872.5Z" transform="translate(-92.848 -198.956)" fill="#e0e0e0"/>
                </g>
                <g id="Grupo_124378" data-name="Grupo 124378" transform="translate(12.202 7.045)">
                  <path id="Trazado_189620" data-name="Trazado 189620" d="M92.848,195.288l26.144-15.094.871.5L93.719,195.79Z" transform="translate(-92.848 -180.194)" fill="#ebebeb"/>
                </g>
              </g>
            </g>
          </g>
          <g id="Grupo_124393" data-name="Grupo 124393" transform="translate(270.22 22.162)">
            <g id="Grupo_124382" data-name="Grupo 124382" transform="translate(0 18.867)">
              <path id="Trazado_189621" data-name="Trazado 189621" d="M403.941,261.249l-22.876-13.207V198.985l22.876,13.208Z" transform="translate(-381.065 -198.985)" fill="#e0e0e0"/>
            </g>
            <g id="Grupo_124383" data-name="Grupo 124383" transform="translate(22.876 13.207)">
              <path id="Trazado_189622" data-name="Trazado 189622" d="M409.5,210.818l32.68-18.868v49.056L409.5,259.874Z" transform="translate(-409.499 -191.95)" fill="#ebebeb"/>
            </g>
            <g id="Grupo_124384" data-name="Grupo 124384">
              <path id="Trazado_189623" data-name="Trazado 189623" d="M436.62,188.741l-32.68,18.868L381.065,194.4l32.68-18.867Z" transform="translate(-381.065 -175.534)" fill="#f5f5f5"/>
            </g>
            <g id="Grupo_124388" data-name="Grupo 124388" transform="translate(26.144 18.867)">
              <g id="Grupo_124385" data-name="Grupo 124385">
                <path id="Trazado_189624" data-name="Trazado 189624" d="M413.561,214.079,439.7,198.985l.6.348V217.5L414.162,232.6l-.6-.348Z" transform="translate(-413.56 -198.985)" fill="#e0e0e0"/>
              </g>
              <g id="Grupo_124386" data-name="Grupo 124386" transform="translate(0.601 0.348)">
                <path id="Trazado_189625" data-name="Trazado 189625" d="M414.308,214.512l26.144-15.094v18.17l-26.144,15.094Z" transform="translate(-414.308 -199.418)" fill="#f5f5f5"/>
              </g>
              <g id="Grupo_124387" data-name="Grupo 124387" transform="translate(9.804 9.861)">
                <path id="Trazado_189626" data-name="Trazado 189626" d="M426.793,213.985l4.445-2.566c.578-.334,1.045-.181,1.045.34a2.091,2.091,0,0,1-1.045,1.547l-4.446,2.567c-.578.333-1.045.181-1.045-.34A2.092,2.092,0,0,1,426.793,213.985Z" transform="translate(-425.747 -211.242)" fill="#e0e0e0"/>
              </g>
            </g>
            <g id="Grupo_124392" data-name="Grupo 124392" transform="translate(25.543 41.859)">
              <g id="Grupo_124389" data-name="Grupo 124389">
                <path id="Trazado_189627" data-name="Trazado 189627" d="M412.814,242.658l26.144-15.094v18.17l.6.348-26.144,15.094-.6-.348Z" transform="translate(-412.813 -227.564)" fill="#e0e0e0"/>
              </g>
              <g id="Grupo_124390" data-name="Grupo 124390" transform="translate(0.601 0.348)">
                <path id="Trazado_189628" data-name="Trazado 189628" d="M413.561,243.09,439.7,228v18.17L413.56,261.26Z" transform="translate(-413.56 -227.996)" fill="#f5f5f5"/>
              </g>
              <g id="Grupo_124391" data-name="Grupo 124391" transform="translate(9.803 9.861)">
                <path id="Trazado_189629" data-name="Trazado 189629" d="M426.045,242.564,430.491,240c.577-.333,1.045-.181,1.045.34a2.1,2.1,0,0,1-1.045,1.547l-4.447,2.566c-.578.333-1.045.181-1.045-.339A2.094,2.094,0,0,1,426.045,242.564Z" transform="translate(-424.999 -239.821)" fill="#e0e0e0"/>
              </g>
            </g>
          </g>
        </g>
      </g>
      <g id="Plants" transform="translate(90.343 232.506)">
        <g id="Grupo_124401" data-name="Grupo 124401">
          <g id="Grupo_124397" data-name="Grupo 124397" transform="translate(0 13.559)">
            <g id="Grupo_124395" data-name="Grupo 124395" transform="translate(10.53)">
              <path id="Trazado_189630" data-name="Trazado 189630" d="M134.762,330.307s.095-12.76-7.95-22.326c-7.126-8.473-10.914-13.848-8.664-16.323s7.064-3.072,13.576,3.775,7.015,25.841,6.116,30.139Z" transform="translate(-117.5 -289.944)" fill="#ff5e8e"/>
              <path id="Trazado_189632" data-name="Trazado 189632" d="M137.12,317.072a.4.4,0,0,1-.393-.319c-2.816-13.171-10.045-20.452-14.1-23.62a.4.4,0,0,1,.495-.635c4.146,3.236,11.527,10.666,14.4,24.086a.4.4,0,0,1-.309.478A.431.431,0,0,1,137.12,317.072Z" transform="translate(-118.471 -290.427)" fill="#fff"/>
            </g>
            <g id="Grupo_124396" data-name="Grupo 124396" transform="translate(0 15.572)">
              <path id="Trazado_189633" data-name="Trazado 189633" d="M131.929,338.838l-3.268,1.887a5.92,5.92,0,0,0-4.413-3.773c-3.576-.839-7.3-.671-9.8-3.775s.545-6.479,0-8.766-.908-2.945-5.394-5.228-6.259-6.076-2.883-8.646,8.863-.683,12.167,1.572c2.948,2.014,5.747,2.544,9.032,2.948s8.649,2.241,7.829,9.882A60.266,60.266,0,0,1,131.929,338.838Z" transform="translate(-104.412 -309.299)" fill="#ff5e8e"/>
              <path id="Trazado_189634" data-name="Trazado 189634" d="M122.871,333.081a.4.4,0,0,1-.123-.785c.3-.094,7.258-2.293,10.2.069a.4.4,0,0,1-.5.627c-2.608-2.093-9.381.048-9.449.069A.39.39,0,0,1,122.871,333.081Z" transform="translate(-107.942 -313.595)" fill="#fff"/>
              <path id="Trazado_189635" data-name="Trazado 189635" d="M133.47,338.879a.4.4,0,0,1-.4-.36c-1.792-16.942-22.2-24.98-22.407-25.06a.4.4,0,1,1,.288-.751c.211.08,21.075,8.291,22.918,25.725a.4.4,0,0,1-.357.442Z" transform="translate(-105.583 -309.96)" fill="#fff"/>
            </g>
          </g>
          <g id="Grupo_124400" data-name="Grupo 124400" transform="translate(207.819)">
            <g id="Grupo_124398" data-name="Grupo 124398">
              <path id="Trazado_189636" data-name="Trazado 189636" d="M382.9,320.618c.093-.276,3.543-18.045,0-30.644-3.249-11.551-7.417-15.814-13.4-16.754s-8.581,3.369-5.4,9.207,10.824,13.595,12.7,26.642c.774,5.371,1.416,10.039,1.416,10.039Z" transform="translate(-362.727 -273.091)" fill="#ff5e8e"/>
              <path id="Trazado_189638" data-name="Trazado 189638" d="M382.166,311.063h-.023a.4.4,0,0,1-.379-.424c.824-14.382-3.895-27.226-12.316-33.52a.4.4,0,0,1,.483-.644c8.633,6.453,13.476,19.562,12.636,34.21A.4.4,0,0,1,382.166,311.063Z" transform="translate(-364.01 -273.737)" fill="#fff"/>
            </g>
            <g id="Grupo_124399" data-name="Grupo 124399" transform="translate(16.647 7.657)">
              <path id="Trazado_189639" data-name="Trazado 189639" d="M396.206,331.734c-.462-3.3,1.44-8.265,5.951-9.435s6.526-3.767,4.9-6.6-1.245-5.429,2.852-6.608,7.683-3.234,5.322-7.546c-1.711-3.127-2.091-5.153,2.109-11.321,3.482-5.114.636-8.115-3.727-7.547s-7.052,5.754-9.775,6.629-3.36-3.771-6.957-1.7-3.374,7.4-3.488,11.1-.356,4.549-3.607,4.093-6.424.083-6.362,7.943c.052,6.746,3.654,15.1,3.654,15.1Z" transform="translate(-383.419 -282.609)" fill="#ff5e8e"/>
              <path id="Trazado_189640" data-name="Trazado 189640" d="M392.125,327.368l-.046,0a.4.4,0,0,1-.355-.445c2.266-20.27,19.661-37.362,24.2-40.83a.4.4,0,1,1,.488.64c-4.476,3.423-21.651,20.293-23.885,40.281A.4.4,0,0,1,392.125,327.368Z" transform="translate(-385.042 -283.273)" fill="#fff"/>
              <path id="Trazado_189641" data-name="Trazado 189641" d="M401.983,309.928a.4.4,0,0,1-.141-.78c6.491-2.414,13.842-1.277,14.151-1.227a.4.4,0,0,1,.333.461.409.409,0,0,1-.46.334c-.073-.013-7.457-1.154-13.743,1.187A.412.412,0,0,1,401.983,309.928Z" transform="translate(-386.969 -287.496)" fill="#fff"/>
              <path id="Trazado_189642" data-name="Trazado 189642" d="M393.539,322.809a.4.4,0,0,1-.3-.136,23.661,23.661,0,0,1-5.3-11,.4.4,0,0,1,.8-.121,23.281,23.281,0,0,0,5.108,10.586.4.4,0,0,1-.3.669Z" transform="translate(-384.301 -288.201)" fill="#fff"/>
            </g>
          </g>
        </g>
      </g>
      <g id="Folder_2" data-name="Folder 2" transform="translate(117.86 104.384)">
        <g id="Grupo_124405" data-name="Grupo 124405">
          <g id="Grupo_124402" data-name="Grupo 124402" transform="translate(0 0)">
            <path id="Trazado_189643" data-name="Trazado 189643" d="M138.615,176.1V300.628l127.452-73.583V113.838L171.3,168.555l-3.268-9.434Z" transform="translate(-138.615 -113.838)" fill="#febf10"/>
          </g>
          <g id="Grupo_124403" data-name="Grupo 124403">
            <path id="Trazado_189645" data-name="Trazado 189645" d="M138.615,300.628l6.535-113.206L272.6,113.838l-6.534,113.207Z" transform="translate(-138.615 -113.838)" fill="#e0e0e0"/>
          </g>
          <g id="Grupo_124404" data-name="Grupo 124404" transform="translate(0 1.887)">
            <path id="Trazado_189646" data-name="Trazado 189646" d="M138.615,301.087l9.8-111.32,127.451-73.584-9.8,111.32Z" transform="translate(-138.615 -116.183)" fill="#febf10"/>
          </g>
        </g>
      </g>
      <g id="Folder_1" data-name="Folder 1" transform="translate(137.469 115.704)">
        <g id="Grupo_124409" data-name="Grupo 124409">
          <g id="Grupo_124406" data-name="Grupo 124406" transform="translate(0 0)">
            <path id="Trazado_189648" data-name="Trazado 189648" d="M162.988,190.173V314.7L290.44,241.116V127.91l-94.771,54.716-3.268-9.434Z" transform="translate(-162.988 -127.91)" fill="#fed563"/>
          </g>
          <g id="Grupo_124407" data-name="Grupo 124407">
            <path id="Trazado_189650" data-name="Trazado 189650" d="M162.988,314.7l6.535-113.206,127.451-73.584L290.44,241.116Z" transform="translate(-162.988 -127.909)" fill="#e0e0e0"/>
          </g>
          <g id="Grupo_124408" data-name="Grupo 124408" transform="translate(0 1.887)">
            <path id="Trazado_189651" data-name="Trazado 189651" d="M162.988,315.158l9.8-111.32,127.451-73.584-9.8,111.32Z" transform="translate(-162.988 -130.254)" fill="#febf10"/>
          </g>
        </g>
      </g>
      <g id="Documents" transform="translate(160.343 65.475)">
        <g id="Grupo_124456" data-name="Grupo 124456">
          <g id="Grupo_124410" data-name="Grupo 124410" transform="translate(31.18 215.245)">
            <path id="Trazado_189653" data-name="Trazado 189653" d="M283.965,394.418c-22.876-13.208-44.1-27.567-53.788-44.417l29.412-16.981Z" transform="translate(-230.177 -333.02)" fill="#e0e0e0"/>
          </g>
          <g id="Grupo_124434" data-name="Grupo 124434">
            <g id="Grupo_124411" data-name="Grupo 124411" transform="translate(0 63.437)">
              <path id="Trazado_189654" data-name="Trazado 189654" d="M191.421,206.589V331.116l127.452-73.584V144.326L224.1,199.042l-3.268-9.434Z" transform="translate(-191.421 -144.326)" fill="#fed563"/>
              <path id="Trazado_189655" data-name="Trazado 189655" d="M321.461,257.532V144.326l-94.771,54.716-3.268-9.434Z" transform="translate(-194.009 -144.326)" fill="#febf10" opacity="0.2"/>
            </g>
            <g id="Grupo_124430" data-name="Grupo 124430" transform="translate(35.947)">
              <g id="Grupo_124414" data-name="Grupo 124414">
                <g id="Grupo_124412" data-name="Grupo 124412" transform="translate(0.402 0.402)">
                  <path id="Trazado_189656" data-name="Trazado 189656" d="M236.971,228.091c-.321,0-.369-.37-.369-.592V121.284a2.68,2.68,0,0,1,1.192-2.065L329.78,66.112a.881.881,0,0,1,.421-.137c.322,0,.369.371.369.592V172.783a2.678,2.678,0,0,1-1.192,2.065l-91.985,53.108A.886.886,0,0,1,236.971,228.091Z" transform="translate(-236.602 -65.975)" fill="#fff"/>
                </g>
                <g id="Grupo_124413" data-name="Grupo 124413">
                  <path id="Trazado_189657" data-name="Trazado 189657" d="M330.05,66.288a.705.705,0,0,1,.02.181V172.685a2.3,2.3,0,0,1-.991,1.717l-91.985,53.107a.113.113,0,1,1-.187-.108V121.186a2.3,2.3,0,0,1,.991-1.717l91.985-53.107a.7.7,0,0,1,.167-.074m.053-.813a1.267,1.267,0,0,0-.622.19L237.5,118.773a3.08,3.08,0,0,0-1.393,2.414V227.4c0,.63.315.994.772.994a1.262,1.262,0,0,0,.622-.19L329.481,175.1a3.08,3.08,0,0,0,1.393-2.414V66.469c0-.63-.314-.994-.772-.994Z" transform="translate(-236.102 -65.475)" fill="#27debf"/>
                  <path id="Trazado_189658" data-name="Trazado 189658" d="M330.05,66.288a.705.705,0,0,1,.02.181V172.685a2.3,2.3,0,0,1-.991,1.717l-91.985,53.107a.113.113,0,1,1-.187-.108V121.186a2.3,2.3,0,0,1,.991-1.717l91.985-53.107a.7.7,0,0,1,.167-.074m.053-.813a1.267,1.267,0,0,0-.622.19L237.5,118.773a3.08,3.08,0,0,0-1.393,2.414V227.4c0,.63.315.994.772.994a1.262,1.262,0,0,0,.622-.19L329.481,175.1a3.08,3.08,0,0,0,1.393-2.414V66.469c0-.63-.314-.994-.772-.994Z" transform="translate(-236.102 -65.475)" fill="#fff" opacity="0.7"/>
                </g>
              </g>
              <g id="Grupo_124419" data-name="Grupo 124419" transform="translate(9.805 40.895)">
                <g id="Grupo_124415" data-name="Grupo 124415">
                  <path id="Trazado_189659" data-name="Trazado 189659" d="M248.289,135.174l32.68-18.868v37.735l-32.68,18.868Z" transform="translate(-248.289 -116.306)" fill="#27debf"/>
                  <path id="Trazado_189660" data-name="Trazado 189660" d="M248.289,135.174l32.68-18.868v37.735l-32.68,18.868Z" transform="translate(-248.289 -116.306)" fill="#fff" opacity="0.8"/>
                </g>
                <g id="Grupo_124418" data-name="Grupo 124418" transform="translate(4.902 9.434)">
                  <g id="Grupo_124416" data-name="Grupo 124416">
                    <path id="Trazado_189661" data-name="Trazado 189661" d="M277.258,128.032v11.321l-1.023.572v-3.469c0-1.915-1.56-2.567-3.484-1.457l-13.862,8a7.211,7.211,0,0,0-3.484,5.479v3.468l-1.023.611V141.24Z" transform="translate(-254.382 -128.032)" fill="#fff"/>
                  </g>
                  <g id="Grupo_124417" data-name="Grupo 124417" transform="translate(3.268 8.425)">
                    <path id="Trazado_189662" data-name="Trazado 189662" d="M271.748,158.932c-1.677.969-3.035-.048-3.035-2.27V138.5l-4.2,2.285v18.3a7.243,7.243,0,0,1-3.035,5.776l-3.036,1.752v1.2l16.341-9.434v-1.2Z" transform="translate(-258.444 -138.504)" fill="#fff"/>
                  </g>
                </g>
              </g>
              <g id="Grupo_124425" data-name="Grupo 124425" transform="translate(49.02 17.22)">
                <g id="Grupo_124424" data-name="Grupo 124424">
                  <g id="Grupo_124420" data-name="Grupo 124420">
                    <path id="Trazado_189663" data-name="Trazado 189663" d="M297.033,108.667c0,1.042.936,1.347,2.091.681l31.767-18.341a4.184,4.184,0,0,0,2.09-3.093c0-1.042-.936-1.347-2.09-.681l-31.767,18.341A4.183,4.183,0,0,0,297.033,108.667Z" transform="translate(-297.033 -86.879)" fill="#455a64"/>
                  </g>
                  <g id="Grupo_124421" data-name="Grupo 124421" transform="translate(0 11.321)">
                    <path id="Trazado_189664" data-name="Trazado 189664" d="M297.033,122.738c0,1.043.936,1.347,2.091.681l31.767-18.341a4.187,4.187,0,0,0,2.09-3.094c0-1.042-.936-1.347-2.09-.68l-31.767,18.341A4.184,4.184,0,0,0,297.033,122.738Z" transform="translate(-297.033 -100.951)" fill="#455a64"/>
                  </g>
                  <g id="Grupo_124422" data-name="Grupo 124422" transform="translate(0 22.641)">
                    <path id="Trazado_189665" data-name="Trazado 189665" d="M297.033,136.81c0,1.042.936,1.346,2.091.68l31.767-18.341a4.185,4.185,0,0,0,2.09-3.094c0-1.042-.936-1.346-2.09-.68l-31.767,18.341A4.186,4.186,0,0,0,297.033,136.81Z" transform="translate(-297.033 -115.022)" fill="#455a64"/>
                  </g>
                  <g id="Grupo_124423" data-name="Grupo 124423" transform="translate(0 33.962)">
                    <path id="Trazado_189666" data-name="Trazado 189666" d="M297.033,150.881c0,1.042.936,1.347,2.091.68l31.767-18.341a4.184,4.184,0,0,0,2.09-3.094c0-1.041-.936-1.346-2.09-.68l-31.767,18.341A4.183,4.183,0,0,0,297.033,150.881Z" transform="translate(-297.033 -129.093)" fill="#455a64"/>
                  </g>
                </g>
              </g>
              <g id="Grupo_124429" data-name="Grupo 124429" transform="translate(9.805 62.503)">
                <g id="Grupo_124426" data-name="Grupo 124426">
                  <path id="Trazado_189667" data-name="Trazado 189667" d="M248.289,187.6c0,1.042.936,1.346,2.09.68l70.983-40.985a4.185,4.185,0,0,0,2.09-3.094c0-1.042-.936-1.347-2.09-.68L250.379,184.5A4.185,4.185,0,0,0,248.289,187.6Z" transform="translate(-248.289 -143.165)" fill="#455a64"/>
                </g>
                <g id="Grupo_124427" data-name="Grupo 124427" transform="translate(0 11.321)">
                  <path id="Trazado_189668" data-name="Trazado 189668" d="M248.289,201.669c0,1.042.936,1.347,2.09.68l70.983-40.985a4.184,4.184,0,0,0,2.09-3.094c0-1.042-.936-1.346-2.09-.68l-70.983,40.985A4.185,4.185,0,0,0,248.289,201.669Z" transform="translate(-248.289 -157.236)" fill="#455a64"/>
                </g>
                <g id="Grupo_124428" data-name="Grupo 124428" transform="translate(0 22.641)">
                  <path id="Trazado_189669" data-name="Trazado 189669" d="M248.289,215.74c0,1.042.936,1.347,2.09.68l70.983-40.985a4.187,4.187,0,0,0,2.09-3.094c0-1.043-.936-1.347-2.09-.68l-70.983,40.985A4.184,4.184,0,0,0,248.289,215.74Z" transform="translate(-248.289 -171.307)" fill="#455a64"/>
                </g>
              </g>
            </g>
            <g id="Grupo_124433" data-name="Grupo 124433" transform="translate(0.001 76.645)">
              <g id="Grupo_124431" data-name="Grupo 124431">
                <path id="Trazado_189670" data-name="Trazado 189670" d="M191.422,334.326l22.875-100,127.451-73.584-22.875,100Z" transform="translate(-191.422 -160.743)" fill="#febf10"/>
              </g>
              <g id="Grupo_124432" data-name="Grupo 124432" transform="translate(31.179 64.436)">
                <path id="Trazado_189671" data-name="Trazado 189671" d="M230.177,257.815V331.98L259.589,315V240.835Z" transform="translate(-230.177 -240.835)" fill="#fedd7e"/>
              </g>
            </g>
          </g>
          <g id="Grupo_124455" data-name="Grupo 124455" transform="translate(32.679 104.946)">
            <g id="Grupo_124437" data-name="Grupo 124437">
              <g id="Grupo_124435" data-name="Grupo 124435" transform="translate(0.402 0.697)">
                <path id="Trazado_189673" data-name="Trazado 189673" d="M284.454,367.306c-2.5-1.862-26.617-20.3-38.877-46.631-13.052-28.029-13.04-60.721-13.036-73.028v-.383l87.432-50.478c0,12.419.012,45.157,13.11,73.285,11.975,25.72,35.171,43.946,38.85,46.729Z" transform="translate(-232.541 -196.787)" fill="#fff"/>
              </g>
              <g id="Grupo_124436" data-name="Grupo 124436">
                <path id="Trazado_189674" data-name="Trazado 189674" d="M319.473,197.314c0,12.935.251,45.062,13.148,72.759,11.573,24.855,33.586,42.733,38.491,46.512l-86.726,50.072c-3.389-2.555-26.6-20.678-38.542-46.321-13.013-27.947-13-60.575-13-72.857v-.15l86.627-50.014m.8-1.393-88.236,50.942c0,11.574-.244,45.213,13.073,73.813,13.072,28.074,39.216,46.941,39.216,46.941l88.236-50.942s-26.144-18.868-39.216-46.942c-13.317-28.6-13.073-62.238-13.073-73.812Z" transform="translate(-232.041 -195.921)" fill="#27debf"/>
                <path id="Trazado_189675" data-name="Trazado 189675" d="M319.473,197.314c0,12.935.251,45.062,13.148,72.759,11.573,24.855,33.586,42.733,38.491,46.512l-86.726,50.072c-3.389-2.555-26.6-20.678-38.542-46.321-13.013-27.947-13-60.575-13-72.857v-.15l86.627-50.014m.8-1.393-88.236,50.942c0,11.574-.244,45.213,13.073,73.813,13.072,28.074,39.216,46.941,39.216,46.941l88.236-50.942s-26.144-18.868-39.216-46.942c-13.317-28.6-13.073-62.238-13.073-73.812Z" transform="translate(-232.041 -195.921)" fill="#fff" opacity="0.7"/>
              </g>
            </g>
            <g id="Grupo_124450" data-name="Grupo 124450" transform="translate(17.189 16.721)">
              <g id="Grupo_124438" data-name="Grupo 124438" transform="translate(31.135)">
                <path id="Trazado_189676" data-name="Trazado 189676" d="M322.041,217.065l-27.9,16.111a3.968,3.968,0,0,0-2.027,3.053c.039,1.019,1.014,1.306,2.169.64l27.9-16.112A3.948,3.948,0,0,0,324.2,217.7C324.156,216.685,323.2,216.4,322.041,217.065Z" transform="translate(-292.108 -216.705)" fill="#455a64"/>
              </g>
              <g id="Grupo_124439" data-name="Grupo 124439" transform="translate(31.809 10.97)">
                <path id="Trazado_189677" data-name="Trazado 189677" d="M322.8,230.708l-27.906,16.111a3.71,3.71,0,0,0-1.943,3.006c.086.992,1.1,1.255,2.253.589L323.11,234.3a3.688,3.688,0,0,0,1.927-3C324.951,230.307,323.953,230.042,322.8,230.708Z" transform="translate(-292.945 -230.341)" fill="#455a64"/>
              </g>
              <g id="Grupo_124440" data-name="Grupo 124440" transform="translate(33.007 21.638)">
                <path id="Trazado_189678" data-name="Trazado 189678" d="M324.2,243.977l-27.9,16.111a3.439,3.439,0,0,0-1.851,2.951c.138.963,1.193,1.2,2.347.536L324.7,247.464a3.42,3.42,0,0,0,1.834-2.949C326.4,243.552,325.359,243.31,324.2,243.977Z" transform="translate(-294.434 -243.6)" fill="#455a64"/>
              </g>
              <g id="Grupo_124441" data-name="Grupo 124441" transform="translate(34.761 31.983)">
                <path id="Trazado_189679" data-name="Trazado 189679" d="M326.3,256.846,298.4,272.957a3.186,3.186,0,0,0-1.756,2.9c.19.934,1.288,1.146,2.443.48l27.905-16.111a3.159,3.159,0,0,0,1.738-2.893C328.539,256.4,327.458,256.179,326.3,256.846Z" transform="translate(-296.614 -256.459)" fill="#455a64"/>
              </g>
              <g id="Grupo_124442" data-name="Grupo 124442" transform="translate(37.115 41.982)">
                <path id="Trazado_189680" data-name="Trazado 189680" d="M329.145,269.285,301.239,285.4c-1.154.666-1.9,1.938-1.652,2.838s1.393,1.086,2.547.419l27.9-16.111a2.9,2.9,0,0,0,1.633-2.833C331.425,268.81,330.3,268.619,329.145,269.285Z" transform="translate(-299.54 -268.888)" fill="#455a64"/>
              </g>
              <g id="Grupo_124443" data-name="Grupo 124443" transform="translate(0 51.613)">
                <path id="Trazado_189681" data-name="Trazado 189681" d="M323.031,281.27l-68.012,39.267c-1.154.667-1.85,1.91-1.537,2.772s1.511,1.017,2.665.351l68.013-39.267c1.154-.667,1.827-1.9,1.515-2.764S324.185,280.6,323.031,281.27Z" transform="translate(-253.407 -280.859)" fill="#455a64"/>
              </g>
              <g id="Grupo_124444" data-name="Grupo 124444" transform="translate(3.719 60.808)">
                <path id="Trazado_189682" data-name="Trazado 189682" d="M327.559,292.715l-68.012,39.268c-1.155.666-1.788,1.875-1.405,2.7s1.632.945,2.787.279l68.012-39.267c1.154-.667,1.775-1.871,1.393-2.692S328.713,292.049,327.559,292.715Z" transform="translate(-258.03 -292.289)" fill="#455a64"/>
              </g>
              <g id="Grupo_124445" data-name="Grupo 124445" transform="translate(8.243 69.571)">
                <path id="Trazado_189683" data-name="Trazado 189683" d="M333.094,303.625l-68.012,39.267c-1.154.666-1.73,1.843-1.272,2.621s1.776.862,2.93.2l68.012-39.268c1.155-.666,1.708-1.83,1.251-2.609S334.248,302.958,333.094,303.625Z" transform="translate(-263.652 -303.181)" fill="#455a64"/>
              </g>
              <g id="Grupo_124446" data-name="Grupo 124446" transform="translate(13.556 77.851)">
                <path id="Trazado_189684" data-name="Trazado 189684" d="M339.621,313.934,271.608,353.2c-1.154.667-1.672,1.812-1.145,2.55s1.9.789,3.052.123l68.012-39.268c1.154-.666,1.654-1.8,1.128-2.536S340.774,313.267,339.621,313.934Z" transform="translate(-270.256 -313.472)" fill="#455a64"/>
              </g>
              <g id="Grupo_124447" data-name="Grupo 124447" transform="translate(19.554 85.726)">
                <path id="Trazado_189685" data-name="Trazado 189685" d="M347.013,323.739,279,363.007c-1.154.666-1.621,1.784-1.034,2.486s2.006.726,3.162.059l68.012-39.266c1.154-.667,1.607-1.771,1.019-2.473S348.167,323.073,347.013,323.739Z" transform="translate(-277.712 -323.261)" fill="#455a64"/>
              </g>
              <g id="Grupo_124448" data-name="Grupo 124448" transform="translate(26.184 93.231)">
                <path id="Trazado_189686" data-name="Trazado 189686" d="M355.2,333.083l-68.012,39.268c-1.154.666-1.576,1.756-.932,2.426s2.107.667,3.262,0l68.012-39.266c1.154-.667,1.562-1.744.918-2.414A2.851,2.851,0,0,0,355.2,333.083Z" transform="translate(-285.953 -332.589)" fill="#455a64"/>
              </g>
              <g id="Grupo_124449" data-name="Grupo 124449" transform="translate(33.424 100.392)">
                <path id="Trazado_189687" data-name="Trazado 189687" d="M364.148,342l-68.012,39.267c-1.154.666-1.531,1.731-.831,2.37a3.118,3.118,0,0,0,3.361-.058l68.012-39.267c1.154-.666,1.517-1.718.818-2.356A3.093,3.093,0,0,0,364.148,342Z" transform="translate(-294.952 -341.491)" fill="#455a64"/>
              </g>
            </g>
            <g id="Grupo_124454" data-name="Grupo 124454" transform="translate(8.156 39.03)">
              <g id="Grupo_124451" data-name="Grupo 124451">
                <path id="Trazado_189688" data-name="Trazado 189688" d="M274.264,244.435,242.178,262.96c.357,11.62,1.682,28.394,6.546,45.277l32.086-18.525C275.946,272.829,274.621,256.056,274.264,244.435Z" transform="translate(-242.178 -244.435)" fill="#27debf"/>
                <path id="Trazado_189689" data-name="Trazado 189689" d="M274.264,244.435,242.178,262.96c.357,11.62,1.682,28.394,6.546,45.277l32.086-18.525C275.946,272.829,274.621,256.056,274.264,244.435Z" transform="translate(-242.178 -244.435)" fill="#fff" opacity="0.8"/>
              </g>
              <g id="Grupo_124452" data-name="Grupo 124452" transform="translate(0 11.875)">
                <path id="Trazado_189690" data-name="Trazado 189690" d="M255.264,263.271A5.317,5.317,0,0,0,253.7,259.2l-11.518,6.65c.094,3.07.26,6.509.537,10.205a7.527,7.527,0,0,0,4.358-.768C251.6,273.172,255.264,267.794,255.264,263.271Z" transform="translate(-242.178 -259.195)" fill="#27debf"/>
                <path id="Trazado_189691" data-name="Trazado 189691" d="M255.264,263.271A5.317,5.317,0,0,0,253.7,259.2l-11.518,6.65c.094,3.07.26,6.509.537,10.205a7.527,7.527,0,0,0,4.358-.768C251.6,273.172,255.264,267.794,255.264,263.271Z" transform="translate(-242.178 -259.195)" fill="#fff" opacity="0.6"/>
              </g>
              <g id="Grupo_124453" data-name="Grupo 124453" transform="translate(12.311 19.088)">
                <path id="Trazado_189692" data-name="Trazado 189692" d="M281.08,283.249h0c-2.14-2.7-6.492-11.024-8.352-14.651a.806.806,0,0,0-1.487.136,88.279,88.279,0,0,0-3.481,21.12,30.63,30.63,0,0,1-6.811-7.581.71.71,0,0,0-1.278.222,78.921,78.921,0,0,0-1.749,26.8h0L283.8,294.35C282.728,290.625,281.836,286.909,281.08,283.249Z" transform="translate(-257.481 -268.161)" fill="#27debf"/>
                <path id="Trazado_189693" data-name="Trazado 189693" d="M281.08,283.249h0c-2.14-2.7-6.492-11.024-8.352-14.651a.806.806,0,0,0-1.487.136,88.279,88.279,0,0,0-3.481,21.12,30.63,30.63,0,0,1-6.811-7.581.71.71,0,0,0-1.278.222,78.921,78.921,0,0,0-1.749,26.8h0L283.8,294.35C282.728,290.625,281.836,286.909,281.08,283.249Z" transform="translate(-257.481 -268.161)" fill="#fff" opacity="0.6"/>
              </g>
            </g>
          </g>
        </g>
      </g>
    </g>
  </g>
</svg>
